<svg width="81" height="80" fill="none" xmlns="http://www.w3.org/2000/svg"><path d="M81 75.082V3.394C81-.261 80.432.02 75.316.02c-.776-.045-13.605 0-14.393 0-14.6 0-25.829 19.994-26.951 41.098-1.123 21.105 20.008 38.878 26.951 38.878.788 0 15.038-.087 15.814-.135 3.695 0 4.263 0 4.263-4.78zm-70.894-15.08c.6 3.953 2.021 5.929 3.368 7.776.753 1.032 2.172 2.974 4.49 3.331 3.022.467 5.509-2.077 6.74-3.331 2.975-3.042 5.183-8.175 3.367-11.107-.295-.481-.577-.934-1.122-1.11-2.39-.774-5.48 5.222-7.862 4.44-.417-.137-.429-.356-1.122-1.11-2.08-2.257-5.554-4.16-6.739-3.33-.597.418-1.529 1.765-1.122 4.44h.002zm1.382-14.335c.497 3.284 1.677 4.923 2.796 6.455.626.857 1.805 2.468 3.73 2.766 2.509.388 4.572-1.723 5.593-2.766 2.47-2.525 4.303-6.79 2.796-9.224-.247-.4-.48-.776-.932-.922-1.984-.644-4.55 4.338-6.526 3.688-.346-.115-.355-.295-.932-.922-1.728-1.875-4.613-3.455-5.593-2.766-.495.346-1.27 1.465-.932 3.688v.003zm1.759-14.217c.404 2.671 1.364 4.006 2.277 5.252.508.697 1.466 2.01 3.035 2.252 2.04.315 3.72-1.403 4.55-2.252 2.01-2.055 3.502-5.524 2.277-7.503-.202-.324-.39-.633-.76-.751-1.614-.523-3.702 3.528-5.308 3.002-.282-.092-.29-.241-.759-.75-1.404-1.527-3.752-2.811-4.55-2.252-.404.281-1.032 1.192-.76 3.002h-.002z" fill="#E3E3E3"/><path d="M26.906.293c.117 10.534.267 21.068.33 31.602.028 4.781-4.013 7.05-6.989 10.157.77.16 1.168.382 1.407.27 1.74-.83 3.22-3.368 5.255-2.08 2.078 1.312 1.279 4.036 1.19 6.193-.21 5.195-4.339 7.77-7.695 10.651.758 1.361 1.338.695 1.87.318 1.759-1.242 3.498-3.753 5.638-2.628 2.399 1.26 1.367 4.315 1.336 6.623-.043 3.078-1.248 5.84-3.498 7.911-2.797 2.575-6.427 4.523-5.412 9.336.136.65-.404 1.437-1.356 1.347-.92-.087-1.304-.91-1.173-1.555.91-4.534-2.433-6.412-5.113-8.872-1.302-1.195-2.314-2.921-2.945-4.6-1.19-3.176-2.089-7.286.12-9.56 2.651-2.73 4.686 2.12 7.747 2.642-.028-2.162-1.915-2.598-2.984-3.531-2.163-1.886-3.88-4.043-4.28-6.907-.347-2.5-1.293-5.614 1-7.273 2.115-1.53 3.698 1.715 5.784 2.159.136-.32.412-.852.37-.88-6.066-3.913-7.08-9.738-6.643-16.41.543-8.284-.505-16.617.532-24.905h2.214c.068 7.383.162 14.762.187 22.145.009 2.642.145 5.063 4.24 5.08V.293h2.215v27.469c4.067-.83 4.075-2.997 4.093-5.32.056-7.382.215-14.764.335-22.15h2.225zm-.346 56.484c-4.403 1.591-5.517 5.373-7.288 8.836-2.36-4.398-4.843-7.208-7.446-8.428-.611 6.362 2.907 12.701 7.16 12.893 4.055.185 7.835-6.123 7.573-13.3zM12.857 42.44c-.168 5.89 2.748 10.941 6.161 11.068 3.695.135 6.759-5.196 6.242-10.902-3.738.556-4.036 4.548-6.35 6.747-1.68-2.747-2.39-5.789-6.053-6.913zm.935-13.29c-.941 3.934.668 6.616 3.873 8.665 2.172 1.389 3.44-.273 4.741-1.43 2.3-2.047 2.811-4.482 1.884-7.521-3.018 1.383-3.632 3.837-4.985 5.85-2.091-1.906-2.143-5.164-5.513-5.563z" fill="#707070"/><path d="M57.92.293c-9.03 6.598-16.593 14.284-20.157 25.22-6.06 18.588.097 38.486 15.78 50.384 1.133.86 2.248 1.751 3.578 2.791-3.837 1.24-5.915-1.15-8.072-3.005-21.836-18.788-21.901-52.287-.176-71.502 1.506-1.333 3.075-2.595 4.615-3.888h4.431z" fill="#707070"/><path d="M77.996 10.692c1.04.014 2.714-.487 2.737.91.04 2.567-2.385 1.609-3.757 1.825-11.82 1.853-20.532 10.09-22.709 21.633-2.1 11.127 3.115 22.305 13.011 27.953 3.249 1.852 6.745 2.84 10.445 3.368 1.185.168 3.61-.551 3.146 1.807-.386 1.96-2.504 1.071-3.763.872-11.712-1.847-20.045-8.164-24.16-19.19-4.23-11.327-1.68-21.58 6.55-30.354 4.946-5.27 11.181-8.242 18.5-8.827v.003z" fill="#707070"/><path d="M80.594 40.272c0 1.456.099 2.924-.023 4.372-.13 1.535.79 3.618-.819 4.47-1.665.882-3.348-.374-4.777-1.42-5.747-4.206-5.244-12.952.958-16.27 2.839-1.52 5.075-1.762 4.689 2.84-.168 1.988-.028 4.006-.026 6.01l-.002-.002z" fill="#707070"/></svg>