<svg width="93" height="94" fill="none" xmlns="http://www.w3.org/2000/svg"><path d="M90.621.881H2.21C.99.881 0 1.871 0 3.091v88.412c0 1.22.99 2.209 2.21 2.209h88.41c1.22 0 2.21-.99 2.21-2.21V3.091c0-1.22-.99-2.21-2.21-2.21z" fill="#89D240"/><path d="M93 88.008V4.798C93 .554 92.347.881 86.474.881c-.891-.053-15.621 0-16.525 0-16.763 0-29.655 23.207-30.944 47.704-1.29 24.496 22.972 45.126 30.944 45.126.904 0 17.265-.101 18.156-.157 4.242 0 4.895 0 4.895-5.547zM11.604 70.504c.688 4.588 2.32 6.882 3.867 9.026.864 1.198 2.493 3.453 5.155 3.867 3.47.542 6.324-2.411 7.737-3.867 3.417-3.53 5.952-9.49 3.867-12.892-.34-.559-.662-1.084-1.289-1.29-2.744-.897-6.291 6.064-9.026 5.156-.48-.16-.492-.414-1.289-1.289-2.388-2.62-6.376-4.83-7.737-3.867-.685.487-1.755 2.05-1.288 5.156h.003zm1.586-16.638c.57 3.811 1.925 5.713 3.21 7.492.719.995 2.073 2.865 4.282 3.21 2.881.451 5.25-2 6.422-3.21 2.835-2.93 4.94-7.88 3.21-10.707-.283-.463-.55-.9-1.07-1.07-2.277-.747-5.224 5.035-7.492 4.281-.398-.133-.408-.342-1.07-1.07-1.984-2.177-5.296-4.01-6.422-3.21-.568.4-1.459 1.7-1.07 4.28v.004zm2.02-16.502c.463 3.1 1.566 4.65 2.613 6.095.584.81 1.684 2.333 3.485 2.614 2.343.365 4.272-1.628 5.225-2.614 2.307-2.385 4.02-6.412 2.614-8.71-.232-.374-.447-.733-.872-.87-1.853-.607-4.252 4.095-6.095 3.485-.323-.108-.333-.281-.872-.872-1.611-1.771-4.307-3.263-5.224-2.613-.463.326-1.184 1.383-.871 3.485h-.003z" fill="#FBD719"/><path d="M30.892 1.198c.134 12.227.307 24.454.379 36.681.032 5.551-4.608 8.184-8.024 11.79.884.186 1.34.444 1.615.314 1.997-.963 3.697-3.91 6.034-2.415 2.385 1.524 1.468 4.686 1.367 7.189-.242 6.03-4.983 9.019-8.837 12.364.871 1.579 1.537.806 2.147.368 2.02-1.442 4.017-4.356 6.474-3.05 2.755 1.461 1.57 5.008 1.534 7.687-.049 3.573-1.432 6.778-4.017 9.183-3.21 2.989-7.378 5.25-6.213 10.837.157.754-.463 1.667-1.556 1.563-1.058-.101-1.498-1.058-1.348-1.805 1.044-5.263-2.793-7.443-5.87-10.298-1.495-1.387-2.657-3.39-3.381-5.339-1.367-3.687-2.399-8.458.137-11.098 3.044-3.168 5.38 2.46 8.895 3.068-.032-2.51-2.2-3.016-3.426-4.099-2.483-2.19-4.454-4.692-4.914-8.018-.399-2.9-1.485-6.516 1.148-8.441 2.428-1.776 4.246 1.99 6.64 2.506.157-.372.474-.989.425-1.022-6.964-4.542-8.128-11.303-7.626-19.047.623-9.616-.58-19.288.61-28.908h2.542c.079 8.57.186 17.135.216 25.704.01 3.067.166 5.877 4.868 5.897V1.199h2.542v31.884c4.67-.963 4.68-3.479 4.7-6.174.064-8.57.247-17.138.384-25.71h2.555zm-.398 65.564c-5.055 1.847-6.334 6.236-8.367 10.256-2.71-5.106-5.56-8.367-8.549-9.783-.702 7.384 3.338 14.743 8.22 14.965 4.656.215 8.996-7.108 8.696-15.438zM14.762 50.12c-.192 6.836 3.156 12.7 7.075 12.847 4.242.156 7.76-6.03 7.166-12.655-4.291.646-4.634 5.28-7.29 7.832-1.928-3.188-2.744-6.72-6.95-8.024zm1.074-15.425c-1.08 4.565.767 7.678 4.448 10.057 2.493 1.612 3.948-.317 5.443-1.661 2.64-2.376 3.227-5.202 2.163-8.73-3.465 1.606-4.17 4.455-5.723 6.791-2.402-2.212-2.46-5.994-6.33-6.457z" fill="#000"/><path d="M66.5 1.198c-10.367 7.659-19.05 16.58-23.143 29.274-6.957 21.576.111 44.673 18.117 58.482 1.303.999 2.582 2.033 4.109 3.24-4.405 1.44-6.79-1.334-9.268-3.488C31.245 66.9 31.17 28.015 56.113 5.711c1.73-1.547 3.53-3.012 5.3-4.513H66.5z" fill="#000"/><path d="M89.55 13.269c1.195.016 3.117-.565 3.143 1.057.046 2.98-2.737 1.867-4.314 2.118-13.571 2.15-23.573 11.711-26.072 25.11a30.877 30.877 0 0014.939 32.445c3.73 2.15 7.743 3.296 11.992 3.91 1.36.195 4.144-.64 3.612 2.098-.444 2.274-2.875 1.243-4.32 1.011-13.448-2.143-23.016-9.476-27.74-22.274-4.856-13.147-1.93-25.048 7.52-35.232 5.679-6.119 12.838-9.568 21.24-10.247v.004z" fill="#000"/><path d="M92.533 47.604c0 1.69.114 3.393-.026 5.074-.15 1.782.907 4.2-.94 5.188-1.912 1.025-3.844-.434-5.485-1.648-6.598-4.881-6.02-15.033 1.1-18.883 3.26-1.766 5.828-2.046 5.384 3.295-.193 2.307-.033 4.65-.03 6.977l-.003-.003z" fill="#000"/></svg>