<svg width="93" height="93" fill="none" xmlns="http://www.w3.org/2000/svg"><path d="M93 87.15V3.939C93-.303 92.347.023 86.474.023c-.891-.052-15.621 0-16.525 0-16.763 0-29.655 23.208-30.944 47.704-1.29 24.497 22.972 45.127 30.944 45.127.904 0 17.265-.102 18.156-.157 4.242 0 4.895 0 4.895-5.547zM11.604 69.646c.688 4.588 2.32 6.882 3.867 9.026.864 1.197 2.493 3.452 5.155 3.867 3.47.541 6.324-2.412 7.737-3.867 3.417-3.53 5.952-9.49 3.867-12.893-.34-.558-.662-1.083-1.289-1.289-2.744-.897-6.291 6.063-9.026 5.156-.48-.16-.492-.415-1.289-1.289-2.388-2.62-6.376-4.83-7.737-3.867-.685.486-1.755 2.05-1.288 5.156h.003zm1.586-16.639c.57 3.812 1.925 5.714 3.21 7.492.719.996 2.073 2.865 4.282 3.211 2.881.45 5.25-2 6.422-3.21 2.835-2.93 4.94-7.881 3.21-10.707-.283-.463-.55-.9-1.07-1.07-2.277-.748-5.224 5.035-7.492 4.281-.398-.134-.408-.343-1.07-1.07-1.984-2.177-5.296-4.01-6.422-3.211-.568.401-1.459 1.7-1.07 4.281v.003zm2.02-16.502c.463 3.1 1.566 4.65 2.613 6.096.584.81 1.684 2.333 3.485 2.614 2.343.365 4.272-1.629 5.225-2.614 2.307-2.386 4.02-6.412 2.614-8.71-.232-.375-.447-.734-.872-.87-1.853-.608-4.252 4.094-6.095 3.484-.323-.107-.333-.28-.872-.871-1.611-1.772-4.307-3.263-5.224-2.614-.463.326-1.184 1.384-.871 3.485h-.003z" fill="#E3E3E3"/><path d="M30.892.34c.134 12.227.307 24.454.379 36.681.032 5.55-4.608 8.184-8.024 11.79.884.186 1.34.444 1.615.313 1.997-.963 3.697-3.91 6.034-2.415 2.385 1.524 1.468 4.686 1.367 7.19-.242 6.03-4.983 9.018-8.837 12.363.871 1.58 1.537.806 2.147.369 2.02-1.442 4.017-4.356 6.474-3.051 2.755 1.462 1.57 5.009 1.534 7.688-.049 3.573-1.432 6.777-4.017 9.182-3.21 2.99-7.378 5.25-6.213 10.837.157.754-.463 1.668-1.556 1.563-1.058-.1-1.498-1.057-1.348-1.804 1.044-5.264-2.793-7.443-5.87-10.299-1.495-1.386-2.657-3.39-3.381-5.338-1.367-3.688-2.399-8.458.137-11.098 3.044-3.169 5.38 2.46 8.895 3.067-.032-2.51-2.2-3.015-3.426-4.098-2.483-2.19-4.454-4.693-4.914-8.018-.399-2.9-1.485-6.517 1.148-8.442 2.428-1.775 4.246 1.99 6.64 2.506.157-.372.474-.988.425-1.021-6.964-4.542-8.128-11.304-7.626-19.047.623-9.617-.58-19.289.61-28.908h2.542c.079 8.569.186 17.134.216 25.703.01 3.068.166 5.877 4.868 5.897V.34h2.542v31.884c4.67-.962 4.68-3.478 4.7-6.174.064-8.569.247-17.138.384-25.71h2.555zm-.398 65.563C25.44 67.75 24.16 72.14 22.127 76.16c-2.71-5.105-5.56-8.366-8.549-9.783-.702 7.385 3.338 14.743 8.22 14.965 4.656.216 8.996-7.107 8.696-15.438zM14.762 49.261c-.192 6.836 3.156 12.7 7.075 12.847 4.242.157 7.76-6.03 7.166-12.654-4.291.646-4.634 5.28-7.29 7.831-1.928-3.188-2.744-6.719-6.95-8.024zm1.074-15.425c-1.08 4.565.767 7.678 4.448 10.057 2.493 1.612 3.948-.316 5.443-1.66 2.64-2.376 3.227-5.202 2.163-8.73-3.465 1.606-4.17 4.455-5.723 6.79-2.402-2.212-2.46-5.993-6.33-6.457z" fill="#707070"/><path d="M66.5.34C56.133 7.998 47.45 16.92 43.357 29.614c-6.957 21.576.111 44.672 18.117 58.482 1.303.998 2.582 2.033 4.109 3.24-4.405 1.44-6.79-1.334-9.268-3.488-25.07-21.808-25.145-60.691-.202-82.995 1.73-1.547 3.53-3.012 5.3-4.513H66.5z" fill="#707070"/><path d="M89.55 12.41c1.195.017 3.117-.564 3.143 1.058.046 2.979-2.737 1.866-4.314 2.117-13.571 2.15-23.573 11.712-26.072 25.11a30.877 30.877 0 0014.939 32.446c3.73 2.15 7.743 3.296 11.992 3.91 1.36.195 4.144-.64 3.612 2.097-.444 2.275-2.875 1.244-4.32 1.012-13.448-2.144-23.016-9.476-27.74-22.274-4.856-13.148-1.93-25.048 7.52-35.233 5.679-6.118 12.838-9.567 21.24-10.246v.003z" fill="#707070"/><path d="M92.533 46.745c0 1.69.114 3.394-.026 5.075-.15 1.781.907 4.2-.94 5.188-1.912 1.025-3.844-.434-5.485-1.648-6.598-4.882-6.02-15.033 1.1-18.884 3.26-1.765 5.828-2.046 5.384 3.296-.193 2.307-.033 4.65-.03 6.977l-.003-.004z" fill="#707070"/></svg>