<svg width="52" height="24" fill="#707070" xmlns="http://www.w3.org/2000/svg"><path d="M1.442 5.234a.5.5 0 10-.884-.468l.884.468zm3.56 10.056l.254-.432-.253.432zM19 12.5l.431.253.013-.022.01-.023L19 12.5zm-8-3l.431.253L11 9.5zm1.5 8.5l-.4.3.026.034.031.03L12.5 18zM33 21.5l.176.468.02-.008.02-.01L33 21.5zM49.454 1.235a.5.5 0 00-.662-.249l-4.097 1.86a.5.5 0 10.413.91l3.642-1.653 1.654 3.643a.5.5 0 10.91-.414l-1.86-4.097zM.195 5.828a.5.5 0 00.983.187l-.983-.187zm.989 1.964a.5.5 0 10-.99.149l.99-.149zm-.487 2.13a.5.5 0 10.945-.328l-.945.329zm1.689 1.403a.5.5 0 10-.89.457l.89-.457zm.156 2.19a.5.5 0 00.817-.579l-.817.579zm2.02.819a.5.5 0 00-.674.738l.674-.738zm1.16 1.788a.5.5 0 10.273-.962l-.272.962zm1.997-.719a.5.5 0 10-.041 1l.04-1zm1.877.955a.5.5 0 10-.078-.997l.078.997zm1.728-1.219a.5.5 0 00.161.987l-.161-.987zm2.021.612a.5.5 0 00-.233-.973l.233.973zm1.52-1.465a.5.5 0 00.31.95l-.31-.95zm2.098.268a.5.5 0 00-.41-.912l.41.912zm1.097-1.775a.5.5 0 00.616.788l-.616-.788zm1.766-1.258a.5.5 0 10-.986-.17l.986.17zm-1.227-2.056a.5.5 0 10.91-.416l-.91.416zm-.694-2.298a.5.5 0 00-.565.826l.565-.826zm-2.404.16a.5.5 0 00.09-.995l-.09.995zm-2.337-.57a.5.5 0 10.422.907l-.422-.906zm-1.142 2.148a.5.5 0 10-.769-.64l.77.64zm-1.958 1.49a.5.5 0 10.954.299l-.954-.3zm.732 2.373a.5.5 0 00-.998.075l.998-.075zm-.452 2.435a.5.5 0 10.934-.356l-.934.356zm1.925 1.587a.5.5 0 10-.843.537l.843-.537zm.73 2.318a.5.5 0 00.638-.77l-.638.77zm2.353.477a.5.5 0 10-.535.845l.535-.845zm1.44 1.92a.5.5 0 10.42-.907l-.42.907zm2.395-.138a.5.5 0 10-.304.952l.304-.952zm1.867 1.506a.5.5 0 00.191-.982l-.19.982zm2.301-.69a.5.5 0 10-.085.997l.085-.996zm2.146 1.077a.5.5 0 00-.012-1l.012 1zm2.124-1.123a.5.5 0 10.101.995l-.101-.995zm2.303.677a.5.5 0 10-.184-.983l.184.983zm1.901-1.468a.5.5 0 10.272.962l-.272-.962zm2.239.134a.5.5 0 10-.512-.86l.512.86zm1.018-1.862a.5.5 0 00.58.816l-.58-.816zm2.093-.334a.5.5 0 10-.629-.778l.63.778zm.772-1.98a.5.5 0 10.672.741l-.672-.74zm2.04-.568a.5.5 0 00-.71-.704l.71.704zm.554-2.047a.5.5 0 10.745.667l-.745-.667zm1.975-.776a.5.5 0 00-.777-.63l.777.63zm.35-2.088a.5.5 0 10.805.592l-.805-.592zm1.89-.957a.5.5 0 00-.831-.555l.832.555zm.16-2.116a.5.5 0 00.857.517l-.856-.517zm1.798-1.12a.5.5 0 00-.877-.48l.877.48zm-.024-2.12a.5.5 0 10.897.442l-.897-.442zm1.7-1.27a.5.5 0 10-.914-.407l.914.406zm-.199-2.109a.5.5 0 00.93.37l-.93-.37zM.558 4.766a3.763 3.763 0 00-.363 1.062l.983.187a2.75 2.75 0 01.264-.781l-.884-.468zM.195 7.94c.097.65.272 1.32.502 1.982l.945-.329a10.128 10.128 0 01-.458-1.802l-.99.149zm1.301 3.84c.316.615.67 1.202 1.046 1.733l.817-.577a13.368 13.368 0 01-.973-1.612l-.89.457zm2.392 3.291c.28.256.57.477.862.649l.506-.863a4.203 4.203 0 01-.694-.524l-.674.738zm.862.649c.289.17.618.3.973.4l.272-.961a3.174 3.174 0 01-.74-.302l-.505.863zm2.928.681a16.2 16.2 0 001.918-.044l-.078-.997c-.633.05-1.24.065-1.8.042l-.04 1zm3.807-.276a26.005 26.005 0 001.86-.375l-.233-.973c-.588.141-1.19.263-1.788.361l.161.987zm3.69-.89a17.68 17.68 0 001.788-.682l-.41-.912c-.505.228-1.075.444-1.687.644l.31.95zm3.501-1.67c.312-.243.58-.514.755-.813l-.862-.506c-.09.151-.253.332-.509.532l.616.788zm.779-.858c.181-.398.304-.796.37-1.188l-.985-.169a3.813 3.813 0 01-.295.941l.91.416zm.054-3.659a4.625 4.625 0 00-1.604-1.882l-.565.826c.55.376.991.884 1.26 1.472l.909-.416zm-3.917-2.717a4.71 4.71 0 00-2.428.426l.422.906a3.71 3.71 0 011.915-.337l.09-.995zm-4.339 1.934a7.36 7.36 0 00-.684.981l.862.506c.187-.318.385-.6.591-.848l-.769-.64zm-.684.981c-.19.323-.367.707-.505 1.148l.954.299c.115-.367.261-.682.413-.941l-.862-.506zm-.77 3.596a8.4 8.4 0 00.545 2.36l.934-.356a7.4 7.4 0 01-.482-2.08l-.998.076zm1.627 4.484c.202.319.426.643.674.973l.8-.6c-.233-.31-.442-.614-.63-.91l-.844.537zm.731 1.037c.277.26.558.509.842.744l.638-.77a16.93 16.93 0 01-.794-.702l-.686.728zm2.66 2.066c.65.41 1.31.767 1.974 1.075l.421-.907a16.33 16.33 0 01-1.86-1.013l-.535.845zm4.066 1.89c.729.232 1.454.414 2.171.553l.191-.982a18.133 18.133 0 01-2.058-.524l-.304.952zm4.387.86a23.03 23.03 0 002.231.08l-.012-1a21.986 21.986 0 01-2.134-.076l-.085.996zm4.456-.048a26.477 26.477 0 002.202-.318l-.184-.983c-.634.12-1.347.228-2.119.306l.101.995zm4.375-.824a18.53 18.53 0 001.053-.332l.015-.005.004-.002h.002L33 21.5l-.175-.468h-.003a4.047 4.047 0 01-.058.021 17.409 17.409 0 01-.935.292l.272.963zM33 21.5l.217.45h.002l.003-.002.013-.006.045-.023.168-.087c.144-.078.354-.194.62-.352l-.512-.86a14.429 14.429 0 01-.728.407l-.036.018-.008.004h-.001L33 21.5zm2.665-1.066c.458-.326.967-.707 1.514-1.15l-.629-.778c-.53.43-1.022.799-1.464 1.112l.58.816zm2.958-2.389c.442-.401.9-.837 1.368-1.31l-.71-.703c-.456.46-.9.883-1.33 1.273l.672.74zm2.667-2.689c.407-.454.817-.935 1.23-1.443l-.777-.63c-.402.496-.802.964-1.198 1.406l.745.667zm2.385-2.939a40.98 40.98 0 001.086-1.549l-.832-.555c-.351.526-.705 1.03-1.06 1.512l.806.592zm2.102-3.148c.318-.526.632-1.072.941-1.637l-.877-.48c-.302.553-.61 1.086-.92 1.6l.856.517zm1.814-3.315c.273-.554.541-1.125.803-1.713l-.914-.406a45.599 45.599 0 01-.786 1.677l.897.442zm1.534-3.451a49.5 49.5 0 00.342-.886l-.936-.352c-.11.294-.222.583-.336.868l.93.37z"/></svg>