<svg width="188" height="107" viewBox="0 0 188 107" fill="none" xmlns="http://www.w3.org/2000/svg">
<path d="M0 93.0008C0.360495 92.8154 0.678771 92.6496 1.00029 92.4869C4.07912 90.9356 7.13846 89.3355 10.2498 87.8525C11.8476 87.0915 13.5429 86.5288 15.196 85.8849C19.7948 84.0929 24.387 82.2814 29.1352 80.8894C35.0947 79.1397 41.1225 77.6599 47.1924 76.3493C50.2063 75.6988 53.2267 75.0679 56.2503 74.45C57.676 74.1605 59.1278 74.0597 60.5762 73.9264C63.5869 73.6499 66.5975 73.393 69.6146 73.1263C69.6211 72.8726 69.4912 72.6677 69.41 72.4531C68.0492 68.9114 66.854 65.3242 66.1395 61.5873C65.7206 59.3921 65.4673 57.174 65.2367 54.9528C64.847 51.2029 65.0548 47.4498 65.097 43.6935C65.1198 41.521 64.8664 39.3615 64.6586 37.2052C64.5514 36.08 64.415 34.9579 64.1487 33.8587C64.074 33.5497 64.0091 33.2245 63.759 32.9806C63.6063 33.0911 63.5933 33.257 63.5446 33.3936C62.5963 36.119 60.914 38.2915 58.5919 39.9827C57.3188 40.9095 55.8541 41.3844 54.3601 41.7876C53.2721 42.0803 52.1809 42.3666 51.0832 42.6267C50.1641 42.8479 49.4561 43.3585 48.917 44.1098C48.1732 45.1505 47.3548 46.0936 46.2896 46.8449C43.6232 48.7214 40.7522 49.2711 37.6052 48.406C36.0138 47.9702 34.4842 47.3718 32.9577 46.7473C32.7142 46.6465 32.7336 46.5229 32.8018 46.3278C33.1234 45.4042 33.5715 44.5423 34.0522 43.6935C34.9356 42.1324 35.7443 40.5388 36.3126 38.8314C36.5464 38.1256 36.5919 37.4557 36.1827 36.7759C34.0132 33.1627 33.8996 29.3966 35.3773 25.5199C35.7637 24.5085 36.2542 23.5523 36.829 22.6384C37.1051 22.2026 37.1148 21.8123 36.8485 21.37C36.1275 20.183 35.6371 18.9048 35.4487 17.5194C35.3643 16.8982 35.3383 16.277 35.465 15.6591C35.7118 14.4525 36.5302 13.7403 37.7546 13.6297C38.586 13.5549 39.3525 13.7728 40.08 14.1338C40.5541 14.3712 41.038 14.6054 41.4732 14.9078C42.5027 15.6201 43.5972 15.6884 44.7794 15.3989C46.7897 14.9046 48.6961 14.1208 50.583 13.2947C52.2459 12.5662 53.8795 11.7759 55.4968 10.9498C56.3737 10.501 57.0687 9.80505 57.8124 9.18061C60.0469 7.29756 62.2163 5.33971 64.5352 3.55423C65.555 2.77043 66.63 2.06795 67.7179 1.38172C69.712 0.123105 71.849 -0.247652 74.1679 0.155627C81.5629 1.44677 88.3181 4.22744 94.3394 8.74807C95.9762 9.97742 97.428 11.4052 98.844 12.8784C99.3733 13.4281 99.8897 13.9907 100.507 14.4688C100.588 14.2866 100.465 14.1793 100.406 14.0622C99.4513 12.1662 98.1522 10.5173 96.7427 8.94645C95.3884 7.43416 93.9009 6.05846 92.4362 4.65674C92.2121 4.44209 91.9751 4.24695 91.6763 3.98352C92.4167 3.71684 93.0565 3.64854 93.6898 3.59325C97.087 3.29405 100.484 3.39487 103.884 3.55748C106.375 3.67456 108.857 3.87295 111.318 4.28598C121.201 5.95439 129.941 9.95465 137.092 17.0966C143.032 23.0254 146.77 30.1674 148.459 38.3891C149.17 41.8527 149.472 45.3554 149.375 48.8841C149.291 51.8761 148.836 54.8292 148.255 57.7627C147.154 63.3436 145.53 68.7911 143.974 74.2548C143.821 74.7915 143.695 75.3346 143.513 75.8615C143.412 76.1574 143.48 76.2615 143.773 76.346C146.15 77.0388 148.527 77.7282 150.892 78.4567C157.803 80.5805 164.727 82.6814 171.463 85.3287C176.834 87.4394 182.04 89.9307 187.156 92.6073C187.441 92.7569 187.727 92.9032 188 93.0788C187.649 93.0658 187.331 92.939 187.006 92.8349C184.337 91.9796 181.781 90.8251 179.137 89.9014C175.003 88.4574 170.885 86.9451 166.624 85.9109C163.512 85.1531 160.476 84.1319 157.355 83.4099C152.896 82.379 148.41 81.4813 143.899 80.7073C140.268 80.0829 136.628 79.53 132.981 79.0259C129.873 78.5966 126.755 78.2226 123.634 77.8974C119.324 77.4453 115.005 77.0973 110.675 76.8436C108.071 76.6908 105.463 76.577 102.855 76.4989C98.6231 76.3721 94.3913 76.3168 90.1596 76.3786C86.2786 76.4338 82.3976 76.5542 78.5231 76.7623C74.3757 76.9835 70.2349 77.2924 66.1006 77.6957C60.7419 78.2193 55.4026 78.8958 50.0829 79.7251C42.7528 80.8699 35.4877 82.3367 28.307 84.21C25.2477 85.0068 22.1364 85.6019 19.09 86.454C15.1895 87.5403 11.4189 89.0005 7.63536 90.4348C5.29701 91.3194 2.95866 92.2138 0.565101 92.939C0.402716 92.9878 0.24033 93.0951 0 93.0171L0 93.0008ZM125.076 73.5979C125.998 73.5979 126.917 73.5849 127.839 73.6076C128.125 73.6142 128.219 73.5068 128.268 73.2531C128.346 72.8466 128.453 72.4433 128.554 72.0433C128.898 70.6904 129.158 69.3277 129.022 67.9227C128.742 65.0672 127.999 62.3354 126.69 59.7791C124.585 55.6715 121.747 52.2046 118.018 49.4304C115.911 47.8596 113.735 46.5294 111.195 45.8172C109.776 45.4172 108.399 45.4399 107.064 46.0774C105.882 46.64 105.901 46.3733 106.522 47.5571C107.632 49.6776 108.425 51.8696 108.779 54.2633C109.298 57.7659 109.792 61.2524 109.5 64.8038C109.295 67.3015 109.045 69.7928 108.577 72.258C108.519 72.5604 108.542 72.6808 108.905 72.697C110.825 72.7848 112.741 72.8987 114.657 73.019C118.129 73.2336 121.601 73.4125 125.076 73.6044V73.5979ZM88.9449 71.9327C88.9449 71.9327 88.9449 71.949 88.9449 71.9588C90.257 71.9588 91.5658 71.9522 92.8779 71.9653C93.1442 71.9653 93.2384 71.9002 93.2417 71.627C93.2547 70.8205 93.2969 70.0172 93.3164 69.2139C93.4138 65.1518 93.2059 61.1125 92.2738 57.1415C90.9033 51.2907 88.0453 46.3245 83.4726 42.3893C82.1313 41.2348 80.7218 40.1778 79.1044 39.4298C78.536 39.1663 77.9515 38.9647 77.3117 38.9647C77.0453 38.9647 76.9122 39.0265 76.9187 39.3355C76.9252 39.7908 76.9512 40.2428 77.0486 40.6884C77.1937 41.3475 76.9663 41.8527 76.3666 42.2039C75.4962 42.7145 74.5803 43.1666 73.8074 43.8268C72.5798 44.8773 71.6119 46.1229 71.2352 47.7197C71.1183 48.2173 70.8974 48.5328 70.4915 48.78C69.5626 49.3491 68.637 49.9248 67.7114 50.4972C67.5913 50.572 67.4581 50.6208 67.4679 50.8094C67.5036 51.4176 67.5166 52.0225 67.7829 52.5981C68.3545 53.8502 69.3515 54.6405 70.5597 55.1999C72.1056 55.9154 73.7619 56.2276 75.4183 56.5333C77.1882 56.8618 78.9647 57.1545 80.7055 57.6293C82.4983 58.1204 83.6317 59.2652 84.265 60.9727C85.0055 62.9695 85.1029 65.0542 85.0672 67.1519C85.0412 68.635 84.9113 70.1082 84.7164 71.575C84.6775 71.8612 84.7392 71.949 85.0542 71.9425C86.35 71.9197 87.6491 71.9327 88.9482 71.9327H88.9449ZM53.6099 18.2479C53.7236 18.2024 53.8405 18.1568 53.9542 18.108C54.7076 17.7893 55.4773 17.5259 56.2925 17.4121C57.5948 17.2364 58.4977 17.8576 58.7738 19.139C58.8972 19.7016 58.9069 20.274 58.8647 20.8432C58.829 21.3505 58.7705 21.8546 58.7218 22.3685C58.7738 22.3587 58.7997 22.3587 58.8192 22.349C58.8614 22.3197 58.9037 22.2904 58.9394 22.2514C60.1768 21.0286 60.8913 19.5748 60.7971 17.8023C60.7159 16.277 59.2609 15.0184 57.741 15.1843C55.7924 15.3957 54.6394 16.7388 53.6034 18.2479H53.6099ZM100.562 14.5143C100.562 14.5143 100.549 14.5338 100.549 14.5403C100.562 14.5761 100.578 14.5761 100.594 14.5403C100.594 14.5338 100.591 14.5208 100.585 14.5143C100.581 14.511 100.568 14.5143 100.562 14.5143Z" fill="#707070"/>
<path d="M58.7282 105.421C57.2863 105.421 55.8475 105.415 54.4055 105.428C54.123 105.428 54.0288 105.369 54.0288 105.067C54.0418 102.65 54.0386 100.234 54.0288 97.8174C54.0288 97.5735 54.0775 97.4597 54.3503 97.4824C54.6199 97.5052 54.8959 97.5052 55.1688 97.4824C55.4481 97.4564 55.513 97.5637 55.513 97.8304C55.5033 99.7915 55.513 101.756 55.5 103.717C55.5 104.049 55.565 104.176 55.9222 104.156C56.4906 104.124 57.0654 104.127 57.6338 104.156C57.9715 104.172 58.0397 104.045 58.0365 103.733C58.0235 101.785 58.0365 99.8338 58.0235 97.8857C58.0235 97.5507 58.1242 97.4499 58.4392 97.4857C58.7705 97.5215 59.1992 97.3491 59.4168 97.5507C59.6376 97.7556 59.4882 98.1882 59.4882 98.5199C59.4947 100.273 59.4979 102.029 59.4882 103.782C59.4882 104.078 59.5759 104.163 59.8649 104.153C60.4495 104.133 61.0341 104.133 61.6155 104.153C61.8948 104.163 61.963 104.062 61.963 103.795C61.9532 101.834 61.9662 99.8696 61.95 97.9085C61.95 97.5702 62.0247 97.4337 62.3754 97.4824C62.58 97.5117 62.7944 97.5117 62.9957 97.4824C63.366 97.4271 63.4147 97.5963 63.4147 97.9182C63.4017 100.27 63.4017 102.621 63.4147 104.972C63.4147 105.311 63.353 105.441 62.9762 105.434C61.5602 105.408 60.1475 105.424 58.7315 105.424L58.7282 105.421Z" fill="#707070"/>
<path d="M91.7933 103.174C91.9719 102.693 92.1278 102.286 92.2772 101.876C92.7741 100.527 93.2775 99.1769 93.7614 97.824C93.8555 97.5573 93.9855 97.4662 94.2648 97.4792C94.7584 97.502 95.2521 97.4955 95.7425 97.4792C95.9568 97.4727 96.038 97.5313 96.038 97.7589C96.0315 100.214 96.0315 102.67 96.038 105.125C96.038 105.376 95.9471 105.437 95.7197 105.424C95.4599 105.408 95.2001 105.402 94.9403 105.424C94.661 105.45 94.596 105.343 94.596 105.076C94.6123 103.298 94.609 101.519 94.6123 99.7363C94.6123 99.6517 94.6123 99.5639 94.5408 99.4599C94.3297 99.9932 94.1186 100.53 93.9108 101.063C93.3879 102.403 92.8455 103.737 92.3551 105.089C92.196 105.532 91.8874 105.379 91.6049 105.421C91.3191 105.464 91.1989 105.333 91.1015 105.073C90.4357 103.301 89.7537 101.538 89.0749 99.7688C89.0294 99.6485 88.9775 99.5314 88.8671 99.4208C88.8671 100.068 88.8638 100.715 88.8671 101.366C88.8768 102.598 88.8833 103.834 88.906 105.067C88.9125 105.333 88.8476 105.444 88.565 105.421C88.2955 105.398 88.0194 105.405 87.7466 105.421C87.5388 105.431 87.4771 105.35 87.4771 105.151C87.4803 102.683 87.4803 100.214 87.4771 97.7459C87.4771 97.5508 87.5323 97.4695 87.7434 97.476C88.289 97.489 88.8346 97.4955 89.377 97.476C89.6368 97.4662 89.6628 97.6386 89.7277 97.8045C90.361 99.4631 90.9911 101.122 91.6244 102.784C91.6633 102.888 91.7088 102.989 91.7868 103.174H91.7933Z" fill="#707070"/>
<path d="M136.634 105.421C135.686 105.421 134.741 105.431 133.793 105.415C133.536 105.411 133.452 105.486 133.468 105.743C133.487 106.026 133.471 106.315 133.471 106.598C133.471 106.676 133.504 106.784 133.465 106.826C133.163 107.161 132.77 106.894 132.425 106.972C132.263 107.008 132.195 106.911 132.195 106.748C132.195 105.954 132.198 105.164 132.195 104.371C132.195 104.208 132.253 104.127 132.422 104.14C132.448 104.14 132.474 104.14 132.5 104.14C133.113 104.118 133.527 103.821 133.744 103.249C134.432 101.431 135.127 99.6159 135.803 97.7946C135.887 97.5669 135.985 97.4564 136.238 97.4759C136.599 97.5019 137.031 97.3783 137.307 97.5344C137.586 97.6938 137.605 98.1653 137.732 98.5036C138.398 100.26 139.057 102.019 139.707 103.782C139.798 104.032 139.898 104.153 140.194 104.149C141.094 104.133 141.094 104.149 141.094 105.06C141.094 105.593 141.087 106.124 141.097 106.657C141.103 106.878 141.055 106.976 140.801 106.979C139.811 106.998 139.814 107.008 139.814 106.029C139.814 105.622 139.609 105.418 139.2 105.418C138.343 105.418 137.489 105.418 136.631 105.418L136.634 105.421ZM136.651 99.2711C136.621 99.2744 136.589 99.2776 136.56 99.2841C136.04 100.829 135.52 102.374 134.994 103.915C134.92 104.133 135.02 104.159 135.196 104.156C136.128 104.156 137.063 104.149 137.995 104.156C138.245 104.156 138.275 104.071 138.2 103.854C137.878 102.923 137.567 101.99 137.255 101.057C137.053 100.461 136.852 99.863 136.654 99.2679L136.651 99.2711Z" fill="#707070"/>
<path d="M148.576 99.6321C147.807 100.816 147.034 102 146.264 103.184C145.832 103.847 145.397 104.507 144.971 105.177C144.864 105.346 144.754 105.437 144.539 105.428C144.163 105.408 143.786 105.408 143.409 105.428C143.162 105.441 143.101 105.346 143.101 105.115C143.107 102.673 143.107 100.23 143.101 97.788C143.101 97.5441 143.182 97.4693 143.416 97.4856C143.688 97.5051 143.961 97.5083 144.234 97.4856C144.523 97.4596 144.575 97.5831 144.572 97.8433C144.562 99.6483 144.565 101.453 144.565 103.288C144.741 103.239 144.78 103.092 144.851 102.985C145.978 101.255 147.105 99.528 148.222 97.7913C148.365 97.5701 148.515 97.4661 148.784 97.4888C149.106 97.5149 149.434 97.5149 149.755 97.4888C150.044 97.4661 150.135 97.5571 150.132 97.8531C150.116 98.9458 150.125 100.035 150.125 101.128C150.125 102.442 150.119 103.753 150.132 105.067C150.132 105.353 150.06 105.467 149.762 105.437C149.417 105.402 148.963 105.577 148.745 105.372C148.505 105.145 148.67 104.686 148.667 104.328C148.657 102.774 148.664 101.219 148.664 99.6646C148.635 99.6581 148.605 99.6516 148.579 99.6418L148.576 99.6321Z" fill="#707070"/>
<path d="M110.383 105.421C109.422 105.421 108.464 105.428 107.503 105.418C107.269 105.418 107.178 105.483 107.191 105.724C107.207 106.049 107.184 106.374 107.197 106.696C107.207 106.92 107.116 106.976 106.902 106.982C105.918 107.008 105.918 107.015 105.918 106.029C105.918 105.496 105.927 104.963 105.914 104.432C105.908 104.208 105.992 104.101 106.203 104.149C107.009 104.338 107.269 103.883 107.506 103.206C108.136 101.395 108.85 99.6126 109.519 97.8141C109.61 97.5734 109.714 97.4758 109.987 97.4791C111.072 97.4921 111.069 97.4791 111.452 98.5003C112.111 100.26 112.78 102.016 113.426 103.782C113.53 104.062 113.657 104.159 113.949 104.153C114.803 104.136 114.803 104.153 114.803 104.992C114.803 105.551 114.794 106.111 114.807 106.667C114.813 106.894 114.755 106.982 114.508 106.985C113.543 107.002 113.543 107.011 113.543 106.052C113.543 105.631 113.332 105.421 112.91 105.421C112.066 105.421 111.224 105.421 110.38 105.421H110.383ZM110.299 99.2385C109.776 100.787 109.256 102.331 108.727 103.876C108.649 104.104 108.704 104.162 108.941 104.159C109.851 104.149 110.757 104.143 111.666 104.159C111.975 104.166 112.004 104.081 111.91 103.808C111.413 102.377 110.935 100.936 110.451 99.502C110.419 99.4077 110.425 99.2906 110.299 99.2385Z" fill="#707070"/>
<path d="M30.4539 105.626C28.1643 105.766 26.1799 104.075 26.0533 101.87C25.9006 99.2288 27.4563 97.4206 30.0739 97.2872C32.4058 97.1702 34.3674 98.6467 34.5135 101.235C34.6467 103.636 32.9676 105.47 30.4539 105.626ZM32.9351 101.453C32.9351 100.598 32.6916 99.8305 32.0355 99.2614C31.2204 98.5524 30.272 98.4093 29.275 98.7963C28.2065 99.2126 27.7128 100.084 27.6251 101.18C27.505 102.631 28.2909 103.85 29.5088 104.182C31.3438 104.68 32.9286 103.421 32.9384 101.453H32.9351Z" fill="#707070"/>
<path d="M153.068 101.437C153.068 100.23 153.074 99.0206 153.064 97.814C153.064 97.5701 153.116 97.4563 153.386 97.4791C153.656 97.5018 153.932 97.5051 154.201 97.4791C154.49 97.453 154.539 97.5799 154.536 97.8368C154.526 99.8109 154.536 101.785 154.523 103.759C154.523 104.068 154.61 104.156 154.916 104.149C155.812 104.13 156.705 104.13 157.601 104.149C157.91 104.156 157.994 104.062 157.994 103.756C157.981 101.808 157.994 99.8597 157.981 97.9116C157.981 97.5799 158.05 97.4335 158.407 97.4791C158.638 97.5083 158.875 97.5018 159.105 97.4791C159.391 97.4498 159.446 97.5701 159.443 97.8336C159.433 99.7947 159.443 101.756 159.43 103.717C159.43 104.058 159.514 104.205 159.859 104.143C160.265 104.068 160.385 104.234 160.365 104.641C160.33 105.314 160.346 105.99 160.359 106.667C160.362 106.898 160.304 106.979 160.057 106.982C159.092 106.998 159.092 107.008 159.092 106.045C159.092 105.629 158.878 105.421 158.449 105.421C156.777 105.421 155.101 105.415 153.428 105.428C153.136 105.428 153.051 105.353 153.058 105.06C153.074 103.853 153.064 102.644 153.064 101.437H153.068Z" fill="#707070"/>
<path d="M121.133 101.252C121.217 101.288 121.295 101.327 121.373 101.353C122.104 101.606 122.545 102.114 122.636 102.881C122.734 103.704 122.474 104.393 121.766 104.872C121.188 105.262 120.525 105.392 119.843 105.408C118.937 105.431 118.028 105.408 117.119 105.424C116.872 105.428 116.813 105.343 116.817 105.112C116.823 102.67 116.82 100.231 116.82 97.7881C116.82 97.632 116.791 97.4727 117.044 97.4792C118.171 97.5182 119.301 97.4011 120.425 97.554C121.747 97.7361 122.471 98.6467 122.273 99.8566C122.188 100.38 121.889 100.751 121.451 101.027C121.347 101.092 121.201 101.099 121.129 101.252H121.133ZM118.272 103.018C118.272 103.057 118.272 103.096 118.272 103.135C118.281 103.47 118.164 103.912 118.333 104.114C118.531 104.351 118.989 104.179 119.334 104.192C119.749 104.211 120.165 104.192 120.551 104.01C120.987 103.808 121.201 103.434 121.178 102.943C121.155 102.471 120.912 102.169 120.48 102.013C120.136 101.889 119.772 101.863 119.408 101.87C119.048 101.876 118.59 101.717 118.356 101.932C118.116 102.153 118.307 102.618 118.275 102.975C118.275 102.988 118.275 103.001 118.275 103.015L118.272 103.018ZM118.272 99.694C118.272 99.9671 118.272 100.24 118.272 100.514C118.272 100.627 118.252 100.767 118.431 100.761C118.999 100.738 119.574 100.845 120.132 100.676C120.629 100.527 120.866 100.198 120.87 99.7037C120.87 99.2159 120.655 98.9459 120.142 98.7801C119.879 98.6955 119.61 98.676 119.337 98.6695C118.627 98.6543 118.272 98.9958 118.272 99.694Z" fill="#707070"/>
<path d="M76.9871 101.684C76.7955 101.626 76.698 101.596 76.6006 101.567C75.8309 101.323 75.308 100.845 75.2366 100.003C75.1651 99.1442 75.4574 98.4482 76.2239 97.9929C76.8344 97.6319 77.51 97.5148 78.2017 97.4953C79.1078 97.4692 80.0172 97.492 80.9266 97.479C81.1442 97.479 81.2156 97.5343 81.2156 97.7619C81.2091 100.217 81.2091 102.67 81.2156 105.125C81.2156 105.372 81.1377 105.444 80.9038 105.424C80.6473 105.405 80.3842 105.401 80.1276 105.424C79.8321 105.45 79.7217 105.366 79.7314 105.044C79.7574 104.227 79.7314 103.408 79.7444 102.588C79.7509 102.315 79.7022 102.208 79.3904 102.208C77.7016 102.208 76.8344 102.979 76.5389 104.793C76.4718 105.21 76.2217 105.418 75.7887 105.418C75.7627 105.418 75.7367 105.418 75.7107 105.418C74.7624 105.418 74.7559 105.418 74.9703 104.494C75.2463 103.314 75.8212 102.331 76.9838 101.681L76.9871 101.684ZM79.7411 99.8727C79.7411 99.5734 79.7411 99.2742 79.7411 98.9783C79.7411 98.8482 79.7217 98.7474 79.556 98.7506C78.9227 98.7571 78.2829 98.7051 77.6626 98.871C77.0748 99.0271 76.7857 99.3621 76.7922 99.8629C76.7987 100.315 77.117 100.682 77.6594 100.829C78.2797 100.998 78.9195 100.946 79.5528 100.952C79.7152 100.952 79.7411 100.861 79.7379 100.728C79.7347 100.442 79.7379 100.156 79.7379 99.8727H79.7411Z" fill="#707070"/>
<path d="M18.0409 101.447C18.0409 100.237 18.0507 99.0304 18.0344 97.8206C18.0312 97.5409 18.1189 97.4758 18.3852 97.4758C19.8921 97.4888 21.3958 97.4888 22.9028 97.4758C23.1658 97.4758 23.2568 97.5311 23.2568 97.8141C23.2503 98.754 23.2633 98.754 22.3344 98.754C21.503 98.754 20.6716 98.7605 19.8434 98.7507C19.6031 98.7507 19.4894 98.7962 19.5057 99.0694C19.5284 99.4825 19.5219 99.902 19.5057 100.315C19.4959 100.536 19.5706 100.598 19.7882 100.601C20.3825 100.601 20.9801 100.565 21.5744 100.657C22.9775 100.874 23.7342 101.694 23.7244 103.011C23.7147 104.273 22.8833 105.164 21.5192 105.346C20.4345 105.493 19.34 105.382 18.252 105.418C17.9987 105.424 18.0344 105.258 18.0344 105.106C18.0344 103.883 18.0344 102.663 18.0344 101.44L18.0409 101.447ZM19.5414 102.988C19.5414 102.988 19.5219 102.988 19.5122 102.988C19.5122 103.301 19.5122 103.61 19.5122 103.922C19.5122 104.023 19.4927 104.149 19.6486 104.149C20.3306 104.14 21.0256 104.244 21.6751 103.941C22.0778 103.753 22.2695 103.427 22.263 102.979C22.2565 102.523 22.0356 102.218 21.6362 102.035C21.3244 101.896 20.9899 101.85 20.6521 101.863C20.2819 101.876 19.7882 101.694 19.5771 101.941C19.3985 102.149 19.5414 102.631 19.5414 102.992V102.988Z" fill="#707070"/>
<path d="M69.4457 103.642C68.9651 103.642 68.4844 103.655 68.007 103.636C67.7894 103.629 67.6822 103.697 67.6075 103.902C67.4581 104.328 67.2698 104.745 67.1171 105.171C67.0489 105.363 66.9482 105.431 66.7501 105.421C66.4383 105.405 66.1266 105.398 65.818 105.421C65.4575 105.45 65.4413 105.333 65.568 105.034C66.5423 102.758 67.5296 100.487 68.4519 98.1914C68.6858 97.6093 68.9715 97.4109 69.5756 97.4662C70.2057 97.5247 70.2089 97.4792 70.4558 98.0678C71.4268 100.387 72.3979 102.706 73.3819 105.021C73.5118 105.327 73.5118 105.454 73.1286 105.421C72.7291 105.389 72.2355 105.535 71.9529 105.346C71.6736 105.158 71.6054 104.654 71.4528 104.283C71.1865 103.636 71.1897 103.636 70.498 103.636C70.1472 103.636 69.7965 103.636 69.4457 103.636V103.642ZM69.4555 99.1313C69.0203 100.237 68.6208 101.255 68.2246 102.276C68.1596 102.442 68.283 102.442 68.3935 102.442C69.095 102.442 69.7932 102.442 70.4947 102.442C70.6669 102.442 70.7383 102.393 70.6701 102.211C70.2771 101.216 69.8874 100.218 69.4587 99.1281L69.4555 99.1313Z" fill="#707070"/>
<path d="M169.826 105.421C169.355 105.421 168.89 105.415 168.426 105.424C168.231 105.431 168.195 105.307 168.14 105.171C167.968 104.738 167.779 104.309 167.617 103.873C167.552 103.701 167.461 103.639 167.276 103.639C166.289 103.649 165.305 103.652 164.317 103.639C164.087 103.636 164.006 103.733 163.934 103.925C163.778 104.351 163.6 104.768 163.444 105.194C163.382 105.366 163.291 105.434 163.103 105.428C162.674 105.415 162.249 105.424 161.813 105.424C161.778 105.229 161.891 105.093 161.953 104.946C162.953 102.569 163.967 100.198 164.96 97.8175C165.071 97.5573 165.204 97.4793 165.477 97.4825C166.539 97.4955 166.539 97.4825 166.955 98.4744C167.857 100.624 168.764 102.777 169.663 104.927C169.728 105.08 169.826 105.223 169.822 105.424L169.826 105.421ZM164.496 102.442C165.324 102.442 166.087 102.436 166.851 102.442C167.091 102.442 167.058 102.341 166.994 102.182C166.763 101.606 166.539 101.027 166.312 100.449C166.146 100.029 165.983 99.6127 165.792 99.1282C165.347 100.26 164.934 101.317 164.496 102.439V102.442Z" fill="#707070"/>
<path d="M98.99 101.424C98.99 100.24 98.9965 99.0598 98.9835 97.876C98.9803 97.5898 99.029 97.4695 99.3603 97.4727C100.841 97.4922 102.319 97.4922 103.8 97.4727C104.125 97.4695 104.183 97.5768 104.18 97.8695C104.167 98.7541 104.18 98.7541 103.277 98.7541C102.433 98.7541 101.588 98.7606 100.747 98.7509C100.513 98.7509 100.426 98.8159 100.435 99.0598C100.452 99.5281 100.452 99.9965 100.435 100.462C100.429 100.689 100.516 100.744 100.731 100.741C101.692 100.731 102.65 100.748 103.612 100.731C103.891 100.728 103.959 100.816 103.956 101.083C103.949 101.925 103.959 101.925 103.137 101.925C102.332 101.925 101.527 101.932 100.724 101.922C100.5 101.919 100.432 101.99 100.439 102.211C100.452 102.758 100.455 103.304 100.439 103.847C100.432 104.101 100.539 104.146 100.76 104.143C101.825 104.133 102.887 104.15 103.953 104.133C104.242 104.13 104.359 104.182 104.352 104.511C104.333 105.418 104.352 105.418 103.436 105.418C102.111 105.418 100.789 105.398 99.4642 105.431C99.0485 105.441 98.9771 105.304 98.9868 104.93C99.0095 103.763 98.9965 102.592 98.9965 101.421L98.99 101.424Z" fill="#707070"/>
<path d="M125.287 101.444C125.287 100.247 125.293 99.0532 125.28 97.8564C125.28 97.58 125.329 97.4726 125.638 97.4759C127.131 97.4922 128.622 97.4889 130.116 97.4759C130.356 97.4759 130.451 97.5214 130.454 97.7914C130.454 98.7443 130.47 98.7443 129.509 98.7443C128.677 98.7443 127.846 98.7508 127.018 98.741C126.787 98.7378 126.696 98.7963 126.706 99.0435C126.726 99.5118 126.726 99.9801 126.706 100.445C126.696 100.696 126.787 100.748 127.018 100.744C127.979 100.731 128.937 100.748 129.899 100.735C130.152 100.731 130.227 100.803 130.227 101.057C130.227 101.925 130.236 101.925 129.359 101.925C128.593 101.925 127.826 101.941 127.063 101.918C126.758 101.909 126.693 102.01 126.706 102.292C126.729 102.771 126.742 103.255 126.706 103.733C126.677 104.101 126.823 104.156 127.144 104.15C128.184 104.13 129.22 104.156 130.259 104.137C130.558 104.13 130.626 104.224 130.62 104.511C130.607 105.421 130.62 105.421 129.713 105.421C128.401 105.421 127.092 105.421 125.78 105.421C125.232 105.421 125.293 105.486 125.293 104.914C125.293 103.756 125.293 102.601 125.293 101.444H125.287Z" fill="#707070"/>
<path d="M40.116 99.5802C39.9796 99.6745 39.9633 99.8144 39.9179 99.9282C39.2358 101.626 38.5441 103.317 37.8816 105.021C37.7549 105.343 37.5958 105.47 37.258 105.425C37.0404 105.395 36.8163 105.418 36.5955 105.418C36.2858 105.418 36.1873 105.277 36.2999 104.995C36.9949 103.275 37.6899 101.558 38.3882 99.8371C38.6707 99.1412 38.9565 98.4452 39.2293 97.7427C39.3073 97.5476 39.4047 97.4598 39.6288 97.4728C40.0153 97.4988 40.4732 97.3654 40.7753 97.5313C41.0805 97.6972 41.1163 98.198 41.2624 98.5558C42.1425 100.689 43.0129 102.826 43.8898 104.963C43.9418 105.093 43.9905 105.226 44.0619 105.415C43.552 105.415 43.0779 105.415 42.607 105.415C42.3861 105.415 42.3894 105.216 42.3374 105.086C41.6456 103.366 40.9571 101.642 40.2686 99.9217C40.2231 99.8079 40.1712 99.694 40.116 99.5737V99.5802Z" fill="#707070"/>
<path d="M45.9939 101.417C45.9939 100.237 46.0037 99.0531 45.9874 97.8725C45.9842 97.5831 46.0362 97.4335 46.3609 97.479C46.7149 97.5278 47.1923 97.3196 47.3969 97.5668C47.5723 97.7782 47.4554 98.2335 47.4587 98.5847C47.4651 99.1051 47.4814 99.6255 47.4522 100.143C47.4327 100.468 47.5528 100.53 47.8484 100.52C48.4687 100.497 49.0922 100.497 49.7028 100.663C50.8168 100.965 51.4306 101.665 51.5053 102.731C51.58 103.798 51.0084 104.702 49.9919 105.125C49.5047 105.327 48.9948 105.408 48.4752 105.414C47.7607 105.424 47.0462 105.405 46.3349 105.424C46.0621 105.431 45.9842 105.353 45.9874 105.079C46.0004 103.86 45.9939 102.637 45.9939 101.417ZM47.4651 102.953C47.4651 103.278 47.4651 103.6 47.4651 103.925C47.4651 104.045 47.4651 104.166 47.6373 104.162C48.1666 104.153 48.6993 104.218 49.2157 104.062C49.732 103.905 50.0406 103.463 50.0308 102.92C50.0211 102.367 49.7028 101.977 49.154 101.837C48.6571 101.71 48.1504 101.788 47.647 101.765C47.4781 101.759 47.4587 101.85 47.4619 101.983C47.4651 102.305 47.4619 102.631 47.4619 102.956L47.4651 102.953Z" fill="#707070"/>
</svg>
