<svg width="188" height="107" fill="none" xmlns="http://www.w3.org/2000/svg"><path d="M0 93c.36-.185.679-.35 1-.513 3.08-1.551 6.138-3.151 9.25-4.634 1.598-.761 3.293-1.324 4.946-1.968 4.599-1.792 9.191-3.604 13.94-4.996 5.959-1.75 11.987-3.23 18.056-4.54 3.014-.65 6.035-1.281 9.058-1.899 1.426-.29 2.878-.39 4.326-.524 3.01-.276 6.021-.533 9.039-.8.006-.253-.124-.458-.205-.673-1.36-3.542-2.556-7.129-3.27-10.866-.42-2.195-.673-4.413-.903-6.634-.39-3.75-.182-7.503-.14-11.26.023-2.172-.23-4.331-.438-6.488-.108-1.125-.244-2.247-.51-3.346-.075-.31-.14-.635-.39-.878-.153.11-.166.276-.214.413-.949 2.725-2.631 4.898-4.953 6.589-1.273.927-2.738 1.401-4.232 1.805-1.088.292-2.18.579-3.277.839-.919.22-1.627.731-2.166 1.483-.744 1.04-1.562 1.984-2.627 2.735-2.667 1.876-5.538 2.426-8.685 1.561-1.591-.436-3.12-1.034-4.647-1.659-.244-.1-.224-.224-.156-.42.321-.923.77-1.785 1.25-2.633.884-1.562 1.692-3.155 2.26-4.863.234-.705.28-1.375-.13-2.055-2.169-3.613-2.282-7.38-.805-11.256a16.4 16.4 0 011.452-2.882c.276-.435.286-.826.02-1.268-.721-1.187-1.212-2.465-1.4-3.85-.085-.622-.11-1.243.016-1.86.247-1.207 1.065-1.92 2.29-2.03.831-.075 1.597.143 2.325.504.474.237.958.471 1.393.774 1.03.712 2.124.78 3.306.49 2.01-.493 3.917-1.277 5.804-2.103a91.749 91.749 0 004.914-2.345c.877-.449 1.572-1.145 2.315-1.77 2.235-1.882 4.404-3.84 6.723-5.626 1.02-.784 2.095-1.486 3.183-2.172 1.994-1.259 4.131-1.63 6.45-1.226 7.395 1.29 14.15 4.071 20.171 8.592 1.637 1.23 3.089 2.657 4.505 4.13.53.55 1.046 1.113 1.663 1.59.081-.181-.042-.289-.101-.406-.955-1.896-2.254-3.545-3.663-5.116-1.355-1.512-2.842-2.888-4.307-4.29-.224-.214-.46-.409-.76-.672.74-.267 1.38-.335 2.014-.39 3.397-.3 6.794-.2 10.194-.037 2.491.118 4.973.316 7.434.729 9.883 1.668 18.623 5.669 25.774 12.81 5.94 5.93 9.678 13.071 11.367 21.293a45.79 45.79 0 01.916 10.495c-.084 2.992-.539 5.945-1.12 8.879-1.101 5.58-2.725 11.028-4.281 16.492-.153.537-.279 1.08-.461 1.607-.101.295-.033.4.26.484 2.377.693 4.754 1.382 7.119 2.11 6.911 2.124 13.835 4.225 20.571 6.873 5.371 2.11 10.577 4.602 15.693 7.278.285.15.571.296.844.472-.351-.013-.669-.14-.994-.244-2.669-.855-5.225-2.01-7.869-2.934-4.134-1.444-8.252-2.956-12.513-3.99-3.112-.758-6.148-1.78-9.269-2.501a239.603 239.603 0 00-13.456-2.703 335.269 335.269 0 00-10.918-1.681c-3.108-.43-6.226-.803-9.347-1.129a282.674 282.674 0 00-20.779-1.398 284.936 284.936 0 00-12.695-.12 295.16 295.16 0 00-11.637.383 280.746 280.746 0 00-28.44 2.964c-7.33 1.144-14.595 2.61-21.776 4.484-3.06.797-6.17 1.392-9.217 2.244-3.9 1.086-7.671 2.547-11.455 3.98-2.338.885-4.676 1.78-7.07 2.505-.162.049-.325.156-.565.078v-.016zm125.076-19.402c.922 0 1.841-.013 2.763.01.286.006.38-.101.429-.355.078-.406.185-.81.286-1.21.344-1.353.604-2.715.468-4.12-.28-2.856-1.023-5.588-2.332-8.144-2.105-4.108-4.943-7.574-8.672-10.349-2.107-1.57-4.283-2.9-6.823-3.613-1.419-.4-2.796-.377-4.131.26-1.182.563-1.163.296-.542 1.48 1.11 2.12 1.903 4.313 2.257 6.706.519 3.503 1.013 6.99.721 10.54-.205 2.499-.455 4.99-.923 7.455-.058.302-.035.423.328.439 1.92.088 3.836.202 5.752.322 3.472.215 6.944.393 10.419.585v-.006zm-36.131-1.665v.026c1.312 0 2.62-.007 3.933.006.266 0 .36-.065.364-.338.013-.806.055-1.61.074-2.413.098-4.062-.11-8.102-1.042-12.072-1.37-5.851-4.229-10.818-8.801-14.753-1.342-1.154-2.751-2.211-4.369-2.96-.568-.263-1.153-.464-1.792-.464-.267 0-.4.061-.393.37.006.456.032.908.13 1.353.145.66-.083 1.165-.682 1.516-.87.51-1.787.963-2.56 1.623-1.227 1.05-2.195 2.296-2.572 3.893-.117.497-.338.813-.743 1.06-.93.57-1.855 1.145-2.78 1.717-.12.075-.254.124-.244.312.036.609.049 1.214.315 1.79.572 1.251 1.569 2.042 2.777 2.6 1.546.716 3.202 1.029 4.858 1.334 1.77.329 3.547.621 5.287 1.096 1.793.491 2.927 1.636 3.56 3.344.74 1.996.838 4.081.802 6.179a38.71 38.71 0 01-.35 4.423c-.04.286.022.374.337.367 1.296-.022 2.595-.01 3.894-.01h-.003zM53.61 18.248c.114-.046.23-.091.344-.14.754-.319 1.523-.582 2.338-.696 1.303-.176 2.206.446 2.482 1.727.123.563.133 1.135.09 1.704-.035.508-.093 1.012-.142 1.526.052-.01.078-.01.097-.02.042-.03.085-.059.12-.098 1.238-1.222 1.952-2.676 1.858-4.449-.081-1.525-1.536-2.784-3.056-2.618-1.949.212-3.102 1.555-4.138 3.064h.007zm46.952-3.734s-.013.02-.013.026c.013.036.029.036.045 0a.045.045 0 00-.009-.026c-.004-.003-.017 0-.023 0zm-41.834 90.907c-1.442 0-2.88-.006-4.322.007-.283 0-.377-.059-.377-.361.013-2.417.01-4.833 0-7.25 0-.243.048-.357.321-.335.27.023.546.023.819 0 .28-.026.344.082.344.348-.01 1.962 0 3.926-.013 5.887 0 .332.065.459.422.439a16.02 16.02 0 011.712 0c.337.016.406-.111.402-.423-.013-1.948 0-3.9-.013-5.847 0-.335.101-.436.416-.4.331.035.76-.137.978.065.22.205.071.637.071.969.007 1.753.01 3.509 0 5.262 0 .296.088.381.377.371.584-.02 1.17-.02 1.75 0 .28.01.348-.091.348-.358-.01-1.961.003-3.925-.013-5.886 0-.339.075-.475.425-.427.205.03.42.03.62 0 .371-.055.42.114.42.436a637.904 637.904 0 000 7.054c0 .339-.062.469-.439.462-1.416-.026-2.828-.01-4.245-.01l-.003-.003zm33.065-2.247c.179-.481.335-.888.484-1.298.497-1.349 1-2.7 1.484-4.052.095-.267.225-.358.504-.345.493.023.987.017 1.478 0 .214-.006.295.052.295.28a1391.27 1391.27 0 000 7.366c0 .251-.09.312-.318.299a5.336 5.336 0 00-.78 0c-.279.026-.344-.081-.344-.348.016-1.778.013-3.557.016-5.34 0-.084 0-.172-.071-.276-.211.533-.422 1.07-.63 1.603-.523 1.34-1.066 2.674-1.556 4.026-.159.443-.468.29-.75.332-.286.043-.406-.088-.504-.348-.665-1.772-1.347-3.535-2.026-5.304a.912.912 0 00-.208-.348c0 .647-.003 1.294 0 1.945.01 1.232.016 2.468.039 3.701.006.266-.058.377-.341.354a5.732 5.732 0 00-.818 0c-.208.01-.27-.071-.27-.27.003-2.468.003-4.937 0-7.405 0-.195.055-.276.266-.27.546.013 1.092.02 1.634 0 .26-.01.286.163.35.329.634 1.658 1.264 3.317 1.897 4.979.04.104.085.205.163.39h.006zm44.841 2.247c-.948 0-1.893.01-2.841-.006-.257-.004-.341.071-.325.328.019.283.003.572.003.855 0 .078.033.186-.006.228-.302.335-.695.068-1.04.146-.162.036-.23-.061-.23-.224 0-.794.003-1.584 0-2.377 0-.163.058-.244.227-.231h.078c.613-.022 1.027-.319 1.244-.891.688-1.818 1.383-3.633 2.059-5.454.084-.228.182-.339.435-.32.361.027.793-.097 1.069.06.279.159.298.63.425.969a612.052 612.052 0 011.975 5.278c.091.25.191.371.487.367.9-.016.9 0 .9.911 0 .533-.007 1.064.003 1.597.006.221-.042.319-.296.322-.99.019-.987.029-.987-.95 0-.407-.205-.611-.614-.611h-2.569l.003.003zm.017-6.15a.906.906 0 00-.091.013c-.52 1.545-1.04 3.09-1.566 4.631-.074.218.026.244.202.241.932 0 1.867-.007 2.799 0 .25 0 .28-.085.205-.302-.322-.931-.633-1.864-.945-2.797-.202-.596-.403-1.194-.601-1.79l-.003.004zm11.925.361c-.769 1.184-1.542 2.368-2.312 3.552-.432.663-.867 1.323-1.293 1.993-.107.169-.217.26-.432.251-.376-.02-.753-.02-1.13 0-.247.013-.308-.082-.308-.313.006-2.442.006-4.885 0-7.327 0-.244.081-.319.315-.302.272.02.545.022.818 0 .289-.026.341.097.338.357-.01 1.805-.007 3.61-.007 5.445.176-.049.215-.196.286-.303 1.127-1.73 2.254-3.457 3.371-5.194.143-.22.293-.325.562-.302.322.026.65.026.971 0 .289-.023.38.068.377.364-.016 1.093-.007 2.182-.007 3.275 0 1.314-.006 2.625.007 3.939 0 .286-.072.4-.37.37-.345-.035-.799.14-1.017-.065-.24-.227-.075-.686-.078-1.044-.01-1.554-.003-3.109-.003-4.663-.029-.007-.059-.013-.085-.023l-.003-.01zm-38.193 5.789c-.961 0-1.919.007-2.88-.003-.234 0-.325.065-.312.306.016.325-.007.65.006.972.01.224-.081.28-.295.286-.984.026-.984.033-.984-.953 0-.533.009-1.066-.004-1.597-.006-.224.078-.331.289-.283.806.189 1.066-.266 1.303-.943.63-1.811 1.344-3.593 2.013-5.392.091-.24.195-.338.468-.335 1.085.013 1.082 0 1.465 1.021.659 1.76 1.328 3.516 1.974 5.282.104.28.231.377.523.371.854-.017.854 0 .854.839 0 .559-.009 1.119.004 1.675.006.227-.052.315-.299.318-.965.017-.965.026-.965-.933 0-.421-.211-.631-.633-.631h-2.53.003zm-.084-6.183c-.523 1.549-1.043 3.093-1.572 4.638-.078.228-.023.286.214.283.91-.01 1.816-.016 2.725 0 .309.007.338-.078.244-.351-.497-1.431-.975-2.872-1.459-4.306-.032-.094-.026-.211-.152-.263zm-79.845 6.388c-2.29.14-4.274-1.551-4.4-3.756-.153-2.641 1.402-4.45 4.02-4.583 2.332-.117 4.293 1.36 4.44 3.948.133 2.401-1.546 4.235-4.06 4.391zm2.481-4.173c0-.855-.243-1.623-.9-2.192-.815-.709-1.763-.852-2.76-.465-1.069.417-1.562 1.288-1.65 2.384-.12 1.451.666 2.67 1.884 3.002 1.835.498 3.42-.761 3.43-2.729h-.004zm120.133-.016c0-1.207.006-2.416-.004-3.623 0-.244.052-.358.322-.335.27.023.546.026.815 0 .289-.026.338.1.335.358-.01 1.974 0 3.948-.013 5.922 0 .309.087.397.393.39a63.246 63.246 0 012.685 0c.309.007.393-.087.393-.393-.013-1.948 0-3.896-.013-5.844 0-.332.069-.479.426-.433.231.03.468.023.698 0 .286-.03.341.091.338.355-.01 1.96 0 3.922-.013 5.883 0 .341.084.488.429.426.406-.075.526.091.506.498-.035.673-.019 1.349-.006 2.026.003.231-.055.312-.302.315-.965.016-.965.026-.965-.937 0-.416-.214-.624-.643-.624-1.672 0-3.348-.006-5.021.007-.292 0-.377-.075-.37-.368.016-1.207.006-2.416.006-3.623h.004zm-31.935-.185c.084.036.162.075.24.101.731.253 1.172.761 1.263 1.528.098.823-.162 1.512-.87 1.991-.578.39-1.241.52-1.923.536-.906.023-1.815 0-2.724.016-.247.004-.306-.081-.302-.312.006-2.442.003-4.881.003-7.324 0-.156-.029-.315.224-.309 1.127.04 2.257-.078 3.381.075 1.322.182 2.046 1.093 1.848 2.303-.085.523-.384.894-.822 1.17-.104.065-.25.072-.322.225h.004zm-2.861 1.766v.117c.009.335-.108.777.061.979.198.237.656.065 1.001.078.415.019.831 0 1.217-.182.436-.202.65-.576.627-1.067-.023-.472-.266-.774-.698-.93-.344-.124-.708-.15-1.072-.143-.36.006-.818-.153-1.052.062-.24.221-.049.686-.081 1.043v.04l-.003.003zm0-3.324v.82c0 .113-.02.253.159.247.568-.023 1.143.084 1.701-.085.497-.149.734-.478.738-.972 0-.488-.215-.758-.728-.924a2.81 2.81 0 00-.805-.11c-.71-.016-1.065.326-1.065 1.024zm-41.285 1.99l-.386-.117c-.77-.244-1.293-.722-1.364-1.564-.072-.859.22-1.555.987-2.01.61-.361 1.286-.478 1.978-.498.906-.026 1.815-.003 2.725-.016.217 0 .289.055.289.283-.007 2.455-.007 4.908 0 7.363 0 .247-.078.319-.312.299a4.79 4.79 0 00-.776 0c-.296.026-.406-.058-.397-.38.026-.817 0-1.636.013-2.456.007-.273-.042-.38-.354-.38-1.688 0-2.556.771-2.851 2.585-.067.417-.317.625-.75.625h-.078c-.949 0-.955 0-.74-.924.275-1.18.85-2.163 2.013-2.813l.003.003zm2.754-1.811v-.895c0-.13-.02-.23-.185-.227-.633.006-1.273-.046-1.893.12-.588.156-.877.491-.87.992.006.452.324.819.866.966.62.169 1.26.117 1.894.123.162 0 .188-.091.185-.224-.003-.286 0-.572 0-.855h.003zm-61.701 1.574c0-1.21.01-2.417-.006-3.626-.003-.28.085-.345.351-.345 1.507.013 3.01.013 4.518 0 .263 0 .354.055.354.338-.007.94.006.94-.923.94-.831 0-1.662.006-2.49-.003-.24 0-.355.045-.338.318.022.413.016.833 0 1.246-.01.221.065.283.282.286.595 0 1.192-.036 1.786.056 1.403.217 2.16 1.037 2.15 2.354-.01 1.262-.84 2.153-2.205 2.335-1.084.147-2.179.036-3.267.072-.253.006-.218-.16-.218-.312v-3.666l.007.007zm1.501 1.541h-.029v.934c0 .101-.02.227.137.227.682-.009 1.377.095 2.026-.208.403-.188.595-.514.588-.962-.007-.456-.227-.761-.627-.944a2.186 2.186 0 00-.984-.172c-.37.013-.864-.169-1.075.078-.179.208-.036.69-.036 1.051v-.004zm49.905.654c-.48 0-.962.013-1.439-.006-.218-.007-.325.061-.4.266-.149.426-.337.843-.49 1.269-.068.192-.169.26-.367.25a7.433 7.433 0 00-.932 0c-.36.029-.377-.088-.25-.387.974-2.276 1.962-4.547 2.884-6.843.234-.582.52-.78 1.124-.725.63.059.633.013.88.602.97 2.319 1.942 4.638 2.926 6.953.13.306.13.433-.253.4-.4-.032-.894.114-1.176-.075-.28-.188-.348-.692-.5-1.063-.267-.647-.263-.647-.955-.647h-1.052v.006zm.01-4.51a697.92 697.92 0 00-1.231 3.144c-.065.166.058.166.169.166h2.1c.173 0 .244-.049.176-.231-.393-.995-.783-1.993-1.211-3.083l-.004.003zm100.37 6.289c-.471 0-.936-.006-1.4.003-.195.007-.231-.117-.286-.253-.172-.433-.361-.862-.523-1.298-.065-.172-.156-.234-.341-.234-.987.01-1.971.013-2.959 0-.23-.003-.311.094-.383.286-.156.426-.334.843-.49 1.269-.062.172-.153.24-.341.234-.429-.013-.854-.004-1.29-.004-.035-.195.078-.331.14-.478 1-2.377 2.014-4.748 3.007-7.129.111-.26.244-.338.517-.334 1.062.013 1.062 0 1.478.991.902 2.15 1.809 4.303 2.708 6.453.065.153.163.296.159.497l.004-.003zm-5.33-2.979c.828 0 1.591-.006 2.355 0 .24 0 .207-.101.143-.26-.231-.576-.455-1.155-.682-1.733l-.52-1.32c-.445 1.131-.858 2.188-1.296 3.31v.003zm-65.506-1.018c0-1.184.007-2.364-.006-3.548-.004-.286.045-.407.376-.403 1.481.02 2.959.02 4.44 0 .325-.004.383.104.38.397-.013.884 0 .884-.903.884-.844 0-1.689.007-2.53-.003-.234 0-.321.065-.312.309.017.468.017.936 0 1.402-.006.227.081.282.296.279.961-.01 1.919.007 2.881-.01.279-.003.347.085.344.352-.007.842.003.842-.819.842-.805 0-1.61.007-2.413-.003-.224-.003-.292.068-.285.289a30.77 30.77 0 010 1.636c-.007.254.1.299.321.296 1.065-.01 2.127.007 3.193-.01.289-.003.406.049.399.378-.019.907 0 .907-.916.907-1.325 0-2.647-.02-3.972.013-.415.01-.487-.127-.477-.501.023-1.167.01-2.338.01-3.509l-.007.003zm26.297.02c0-1.197.006-2.39-.007-3.588 0-.276.049-.383.358-.38 1.493.016 2.984.013 4.478 0 .24 0 .335.045.338.315 0 .953.016.953-.945.953-.832 0-1.663.007-2.491-.003-.231-.003-.322.055-.312.302.02.469.02.937 0 1.402-.01.251.081.303.312.299.961-.013 1.919.004 2.881-.009.253-.004.328.068.328.322 0 .868.009.868-.868.868-.766 0-1.533.016-2.296-.007-.305-.009-.37.092-.357.374.023.479.036.963 0 1.441-.029.368.117.423.438.417 1.04-.02 2.076.006 3.115-.013.299-.007.367.087.361.374-.013.91 0 .91-.907.91h-3.933c-.548 0-.487.065-.487-.507v-3.47h-.006zM40.116 99.58c-.136.094-.153.234-.198.348-.682 1.698-1.374 3.389-2.036 5.093-.127.322-.286.449-.624.404-.218-.03-.442-.007-.663-.007-.31 0-.408-.141-.295-.423.695-1.72 1.39-3.437 2.088-5.158.283-.696.569-1.392.841-2.094.078-.195.176-.283.4-.27.386.026.844-.108 1.146.058.306.166.341.667.487 1.025.88 2.133 1.75 4.27 2.628 6.407.052.13.1.263.172.452h-1.455c-.22 0-.218-.199-.27-.329-.691-1.72-1.38-3.444-2.068-5.164a7.67 7.67 0 00-.153-.348v.006zm5.878 1.837c0-1.18.01-2.364-.007-3.544-.003-.29.05-.44.374-.394.354.049.831-.16 1.036.088.175.211.058.667.062 1.018.006.52.022 1.04-.007 1.558-.02.325.1.387.396.377.62-.023 1.244-.023 1.855.143 1.114.302 1.728 1.002 1.802 2.068.075 1.067-.497 1.971-1.513 2.394a4.038 4.038 0 01-1.517.289c-.714.01-1.429-.009-2.14.01-.273.007-.35-.071-.348-.345.013-1.219.007-2.442.007-3.662zm1.471 1.536v.972c0 .12 0 .241.172.237.53-.009 1.062.056 1.579-.1.516-.157.825-.599.815-1.142-.01-.553-.328-.943-.877-1.083-.497-.127-1.004-.049-1.507-.072-.169-.006-.188.085-.185.218.003.322 0 .648 0 .973l.003-.003z" fill="#707070"/></svg>