<svg xmlns="http://www.w3.org/2000/svg" width="18" height="20" viewBox="0 0 18 20" fill="none">
  <path d="M9.00039 13.5664H2.76175C2.52874 13.5664 2.33984 13.374 2.33984 13.1367C2.33984 12.8994 2.52874 12.707 2.76175 12.707H9.00039C9.5583 12.7288 9.56152 13.5432 9.00039 13.5664Z" fill="#C8102E"/>
  <path d="M15.2387 9.6748H11.3396C10.781 9.65269 10.7791 8.8384 11.3396 8.81543H15.2387C15.7973 8.83754 15.7992 9.65183 15.2387 9.6748Z" fill="#C8102E"/>
  <path d="M15.2387 14.4404H11.3396C10.781 14.4183 10.7791 13.604 11.3396 13.5811H15.2387C15.7973 13.6032 15.7992 14.4175 15.2387 14.4404Z" fill="#C8102E"/>
  <path d="M9.18844 2.42817C9.04553 2.3554 8.87443 2.3711 8.7466 2.46876C7.14985 3.67024 5.80325 3.59332 3.93084 3.57414C1.84 3.65817 1.81074 6.68925 3.89885 6.8153V8.37198C3.89885 8.60928 4.08775 8.80167 4.32076 8.80167C4.55376 8.80167 4.74266 8.60928 4.74266 8.37198V6.81612H5.10059C6.39583 6.75624 7.70879 7.11722 8.74656 7.92155C9.01815 8.13491 9.42617 7.92589 9.4216 7.57776V2.81247C9.42168 2.64973 9.33139 2.50098 9.18844 2.42817ZM3.18304 5.19515C3.18304 4.77519 3.51853 4.43352 3.93088 4.43352H4.67872V5.95679H3.93088C3.51853 5.95679 3.18304 5.61511 3.18304 5.19515ZM8.57787 6.78546C7.64969 6.25265 6.59033 5.96257 5.52253 5.95687V4.43344C6.59029 4.42773 7.64969 4.13766 8.57787 3.60485V6.78546Z" fill="#C8102E"/>
  <path d="M9.00039 11.1846H2.76175C2.52874 11.1846 2.33984 10.9922 2.33984 10.7549C2.33984 10.5176 2.52874 10.3252 2.76175 10.3252H9.00039C9.5583 10.347 9.56152 11.1613 9.00039 11.1846Z" fill="#707070"/>
  <path d="M17.5781 4.05049H11.7614V0.429686C11.7614 0.192382 11.5725 0 11.3395 0H0.421903C0.188897 0 0 0.192382 0 0.429686V15.5198C0 15.7571 0.188897 15.9494 0.421903 15.9494H6.23861V19.5702C6.23454 19.8006 6.43406 20.0042 6.66051 19.9999H17.5781C17.8111 19.9999 18 19.8076 18 19.5702V4.48018C18 4.24288 17.8111 4.05049 17.5781 4.05049ZM0.843806 0.859372H10.9176V15.0901H0.843806V0.859372ZM10.1917 15.9494L7.08245 18.6411V15.9494H10.1917ZM17.1562 19.1406H7.80835L10.4854 16.8231H15.2387C15.4717 16.8231 15.6606 16.6307 15.6606 16.3934C15.6606 16.1561 15.4717 15.9637 15.2387 15.9637H11.4781L11.6127 15.8471C11.706 15.7663 11.7613 15.6444 11.7614 15.5198V12.0578H15.2386C15.4716 12.0578 15.6605 11.8654 15.6605 11.6281C15.6605 11.3908 15.4716 11.1984 15.2386 11.1984H11.7614V7.29248H15.2386C15.4716 7.29248 15.6605 7.10009 15.6605 6.86279C15.6605 6.62549 15.4716 6.4331 15.2386 6.4331H11.7614V4.90983H17.1562V19.1406H17.1562Z" fill="#707070"/>
</svg>