<svg xmlns="http://www.w3.org/2000/svg" width="25" height="24" viewBox="0 0 27 26"><path d="M3.736 2.181c-.869 0-1.717.005-2.566-.001-.62-.005-1.1-.406-1.163-.955A1.078 1.078 0 011.083.012C2.258-.006 3.433 0 4.608.011c.513.005.9.305 1.054.792.285.895.565 1.791.83 2.692.066.223.166.292.41.29 6.21-.007 12.418-.005 18.628-.005.135 0 .271-.003.406.006.69.046 1.168.598 1.045 1.254-.225 1.203-.474 2.402-.716 3.602-.394 1.959-.787 3.916-1.184 5.874-.107.527-.456.842-1.007.907-2.384.28-4.77.554-7.155.833-2.484.29-4.967.582-7.45.867-.153.018-.23.068-.256.208-.02.102-.06.201-.075.303-.049.323.023.47.352.541.34.074.697.137 1.041.116 3.01-.194 6.019-.43 9.031-.605 1.388-.08 2.782-.063 4.173-.066.59-.001.96.353.964.847.004.474-.364.85-.858.86-.262.006-.524-.02-.786-.01-2.166.081-4.335.144-6.499.259-1.759.093-3.514.24-5.27.381-.688.055-1.369.088-2.048-.06-1.43-.313-2.145-1.366-1.817-2.738.098-.41.302-.795.447-1.195.035-.099.064-.222.035-.316C6.52 11.168 5.133 6.69 3.736 2.18zm9.092 3.779H7.29c.004.05.001.084.011.117.328 1.063.66 2.124.982 3.188.047.155.137.17.276.17.893-.004 1.788-.002 2.681-.002h1.587V5.96zm1.098 8.442c.058 0 .103.004.146-.001 1.434-.165 2.867-.334 4.302-.493.185-.02.187-.114.187-.245-.003-.876-.002-1.752-.002-2.629v-.55h-4.633v3.918zm4.61-4.98V5.967H13.93v3.455h4.607zM19.65 5.96v3.454h4.16l.69-3.454h-4.85zm-9.623 8.908c.906-.102 1.784-.204 2.662-.3.197-.02.155-.157.155-.27V10.73c0-.083-.01-.166-.015-.246H8.67l1.358 4.383zm9.615-1.114c1.103-.128 2.177-.25 3.25-.382.055-.006.132-.09.145-.148.19-.907.37-1.816.557-2.742h-3.952v3.272zM6.846 23.038c-.004-1.206.99-2.17 2.243-2.174 1.256-.004 2.262.953 2.265 2.154.003 1.201-.998 2.174-2.245 2.181-1.241.008-2.26-.965-2.263-2.16zm12.849-.018c.004-1.203 1.01-2.162 2.262-2.156 1.253.006 2.253.971 2.25 2.172-.003 1.193-1.023 2.167-2.266 2.164-1.243-.004-2.25-.98-2.246-2.18z"/></svg>