<svg xmlns="http://www.w3.org/2000/svg" width="18" height="18" viewBox="0 0 18 18" fill="none">
  <path d="M13.4061 5.55464V1.53515C13.4061 1.12488 13.2463 0.739365 12.9565 0.449961C12.6668 0.159784 12.2813 0 11.871 0H3.832C3.72941 0 3.63108 0.0407457 3.55855 0.113272L0.113272 3.55855C0.0407457 3.63108 0 3.72941 0 3.832V16.4647C0 17.3112 0.68867 17.9998 1.53512 17.9998H13.0194V17.2264H1.53512C1.11515 17.2264 0.773431 16.8847 0.773431 16.4647V4.79291H3.25776C4.10425 4.79291 4.79291 4.10424 4.79291 3.25776V0.773431H11.871C12.0745 0.773431 12.2657 0.852637 12.4096 0.996811C12.5534 1.14046 12.6327 1.33164 12.6327 1.53512V5.55464H13.4061ZM4.01948 3.25776C4.01948 3.67777 3.67777 4.01948 3.25776 4.01948H0.773431V3.99217L3.99217 0.773431H4.01948V3.25776Z" fill="#707070"/>
  <path d="M6.12889 7.66406H3.25781C3.04424 7.66406 2.87109 7.49091 2.87109 7.27734C2.87109 7.06377 3.04424 6.89062 3.25781 6.89062H6.12889C6.34246 6.89062 6.5156 7.06377 6.5156 7.27734C6.5156 7.49091 6.3425 7.66406 6.12889 7.66406Z" fill="#C8102E"/>
  <path d="M6.12889 9.96093H3.25781C3.04424 9.96093 2.87109 9.78779 2.87109 9.57422C2.87109 9.36064 3.04424 9.1875 3.25781 9.1875H6.12889C6.34246 9.1875 6.5156 9.36064 6.5156 9.57422C6.5156 9.78779 6.3425 9.96093 6.12889 9.96093Z" fill="#707070"/>
  <path d="M6.12889 12.2578H3.25781C3.04424 12.2578 2.87109 12.0847 2.87109 11.8711C2.87109 11.6575 3.04424 11.4844 3.25781 11.4844H6.12889C6.34246 11.4844 6.5156 11.6575 6.5156 11.8711C6.5156 12.0847 6.3425 12.2578 6.12889 12.2578Z" fill="#C8102E"/>
  <path d="M6.12889 14.5547H3.25781C3.04424 14.5547 2.87109 14.3815 2.87109 14.168C2.87109 13.9544 3.04424 13.7812 3.25781 13.7812H6.12889C6.34246 13.7812 6.5156 13.9544 6.5156 14.168C6.5156 14.3815 6.3425 14.5547 6.12889 14.5547Z" fill="#707070"/>
  <path d="M13.0195 17.9999C12.9379 17.9999 12.8562 17.9741 12.7875 17.9226L11.4093 16.889C10.3683 16.1083 9.51048 15.0804 8.92854 13.9165C8.34664 12.7526 8.03906 11.4496 8.03906 10.1484V7.27734C8.03906 7.11615 8.13905 6.97187 8.29001 6.91524L12.8837 5.1926C12.9713 5.15976 13.0677 5.15976 13.1553 5.1926L17.749 6.91524C17.9 6.97184 17.9999 7.11612 17.9999 7.27734V10.1484C17.9999 11.4497 17.6924 12.7526 17.1105 13.9165C16.5285 15.0804 15.6707 16.1083 14.6296 16.889L13.2515 17.9226C13.1828 17.9741 13.1011 17.9999 13.0195 17.9999ZM8.81249 7.54534V10.1484C8.81249 12.5443 9.95675 14.8328 11.8734 16.2702L13.0195 17.1298L14.1655 16.2702C16.0822 14.8328 17.2265 12.5443 17.2265 10.1484V7.54534L13.0195 5.96771L8.81249 7.54534Z" fill="#C8102E"/>
  <path d="M13.0195 15.1289C12.9379 15.1289 12.8562 15.1031 12.7875 15.0515L12.3281 14.7069C11.0807 13.7713 10.3359 12.2819 10.3359 10.7227V8.7129C10.3359 8.55171 10.4359 8.40743 10.5869 8.35079L12.8837 7.48947C12.9713 7.45663 13.0677 7.45663 13.1553 7.48947L15.4521 8.35079C15.6031 8.40739 15.7031 8.55167 15.7031 8.7129V10.7227C15.7031 12.2819 14.9583 13.7714 13.7109 14.707L13.2516 15.0515C13.1828 15.1031 13.1012 15.1289 13.0195 15.1289ZM11.1094 8.98089V10.7227C11.1094 12.0397 11.7384 13.2979 12.7922 14.0882L13.0195 14.2587L13.2468 14.0882C14.3006 13.2979 14.9297 12.0397 14.9297 10.7227V8.98089L13.0195 8.26459L11.1094 8.98089Z" fill="#707070"/>
</svg>