<svg width="90" height="94" fill="none" xmlns="http://www.w3.org/2000/svg"><path d="M4.936 38.512c-1.615-.57-2.497-1.718-3.28-2.845-.846-1.215.132-1.872 1.004-2.732 7.135-7.034 14.78-13.466 22.368-19.988 4.267-3.665 8.524-7.415 12.608-11.328 2.104-2.016 3.897-2.342 6.622.13 6.608 5.997 14.13 12.377 21.404 18.847 4.547 4.067 8.677 8.28 13.395 12.155 1.542 1.267 2.602 2.32.597 4.331-1.64 1.645-2.525 2.434-4.657.49-10.915-9.958-22.335-19.965-33.196-29.354-1.798-1.554-2.553-.628-3.519.291-8.846 8.41-26.094 23.696-26.094 23.696s-4.875 4.54-7.254 6.305l.002.002zM22.18 11.293l-8.882 7.14a.683.683 0 01-1.11-.536V4.393c0-.378.306-.688.684-.688h8.882c.376 0 .684.307.684.688v6.366a.688.688 0 01-.256.536l-.003-.002zm36.893 55.414c-6.905-.068-11.712-4.962-11.649-11.857.062-6.822 5.04-11.63 11.97-11.565 6.828.067 11.757 5.083 11.684 11.889-.073 6.817-5.056 11.604-12.003 11.533h-.002zm-6.41-11.514c.072 4.418 2.75 7.355 6.654 7.308 4.032-.05 6.554-3.136 6.413-7.845-.134-4.478-2.788-7.261-6.775-7.105-3.87.15-6.366 3.182-6.29 7.644l-.003-.002zm-8.118-.322c.044 6.943-4.72 11.782-11.658 11.836-6.937.055-11.933-4.759-11.996-11.552-.064-6.803 4.857-11.79 11.71-11.872 6.892-.083 11.899 4.776 11.944 11.588zm-5.221-.021c-.078-4.428-2.74-7.358-6.653-7.323-3.99.035-6.653 3.247-6.496 7.829.153 4.418 2.88 7.268 6.822 7.131 3.863-.135 6.402-3.202 6.324-7.637h.003zm-6.38 15.808c6.906-.005 11.796 4.851 11.784 11.7-.012 6.838-4.913 11.658-11.831 11.642-6.862-.017-11.853-4.946-11.842-11.695.01-6.763 4.991-11.64 11.889-11.644v-.003zm6.53 11.77c.042-4.44-2.513-7.488-6.354-7.58-3.942-.095-6.615 2.772-6.707 7.193-.099 4.707 2.426 7.7 6.5 7.706 3.978.002 6.521-2.831 6.563-7.319h-.002zm31.734.032c-.057 6.833-4.993 11.609-11.924 11.533-6.883-.076-11.784-5.007-11.72-11.791.06-6.761 5.091-11.612 11.977-11.546 6.918.066 11.723 4.93 11.667 11.805v-.002zm-18.356-.176c-.032 4.45 2.502 7.392 6.432 7.46 3.968.069 6.608-2.762 6.712-7.198.106-4.541-2.64-7.734-6.625-7.703-3.855.028-6.483 3.03-6.516 7.441h-.003zM1.56 70.968c2.816 0 5.442-.102 8.056.026 3.343.16 6.616.772 7.824 4.516 1.206 3.738-.395 6.5-3.64 8.516l5.796 9.25c-3.74 1.1-6.249.49-7.977-3.151-.93-1.964-1.347-5.097-5.23-4.63v8.04H1.56V70.967zm4.984 11.64c2.379-1.13 4.29-1.666 5.628-2.848.585-.517.47-3.024-.15-3.464-1.435-1.013-3.372-1.314-5.478-2.03v8.342zm10.442-21.941c.74.78 1.53 1.61 2.313 2.432-4.429 4.551-11.662 4.797-15.933.707-4.34-4.155-4.512-12.61-.348-17.064 4.135-4.42 11.037-4.629 16.002-.326l-2.21 2.902c-3.674-1.765-7.337-3.294-10.26.9-1.915 2.75-1.605 7.65.509 10.147 2.25 2.66 4.854 2.77 9.927.302zM75.7 71.096h14.112l.188 3.71h-9.24v5.942h7.42v3.989h-7.43v8.691h-5.052v-22.33l.002-.002zm-.331-27.362h4.92v18.538h8.355v3.993H75.366V43.736l.003-.002z" fill="#707070"/></svg>