<svg xmlns="http://www.w3.org/2000/svg" width="95" height="100" viewBox="0 0 104 108" fill="none"><path d="M5.695 44.208c-1.863-.654-2.88-1.972-3.784-3.266-.976-1.394.152-2.148 1.159-3.136 8.232-8.075 17.053-15.458 25.809-22.944 4.923-4.207 9.835-8.512 14.547-13.004 2.427-2.314 4.497-2.688 7.64.15 7.626 6.883 16.306 14.207 24.698 21.634 5.246 4.668 10.012 9.504 15.456 13.953 1.78 1.454 3.002 2.664.689 4.972-1.894 1.888-2.913 2.794-5.374.561-12.594-11.43-25.771-22.917-38.303-33.694-2.075-1.785-2.945-.722-4.06.334-10.207 9.653-30.109 27.2-30.109 27.2s-5.625 5.211-8.37 7.237l.002.003zm19.896-31.245L15.343 21.16a.788.788 0 01-1.28-.616V5.042a.79.79 0 01.79-.79H25.1a.79.79 0 01.79.79v7.308a.788.788 0 01-.296.615l-.003-.002z" fill="#EFC73C"/><path d="M68.161 76.573c-7.967-.078-13.514-5.696-13.44-13.61.07-7.832 5.815-13.352 13.812-13.276 7.877.076 13.565 5.835 13.48 13.647-.083 7.825-5.834 13.32-13.85 13.24h-.002zm-7.397-13.217c.084 5.072 3.174 8.443 7.68 8.39 4.651-.058 7.561-3.6 7.399-9.006-.155-5.14-3.217-8.336-7.818-8.157-4.464.174-7.345 3.654-7.258 8.775l-.003-.002zm-9.366-.37c.051 7.97-5.447 13.525-13.451 13.587-8.005.063-13.769-5.463-13.842-13.261-.073-7.81 5.604-13.533 13.51-13.628 7.954-.095 13.731 5.482 13.783 13.302zm-6.025-.024c-.089-5.083-3.16-8.447-7.676-8.406-4.603.04-7.676 3.727-7.494 8.986.176 5.073 3.322 8.344 7.871 8.187 4.457-.155 7.386-3.676 7.297-8.767h.002zm-7.361 18.146c7.969-.005 13.611 5.57 13.597 13.43-.013 7.85-5.669 13.383-13.651 13.364-7.918-.019-13.677-5.677-13.663-13.424.01-7.763 5.758-13.361 13.717-13.367v-.003zm7.535 13.511c.049-5.097-2.9-8.596-7.332-8.701-4.549-.109-7.633 3.181-7.739 8.256-.113 5.404 2.8 8.84 7.5 8.846 4.59.003 7.525-3.25 7.574-8.4h-.003zm36.616.036c-.065 7.844-5.762 13.326-13.758 13.239-7.942-.087-13.598-5.748-13.524-13.535.07-7.76 5.875-13.33 13.82-13.253 7.983.076 13.527 5.658 13.462 13.551v-.002zm-21.18-.201c-.037 5.108 2.887 8.485 7.422 8.563 4.579.079 7.625-3.17 7.744-8.262.122-5.213-3.046-8.878-7.644-8.843-4.448.033-7.48 3.478-7.519 8.542h-.002zM1.8 81.464c3.25 0 6.28-.117 9.296.03 3.857.184 7.633.887 9.027 5.183 1.391 4.291-.456 7.462-4.2 9.776 2.206 3.502 4.363 6.925 6.687 10.619-4.315 1.262-7.21.562-9.203-3.618-1.074-2.254-1.555-5.85-6.036-5.314v9.228H1.8V81.464zm5.75 13.362c2.746-1.297 4.95-1.913 6.494-3.269.676-.594.543-3.472-.173-3.976-1.655-1.164-3.89-1.509-6.32-2.33v9.575zM19.6 69.64c.854.895 1.765 1.847 2.668 2.791-5.11 5.225-13.456 5.507-18.385.811-5.007-4.768-5.205-14.473-.401-19.586 4.771-5.075 12.735-5.314 18.464-.375l-2.55 3.331c-4.24-2.026-8.466-3.781-11.837 1.034-2.211 3.157-1.853 8.78.586 11.647 2.596 3.054 5.6 3.18 11.454.347zm67.747 11.97h16.282l.217 4.259H93.184v6.822h8.563v4.578h-8.574v9.977h-5.83V81.613l.004-.003zm-.383-31.407h5.677v21.28h9.64v4.583h-15.32v-25.86l.003-.003z" fill="#000"/></svg>