<svg width="104" height="109" fill="none" xmlns="http://www.w3.org/2000/svg"><path d="M5.695 45.11c-1.863-.653-2.88-1.972-3.784-3.266-.976-1.394.152-2.148 1.159-3.135 8.232-8.075 17.053-15.459 25.809-22.945 4.923-4.207 9.835-8.512 14.547-13.004 2.427-2.313 4.497-2.688 7.64.15 7.626 6.884 16.306 14.207 24.698 21.634 5.246 4.668 10.012 9.505 15.456 13.953 1.78 1.454 3.002 2.664.689 4.972-1.894 1.888-2.913 2.794-5.374.562C73.941 32.6 60.764 21.113 48.232 10.336c-2.075-1.785-2.945-.721-4.06.334-10.207 9.654-30.109 27.2-30.109 27.2s-5.625 5.211-8.37 7.238l.002.002zm19.896-31.245l-10.248 8.197a.788.788 0 01-1.28-.616V5.945a.79.79 0 01.79-.79H25.1a.79.79 0 01.79.79v7.307a.789.789 0 01-.296.616l-.003-.003zm42.57 63.611c-7.967-.079-13.514-5.696-13.44-13.611.07-7.831 5.815-13.351 13.812-13.275 7.877.076 13.565 5.834 13.48 13.646-.083 7.826-5.834 13.321-13.85 13.24h-.002zm-7.397-13.218c.084 5.072 3.174 8.444 7.68 8.39 4.651-.057 7.561-3.6 7.399-9.006-.155-5.14-3.217-8.335-7.818-8.156-4.464.173-7.345 3.653-7.258 8.775l-.003-.003zm-9.366-.369c.051 7.969-5.447 13.524-13.451 13.586-8.005.063-13.769-5.462-13.842-13.26-.073-7.81 5.604-13.533 13.51-13.628 7.954-.095 13.731 5.482 13.783 13.302zm-6.025-.025c-.089-5.083-3.16-8.446-7.676-8.406-4.603.04-7.676 3.727-7.494 8.987.176 5.072 3.322 8.343 7.871 8.186 4.457-.155 7.386-3.675 7.297-8.767h.002zM38.012 82.01c7.969-.005 13.611 5.57 13.597 13.43-.013 7.85-5.669 13.384-13.651 13.365-7.918-.019-13.677-5.678-13.663-13.424.01-7.764 5.758-13.362 13.717-13.368v-.002zm7.535 13.512c.049-5.097-2.9-8.596-7.332-8.702-4.549-.108-7.633 3.182-7.739 8.257-.113 5.403 2.8 8.84 7.5 8.845 4.59.003 7.525-3.249 7.574-8.4h-.003zm36.616.035c-.065 7.844-5.762 13.326-13.758 13.24-7.942-.087-13.598-5.748-13.524-13.536.07-7.76 5.875-13.329 13.82-13.253 7.983.076 13.527 5.658 13.462 13.552v-.003zm-21.18-.2c-.037 5.107 2.887 8.484 7.422 8.563 4.579.078 7.625-3.171 7.744-8.263.122-5.213-3.046-8.878-7.644-8.842-4.448.032-7.48 3.477-7.519 8.541h-.002zM1.8 82.366c3.25 0 6.28-.116 9.296.03 3.857.185 7.633.887 9.027 5.184 1.391 4.29-.456 7.462-4.2 9.776 2.206 3.501 4.363 6.924 6.687 10.619-4.315 1.261-7.21.561-9.203-3.619-1.074-2.254-1.555-5.85-6.036-5.313v9.227H1.8V82.366zm5.75 13.362c2.746-1.297 4.95-1.912 6.494-3.269.676-.594.543-3.472-.173-3.976-1.655-1.164-3.89-1.508-6.32-2.33v9.575zM19.6 70.543c.854.895 1.765 1.847 2.668 2.79-5.11 5.225-13.456 5.507-18.385.812-5.007-4.769-5.205-14.474-.401-19.587 4.771-5.075 12.735-5.314 18.464-.374l-2.55 3.33c-4.24-2.026-8.466-3.78-11.837 1.034-2.211 3.157-1.853 8.78.586 11.647 2.596 3.055 5.6 3.18 11.454.348zm67.747 11.97h16.282l.217 4.258H93.184v6.822h8.563v4.579h-8.574v9.976h-5.83V82.515l.004-.002zm-.383-31.408h5.677v21.28h9.64v4.584h-15.32V51.108l.003-.003z" fill="#707070"/></svg>