<svg xmlns="http://www.w3.org/2000/svg" width="28" height="31" fill="#fff"><path d="M1.474 26.017a.5.5 0 10-.948.316l.948-.316zM9.5 30.175l-.137-.48.137.48zm5.869-8.83l.48-.136-.007-.025-.009-.024-.464.186zm-4.869 1.33l.48-.137-.002-.01-.004-.01-.474.157zm5.775 4.663l-.203.457.203-.457zM21.726.515a.5.5 0 00-.606.364l-1.091 4.365a.5.5 0 10.97.243l.97-3.88 3.88.97a.5.5 0 10.243-.97L21.726.514zM.917 27.195a.5.5 0 00.864-.504l-.864.503zm1.842.669a.5.5 0 00-.667.745l.667-.745zm.8 1.781a.5.5 0 10.488-.873l-.488.873zm1.947-.227a.5.5 0 10-.32.947l.32-.947zm1.41 1.363a.5.5 0 10.14-.99l-.14.99zm1.704-.947a.5.5 0 00.102.995l-.102-.995zm1.98.44a.5.5 0 00-.451-.893l.452.892zm.99-1.895a.5.5 0 10.662.75l-.663-.75zm2.015-.684a.5.5 0 10-.782-.624l.782.624zm.236-2.12a.5.5 0 10.867.498l-.867-.498zm1.703-1.29a.5.5 0 00-.942-.337l.942.338zm-.577-2.025a.5.5 0 101 .037l-1-.037zm.332-2.17a.5.5 0 00-.848.53l.848-.53zm-2.204-.623a.5.5 0 00.246-.97l-.246.97zm-2.245-.215a.5.5 0 00.705.709l-.705-.709zm-.006 2.356a.5.5 0 10-1-.04l1 .04zm-.295 2.195a.5.5 0 00.797-.603l-.797.603zm2.052.642a.5.5 0 10-.635.773l.635-.773zm.933 1.918a.5.5 0 00.55-.835l-.55.835zm2.133.114a.5.5 0 00-.475.88l.475-.88zm1.507 1.715a.5.5 0 00.265-.965l-.265.965zm2.256-.777a.5.5 0 10.09.995l-.09-.995zm2.36.357a.5.5 0 10-.435-.9l.434.9zm1.252-2.051a.5.5 0 10.669.743l-.669-.743zm2.194-.969a.5.5 0 00-.81-.586l.81.586zm.265-2.391a.5.5 0 10.9.437l-.9-.437zm1.723-1.678a.5.5 0 10-.958-.286l.958.286zm-.534-2.34a.5.5 0 10.994.109l-.994-.11zm1.034-2.155a.5.5 0 00-.999.045l1-.045zm-1.194-2.086a.5.5 0 00.99-.139l-.99.14zm.572-2.335a.5.5 0 10-.972.235l.972-.235zm-1.57-1.82a.5.5 0 10.946-.323l-.947.322zm.143-2.4a.5.5 0 00-.918.396l.918-.396zm-1.834-1.556a.5.5 0 10.893-.451l-.893.45zm-.147-2.4a.5.5 0 10-.873.488l.873-.488zm-1.96-1.397a.5.5 0 10.861-.509l-.86.51zM.527 26.334c.1.3.232.587.391.86l.864-.503a3.607 3.607 0 01-.307-.674l-.948.316zm1.566 2.275c.44.393.937.74 1.467 1.036l.488-.873a7.167 7.167 0 01-1.288-.908l-.667.745zm3.093 1.756a9.633 9.633 0 001.732.416l.14-.99a8.63 8.63 0 01-1.55-.373l-.322.947zm3.537.464c.316-.033.623-.09.915-.173l-.274-.961c-.23.065-.478.112-.743.139l.102.995zm.915-.173a5.45 5.45 0 00.964-.383l-.452-.892c-.265.134-.527.24-.786.314l.274.961zm2.615-1.528c.483-.427.938-.914 1.353-1.433l-.782-.624a10.44 10.44 0 01-1.234 1.308l.663.75zm2.456-3.055c.34-.59.623-1.196.836-1.787l-.942-.338a10.25 10.25 0 01-.761 1.627l.867.498zm1.258-3.776c.015-.38-.02-.748-.116-1.088l-.962.274c.062.218.09.478.08.777l.998.037zm-.133-1.137a6.769 6.769 0 00-.534-1.07l-.848.53c.158.254.311.556.454.912l.928-.372zm-2.492-2.662c-.947-.24-1.854.12-2.491.754l.705.709c.444-.442 1.003-.63 1.54-.494l.246-.97zm-3.496 3.07c-.017.412.039.84.18 1.265l.95-.316a2.542 2.542 0 01-.131-.909l-1-.04zm.174 1.245c.098.343.293.677.53.99l.797-.603c-.196-.258-.313-.48-.365-.662l-.962.275zm1.947 2.405a19 19 0 001.568 1.145l.55-.835a17.862 17.862 0 01-1.483-1.083l-.635.773zm3.226 2.14c.327.176.627.325.88.437l.406-.914c-.224-.1-.5-.236-.81-.404l-.476.88zm.88.437c.37.165.738.296 1.102.396l.265-.964a6.805 6.805 0 01-.961-.346l-.407.914zm3.448.615a6.574 6.574 0 002.27-.638l-.435-.9a5.575 5.575 0 01-1.925.543l.09.995zm4.19-1.946a10.847 10.847 0 001.526-1.712l-.81-.586a9.844 9.844 0 01-1.384 1.555l.669.743zm2.69-3.666c.334-.686.61-1.398.824-2.115l-.958-.286a13.057 13.057 0 01-.765 1.964l.9.437zm1.284-4.346c.043-.388.065-.772.065-1.147h-1c0 .336-.02.683-.06 1.037l.995.11zm.065-1.147c0-.378-.008-.75-.025-1.117l-.999.045c.016.351.024.708.024 1.072h1zm-.229-3.342a22.927 22.927 0 00-.418-2.195l-.972.234c.164.682.299 1.38.4 2.1l.99-.139zm-1.042-4.339a28.35 28.35 0 00-.803-2.077l-.918.396c.285.661.544 1.327.774 2.003l.947-.322zM24.734 5.54a52.723 52.723 0 00-1.04-1.949l-.873.488c.359.642.7 1.277 1.02 1.912l.893-.451zm-2.139-3.855c-.184-.312-.371-.626-.561-.942l-.858.514c.19.315.376.628.559.937l.86-.509z"/></svg>