<svg width="115" height="115" fill="none" xmlns="http://www.w3.org/2000/svg"><g filter="url(#filter0_i_1836_1188)"><rect width="115" height="115" rx="15" fill="#F8F4F4"/></g><g filter="url(#filter1_d_1836_1188)"><path d="M28.218 32.816a8 8 0 017.926-6.92h42.378a8 8 0 017.927 6.92l7.98 58.552c.655 4.803-3.079 9.08-7.927 9.08H28.164c-4.847 0-8.581-4.277-7.926-9.08l7.98-58.552z" fill="#707070"/></g><path d="M32.807 32.63a5 5 0 014.958-4.355H77.7a5 5 0 014.958 4.354l7.482 57.414a5 5 0 01-4.958 5.646H30.284a5 5 0 01-4.958-5.646l7.481-57.414z" fill="#C1141E"/><g filter="url(#filter2_d_1836_1188)"><path fill-rule="evenodd" clip-rule="evenodd" d="M50.146 21.138v2.38H42.16v1.585h7.986v3.173H42.16v1.586h7.986v1.559h2.396V18.73c0-1.69.793-2.254 1.353-2.653.492-.35.803-.571.244-1.312-1.198-1.586-3.993-.793-3.993 3.172v1.614H42.16v1.586h7.986zm-10.382-3.173v13.483h2.395v-12.69c0-1.69.794-2.254 1.354-2.653.492-.35.803-.571.244-1.312-1.198-1.586-3.993-.793-3.993 3.172z" fill="#fff"/></g><g filter="url(#filter3_d_1836_1188)"><path fill-rule="evenodd" clip-rule="evenodd" d="M50.685 43.955a.923.923 0 00-1.568-.047c-1.775 2.624-5.951 9.395-7.428 16.96a8.212 8.212 0 00-.28 1.68l-.016.12c-.052.392-.039.764.032 1.113.367 4.238 3.946 7.563 8.308 7.563 4.415 0 8.029-3.407 8.32-7.718a3.581 3.581 0 00.02-.456v-.108c0-.278-.014-.553-.041-.824-.496-6.487-5.432-15.142-7.347-18.283z" fill="#fff"/></g><g filter="url(#filter4_d_1836_1188)"><path fill-rule="evenodd" clip-rule="evenodd" d="M67.03 66.162a.911.911 0 00-1.557-.043c-1.444 2.178-4.414 7.158-5.494 12.694a6.28 6.28 0 00-.213 1.277l-.013.095c-.04.301-.03.586.025.854.282 3.239 3.018 5.78 6.352 5.78 3.379 0 6.144-2.61 6.363-5.909a2.71 2.71 0 00.014-.273v-.151c0-.216-.01-.43-.032-.64-.37-4.775-3.878-11.08-5.444-13.684z" fill="#fff"/></g><defs><filter id="filter0_i_1836_1188" x="0" y="0" width="117" height="117" filterUnits="userSpaceOnUse" color-interpolation-filters="sRGB"><feFlood flood-opacity="0" result="BackgroundImageFix"/><feBlend in="SourceGraphic" in2="BackgroundImageFix" result="shape"/><feColorMatrix in="SourceAlpha" values="0 0 0 0 0 0 0 0 0 0 0 0 0 0 0 0 0 0 127 0" result="hardAlpha"/><feOffset dx="2" dy="2"/><feGaussianBlur stdDeviation="3"/><feComposite in2="hardAlpha" operator="arithmetic" k2="-1" k3="1"/><feColorMatrix values="0 0 0 0 0 0 0 0 0 0 0 0 0 0 0 0 0 0 0.05 0"/><feBlend in2="shape" result="effect1_innerShadow_1836_1188"/></filter><filter id="filter1_d_1836_1188" x="17.163" y="24.896" width="80.341" height="80.551" filterUnits="userSpaceOnUse" color-interpolation-filters="sRGB"><feFlood flood-opacity="0" result="BackgroundImageFix"/><feColorMatrix in="SourceAlpha" values="0 0 0 0 0 0 0 0 0 0 0 0 0 0 0 0 0 0 127 0" result="hardAlpha"/><feOffset dy="2"/><feGaussianBlur stdDeviation="1.5"/><feComposite in2="hardAlpha" operator="out"/><feColorMatrix values="0 0 0 0 0 0 0 0 0 0 0 0 0 0 0 0 0 0 0.25 0"/><feBlend in2="BackgroundImageFix" result="effect1_dropShadow_1836_1188"/><feBlend in="SourceGraphic" in2="effect1_dropShadow_1836_1188" result="shape"/></filter><filter id="filter2_d_1836_1188" x="36.764" y="13" width="20.673" height="23.447" filterUnits="userSpaceOnUse" color-interpolation-filters="sRGB"><feFlood flood-opacity="0" result="BackgroundImageFix"/><feColorMatrix in="SourceAlpha" values="0 0 0 0 0 0 0 0 0 0 0 0 0 0 0 0 0 0 127 0" result="hardAlpha"/><feOffset dy="2"/><feGaussianBlur stdDeviation="1.5"/><feComposite in2="hardAlpha" operator="out"/><feColorMatrix values="0 0 0 0 0 0 0 0 0 0 0 0 0 0 0 0 0 0 0.25 0"/><feBlend in2="BackgroundImageFix" result="effect1_dropShadow_1836_1188"/><feBlend in="SourceGraphic" in2="effect1_dropShadow_1836_1188" result="shape"/></filter><filter id="filter3_d_1836_1188" x="38.361" y="42.494" width="22.711" height="33.85" filterUnits="userSpaceOnUse" color-interpolation-filters="sRGB"><feFlood flood-opacity="0" result="BackgroundImageFix"/><feColorMatrix in="SourceAlpha" values="0 0 0 0 0 0 0 0 0 0 0 0 0 0 0 0 0 0 127 0" result="hardAlpha"/><feOffset dy="2"/><feGaussianBlur stdDeviation="1.5"/><feComposite in2="hardAlpha" operator="out"/><feColorMatrix values="0 0 0 0 0 0 0 0 0 0 0 0 0 0 0 0 0 0 0.25 0"/><feBlend in2="BackgroundImageFix" result="effect1_dropShadow_1836_1188"/><feBlend in="SourceGraphic" in2="effect1_dropShadow_1836_1188" result="shape"/></filter><filter id="filter4_d_1836_1188" x="56.729" y="64.701" width="18.778" height="27.117" filterUnits="userSpaceOnUse" color-interpolation-filters="sRGB"><feFlood flood-opacity="0" result="BackgroundImageFix"/><feColorMatrix in="SourceAlpha" values="0 0 0 0 0 0 0 0 0 0 0 0 0 0 0 0 0 0 127 0" result="hardAlpha"/><feOffset dy="2"/><feGaussianBlur stdDeviation="1.5"/><feComposite in2="hardAlpha" operator="out"/><feColorMatrix values="0 0 0 0 0 0 0 0 0 0 0 0 0 0 0 0 0 0 0.25 0"/><feBlend in2="BackgroundImageFix" result="effect1_dropShadow_1836_1188"/><feBlend in="SourceGraphic" in2="effect1_dropShadow_1836_1188" result="shape"/></filter></defs></svg>