<svg width="118" height="115" fill="none" xmlns="http://www.w3.org/2000/svg"><g filter="url(#filter0_i_1836_1231)"><rect x="3" width="115" height="115" rx="15" fill="#F8F4F4"/></g><g filter="url(#filter1_d_1836_1231)"><path d="M37.413 83.953L95.24 72.344 49.352 49.85 3 57.275v9.121l34.413 17.557z" fill="#C1141E"/></g><g filter="url(#filter2_d_1836_1231)"><ellipse cx="53.312" cy="35.465" rx="15.573" ry="15.466" fill="#707070"/></g><g filter="url(#filter3_dd_1836_1231)"><path fill-rule="evenodd" clip-rule="evenodd" d="M63.6 23.331l39.406 20.497-12.958 26.93-40.306-20.462a15.33 15.33 0 01-3.1-1.574l-.127-.064.01-.014c-4.07-2.74-6.744-7.369-6.744-12.618 0-8.413 6.868-15.233 15.339-15.233 3.136 0 6.052.934 8.48 2.538z" fill="#fff"/></g><g filter="url(#filter4_d_1836_1231)"><ellipse cx="96.437" cy="57.672" rx="15.573" ry="15.466" fill="#707070"/></g><g filter="url(#filter5_i_1836_1231)"><ellipse cx="96.438" cy="57.672" rx="13.976" ry="13.879" fill="#C1141E"/></g><path d="M7.392 62.828l43.125-7.931M7.392 62.828l43.125-7.931M14.58 66l43.125-7.932M21.767 69.966l43.125-7.93M29.753 73.931L72.878 66M36.94 77.896l43.126-7.931m-40.51-17.13l38.612 20.658M30.552 53.938l38.611 20.658M22.566 56.32l38.611 20.657M13.781 58.698l38.611 20.658" stroke="#E2AFAF"/><path d="M95.949 57.12c-.77-1.326-.355-2.997.93-3.733 1.284-.737 2.95-.259 3.72 1.067 1.542 2.65.709 5.994-1.86 7.466-2.568 1.473-5.9.518-7.44-2.134-2.313-3.977-1.064-8.991 2.789-11.2 3.852-2.209 8.85-.776 11.162 3.201 3.082 5.303 1.417 11.989-3.719 14.934-5.137 2.945-11.8 1.034-14.883-4.268" stroke="#E38696" stroke-miterlimit="22.926" stroke-linecap="round"/><defs><filter id="filter0_i_1836_1231" x="3" y="0" width="117" height="117" filterUnits="userSpaceOnUse" color-interpolation-filters="sRGB"><feFlood flood-opacity="0" result="BackgroundImageFix"/><feBlend in="SourceGraphic" in2="BackgroundImageFix" result="shape"/><feColorMatrix in="SourceAlpha" values="0 0 0 0 0 0 0 0 0 0 0 0 0 0 0 0 0 0 127 0" result="hardAlpha"/><feOffset dx="2" dy="2"/><feGaussianBlur stdDeviation="3"/><feComposite in2="hardAlpha" operator="arithmetic" k2="-1" k3="1"/><feColorMatrix values="0 0 0 0 0 0 0 0 0 0 0 0 0 0 0 0 0 0 0.05 0"/><feBlend in2="shape" result="effect1_innerShadow_1836_1231"/></filter><filter id="filter1_d_1836_1231" x="0" y="48.85" width="98.24" height="40.103" filterUnits="userSpaceOnUse" color-interpolation-filters="sRGB"><feFlood flood-opacity="0" result="BackgroundImageFix"/><feColorMatrix in="SourceAlpha" values="0 0 0 0 0 0 0 0 0 0 0 0 0 0 0 0 0 0 127 0" result="hardAlpha"/><feOffset dy="2"/><feGaussianBlur stdDeviation="1.5"/><feComposite in2="hardAlpha" operator="out"/><feColorMatrix values="0 0 0 0 0 0 0 0 0 0 0 0 0 0 0 0 0 0 0.25 0"/><feBlend in2="BackgroundImageFix" result="effect1_dropShadow_1836_1231"/><feBlend in="SourceGraphic" in2="effect1_dropShadow_1836_1231" result="shape"/></filter><filter id="filter2_d_1836_1231" x="34.739" y="19" width="37.146" height="36.932" filterUnits="userSpaceOnUse" color-interpolation-filters="sRGB"><feFlood flood-opacity="0" result="BackgroundImageFix"/><feColorMatrix in="SourceAlpha" values="0 0 0 0 0 0 0 0 0 0 0 0 0 0 0 0 0 0 127 0" result="hardAlpha"/><feOffset dy="2"/><feGaussianBlur stdDeviation="1.5"/><feComposite in2="hardAlpha" operator="out"/><feColorMatrix values="0 0 0 0 0 0 0 0 0 0 0 0 0 0 0 0 0 0 0.25 0"/><feBlend in2="BackgroundImageFix" result="effect1_dropShadow_1836_1231"/><feBlend in="SourceGraphic" in2="effect1_dropShadow_1836_1231" result="shape"/></filter><filter id="filter3_dd_1836_1231" x="32.781" y="10.793" width="77.225" height="67.965" filterUnits="userSpaceOnUse" color-interpolation-filters="sRGB"><feFlood flood-opacity="0" result="BackgroundImageFix"/><feColorMatrix in="SourceAlpha" values="0 0 0 0 0 0 0 0 0 0 0 0 0 0 0 0 0 0 127 0" result="hardAlpha"/><feOffset dy="-3"/><feGaussianBlur stdDeviation="3.5"/><feComposite in2="hardAlpha" operator="out"/><feColorMatrix values="0 0 0 0 0 0 0 0 0 0 0 0 0 0 0 0 0 0 0.1 0"/><feBlend in2="BackgroundImageFix" result="effect1_dropShadow_1836_1231"/><feColorMatrix in="SourceAlpha" values="0 0 0 0 0 0 0 0 0 0 0 0 0 0 0 0 0 0 127 0" result="hardAlpha"/><feOffset dy="4"/><feGaussianBlur stdDeviation="2"/><feComposite in2="hardAlpha" operator="out"/><feColorMatrix values="0 0 0 0 0 0 0 0 0 0 0 0 0 0 0 0 0 0 0.25 0"/><feBlend in2="effect1_dropShadow_1836_1231" result="effect2_dropShadow_1836_1231"/><feBlend in="SourceGraphic" in2="effect2_dropShadow_1836_1231" result="shape"/></filter><filter id="filter4_d_1836_1231" x="77.864" y="41.207" width="37.146" height="36.932" filterUnits="userSpaceOnUse" color-interpolation-filters="sRGB"><feFlood flood-opacity="0" result="BackgroundImageFix"/><feColorMatrix in="SourceAlpha" values="0 0 0 0 0 0 0 0 0 0 0 0 0 0 0 0 0 0 127 0" result="hardAlpha"/><feOffset dy="2"/><feGaussianBlur stdDeviation="1.5"/><feComposite in2="hardAlpha" operator="out"/><feColorMatrix values="0 0 0 0 0 0 0 0 0 0 0 0 0 0 0 0 0 0 0.25 0"/><feBlend in2="BackgroundImageFix" result="effect1_dropShadow_1836_1231"/><feBlend in="SourceGraphic" in2="effect1_dropShadow_1836_1231" result="shape"/></filter><filter id="filter5_i_1836_1231" x="82.462" y="43.793" width="27.951" height="27.758" filterUnits="userSpaceOnUse" color-interpolation-filters="sRGB"><feFlood flood-opacity="0" result="BackgroundImageFix"/><feBlend in="SourceGraphic" in2="BackgroundImageFix" result="shape"/><feColorMatrix in="SourceAlpha" values="0 0 0 0 0 0 0 0 0 0 0 0 0 0 0 0 0 0 127 0" result="hardAlpha"/><feOffset/><feGaussianBlur stdDeviation="2"/><feComposite in2="hardAlpha" operator="arithmetic" k2="-1" k3="1"/><feColorMatrix values="0 0 0 0 0 0 0 0 0 0 0 0 0 0 0 0 0 0 0.25 0"/><feBlend in2="shape" result="effect1_innerShadow_1836_1231"/></filter></defs></svg>