<svg width="22" height="21" fill="none" xmlns="http://www.w3.org/2000/svg"><path d="M12.43 20.997h-1.788c.027-.686.05-1.371.083-2.056.023-.505.042-1.01.088-1.513.049-.534.115-1.068.196-1.599.079-.54.221-1.068.424-1.573.568-1.4 1.563-2.366 2.975-2.9.825-.31 1.689-.44 2.56-.527a29.24 29.24 0 011.103-.087c.502-.03 1.004-.056 1.506-.077.41-.018.82-.026 1.229-.04.07 0 .14-.008.219-.012v.105c-.005.706-.005 1.412-.014 2.117-.016 1.225-.056 2.448-.25 3.661a7.47 7.47 0 01-.506 1.842c-.267.61-.638 1.137-1.2 1.515a4.973 4.973 0 01-1.387.634c-.814.24-1.65.353-2.494.404-.772.047-1.546.064-2.319.09l-.425.016zM.026 10.383V8.596c.005-.114.012-.228.014-.343.017-1.22.052-2.438.234-3.646a8.29 8.29 0 01.474-1.835c.368-.927.995-1.596 1.915-1.998.645-.28 1.32-.437 2.01-.54.81-.116 1.625-.181 2.442-.195C8.188.016 9.26.014 10.33.002h.078v.12c-.026.658-.05 1.316-.079 1.974-.019.423-.034.846-.071 1.268a37.354 37.354 0 01-.176 1.577 7.656 7.656 0 01-.392 1.622C9.31 7.6 8.686 8.445 7.768 9.067c-.635.43-1.34.689-2.082.854a13.35 13.35 0 01-1.99.28c-.591.042-1.183.083-1.775.111-.633.032-1.264.048-1.895.071zm0 2.017v-1.786c.434.016.869.031 1.303.05.467.02.934.032 1.4.063a63.77 63.77 0 011.9.166c.55.057 1.093.167 1.622.328 1.078.326 1.988.9 2.681 1.803.543.713.853 1.527 1.038 2.395.133.635.221 1.279.264 1.926.041.591.082 1.183.11 1.775.031.625.048 1.25.07 1.876H8.629c-.087-.005-.175-.012-.262-.013-1.295-.017-2.589-.046-3.872-.251-.63-.1-1.247-.25-1.831-.514-.505-.223-.952-.516-1.304-.945-.414-.507-.663-1.095-.838-1.717-.278-.987-.375-2.003-.424-3.018-.034-.68-.041-1.36-.06-2.043-.001-.03-.007-.062-.01-.094zM10.647.001c.364 0 .716-.003 1.068 0 .73.009 1.46.014 2.19.034.931.026 1.86.085 2.78.245.63.1 1.242.283 1.823.545.868.404 1.449 1.067 1.8 1.948.227.592.386 1.208.473 1.835.177 1.176.216 2.362.232 3.547.009.705.01 1.41.014 2.116v.103a.523.523 0 01-.064.005l-1.924-.077c-.361-.016-.721-.03-1.081-.055-.36-.024-.712-.06-1.068-.093a11.837 11.837 0 01-1.651-.266c-1.072-.255-2.026-.723-2.787-1.537-.586-.625-.974-1.363-1.213-2.183a9.072 9.072 0 01-.311-1.558 39.843 39.843 0 01-.149-1.605c-.04-.574-.058-1.149-.083-1.719-.018-.392-.031-.786-.046-1.18-.007-.03-.003-.062-.003-.105z" fill="#707070"/></svg>