<svg width="34" height="34" fill="none" xmlns="http://www.w3.org/2000/svg"><path d="M19.55 33.426h-2.816c.042-1.067.08-2.133.13-3.2.036-.785.067-1.572.14-2.355a40.9 40.9 0 01.307-2.488c.125-.84.35-1.662.67-2.45.894-2.179 2.463-3.682 4.688-4.511 1.3-.485 2.662-.687 4.036-.822.578-.058 1.157-.1 1.737-.135.79-.048 1.581-.088 2.373-.12.646-.028 1.291-.041 1.937-.062.11 0 .221-.013.345-.02v.165c-.007 1.098-.008 2.197-.022 3.294-.025 1.907-.087 3.811-.392 5.699-.141.985-.41 1.949-.799 2.867-.42.948-1.006 1.77-1.891 2.357a7.883 7.883 0 01-2.186.988c-1.284.374-2.601.55-3.931.628-1.216.074-2.436.1-3.655.142l-.67.023zM.002 16.907v-2.782c.007-.178.02-.355.022-.534.027-1.898.082-3.794.369-5.675C.53 6.94.78 5.981 1.14 5.06c.58-1.442 1.567-2.484 3.018-3.11 1.016-.435 2.08-.68 3.168-.84a30.623 30.623 0 013.85-.305C12.863.77 14.552.766 16.241.75h.123v.186c-.042 1.025-.08 2.049-.125 3.073-.03.658-.053 1.317-.113 1.973a57.94 57.94 0 01-.276 2.455 11.8 11.8 0 01-.619 2.525c-.596 1.611-1.581 2.929-3.029 3.896-1 .669-2.112 1.073-3.281 1.33a21.517 21.517 0 01-3.137.437c-.931.065-1.864.128-2.796.173-.998.048-1.993.074-2.987.11zm0 3.139v-2.781c.684.026 1.37.048 2.053.077.736.03 1.472.05 2.206.1 1 .07 1.997.156 2.994.257.867.09 1.724.26 2.558.511 1.698.508 3.133 1.401 4.225 2.807.856 1.11 1.345 2.376 1.637 3.727.209.989.348 1.99.415 2.998.065.92.129 1.84.174 2.762.048.973.075 1.946.11 2.92h-2.816c-.137-.007-.274-.018-.411-.02-2.041-.026-4.081-.071-6.103-.39-.993-.157-1.966-.39-2.886-.8-.796-.348-1.5-.804-2.055-1.471-.652-.79-1.045-1.704-1.321-2.673-.438-1.536-.592-3.117-.669-4.698-.052-1.058-.064-2.117-.095-3.179 0-.046-.01-.097-.016-.147zM16.743.747c.572 0 1.127-.005 1.683 0 1.15.013 2.3.021 3.45.053 1.469.04 2.933.132 4.384.381.99.156 1.956.441 2.872.848 1.367.629 2.283 1.66 2.835 3.033.36.92.61 1.879.747 2.856.28 1.83.34 3.676.365 5.52.014 1.098.015 2.196.022 3.294v.16a.847.847 0 01-.1.009c-1.011-.04-2.022-.08-3.033-.122-.569-.023-1.136-.045-1.703-.084-.568-.039-1.122-.094-1.683-.145a18.856 18.856 0 01-2.603-.414c-1.689-.398-3.192-1.126-4.392-2.393-.924-.973-1.535-2.122-1.912-3.397-.235-.793-.4-1.605-.49-2.426a61.267 61.267 0 01-.234-2.498c-.062-.894-.093-1.788-.132-2.675-.028-.61-.05-1.224-.072-1.836-.01-.048-.004-.098-.004-.164z" fill="#C8102E"/></svg>