<svg width="21" height="21" fill="none" xmlns="http://www.w3.org/2000/svg"><path d="M12.402 20.997h-1.787c.027-.686.05-1.371.083-2.056.022-.505.042-1.01.088-1.513.049-.534.115-1.068.196-1.599.079-.54.22-1.067.424-1.573.568-1.4 1.563-2.366 2.975-2.9.825-.31 1.689-.44 2.56-.527a29.24 29.24 0 011.103-.087c.502-.03 1.003-.056 1.506-.077.41-.018.82-.026 1.229-.04.07 0 .14-.008.219-.012v.106c-.005.705-.005 1.41-.014 2.116-.016 1.225-.056 2.448-.25 3.661a7.469 7.469 0 01-.506 1.842c-.267.61-.638 1.137-1.2 1.515a4.973 4.973 0 01-1.387.634c-.814.24-1.65.353-2.494.404-.772.047-1.546.064-2.319.09l-.426.016zM0 10.383V8.596c.004-.114.012-.228.014-.343.017-1.22.052-2.438.234-3.646a8.29 8.29 0 01.474-1.835c.368-.927.994-1.596 1.915-1.998.644-.28 1.32-.437 2.01-.54C5.457.118 6.272.053 7.09.039 8.161.016 9.232.014 10.304.002h.078v.12c-.026.658-.05 1.316-.08 1.974-.018.423-.033.847-.07 1.268a37.52 37.52 0 01-.176 1.577 7.662 7.662 0 01-.393 1.622C9.285 7.6 8.66 8.445 7.741 9.067c-.635.43-1.34.689-2.082.854-.655.143-1.32.237-1.99.28a77.97 77.97 0 01-1.774.111c-.633.032-1.264.048-1.895.071zM0 12.4v-1.786c.434.016.869.031 1.303.05.466.02.933.032 1.4.063.633.046 1.267.101 1.899.166.55.057 1.094.167 1.623.328 1.077.326 1.988.9 2.68 1.803.544.713.854 1.527 1.04 2.395.132.635.22 1.279.263 1.927.041.59.081 1.181.11 1.774.03.625.047 1.25.07 1.876H8.601c-.087-.005-.174-.012-.26-.013-1.296-.017-2.59-.046-3.873-.25-.63-.102-1.247-.252-1.831-.515-.505-.223-.952-.516-1.304-.945-.414-.507-.663-1.095-.838-1.717-.278-.987-.376-2.003-.425-3.018-.033-.68-.04-1.36-.06-2.043 0-.03-.007-.062-.01-.094zM10.62.001c.363 0 .716-.003 1.068 0 .73.009 1.46.014 2.19.034.931.026 1.86.085 2.78.245.63.1 1.242.283 1.823.545.867.404 1.449 1.067 1.8 1.948.227.592.386 1.208.473 1.835.177 1.176.216 2.362.232 3.547.008.705.01 1.41.014 2.116v.103a.523.523 0 01-.064.005l-1.924-.077c-.361-.016-.721-.03-1.081-.055-.36-.024-.712-.06-1.068-.093a11.837 11.837 0 01-1.651-.266c-1.072-.255-2.026-.723-2.787-1.537-.586-.625-.974-1.363-1.213-2.183A9.072 9.072 0 0110.9 4.61a39.843 39.843 0 01-.148-1.605c-.04-.574-.058-1.149-.083-1.719-.018-.392-.032-.786-.046-1.18-.006-.03-.003-.062-.003-.105z" fill="#171717"/></svg>