<svg xmlns="http://www.w3.org/2000/svg" width="15" height="19" fill="none"><g clip-path="url(#clip0_1979_44)"><path d="M1.005 4.254a.51.51 0 00-.155.365V16.55c0 .886.739 1.6 1.639 1.6h10.023c.43 0 .852-.17 1.157-.467a1.57 1.57 0 00.481-1.133V2.45a1.57 1.57 0 00-.48-1.132A1.67 1.67 0 0012.51.85H4.716a.53.53 0 00-.37.15l-3.34 3.254zM13.1 16.557a.555.555 0 01-.17.395.604.604 0 01-.418.168H2.489a.58.58 0 01-.589-.57V5.677h2.26c.9 0 1.638-.714 1.638-1.6V1.88h6.713c.157 0 .31.062.418.168.111.107.171.25.171.401v14.106zM4.16 4.646H2.092L4.748 2.06v2.017c0 .31-.26.57-.589.57z" fill="#707070" stroke="#707070" stroke-width=".3"/><path d="M10.097 9.677a.532.532 0 00-.74 0l-1.332 1.298V7.33a.52.52 0 00-.525-.515.52.52 0 00-.525.515v3.644L5.643 9.677a.532.532 0 00-.74 0 .509.509 0 000 .731l2.226 2.169a.536.536 0 00.742 0l2.226-2.169a.508.508 0 000-.731z" fill="#707070"/><path d="M5.643 9.677l1.332 1.298V7.33a.52.52 0 01.525-.515.52.52 0 01.525.515v3.644l1.333-1.298c.204-.2.534-.2.74 0a.508.508 0 010 .731l-2.228 2.17a.536.536 0 01-.742 0l-2.226-2.169a.509.509 0 010-.731c.205-.2.535-.2.74 0zm0 0l-.1.102" stroke="#707070" stroke-width=".3"/><path d="M5.274 14.896h4.454a.52.52 0 00.525-.515.52.52 0 00-.525-.515H5.274a.52.52 0 00-.525.515.52.52 0 00.525.515z" fill="#707070" stroke="#707070" stroke-width=".3"/></g><defs><clipPath id="clip0_1979_44"><path fill="#fff" d="M0 0h15v19H0z"/></clipPath></defs></svg>