<svg width="19" height="19" fill="none" xmlns="http://www.w3.org/2000/svg"><path d="M11.32 18.838H9.724c.024-.605.045-1.21.073-1.814.02-.445.038-.891.08-1.335.043-.471.102-.942.174-1.41.07-.476.198-.942.379-1.388.508-1.236 1.396-2.088 2.658-2.558.736-.274 1.508-.389 2.287-.465.328-.033.656-.057.985-.077a69.9 69.9 0 011.345-.068c.366-.016.732-.023 1.098-.035.062 0 .125-.007.195-.011v.093c-.004.622-.004 1.245-.012 1.867-.015 1.08-.05 2.16-.223 3.23a6.528 6.528 0 01-.452 1.625c-.239.538-.57 1.003-1.072 1.336-.382.249-.8.438-1.24.56-.727.212-1.474.311-2.227.356-.69.042-1.381.057-2.072.08l-.38.014zM.24 9.475V7.898c.004-.1.011-.201.013-.303C.268 6.52.299 5.445.46 4.38a7.26 7.26 0 01.424-1.619c.328-.817.888-1.408 1.71-1.762C3.172.75 3.776.612 4.392.52 5.114.418 5.843.36 6.573.349 7.53.33 8.487.327 9.445.316h.07v.106c-.024.58-.046 1.161-.071 1.742-.018.373-.03.746-.064 1.118-.042.465-.095.929-.157 1.391a6.687 6.687 0 01-.35 1.432c-.339.913-.897 1.66-1.717 2.208-.568.38-1.198.608-1.86.754a12.11 12.11 0 01-1.778.247c-.528.038-1.056.073-1.585.098-.566.028-1.13.043-1.693.063zm0 1.779V9.678c.388.014.776.027 1.164.044.417.017.834.028 1.25.056.567.04 1.132.089 1.697.146.492.05.977.148 1.45.29.962.287 1.776.794 2.395 1.59.485.63.762 1.347.927 2.113.119.56.197 1.128.236 1.7.037.52.073 1.042.098 1.565.028.551.042 1.103.063 1.655H7.924c-.078-.004-.156-.01-.234-.011-1.156-.015-2.313-.041-3.459-.222-.562-.089-1.114-.221-1.635-.453-.451-.197-.85-.456-1.165-.834-.37-.447-.593-.966-.749-1.515-.248-.87-.335-1.767-.379-2.662-.03-.6-.037-1.2-.054-1.802 0-.027-.006-.055-.009-.084zM9.729.316c.324 0 .639-.003.953 0 .652.007 1.304.012 1.956.03.832.023 1.663.074 2.485.216a6.49 6.49 0 011.627.48c.775.357 1.295.942 1.608 1.72.203.52.345 1.064.423 1.618.158 1.037.193 2.083.207 3.129.008.622.008 1.244.012 1.867v.09a.467.467 0 01-.057.005l-1.719-.068c-.322-.014-.643-.026-.965-.048-.322-.022-.636-.054-.954-.082-.496-.044-.99-.123-1.475-.235-.957-.225-1.81-.638-2.49-1.356-.523-.552-.87-1.203-1.083-1.926a7.918 7.918 0 01-.278-1.375c-.053-.471-.1-.943-.132-1.415-.036-.507-.053-1.014-.075-1.517-.016-.346-.028-.694-.041-1.04C9.725.38 9.729.353 9.729.316z" fill="#fff"/></svg>