<svg width="229" height="67" fill="none" xmlns="http://www.w3.org/2000/svg"><path d="M115.905 24.016h23.166c.324 0 .655-.006.979.007 3.113.168 4.922 2.372 4.157 5.367a651.272 651.272 0 01-4.838 17.844c-.811 2.852-4.255 5.172-7.355 5.185-5.512.013-11.025.026-16.531-.019-.83-.006-1.2.194-1.407 1.018-.532 2.158-.571 2.152-2.757 2.152-3.151 0-6.31-.02-9.462.013-.759.006-1.024-.11-.778-.96.636-2.184.597-2.197-1.712-2.197H84.029c-3.463 0-5.11-1.99-4.242-5.341a795.797 795.797 0 014.813-17.74c.85-3.002 4.274-5.322 7.588-5.322 5.584 0 11.167.019 16.751.032h6.959v-.032l.007-.007zm4.092 24.508h3.256c2.276 0 3.651-1.044 4.248-3.241a3665.04 3665.04 0 003.845-14.286c.474-1.776-.441-3.008-2.289-3.034-2.425-.032-4.851.007-7.277-.019-.538-.006-.758.175-.882.68-.259 1.083-.59 2.153-.882 3.229-1.446 5.276-2.879 10.558-4.345 15.828-.181.661-.117.888.629.856 1.226-.059 2.458-.013 3.69-.013h.007zm-11.57-20.606h-7.491c-2.334.007-3.69 1.07-4.3 3.332l-3.754 13.975c-.571 2.12.298 3.28 2.503 3.292 2.133.013 4.274-.026 6.407.02.733.02 1.051-.156 1.252-.927.953-3.695 1.991-7.37 2.996-11.052.779-2.839 1.57-5.684 2.387-8.646v.006zm94.992 24.476c-4.313 0-8.626 0-12.938-.007a9.585 9.585 0 01-1.725-.155c-2.653-.48-4.132-2.67-3.451-5.27a1068.753 1068.753 0 014.683-17.32c.934-3.338 4.053-5.62 7.536-5.62 9.021-.012 18.049-.012 27.07 0 3.418 0 5.033 1.958 4.183 5.283-1.44 5.62-3.061 11.194-4.501 16.814-.895 3.487-3.204 5.341-6.531 6.19-.447.117-.934.124-1.401.124-4.312.006-8.625 0-12.938 0V52.4l.013-.006zm.85-3.87h3.041c2.672 0 3.937-.94 4.624-3.474 1.259-4.66 2.504-9.328 3.749-13.988.493-1.847-.396-3.073-2.296-3.098a312.512 312.512 0 00-7.393 0c-1.855.026-3.347 1.173-3.827 2.962-1.316 4.868-2.62 9.742-3.904 14.623-.486 1.854.344 2.91 2.302 2.968 1.233.033 2.465.007 3.697.007h.007zm-44.607-13.437c2.257-1.277 4.326-2.444 6.388-3.617 4.086-2.32 8.178-4.634 12.257-6.961a3.276 3.276 0 011.739-.467c2.373.032 4.747.013 7.192.013-.253.493-.668.59-.992.778-4.19 2.43-8.38 4.855-12.602 7.24-.7.395-.765.687-.369 1.374 3.418 5.944 6.797 11.907 10.188 17.87.188.338.37.681.616 1.148h-8.035c-1.524 0-3.048-.039-4.566.02-.674.025-1.018-.221-1.342-.798-2.328-4.155-4.715-8.277-7.037-12.439-.369-.654-.635-.784-1.29-.382-1.226.758-2.828 1.173-3.665 2.223-.81 1.011-.862 2.632-1.238 3.987-.604 2.19-1.213 4.381-1.777 6.579-.163.622-.435.842-1.103.836a553.017 553.017 0 00-10.876 0c-.733 0-.908-.104-.694-.895 2.452-8.932 4.864-17.877 7.277-26.822.149-.557.363-.816 1.018-.803 2.101.052 4.203.02 6.31.02.325 0 .655.012.98.051 2.963.35 4.04 1.919 3.288 4.803-.526 2.016-1.077 4.025-1.667 6.248v-.006zm-115.045 5.14c.992-1.167 1.991-2.3 2.945-3.474.343-.428.771-.33 1.186-.33 5.403 0 10.805-.027 16.207.019.85.006 1.213-.24 1.382-1.063.266-1.27.642-2.515.98-3.766.635-2.405-.202-3.468-2.725-3.468H42.587c1.142-1.342 2.16-2.56 3.197-3.766.215-.253.545-.136.824-.136 9.715.006 19.43 0 29.152.039 3.269.013 5.188 2.405 4.365 5.574a909.797 909.797 0 01-4.709 17.436c-.784 2.807-4.066 5.328-7.01 5.341-10.734.046-21.467.013-32.2.013-.059 0-.117-.045-.299-.11 1.018-1.205 2.017-2.372 2.99-3.552.35-.421.804-.26 1.213-.26 6.381-.012 12.763-.006 19.145-.006 2.484 0 3.696-.94 4.345-3.364.363-1.354.674-2.729 1.115-4.064.273-.816-.019-.894-.72-.888-6.057.02-12.108.013-18.165 0-.383 0-.791.13-1.226-.162l.013-.013zm-7.685-6.488c-1.719 1.996-3.372 3.94-5.046 5.872-.635.733-1.206 1.86-1.984 2.042-.778.182-1.797-.557-2.685-.953-6.881-3.02-13.27-6.786-18.406-12.38-2.192-2.392-3.962-5.056-4.948-8.187-1.057-3.357-.902-6.611.804-9.748.37-.687.727-1.38 1.187-2.074-.15 2.34.434 4.472 1.647 6.546.759-.96 1.485-1.86 2.29-2.878.629 1.238 1.245 2.334 2.043 3.313.246.304.13.505-.065.745-.344.421-.636.888-1.019 1.27-.79.791-.59 1.342.17 2.094 5.778 5.756 12.75 9.541 20.292 12.4 1.822.687 3.697 1.25 5.726 1.931l-.006.007z" fill="#707070"/><path d="M12.923.422c-1.589 2.794-1.18 5.439.597 7.98a9.496 9.496 0 002.633 3.292c2.107 2.444 4.747 4.207 7.47 5.866a51.768 51.768 0 0011.227 5.114c.895.286 1.018.564.357 1.245-1.083 1.115-2.114 2.275-3.165 3.422-.266.292-.532.435-.947.253-7.614-3.3-14.8-7.214-19.638-14.273C9.512 10.482 8.5 7.358 9.836 3.916c.584-1.504 1.446-2.826 2.931-3.63l.156.136z" fill="#707070"/><path d="M16.16 11.694a9.423 9.423 0 01-2.634-3.293C19.811 3.378 26.977.818 35.032 1.09c9.618.324 17.601 4.233 23.957 11.44.253.286.7.662.357 1.005-.428.428-.759-.097-1.05-.382-6.149-5.996-13.477-9.14-22.123-8.848-7.464.253-14.125 2.826-20.014 7.383v.006zM5.017 33.097c3.1 3.643 6.849 6.514 10.896 9.023 2.62 1.627 5.37 2.988 8.295 3.986.622.214.771.408.285.94-.973 1.07-1.907 2.171-2.847 3.267-.324.382-.649.505-1.129.266C13.591 47.143 7.32 42.89 2.936 36.344.938 33.363-.204 30.11.03 26.454c.058-.902.247-1.764.63-2.918-.053 2.075.252 3.76 1.316 5.231.707 1.653 1.803 3.04 3.041 4.317v.013zM1.846 36.13c1.096 1.75 2.27 3.423 3.645 4.953.311.343.324.79.434 1.199 2.497 9.392 7.776 16.548 16.771 20.71 1.544.712 3.159 1.23 4.787 1.71.415.124 1.226-.019 1.018.778-.188.694-.81.273-1.2.175-12.497-3.182-20.643-10.934-24.43-23.224a23.11 23.11 0 01-1.025-6.3z" fill="#707070"/><path d="M5.017 33.097c-1.245-1.283-2.335-2.664-3.041-4.317.395-2.12.843-4.22 1.68-6.404.745 1.44 1.44 2.761 2.328 3.967.207.279.09.538.013.817-.532 1.944-.818 3.934-.98 5.944v-.007zm168.115 30.186c-.253 1.024-.551 2.035-.739 3.066-.098.55-.376.648-.824.577-.577-.097-.266-.512-.201-.765.344-1.4.765-2.78 1.07-4.187.182-.856.772-.655 1.323-.694.746-.052.538.512.597.882.123.855.227 1.71.356 2.741.785-1.004 1.2-2.015 1.641-2.994.409-.92 1.116-.596 1.751-.584.305 0 .208.312.182.513-.188 1.503-.376 3.007-.558 4.51-.058.52-.35.643-.823.59-.681-.07-.318-.498-.292-.797.084-.92.415-1.82.253-3.027-.616 1.167-1.148 2.127-1.622 3.112-.22.46-.441.817-1.037.706-.649-.116-.441-.667-.506-1.037-.143-.862-.214-1.73-.312-2.599-.084 0-.175-.007-.259-.013zm-10.137 1.549c0-2.372 1.511-3.895 3.652-3.7 1.245.116 1.88.79 1.919 2.035.078 2.372-1.329 3.908-3.508 3.83-1.447-.052-2.063-.7-2.063-2.171v.006zm1.22-.162c.013 1.2.804 1.698 1.816 1.238.901-.408 1.55-1.886 1.29-2.949-.162-.687-.661-.894-1.297-.856-.94.059-1.595.862-1.764 2.127a5.977 5.977 0 00-.045.44zm42.453-.149c.766-.907 1.531-1.815 2.309-2.71.201-.233.363-.537.765-.537.448 0 .766-.033.617.622-.325 1.439-.571 2.904-.824 4.362-.091.519-.318.772-.869.674-.675-.123-.221-.55-.221-.842 0-.707.422-1.38.214-2.178-.622.214-.849.784-1.225 1.18-.474.499-.895 1.037-1.336 1.568a.793.793 0 01-.986.214c-.298-.143-.13-.531-.084-.797.259-1.42.583-2.826.804-4.252.091-.597.434-.577.836-.545.584.052.299.48.26.74-.123.816-.299 1.626-.454 2.436.065.02.136.04.201.065h-.007zm7.828.311c1.005-1.18 1.816-2.087 2.568-3.033.331-.415.727-.687 1.193-.486.5.22.13.68.072 1.017-.221 1.31-.5 2.612-.707 3.928-.084.558-.344.759-.869.668-.668-.117-.253-.583-.221-.85.098-.816.286-1.626.493-2.754-.966 1.134-1.731 2.042-2.516 2.936-.208.24-.357.57-.707.642-.473.097-.889.09-.752-.61.298-1.484.603-2.962.843-4.452.091-.57.415-.59.843-.558.61.04.298.46.266.713-.13.843-.299 1.673-.513 2.84h.007zm-15.721-1.4c.266.02.48.02.688.052 1.05.181 1.628-.188 1.608-1.316a1.8 1.8 0 01.123-.635c.163-.428.552-.253.85-.253.428 0 .279.305.234.544-.292 1.485-.604 2.963-.863 4.454-.097.55-.344.738-.869.648-.629-.11-.247-.545-.266-.85 0-.103.104-.226.078-.304-.156-.415.687-1.14-.299-1.258-.693-.084-1.666-.388-1.725.908-.019.389-.129.784-.22 1.167-.13.531-.571.35-.895.324-.396-.026-.266-.357-.221-.584.286-1.484.597-2.968.856-4.453.104-.596.454-.674.928-.59.622.117.253.545.22.837-.045.428-.142.849-.227 1.309zm-60.781-1.173c-.785-.182-1.089.13-1.174.92-.11 1.03-.415 2.042-.564 3.073-.078.564-.324.739-.849.68-.694-.078-.305-.544-.26-.81.227-1.38.519-2.755.759-4.135.084-.48.214-.765.811-.726 1.005.058 2.023.038 3.035 0 .545-.02.694.142.577.68a110.321 110.321 0 00-.83 4.343c-.097.57-.402.726-.902.629-.655-.123-.233-.564-.194-.85.136-.926.253-1.86.506-2.754.259-.914.077-1.303-.908-1.063l-.007.013zm46.17-.006c-.843-.201-1.122.188-1.213 1.004-.104.998-.409 1.977-.545 2.969-.078.544-.279.771-.83.707-.668-.085-.331-.545-.285-.824.233-1.38.544-2.754.771-4.142.085-.531.273-.726.818-.706.972.039 1.952.039 2.931 0 .564-.02.785.11.655.72a100.528 100.528 0 00-.837 4.349c-.09.538-.363.628-.823.596-.714-.052-.311-.532-.273-.79.137-.96.253-1.939.532-2.866.279-.94-.019-1.186-.908-1.024l.007.007zm-53.803-.973c1.401 0 1.973.692 1.718 2.075-.194 1.024-.441 2.041-.596 3.078-.078.532-.396.512-.772.506-.584-.02-.376-.44-.324-.706.175-1.031.415-2.049.577-3.086.045-.305.408-.927-.305-.868-.577.045-1.466-.539-1.712.518a40.515 40.515 0 00-.662 3.507c-.084.59-.389.732-.882.629-.59-.13-.279-.577-.227-.876.221-1.276.558-2.54.714-3.824.097-.804.408-1.05 1.174-.953.428.059.869.013 1.303.013l-.006-.013zm29.314 5.594c-2.147.344-1.492-1.737-2.471-2.437-.48.46-.435 1.115-.545 1.711-.091.493-.227.914-.882.79-.733-.135-.298-.602-.24-.907.221-1.315.493-2.618.72-3.928.084-.512.195-.913.856-.823.882.123.195.648.253.972.045.234-.032.493-.052.772 1.148-.46 1.557-2.197 3.243-1.66-.383.63-.954 1.057-1.505 1.465-.694.513-.733 1.018-.369 1.731.369.726.648 1.497.992 2.314zm29.002-.045c.798-1.783 1.771-3.455 2.698-5.16.312-.57.798-.356 1.233-.382.499-.02.421.395.467.693.22 1.42.441 2.846.655 4.265.045.311.175.674-.377.681-.408 0-.81.065-.797-.557.006-.357 0-.817-.532-.733-.642.104-1.518-.473-1.881.525-.259.713-.7.927-1.466.655v.013zm2.18-2.146c1.77.175 1.783.143 1.096-2.06-.39.725-.733 1.373-1.096 2.06zM142.45 66.79c.94-1.73 1.868-3.423 2.775-5.127.299-.57.798-.363 1.233-.37.48-.013.421.402.467.707.22 1.38.441 2.767.629 4.155.039.304.253.758-.383.784-.441.02-.772-.013-.785-.583-.006-.331 0-.81-.557-.707-.642.117-1.518-.447-1.868.545-.26.725-.694.913-1.511.602v-.006zm3.411-4.174c-.499.764-.921 1.354-1.077 2.106 1.025.056 1.384-.646 1.077-2.106zm-30.767-1.349c1.109.026 2.095-.09 2.289 1.173.175 1.174-.538 2.276-1.803 2.38-1.122.09-1.485.609-1.504 1.574-.02.63-.448.558-.837.525-.583-.051-.305-.486-.259-.739.201-1.173.493-2.327.648-3.506.137-1.03.415-1.757 1.473-1.407h-.007zm-.396 2.042c-.11.421-.162.726.286.733.739.013 1.115-.415 1.206-1.109.058-.473-.188-.726-.668-.771-1.083-.104-.603.83-.817 1.147h-.007zm10.384-2.016c-.934 1.848-1.868 3.494-2.99 5.037-.396.544-.979.726-1.628.654-.207-.02-.564.091-.525-.343.026-.292.065-.59.467-.597 1.122-.019 1.07-.635.81-1.458-.272-.856-.473-1.73-.674-2.606-.059-.252-.389-.68.233-.693.351-.007.805-.195.902.453.11.74.318 1.465.486 2.217 1.304-.518.772-2.832 2.919-2.67v.006zm-15.974-.013c.499 0 .824-.006 1.155 0 .239.007.544-.065.505.35-.026.311-.11.636-.493.551-1.686-.382-1.725.797-1.887 1.906-.11.745-.318 1.478-.408 2.23-.065.531-.338.648-.798.615-.688-.045-.357-.505-.305-.79.188-1.135.506-2.256.61-3.397.11-1.186.506-1.828 1.628-1.471l-.007.006zm108.968-1.627c-.292 1.141-1.479 1.724-2.484 1.212a.975.975 0 01-.558-.862c-.013-.181 0-.363.24-.401.383-.065.629-.007.83.427.188.415.668.311.876-.032.292-.48.648-.486 1.089-.344h.007zM12.767.286c.091-.142.201-.389.37-.24.143.13-.097.273-.214.376l-.156-.136z" fill="#707070"/></svg>