<svg width="264" height="78" fill="none" xmlns="http://www.w3.org/2000/svg"><path d="M133.164 27.627h26.616c.372 0 .752-.008 1.125.007 3.576.194 5.655 2.727 4.776 6.17a749.573 749.573 0 01-5.559 20.513c-.931 3.278-4.888 5.946-8.449 5.96-6.334.016-12.667.03-18.993-.022-.954-.007-1.379.224-1.617 1.17-.611 2.482-.656 2.474-3.167 2.474-3.621 0-7.25-.022-10.871.015-.872.007-1.177-.127-.894-1.103.73-2.51.685-2.526-1.967-2.526H96.542c-3.98 0-5.872-2.287-4.873-6.14a914.502 914.502 0 015.528-20.393c.977-3.45 4.911-6.118 8.718-6.118 6.416 0 12.831.023 19.247.038h7.995v-.038l.007-.007zm4.702 28.173h3.74c2.616 0 4.195-1.2 4.881-3.726a3999.03 3999.03 0 004.418-16.422c.544-2.042-.506-3.458-2.63-3.487-2.787-.038-5.573.007-8.36-.023-.619-.007-.872.201-1.013.783-.299 1.244-.679 2.473-1.014 3.71-1.661 6.066-3.308 12.138-4.992 18.196-.209.76-.134 1.02.723.984 1.408-.067 2.824-.015 4.239-.015h.008zm-13.293-23.688h-8.606c-2.683.008-4.24 1.23-4.94 3.83-1.438 5.358-2.876 10.715-4.314 16.065-.656 2.437.342 3.77 2.876 3.785 2.451.015 4.91-.03 7.361.023.842.022 1.208-.18 1.439-1.066 1.095-4.247 2.287-8.472 3.442-12.704.894-3.264 1.803-6.535 2.742-9.94v.008zM233.71 60.248c-4.955 0-9.91 0-14.865-.007-.663 0-1.334-.06-1.982-.179-3.048-.551-4.746-3.07-3.964-6.058a1223.33 1223.33 0 015.38-19.91c1.073-3.837 4.657-6.46 8.658-6.46 10.364-.014 20.736-.014 31.101 0 3.927 0 5.782 2.251 4.806 6.073-1.654 6.46-3.517 12.868-5.171 19.329-1.028 4.008-3.681 6.14-7.503 7.115-.515.135-1.073.142-1.61.142-4.955.008-9.91 0-14.865 0v-.037l.015-.008zm.976-4.448h3.495c3.07 0 4.523-1.08 5.312-3.994 1.446-5.357 2.877-10.722 4.307-16.08.566-2.123-.454-3.531-2.638-3.561-2.831-.03-5.662-.037-8.494 0-2.131.03-3.845 1.349-4.396 3.405a2563.61 2563.61 0 00-4.486 16.81c-.558 2.131.395 3.345 2.646 3.413 1.415.037 2.831.007 4.247.007h.007z" fill="#065E27"/><path d="M183.437 40.353c2.593-1.467 4.97-2.809 7.34-4.157 4.694-2.668 9.396-5.328 14.082-8.003.634-.365 1.26-.544 1.997-.536 2.727.037 5.455.015 8.264.015-.291.566-.768.678-1.14.894-4.814 2.794-9.627 5.58-14.478 8.323-.805.454-.879.79-.425 1.58 3.927 6.832 7.809 13.687 11.706 20.542.216.388.425.782.708 1.319h-9.232c-1.751 0-3.502-.045-5.246.022-.775.03-1.169-.253-1.542-.916-2.675-4.776-5.417-9.515-8.084-14.299-.425-.752-.731-.901-1.483-.44-1.409.872-3.249 1.35-4.21 2.556-.932 1.163-.991 3.025-1.423 4.583-.693 2.518-1.394 5.037-2.042 7.563-.186.715-.499.968-1.267.96-4.165-.044-8.33-.036-12.495 0-.842 0-1.043-.118-.797-1.027a7336.996 7336.996 0 008.36-30.833c.171-.641.417-.94 1.17-.924 2.414.06 4.828.022 7.249.022.373 0 .753.015 1.126.06 3.405.402 4.642 2.205 3.777 5.521-.603 2.317-1.237 4.627-1.915 7.183v-.008z" fill="#075F27"/><path d="M51.261 46.262c1.14-1.34 2.288-2.645 3.383-3.993.395-.492.887-.38 1.363-.38 6.207 0 12.414-.03 18.62.022.977.007 1.394-.276 1.588-1.222.305-1.46.738-2.891 1.125-4.33.73-2.764-.23-3.986-3.13-3.986H48.93c1.311-1.542 2.481-2.943 3.673-4.329.246-.29.626-.156.947-.156 11.161.007 22.323 0 33.492.044 3.756.015 5.961 2.765 5.015 6.409a1047.668 1047.668 0 01-5.41 20.043c-.901 3.227-4.671 6.125-8.054 6.14-12.332.052-24.663.015-36.995.015-.067 0-.134-.052-.343-.127 1.17-1.386 2.318-2.727 3.435-4.083.403-.484.924-.298 1.394-.298 7.331-.015 14.663-.008 21.995-.008 2.854 0 4.247-1.08 4.993-3.867.417-1.557.775-3.137 1.281-4.672.313-.939-.022-1.028-.827-1.02-6.96.022-13.911.014-20.87 0-.44 0-.91.149-1.409-.187l.015-.015zm-8.83-7.458c-1.974 2.295-3.874 4.53-5.796 6.75-.73.842-1.386 2.139-2.28 2.347-.895.21-2.064-.64-3.085-1.095-7.906-3.472-15.245-7.801-21.147-14.231-2.518-2.75-4.552-5.812-5.685-9.411-1.214-3.86-1.036-7.6.924-11.207.425-.79.835-1.587 1.364-2.384-.172 2.69.499 5.141 1.892 7.525.872-1.102 1.707-2.138 2.63-3.308.723 1.423 1.431 2.683 2.348 3.808.283.35.149.58-.075.857-.395.484-.73 1.02-1.17 1.46-.909.909-.678 1.542.194 2.407 6.639 6.616 14.649 10.968 23.315 14.254 2.093.79 4.247 1.438 6.579 2.22l-.008.008z" fill="#075F28"/><path d="M14.847.505c-1.825 3.212-1.356 6.252.686 9.172a10.915 10.915 0 003.025 3.786c2.422 2.809 5.454 4.836 8.584 6.743 4.06 2.481 8.367 4.426 12.898 5.879 1.028.328 1.17.648.41 1.43-1.245 1.282-2.43 2.616-3.637 3.935-.305.335-.61.499-1.088.29-8.747-3.792-17.003-8.293-22.562-16.407-2.235-3.264-3.397-6.855-1.862-10.812.67-1.728 1.661-3.248 3.368-4.172l.178.156z" fill="#A4A5A2"/><path d="M18.566 13.463a10.83 10.83 0 01-3.025-3.785C22.76 3.902 30.993.96 40.248 1.273c11.05.372 20.223 4.865 27.525 13.15.29.329.805.76.41 1.156-.492.492-.872-.112-1.207-.44C59.912 8.247 51.492 4.633 41.56 4.97c-8.576.29-16.229 3.248-22.994 8.486v.008z" fill="#0A612A"/><path d="M5.764 38.066c3.562 4.188 7.869 7.488 12.518 10.372 3.01 1.87 6.17 3.435 9.53 4.583.716.245.887.469.328 1.08-1.117 1.23-2.19 2.496-3.27 3.755-.373.44-.746.582-1.297.306-7.958-3.95-15.163-8.837-20.2-16.363C1.078 38.372-.234 34.631.035 30.43c.067-1.036.283-2.027.722-3.353-.06 2.384.29 4.321 1.513 6.013.812 1.9 2.071 3.494 3.494 4.962v.015z" fill="#A4A5A2"/><path d="M2.12 41.553c1.26 2.012 2.609 3.934 4.188 5.693.358.395.373.909.5 1.378 2.868 10.797 8.934 19.023 19.268 23.807 1.774.82 3.629 1.416 5.5 1.967.476.142 1.407-.022 1.17.894-.217.797-.932.313-1.38.201C17.009 71.835 7.65 62.923 3.299 48.796a26.578 26.578 0 01-1.177-7.243z" fill="#0D632D"/><path d="M5.765 38.066c-1.431-1.475-2.683-3.063-3.495-4.963.455-2.436.969-4.85 1.93-7.361.857 1.654 1.654 3.174 2.675 4.56.238.32.104.618.015.939-.611 2.235-.94 4.523-1.125 6.832v-.007z" fill="#0A612A"/><path d="M198.913 72.766c-.29 1.177-.633 2.34-.849 3.525-.112.633-.432.745-.947.663-.663-.112-.305-.589-.231-.88.395-1.609.88-3.196 1.23-4.813.209-.983.887-.752 1.52-.797.857-.06.618.588.685 1.013.142.984.261 1.967.41 3.152.902-1.155 1.379-2.317 1.885-3.442.47-1.058 1.282-.686 2.012-.671.35 0 .239.358.209.589-.216 1.728-.432 3.457-.641 5.186-.067.596-.402.737-.946.678-.783-.082-.365-.574-.336-.917.097-1.058.477-2.094.291-3.48-.708 1.342-1.319 2.444-1.863 3.577-.253.53-.506.939-1.192.812-.745-.134-.507-.767-.581-1.192-.164-.991-.246-1.99-.358-2.988-.097 0-.201-.007-.298-.015z" fill="#126631"/><path d="M187.267 74.547c0-2.727 1.736-4.478 4.195-4.255 1.43.134 2.161.91 2.205 2.34.09 2.727-1.527 4.493-4.031 4.403-1.661-.06-2.369-.804-2.369-2.496v.008zm1.401-.187c.015 1.379.924 1.953 2.086 1.424 1.036-.47 1.781-2.169 1.483-3.39-.187-.79-.76-1.029-1.49-.984-1.081.067-1.833.99-2.027 2.444-.03.2-.045.41-.052.506zm48.775-.17a264.687 264.687 0 012.653-3.115c.231-.268.417-.619.879-.619.514 0 .879-.037.708.716-.373 1.654-.656 3.338-.946 5.014-.105.596-.365.887-.999.775-.775-.141-.253-.633-.253-.968 0-.813.484-1.587.246-2.504-.716.246-.976.902-1.409 1.356-.544.574-1.028 1.192-1.535 1.803a.91.91 0 01-1.132.246c-.343-.164-.149-.61-.097-.916.298-1.632.671-3.249.924-4.888.104-.686.499-.663.961-.626.671.06.343.551.298.85-.141.938-.343 1.87-.521 2.8.074.023.156.046.231.075h-.008zm8.994.357c1.155-1.356 2.086-2.4 2.95-3.487.38-.477.835-.79 1.371-.559.574.253.149.782.082 1.17-.253 1.505-.573 3.003-.812 4.515-.097.641-.395.872-.998.768-.768-.134-.291-.67-.254-.976.112-.94.328-1.87.567-3.167-1.111 1.304-1.99 2.347-2.891 3.375-.239.276-.41.656-.813.738-.544.112-1.02.104-.864-.7.343-1.707.693-3.406.969-5.12.104-.655.477-.677.968-.64.701.044.343.529.306.82-.149.968-.343 1.922-.589 3.263h.008z" fill="#136732"/><path d="M228.375 72.937c.306.023.552.023.79.06 1.207.209 1.87-.216 1.848-1.513 0-.245.052-.499.141-.73.187-.492.634-.29.977-.29.491 0 .32.35.268.626-.336 1.706-.693 3.405-.991 5.118-.112.634-.395.85-.999.746-.722-.127-.283-.626-.305-.977 0-.119.119-.26.089-.35-.179-.477.79-1.311-.343-1.445-.797-.097-1.914-.447-1.982 1.043-.022.447-.149.901-.253 1.341-.149.611-.656.402-1.028.373-.455-.03-.306-.41-.253-.671.327-1.706.685-3.413.983-5.119.119-.685.522-.775 1.066-.678.715.134.29.626.253.961-.052.492-.164.976-.261 1.505z" fill="#166834"/><path d="M158.543 71.589c-.902-.209-1.252.15-1.349 1.058-.126 1.185-.477 2.347-.648 3.532-.089.648-.372.85-.976.782-.797-.09-.35-.626-.298-.931.261-1.587.596-3.167.872-4.754.097-.551.246-.88.931-.834 1.155.067 2.325.044 3.487 0 .626-.023.798.164.663.782a128.11 128.11 0 00-.953 4.992c-.112.656-.462.835-1.036.723-.753-.142-.268-.648-.224-.976.157-1.066.291-2.139.582-3.167.298-1.05.089-1.498-1.044-1.222l-.007.015z" fill="#136732"/><path d="M211.588 71.582c-.969-.231-1.29.216-1.394 1.155-.119 1.147-.469 2.272-.626 3.412-.089.626-.32.887-.953.812-.768-.097-.381-.626-.328-.946.268-1.587.626-3.167.886-4.761.097-.611.313-.835.939-.813a42.03 42.03 0 003.368 0c.648-.022.902.127.753.828-.351 1.661-.686 3.33-.962 5-.104.618-.417.722-.946.685-.819-.06-.357-.611-.313-.91.157-1.102.291-2.227.611-3.293.321-1.08-.022-1.363-1.043-1.177l.008.008zm-61.815-1.118c1.609 0 2.267.795 1.974 2.384-.223 1.178-.506 2.347-.685 3.54-.09.61-.455.588-.887.58-.671-.022-.432-.506-.373-.811.202-1.185.477-2.355.664-3.547.052-.35.469-1.066-.351-.998-.663.052-1.684-.619-1.967.596a46.342 46.342 0 00-.76 4.03c-.097.679-.447.843-1.013.723-.678-.149-.32-.663-.261-1.005.254-1.468.641-2.921.82-4.397.112-.924.469-1.207 1.348-1.095.492.067.999.015 1.498.015l-.007-.015z" fill="#126631"/><path d="M183.452 76.894c-2.466.395-1.714-1.997-2.839-2.802-.551.53-.499 1.282-.626 1.967-.104.567-.261 1.051-1.013.91-.842-.157-.343-.694-.276-1.044.253-1.512.566-3.01.827-4.515.097-.589.224-1.05.984-.946 1.013.141.223.745.29 1.117.052.269-.037.567-.059.887 1.319-.53 1.788-2.526 3.725-1.907-.439.722-1.095 1.214-1.728 1.683-.798.59-.842 1.17-.425 1.99.425.834.745 1.721 1.14 2.66z" fill="#166834"/><path d="M216.773 76.842c.917-2.049 2.035-3.971 3.1-5.93.358-.657.917-.41 1.416-.44.574-.023.484.454.536.797.254 1.631.507 3.27.753 4.903.052.357.201.775-.432.782-.47 0-.932.075-.917-.64.008-.41 0-.94-.611-.843-.737.12-1.743-.544-2.161.604-.298.82-.804 1.065-1.684.752v.015zm2.504-2.466c2.034.201 2.049.164 1.259-2.37-.447.835-.842 1.58-1.259 2.37z" fill="#136732"/><path d="M163.662 76.797c1.08-1.99 2.146-3.934 3.189-5.894.343-.655.916-.417 1.416-.424.551-.015.484.462.536.812.254 1.587.507 3.181.723 4.776.045.35.291.872-.44.902-.506.022-.886-.015-.901-.671-.008-.38 0-.931-.641-.812-.738.134-1.744-.514-2.146.626-.298.834-.797 1.05-1.736.693v-.008zM167.581 72c-.574.879-1.058 1.557-1.237 2.421 1.178.065 1.59-.742 1.237-2.421zm-35.348-1.551c1.274.03 2.407-.104 2.63 1.349.201 1.348-.618 2.615-2.071 2.734-1.289.105-1.707.7-1.729 1.81-.022.724-.514.642-.961.604-.671-.06-.35-.558-.298-.849.231-1.349.566-2.675.745-4.031.156-1.185.477-2.02 1.691-1.617h-.007zm-.455 2.347c-.126.484-.186.835.328.842.85.015 1.282-.477 1.386-1.274.067-.544-.216-.835-.767-.887-1.245-.119-.693.954-.939 1.32h-.008zm11.93-2.317c-1.073 2.123-2.146 4.016-3.435 5.79-.455.625-1.126.834-1.871.752-.238-.023-.648.104-.603-.395.03-.335.074-.678.536-.686 1.289-.022 1.23-.73.932-1.676-.313-.984-.544-1.99-.775-2.995-.067-.291-.447-.783.268-.798.402-.007.924-.223 1.036.522.126.85.365 1.684.559 2.548 1.497-.596.886-3.256 3.353-3.07v.008zm-18.353-.015c.574 0 .946-.008 1.326 0 .276.007.626-.075.582.402-.03.358-.127.73-.567.633-1.937-.44-1.982.917-2.168 2.191-.127.857-.365 1.699-.469 2.563-.075.611-.388.745-.917.708-.79-.052-.41-.581-.35-.909.216-1.304.581-2.593.7-3.904.127-1.364.582-2.102 1.871-1.692l-.008.008z" fill="#126631"/><path d="M250.55 68.594c-.336 1.311-1.699 1.982-2.854 1.393-.403-.209-.619-.544-.641-.991-.015-.209 0-.417.276-.462.439-.075.722-.007.953.492.216.477.768.358 1.006-.037.336-.552.745-.56 1.252-.395h.008z" fill="#166834"/><path d="M14.668.348c.105-.163.231-.447.425-.275.164.149-.112.313-.246.432L14.67.348z" fill="#A4A5A2"/></svg>