<svg width="264" height="78" fill="none" xmlns="http://www.w3.org/2000/svg"><path d="M133.164 27.607h26.616c.372 0 .752-.007 1.125.008 3.576.194 5.655 2.727 4.776 6.17a749.58 749.58 0 01-5.559 20.512c-.931 3.279-4.888 5.946-8.449 5.961-6.334.015-12.667.03-18.993-.022-.954-.008-1.379.224-1.617 1.17-.611 2.481-.656 2.474-3.167 2.474-3.621 0-7.25-.023-10.871.014-.872.008-1.177-.126-.894-1.102.73-2.511.685-2.526-1.967-2.526H96.542c-3.98 0-5.872-2.288-4.873-6.14a914.502 914.502 0 015.528-20.394c.977-3.45 4.911-6.117 8.718-6.117 6.416 0 12.831.022 19.247.037h7.995v-.037l.007-.008zm4.702 28.173h3.74c2.616 0 4.195-1.2 4.881-3.725a3994.77 3994.77 0 004.418-16.423c.544-2.041-.506-3.457-2.63-3.487-2.787-.037-5.573.008-8.36-.022-.619-.008-.872.2-1.013.782-.299 1.244-.679 2.474-1.014 3.71-1.661 6.066-3.308 12.139-4.992 18.197-.209.76-.134 1.02.723.983 1.408-.067 2.824-.015 4.239-.015h.008zm-13.293-23.687h-8.606c-2.683.007-4.24 1.23-4.94 3.83-1.438 5.357-2.876 10.715-4.314 16.064-.656 2.437.342 3.77 2.876 3.786 2.451.015 4.91-.03 7.361.022.842.022 1.208-.179 1.439-1.066 1.095-4.247 2.287-8.471 3.442-12.704.894-3.263 1.803-6.534 2.742-9.94v.008zM233.71 60.229c-4.955 0-9.91 0-14.865-.008-.663 0-1.334-.06-1.982-.178-3.048-.552-4.746-3.07-3.964-6.058a1223.34 1223.34 0 015.38-19.91c1.073-3.837 4.657-6.46 8.658-6.46 10.364-.015 20.736-.015 31.101 0 3.927 0 5.782 2.25 4.806 6.073-1.654 6.46-3.517 12.868-5.171 19.328-1.028 4.009-3.681 6.14-7.503 7.116-.515.134-1.073.142-1.61.142-4.955.007-9.91 0-14.865 0v-.038l.015-.007zm.976-4.448h3.495c3.07 0 4.523-1.08 5.312-3.994 1.446-5.358 2.877-10.722 4.307-16.08.566-2.123-.454-3.532-2.638-3.562-2.831-.03-5.662-.037-8.494 0-2.131.03-3.845 1.35-4.396 3.406a2546.868 2546.868 0 00-4.486 16.81c-.558 2.13.395 3.345 2.646 3.412 1.415.037 2.831.008 4.247.008h.007zm-51.249-15.447c2.593-1.468 4.97-2.81 7.34-4.158 4.694-2.667 9.396-5.327 14.082-8.002.634-.365 1.26-.544 1.997-.537 2.727.037 5.455.015 8.264.015-.291.566-.768.678-1.14.894a1463.468 1463.468 0 01-14.478 8.323c-.805.455-.879.79-.425 1.58 3.927 6.833 7.809 13.688 11.706 20.543.216.387.425.782.708 1.319h-9.232c-1.751 0-3.502-.045-5.246.022-.775.03-1.169-.253-1.542-.917-2.675-4.776-5.417-9.515-8.084-14.298-.425-.753-.731-.902-1.483-.44-1.409.872-3.249 1.349-4.21 2.556-.932 1.162-.991 3.025-1.423 4.582-.693 2.519-1.394 5.037-2.042 7.563-.186.715-.499.969-1.267.961a634.67 634.67 0 00-12.495 0c-.842 0-1.043-.119-.797-1.028a7336.95 7336.95 0 008.36-30.833c.171-.64.417-.939 1.17-.924 2.414.06 4.828.023 7.249.023.373 0 .753.015 1.126.06 3.405.401 4.642 2.205 3.777 5.52-.603 2.318-1.237 4.628-1.915 7.183v-.007zM51.261 46.243c1.14-1.341 2.288-2.645 3.383-3.994.395-.492.887-.38 1.363-.38 6.207 0 12.414-.03 18.62.022.977.008 1.394-.275 1.588-1.222.305-1.46.738-2.89 1.125-4.329.73-2.764-.23-3.986-3.13-3.986H48.93c1.311-1.543 2.481-2.943 3.673-4.33.246-.29.626-.156.947-.156 11.161.008 22.323 0 33.492.045 3.756.015 5.961 2.764 5.015 6.408a1047.668 1047.668 0 01-5.41 20.044c-.901 3.226-4.671 6.124-8.054 6.14-12.332.051-24.663.014-36.995.014-.067 0-.134-.052-.343-.126 1.17-1.386 2.318-2.727 3.435-4.084.403-.484.924-.298 1.394-.298 7.331-.015 14.663-.007 21.995-.007 2.854 0 4.247-1.08 4.993-3.867.417-1.558.775-3.137 1.281-4.672.313-.939-.022-1.028-.827-1.021-6.96.022-13.911.015-20.87 0-.44 0-.91.149-1.409-.186l.015-.015zm-8.83-7.459c-1.974 2.295-3.874 4.53-5.796 6.75-.73.843-1.386 2.14-2.28 2.348-.895.209-2.064-.64-3.085-1.095-7.906-3.473-15.245-7.802-21.147-14.232-2.518-2.75-4.552-5.812-5.685-9.41-1.214-3.86-1.036-7.601.924-11.207.425-.79.835-1.588 1.364-2.385-.172 2.69.499 5.141 1.892 7.526.872-1.103 1.707-2.139 2.63-3.308.723 1.423 1.431 2.682 2.348 3.807.283.35.149.581-.075.857-.395.484-.73 1.02-1.17 1.46-.909.91-.678 1.543.194 2.407C19.184 28.92 27.194 33.27 35.86 36.556c2.093.79 4.247 1.438 6.579 2.22l-.008.008z" fill="#707070"/><path d="M14.847.486c-1.825 3.211-1.356 6.251.686 9.172a10.914 10.914 0 003.025 3.785c2.422 2.81 5.454 4.836 8.584 6.743 4.06 2.482 8.367 4.426 12.898 5.88 1.028.327 1.17.648.41 1.43-1.245 1.282-2.43 2.615-3.637 3.934-.305.335-.61.5-1.088.29-8.747-3.792-17.003-8.292-22.562-16.407-2.235-3.263-3.397-6.855-1.862-10.811.67-1.729 1.661-3.249 3.368-4.173l.178.157z" fill="#707070"/><path d="M18.566 13.443a10.83 10.83 0 01-3.025-3.785C22.76 3.883 30.993.94 40.248 1.253c11.05.373 20.223 4.866 27.525 13.151.29.328.805.76.41 1.155-.492.492-.872-.111-1.207-.44C59.912 8.228 51.492 4.615 41.56 4.95c-8.576.29-16.229 3.249-22.994 8.487v.007zM5.764 38.047c3.562 4.187 7.869 7.488 12.518 10.372 3.01 1.87 6.17 3.435 9.53 4.582.716.246.887.47.328 1.08-1.117 1.23-2.19 2.497-3.27 3.756-.373.44-.746.581-1.297.305-7.958-3.949-15.163-8.837-20.2-16.362C1.078 38.352-.234 34.612.035 30.41c.067-1.037.283-2.027.722-3.354-.06 2.384.29 4.322 1.513 6.013.812 1.9 2.071 3.495 3.494 4.963v.015zM2.12 41.534c1.26 2.011 2.609 3.934 4.188 5.692.358.395.373.91.5 1.379 2.868 10.797 8.934 19.023 19.268 23.806 1.774.82 3.629 1.416 5.5 1.967.476.142 1.407-.022 1.17.894-.217.798-.932.313-1.38.202C17.009 71.815 7.65 62.904 3.299 48.776a26.579 26.579 0 01-1.177-7.242z" fill="#707070"/><path d="M5.765 38.046c-1.431-1.475-2.683-3.062-3.495-4.962.455-2.437.969-4.85 1.93-7.362.857 1.654 1.654 3.174 2.675 4.56.238.32.104.619.015.94-.611 2.234-.94 4.522-1.125 6.832v-.008zm193.148 34.701c-.29 1.177-.633 2.34-.849 3.524-.112.633-.432.745-.947.663-.663-.111-.305-.588-.231-.879.395-1.61.88-3.197 1.23-4.813.209-.984.887-.753 1.52-.798.857-.06.618.589.685 1.014.142.983.261 1.967.41 3.151.902-1.154 1.379-2.317 1.885-3.442.47-1.058 1.282-.685 2.012-.67.35 0 .239.357.209.588-.216 1.729-.432 3.457-.641 5.186-.067.596-.402.738-.946.678-.783-.082-.365-.574-.336-.916.097-1.058.477-2.094.291-3.48-.708 1.341-1.319 2.444-1.863 3.576-.253.53-.506.94-1.192.813-.745-.134-.507-.768-.581-1.192-.164-.992-.246-1.99-.358-2.988-.097 0-.201-.008-.298-.015zm-11.646 1.78c0-2.727 1.736-4.478 4.195-4.254 1.43.134 2.161.909 2.205 2.34.09 2.726-1.527 4.492-4.031 4.403-1.661-.06-2.369-.805-2.369-2.496v.007zm1.401-.186c.015 1.378.924 1.952 2.086 1.423 1.036-.47 1.781-2.168 1.483-3.39-.187-.79-.76-1.028-1.49-.984-1.081.067-1.833.991-2.027 2.444-.03.201-.045.41-.052.507zm48.775-.171a263.875 263.875 0 012.653-3.115c.231-.268.417-.618.879-.618.514 0 .879-.037.708.715-.373 1.654-.656 3.338-.946 5.015-.105.596-.365.886-.999.775-.775-.142-.253-.634-.253-.969 0-.812.484-1.587.246-2.504-.716.246-.976.902-1.409 1.357-.544.573-1.028 1.192-1.535 1.803a.91.91 0 01-1.132.246c-.343-.164-.149-.611-.097-.917.298-1.632.671-3.249.924-4.888.104-.685.499-.663.961-.626.671.06.343.552.298.85-.141.939-.343 1.87-.521 2.801.074.023.156.045.231.075h-.008zm8.994.358c1.155-1.357 2.086-2.4 2.95-3.488.38-.477.835-.79 1.371-.559.574.254.149.783.082 1.17-.253 1.505-.573 3.003-.812 4.516-.097.64-.395.871-.998.767-.768-.134-.291-.67-.254-.976.112-.939.328-1.87.567-3.167-1.111 1.304-1.99 2.347-2.891 3.376-.239.275-.41.655-.813.737-.544.112-1.02.105-.864-.7.343-1.706.693-3.405.969-5.119.104-.656.477-.678.968-.64.701.044.343.528.306.819-.149.969-.343 1.922-.589 3.264h.008zm-18.062-1.61c.306.022.552.022.79.06 1.207.208 1.87-.217 1.848-1.513 0-.246.052-.5.141-.73.187-.492.634-.29.977-.29.491 0 .32.35.268.625-.336 1.706-.693 3.405-.991 5.119-.112.633-.395.85-.999.745-.722-.127-.283-.626-.305-.976 0-.12.119-.26.089-.35-.179-.477.79-1.312-.343-1.446-.797-.097-1.914-.447-1.982 1.043-.022.447-.149.902-.253 1.341-.149.611-.656.403-1.028.373-.455-.03-.306-.41-.253-.67.327-1.707.685-3.413.983-5.12.119-.685.522-.774 1.066-.678.715.135.29.626.253.962-.052.492-.164.976-.261 1.505zm-69.832-1.348c-.902-.21-1.252.149-1.349 1.058-.126 1.184-.477 2.347-.648 3.531-.089.649-.372.85-.976.783-.797-.09-.35-.626-.298-.932.261-1.587.596-3.166.872-4.753.097-.552.246-.88.931-.835 1.155.067 2.325.045 3.487 0 .626-.022.798.164.663.782a128.11 128.11 0 00-.953 4.993c-.112.655-.462.834-1.036.722-.753-.141-.268-.648-.224-.976.157-1.065.291-2.138.582-3.166.298-1.051.089-1.498-1.044-1.222l-.007.014zm53.045-.008c-.969-.23-1.29.216-1.394 1.155-.119 1.147-.469 2.273-.626 3.413-.089.626-.32.886-.953.812-.768-.097-.381-.626-.328-.946.268-1.588.626-3.167.886-4.762.097-.61.313-.834.939-.812a42.03 42.03 0 003.368 0c.648-.022.902.127.753.827-.351 1.662-.686 3.33-.962 5-.104.618-.417.723-.946.685-.819-.06-.357-.61-.313-.909.157-1.103.291-2.228.611-3.293.321-1.08-.022-1.364-1.043-1.177l.008.007zm-61.815-1.117c1.609 0 2.267.794 1.974 2.384-.223 1.177-.506 2.347-.685 3.54-.09.61-.455.588-.887.58-.671-.022-.432-.506-.373-.812.202-1.185.477-2.354.664-3.547.052-.35.469-1.065-.351-.998-.663.052-1.684-.618-1.967.596a46.352 46.352 0 00-.76 4.031c-.097.678-.447.842-1.013.723-.678-.15-.32-.663-.261-1.006.254-1.468.641-2.92.82-4.396.112-.924.469-1.207 1.348-1.096.492.067.999.015 1.498.015l-.007-.014zm33.679 6.429c-2.466.395-1.714-1.996-2.839-2.801-.551.529-.499 1.281-.626 1.967-.104.566-.261 1.05-1.013.909-.842-.157-.343-.693-.276-1.043.253-1.513.566-3.01.827-4.516.097-.588.224-1.05.984-.946 1.013.142.223.745.29 1.118.052.268-.037.566-.059.886 1.319-.529 1.788-2.525 3.725-1.907-.439.723-1.095 1.215-1.728 1.684-.798.589-.842 1.17-.425 1.99.425.834.745 1.72 1.14 2.66zm33.321-.051c.917-2.05 2.035-3.972 3.1-5.931.358-.656.917-.41 1.416-.44.574-.022.484.454.536.797.254 1.632.507 3.271.753 4.903.052.358.201.775-.432.782-.47 0-.932.075-.917-.64.008-.41 0-.94-.611-.842-.737.119-1.743-.544-2.161.603-.298.82-.804 1.066-1.684.753v.015zm2.504-2.467c2.034.202 2.049.164 1.259-2.37-.447.835-.842 1.58-1.259 2.37zm-55.615 2.422c1.08-1.99 2.146-3.934 3.189-5.894.343-.656.916-.417 1.416-.425.551-.015.484.462.536.812.254 1.587.507 3.182.723 4.776.045.35.291.872-.44.902-.506.022-.886-.015-.901-.67-.008-.38 0-.932-.641-.813-.738.134-1.744-.514-2.146.626-.298.835-.797 1.05-1.736.693v-.007zm3.919-4.799c-.574.88-1.058 1.558-1.237 2.422 1.178.064 1.59-.743 1.237-2.422zm-35.348-1.549c1.274.03 2.407-.105 2.63 1.348.201 1.349-.618 2.615-2.071 2.735-1.289.104-1.707.7-1.729 1.81-.022.723-.514.641-.961.604-.671-.06-.35-.559-.298-.85.231-1.348.566-2.674.745-4.03.156-1.185.477-2.02 1.691-1.617h-.007zm-.455 2.347c-.126.484-.186.834.328.842.85.014 1.282-.477 1.386-1.275.067-.543-.216-.834-.767-.886-1.245-.12-.693.954-.939 1.319h-.008zm11.93-2.317c-1.073 2.123-2.146 4.015-3.435 5.789-.455.626-1.126.834-1.871.752-.238-.022-.648.105-.603-.395.03-.335.074-.678.536-.685 1.289-.023 1.23-.73.932-1.677-.313-.983-.544-1.99-.775-2.995-.067-.29-.447-.782.268-.797.402-.008.924-.224 1.036.521.126.85.365 1.684.559 2.549 1.497-.597.886-3.257 3.353-3.07v.007zm-18.353-.016c.574 0 .946-.007 1.326 0 .276.008.626-.074.582.403-.03.357-.127.73-.567.633-1.937-.44-1.982.916-2.168 2.19-.127.857-.365 1.7-.469 2.564-.075.61-.388.745-.917.708-.79-.053-.41-.582-.35-.91.216-1.303.581-2.593.7-3.904.127-1.364.582-2.101 1.871-1.691l-.008.007zm125.195-1.87c-.336 1.311-1.699 1.982-2.854 1.394-.403-.21-.619-.544-.641-.992-.015-.208 0-.417.276-.462.439-.074.722-.007.953.492.216.477.768.358 1.006-.037.336-.551.745-.559 1.252-.395h.008zM14.668.329c.105-.164.231-.447.425-.276.164.15-.112.313-.246.432L14.67.33z" fill="#707070"/></svg>