<svg width="264" height="78" viewBox="0 0 264 78" fill="none" xmlns="http://www.w3.org/2000/svg">
<path d="M133.164 27.6269C142.038 27.6269 150.913 27.6269 159.78 27.6269C160.152 27.6269 160.532 27.6194 160.905 27.6343C164.481 27.828 166.56 30.3614 165.681 33.8039C163.93 40.6664 162.067 47.5065 160.122 54.3169C159.191 57.5954 155.234 60.2629 151.673 60.2778C145.339 60.2927 139.006 60.3076 132.68 60.2555C131.726 60.248 131.301 60.479 131.063 61.4253C130.452 63.9065 130.407 63.8991 127.896 63.8991C124.275 63.8991 120.646 63.8767 117.025 63.914C116.153 63.9214 115.848 63.7873 116.131 62.8112C116.861 60.3002 116.816 60.2853 114.164 60.2853C108.292 60.2853 102.421 60.2853 96.5417 60.2853C92.5628 60.2853 90.6702 57.9978 91.6687 54.1455C93.4346 47.3277 95.275 40.5248 97.1974 33.7517C98.1735 30.3018 102.108 27.6343 105.915 27.6343C112.331 27.6343 118.746 27.6567 125.162 27.6716C127.829 27.6716 130.489 27.6716 133.157 27.6716C133.157 27.6567 133.157 27.6418 133.157 27.6343L133.164 27.6269ZM137.866 55.7997C139.11 55.7997 140.362 55.7997 141.606 55.7997C144.222 55.7997 145.801 54.6 146.487 52.0741C147.97 46.6049 149.445 41.1283 150.905 35.6518C151.449 33.6101 150.399 32.1944 148.275 32.1646C145.488 32.1274 142.702 32.1721 139.915 32.1423C139.296 32.1348 139.043 32.3434 138.902 32.9246C138.603 34.169 138.223 35.3984 137.888 36.6353C136.227 42.7005 134.58 48.7732 132.896 54.831C132.687 55.591 132.762 55.8518 133.619 55.8146C135.027 55.7475 136.443 55.7997 137.858 55.7997H137.866ZM124.573 32.1125C121.615 32.1125 118.791 32.1125 115.967 32.1125C113.284 32.1199 111.727 33.3419 111.027 35.9423C109.589 41.2997 108.151 46.6571 106.713 52.007C106.057 54.4436 107.055 55.7773 109.589 55.7922C112.04 55.8071 114.499 55.7624 116.95 55.8146C117.792 55.8369 118.158 55.6357 118.389 54.7491C119.484 50.5019 120.676 46.2771 121.831 42.0448C122.725 38.7812 123.634 35.5102 124.573 32.105V32.1125Z" fill="#065E27"/>
<path d="M233.71 60.2484C228.755 60.2484 223.8 60.2484 218.845 60.2409C218.182 60.2409 217.511 60.1813 216.863 60.0621C213.815 59.5107 212.117 56.9922 212.899 54.0043C214.643 47.3579 216.423 40.7115 218.279 34.0949C219.352 30.2575 222.936 27.6347 226.937 27.6347C237.301 27.6198 247.673 27.6198 258.038 27.6347C261.965 27.6347 263.82 29.885 262.844 33.7074C261.19 40.1675 259.327 46.5755 257.673 53.0357C256.645 57.0444 253.992 59.1754 250.17 60.1515C249.655 60.2857 249.097 60.2931 248.56 60.2931C243.605 60.3006 238.65 60.2931 233.695 60.2931C233.695 60.2782 233.695 60.2633 233.695 60.2558L233.71 60.2484ZM234.686 55.8001C235.848 55.8001 237.018 55.8001 238.181 55.8001C241.251 55.8001 242.704 54.7196 243.493 51.8062C244.939 46.4489 246.37 41.084 247.8 35.7267C248.366 33.6031 247.346 32.1948 245.162 32.165C242.331 32.1352 239.5 32.1278 236.668 32.165C234.537 32.1948 232.823 33.5137 232.272 35.5702C230.759 41.166 229.262 46.7693 227.786 52.38C227.228 54.511 228.181 55.7255 230.432 55.7926C231.847 55.8299 233.263 55.8001 234.679 55.8001H234.686Z" fill="#065E27"/>
<path d="M183.437 40.3535C186.03 38.8856 188.407 37.5444 190.777 36.1957C195.471 33.5282 200.173 30.8682 204.859 28.1932C205.493 27.8281 206.119 27.6493 206.856 27.6567C209.583 27.694 212.311 27.6716 215.12 27.6716C214.829 28.2379 214.352 28.3497 213.98 28.5658C209.166 31.3599 204.353 34.1467 199.502 36.8887C198.697 37.3432 198.623 37.6785 199.077 38.4683C203.004 45.301 206.886 52.1561 210.783 59.0112C210.999 59.3986 211.208 59.7935 211.491 60.33C208.317 60.33 205.292 60.33 202.259 60.33C200.508 60.33 198.757 60.2853 197.013 60.3524C196.238 60.3822 195.844 60.099 195.471 59.4359C192.796 54.6597 190.054 49.9208 187.387 45.1371C186.962 44.3845 186.656 44.2355 185.904 44.6975C184.495 45.5693 182.655 46.0462 181.694 47.2532C180.762 48.4156 180.703 50.2784 180.271 51.8357C179.578 54.3542 178.877 56.8727 178.229 59.3986C178.043 60.1139 177.73 60.3673 176.962 60.3598C172.797 60.3151 168.632 60.3226 164.467 60.3598C163.625 60.3598 163.424 60.2406 163.67 59.3316C166.486 49.0639 169.258 38.7813 172.03 28.4987C172.201 27.8579 172.447 27.5598 173.2 27.5748C175.614 27.6344 178.028 27.5971 180.449 27.5971C180.822 27.5971 181.202 27.612 181.575 27.6567C184.98 28.0591 186.217 29.8623 185.352 33.178C184.749 35.4953 184.115 37.8052 183.437 40.3609V40.3535Z" fill="#075F27"/>
<path d="M51.261 46.2624C52.4011 44.9212 53.5486 43.6172 54.6439 42.2686C55.0388 41.7768 55.5306 41.8885 56.0074 41.8885C62.2142 41.8885 68.421 41.8587 74.6279 41.9109C75.604 41.9184 76.0212 41.6352 76.215 40.6889C76.5204 39.2285 76.9526 37.7979 77.3401 36.3598C78.0703 33.5954 77.1091 32.3734 74.2106 32.3734C65.8802 32.3734 57.5498 32.3734 48.9288 32.3734C50.2402 30.831 51.4101 29.4302 52.6023 28.0443C52.8481 27.7537 53.2282 27.8878 53.5486 27.8878C64.7104 27.8953 75.8722 27.8878 87.0415 27.9325C90.7968 27.9474 93.0024 30.6969 92.0561 34.3405C90.3274 41.0391 88.5093 47.7153 86.6466 54.3841C85.745 57.6105 81.9747 60.509 78.5919 60.5239C66.2602 60.576 53.9286 60.5388 41.5969 60.5388C41.5298 60.5388 41.4628 60.4866 41.2542 60.4121C42.424 59.0262 43.5715 57.685 44.6891 56.3289C45.0915 55.8446 45.6131 56.0308 46.0825 56.0308C53.4144 56.0159 60.7464 56.0234 68.0783 56.0234C70.9321 56.0234 72.3254 54.943 73.0706 52.1562C73.4878 50.5989 73.8455 49.0193 74.3522 47.4844C74.6651 46.5455 74.3298 46.4561 73.5251 46.4636C66.5657 46.4859 59.6138 46.4785 52.6544 46.4636C52.2148 46.4636 51.7454 46.6126 51.2461 46.2773L51.261 46.2624Z" fill="#075F28"/>
<path d="M42.4315 38.8036C40.457 41.0986 38.5569 43.3339 36.6345 45.5544C35.9043 46.3963 35.2486 47.6928 34.3545 47.9015C33.4603 48.1101 32.2905 47.2607 31.2697 46.8062C23.364 43.3339 16.0246 39.0048 10.1233 32.5745C7.60485 29.825 5.57068 26.7626 4.43811 23.1637C3.22357 19.304 3.4024 15.5635 5.36205 11.9571C5.78677 11.1673 6.19658 10.37 6.72561 9.57275C6.55424 12.2626 7.22484 14.714 8.61821 17.0984C9.48999 15.9956 10.3245 14.9599 11.2485 13.7901C11.9712 15.2133 12.6791 16.4725 13.5956 17.5976C13.8787 17.9478 13.7446 18.1788 13.5211 18.4545C13.1262 18.9389 12.7908 19.4753 12.3512 19.915C11.4422 20.824 11.6732 21.4573 12.545 22.3217C19.1839 28.9383 27.1939 33.2898 35.8596 36.5757C37.9534 37.3655 40.1068 38.0138 42.439 38.7962L42.4315 38.8036Z" fill="#075F28"/>
<path d="M14.8474 0.505107C13.0219 3.71655 13.4913 6.75662 15.5329 9.67747C16.2557 11.1677 17.269 12.4269 18.5581 13.4627C20.9797 16.2717 24.0123 18.2985 27.1418 20.2059C31.2027 22.6872 35.5094 24.6319 40.0397 26.0849C41.068 26.4128 41.2096 26.7332 40.4496 27.5155C39.2052 28.7971 38.0205 30.1309 36.8134 31.4497C36.5079 31.785 36.2024 31.949 35.7255 31.7403C26.9779 27.9477 18.722 23.4472 13.1634 15.3329C10.9281 12.0693 9.76572 8.47784 11.3007 4.52128C11.9713 2.79261 12.9623 1.27258 14.6686 0.348633C14.7282 0.400791 14.7878 0.452949 14.8474 0.505107Z" fill="#A4A5A2"/>
<path d="M18.5657 13.4627C17.2766 12.427 16.2558 11.1677 15.5405 9.6775C22.7607 3.90286 30.9942 0.959657 40.2485 1.27261C51.2986 1.64516 60.471 6.13821 67.7731 14.4239C68.0637 14.7517 68.5778 15.1839 68.1829 15.5788C67.6911 16.0706 67.3111 15.467 66.9758 15.1392C59.9121 8.24688 51.4923 4.63307 41.5599 4.96838C32.9837 5.25897 25.3313 8.21708 18.5657 13.4552V13.4627Z" fill="#0A612A"/>
<path d="M5.76447 38.0661C9.32612 42.2537 13.6329 45.5545 18.2824 48.4381C21.2927 50.3084 24.452 51.8731 27.8124 53.0206C28.5277 53.2665 28.6991 53.49 28.1403 54.101C27.0226 55.3304 25.9496 56.5971 24.8692 57.8564C24.4967 58.296 24.1241 58.4376 23.5727 58.1619C15.6149 54.2128 8.40963 49.3248 3.37265 41.7992C1.0777 38.3716 -0.233705 34.6312 0.0345367 30.4287C0.101597 29.393 0.31768 28.402 0.757298 27.0757C0.697689 29.4601 1.04789 31.3974 2.26988 33.0888C3.08206 34.9888 4.3413 36.5834 5.76447 38.0512V38.0661Z" fill="#A4A5A2"/>
<path d="M2.12085 41.5532C3.38009 43.565 4.72875 45.4874 6.3084 47.2459C6.66605 47.6408 6.68095 48.1549 6.80762 48.6244C9.67632 59.4211 15.7416 67.6472 26.0763 72.4308C27.8497 73.2504 29.705 73.8465 31.5752 74.3979C32.0521 74.5395 32.9835 74.3755 32.7451 75.292C32.529 76.0893 31.8137 75.605 31.3666 75.4932C17.0082 71.8347 7.6496 62.9231 3.29813 48.7957C2.57537 46.4561 2.18046 44.0419 2.12085 41.5532Z" fill="#0D632D"/>
<path d="M5.76461 38.0659C4.33399 36.5906 3.0822 35.0035 2.27002 33.1034C2.72454 30.6669 3.23867 28.2527 4.19987 25.7417C5.05675 27.3959 5.85402 28.9159 6.87483 30.3018C7.11327 30.6222 6.97915 30.9202 6.88973 31.2406C6.27874 33.476 5.95089 35.7635 5.76461 38.0734V38.0659Z" fill="#0A612A"/>
<path d="M198.913 72.7662C198.623 73.9435 198.28 75.1059 198.064 76.2906C197.952 76.924 197.632 77.0357 197.117 76.9538C196.454 76.842 196.812 76.3651 196.886 76.0745C197.281 74.4651 197.766 72.878 198.116 71.2611C198.325 70.2776 199.003 70.5085 199.636 70.4638C200.493 70.4042 200.254 71.0525 200.321 71.4772C200.463 72.4607 200.582 73.4443 200.731 74.629C201.633 73.4741 202.11 72.3117 202.616 71.1866C203.086 70.1285 203.898 70.5011 204.628 70.516C204.978 70.516 204.867 70.8736 204.837 71.1046C204.621 72.8333 204.405 74.562 204.196 76.2906C204.129 76.8867 203.794 77.0283 203.25 76.9687C202.467 76.8867 202.885 76.3949 202.914 76.0522C203.011 74.9941 203.391 73.9584 203.205 72.5725C202.497 73.9137 201.886 75.0165 201.342 76.1491C201.089 76.6781 200.836 77.0879 200.15 76.9612C199.405 76.8271 199.643 76.1938 199.569 75.769C199.405 74.778 199.323 73.7796 199.211 72.7811C199.114 72.7811 199.01 72.7737 198.913 72.7662Z" fill="#126631"/>
<path d="M187.267 74.5467C187.267 71.8196 189.003 70.0686 191.462 70.2921C192.892 70.4262 193.623 71.2012 193.667 72.6318C193.757 75.3589 192.14 77.1248 189.636 77.0354C187.975 76.9758 187.267 76.2307 187.267 74.5393V74.5467ZM188.668 74.3604C188.683 75.7389 189.592 76.3126 190.754 75.7836C191.79 75.3142 192.535 73.6153 192.237 72.3933C192.05 71.6035 191.477 71.3651 190.747 71.4098C189.666 71.4768 188.914 72.4008 188.72 73.8538C188.69 74.0549 188.675 74.2636 188.668 74.3604Z" fill="#136732"/>
<path d="M237.443 74.1894C238.322 73.1462 239.202 72.1031 240.096 71.0748C240.327 70.8066 240.513 70.4564 240.975 70.4564C241.489 70.4564 241.854 70.4191 241.683 71.1717C241.31 72.8258 241.027 74.5098 240.737 76.1863C240.632 76.7824 240.372 77.073 239.738 76.9612C238.963 76.8196 239.485 76.3279 239.485 75.9926C239.485 75.1804 239.969 74.4055 239.731 73.489C239.015 73.7349 238.755 74.3906 238.322 74.8451C237.778 75.4188 237.294 76.0373 236.787 76.6483C236.467 77.0283 236.013 77.073 235.655 76.8942C235.312 76.7302 235.506 76.2832 235.558 75.9777C235.856 74.3459 236.229 72.729 236.482 71.0897C236.586 70.4042 236.981 70.4266 237.443 70.4638C238.114 70.5234 237.786 71.0152 237.741 71.3132C237.6 72.2521 237.398 73.1835 237.22 74.1149C237.294 74.1372 237.376 74.1596 237.451 74.1894H237.443Z" fill="#136732"/>
<path d="M246.437 74.547C247.592 73.1909 248.523 72.1477 249.387 71.0599C249.767 70.583 250.222 70.27 250.758 70.501C251.332 70.7544 250.907 71.2834 250.84 71.6709C250.587 73.176 250.267 74.6737 250.028 76.1862C249.931 76.827 249.633 77.058 249.03 76.9537C248.262 76.8196 248.739 76.2831 248.776 75.9776C248.888 75.0388 249.104 74.1074 249.343 72.8109C248.232 74.1148 247.353 75.158 246.452 76.1862C246.213 76.4619 246.042 76.842 245.639 76.9239C245.095 77.0357 244.619 77.0282 244.775 76.2235C245.118 74.5172 245.468 72.8183 245.744 71.1046C245.848 70.4489 246.221 70.4265 246.712 70.4638C247.413 70.5085 247.055 70.9928 247.018 71.2834C246.869 72.252 246.675 73.2058 246.429 74.547H246.437Z" fill="#136732"/>
<path d="M228.375 72.9374C228.681 72.9597 228.927 72.9597 229.165 72.997C230.372 73.2056 231.035 72.7809 231.013 71.4844C231.013 71.2385 231.065 70.9852 231.154 70.7542C231.341 70.2624 231.788 70.4636 232.131 70.4636C232.622 70.4636 232.451 70.8138 232.399 71.0895C232.063 72.7958 231.706 74.4947 231.408 76.2084C231.296 76.8418 231.013 77.0579 230.409 76.9535C229.687 76.8269 230.126 76.3276 230.104 75.9774C230.104 75.8582 230.223 75.7166 230.193 75.6272C230.014 75.1504 230.983 74.3158 229.85 74.1817C229.053 74.0848 227.936 73.7346 227.868 75.2249C227.846 75.6719 227.719 76.1265 227.615 76.5661C227.466 77.1771 226.959 76.9684 226.587 76.9386C226.132 76.9088 226.281 76.5288 226.334 76.268C226.661 74.5617 227.019 72.8554 227.317 71.1491C227.436 70.4636 227.839 70.3742 228.383 70.471C229.098 70.6052 228.673 71.0969 228.636 71.4322C228.584 71.924 228.472 72.4083 228.375 72.9374Z" fill="#166834"/>
<path d="M158.543 71.589C157.641 71.3804 157.291 71.7381 157.194 72.6471C157.068 73.8318 156.717 74.9942 156.546 76.1789C156.457 76.8272 156.174 77.0284 155.57 76.9613C154.773 76.8719 155.22 76.3354 155.272 76.0299C155.533 74.4428 155.868 72.8632 156.144 71.2761C156.241 70.7247 156.39 70.3968 157.075 70.4416C158.23 70.5086 159.4 70.4863 160.562 70.4416C161.188 70.4192 161.36 70.6055 161.225 71.2239C160.875 72.8855 160.555 74.5471 160.272 76.2162C160.16 76.8719 159.81 77.0507 159.236 76.939C158.483 76.7974 158.968 76.2907 159.012 75.9629C159.169 74.8973 159.303 73.8244 159.594 72.7961C159.892 71.7455 159.683 71.2984 158.55 71.5741L158.543 71.589Z" fill="#136732"/>
<path d="M211.588 71.5816C210.619 71.3506 210.298 71.7977 210.194 72.7365C210.075 73.884 209.725 75.0091 209.568 76.1491C209.479 76.775 209.248 77.0358 208.615 76.9613C207.847 76.8644 208.234 76.3354 208.287 76.015C208.555 74.4279 208.913 72.8483 209.173 71.2537C209.27 70.6427 209.486 70.4192 210.112 70.4415C211.23 70.4863 212.355 70.4863 213.48 70.4415C214.128 70.4192 214.382 70.5682 214.233 71.2686C213.882 72.9302 213.547 74.5993 213.271 76.2683C213.167 76.8868 212.854 76.9911 212.325 76.9539C211.506 76.8942 211.968 76.3429 212.012 76.0448C212.169 74.942 212.303 73.8169 212.623 72.7514C212.944 71.671 212.601 71.3878 211.58 71.5741L211.588 71.5816Z" fill="#126631"/>
<path d="M149.773 70.464C151.382 70.464 152.04 71.2588 151.747 72.8484C151.524 74.0256 151.241 75.1955 151.062 76.3877C150.972 76.9986 150.607 76.9763 150.175 76.9688C149.504 76.9465 149.743 76.4622 149.802 76.1567C150.004 74.9719 150.279 73.8021 150.466 72.6099C150.518 72.2597 150.935 71.5444 150.115 71.6115C149.452 71.6636 148.431 70.993 148.148 72.2076C147.835 73.5413 147.582 74.8825 147.388 76.2386C147.291 76.9167 146.941 77.0806 146.375 76.9614C145.697 76.8124 146.055 76.2982 146.114 75.9555C146.368 74.4876 146.755 73.0346 146.934 71.5593C147.046 70.6354 147.403 70.3522 148.282 70.464C148.774 70.531 149.281 70.4789 149.78 70.4789L149.773 70.464Z" fill="#126631"/>
<path d="M183.452 76.8939C180.986 77.2888 181.738 74.897 180.613 74.0923C180.062 74.6213 180.114 75.3739 179.987 76.0594C179.883 76.6257 179.726 77.11 178.974 76.9684C178.132 76.812 178.631 76.2755 178.698 75.9253C178.951 74.4127 179.264 72.915 179.525 71.4099C179.622 70.8212 179.749 70.3593 180.509 70.4636C181.522 70.6052 180.732 71.2087 180.799 71.5813C180.851 71.8495 180.762 72.1476 180.74 72.468C182.059 71.9389 182.528 69.942 184.465 70.5605C184.026 71.2832 183.37 71.775 182.737 72.2444C181.939 72.8331 181.895 73.4142 182.312 74.2339C182.737 75.0684 183.057 75.9551 183.452 76.8939Z" fill="#166834"/>
<path d="M216.773 76.8422C217.69 74.7931 218.808 72.8707 219.873 70.9111C220.231 70.2554 220.79 70.5012 221.289 70.4714C221.863 70.4491 221.773 70.926 221.825 71.2687C222.079 72.9005 222.332 74.5398 222.578 76.1716C222.63 76.5292 222.779 76.9465 222.146 76.9539C221.676 76.9539 221.214 77.0285 221.229 76.3131C221.237 75.9033 221.229 75.3743 220.618 75.4712C219.881 75.5904 218.875 74.9272 218.457 76.0747C218.159 76.8943 217.653 77.1402 216.773 76.8273V76.8422ZM219.277 74.3758C221.311 74.577 221.326 74.5398 220.536 72.0064C220.089 72.8409 219.694 73.586 219.277 74.3758Z" fill="#136732"/>
<path d="M163.662 76.7972C164.742 74.8078 165.808 72.863 166.851 70.9034C167.194 70.2477 167.767 70.4861 168.267 70.4787C168.818 70.4638 168.751 70.9406 168.803 71.2908C169.057 72.8779 169.31 74.4725 169.526 76.067C169.571 76.4172 169.817 76.9388 169.086 76.9686C168.58 76.991 168.2 76.9537 168.185 76.298C168.177 75.918 168.185 75.3666 167.544 75.4858C166.806 75.62 165.8 74.9717 165.398 76.1117C165.1 76.9463 164.601 77.1623 163.662 76.8047V76.7972ZM167.581 71.9987C167.007 72.8779 166.523 73.556 166.344 74.4203C167.522 74.4849 167.934 73.6777 167.581 71.9987Z" fill="#126631"/>
<path d="M132.233 70.449C133.507 70.4788 134.64 70.3447 134.863 71.7977C135.064 73.1464 134.245 74.4131 132.792 74.5323C131.503 74.6366 131.085 75.2327 131.063 76.3429C131.041 77.0657 130.549 76.9837 130.102 76.9464C129.431 76.8868 129.752 76.3876 129.804 76.097C130.035 74.7484 130.37 73.422 130.549 72.0659C130.705 70.8812 131.026 70.0467 132.24 70.449H132.233ZM131.778 72.7962C131.652 73.2805 131.592 73.6307 132.106 73.6381C132.956 73.653 133.388 73.1613 133.492 72.364C133.559 71.8201 133.276 71.5295 132.725 71.4773C131.48 71.3581 132.032 72.431 131.786 72.7962H131.778Z" fill="#126631"/>
<path d="M143.708 70.4787C142.635 72.6023 141.562 74.4949 140.273 76.2682C139.818 76.8941 139.147 77.1028 138.402 77.0208C138.164 76.9984 137.754 77.1251 137.799 76.6259C137.829 76.2906 137.873 75.9478 138.335 75.9404C139.624 75.918 139.565 75.2102 139.267 74.2639C138.954 73.2803 138.723 72.2744 138.492 71.2685C138.425 70.9779 138.045 70.4861 138.76 70.4712C139.162 70.4638 139.684 70.2477 139.796 70.9928C139.922 71.8422 140.161 72.6768 140.355 73.5411C141.852 72.945 141.241 70.285 143.708 70.4712V70.4787Z" fill="#126631"/>
<path d="M125.355 70.4637C125.929 70.4637 126.301 70.4562 126.681 70.4637C126.957 70.4711 127.307 70.3891 127.263 70.866C127.233 71.2237 127.136 71.5962 126.696 71.4994C124.759 71.0597 124.714 72.4159 124.528 73.69C124.401 74.5469 124.163 75.3889 124.059 76.2532C123.984 76.8642 123.671 76.9983 123.142 76.9611C122.352 76.9089 122.732 76.3799 122.792 76.052C123.008 74.7481 123.373 73.459 123.492 72.1476C123.619 70.784 124.074 70.0464 125.363 70.4562L125.355 70.4637Z" fill="#126631"/>
<path d="M250.55 68.5937C250.214 69.9051 248.851 70.5757 247.696 69.987C247.293 69.7784 247.077 69.4431 247.055 68.996C247.04 68.7874 247.055 68.5788 247.331 68.5341C247.77 68.4595 248.053 68.5266 248.284 69.0258C248.5 69.5027 249.052 69.3835 249.29 68.9886C249.626 68.4372 250.035 68.4297 250.542 68.5937H250.55Z" fill="#166834"/>
<path d="M14.6685 0.348447C14.7728 0.184521 14.8994 -0.0986223 15.0932 0.0727542C15.2571 0.221777 14.9814 0.385702 14.8473 0.504921C14.7877 0.452763 14.7281 0.400605 14.6685 0.348447Z" fill="#A4A5A2"/>
</svg>
