<svg width="264" height="78" viewBox="0 0 264 78" fill="none" xmlns="http://www.w3.org/2000/svg">
<path d="M133.164 27.6073C142.038 27.6073 150.913 27.6073 159.78 27.6073C160.152 27.6073 160.532 27.5999 160.905 27.6148C164.481 27.8085 166.56 30.3419 165.681 33.7843C163.93 40.6468 162.067 47.487 160.122 54.2974C159.191 57.5759 155.234 60.2434 151.673 60.2583C145.339 60.2732 139.006 60.2881 132.68 60.2359C131.726 60.2285 131.301 60.4595 131.063 61.4058C130.452 63.887 130.407 63.8795 127.896 63.8795C124.275 63.8795 120.646 63.8572 117.025 63.8944C116.153 63.9019 115.848 63.7678 116.131 62.7917C116.861 60.2806 116.816 60.2657 114.164 60.2657C108.292 60.2657 102.421 60.2657 96.5417 60.2657C92.5628 60.2657 90.6702 57.9782 91.6687 54.126C93.4346 47.3082 95.275 40.5053 97.1974 33.7322C98.1735 30.2823 102.108 27.6148 105.915 27.6148C112.331 27.6148 118.746 27.6371 125.162 27.652C127.829 27.652 130.489 27.652 133.157 27.652C133.157 27.6371 133.157 27.6222 133.157 27.6148L133.164 27.6073ZM137.866 55.7801C139.11 55.7801 140.362 55.7801 141.606 55.7801C144.222 55.7801 145.801 54.5805 146.487 52.0546C147.97 46.5854 149.445 41.1088 150.905 35.6322C151.449 33.5906 150.399 32.1749 148.275 32.1451C145.488 32.1078 142.702 32.1525 139.915 32.1227C139.296 32.1153 139.043 32.3239 138.902 32.9051C138.603 34.1494 138.223 35.3789 137.888 36.6158C136.227 42.681 134.58 48.7537 132.896 54.8115C132.687 55.5715 132.762 55.8323 133.619 55.795C135.027 55.728 136.443 55.7801 137.858 55.7801H137.866ZM124.573 32.0929C121.615 32.0929 118.791 32.0929 115.967 32.0929C113.284 32.1004 111.727 33.3224 111.027 35.9228C109.589 41.2802 108.151 46.6376 106.713 51.9875C106.057 54.424 107.055 55.7578 109.589 55.7727C112.04 55.7876 114.499 55.7429 116.95 55.795C117.792 55.8174 118.158 55.6162 118.389 54.7295C119.484 50.4824 120.676 46.2576 121.831 42.0253C122.725 38.7617 123.634 35.4906 124.573 32.0855V32.0929Z" fill="#707070"/>
<path d="M233.71 60.2289C228.755 60.2289 223.8 60.2289 218.845 60.2214C218.182 60.2214 217.511 60.1618 216.863 60.0426C213.815 59.4912 212.117 56.9727 212.899 53.9848C214.643 47.3384 216.423 40.6919 218.279 34.0753C219.352 30.238 222.936 27.6152 226.937 27.6152C237.301 27.6003 247.673 27.6003 258.038 27.6152C261.965 27.6152 263.82 29.8654 262.844 33.6879C261.19 40.148 259.327 46.556 257.673 53.0161C256.645 57.0249 253.992 59.1559 250.17 60.132C249.655 60.2661 249.097 60.2736 248.56 60.2736C243.605 60.281 238.65 60.2736 233.695 60.2736C233.695 60.2587 233.695 60.2438 233.695 60.2363L233.71 60.2289ZM234.686 55.7805C235.848 55.7805 237.018 55.7805 238.181 55.7805C241.251 55.7805 242.704 54.7001 243.493 51.7867C244.939 46.4293 246.37 41.0645 247.8 35.7071C248.366 33.5836 247.346 32.1753 245.162 32.1455C242.331 32.1157 239.5 32.1082 236.668 32.1455C234.537 32.1753 232.823 33.4941 232.272 35.5507C230.759 41.1465 229.262 46.7497 227.786 52.3605C227.228 54.4915 228.181 55.706 230.432 55.7731C231.847 55.8103 233.263 55.7805 234.679 55.7805H234.686Z" fill="#707070"/>
<path d="M183.437 40.3339C186.03 38.8661 188.407 37.5249 190.777 36.1762C195.471 33.5087 200.173 30.8486 204.859 28.1737C205.493 27.8086 206.119 27.6297 206.856 27.6372C209.583 27.6744 212.311 27.6521 215.12 27.6521C214.829 28.2184 214.352 28.3301 213.98 28.5462C209.166 31.3404 204.353 34.1271 199.502 36.8692C198.697 37.3237 198.623 37.659 199.077 38.4488C203.004 45.2815 206.886 52.1366 210.783 58.9916C210.999 59.3791 211.208 59.774 211.491 60.3105C208.317 60.3105 205.292 60.3105 202.259 60.3105C200.508 60.3105 198.757 60.2658 197.013 60.3328C196.238 60.3626 195.844 60.0795 195.471 59.4163C192.796 54.6402 190.054 49.9012 187.387 45.1176C186.962 44.365 186.656 44.216 185.904 44.678C184.495 45.5498 182.655 46.0266 181.694 47.2337C180.762 48.3961 180.703 50.2589 180.271 51.8162C179.578 54.3347 178.877 56.8531 178.229 59.3791C178.043 60.0944 177.73 60.3477 176.962 60.3403C172.797 60.2956 168.632 60.303 164.467 60.3403C163.625 60.3403 163.424 60.2211 163.67 59.312C166.486 49.0443 169.258 38.7618 172.03 28.4792C172.201 27.8384 172.447 27.5403 173.2 27.5552C175.614 27.6148 178.028 27.5776 180.449 27.5776C180.822 27.5776 181.202 27.5925 181.575 27.6372C184.98 28.0395 186.217 29.8427 185.352 33.1585C184.749 35.4758 184.115 37.7856 183.437 40.3414V40.3339Z" fill="#707070"/>
<path d="M51.261 46.2428C52.4011 44.9016 53.5486 43.5977 54.6439 42.249C55.0388 41.7572 55.5306 41.869 56.0074 41.869C62.2142 41.869 68.421 41.8392 74.6279 41.8914C75.604 41.8988 76.0212 41.6157 76.215 40.6694C76.5204 39.209 76.9526 37.7783 77.3401 36.3403C78.0703 33.5759 77.1091 32.3539 74.2106 32.3539C65.8802 32.3539 57.5498 32.3539 48.9288 32.3539C50.2402 30.8115 51.4101 29.4107 52.6023 28.0248C52.8481 27.7342 53.2282 27.8683 53.5486 27.8683C64.7104 27.8758 75.8722 27.8683 87.0415 27.913C90.7968 27.9279 93.0024 30.6774 92.0561 34.321C90.3274 41.0196 88.5093 47.6958 86.6466 54.3646C85.745 57.5909 81.9747 60.4894 78.5919 60.5043C66.2602 60.5565 53.9286 60.5192 41.5969 60.5192C41.5298 60.5192 41.4628 60.4671 41.2542 60.3926C42.424 59.0067 43.5715 57.6655 44.6891 56.3093C45.0915 55.825 45.6131 56.0113 46.0825 56.0113C53.4144 55.9964 60.7464 56.0038 68.0783 56.0038C70.9321 56.0038 72.3254 54.9234 73.0706 52.1367C73.4878 50.5794 73.8455 48.9998 74.3522 47.4648C74.6651 46.526 74.3298 46.4366 73.5251 46.444C66.5657 46.4664 59.6138 46.4589 52.6544 46.444C52.2148 46.444 51.7454 46.593 51.2461 46.2577L51.261 46.2428Z" fill="#707070"/>
<path d="M42.4315 38.7841C40.457 41.079 38.5569 43.3144 36.6345 45.5348C35.9043 46.3768 35.2486 47.6733 34.3545 47.8819C33.4603 48.0906 32.2905 47.2411 31.2697 46.7866C23.364 43.3144 16.0246 38.9853 10.1233 32.5549C7.60485 29.8055 5.57068 26.743 4.43811 23.1441C3.22357 19.2844 3.4024 15.5439 5.36205 11.9376C5.78677 11.1478 6.19658 10.3505 6.72561 9.55322C6.55424 12.2431 7.22484 14.6945 8.61821 17.0789C9.48999 15.9761 10.3245 14.9404 11.2485 13.7706C11.9712 15.1937 12.6791 16.453 13.5956 17.5781C13.8787 17.9283 13.7446 18.1593 13.5211 18.435C13.1262 18.9193 12.7908 19.4558 12.3512 19.8954C11.4422 20.8045 11.6732 21.4378 12.545 22.3021C19.1839 28.9188 27.1939 33.2702 35.8596 36.5562C37.9534 37.346 40.1068 37.9943 42.439 38.7766L42.4315 38.7841Z" fill="#707070"/>
<path d="M14.8474 0.485576C13.0219 3.69702 13.4913 6.73709 15.5329 9.65794C16.2557 11.1482 17.269 12.4074 18.5581 13.4431C20.9797 16.2522 24.0123 18.2789 27.1418 20.1864C31.2027 22.6677 35.5094 24.6124 40.0397 26.0654C41.068 26.3932 41.2096 26.7136 40.4496 27.496C39.2052 28.7776 38.0205 30.1114 36.8134 31.4302C36.5079 31.7655 36.2024 31.9294 35.7255 31.7208C26.9779 27.9282 18.722 23.4277 13.1634 15.3134C10.9281 12.0498 9.76572 8.45831 11.3007 4.50175C11.9713 2.77308 12.9623 1.25304 14.6686 0.329102C14.7282 0.38126 14.7878 0.433418 14.8474 0.485576Z" fill="#707070"/>
<path d="M18.5657 13.4432C17.2766 12.4074 16.2558 11.1482 15.5405 9.65797C22.7607 3.88333 30.9942 0.940126 40.2485 1.25307C51.2986 1.62563 60.471 6.11868 67.7731 14.4044C68.0637 14.7322 68.5778 15.1644 68.1829 15.5593C67.6911 16.0511 67.3111 15.4475 66.9758 15.1197C59.9121 8.22735 51.4923 4.61354 41.5599 4.94885C32.9837 5.23944 25.3313 8.19755 18.5657 13.4357V13.4432Z" fill="#707070"/>
<path d="M5.76447 38.0466C9.32612 42.2341 13.6329 45.535 18.2824 48.4186C21.2927 50.2888 24.452 51.8536 27.8124 53.0011C28.5277 53.2469 28.6991 53.4705 28.1403 54.0815C27.0226 55.3109 25.9496 56.5776 24.8692 57.8369C24.4967 58.2765 24.1241 58.418 23.5727 58.1424C15.6149 54.1932 8.40963 49.3053 3.37265 41.7796C1.0777 38.3521 -0.233705 34.6116 0.0345367 30.4092C0.101597 29.3735 0.31768 28.3825 0.757298 27.0562C0.697689 29.4405 1.04789 31.3778 2.26988 33.0692C3.08206 34.9693 4.3413 36.5638 5.76447 38.0317V38.0466Z" fill="#707070"/>
<path d="M2.12085 41.5337C3.38009 43.5455 4.72875 45.4679 6.3084 47.2264C6.66605 47.6213 6.68095 48.1354 6.80762 48.6048C9.67632 59.4015 15.7416 67.6276 26.0763 72.4113C27.8497 73.2309 29.705 73.827 31.5752 74.3784C32.0521 74.5199 32.9835 74.356 32.7451 75.2725C32.529 76.0698 31.8137 75.5854 31.3666 75.4737C17.0082 71.8152 7.6496 62.9036 3.29813 48.7762C2.57537 46.4365 2.18046 44.0224 2.12085 41.5337Z" fill="#707070"/>
<path d="M5.76461 38.0464C4.33399 36.571 3.0822 34.9839 2.27002 33.0839C2.72454 30.6474 3.23867 28.2332 4.19987 25.7222C5.05675 27.3763 5.85402 28.8964 6.87483 30.2823C7.11327 30.6027 6.97915 30.9007 6.88973 31.2211C6.27874 33.4565 5.95089 35.744 5.76461 38.0538V38.0464Z" fill="#707070"/>
<path d="M198.913 72.7467C198.623 73.924 198.28 75.0864 198.064 76.2711C197.952 76.9044 197.632 77.0162 197.117 76.9343C196.454 76.8225 196.812 76.3456 196.886 76.055C197.281 74.4456 197.766 72.8585 198.116 71.2416C198.325 70.258 199.003 70.489 199.636 70.4443C200.493 70.3847 200.254 71.0329 200.321 71.4577C200.463 72.4412 200.582 73.4248 200.731 74.6095C201.633 73.4546 202.11 72.2922 202.616 71.1671C203.086 70.109 203.898 70.4816 204.628 70.4965C204.978 70.4965 204.867 70.8541 204.837 71.0851C204.621 72.8138 204.405 74.5424 204.196 76.2711C204.129 76.8672 203.794 77.0088 203.25 76.9492C202.467 76.8672 202.885 76.3754 202.914 76.0327C203.011 74.9746 203.391 73.9389 203.205 72.553C202.497 73.8942 201.886 74.997 201.342 76.1295C201.089 76.6586 200.836 77.0684 200.15 76.9417C199.405 76.8076 199.643 76.1742 199.569 75.7495C199.405 74.7585 199.323 73.7601 199.211 72.7616C199.114 72.7616 199.01 72.7542 198.913 72.7467Z" fill="#707070"/>
<path d="M187.267 74.5272C187.267 71.8001 189.003 70.049 191.462 70.2726C192.892 70.4067 193.623 71.1816 193.667 72.6122C193.757 75.3394 192.14 77.1053 189.636 77.0159C187.975 76.9563 187.267 76.2111 187.267 74.5197V74.5272ZM188.668 74.3409C188.683 75.7194 189.592 76.2931 190.754 75.7641C191.79 75.2947 192.535 73.5958 192.237 72.3738C192.05 71.584 191.477 71.3455 190.747 71.3903C189.666 71.4573 188.914 72.3813 188.72 73.8342C188.69 74.0354 188.675 74.244 188.668 74.3409Z" fill="#707070"/>
<path d="M237.443 74.1699C238.322 73.1267 239.202 72.0835 240.096 71.0553C240.327 70.787 240.513 70.4368 240.975 70.4368C241.489 70.4368 241.854 70.3996 241.683 71.1521C241.31 72.8063 241.027 74.4903 240.737 76.1668C240.632 76.7629 240.372 77.0534 239.738 76.9417C238.963 76.8001 239.485 76.3083 239.485 75.973C239.485 75.1609 239.969 74.3859 239.731 73.4694C239.015 73.7153 238.755 74.371 238.322 74.8256C237.778 75.3993 237.294 76.0177 236.787 76.6287C236.467 77.0087 236.013 77.0535 235.655 76.8746C235.312 76.7107 235.506 76.2636 235.558 75.9581C235.856 74.3263 236.229 72.7094 236.482 71.0702C236.586 70.3847 236.981 70.407 237.443 70.4443C238.114 70.5039 237.786 70.9957 237.741 71.2937C237.6 72.2326 237.398 73.1639 237.22 74.0953C237.294 74.1177 237.376 74.1401 237.451 74.1699H237.443Z" fill="#707070"/>
<path d="M246.437 74.5275C247.592 73.1714 248.523 72.1282 249.387 71.0403C249.767 70.5635 250.222 70.2505 250.758 70.4815C251.332 70.7348 250.907 71.2639 250.84 71.6513C250.587 73.1565 250.267 74.6541 250.028 76.1667C249.931 76.8075 249.633 77.0385 249.03 76.9342C248.262 76.8001 248.739 76.2636 248.776 75.9581C248.888 75.0192 249.104 74.0878 249.343 72.7913C248.232 74.0953 247.353 75.1385 246.452 76.1667C246.213 76.4424 246.042 76.8224 245.639 76.9044C245.095 77.0162 244.619 77.0087 244.775 76.204C245.118 74.4977 245.468 72.7988 245.744 71.085C245.848 70.4293 246.221 70.407 246.712 70.4442C247.413 70.4889 247.055 70.9733 247.018 71.2639C246.869 72.2325 246.675 73.1863 246.429 74.5275H246.437Z" fill="#707070"/>
<path d="M228.375 72.9178C228.681 72.9402 228.927 72.9402 229.165 72.9774C230.372 73.1861 231.035 72.7614 231.013 71.4649C231.013 71.219 231.065 70.9656 231.154 70.7347C231.341 70.2429 231.788 70.4441 232.131 70.4441C232.622 70.4441 232.451 70.7943 232.399 71.07C232.063 72.7763 231.706 74.4751 231.408 76.1889C231.296 76.8222 231.013 77.0383 230.409 76.934C229.687 76.8073 230.126 76.3081 230.104 75.9579C230.104 75.8387 230.223 75.6971 230.193 75.6077C230.014 75.1308 230.983 74.2963 229.85 74.1622C229.053 74.0653 227.936 73.7151 227.868 75.2053C227.846 75.6524 227.719 76.1069 227.615 76.5465C227.466 77.1575 226.959 76.9489 226.587 76.9191C226.132 76.8893 226.281 76.5093 226.334 76.2485C226.661 74.5422 227.019 72.8359 227.317 71.1296C227.436 70.4441 227.839 70.3546 228.383 70.4515C229.098 70.5856 228.673 71.0774 228.636 71.4127C228.584 71.9045 228.472 72.3888 228.375 72.9178Z" fill="#707070"/>
<path d="M158.543 71.5695C157.641 71.3609 157.291 71.7185 157.194 72.6276C157.068 73.8123 156.717 74.9747 156.546 76.1594C156.457 76.8077 156.174 77.0088 155.57 76.9418C154.773 76.8524 155.22 76.3159 155.272 76.0104C155.533 74.4233 155.868 72.8437 156.144 71.2566C156.241 70.7052 156.39 70.3773 157.075 70.422C158.23 70.4891 159.4 70.4667 160.562 70.422C161.188 70.3997 161.36 70.586 161.225 71.2044C160.875 72.866 160.555 74.5276 160.272 76.1967C160.16 76.8524 159.81 77.0312 159.236 76.9194C158.483 76.7779 158.968 76.2712 159.012 75.9433C159.169 74.8778 159.303 73.8049 159.594 72.7766C159.892 71.726 159.683 71.2789 158.55 71.5546L158.543 71.5695Z" fill="#707070"/>
<path d="M211.588 71.562C210.619 71.3311 210.298 71.7781 210.194 72.717C210.075 73.8644 209.725 74.9896 209.568 76.1296C209.479 76.7555 209.248 77.0163 208.615 76.9418C207.847 76.8449 208.234 76.3159 208.287 75.9955C208.555 74.4084 208.913 72.8287 209.173 71.2342C209.27 70.6232 209.486 70.3997 210.112 70.422C211.23 70.4667 212.355 70.4667 213.48 70.422C214.128 70.3997 214.382 70.5487 214.233 71.2491C213.882 72.9107 213.547 74.5798 213.271 76.2488C213.167 76.8673 212.854 76.9716 212.325 76.9343C211.506 76.8747 211.968 76.3233 212.012 76.0253C212.169 74.9225 212.303 73.7974 212.623 72.7319C212.944 71.6515 212.601 71.3683 211.58 71.5546L211.588 71.562Z" fill="#707070"/>
<path d="M149.773 70.4445C151.382 70.4445 152.04 71.2392 151.747 72.8288C151.524 74.0061 151.241 75.1759 151.062 76.3681C150.972 76.9791 150.607 76.9568 150.175 76.9493C149.504 76.927 149.743 76.4426 149.802 76.1371C150.004 74.9524 150.279 73.7826 150.466 72.5904C150.518 72.2402 150.935 71.5249 150.115 71.5919C149.452 71.6441 148.431 70.9735 148.148 72.188C147.835 73.5218 147.582 74.863 147.388 76.2191C147.291 76.8972 146.941 77.0611 146.375 76.9419C145.697 76.7928 146.055 76.2787 146.114 75.936C146.368 74.4681 146.755 73.0151 146.934 71.5398C147.046 70.6158 147.403 70.3327 148.282 70.4445C148.774 70.5115 149.281 70.4594 149.78 70.4594L149.773 70.4445Z" fill="#707070"/>
<path d="M183.452 76.8744C180.986 77.2693 181.738 74.8775 180.613 74.0728C180.062 74.6018 180.114 75.3544 179.987 76.0399C179.883 76.6062 179.726 77.0905 178.974 76.9489C178.132 76.7924 178.631 76.256 178.698 75.9058C178.951 74.3932 179.264 72.8955 179.525 71.3904C179.622 70.8017 179.749 70.3397 180.509 70.4441C181.522 70.5856 180.732 71.1892 180.799 71.5617C180.851 71.83 180.762 72.128 180.74 72.4484C182.059 71.9194 182.528 69.9225 184.465 70.5409C184.026 71.2637 183.37 71.7555 182.737 72.2249C181.939 72.8135 181.895 73.3947 182.312 74.2143C182.737 75.0489 183.057 75.9356 183.452 76.8744Z" fill="#707070"/>
<path d="M216.773 76.8226C217.69 74.7736 218.808 72.8512 219.873 70.8915C220.231 70.2358 220.79 70.4817 221.289 70.4519C221.863 70.4296 221.773 70.9064 221.825 71.2492C222.079 72.881 222.332 74.5202 222.578 76.152C222.63 76.5097 222.779 76.927 222.146 76.9344C221.676 76.9344 221.214 77.0089 221.229 76.2936C221.237 75.8838 221.229 75.3548 220.618 75.4516C219.881 75.5708 218.875 74.9077 218.457 76.0552C218.159 76.8748 217.653 77.1207 216.773 76.8077V76.8226ZM219.277 74.3563C221.311 74.5575 221.326 74.5202 220.536 71.9868C220.089 72.8214 219.694 73.5665 219.277 74.3563Z" fill="#707070"/>
<path d="M163.662 76.7777C164.742 74.7883 165.808 72.8435 166.851 70.8839C167.194 70.2282 167.767 70.4666 168.267 70.4591C168.818 70.4442 168.751 70.9211 168.803 71.2713C169.057 72.8584 169.31 74.453 169.526 76.0475C169.571 76.3977 169.817 76.9193 169.086 76.9491C168.58 76.9714 168.2 76.9342 168.185 76.2785C168.177 75.8985 168.185 75.3471 167.544 75.4663C166.806 75.6004 165.8 74.9522 165.398 76.0922C165.1 76.9267 164.601 77.1428 163.662 76.7852V76.7777ZM167.581 71.9792C167.007 72.8584 166.523 73.5365 166.344 74.4008C167.522 74.4654 167.934 73.6582 167.581 71.9792Z" fill="#707070"/>
<path d="M132.233 70.4295C133.507 70.4593 134.64 70.3252 134.863 71.7782C135.064 73.1268 134.245 74.3935 132.792 74.5127C131.503 74.6171 131.085 75.2132 131.063 76.3234C131.041 77.0461 130.549 76.9642 130.102 76.9269C129.431 76.8673 129.752 76.3681 129.804 76.0775C130.035 74.7288 130.37 73.4025 130.549 72.0464C130.705 70.8617 131.026 70.0271 132.24 70.4295H132.233ZM131.778 72.7766C131.652 73.2609 131.592 73.6111 132.106 73.6186C132.956 73.6335 133.388 73.1417 133.492 72.3445C133.559 71.8005 133.276 71.5099 132.725 71.4578C131.48 71.3385 132.032 72.4115 131.786 72.7766H131.778Z" fill="#707070"/>
<path d="M143.708 70.4592C142.635 72.5827 141.562 74.4753 140.273 76.2487C139.818 76.8746 139.147 77.0832 138.402 77.0013C138.164 76.9789 137.754 77.1056 137.799 76.6064C137.829 76.2711 137.873 75.9283 138.335 75.9208C139.624 75.8985 139.565 75.1906 139.267 74.2443C138.954 73.2608 138.723 72.2549 138.492 71.249C138.425 70.9584 138.045 70.4666 138.76 70.4517C139.162 70.4443 139.684 70.2282 139.796 70.9733C139.922 71.8227 140.161 72.6572 140.355 73.5216C141.852 72.9255 141.241 70.2654 143.708 70.4517V70.4592Z" fill="#707070"/>
<path d="M125.355 70.4441C125.929 70.4441 126.301 70.4367 126.681 70.4441C126.957 70.4516 127.307 70.3696 127.263 70.8465C127.233 71.2041 127.136 71.5767 126.696 71.4798C124.759 71.0402 124.714 72.3963 124.528 73.6705C124.401 74.5273 124.163 75.3693 124.059 76.2337C123.984 76.8447 123.671 76.9788 123.142 76.9415C122.352 76.8894 122.732 76.3603 122.792 76.0325C123.008 74.7285 123.373 73.4395 123.492 72.1281C123.619 70.7645 124.074 70.0269 125.363 70.4367L125.355 70.4441Z" fill="#707070"/>
<path d="M250.55 68.5741C250.214 69.8855 248.851 70.5561 247.696 69.9675C247.293 69.7589 247.077 69.4236 247.055 68.9765C247.04 68.7679 247.055 68.5592 247.331 68.5145C247.77 68.44 248.053 68.5071 248.284 69.0063C248.5 69.4832 249.052 69.364 249.29 68.969C249.626 68.4177 250.035 68.4102 250.542 68.5741H250.55Z" fill="#707070"/>
<path d="M14.6685 0.328915C14.7728 0.16499 14.8994 -0.118154 15.0932 0.0532229C15.2571 0.202246 14.9814 0.366171 14.8473 0.48539C14.7877 0.433232 14.7281 0.381074 14.6685 0.328915Z" fill="#707070"/>
</svg>
