<svg width="229" height="67" viewBox="0 0 229 67" fill="none" xmlns="http://www.w3.org/2000/svg">
<path d="M115.905 24.016C123.629 24.016 131.353 24.016 139.071 24.016C139.395 24.016 139.726 24.0095 140.05 24.0225C143.163 24.191 144.972 26.3949 144.207 29.3895C142.683 35.3592 141.062 41.3096 139.369 47.234C138.558 50.086 135.114 52.4065 132.014 52.4194C126.502 52.4324 120.989 52.4454 115.483 52.4C114.653 52.3935 114.283 52.5945 114.076 53.4176C113.544 55.5761 113.505 55.5696 111.319 55.5696C108.168 55.5696 105.009 55.5502 101.857 55.5826C101.098 55.5891 100.833 55.4724 101.079 54.6233C101.715 52.4389 101.676 52.4259 99.3669 52.4259C94.2564 52.4259 89.1459 52.4259 84.0289 52.4259C80.5657 52.4259 78.9184 50.436 79.7874 47.0849C81.3245 41.154 82.9264 35.2361 84.5996 29.3441C85.4492 26.343 88.8735 24.0225 92.1875 24.0225C97.7715 24.0225 103.355 24.042 108.939 24.0549C111.261 24.0549 113.576 24.0549 115.898 24.0549C115.898 24.042 115.898 24.029 115.898 24.0225L115.905 24.016ZM119.997 48.5239C121.08 48.5239 122.17 48.5239 123.253 48.5239C125.529 48.5239 126.904 47.4803 127.501 45.2829C128.791 40.5253 130.075 35.7611 131.346 30.997C131.82 29.2209 130.905 27.9894 129.057 27.9635C126.632 27.9311 124.206 27.9699 121.78 27.944C121.242 27.9375 121.022 28.119 120.898 28.6246C120.639 29.7071 120.308 30.7766 120.016 31.8526C118.57 37.1288 117.137 42.4115 115.671 47.6812C115.49 48.3424 115.554 48.5692 116.3 48.5368C117.526 48.4785 118.758 48.5239 119.99 48.5239H119.997ZM108.427 27.9181C105.852 27.9181 103.394 27.9181 100.936 27.9181C98.6016 27.9246 97.2462 28.9876 96.6365 31.2498C95.3848 35.9102 94.1332 40.5706 92.8815 45.2246C92.3108 47.3442 93.1798 48.5044 95.3848 48.5174C97.5185 48.5303 99.6587 48.4915 101.792 48.5368C102.525 48.5563 102.843 48.3813 103.044 47.6099C103.997 43.9153 105.035 40.2401 106.04 36.5584C106.819 33.7193 107.61 30.8738 108.427 27.9116V27.9181Z" fill="#707070"/>
<path d="M203.419 52.3937C199.106 52.3937 194.793 52.3937 190.481 52.3872C189.903 52.3872 189.32 52.3353 188.756 52.2316C186.103 51.752 184.624 49.5611 185.305 46.9619C186.823 41.1801 188.373 35.3983 189.988 29.6424C190.922 26.3043 194.041 24.0227 197.524 24.0227C206.545 24.0097 215.573 24.0097 224.594 24.0227C228.012 24.0227 229.627 25.9802 228.777 29.3054C227.337 34.9251 225.716 40.4995 224.276 46.1192C223.381 49.6065 221.072 51.4603 217.745 52.3094C217.298 52.4261 216.811 52.4326 216.344 52.4326C212.032 52.439 207.719 52.4326 203.406 52.4326C203.406 52.4196 203.406 52.4066 203.406 52.4002L203.419 52.3937ZM204.269 48.524C205.28 48.524 206.299 48.524 207.31 48.524C209.982 48.524 211.247 47.5842 211.934 45.0498C213.193 40.3893 214.438 35.7224 215.683 31.0619C216.176 29.2146 215.287 27.9895 213.387 27.9636C210.923 27.9377 208.458 27.9312 205.994 27.9636C204.139 27.9895 202.647 29.1368 202.167 30.9258C200.851 35.7937 199.547 40.668 198.263 45.5488C197.777 47.4027 198.607 48.4592 200.565 48.5175C201.798 48.5499 203.03 48.524 204.262 48.524H204.269Z" fill="#707070"/>
<path d="M159.662 35.087C161.919 33.8101 163.988 32.6434 166.05 31.4702C170.136 29.1497 174.228 26.8357 178.307 24.5087C178.859 24.1911 179.404 24.0355 180.046 24.042C182.419 24.0744 184.793 24.0549 187.238 24.0549C186.985 24.5476 186.57 24.6448 186.246 24.8328C182.056 27.2635 177.866 29.6877 173.644 32.073C172.944 32.4684 172.879 32.7601 173.275 33.4471C176.693 39.391 180.072 45.3543 183.463 51.3176C183.651 51.6546 183.833 51.9982 184.079 52.4648C181.317 52.4648 178.684 52.4648 176.044 52.4648C174.52 52.4648 172.996 52.426 171.478 52.4843C170.804 52.5102 170.46 52.2639 170.136 51.687C167.808 47.5322 165.421 43.4097 163.099 39.2484C162.73 38.5937 162.464 38.4641 161.809 38.8659C160.583 39.6243 158.981 40.0392 158.144 41.0892C157.334 42.1004 157.282 43.7208 156.906 45.0756C156.302 47.2664 155.693 49.4573 155.129 51.6546C154.966 52.2769 154.694 52.4973 154.026 52.4908C150.401 52.4519 146.775 52.4584 143.15 52.4908C142.417 52.4908 142.242 52.3871 142.456 51.5963C144.908 42.6643 147.32 33.7194 149.733 24.7744C149.882 24.217 150.096 23.9577 150.751 23.9707C152.852 24.0225 154.954 23.9901 157.061 23.9901C157.386 23.9901 157.716 24.0031 158.041 24.042C161.004 24.392 162.081 25.9606 161.329 28.845C160.803 30.8609 160.252 32.8702 159.662 35.0935V35.087Z" fill="#707070"/>
<path d="M44.6171 40.2272C45.6094 39.0604 46.6082 37.9261 47.5615 36.7529C47.9052 36.3251 48.3333 36.4223 48.7483 36.4223C54.1507 36.4223 59.553 36.3964 64.9554 36.4418C65.805 36.4482 66.1681 36.2019 66.3368 35.3787C66.6027 34.1083 66.9788 32.8638 67.3161 31.6128C67.9516 29.208 67.115 28.145 64.5922 28.145C57.3415 28.145 50.0908 28.145 42.5872 28.145C43.7286 26.8033 44.7468 25.5847 45.7845 24.3791C45.9985 24.1263 46.3293 24.2429 46.6082 24.2429C56.3233 24.2494 66.0384 24.2429 75.7601 24.2818C79.0287 24.2948 80.9484 26.6866 80.1247 29.8562C78.6201 35.6834 77.0377 41.4911 75.4163 47.2924C74.6316 50.099 71.35 52.6204 68.4056 52.6334C57.6723 52.6788 46.9389 52.6464 36.2056 52.6464C36.1472 52.6464 36.0888 52.601 35.9072 52.5362C36.9254 51.3306 37.9242 50.1638 38.897 48.9841C39.2472 48.5628 39.7012 48.7249 40.1098 48.7249C46.4914 48.7119 52.8731 48.7184 59.2547 48.7184C61.7386 48.7184 62.9514 47.7785 63.5999 45.3543C63.9631 43.9996 64.2744 42.6254 64.7154 41.2902C64.9878 40.4735 64.696 40.3957 63.9955 40.4022C57.9382 40.4216 51.8873 40.4151 45.8299 40.4022C45.4473 40.4022 45.0387 40.5318 44.6042 40.2401L44.6171 40.2272Z" fill="#707070"/>
<path d="M36.932 33.7388C35.2134 35.7352 33.5596 37.6798 31.8864 39.6113C31.2508 40.3438 30.6801 41.4716 29.9019 41.6531C29.1236 41.8346 28.1054 41.0957 27.2169 40.7003C20.3359 37.6798 13.9478 33.9138 8.81131 28.32C6.61924 25.9282 4.84873 23.2642 3.86295 20.1334C2.80582 16.7758 2.96147 13.5219 4.66714 10.3847C5.0368 9.69766 5.3935 9.0041 5.85397 8.31055C5.7048 10.6505 6.28849 12.783 7.50126 14.8572C8.26005 13.8979 8.98642 12.9969 9.79061 11.9793C10.4197 13.2173 11.0358 14.3127 11.8335 15.2915C12.08 15.5961 11.9632 15.7971 11.7687 16.0369C11.4249 16.4582 11.1331 16.9249 10.7504 17.3073C9.95923 18.0981 10.1603 18.6491 10.9191 19.401C16.6976 25.1568 23.6694 28.9422 31.2119 31.8007C33.0343 32.4878 34.9086 33.0517 36.9385 33.7323L36.932 33.7388Z" fill="#707070"/>
<path d="M12.9229 0.422251C11.334 3.21592 11.7426 5.86052 13.5196 8.4014C14.1487 9.69776 15.0307 10.7932 16.1527 11.6942C18.2604 14.1378 20.9 15.9009 23.6239 17.5602C27.1584 19.7187 30.907 21.4104 34.8501 22.6744C35.7451 22.9596 35.8683 23.2383 35.2068 23.9189C34.1237 25.0338 33.0925 26.194 32.0419 27.3413C31.776 27.633 31.5101 27.7756 31.095 27.5941C23.4812 24.2949 16.2953 20.3798 11.4572 13.3211C9.51161 10.4821 8.49988 7.35782 9.83588 3.91596C10.4196 2.41218 11.2821 1.08988 12.7673 0.286133C12.8192 0.331506 12.871 0.376879 12.9229 0.422251Z" fill="#707070"/>
<path d="M16.1594 11.6943C15.0375 10.7933 14.149 9.69786 13.5264 8.40149C19.8107 3.37807 26.9771 0.81774 35.032 1.08998C44.6498 1.41407 52.6334 5.32262 58.9891 12.5304C59.242 12.8156 59.6895 13.1916 59.3458 13.5351C58.9177 13.9629 58.587 13.4379 58.2951 13.1527C52.147 7.15698 44.8185 4.01329 36.1734 4.30497C28.7087 4.55776 22.0482 7.13105 16.1594 11.6878V11.6943Z" fill="#707070"/>
<path d="M5.01734 33.0971C8.11736 36.7399 11.8659 39.6113 15.9128 42.1198C18.5329 43.7468 21.2827 45.1079 24.2077 46.1061C24.8303 46.32 24.9794 46.5145 24.493 47.046C23.5202 48.1155 22.5863 49.2174 21.6459 50.3129C21.3217 50.6953 20.9974 50.8184 20.5175 50.5786C13.591 47.1432 7.31966 42.8911 2.93552 36.3445C0.938018 33.3628 -0.203414 30.109 0.0300604 26.4532C0.0884291 25.5522 0.276506 24.6901 0.659145 23.5364C0.607262 25.6106 0.912076 27.2958 1.97568 28.7672C2.68259 30.4201 3.77863 31.8072 5.01734 33.0841V33.0971Z" fill="#707070"/>
<path d="M1.84595 36.1306C2.94198 37.8807 4.11584 39.553 5.49075 41.0827C5.80205 41.4263 5.81502 41.8735 5.92527 42.2819C8.42215 51.6741 13.7013 58.83 22.6965 62.9914C24.2401 63.7044 25.8549 64.2229 27.4828 64.7026C27.8978 64.8257 28.7085 64.6831 28.501 65.4804C28.3129 66.1739 27.6903 65.7526 27.3012 65.6554C14.8038 62.4728 6.65812 54.7205 2.87064 42.431C2.24156 40.3957 1.89783 38.2955 1.84595 36.1306Z" fill="#707070"/>
<path d="M5.01724 33.0972C3.77204 31.8138 2.6825 30.4331 1.97559 28.7803C2.3712 26.6607 2.81869 24.5606 3.65531 22.3762C4.40113 23.8152 5.09507 25.1375 5.98357 26.3431C6.1911 26.6218 6.07436 26.8811 5.99654 27.1598C5.46474 29.1044 5.17938 31.0943 5.01724 33.1037V33.0972Z" fill="#707070"/>
<path d="M173.132 63.283C172.879 64.3071 172.581 65.3183 172.393 66.3489C172.295 66.8999 172.017 66.9971 171.569 66.9258C170.992 66.8286 171.303 66.4137 171.368 66.161C171.712 64.7609 172.133 63.3802 172.438 61.9737C172.62 61.1181 173.21 61.319 173.761 61.2801C174.507 61.2283 174.299 61.7922 174.358 62.1616C174.481 63.0173 174.585 63.8729 174.714 64.9035C175.499 63.8988 175.914 62.8876 176.355 61.9089C176.764 60.9884 177.471 61.3125 178.106 61.3255C178.411 61.3255 178.314 61.6366 178.288 61.8376C178.1 63.3413 177.912 64.8451 177.73 66.3489C177.672 66.8675 177.38 66.9906 176.907 66.9388C176.226 66.8675 176.589 66.4397 176.615 66.1415C176.699 65.2211 177.03 64.3201 176.868 63.1145C176.252 64.2812 175.72 65.2405 175.246 66.2258C175.026 66.686 174.805 67.0425 174.209 66.9323C173.56 66.8156 173.768 66.2647 173.703 65.8952C173.56 65.0331 173.489 64.1645 173.391 63.296C173.307 63.296 173.216 63.2895 173.132 63.283Z" fill="#707070"/>
<path d="M162.995 64.8323C162.995 62.4599 164.506 60.9367 166.647 61.1312C167.892 61.2478 168.527 61.922 168.566 63.1665C168.644 65.5388 167.237 67.075 165.058 66.9972C163.611 66.9454 162.995 66.2972 162.995 64.8258V64.8323ZM164.215 64.6703C164.228 65.8694 165.019 66.3685 166.031 65.9083C166.932 65.4999 167.581 64.0221 167.321 62.9591C167.159 62.272 166.66 62.0646 166.024 62.1034C165.084 62.1618 164.429 62.9655 164.26 64.2295C164.234 64.4045 164.221 64.586 164.215 64.6703Z" fill="#707070"/>
<path d="M206.668 64.5211C207.434 63.6137 208.199 62.7062 208.977 61.8117C209.178 61.5784 209.34 61.2737 209.742 61.2737C210.19 61.2737 210.508 61.2413 210.359 61.896C210.034 63.335 209.788 64.7998 209.535 66.2583C209.444 66.7768 209.217 67.0296 208.666 66.9324C207.991 66.8092 208.445 66.3814 208.445 66.0897C208.445 65.3832 208.867 64.7091 208.659 63.9118C208.037 64.1257 207.81 64.6961 207.434 65.0915C206.96 65.5906 206.539 66.1286 206.098 66.6601C205.819 66.9907 205.423 67.0296 205.112 66.874C204.814 66.7314 204.982 66.3425 205.028 66.0768C205.287 64.6572 205.611 63.2507 205.832 61.8247C205.923 61.2284 206.266 61.2478 206.668 61.2802C207.252 61.3321 206.967 61.7599 206.928 62.0191C206.805 62.8359 206.629 63.6461 206.474 64.4563C206.539 64.4758 206.61 64.4952 206.675 64.5211H206.668Z" fill="#707070"/>
<path d="M214.496 64.8323C215.501 63.6526 216.312 62.7452 217.064 61.7988C217.395 61.384 217.791 61.1118 218.257 61.3127C218.757 61.5331 218.387 61.9933 218.329 62.3303C218.108 63.6397 217.829 64.9425 217.622 66.2583C217.538 66.8158 217.278 67.0167 216.753 66.926C216.085 66.8093 216.5 66.3426 216.532 66.0768C216.63 65.2601 216.818 64.4499 217.025 63.3221C216.059 64.4564 215.294 65.3638 214.509 66.2583C214.301 66.4982 214.152 66.8287 213.802 66.9C213.329 66.9973 212.913 66.9908 213.05 66.2907C213.348 64.8064 213.653 63.3285 213.893 61.8377C213.984 61.2673 214.308 61.2479 214.736 61.2803C215.346 61.3192 215.034 61.7405 215.002 61.9933C214.872 62.8359 214.703 63.6656 214.489 64.8323H214.496Z" fill="#707070"/>
<path d="M198.775 63.432C199.041 63.4515 199.255 63.4515 199.463 63.4839C200.513 63.6654 201.091 63.2959 201.071 62.1681C201.071 61.9542 201.117 61.7338 201.194 61.5329C201.357 61.1051 201.746 61.2801 202.044 61.2801C202.472 61.2801 202.323 61.5847 202.278 61.8245C201.986 63.3089 201.674 64.7867 201.415 66.2776C201.318 66.8285 201.071 67.0165 200.546 66.9258C199.917 66.8156 200.299 66.3813 200.28 66.0766C200.28 65.9729 200.384 65.8498 200.358 65.772C200.202 65.3571 201.045 64.6312 200.059 64.5145C199.366 64.4302 198.393 64.1256 198.334 65.422C198.315 65.8109 198.205 66.2063 198.114 66.5887C197.984 67.1202 197.543 66.9387 197.219 66.9128C196.823 66.8869 196.953 66.5563 196.998 66.3294C197.284 64.8451 197.595 63.3607 197.854 61.8764C197.958 61.2801 198.308 61.2023 198.782 61.2865C199.404 61.4032 199.035 61.831 199.002 62.1227C198.957 62.5505 198.86 62.9718 198.775 63.432Z" fill="#707070"/>
<path d="M137.994 62.2588C137.209 62.0773 136.905 62.3884 136.82 63.1792C136.71 64.2098 136.405 65.221 136.256 66.2516C136.178 66.8155 135.932 66.9906 135.407 66.9322C134.713 66.8544 135.102 66.3877 135.147 66.122C135.374 64.7414 135.666 63.3672 135.906 61.9866C135.99 61.5069 136.12 61.2217 136.717 61.2606C137.722 61.3189 138.74 61.2995 139.752 61.2606C140.297 61.2412 140.446 61.4032 140.329 61.9412C140.024 63.3867 139.745 64.8321 139.499 66.284C139.402 66.8544 139.097 67.01 138.597 66.9128C137.942 66.7896 138.364 66.3489 138.403 66.0637C138.539 65.1368 138.656 64.2034 138.909 63.3089C139.168 62.3949 138.986 62.006 138.001 62.2459L137.994 62.2588Z" fill="#707070"/>
<path d="M184.164 62.2526C183.321 62.0516 183.042 62.4405 182.951 63.2573C182.847 64.2555 182.542 65.2342 182.406 66.2259C182.328 66.7704 182.127 66.9973 181.576 66.9325C180.908 66.8482 181.245 66.388 181.291 66.1093C181.524 64.7286 181.835 63.3545 182.062 61.9674C182.147 61.4359 182.335 61.2414 182.88 61.2609C183.852 61.2997 184.832 61.2997 185.811 61.2609C186.375 61.2414 186.596 61.371 186.466 61.9803C186.161 63.4258 185.869 64.8777 185.629 66.3297C185.539 66.8676 185.266 66.9584 184.806 66.926C184.092 66.8741 184.495 66.3945 184.533 66.1352C184.67 65.1759 184.786 64.1971 185.065 63.2702C185.344 62.3304 185.046 62.084 184.157 62.2461L184.164 62.2526Z" fill="#707070"/>
<path d="M130.361 61.2803C131.762 61.2803 132.334 61.9717 132.079 63.3545C131.885 64.3786 131.638 65.3963 131.483 66.4334C131.405 66.9649 131.087 66.9455 130.711 66.939C130.127 66.9195 130.335 66.4982 130.387 66.2325C130.562 65.2018 130.802 64.1842 130.964 63.1471C131.009 62.8424 131.372 62.2202 130.659 62.2785C130.082 62.3239 129.193 61.7405 128.947 62.7971C128.675 63.9573 128.454 65.1241 128.285 66.3038C128.201 66.8936 127.896 67.0362 127.403 66.9325C126.813 66.8029 127.124 66.3556 127.176 66.0574C127.397 64.7805 127.734 63.5166 127.89 62.2331C127.987 61.4294 128.298 61.1831 129.064 61.2803C129.492 61.3387 129.933 61.2933 130.367 61.2933L130.361 61.2803Z" fill="#707070"/>
<path d="M159.675 66.8741C157.528 67.2176 158.183 65.1369 157.204 64.4369C156.724 64.8971 156.769 65.5518 156.659 66.1481C156.568 66.6407 156.432 67.062 155.777 66.9389C155.044 66.8028 155.479 66.3361 155.537 66.0314C155.758 64.7156 156.03 63.4128 156.257 62.1034C156.341 61.5914 156.452 61.1895 157.113 61.2802C157.995 61.4034 157.308 61.9284 157.366 62.2525C157.411 62.4859 157.334 62.7451 157.314 63.0238C158.462 62.5636 158.871 60.8265 160.557 61.3645C160.174 61.9932 159.603 62.421 159.052 62.8294C158.358 63.3415 158.319 63.847 158.683 64.56C159.052 65.286 159.331 66.0573 159.675 66.8741Z" fill="#707070"/>
<path d="M188.677 66.8288C189.475 65.0463 190.448 63.3739 191.375 61.6692C191.687 61.0988 192.173 61.3127 192.608 61.2868C193.107 61.2673 193.029 61.6822 193.075 61.9803C193.295 63.3999 193.516 64.8259 193.73 66.2454C193.775 66.5565 193.905 66.9195 193.353 66.926C192.945 66.926 192.543 66.9908 192.556 66.3686C192.562 66.0121 192.556 65.5518 192.024 65.6361C191.382 65.7398 190.506 65.1629 190.143 66.1611C189.884 66.8741 189.443 67.088 188.677 66.8158V66.8288ZM190.857 64.6833C192.627 64.8583 192.64 64.8259 191.953 62.6221C191.563 63.348 191.22 63.9962 190.857 64.6833Z" fill="#707070"/>
<path d="M142.45 66.7899C143.39 65.0592 144.318 63.3675 145.225 61.6627C145.524 61.0923 146.023 61.2998 146.458 61.2933C146.938 61.2803 146.879 61.6952 146.925 61.9998C147.145 63.3804 147.366 64.7675 147.554 66.1547C147.593 66.4593 147.807 66.913 147.171 66.939C146.73 66.9584 146.399 66.926 146.386 66.3556C146.38 66.025 146.386 65.5454 145.829 65.6491C145.187 65.7658 144.311 65.2018 143.961 66.1936C143.701 66.9195 143.267 67.1075 142.45 66.7964V66.7899ZM145.861 62.6156C145.362 63.3804 144.94 63.9703 144.784 64.7222C145.809 64.7784 146.168 64.0762 145.861 62.6156Z" fill="#707070"/>
<path d="M115.094 61.2673C116.203 61.2932 117.189 61.1765 117.383 62.4405C117.558 63.6137 116.845 64.7156 115.58 64.8193C114.458 64.9101 114.095 65.4286 114.076 66.3944C114.056 67.0231 113.628 66.9518 113.239 66.9194C112.656 66.8676 112.934 66.4333 112.98 66.1805C113.181 65.0073 113.473 63.8535 113.628 62.6738C113.765 61.6432 114.043 60.9172 115.101 61.2673H115.094ZM114.698 63.309C114.588 63.7304 114.536 64.035 114.984 64.0415C115.723 64.0545 116.099 63.6267 116.19 62.9331C116.248 62.4599 116.002 62.2071 115.522 62.1618C114.439 62.058 114.919 62.9914 114.705 63.309H114.698Z" fill="#707070"/>
<path d="M125.082 61.2933C124.148 63.1406 123.214 64.787 122.092 66.3297C121.696 66.8741 121.113 67.0556 120.464 66.9843C120.257 66.9649 119.9 67.0751 119.939 66.6408C119.965 66.3491 120.004 66.0509 120.406 66.0445C121.528 66.025 121.476 65.4092 121.216 64.586C120.944 63.7304 120.743 62.8554 120.542 61.9803C120.483 61.7276 120.153 61.2997 120.775 61.2868C121.126 61.2803 121.58 61.0923 121.677 61.7405C121.787 62.4794 121.995 63.2054 122.163 63.9573C123.467 63.4388 122.935 61.1247 125.082 61.2868V61.2933Z" fill="#707070"/>
<path d="M109.108 61.2803C109.607 61.2803 109.932 61.2738 110.263 61.2803C110.502 61.2867 110.807 61.2154 110.768 61.6303C110.742 61.9414 110.658 62.2655 110.275 62.1812C108.589 61.7988 108.55 62.9785 108.388 64.0869C108.278 64.8323 108.07 65.5648 107.98 66.3167C107.915 66.8482 107.642 66.9648 107.182 66.9324C106.494 66.8871 106.825 66.4268 106.877 66.1416C107.065 65.0073 107.383 63.886 107.487 62.7452C107.597 61.559 107.993 60.9173 109.115 61.2738L109.108 61.2803Z" fill="#707070"/>
<path d="M218.076 59.6533C217.784 60.7941 216.597 61.3775 215.592 60.8654C215.242 60.6839 215.054 60.3922 215.034 60.0033C215.021 59.8218 215.034 59.6404 215.274 59.6015C215.657 59.5366 215.903 59.595 216.104 60.0293C216.292 60.4441 216.772 60.3404 216.98 59.9969C217.272 59.5172 217.628 59.5107 218.069 59.6533H218.076Z" fill="#707070"/>
<path d="M12.7673 0.286127C12.8581 0.143527 12.9684 -0.102783 13.137 0.0462992C13.2797 0.175936 13.0397 0.318536 12.923 0.422246C12.8711 0.376873 12.8192 0.3315 12.7673 0.286127Z" fill="#707070"/>
</svg>
