<svg width="115" height="115" fill="none" xmlns="http://www.w3.org/2000/svg"><g filter="url(#filter0_i_1836_1253)"><rect width="115" height="115" rx="15" fill="#F8F4F4"/></g><g filter="url(#filter1_d_1836_1253)"><path d="M53.01 24.775L4 45.456l60.295 36.82 46.719-36.82-58.005-20.68z" fill="#fff"/><path d="M5.198 53.328L4 45.397l60.295 36.482v11.104L5.198 53.327z" fill="#707070"/><path d="M111.014 45.397l-1.997 9.12-44.722 38.466V81.879l46.719-36.483z" fill="#D9D9D9"/></g><g filter="url(#filter2_d_1836_1253)"><path d="M65.591 52.229c-.924.314-9.55 4.71-22.797 3.14-9.802-1.162-28.412-13.541-28.412-13.541l-2.396-1.983 40.666-17.448 41.59 15.862v1.095c-3.388 3.454-12.014 9.42-19.408 10.049-3.697.314-8.318 2.512-9.243 2.826z" fill="#C1141E"/><path d="M30.095 49.186l-18.11-9.342.308 2.36c6.752 4.553 21.792 13.66 31.92 14.874 5.493.658 14.12-.16 19.644-3.036 5.832-3.035 8.827-3.642 9.515-3.642 9.593 0 17.7-6.78 20.87-10.624v-1.518c-1.125 1.012-4.787 3.703-9.207 6.374-5.525 3.34-9.208 2.429-12.891 3.643-5.525 1.821-8.594 4.25-17.188 5.464-13.623 1.925-20.053-2.428-24.861-4.553z" fill="#9B171F"/></g><g filter="url(#filter3_d_1836_1253)"><path d="M23.965 34.15L52.715 22l28.75 11.246c-1.14 1.005-4.538 3.376-9.013 4.823-5.595 1.808-20.514 6.027-21.135 5.726-.622-.301-10.257-2.411-12.433-5.726-1.74-2.653-10.67-3.717-14.919-3.918z" fill="#D9D9D9"/></g><defs><filter id="filter0_i_1836_1253" x="0" y="0" width="117" height="117" filterUnits="userSpaceOnUse" color-interpolation-filters="sRGB"><feFlood flood-opacity="0" result="BackgroundImageFix"/><feBlend in="SourceGraphic" in2="BackgroundImageFix" result="shape"/><feColorMatrix in="SourceAlpha" values="0 0 0 0 0 0 0 0 0 0 0 0 0 0 0 0 0 0 127 0" result="hardAlpha"/><feOffset dx="2" dy="2"/><feGaussianBlur stdDeviation="3"/><feComposite in2="hardAlpha" operator="arithmetic" k2="-1" k3="1"/><feColorMatrix values="0 0 0 0 0 0 0 0 0 0 0 0 0 0 0 0 0 0 0.05 0"/><feBlend in2="shape" result="effect1_innerShadow_1836_1253"/></filter><filter id="filter1_d_1836_1253" x="1" y="23.775" width="113.014" height="74.207" filterUnits="userSpaceOnUse" color-interpolation-filters="sRGB"><feFlood flood-opacity="0" result="BackgroundImageFix"/><feColorMatrix in="SourceAlpha" values="0 0 0 0 0 0 0 0 0 0 0 0 0 0 0 0 0 0 127 0" result="hardAlpha"/><feOffset dy="2"/><feGaussianBlur stdDeviation="1.5"/><feComposite in2="hardAlpha" operator="out"/><feColorMatrix values="0 0 0 0 0 0 0 0 0 0 0 0 0 0 0 0 0 0 0.25 0"/><feBlend in2="BackgroundImageFix" result="effect1_dropShadow_1836_1253"/><feBlend in="SourceGraphic" in2="effect1_dropShadow_1836_1253" result="shape"/></filter><filter id="filter2_d_1836_1253" x="8.986" y="20.396" width="88.257" height="40.897" filterUnits="userSpaceOnUse" color-interpolation-filters="sRGB"><feFlood flood-opacity="0" result="BackgroundImageFix"/><feColorMatrix in="SourceAlpha" values="0 0 0 0 0 0 0 0 0 0 0 0 0 0 0 0 0 0 127 0" result="hardAlpha"/><feOffset dy="1"/><feGaussianBlur stdDeviation="1.5"/><feComposite in2="hardAlpha" operator="out"/><feColorMatrix values="0 0 0 0 0 0 0 0 0 0 0 0 0 0 0 0 0 0 0.25 0"/><feBlend in2="BackgroundImageFix" result="effect1_dropShadow_1836_1253"/><feBlend in="SourceGraphic" in2="effect1_dropShadow_1836_1253" result="shape"/></filter><filter id="filter3_d_1836_1253" x="20.965" y="20" width="63.5" height="27.811" filterUnits="userSpaceOnUse" color-interpolation-filters="sRGB"><feFlood flood-opacity="0" result="BackgroundImageFix"/><feColorMatrix in="SourceAlpha" values="0 0 0 0 0 0 0 0 0 0 0 0 0 0 0 0 0 0 127 0" result="hardAlpha"/><feOffset dy="1"/><feGaussianBlur stdDeviation="1.5"/><feComposite in2="hardAlpha" operator="out"/><feColorMatrix values="0 0 0 0 0 0 0 0 0 0 0 0 0 0 0 0 0 0 0.25 0"/><feBlend in2="BackgroundImageFix" result="effect1_dropShadow_1836_1253"/><feBlend in="SourceGraphic" in2="effect1_dropShadow_1836_1253" result="shape"/></filter></defs></svg>