<svg xmlns="http://www.w3.org/2000/svg" width="20" height="15" fill="#707070"><path d="M19.479 1.54v11.77c-.006.011-.015.022-.017.034-.14.913-.903 1.517-1.88 1.49-.848-.024-1.698-.005-2.548-.005H1.815c-1.057-.001-1.81-.722-1.811-1.756-.006-3.766-.006-7.53.005-11.296.001-.263.065-.547.178-.784.325-.68.905-.972 1.648-.972h15.938c.54.026.99.232 1.335.659.206.254.297.552.37.86zm-2.004-.364H1.97l7.784 7.701 7.72-7.701zm-5.448 7.06c-.043.051-.082.11-.13.158l-1.642 1.637c-.325.323-.628.324-.955.002L7.599 8.349c-.048-.048-.098-.093-.113-.107L2.04 13.676h15.436l-5.45-5.44zM1.15 12.77l5.434-5.424L1.15 1.968V12.77zm11.777-5.362l5.397 5.385V2.021l-5.397 5.386z"/></svg>