<svg width="115" height="115" fill="none" xmlns="http://www.w3.org/2000/svg"><g filter="url(#filter0_i_1875_14752)"><rect width="115" height="115" rx="15" fill="#F8F4F4"/></g><g filter="url(#filter1_d_1875_14752)"><path d="M17.01 61.207h80.215l11.796 34.897H6l11.01-34.897z" fill="#C1141E"/></g><g filter="url(#filter2_d_1875_14752)"><path fill-rule="evenodd" clip-rule="evenodd" d="M73.874 17.718a12.598 12.598 0 00-2.229 5.19c.005.115.013.23.02.346.01.176.02.35.024.52v36.262c0 .151.003.3.007.449.003.147.007.294.007.44a73.512 73.512 0 004.462-5.725c1.845-2.626 3.852-5.105 6.143-7.37 3.78-3.733 7.53-7.5 11.282-11.268l3.839-3.852c.125-.123.235-.262.342-.398l.062-.08a2.796 2.796 0 00-.198-.242c-1.084-1.08-2.166-2.16-3.247-3.241a1116.383 1116.383 0 00-7.951-7.891C84.435 18.906 82.304 17.1 79.668 16h-3.167c-.091.143-.233.175-.374.206-.06.013-.12.027-.174.048-.815.32-1.555.759-2.08 1.464zM71.66 23.2l-.016-.294c-.045.163-.087.328-.13.492-.088.344-.177.688-.293 1.025-1.28 3.676-3.838 6.225-7.147 8.123a1.71 1.71 0 01-1.036.191c-1.373-.118-2.618-.614-3.802-1.287-.743-.42-1.517-.736-2.382-.762-2.105-.065-3.85 1.38-4.41 3.711-.298 1.234-.343 2.493-.389 3.753-.02.593-.042 1.186-.09 1.777 1.313.094 2.627.144 3.941.194.577.022 1.153.043 1.73.069.916.042 1.833.088 2.75.134 1.834.092 3.668.184 5.503.247 1.706.059 2.508 1.142 2.18 2.804a2.315 2.315 0 00-.047.374l-.045 1.575a221.503 221.503 0 01-.095 3.027 272.261 272.261 0 01-.255 4.778 1.808 1.808 0 01-1.827 1.722c-1.639.027-3.278-.061-4.916-.149a110.85 110.85 0 00-3.1-.137c-.824-.022-1.647-.07-2.47-.116a81.16 81.16 0 00-2.38-.114c-.544-.016-1.087-.05-1.63-.083l-.763-.044a14.612 14.612 0 01-4.02 5.88c-.4.362-.776.75-1.152 1.137-.167.172-.334.345-.503.515-1.594 1.6-2.362 3.56-2.44 5.786-.105 3.08 1.145 5.533 3.555 7.421.214 0 .39.092.57.186l.133.068c2.483 1.214 4.94 1.224 7.485.07 6.905-3.133 12.351-8.05 17.123-13.807.08-.098.168-.19.256-.28l.126-.133c.006-.038.014-.076.023-.114l-.007-.348c-.004-.181-.008-.361-.008-.541V23.788c0-.196-.01-.392-.022-.587z" fill="#fff"/><path fill-rule="evenodd" clip-rule="evenodd" d="M71.7 60.936a2.722 2.722 0 00-.023.114v.352-.352l-.119.124c-.09.095-.182.19-.268.293-4.772 5.757-10.218 10.67-17.123 13.807-2.541 1.153-5.002 1.143-7.485-.07l-.127-.067c-.181-.098-.36-.194-.577-.187.205.221.409.445.612.668 1.14 1.253 2.288 2.513 3.665 3.49 2.521 1.786 5.294 2.098 8.144.812 5.047-2.278 9.513-5.385 13.3-9.44v-.01l.114-.096c.088-.074.176-.148.257-.227 3.194-3.152 5.888-6.713 8.539-10.31.239-.324.477-.65.714-.977 1.3-1.786 2.6-3.57 4.19-5.121.622-.604 1.302-1.225 2.15-1.385 1.158-.22 2.145-.723 3.067-1.392 3.201-2.31 5.864-5.198 8.513-8.07l.14-.152c1.351-1.46 1.733-3.354 1.479-5.363-.266-2.16-1.46-3.756-3.031-5.135l-.119.146a4.158 4.158 0 01-.286.332c-1.462 1.464-2.922 2.93-4.382 4.395-3.57 3.584-7.14 7.169-10.74 10.725-2.29 2.265-4.296 4.744-6.141 7.37a75.953 75.953 0 01-4.463 5.726z" fill="#707070"/><path d="M51.963 39.93c1.889.137 3.781.179 5.67.263 2.752.127 5.502.282 8.254.38 1.706.06 2.508 1.145 2.18 2.805a2.325 2.325 0 00-.047.374c-.047 1.533-.078 3.068-.14 4.602a231.064 231.064 0 01-.255 4.778A1.809 1.809 0 0165.8 54.86c-2.672.044-5.344-.217-8.016-.286-1.616-.042-3.231-.184-4.85-.23-.798-.023-1.594-.084-2.392-.127.392-1.234.728-2.478.794-3.78 1.288.245 2.597.127 3.894.203 2.745.164 5.496.214 8.24.412.236.018.468.024.482-.328.079-1.97.163-3.939.254-5.907.017-.36-.127-.459-.476-.477-2.136-.108-4.27-.27-6.408-.354-1.867-.073-3.736-.104-5.6-.275l.241-3.782z" fill="#707070"/><path d="M51.732 43.707c1.862.17 3.731.202 5.599.274 2.138.084 4.272.247 6.408.355.349.018.493.117.476.477a613.854 613.854 0 00-.254 5.907c-.014.352-.246.345-.483.328-2.743-.199-5.494-.255-8.239-.412-1.297-.076-2.606.042-3.894-.204.13-2.24.258-4.483.387-6.725z" fill="#fff"/></g><g filter="url(#filter3_d_1875_14752)"><path d="M25.966 63.586l2.588 8.104 6.995 3-6.995 2.998-2.588 8.105-2.589-8.105-6.995-2.999 6.995-2.999 2.589-8.104z" fill="#fff"/></g><g filter="url(#filter4_d_1875_14752)"><path d="M37.945 76.277l1.725 5.5 4.663 2.035-4.663 2.035-1.725 5.5-1.726-5.5-4.663-2.035 4.663-2.035 1.726-5.5z" fill="#fff"/></g><defs><filter id="filter0_i_1875_14752" x="0" y="0" width="117" height="117" filterUnits="userSpaceOnUse" color-interpolation-filters="sRGB"><feFlood flood-opacity="0" result="BackgroundImageFix"/><feBlend in="SourceGraphic" in2="BackgroundImageFix" result="shape"/><feColorMatrix in="SourceAlpha" values="0 0 0 0 0 0 0 0 0 0 0 0 0 0 0 0 0 0 127 0" result="hardAlpha"/><feOffset dx="2" dy="2"/><feGaussianBlur stdDeviation="3"/><feComposite in2="hardAlpha" operator="arithmetic" k2="-1" k3="1"/><feColorMatrix values="0 0 0 0 0 0 0 0 0 0 0 0 0 0 0 0 0 0 0.05 0"/><feBlend in2="shape" result="effect1_innerShadow_1875_14752"/></filter><filter id="filter1_d_1875_14752" x="3" y="60.207" width="109.021" height="40.898" filterUnits="userSpaceOnUse" color-interpolation-filters="sRGB"><feFlood flood-opacity="0" result="BackgroundImageFix"/><feColorMatrix in="SourceAlpha" values="0 0 0 0 0 0 0 0 0 0 0 0 0 0 0 0 0 0 127 0" result="hardAlpha"/><feOffset dy="2"/><feGaussianBlur stdDeviation="1.5"/><feComposite in2="hardAlpha" operator="out"/><feColorMatrix values="0 0 0 0 0 0 0 0 0 0 0 0 0 0 0 0 0 0 0.25 0"/><feBlend in2="BackgroundImageFix" result="effect1_dropShadow_1875_14752"/><feBlend in="SourceGraphic" in2="effect1_dropShadow_1875_14752" result="shape"/></filter><filter id="filter2_d_1875_14752" x="39.421" y="15" width="64.514" height="70.703" filterUnits="userSpaceOnUse" color-interpolation-filters="sRGB"><feFlood flood-opacity="0" result="BackgroundImageFix"/><feColorMatrix in="SourceAlpha" values="0 0 0 0 0 0 0 0 0 0 0 0 0 0 0 0 0 0 127 0" result="hardAlpha"/><feOffset dy="2"/><feGaussianBlur stdDeviation="1.5"/><feComposite in2="hardAlpha" operator="out"/><feColorMatrix values="0 0 0 0 0 0 0 0 0 0 0 0 0 0 0 0 0 0 0.25 0"/><feBlend in2="BackgroundImageFix" result="effect1_dropShadow_1875_14752"/><feBlend in="SourceGraphic" in2="effect1_dropShadow_1875_14752" result="shape"/></filter><filter id="filter3_d_1875_14752" x="13.382" y="62.586" width="25.166" height="28.207" filterUnits="userSpaceOnUse" color-interpolation-filters="sRGB"><feFlood flood-opacity="0" result="BackgroundImageFix"/><feColorMatrix in="SourceAlpha" values="0 0 0 0 0 0 0 0 0 0 0 0 0 0 0 0 0 0 127 0" result="hardAlpha"/><feOffset dy="2"/><feGaussianBlur stdDeviation="1.5"/><feComposite in2="hardAlpha" operator="out"/><feColorMatrix values="0 0 0 0 0 0 0 0 0 0 0 0 0 0 0 0 0 0 0.25 0"/><feBlend in2="BackgroundImageFix" result="effect1_dropShadow_1875_14752"/><feBlend in="SourceGraphic" in2="effect1_dropShadow_1875_14752" result="shape"/></filter><filter id="filter4_d_1875_14752" x="28.556" y="75.277" width="18.778" height="21.07" filterUnits="userSpaceOnUse" color-interpolation-filters="sRGB"><feFlood flood-opacity="0" result="BackgroundImageFix"/><feColorMatrix in="SourceAlpha" values="0 0 0 0 0 0 0 0 0 0 0 0 0 0 0 0 0 0 127 0" result="hardAlpha"/><feOffset dy="2"/><feGaussianBlur stdDeviation="1.5"/><feComposite in2="hardAlpha" operator="out"/><feColorMatrix values="0 0 0 0 0 0 0 0 0 0 0 0 0 0 0 0 0 0 0.25 0"/><feBlend in2="BackgroundImageFix" result="effect1_dropShadow_1875_14752"/><feBlend in="SourceGraphic" in2="effect1_dropShadow_1875_14752" result="shape"/></filter></defs></svg>