<svg xmlns="http://www.w3.org/2000/svg" width="22" height="15" viewBox="0 0 22 15" fill="none">
    <path d="M0.283207 7.05929C1.12595 5.74779 5.41454 0 11 0C16.5842 0 20.874 5.74771 21.7168 7.05929L22 7.5L21.7168 7.94071C20.874 9.25221 16.5855 15 11 15C5.41578 15 1.12604 9.25233 0.283207 7.94071L0 7.5L0.283207 7.05929ZM11 13.3333C15.3328 13.3333 18.9003 8.92692 19.9421 7.49933C18.9023 6.07058 15.3439 1.66667 11 1.66667C6.6675 1.66667 3.10015 6.07246 2.05786 7.50067C3.09775 8.92946 6.65612 13.3333 11 13.3333ZM11 3.33333C13.3693 3.33333 15.2969 5.2025 15.2969 7.5C15.2969 9.7975 13.3693 11.6667 11 11.6667C8.63066 11.6667 6.70312 9.7975 6.70312 7.5C6.70312 5.2025 8.63066 3.33333 11 3.33333ZM11 10C12.4216 10 13.5781 8.8785 13.5781 7.5C13.5781 6.1215 12.4216 5 11 5C9.57842 5 8.42188 6.1215 8.42188 7.5C8.42188 8.8785 9.57842 10 11 10Z" fill="#707070"/>
</svg>