<svg width="22" height="18" fill="none" xmlns="http://www.w3.org/2000/svg"><g clip-path="url(#clip0_610_4984)"><path d="M20.626 7.277h0a8.9 8.9 0 00.157-.639c.02-.095.042-.193.066-.297v-.814l-.001-.005a2.636 2.636 0 01-.038-.228v-.002c-.086-.781-.307-1.487-.755-2.106h0c-.654-.903-1.574-1.439-2.738-1.668h0c-.951-.187-1.86-.221-2.747.04l6.056 5.718zm0 0c-.229.77-.652 1.465-1.203 2.11-.432.506-.896.99-1.388 1.441a1317.6 1317.6 0 01-5.17 4.71l-1.615 1.467h0m9.376-9.728l-9.376 9.728m0 0c-.19.172-.27.176-.284.176m.284-.176l-.284.176M9.327 2.564h0C7.955 1.54 6.45 1.146 4.73 1.489c-1.142.228-2.067.69-2.723 1.529l7.32-.454zm0 0c.308.23.608.462.91.696l.424.327.305.235M9.327 2.564l1.639 1.258m0 0l.305-.235m-.305.235l.305-.235m0 0l.406-.316m-.406.316l.406-.316m-.711 13.91c-.015 0-.097-.005-.287-.178m.287.178l-.287-.178m0 0c-.7-.637-1.401-1.272-2.102-1.906m2.102 1.906l-2.102-1.906m0 0a463.69 463.69 0 01-5.256-4.807m5.256 4.807L3.321 10.29m0 0C2.194 9.237 1.37 8.045 1.15 6.612l2.172 3.678zm8.356-7.019c.3-.234.595-.465.904-.688m-.904.688l.904-.688m0 0c.624-.45 1.27-.814 1.99-1.026l-1.99 1.026zM1.149 6.612c-.202-1.317.026-2.532.858-3.594l-.858 3.594z" stroke="#707070"/></g><defs><clipPath id="clip0_610_4984"><path fill="#fff" transform="translate(.58 .868)" d="M0 0h20.769v16.813H0z"/></clipPath></defs></svg>