<svg xmlns="http://www.w3.org/2000/svg" width="108" height="58" fill="none"><path d="M2 1.487a.5.5 0 10-1-.038l1 .038zm27.5 39.981l-.237.44.237-.44zm38-2.305l.413.282-.413-.282zm-8-6.195l-.47-.168.47.168zm4.5 18.5l-.354.354.354-.354zm23.09 5.474l.102.49.028-.006.026-.009-.155-.475zm18.978-17.924a.5.5 0 00-.623-.334l-4.307 1.305a.5.5 0 10.29.957l3.828-1.16 1.16 3.828a.5.5 0 10.957-.29l-1.305-4.306zM.973 2.473a.5.5 0 001 .016l-1-.016zm1.014 1.992a.5.5 0 10-1 .03l1-.03zm-.89 2.05a.5.5 0 10.997-.078l-.997.078zm1.2 1.886a.5.5 0 00-.99.128l.99-.128zm-.678 2.135a.5.5 0 10.984-.18l-.984.18zm1.392 1.754a.5.5 0 00-.972.233l.972-.233zm-.444 2.194a.5.5 0 10.958-.287l-.958.287zm1.577 1.588a.5.5 0 00-.94.34l.94-.34zm-.195 2.23a.5.5 0 10.92-.394l-.92.393zM5.696 19.7a.5.5 0 00-.896.444l.896-.444zm.057 2.236a.5.5 0 10.87-.494l-.87.494zm1.893 1.195a.5.5 0 10-.84.541l.84-.541zm.305 2.218a.5.5 0 10.81-.586l-.81.586zm2.01.986a.5.5 0 00-.778.627l.779-.627zm.534 2.174a.5.5 0 00.746-.665l-.746.665zm2.098.78a.5.5 0 00-.714.7l.714-.7zm.736 2.113a.5.5 0 10.681-.732l-.681.732zm2.159.586a.5.5 0 00-.65.76l.65-.76zm.918 2.045a.5.5 0 10.618-.786l-.619.786zm2.2.41a.5.5 0 10-.588.81l.588-.81zm1.064 1.966a.5.5 0 10.559-.83l-.56.83zm2.23.258a.5.5 0 10-.533.847l.532-.847zm1.186 1.89a.5.5 0 00.507-.861l-.507.862zm2.242.128a.5.5 0 00-.485.875l.485-.875zm1.288 1.833a.5.5 0 10.467-.884l-.467.884zm2.24.044a.5.5 0 00-.464.886l.463-.886zm1.328 1.805a.5.5 0 10.42-.907l-.42.907zm2.224-.178a.5.5 0 00-.334.943l.334-.943zm1.602 1.553a.5.5 0 00.27-.963l-.27.963zm2.185-.483a.5.5 0 00-.217.976l.217-.976zm1.761 1.369a.5.5 0 10.173-.985l-.173.985zm2.131-.682a.5.5 0 00-.134.991l.134-.99zm1.866 1.225a.5.5 0 10.099-.995l-.099.995zm2.074-.834a.5.5 0 10-.065.997l.065-.997zm1.947 1.094a.5.5 0 00.032-1l-.032 1zm2.013-.97a.5.5 0 00.002 1l-.002-1zm2.016.964a.5.5 0 00-.035-1l.035 1zm1.943-1.104a.5.5 0 00.07.998l-.07-.998zm2.08.817a.5.5 0 10-.11-.994l.11.994zm1.849-1.252a.5.5 0 10.153.988l-.153-.989zm2.145.63a.5.5 0 00-.203-.98l.203.98zm1.71-1.435a.5.5 0 10.263.965l-.262-.965zm2.204.359a.5.5 0 10-.336-.942l.336.942zm1.465-1.686a.5.5 0 00.432.901l-.432-.901zm2.232-.121a.5.5 0 00-.56-.828l.56.828zm.879-2.037a.5.5 0 10.73.683l-.73-.683zm1.915-.959a.5.5 0 00-.863-.504l.863.504zm-.12-2.084a.5.5 0 00.944.33l-.944-.33zm1.341-1.604a.5.5 0 10-.998-.05l.998.05zm-1.223-1.667a.5.5 0 00.942-.337l-.942.337zm-.139-2.065a.5.5 0 10-.719.695l.72-.695zm-2.067-.252a.5.5 0 00.422-.907l-.422.907zm-1.496-1.447a.5.5 0 00-.116.994l.116-.994zm-1.784 1.068a.5.5 0 00-.21-.978l.21.978zm-2.073-.191a.5.5 0 10.564.826l-.564-.826zm-.543 1.997a.5.5 0 00-.856-.516l.856.516zm-1.62 1.392a.5.5 0 00.956.294l-.955-.294zm.466 2.208a.5.5 0 10-.98-.198l.98.198zm-1.279 1.863a.5.5 0 10.997.085l-.997-.085zm.954 2.045a.5.5 0 10-.999.043l1-.043zm-.765 2.123a.5.5 0 10.984-.18l-.984.18zm1.468 1.716a.5.5 0 10-.95.313l.95-.313zm-.167 2.25a.5.5 0 10.901-.433l-.901.433zm1.856 1.287a.5.5 0 00-.845.534l.845-.534zm.352 2.23a.5.5 0 10.788-.616l-.788.615zm2.076.892a.5.5 0 10-.733.68l.733-.68zm.753 2.148a.5.5 0 00.664-.747l-.664.747zm2.229.489a.5.5 0 10-.574.819l.574-.82zm1.214 1.93a.5.5 0 00.481-.876l-.481.876zm2.282-.003a.5.5 0 10-.392.92l.392-.92zm1.573 1.651a.5.5 0 00.307-.952l-.306.952zm2.245-.416a.5.5 0 00-.228.974l.228-.974zm1.821 1.373a.5.5 0 00.156-.988l-.156.988zm2.16-.74a.5.5 0 00-.091.995l.09-.996zm1.99 1.12a.5.5 0 00.03-1l-.03 1zm2.05-.998a.5.5 0 10.027 1l-.027-1zm2.104.886a.5.5 0 10-.082-.996l.082.996zm1.926-1.222a.5.5 0 00.143.99l-.143-.99zm2.142.446a.5.5 0 10-.394-.919l.394.92zm1.255-1.711a.5.5 0 10.467.884l-.467-.884zm2.12-.056a.5.5 0 00-.522-.854l.521.854zm1.025-1.86a.5.5 0 00.569.822l-.57-.823zm2.096-.296a.5.5 0 00-.611-.791l.611.79zm.819-1.956a.5.5 0 00.65.76l-.65-.76zm2.06-.51a.5.5 0 00-.687-.726l.687.726zm.621-2.024a.5.5 0 00.721.694l-.72-.694zm2.001-.7a.5.5 0 10-.752-.659l.752.66zm.437-2.076a.5.5 0 00.78.625l-.78-.625zm1.929-.873a.5.5 0 10-.806-.591l.806.59zm.255-2.106a.501.501 0 00.831.557l-.831-.557zm1.852-1.036a.5.5 0 10-.852-.522l.852.522zm.081-2.115a.5.5 0 10.873.488l-.873-.488zM1 1.449a44.62 44.62 0 00-.027 1.024l1 .016c.005-.331.014-.665.027-1.002l-1-.038zM.988 4.495c.02.685.057 1.358.11 2.02l.996-.078a41.074 41.074 0 01-.107-1.972l-1 .03zm.318 4.034c.088.682.193 1.35.313 2.007l.984-.18a37.7 37.7 0 01-.305-1.955l-.992.128zm.733 3.994c.16.668.336 1.321.528 1.961l.958-.287a35.56 35.56 0 01-.514-1.907l-.972.233zm1.165 3.89c.233.644.482 1.273.745 1.888l.92-.393a34.726 34.726 0 01-.725-1.836l-.94.34zm1.596 3.73c.304.613.622 1.21.953 1.792l.87-.494a35.125 35.125 0 01-.928-1.742l-.895.444zm2.005 3.528c.37.575.753 1.134 1.146 1.677l.81-.586a36.762 36.762 0 01-1.115-1.633l-.84.542zm2.378 3.29c.428.532.866 1.048 1.312 1.547l.746-.665c-.434-.487-.861-.99-1.28-1.509l-.778.627zm2.696 3.027c.478.488.962.959 1.45 1.413l.681-.732c-.477-.444-.95-.904-1.417-1.38l-.714.7zm2.96 2.76c.52.445 1.044.873 1.566 1.284l.619-.786a49.11 49.11 0 01-1.536-1.259l-.65.76zm3.18 2.503c.555.404 1.106.79 1.65 1.157l.56-.83a56.275 56.275 0 01-1.622-1.135l-.589.808zm3.348 2.262a72.41 72.41 0 001.719 1.044l.507-.862a67.296 67.296 0 01-1.694-1.03l-.532.848zm3.476 2.046c.626.346 1.22.665 1.773.958l.467-.884c-.55-.29-1.137-.606-1.755-.949l-.485.875zm3.549 1.888c.317.165.608.319.871.46l.474-.88c-.269-.145-.564-.3-.882-.466l-.463.886zm.871.46c.294.159.601.312.92.46l.42-.908a16.25 16.25 0 01-.866-.432l-.474.88zm2.811 1.224a29.99 29.99 0 001.936.61l.27-.963a28.895 28.895 0 01-1.872-.59l-.334.943zm3.904 1.103a45.53 45.53 0 001.978.393l.173-.985a43.854 43.854 0 01-1.934-.384l-.217.976zm3.975.702a56.05 56.05 0 002 .234l.099-.995a54.812 54.812 0 01-1.965-.23l-.134.991zm4.01.398c.667.043 1.338.075 2.011.096l.032-1a60.47 60.47 0 01-1.98-.094l-.064.997zm4.026.127a58.632 58.632 0 002.014-.037l-.035-1c-.658.024-1.318.036-1.98.037v1zm4.028-.143a51.9 51.9 0 002.009-.181l-.11-.994c-.648.071-1.305.13-1.97.177l.07.998zm4.01-.445a40.074 40.074 0 001.993-.359l-.203-.98c-.63.132-1.279.248-1.942.35l.153.989zm3.966-.828a26.325 26.325 0 001.941-.606l-.336-.942c-.592.211-1.216.406-1.867.583l.262.965zm3.838-1.39c.65-.312 1.253-.652 1.8-1.023l-.56-.828c-.501.339-1.06.655-1.672.949l.432.901zm3.41-2.377c.248-.266.473-.544.672-.834l-.826-.565c-.168.246-.36.485-.577.716l.73.683zm.672-.834c.187-.273.357-.543.512-.808l-.863-.504c-.142.243-.3.492-.475.747l.826.565zm1.336-2.562a6.917 6.917 0 00.397-1.934l-.998-.05a5.916 5.916 0 01-.343 1.654l.944.33zm.116-3.938a4.81 4.81 0 00-1.08-1.728l-.72.695c.374.386.67.844.858 1.37l.942-.337zm-2.726-2.887a6.284 6.284 0 00-1.918-.54l-.116.994a5.26 5.26 0 011.612.453l.422-.907zm-3.913-.45a5.25 5.25 0 00-1.862.787l.564.826a4.26 4.26 0 011.509-.635l-.21-.978zm-3.261 2.268c-.17.284-.317.592-.436.924l.942.336c.097-.27.215-.519.35-.744l-.856-.516zm-.436.924c-.118.33-.227.658-.327.984l.955.294c.096-.311.2-.625.314-.942l-.942-.336zm-.842 2.994c-.141.695-.24 1.382-.299 2.06l.997.086a17.13 17.13 0 01.282-1.948l-.98-.198zm-.344 4.15c.03.702.109 1.395.234 2.08l.984-.18a14.272 14.272 0 01-.219-1.944l-.999.043zm.752 4.108c.216.654.477 1.3.783 1.937l.901-.433c-.288-.6-.533-1.205-.734-1.817l-.95.313zm1.794 3.758c.361.572.76 1.137 1.197 1.695l.788-.615a19.751 19.751 0 01-1.14-1.614l-.845.534zm2.54 3.268c.231.249.47.497.717.744l.708-.707a26.805 26.805 0 01-.692-.718l-.733.68zm.717.744c.252.251.508.492.769.724l.664-.747a16.9 16.9 0 01-.725-.684l-.708.707zm2.424 2.032c.582.408 1.18.777 1.788 1.111l.481-.876a18.318 18.318 0 01-1.695-1.054l-.574.819zm3.678 2.028c.65.277 1.307.52 1.965.731l.307-.952a21.991 21.991 0 01-1.88-.699l-.392.92zm3.982 1.289c.69.161 1.375.293 2.05.399l.155-.988a27.528 27.528 0 01-1.977-.385l-.228.974zm4.118.654a34.47 34.47 0 002.081.124l.03-1a32.257 32.257 0 01-2.02-.12l-.091.996zm4.158.127c.757-.02 1.455-.062 2.077-.114l-.082-.996a36.5 36.5 0 01-2.022.11l.027 1zm4.146-.346a24.208 24.208 0 001.02-.17l.014-.003.004-.001h.002l-.101-.49-.102-.49h-.002l-.011.003-.047.01c-.042.007-.105.02-.189.034-.166.03-.414.071-.731.117l.143.99zm.939-.664l.155.475h.002l.004-.002a3.697 3.697 0 01.061-.02l.178-.066c.153-.057.377-.145.66-.267l-.394-.919a14.555 14.555 0 01-.812.32l-.009.003h-.001l.156.476zm2.782-.707a30.216 30.216 0 001.652-.94l-.521-.854c-.582.356-1.119.657-1.598.91l.467.884zm3.247-1.978c.49-.34 1.001-.712 1.527-1.118l-.611-.791c-.512.395-1.008.757-1.485 1.086l.569.823zm2.997-2.315c.463-.396.933-.819 1.409-1.269l-.687-.726c-.464.438-.922.85-1.373 1.236l.65.76zm2.751-2.6c.425-.441.853-.905 1.28-1.392l-.752-.66c-.417.476-.834.928-1.249 1.36l.721.693zm2.497-2.844c.385-.48.769-.979 1.149-1.498l-.806-.591c-.372.507-.747.995-1.123 1.464l.78.625zm2.235-3.047a46.08 46.08 0 001.021-1.593l-.852-.522c-.33.537-.663 1.056-1 1.558l.831.557zm1.975-3.22c.153-.273.305-.55.456-.833l-.882-.471a51.55 51.55 0 01-.447.816l.873.488z" fill="#707070"/></svg>