<svg xmlns="http://www.w3.org/2000/svg" width="108" height="58" viewBox="0 0 108 58" fill="none">
  <path d="M1.99959 1.48704C2.01 1.2111 1.79475 0.978957 1.5188 0.968544C1.24285 0.958134 1.01072 1.17339 1.0003 1.44934L1.99959 1.48704ZM29.5 41.4681L29.263 41.9084L29.5 41.4681ZM67.5 39.1626L67.9126 39.445L67.5 39.1626ZM59.5 32.9683L59.0291 32.8001L59.5 32.9683ZM64 51.4683L63.6464 51.8218L64 51.4683ZM87.0906 56.9419L87.1922 57.4314L87.2195 57.4258L87.2461 57.4171L87.0906 56.9419ZM106.068 39.0176C105.988 38.7534 105.709 38.604 105.445 38.684L101.138 39.9885C100.874 40.0685 100.724 40.3476 100.804 40.6119C100.884 40.8762 101.164 41.0256 101.428 40.9455L105.256 39.7861L106.416 43.6143C106.496 43.8786 106.775 44.028 107.039 43.9479C107.303 43.8679 107.453 43.5887 107.373 43.3244L106.068 39.0176ZM0.973023 2.47339C0.968758 2.7495 1.18913 2.97679 1.46524 2.98106C1.74135 2.98532 1.96864 2.76495 1.9729 2.48884L0.973023 2.47339ZM1.98719 4.46513C1.97883 4.18911 1.74829 3.97214 1.47227 3.98051C1.19625 3.98888 0.979282 4.21942 0.987649 4.49543L1.98719 4.46513ZM1.09712 6.51482C1.11874 6.79012 1.35944 6.99576 1.63474 6.97414C1.91003 6.95251 2.11567 6.71181 2.09405 6.43652L1.09712 6.51482ZM2.29779 8.40054C2.26234 8.12668 2.01161 7.9334 1.73775 7.96884C1.46389 8.00429 1.27062 8.25503 1.30606 8.52889L2.29779 8.40054ZM1.61929 10.5362C1.66905 10.8078 1.92958 10.9877 2.2012 10.9379C2.47283 10.8882 2.65268 10.6276 2.60292 10.356L1.61929 10.5362ZM3.01141 12.2901C2.94701 12.0216 2.67712 11.8561 2.40859 11.9205C2.14007 11.9849 1.97458 12.2548 2.03898 12.5233L3.01141 12.2901ZM2.56696 14.4841C2.64615 14.7487 2.9248 14.8989 3.18934 14.8197C3.45389 14.7405 3.60414 14.4619 3.52495 14.1973L2.56696 14.4841ZM4.14413 16.0719C4.05014 15.8123 3.76346 15.678 3.5038 15.7719C3.24414 15.8659 3.10984 16.1526 3.20382 16.4123L4.14413 16.0719ZM3.94884 18.3011C4.05743 18.555 4.35127 18.6728 4.60517 18.5642C4.85907 18.4557 4.97687 18.1618 4.86828 17.9079L3.94884 18.3011ZM5.6955 19.6996C5.57269 19.4523 5.27263 19.3513 5.0253 19.4741C4.77797 19.5969 4.67703 19.897 4.79985 20.1443L5.6955 19.6996ZM5.75336 21.936C5.88987 22.1761 6.19513 22.26 6.43517 22.1235C6.67521 21.987 6.75914 21.6817 6.62262 21.4417L5.75336 21.936ZM7.64595 23.1305C7.49641 22.8983 7.18699 22.8314 6.95484 22.9809C6.72269 23.1304 6.65574 23.4399 6.80528 23.672L7.64595 23.1305ZM7.95091 25.3491C8.11272 25.5729 8.42529 25.6231 8.64907 25.4613C8.87284 25.2995 8.92307 24.9869 8.76126 24.7631L7.95091 25.3491ZM9.96172 26.335C9.78851 26.12 9.47375 26.086 9.25869 26.2593C9.04363 26.4325 9.00971 26.7472 9.18293 26.9623L9.96172 26.335ZM10.4946 28.5095C10.6783 28.7156 10.9944 28.7338 11.2005 28.5501C11.4067 28.3663 11.4248 28.0503 11.2411 27.8441L10.4946 28.5095ZM12.5929 29.2893C12.3995 29.0922 12.0829 29.0891 11.8858 29.2824C11.6886 29.4758 11.6855 29.7924 11.8789 29.9895L12.5929 29.2893ZM13.3287 31.4019C13.5308 31.5901 13.8471 31.5789 14.0353 31.3768C14.2236 31.1747 14.2123 30.8583 14.0102 30.6701L13.3287 31.4019ZM15.488 31.988C15.278 31.8086 14.9624 31.8334 14.783 32.0433C14.6036 32.2533 14.6284 32.5689 14.8383 32.7483L15.488 31.988ZM16.4055 34.0328C16.6225 34.2036 16.9369 34.1661 17.1076 33.949C17.2784 33.732 17.2408 33.4177 17.0238 33.2469L16.4055 34.0328ZM18.6065 34.4438C18.3832 34.2813 18.0705 34.3307 17.9081 34.5541C17.7457 34.7774 17.795 35.0901 18.0184 35.2525L18.6065 34.4438ZM19.6697 36.4089C19.8986 36.5633 20.2094 36.503 20.3638 36.274C20.5182 36.0451 20.4579 35.7344 20.229 35.5799L19.6697 36.4089ZM21.8992 36.6669C21.6653 36.52 21.3567 36.5905 21.2098 36.8244C21.063 37.0582 21.1334 37.3668 21.3673 37.5137L21.8992 36.6669ZM23.0859 38.5577C23.3239 38.6976 23.6304 38.6181 23.7703 38.38C23.9102 38.142 23.8307 37.8355 23.5927 37.6956L23.0859 38.5577ZM25.328 38.6851C25.0864 38.5513 24.7821 38.6387 24.6483 38.8803C24.5145 39.1218 24.6019 39.4261 24.8434 39.5599L25.328 38.6851ZM26.6156 40.5178C26.8597 40.647 27.1622 40.5538 27.2914 40.3097C27.4205 40.0656 27.3273 39.7631 27.0833 39.6339L26.6156 40.5178ZM28.8552 40.5616C28.6105 40.4337 28.3084 40.5283 28.1804 40.773C28.0525 41.0177 28.1471 41.3198 28.3919 41.4478L28.8552 40.5616ZM30.1837 42.3673C30.4344 42.4832 30.7315 42.3739 30.8473 42.1232C30.9632 41.8725 30.8539 41.5754 30.6032 41.4596L30.1837 42.3673ZM32.4084 42.1894C32.1481 42.0971 31.8623 42.2332 31.77 42.4935C31.6776 42.7537 31.8137 43.0395 32.074 43.1319L32.4084 42.1894ZM34.0096 43.7424C34.2755 43.8168 34.5514 43.6616 34.6259 43.3957C34.7003 43.1298 34.5451 42.8539 34.2792 42.7794L34.0096 43.7424ZM36.1953 43.2587C35.9258 43.1987 35.6586 43.3686 35.5986 43.6381C35.5386 43.9077 35.7085 44.1748 35.978 44.2348L36.1953 43.2587ZM37.9563 44.6276C38.2283 44.6754 38.4875 44.4937 38.5353 44.2217C38.5831 43.9497 38.4014 43.6905 38.1294 43.6427L37.9563 44.6276ZM40.0875 43.9463C39.8139 43.9093 39.562 44.1011 39.525 44.3748C39.488 44.6485 39.6799 44.9003 39.9535 44.9373L40.0875 43.9463ZM41.9533 45.1707C42.2281 45.1978 42.4729 44.9971 42.5 44.7223C42.5271 44.4475 42.3264 44.2027 42.0516 44.1755L41.9533 45.1707ZM44.0267 44.3366C43.7511 44.3188 43.5133 44.5277 43.4955 44.8033C43.4777 45.0789 43.6867 45.3167 43.9622 45.3345L44.0267 44.3366ZM45.9745 45.4312C46.2505 45.4399 46.4813 45.2232 46.4901 44.9472C46.4988 44.6712 46.2821 44.4404 46.0061 44.4317L45.9745 45.4312ZM47.9874 44.4617C47.7113 44.4621 47.4877 44.6862 47.4881 44.9624C47.4884 45.2385 47.7126 45.4621 47.9887 45.4617L47.9874 44.4617ZM50.0026 45.4253C50.2786 45.4156 50.4944 45.184 50.4847 44.908C50.4751 44.6321 50.2435 44.4162 49.9675 44.4259L50.0026 45.4253ZM51.9459 44.3214C51.6705 44.341 51.463 44.5801 51.4826 44.8555C51.5021 45.131 51.7413 45.3384 52.0167 45.3189L51.9459 44.3214ZM54.0258 45.1376C54.3003 45.1074 54.4983 44.8604 54.468 44.5859C54.4378 44.3114 54.1908 44.1134 53.9163 44.1436L54.0258 45.1376ZM55.8748 43.8855C55.6019 43.9276 55.4149 44.1831 55.4571 44.456C55.4993 44.7289 55.7547 44.9159 56.0276 44.8737L55.8748 43.8855ZM58.0201 44.5152C58.2905 44.4592 58.4644 44.1946 58.4084 43.9242C58.3524 43.6538 58.0878 43.48 57.8174 43.5359L58.0201 44.5152ZM59.7306 43.0806C59.4641 43.153 59.3068 43.4277 59.3792 43.6942C59.4516 43.9607 59.7264 44.118 59.9929 44.0456L59.7306 43.0806ZM61.9344 43.4397C62.1945 43.3468 62.3301 43.0607 62.2372 42.8007C62.1444 42.5406 61.8583 42.405 61.5982 42.4979L61.9344 43.4397ZM63.3987 41.7535C63.1497 41.8729 63.0445 42.1715 63.1639 42.4205C63.2832 42.6695 63.5818 42.7747 63.8309 42.6553L63.3987 41.7535ZM65.6313 41.633C65.8599 41.4782 65.9198 41.1673 65.765 40.9387C65.6102 40.71 65.2993 40.6502 65.0706 40.805L65.6313 41.633ZM66.51 39.5961C66.3214 39.7978 66.332 40.1142 66.5337 40.3028C66.7354 40.4914 67.0518 40.4808 67.2404 40.2791L66.51 39.5961ZM68.4254 38.6371C68.5647 38.3987 68.4843 38.0925 68.2459 37.9532C68.0075 37.8139 67.7012 37.8942 67.5619 38.1326L68.4254 38.6371ZM68.3051 36.5526C68.2138 36.8133 68.351 37.0985 68.6116 37.1899C68.8722 37.2812 69.1575 37.144 69.2488 36.8834L68.3051 36.5526ZM69.6464 34.9491C69.6605 34.6733 69.4484 34.4383 69.1726 34.4242C68.8968 34.4102 68.6618 34.6223 68.6477 34.8981L69.6464 34.9491ZM68.423 33.2818C68.5161 33.5418 68.8024 33.677 69.0623 33.5839C69.3223 33.4908 69.4576 33.2046 69.3645 32.9446L68.423 33.2818ZM68.2841 31.2167C68.0921 31.0182 67.7756 31.013 67.5771 31.205C67.3787 31.3971 67.3734 31.7136 67.5655 31.9121L68.2841 31.2167ZM66.2166 30.9645C66.467 31.081 66.7644 30.9725 66.8809 30.7221C66.9974 30.4718 66.8889 30.1744 66.6386 30.0579L66.2166 30.9645ZM64.7206 29.5183C64.4463 29.4863 64.198 29.6828 64.166 29.9571C64.1341 30.2313 64.3305 30.4796 64.6048 30.5116L64.7206 29.5183ZM62.9367 30.5858C63.2067 30.5277 63.3784 30.2618 63.3204 29.9918C63.2623 29.7219 62.9964 29.5501 62.7264 29.6082L62.9367 30.5858ZM60.8643 30.395C60.6362 30.5505 60.5774 30.8616 60.733 31.0897C60.8885 31.3179 61.1996 31.3767 61.4278 31.2211L60.8643 30.395ZM60.3214 32.3923C60.4638 32.1557 60.3875 31.8485 60.151 31.706C59.9144 31.5636 59.6071 31.6399 59.4647 31.8765L60.3214 32.3923ZM58.7016 33.7837C58.6203 34.0476 58.7682 34.3274 59.0321 34.4088C59.296 34.4902 59.5758 34.3423 59.6572 34.0784L58.7016 33.7837ZM59.1666 35.9924C59.2215 35.7218 59.0466 35.4579 58.7759 35.403C58.5053 35.3482 58.2414 35.5231 58.1866 35.7937L59.1666 35.9924ZM57.8883 37.8546C57.8648 38.1297 58.0688 38.3718 58.344 38.3952C58.6191 38.4187 58.8612 38.2147 58.8846 37.9395L57.8883 37.8546ZM58.8422 39.8995C58.8301 39.6236 58.5967 39.4097 58.3208 39.4218C58.0449 39.4339 57.8311 39.6673 57.8432 39.9432L58.8422 39.8995ZM58.0771 42.0235C58.1268 42.2951 58.3872 42.4751 58.6589 42.4254C58.9305 42.3757 59.1104 42.1152 59.0607 41.8436L58.0771 42.0235ZM59.5447 43.739C59.4583 43.4767 59.1756 43.3342 58.9134 43.4206C58.6511 43.5071 58.5085 43.7897 58.595 44.052L59.5447 43.739ZM59.3776 45.9891C59.4971 46.238 59.7958 46.3429 60.0448 46.2233C60.2937 46.1038 60.3986 45.8051 60.279 45.5561L59.3776 45.9891ZM61.2341 47.2759C61.0866 47.0425 60.7777 46.9728 60.5443 47.1203C60.3109 47.2678 60.2412 47.5766 60.3887 47.8101L61.2341 47.2759ZM61.5859 49.5055C61.7559 49.7231 62.0702 49.7616 62.2877 49.5915C62.5053 49.4214 62.5438 49.1072 62.3737 48.8897L61.5859 49.5055ZM63.6621 50.3975C63.4742 50.1951 63.1579 50.1833 62.9555 50.3712C62.7531 50.559 62.7413 50.8754 62.9292 51.0778L63.6621 50.3975ZM64.4149 52.5463C64.6213 52.7297 64.9373 52.7111 65.1208 52.5047C65.3042 52.2983 65.2856 51.9822 65.0792 51.7988L64.4149 52.5463ZM66.6437 53.0347C66.4176 52.8762 66.1058 52.931 65.9473 53.1571C65.7888 53.3832 65.8436 53.695 66.0697 53.8536L66.6437 53.0347ZM67.8576 54.9654C68.0996 55.0984 68.4036 55.01 68.5366 54.768C68.6696 54.526 68.5813 54.222 68.3393 54.089L67.8576 54.9654ZM70.1396 54.9622C69.8855 54.8541 69.5919 54.9725 69.4838 55.2266C69.3757 55.4807 69.4941 55.7743 69.7482 55.8824L70.1396 54.9622ZM71.7135 56.6132C71.9764 56.6978 72.258 56.5532 72.3426 56.2904C72.4272 56.0275 72.2827 55.7458 72.0198 55.6612L71.7135 56.6132ZM73.9578 56.197C73.6889 56.1342 73.4199 56.3012 73.3571 56.5701C73.2942 56.839 73.4612 57.1079 73.7301 57.1708L73.9578 56.197ZM75.7794 57.57C76.0522 57.613 76.3082 57.4267 76.3512 57.154C76.3942 56.8812 76.208 56.6252 75.9352 56.5822L75.7794 57.57ZM77.9381 56.8294C77.6631 56.8045 77.4199 57.0073 77.395 57.2823C77.3701 57.5573 77.5729 57.8004 77.8479 57.8253L77.9381 56.8294ZM79.9291 57.9495C80.2051 57.9577 80.4355 57.7406 80.4437 57.4645C80.4519 57.1885 80.2348 56.9581 79.9588 56.9499L79.9291 57.9495ZM81.9791 56.9523C81.7031 56.9597 81.4853 57.1895 81.4927 57.4655C81.5001 57.7416 81.7299 57.9593 82.006 57.9519L81.9791 56.9523ZM84.0831 57.8384C84.3583 57.8157 84.563 57.5742 84.5402 57.299C84.5175 57.0238 84.276 56.8191 84.0008 56.8418L84.0831 57.8384ZM86.0088 56.6161C85.7355 56.6557 85.5461 56.9094 85.5857 57.1827C85.6253 57.4559 85.8789 57.6454 86.1522 57.6058L86.0088 56.6161ZM88.1514 57.0623C88.4052 56.9534 88.5226 56.6594 88.4137 56.4056C88.3047 56.1519 88.0107 56.0345 87.757 56.1434L88.1514 57.0623ZM89.4064 55.3509C89.1621 55.4797 89.0685 55.7821 89.1973 56.0264C89.3261 56.2706 89.6286 56.3642 89.8728 56.2354L89.4064 55.3509ZM91.5251 55.2948C91.7607 55.1509 91.8351 54.8431 91.6911 54.6075C91.5472 54.3718 91.2395 54.2975 91.0038 54.4414L91.5251 55.2948ZM92.5508 53.4343C92.3237 53.5914 92.2669 53.9029 92.424 54.13C92.5811 54.3571 92.8925 54.4139 93.1196 54.2568L92.5508 53.4343ZM94.6474 53.1389C94.8659 52.97 94.9061 52.656 94.7372 52.4375C94.5684 52.219 94.2544 52.1788 94.0359 52.3476L94.6474 53.1389ZM95.466 51.183C95.2564 51.3627 95.2321 51.6783 95.4118 51.888C95.5915 52.0977 95.9071 52.122 96.1168 51.9423L95.466 51.183ZM97.526 50.6732C97.7266 50.4835 97.7355 50.167 97.5458 49.9664C97.3561 49.7657 97.0396 49.7569 96.839 49.9466L97.526 50.6732ZM98.1475 48.6492C97.9561 48.8481 97.9621 49.1647 98.1611 49.3561C98.3601 49.5476 98.6766 49.5416 98.8681 49.3426L98.1475 48.6492ZM100.148 47.9498C100.33 47.7423 100.31 47.4264 100.102 47.2442C99.8945 47.062 99.5786 47.0826 99.3964 47.2901L100.148 47.9498ZM100.585 45.8729C100.413 46.0883 100.447 46.403 100.663 46.5757C100.878 46.7484 101.193 46.7138 101.365 46.4983L100.585 45.8729ZM102.514 44.9998C102.678 44.777 102.629 44.4642 102.407 44.3009C102.184 44.1376 101.871 44.1858 101.708 44.4086L102.514 44.9998ZM102.769 42.8944C102.616 43.1237 102.677 43.4343 102.906 43.5881C103.136 43.7418 103.446 43.6805 103.6 43.4512L102.769 42.8944ZM104.621 41.8584C104.765 41.6229 104.692 41.3151 104.456 41.1708C104.221 41.0265 103.913 41.1004 103.769 41.3358L104.621 41.8584ZM104.702 39.7428C104.567 39.9838 104.653 40.2885 104.894 40.4234C105.135 40.5584 105.44 40.4724 105.575 40.2315L104.702 39.7428ZM1.0003 1.44934C0.987318 1.79338 0.978255 2.13473 0.973023 2.47339L1.9729 2.48884C1.97802 2.15764 1.98689 1.82371 1.99959 1.48704L1.0003 1.44934ZM0.987649 4.49543C1.0084 5.18003 1.04515 5.8531 1.09712 6.51482L2.09405 6.43652C2.04334 5.7909 2.00747 5.13383 1.98719 4.46513L0.987649 4.49543ZM1.30606 8.52889C1.3943 9.21069 1.49902 9.87973 1.61929 10.5362L2.60292 10.356C2.48581 9.71679 2.38379 9.06504 2.29779 8.40054L1.30606 8.52889ZM2.03898 12.5233C2.19902 13.1907 2.37538 13.8442 2.56696 14.4841L3.52495 14.1973C3.33866 13.5751 3.16712 12.9394 3.01141 12.2901L2.03898 12.5233ZM3.20382 16.4123C3.43704 17.0566 3.68581 17.6861 3.94884 18.3011L4.86828 17.9079C4.61263 17.3101 4.37082 16.6982 4.14413 16.0719L3.20382 16.4123ZM4.79985 20.1443C5.10407 20.757 5.4224 21.3541 5.75336 21.936L6.62262 21.4417C6.30076 20.8757 5.99124 20.2952 5.6955 19.6996L4.79985 20.1443ZM6.80528 23.672C7.17568 24.247 7.55812 24.8059 7.95091 25.3491L8.76126 24.7631C8.37871 24.2341 8.0064 23.69 7.64595 23.1305L6.80528 23.672ZM9.18293 26.9623C9.61148 27.4944 10.0493 28.0099 10.4946 28.5095L11.2411 27.8441C10.8066 27.3566 10.3795 26.8537 9.96172 26.335L9.18293 26.9623ZM11.8789 29.9895C12.3569 30.477 12.8409 30.9476 13.3287 31.4019L14.0102 30.6701C13.5331 30.2257 13.0599 29.7656 12.5929 29.2893L11.8789 29.9895ZM14.8383 32.7483C15.3598 33.1938 15.883 33.6218 16.4055 34.0328L17.0238 33.2469C16.5115 32.8438 15.9987 32.4244 15.488 31.988L14.8383 32.7483ZM18.0184 35.2525C18.5737 35.6563 19.1252 36.0415 19.6697 36.4089L20.229 35.5799C19.6936 35.2187 19.1518 34.8403 18.6065 34.4438L18.0184 35.2525ZM21.3673 37.5137C21.9543 37.8824 22.5286 38.2301 23.0859 38.5577L23.5927 37.6956C23.0431 37.3725 22.4772 37.03 21.8992 36.6669L21.3673 37.5137ZM24.8434 39.5599C25.4689 39.9064 26.0623 40.2251 26.6156 40.5178L27.0833 39.6339C26.5339 39.3433 25.9464 39.0277 25.328 38.6851L24.8434 39.5599ZM28.3919 41.4478C28.7086 41.6134 28.9995 41.7665 29.263 41.9084L29.7371 41.0279C29.4681 40.8831 29.1729 40.7277 28.8552 40.5616L28.3919 41.4478ZM29.263 41.9084C29.557 42.0667 29.8643 42.2197 30.1837 42.3673L30.6032 41.4596C30.3008 41.3198 30.0118 41.1759 29.7371 41.0279L29.263 41.9084ZM32.074 43.1319C32.6898 43.3504 33.3367 43.5539 34.0096 43.7424L34.2792 42.7794C33.626 42.5965 33.0009 42.3997 32.4084 42.1894L32.074 43.1319ZM35.978 44.2348C36.6209 44.378 37.2815 44.5089 37.9563 44.6276L38.1294 43.6427C37.4686 43.5265 36.8227 43.3984 36.1953 43.2587L35.978 44.2348ZM39.9535 44.9373C40.6112 45.0262 41.2787 45.1041 41.9533 45.1707L42.0516 44.1755C41.3886 44.1101 40.733 44.0336 40.0875 43.9463L39.9535 44.9373ZM43.9622 45.3345C44.6298 45.3776 45.3014 45.4099 45.9745 45.4312L46.0061 44.4317C45.3439 44.4107 44.6832 44.379 44.0267 44.3366L43.9622 45.3345ZM47.9887 45.4617C48.6619 45.4609 49.3341 45.4488 50.0026 45.4253L49.9675 44.4259C49.3105 44.449 48.6496 44.4609 47.9874 44.4617L47.9887 45.4617ZM52.0167 45.3189C52.6939 45.2708 53.3646 45.2105 54.0258 45.1376L53.9163 44.1436C53.2684 44.215 52.6107 44.2742 51.9459 44.3214L52.0167 45.3189ZM56.0276 44.8737C56.7066 44.7687 57.3719 44.6493 58.0201 44.5152L57.8174 43.5359C57.1869 43.6665 56.5382 43.7829 55.8748 43.8855L56.0276 44.8737ZM59.9929 44.0456C60.6664 43.8625 61.3153 43.6607 61.9344 43.4397L61.5982 42.4979C61.0057 42.7094 60.3817 42.9036 59.7306 43.0806L59.9929 44.0456ZM63.8309 42.6553C64.4807 42.3439 65.0839 42.0036 65.6313 41.633L65.0706 40.805C64.5699 41.144 64.0106 41.4603 63.3987 41.7535L63.8309 42.6553ZM67.2404 40.2791C67.4888 40.0135 67.7138 39.7355 67.9126 39.445L67.0874 38.8802C66.9192 39.126 66.7265 39.3646 66.51 39.5961L67.2404 40.2791ZM67.9126 39.445C68.0997 39.1716 68.2704 38.9023 68.4254 38.6371L67.5619 38.1326C67.4196 38.3762 67.2617 38.6255 67.0874 38.8802L67.9126 39.445ZM69.2488 36.8834C69.4867 36.2045 69.6153 35.5584 69.6464 34.9491L68.6477 34.8981C68.622 35.4027 68.5147 35.9546 68.3051 36.5526L69.2488 36.8834ZM69.3645 32.9446C69.1254 32.2771 68.7504 31.6986 68.2841 31.2167L67.5655 31.9121C67.9391 32.2982 68.2348 32.7563 68.423 33.2818L69.3645 32.9446ZM66.6386 30.0579C66.0353 29.7771 65.3827 29.5955 64.7206 29.5183L64.6048 30.5116C65.1641 30.5768 65.7129 30.73 66.2166 30.9645L66.6386 30.0579ZM62.7264 29.6082C62.0664 29.7501 61.4306 30.0088 60.8643 30.395L61.4278 31.2211C61.8775 30.9144 62.3911 30.7032 62.9367 30.5858L62.7264 29.6082ZM59.4647 31.8765C59.2941 32.1598 59.1478 32.4677 59.0291 32.8001L59.9709 33.1364C60.0678 32.8651 60.1858 32.6175 60.3214 32.3923L59.4647 31.8765ZM59.0291 32.8001C58.9114 33.1298 58.8022 33.4577 58.7016 33.7837L59.6572 34.0784C59.7534 33.7668 59.8579 33.4528 59.9709 33.1364L59.0291 32.8001ZM58.1866 35.7937C58.0457 36.4889 57.9461 37.1757 57.8883 37.8546L58.8846 37.9395C58.9391 37.3005 59.033 36.6517 59.1666 35.9924L58.1866 35.7937ZM57.8432 39.9432C57.8739 40.6458 57.9519 41.339 58.0771 42.0235L59.0607 41.8436C58.9439 41.2046 58.871 40.5568 58.8422 39.8995L57.8432 39.9432ZM58.595 44.052C58.8107 44.7065 59.0717 45.3521 59.3776 45.9891L60.279 45.5561C59.9912 44.9568 59.7465 44.3513 59.5447 43.739L58.595 44.052ZM60.3887 47.8101C60.7501 48.3821 61.1493 48.9471 61.5859 49.5055L62.3737 48.8897C61.9565 48.356 61.5767 47.8182 61.2341 47.2759L60.3887 47.8101ZM62.9292 51.0778C63.1605 51.327 63.3996 51.575 63.6464 51.8218L64.3536 51.1147C64.1152 50.8764 63.8848 50.6373 63.6621 50.3975L62.9292 51.0778ZM63.6464 51.8218C63.8976 52.073 64.1539 52.3144 64.4149 52.5463L65.0792 51.7988C64.8327 51.5798 64.5907 51.3518 64.3536 51.1147L63.6464 51.8218ZM66.0697 53.8536C66.6518 54.2616 67.2494 54.6311 67.8576 54.9654L68.3393 54.089C67.7613 53.7714 67.1947 53.421 66.6437 53.0347L66.0697 53.8536ZM69.7482 55.8824C70.3987 56.1591 71.0555 56.4015 71.7135 56.6132L72.0198 55.6612C71.3889 55.4582 70.7605 55.2263 70.1396 54.9622L69.7482 55.8824ZM73.7301 57.1708C74.4197 57.332 75.1048 57.4636 75.7794 57.57L75.9352 56.5822C75.283 56.4793 74.6219 56.3523 73.9578 56.197L73.7301 57.1708ZM77.8479 57.8253C78.5645 57.8902 79.261 57.9296 79.9291 57.9495L79.9588 56.9499C79.3093 56.9306 78.6331 56.8923 77.9381 56.8294L77.8479 57.8253ZM82.006 57.9519C82.7633 57.9316 83.4612 57.8898 84.0831 57.8384L84.0008 56.8418C83.3956 56.8918 82.7163 56.9325 81.9791 56.9523L82.006 57.9519ZM86.1522 57.6058C86.481 57.5582 86.7388 57.515 86.9155 57.4836C87.0039 57.4678 87.0719 57.455 87.1185 57.446C87.1417 57.4416 87.1596 57.438 87.1719 57.4355C87.1781 57.4343 87.1829 57.4333 87.1863 57.4327C87.188 57.4323 87.1893 57.432 87.1903 57.4318C87.1908 57.4317 87.1912 57.4316 87.1915 57.4316C87.1916 57.4315 87.1918 57.4315 87.1919 57.4315C87.1919 57.4315 87.192 57.4315 87.192 57.4315C87.1921 57.4315 87.1921 57.4315 87.1921 57.4315C87.1921 57.4314 87.1922 57.4314 87.0906 56.9419C86.9891 56.4523 86.9891 56.4523 86.9891 56.4523C86.9891 56.4523 86.9891 56.4523 86.9891 56.4523C86.9892 56.4523 86.9892 56.4523 86.9892 56.4523C86.9892 56.4523 86.9892 56.4523 86.9892 56.4523C86.9892 56.4523 86.989 56.4523 86.9888 56.4523C86.9884 56.4524 86.9876 56.4526 86.9865 56.4528C86.9842 56.4533 86.9805 56.454 86.9755 56.455C86.9654 56.4571 86.9498 56.4601 86.9288 56.4642C86.8869 56.4723 86.8237 56.4842 86.7403 56.499C86.5735 56.5287 86.3263 56.5701 86.0088 56.6161L86.1522 57.6058ZM87.0906 56.9419C87.2461 57.4171 87.2461 57.4171 87.2462 57.4171C87.2462 57.417 87.2462 57.417 87.2462 57.417C87.2463 57.417 87.2464 57.417 87.2464 57.417C87.2466 57.4169 87.2467 57.4169 87.2469 57.4168C87.2473 57.4167 87.2477 57.4165 87.2482 57.4164C87.2492 57.416 87.2505 57.4156 87.2522 57.4151C87.2554 57.414 87.2598 57.4125 87.2654 57.4106C87.2767 57.4068 87.2926 57.4013 87.3132 57.3941C87.3543 57.3797 87.4138 57.3583 87.4907 57.3295C87.6444 57.2718 87.8675 57.1842 88.1514 57.0623L87.757 56.1434C87.4879 56.2589 87.2792 56.3408 87.1394 56.3933C87.0695 56.4195 87.0168 56.4384 86.9824 56.4504C86.9652 56.4565 86.9526 56.4608 86.9446 56.4635C86.9407 56.4648 86.9379 56.4657 86.9363 56.4663C86.9355 56.4665 86.935 56.4667 86.9348 56.4668C86.9347 56.4668 86.9347 56.4668 86.9347 56.4668C86.9348 56.4668 86.9348 56.4668 86.9349 56.4667C86.9349 56.4667 86.9349 56.4667 86.935 56.4667C86.935 56.4667 86.935 56.4667 86.9351 56.4667C86.9351 56.4667 86.9351 56.4667 87.0906 56.9419ZM89.8728 56.2354C90.3697 55.9734 90.9243 55.6617 91.5251 55.2948L91.0038 54.4414C90.4217 54.7969 89.8855 55.0982 89.4064 55.3509L89.8728 56.2354ZM93.1196 54.2568C93.6107 53.9172 94.1214 53.5453 94.6474 53.1389L94.0359 52.3476C93.5243 52.743 93.0278 53.1045 92.5508 53.4343L93.1196 54.2568ZM96.1168 51.9423C96.5796 51.5456 97.0502 51.1231 97.526 50.6732L96.839 49.9466C96.3752 50.385 95.9167 50.7967 95.466 51.183L96.1168 51.9423ZM98.8681 49.3426C99.2933 48.9007 99.7206 48.4368 100.148 47.9498L99.3964 47.2901C98.9792 47.7655 98.5623 48.2182 98.1475 48.6492L98.8681 49.3426ZM101.365 46.4983C101.75 46.0185 102.134 45.5192 102.514 44.9998L101.708 44.4086C101.336 44.9163 100.961 45.4042 100.585 45.8729L101.365 46.4983ZM103.6 43.4512C103.944 42.9379 104.285 42.4072 104.621 41.8584L103.769 41.3358C103.439 41.873 103.106 42.3923 102.769 42.8944L103.6 43.4512ZM105.575 40.2315C105.728 39.9579 105.88 39.6803 106.031 39.3985L105.149 38.9267C105.001 39.2028 104.852 39.4748 104.702 39.7428L105.575 40.2315Z" fill="#707070"/>
</svg>