<svg width="115" height="115" fill="none" xmlns="http://www.w3.org/2000/svg"><g filter="url(#filter0_i_1874_14677)"><rect width="115" height="115" rx="15" fill="#F8F4F4"/></g><path fill="#D9D9D9" d="M17 24.5h66v54H17z"/><path d="M99.5 63L83 79.223V24.5L99.5 10v53z" fill="#707070"/><g filter="url(#filter1_d_1874_14677)"><path d="M99.5 82L83 103.5v-25L99.5 62v20z" fill="#7B060C"/></g><g filter="url(#filter2_d_1874_14677)"><path fill="#C1141E" d="M17 78.5h66v25H17z"/></g><g filter="url(#filter3_i_1874_14677)"><path fill="#fff" d="M39 34.5h22v27H39z"/></g><mask id="a" style="mask-type:alpha" maskUnits="userSpaceOnUse" x="17" y="78" width="66" height="26"><path fill="#C1141E" d="M17 78.5h66v25H17z"/></mask><g mask="url(#a)" fill="#fff"><path d="M47.34 21l1.937 1.938-60.34 60.34L-13 81.34zm4.843 4.844l1.937 1.938-60.34 60.34-1.937-1.938zm4.843 4.844l1.937 1.937-60.34 60.34-1.937-1.938zm4.844 4.839l1.937 1.937-60.34 60.34-1.937-1.937zm4.842 4.843l1.938 1.938-60.34 60.34-1.937-1.938zm4.843 4.845l1.937 1.937-60.34 60.34-1.937-1.938zm4.843 4.844l1.937 1.937-60.34 60.34-1.937-1.938zm4.844 4.843l1.938 1.938-60.34 60.34-1.937-1.938zm4.843 4.844l1.938 1.938-60.34 60.339-1.937-1.937zm4.843 4.844l1.937 1.938-60.34 60.34-1.937-1.938zm4.842 4.84l1.937 1.937-60.34 60.34-1.937-1.938zm4.844 4.843l1.938 1.938-60.34 60.34-1.937-1.938zm4.843 4.844l1.938 1.938-60.34 60.34-1.937-1.938zm4.843 4.844l1.937 1.937-60.34 60.34-1.937-1.937zm4.843 4.844l1.937 1.937-60.34 60.34-1.937-1.938z"/></g><mask id="b" style="mask-type:alpha" maskUnits="userSpaceOnUse" x="83" y="62" width="17" height="42"><path d="M99.5 82L83 103.5v-25L99.5 62v20z" fill="#7B060C"/></mask><g mask="url(#b)" fill="#fff"><path d="M39 73.871l1.607-1.607 50.07 50.07-1.608 1.607zm4.02-4.019l1.606-1.608 50.07 50.07-1.607 1.607zm4.018-4.02l1.607-1.608 50.07 50.07-1.608 1.607zm4.019-4.016l1.607-1.607 50.07 50.07-1.608 1.606zm4.019-4.019l1.607-1.607 50.07 50.069-1.607 1.607zm4.018-4.02L60.7 52.17l50.07 50.07-1.608 1.606zm4.019-4.019l1.607-1.607 50.07 50.07-1.607 1.606zm4.019-4.02l1.607-1.607 50.07 50.07-1.608 1.606zm4.019-4.015l1.607-1.607 50.07 50.07-1.607 1.606zm4.018-4.02l1.607-1.607 50.07 50.07-1.607 1.607zm4.019-4.019l1.608-1.607 50.07 50.07-1.608 1.606zm4.019-4.02l1.607-1.607 50.07 50.07-1.608 1.607zm4.019-4.019l1.608-1.607 50.07 50.07-1.608 1.606zm4.019-4.02l1.607-1.608 50.07 50.07-1.608 1.607zm4.018-4.015l1.607-1.608 50.07 50.07-1.608 1.607z"/></g><defs><filter id="filter0_i_1874_14677" x="0" y="0" width="117" height="117" filterUnits="userSpaceOnUse" color-interpolation-filters="sRGB"><feFlood flood-opacity="0" result="BackgroundImageFix"/><feBlend in="SourceGraphic" in2="BackgroundImageFix" result="shape"/><feColorMatrix in="SourceAlpha" values="0 0 0 0 0 0 0 0 0 0 0 0 0 0 0 0 0 0 127 0" result="hardAlpha"/><feOffset dx="2" dy="2"/><feGaussianBlur stdDeviation="3"/><feComposite in2="hardAlpha" operator="arithmetic" k2="-1" k3="1"/><feColorMatrix values="0 0 0 0 0 0 0 0 0 0 0 0 0 0 0 0 0 0 0.05 0"/><feBlend in2="shape" result="effect1_innerShadow_1874_14677"/></filter><filter id="filter1_d_1874_14677" x="80" y="61" width="22.5" height="47.5" filterUnits="userSpaceOnUse" color-interpolation-filters="sRGB"><feFlood flood-opacity="0" result="BackgroundImageFix"/><feColorMatrix in="SourceAlpha" values="0 0 0 0 0 0 0 0 0 0 0 0 0 0 0 0 0 0 127 0" result="hardAlpha"/><feOffset dy="2"/><feGaussianBlur stdDeviation="1.5"/><feComposite in2="hardAlpha" operator="out"/><feColorMatrix values="0 0 0 0 0 0 0 0 0 0 0 0 0 0 0 0 0 0 0.25 0"/><feBlend in2="BackgroundImageFix" result="effect1_dropShadow_1874_14677"/><feBlend in="SourceGraphic" in2="effect1_dropShadow_1874_14677" result="shape"/></filter><filter id="filter2_d_1874_14677" x="14" y="77.5" width="72" height="31" filterUnits="userSpaceOnUse" color-interpolation-filters="sRGB"><feFlood flood-opacity="0" result="BackgroundImageFix"/><feColorMatrix in="SourceAlpha" values="0 0 0 0 0 0 0 0 0 0 0 0 0 0 0 0 0 0 127 0" result="hardAlpha"/><feOffset dy="2"/><feGaussianBlur stdDeviation="1.5"/><feComposite in2="hardAlpha" operator="out"/><feColorMatrix values="0 0 0 0 0 0 0 0 0 0 0 0 0 0 0 0 0 0 0.25 0"/><feBlend in2="BackgroundImageFix" result="effect1_dropShadow_1874_14677"/><feBlend in="SourceGraphic" in2="effect1_dropShadow_1874_14677" result="shape"/></filter><filter id="filter3_i_1874_14677" x="39" y="33.5" width="22" height="28" filterUnits="userSpaceOnUse" color-interpolation-filters="sRGB"><feFlood flood-opacity="0" result="BackgroundImageFix"/><feBlend in="SourceGraphic" in2="BackgroundImageFix" result="shape"/><feColorMatrix in="SourceAlpha" values="0 0 0 0 0 0 0 0 0 0 0 0 0 0 0 0 0 0 127 0" result="hardAlpha"/><feOffset dy="-1"/><feGaussianBlur stdDeviation="3"/><feComposite in2="hardAlpha" operator="arithmetic" k2="-1" k3="1"/><feColorMatrix values="0 0 0 0 0 0 0 0 0 0 0 0 0 0 0 0 0 0 0.05 0"/><feBlend in2="shape" result="effect1_innerShadow_1874_14677"/></filter></defs></svg>