<svg width="115" height="115" fill="none" xmlns="http://www.w3.org/2000/svg"><g filter="url(#filter0_i_1874_14722)"><rect width="115" height="115" rx="15" fill="#F8F4F4"/></g><g filter="url(#filter1_d_1874_14722)"><path d="M15.316 28.5h52.368c2.382 0 4.316 1.948 4.316 4.348V82.5H11V32.848c0-2.4 1.934-4.348 4.316-4.348z" fill="#C1141E"/></g><g filter="url(#filter2_d_1874_14722)"><path d="M78 87.586c.012-4.6 3.763-8.344 8.1-8.987 4.977-.738 9.858 2.73 10.72 7.477.087.487-.123 1.006.18 1.466-.213 1.538-.468 3.057-1.35 4.42-1.887 2.922-4.587 4.542-8.195 4.538-3.608-.007-6.315-1.624-8.174-4.564-.848-1.342-1.188-2.81-1.281-4.35zm9.49-3.636c-2.08 0-3.752 1.59-3.752 3.568 0 1.962 1.714 3.596 3.76 3.585 1.978-.011 3.706-1.656 3.731-3.552.026-1.948-1.692-3.603-3.74-3.6z" fill="#fff"/></g><g filter="url(#filter3_d_1874_14722)"><path d="M23 87.575c.222-1.685.475-3.344 1.517-4.81 1.59-2.244 3.709-3.648 6.534-4.123 3.095-.521 5.737.422 7.93 2.374 1.704 1.517 2.834 3.445 2.857 5.792.002.268 0 .53.162.762-.171 2.253-.947 4.251-2.521 5.987-4.08 4.494-12.057 3.715-15.106-1.475-.834-1.418-1.23-2.915-1.373-4.505v-.002zm9.556-3.613c-2.084-.022-3.786 1.55-3.807 3.52-.02 1.959 1.67 3.606 3.726 3.633 2.016.026 3.764-1.639 3.776-3.598.012-1.901-1.683-3.533-3.695-3.555z" fill="#fff"/></g><g filter="url(#filter4_d_1874_14722)"><path d="M72.021 82.366c-.007-7.46-.016-14.92-.02-22.38-.002-4.155 0-8.309 0-12.463 6.354-.005 12.71-.053 19.064.006 3.993.037 7.147 2.571 8.344 6.609 1.195 4.03 2.309 8.087 3.452 12.134.074.258.139.532.139.797 0 5.1-.007 10.199-.011 15.3-.238.01-.479.008-.712.038-2.087.274-3.955.055-4.923-2.228a12.936 12.936 0 00-20.888 1.568c-.317.505-.65.697-1.224.667-1.071-.055-2.145-.037-3.219-.05l-.002.002zm26.341-16.062c-1.076-3.798-2.08-7.619-3.252-11.385-.604-1.94-2.091-3.002-4.128-3.013-4.827-.03-9.656-.003-14.485 0-.49.045-.325.438-.325.699-.011 4.403.002 8.804-.018 13.208-.002.646.222.83.835.83 6.895-.017 13.788-.01 20.683-.02.248 0 .64.186.69-.317v-.002z" fill="#fff"/></g><mask id="a" style="mask-type:alpha" maskUnits="userSpaceOnUse" x="10" y="28" width="62" height="55"><path d="M15.31 28.507l52.373-.005c2.383 0 4.317 1.948 4.316 4.348l-.005 49.657-61.006.006.005-49.657c0-2.4 1.935-4.348 4.317-4.349z" fill="#C1141E"/></mask><g mask="url(#a)"><path fill-rule="evenodd" clip-rule="evenodd" d="M66.784 25.557l-1.828-1.827-57.23 57.23 1.828 1.827 57.23-57.23zm-12.814.022l1.828 1.827L9.99 73.214l-1.828-1.827L53.97 25.579zm-7.619 2.137l-1.827-1.827L7.378 63.034l1.828 1.828L46.35 27.716zm-11.274-1.518l1.828 1.828L9.416 55.513 7.59 53.686l27.487-27.488zm-6.028.544l-1.828-1.827L5.41 46.727l1.828 1.827L29.05 26.742zm-7.953-1.183l-1.828-1.827L4.833 38.167l1.827 1.828 14.436-14.436zm48.43 2.74l1.827 1.827-57.23 57.23-1.828-1.828 57.23-57.23zm6.395 6.395l-1.828-1.827-42.557 42.557 1.828 1.827L75.92 34.694zm3.18 3.182l1.85 1.849-39.937 39.938-1.85-1.85 39.938-39.937zm-2.75 14.663l-1.828-1.828L42.465 82.77l1.828 1.827L76.35 52.54zm-3.333 8.814l1.828 1.828L53.74 84.287l-1.828-1.828 21.106-21.106zm3.21 9.582l-1.827-1.827-16.526 16.526 1.827 1.828L76.23 70.935z" fill="#fff"/></g><g filter="url(#filter5_dd_1874_14722)"><path d="M23.144 88.427c-3.755 0-7.508-.017-11.263.011-.651.005-.907-.12-.879-.866.071-2.008.053-4.018.069-6.029 2.967.005 5.93-.012 8.897.033.672.01 1.03-.234 1.385-.798 5.25-8.33 17.142-8.368 22.404-.068.398.627.805.866 1.536.864 8.224-.028 16.45-.016 24.676-.019.61 0 1.22-.028 1.83-.045 1.1.014 2.199-.005 3.296.052.588.031.929-.17 1.253-.691 4.816-7.774 15.48-8.574 21.387-1.625.991 2.364 2.905 2.593 5.041 2.31.242-.034.488-.03.729-.041.499.07.998.08 1.495-.007V88.5c-2.245-.178-4.491-.028-6.736-.076-.395-.01-.789-.016-1.184-.024-.301-.494-.092-1.048-.18-1.57-.855-5.085-5.703-8.803-10.645-8.01-4.31.692-8.035 4.7-8.044 9.628-4.917-.007-9.836-.021-14.753-.024-7.147-.005-14.295-.005-21.442-.005-.163-.248-.159-.53-.161-.816-.023-2.515-1.145-4.582-2.838-6.211-2.178-2.093-4.802-3.105-7.877-2.546-2.803.512-4.907 2.015-6.49 4.421-1.032 1.572-1.285 3.353-1.506 5.157v.003z" fill="#707070"/></g><defs><filter id="filter0_i_1874_14722" x="0" y="0" width="117" height="117" filterUnits="userSpaceOnUse" color-interpolation-filters="sRGB"><feFlood flood-opacity="0" result="BackgroundImageFix"/><feBlend in="SourceGraphic" in2="BackgroundImageFix" result="shape"/><feColorMatrix in="SourceAlpha" values="0 0 0 0 0 0 0 0 0 0 0 0 0 0 0 0 0 0 127 0" result="hardAlpha"/><feOffset dx="2" dy="2"/><feGaussianBlur stdDeviation="3"/><feComposite in2="hardAlpha" operator="arithmetic" k2="-1" k3="1"/><feColorMatrix values="0 0 0 0 0 0 0 0 0 0 0 0 0 0 0 0 0 0 0.05 0"/><feBlend in2="shape" result="effect1_innerShadow_1874_14722"/></filter><filter id="filter1_d_1874_14722" x="9" y="25.5" width="65" height="58" filterUnits="userSpaceOnUse" color-interpolation-filters="sRGB"><feFlood flood-opacity="0" result="BackgroundImageFix"/><feColorMatrix in="SourceAlpha" values="0 0 0 0 0 0 0 0 0 0 0 0 0 0 0 0 0 0 127 0" result="hardAlpha"/><feOffset dy="-1"/><feGaussianBlur stdDeviation="1"/><feComposite in2="hardAlpha" operator="out"/><feColorMatrix values="0 0 0 0 0 0 0 0 0 0 0 0 0 0 0 0 0 0 0.25 0"/><feBlend in2="BackgroundImageFix" result="effect1_dropShadow_1874_14722"/><feBlend in="SourceGraphic" in2="effect1_dropShadow_1874_14722" result="shape"/></filter><filter id="filter2_d_1874_14722" x="75" y="77.5" width="25" height="24" filterUnits="userSpaceOnUse" color-interpolation-filters="sRGB"><feFlood flood-opacity="0" result="BackgroundImageFix"/><feColorMatrix in="SourceAlpha" values="0 0 0 0 0 0 0 0 0 0 0 0 0 0 0 0 0 0 127 0" result="hardAlpha"/><feOffset dy="2"/><feGaussianBlur stdDeviation="1.5"/><feComposite in2="hardAlpha" operator="out"/><feColorMatrix values="0 0 0 0 0 0 0 0 0 0 0 0 0 0 0 0 0 0 0.25 0"/><feBlend in2="BackgroundImageFix" result="effect1_dropShadow_1874_14722"/><feBlend in="SourceGraphic" in2="effect1_dropShadow_1874_14722" result="shape"/></filter><filter id="filter3_d_1874_14722" x="20" y="77.5" width="25" height="24" filterUnits="userSpaceOnUse" color-interpolation-filters="sRGB"><feFlood flood-opacity="0" result="BackgroundImageFix"/><feColorMatrix in="SourceAlpha" values="0 0 0 0 0 0 0 0 0 0 0 0 0 0 0 0 0 0 127 0" result="hardAlpha"/><feOffset dy="2"/><feGaussianBlur stdDeviation="1.5"/><feComposite in2="hardAlpha" operator="out"/><feColorMatrix values="0 0 0 0 0 0 0 0 0 0 0 0 0 0 0 0 0 0 0.25 0"/><feBlend in2="BackgroundImageFix" result="effect1_dropShadow_1874_14722"/><feBlend in="SourceGraphic" in2="effect1_dropShadow_1874_14722" result="shape"/></filter><filter id="filter4_d_1874_14722" x="69" y="45.5" width="37" height="41" filterUnits="userSpaceOnUse" color-interpolation-filters="sRGB"><feFlood flood-opacity="0" result="BackgroundImageFix"/><feColorMatrix in="SourceAlpha" values="0 0 0 0 0 0 0 0 0 0 0 0 0 0 0 0 0 0 127 0" result="hardAlpha"/><feOffset dy="1"/><feGaussianBlur stdDeviation="1.5"/><feComposite in2="hardAlpha" operator="out"/><feColorMatrix values="0 0 0 0 0 0 0 0 0 0 0 0 0 0 0 0 0 0 0.25 0"/><feBlend in2="BackgroundImageFix" result="effect1_dropShadow_1874_14722"/><feBlend in="SourceGraphic" in2="effect1_dropShadow_1874_14722" result="shape"/></filter><filter id="filter5_dd_1874_14722" x="8" y="70.5" width="100" height="23" filterUnits="userSpaceOnUse" color-interpolation-filters="sRGB"><feFlood flood-opacity="0" result="BackgroundImageFix"/><feColorMatrix in="SourceAlpha" values="0 0 0 0 0 0 0 0 0 0 0 0 0 0 0 0 0 0 127 0" result="hardAlpha"/><feOffset dy="2"/><feGaussianBlur stdDeviation="1.5"/><feComposite in2="hardAlpha" operator="out"/><feColorMatrix values="0 0 0 0 0 0 0 0 0 0 0 0 0 0 0 0 0 0 0.25 0"/><feBlend in2="BackgroundImageFix" result="effect1_dropShadow_1874_14722"/><feColorMatrix in="SourceAlpha" values="0 0 0 0 0 0 0 0 0 0 0 0 0 0 0 0 0 0 127 0" result="hardAlpha"/><feOffset dy="-2"/><feGaussianBlur stdDeviation="1"/><feComposite in2="hardAlpha" operator="out"/><feColorMatrix values="0 0 0 0 0 0 0 0 0 0 0 0 0 0 0 0 0 0 0.1 0"/><feBlend in2="effect1_dropShadow_1874_14722" result="effect2_dropShadow_1874_14722"/><feBlend in="SourceGraphic" in2="effect2_dropShadow_1874_14722" result="shape"/></filter></defs></svg>