<svg width="56" height="22" fill="none" xmlns="http://www.w3.org/2000/svg"><circle cx="10.5" cy="10.5" r="10.5" fill="#FF0404"/><rect width="56" height="22" rx="5" fill="#FF0404"/><path d="M4 12.758c0-3.277 2.353-5.606 2.353-5.606s-.53 2.894 1.294 3.24c1.285.245 2.24-.978 1.61-3.531-.6-2.437.806-4.437 2.079-4.861 0 0-.08 1.917 1.866 3.754 1.905 1.798 3.83 3.81 3.83 7.004a6.516 6.516 0 11-13.032 0z" fill="#fff"/><path d="M10.516 12.663s-2.297 1.926-2.297 4.314a2.297 2.297 0 004.593 0c0-2.388-2.296-4.314-2.296-4.314z" fill="#FF0404"/><path d="M25.072 7.06l2.464 3.668 2.45-3.668h2.1l-3.444 5.04 3.332 4.9h-2.1l-2.338-3.528L25.184 17H23.07l3.332-4.9-3.444-5.04h2.114zM33.157 17V7.06h1.918v7.224L39.89 7.06h1.792V17h-1.918V9.86L35.005 17h-1.848zm18.096-8.246h-3.178V17h-1.918V8.754H42.98V7.06h8.274v1.694z" fill="#fff"/></svg>