<svg width="198" height="59" fill="none" xmlns="http://www.w3.org/2000/svg"><g clip-path="url(#clip0_1967_26)"><path d="M195.862 58.555a.5.5 0 00.618-.343l1.246-4.324a.5.5 0 00-.961-.277l-1.107 3.844-3.844-1.107a.5.5 0 00-.277.961l4.325 1.246zM1.104 12.563l1.985-.418-.205-.979c-.661.139-1.324.278-1.988.42l.208.977zm5.925-1.234c1.313-.268 2.619-.531 3.918-.79l-.195-.98c-1.301.258-2.609.522-3.923.79l.2.98zm7.88-1.566c1.315-.253 2.621-.501 3.921-.744l-.183-.983c-1.302.243-2.611.492-3.927.746l.19.981zm7.895-1.473c1.32-.238 2.634-.47 3.94-.697l-.171-.985c-1.308.227-2.624.46-3.947.698l.178.984zm7.91-1.37c1.326-.221 2.645-.435 3.957-.643l-.156-.988c-1.315.209-2.636.423-3.965.644l.163.986zm7.927-1.256c1.333-.2 2.657-.394 3.973-.58l-.14-.99c-1.32.187-2.646.38-3.981.581l.148.989zm7.947-1.126a426.92 426.92 0 013.986-.51l-.122-.993c-1.323.163-2.655.334-3.995.512l.131.99zm7.967-.98c1.34-.152 2.672-.296 3.995-.431l-.102-.995c-1.326.136-2.661.28-4.005.432l.112.993zm7.986-.817a336.03 336.03 0 014-.34l-.078-.997c-1.329.104-2.666.218-4.012.34l.09.997zm8.003-.631c1.343-.09 2.677-.169 4-.238l-.052-1c-1.329.07-2.667.15-4.014.24l.066.998zm8.015-.421a262.64 262.64 0 013.995-.123l-.023-1c-1.327.03-2.663.072-4.01.123l.038 1zm8.021-.184c1.34-.009 2.67-.006 3.989.007l.01-1a254.35 254.35 0 00-4.006-.006l.007 1zm8.017.087a199 199 0 013.999.154l.048-.999a205.411 205.411 0 00-4.018-.155l-.029 1zm8 .39c1.346.094 2.679.201 4.001.323l.092-.996c-1.33-.122-2.671-.23-4.024-.325l-.069.998zm7.968.734c1.343.155 2.673.326 3.99.512l.14-.99a156.41 156.41 0 00-4.015-.515l-.115.993zm7.946 1.125c1.323.223 2.632.462 3.928.719l.194-.981a137.23 137.23 0 00-3.956-.724l-.166.986zm7.855 1.556c1.309.3 2.604.618 3.884.954l.254-.967c-1.291-.339-2.595-.66-3.914-.961l-.224.974zm7.73 2.032c1.289.385 2.563.789 3.822 1.213l.319-.948c-1.27-.428-2.555-.835-3.855-1.223l-.286.958zm7.587 2.558c1.251.473 2.487.966 3.708 1.481l.388-.921c-1.232-.52-2.48-1.019-3.742-1.496l-.354.936zm7.366 3.109a99.686 99.686 0 013.585 1.77l.461-.888a100.52 100.52 0 00-3.621-1.787l-.425.905zm7.092 3.683a94.86 94.86 0 013.427 2.058l.533-.846a95.983 95.983 0 00-3.463-2.08l-.497.868zm6.763 4.258a94.237 94.237 0 013.239 2.34l.603-.798a94.477 94.477 0 00-3.274-2.364l-.568.822zm6.381 4.818a95.67 95.67 0 013.028 2.602l.667-.745a97.124 97.124 0 00-3.059-2.629l-.636.772zm5.948 5.328c.952.925 1.89 1.875 2.814 2.849l.725-.688a99.789 99.789 0 00-2.842-2.878l-.697.717zm5.508 5.8c.872.993 1.731 2.01 2.578 3.05l.775-.632a106.666 106.666 0 00-2.602-3.078l-.751.66zm5.051 6.204a115.928 115.928 0 012.355 3.23l.818-.575a116.029 116.029 0 00-2.375-3.258l-.798.603zm4.599 6.535c.727 1.11 1.444 2.242 2.149 3.396l.853-.522a128.374 128.374 0 00-2.166-3.422l-.836.548zm4.18 6.83c.333.583.663 1.17.991 1.764l.876-.484a161.32 161.32 0 00-.999-1.776l-.868.496z" fill="#707070"/></g><defs><clipPath id="clip0_1967_26"><path fill="#fff" d="M0 0h198v59H0z"/></clipPath></defs></svg>