<svg width="216" height="56" fill="none" xmlns="http://www.w3.org/2000/svg"><g clip-path="url(#clip0_1967_30)"><path d="M215.985 30.696a.5.5 0 00-.364-.607l-4.365-1.091a.5.5 0 00-.243.97l3.881.97-.97 3.88a.5.5 0 10.97.243l1.091-4.365zM.551 1.294c.296.604.598 1.203.906 1.796l.887-.462A81.288 81.288 0 011.45.854l-.898.44zM3.382 6.58a80.822 80.822 0 002.096 3.394l.838-.546a79.82 79.82 0 01-2.07-3.352l-.864.504zm4.353 6.674a81.005 81.005 0 002.422 3.173l.78-.626a80.01 80.01 0 01-2.392-3.134l-.81.587zm4.99 6.216c.883.997 1.79 1.97 2.718 2.922l.715-.698a82.156 82.156 0 01-2.685-2.887l-.748.663zm5.567 5.708c.971.906 1.963 1.79 2.976 2.651l.648-.761a86.296 86.296 0 01-2.942-2.621l-.682.73zm6.067 5.166a93.194 93.194 0 003.198 2.378l.58-.815a92.25 92.25 0 01-3.164-2.352l-.614.789zm6.49 4.618c1.111.723 2.24 1.426 3.385 2.108l.512-.859a99.841 99.841 0 01-3.352-2.087l-.545.838zm6.839 4.078c1.164.636 2.344 1.252 3.538 1.848l.447-.895a108.635 108.635 0 01-3.506-1.83l-.48.877zm7.12 3.56c1.206.55 2.425 1.083 3.656 1.597l.386-.923c-1.222-.51-2.43-1.038-3.626-1.584l-.415.91zm7.345 3.067c1.238.471 2.486.925 3.746 1.361l.327-.945a130.13 130.13 0 01-3.717-1.35l-.356.934zm7.519 2.606c1.262.397 2.534.776 3.815 1.14l.273-.962a142.499 142.499 0 01-3.789-1.132l-.3.954zm7.652 2.174c1.282.328 2.571.64 3.868.935l.223-.975c-1.289-.294-2.57-.603-3.843-.929l-.248.97zm7.754 1.772c1.296.263 2.598.511 3.907.744l.175-.984a168.1 168.1 0 01-3.884-.74l-.198.98zm7.828 1.398c1.306.202 2.618.39 3.935.565l.132-.99c-1.31-.175-2.615-.362-3.914-.564l-.153.989zm7.88 1.046c1.315.146 2.634.279 3.956.398l.09-.995a193.036 193.036 0 01-3.935-.397l-.11.994zm7.917.717c1.32.093 2.642.173 3.967.24l.051-.998a204.477 204.477 0 01-3.948-.24l-.07.998zm7.937.405c1.323.043 2.648.073 3.974.091l.013-1a214.338 214.338 0 01-3.955-.09l-.032 1zm7.947.11a228.83 228.83 0 003.973-.053l-.022-1c-1.318.03-2.637.047-3.956.053l.005 1zm7.944-.175c1.324-.052 2.648-.116 3.969-.19l-.056-.999c-1.316.075-2.634.138-3.952.19l.039 1zm7.934-.448c1.322-.098 2.642-.206 3.96-.325l-.09-.996a223.73 223.73 0 01-3.944.323l.074.998zm7.914-.716c1.319-.141 2.634-.293 3.946-.456l-.123-.993c-1.306.163-2.617.314-3.93.455l.107.994zm7.885-.978c1.314-.185 2.624-.38 3.929-.587l-.156-.988a239.2 239.2 0 01-3.912.585l.139.99zm7.849-1.24c1.308-.228 2.611-.468 3.907-.717l-.189-.982c-1.29.248-2.588.487-3.891.715l.173.985zm7.802-1.5c1.302-.274 2.596-.558 3.883-.851l-.223-.975c-1.28.292-2.569.574-3.865.847l.205.978zm7.746-1.769c1.294-.32 2.579-.648 3.854-.987l-.257-.967c-1.269.338-2.548.666-3.836.983l.239.971zm7.677-2.042a211.35 211.35 0 003.82-1.132l-.293-.956c-1.255.385-2.523.76-3.801 1.126l.274.962zm7.593-2.33c1.274-.418 2.535-.846 3.781-1.285l-.332-.943c-1.239.436-2.493.862-3.761 1.278l.312.95zm7.498-2.636c1.258-.473 2.499-.956 3.724-1.448l-.373-.928c-1.218.49-2.452.97-3.703 1.44l.352.936zm7.389-2.973c1.23-.53 2.441-1.07 3.632-1.62l-.419-.907a152.637 152.637 0 01-3.609 1.608l.396.919zm7.231-3.34a132.874 132.874 0 003.515-1.807l-.471-.883a132.343 132.343 0 01-3.488 1.794l.444.896zm7.018-3.75c.57-.329 1.134-.66 1.69-.994l-.514-.857c-.552.33-1.11.659-1.676.985l.5.866z" fill="#707070"/></g><defs><clipPath id="clip0_1967_30"><path fill="#fff" d="M0 0h216v56H0z"/></clipPath></defs></svg>