<svg width="217" height="82" fill="none" xmlns="http://www.w3.org/2000/svg"><g clip-path="url(#clip0_1967_28)"><path d="M3.085 80.853a.5.5 0 00.694.136l3.736-2.508a.5.5 0 10-.557-.83l-3.322 2.23-2.229-3.322a.5.5 0 10-.83.557l2.508 3.737zm.906-.183a34.12 34.12 0 01.438-1.935l-.97-.249a35.807 35.807 0 00-.45 1.991l.982.193zm1.613-5.61a31.314 31.314 0 011.627-3.538l-.88-.474A32.31 32.31 0 004.67 74.7l.933.361zm3.67-6.831A33.305 33.305 0 0111.7 65.2l-.743-.669a34.327 34.327 0 00-2.5 3.12l.817.578zm5.193-5.787a41.885 41.885 0 013.004-2.452l-.596-.803a42.87 42.87 0 00-3.076 2.51l.668.745zm6.228-4.648a57.092 57.092 0 013.416-1.971l-.47-.883a57.917 57.917 0 00-3.476 2.006l.53.848zm6.899-3.697a78.997 78.997 0 013.606-1.552l-.373-.927a80.134 80.134 0 00-3.652 1.571l.419.908zm7.297-2.943c1.209-.427 2.444-.838 3.705-1.234l-.3-.954c-1.27.399-2.518.814-3.738 1.245l.333.943zm7.51-2.36c1.237-.347 2.494-.68 3.77-1l-.243-.97a150.5 150.5 0 00-3.796 1.006l.27.963zm7.622-1.92a198.9 198.9 0 013.831-.83l-.202-.98c-1.3.269-2.583.546-3.85.834l.221.975zm7.711-1.596a282.3 282.3 0 013.866-.699l-.17-.985c-1.307.226-2.6.46-3.88.701l.184.983zm7.768-1.35a362.63 362.63 0 013.885-.6l-.147-.99c-1.31.196-2.608.396-3.897.603l.159.988zm7.803-1.166c1.29-.181 2.589-.357 3.896-.53l-.131-.991c-1.31.173-2.61.35-3.904.53l.139.99zm7.825-1.036a927.6 927.6 0 013.903-.48l-.12-.992a803.77 803.77 0 00-3.907.48l.124.992zm7.84-.945c1.297-.15 2.6-.3 3.906-.448l-.113-.994c-1.307.148-2.61.298-3.91.449l.116.993zm7.839-.89a4599.3 4599.3 0 013.918-.436l-.11-.994c-1.31.145-2.616.29-3.919.436l.11.993zm7.846-.871c1.306-.145 2.615-.29 3.925-.437l-.112-.994c-1.309.147-2.617.292-3.924.437l.111.994zm7.849-.88c1.308-.15 2.617-.3 3.926-.453l-.116-.993c-1.308.152-2.616.303-3.923.452l.113.994zm7.849-.92a813.15 813.15 0 003.921-.483l-.125-.992c-1.304.164-2.609.325-3.916.483l.12.992zm7.844-.987a540.89 540.89 0 003.909-.529l-.137-.99c-1.298.18-2.599.355-3.903.527l.131.992zm7.832-1.088c1.304-.191 2.605-.388 3.901-.59l-.154-.988c-1.293.202-2.591.398-3.892.589l.145.99zm7.813-1.22c1.303-.216 2.6-.44 3.892-.67l-.176-.984c-1.287.23-2.581.452-3.88.668l.164.986zm7.786-1.389c1.3-.249 2.593-.505 3.878-.77l-.202-.98c-1.28.264-2.568.52-3.864.768l.188.982zm7.747-1.6c1.295-.288 2.582-.587 3.858-.895l-.235-.972c-1.27.307-2.551.604-3.841.891l.218.976zm7.692-1.86a179.5 179.5 0 003.826-1.046l-.275-.962c-1.256.359-2.525.706-3.805 1.041l.254.968zm7.613-2.175c1.272-.397 2.531-.806 3.775-1.23l-.323-.947c-1.235.421-2.485.828-3.749 1.222l.297.955zm7.5-2.56c1.249-.467 2.482-.95 3.697-1.45l-.38-.925c-1.205.496-2.428.975-3.668 1.438l.351.937zm7.333-3.021a100.227 100.227 0 003.582-1.711l-.45-.894a98.249 98.249 0 01-3.545 1.694l.413.91zm7.09-3.571a82.524 82.524 0 003.414-2.015l-.53-.849a81.916 81.916 0 01-3.371 1.99l.487.874zm6.736-4.21a69.397 69.397 0 003.179-2.36l-.619-.786c-1.016.8-2.06 1.576-3.133 2.327l.573.82zm6.234-4.927c.99-.886 1.947-1.8 2.871-2.745l-.715-.699a58.37 58.37 0 01-2.823 2.699l.667.745zm5.556-5.687c.43-.506.851-1.02 1.263-1.541l-.785-.62a53.959 53.959 0 01-1.24 1.513l.762.648z" fill="#707070"/></g><defs><clipPath id="clip0_1967_28"><path fill="#fff" d="M0 0h217v82H0z"/></clipPath></defs></svg>