<svg width="115" height="115" fill="none" xmlns="http://www.w3.org/2000/svg"><g filter="url(#filter0_i_1836_1305)"><rect width="115" height="115" rx="15" fill="#F8F4F4"/></g><g filter="url(#filter1_d_1836_1305)"><path fill-rule="evenodd" clip-rule="evenodd" d="M97.861 39.438H18v49.965c0 6.132 17.877 11.103 39.93 11.103 22.054 0 39.931-4.97 39.931-11.103V39.437z" fill="#fff"/></g><g filter="url(#filter2_i_1836_1305)"><ellipse cx="57.931" cy="40.23" rx="39.931" ry="11.103" fill="#707070"/></g><g filter="url(#filter3_d_1836_1305)"><mask id="a" style="mask-type:alpha" maskUnits="userSpaceOnUse" x="18" y="39" width="80" height="62"><path fill-rule="evenodd" clip-rule="evenodd" d="M97.861 39.438H18v49.965c0 6.132 17.877 11.103 39.93 11.103 22.054 0 39.931-4.97 39.931-11.103V39.437z" fill="#fff"/></mask><g mask="url(#a)"><path fill-rule="evenodd" clip-rule="evenodd" d="M59.037 103.062c-12.103.033-42.18.116-42.533.134-.013-.616-.062-21.144-.018-24.494.019-2.91 2.045-4.968 4.852-4.955 2.807.014 4.792 2.084 4.803 5.008l-.003.546c-.013 1.106-.025 2.204.54 3.254 1 1.879 3.117 2.94 5.143 2.48a4.711 4.711 0 003.738-4.51c.01-.95.011-1.903.012-2.855.002-1.27.003-2.54.025-3.81a4.947 4.947 0 014.677-4.913h.041c2.476-.193 4.785 2.396 4.657 4.904-.085 1.65-.083 3.273 1.036 4.687a4.8 4.8 0 005.076 1.573c1.99-.625 3.325-2.26 3.362-4.195.013-.929.014-1.857.015-2.785.001-1.16.002-2.32.027-3.478a8.076 8.076 0 01.25-1.934c.093-.401.235-.788.422-1.152.358-.695.87-1.28 1.491-1.7a4.078 4.078 0 012.507-.706 4.731 4.731 0 012.736.722 4.733 4.733 0 012.214 3.989c0 1.762-.01 5.287-.022 9.43a4.552 4.552 0 002.357 1.856c.828.272 1.71.27 2.538-.004a4.39 4.39 0 002.112-1.538c1.032-1.407 1.044-3.031.976-4.681-.103-2.51 2.025-5.084 4.287-4.876h.037c1.151.077 2.231.632 3.02 1.55.79.918 1.228 2.13 1.227 3.391.012 1.27.006 2.539 0 3.809-.005.952-.01 1.904-.007 2.856a4.976 4.976 0 00.972 2.913c.616.823 1.468 1.394 2.42 1.62 1.849.47 3.79-.578 4.716-2.452.523-1.045.519-2.144.514-3.25-.001-.182-.002-.364 0-.546.028-2.924 1.855-4.982 4.421-4.98 2.567.004 4.407 2.073 4.407 4.984.02 3.35-.148 23.878-.164 24.493-.323-.02-27.812-.28-38.88-.385z" fill="#C1141E"/></g></g><g filter="url(#filter4_d_1836_1305)"><path fill-rule="evenodd" clip-rule="evenodd" d="M48.088 15.46a.923.923 0 00-1.568-.047c-1.775 2.625-5.952 9.396-7.428 16.962a8.21 8.21 0 00-.28 1.68l-.016.118c-.052.393-.04.764.031 1.114.367 4.237 3.947 7.563 8.309 7.563 4.415 0 8.029-3.407 8.32-7.718a3.553 3.553 0 00.019-.456v-.108c0-.278-.013-.553-.04-.824-.497-6.487-5.432-15.142-7.347-18.284z" fill="#fff"/></g><g filter="url(#filter5_d_1836_1305)"><path fill-rule="evenodd" clip-rule="evenodd" d="M71.186 29.736a.9.9 0 00-1.547-.04c-1.217 1.872-3.477 5.776-4.319 10.096-.09.331-.149.676-.171 1.03l-.011.08c-.033.246-.024.478.02.697.23 2.63 2.453 4.694 5.162 4.694 2.747 0 4.996-2.124 5.17-4.81.006-.07.01-.14.01-.213v-.122c0-.18-.009-.357-.027-.532-.295-3.746-2.96-8.645-4.287-10.88z" fill="#fff"/></g><defs><filter id="filter0_i_1836_1305" x="0" y="0" width="117" height="117" filterUnits="userSpaceOnUse" color-interpolation-filters="sRGB"><feFlood flood-opacity="0" result="BackgroundImageFix"/><feBlend in="SourceGraphic" in2="BackgroundImageFix" result="shape"/><feColorMatrix in="SourceAlpha" values="0 0 0 0 0 0 0 0 0 0 0 0 0 0 0 0 0 0 127 0" result="hardAlpha"/><feOffset dx="2" dy="2"/><feGaussianBlur stdDeviation="3"/><feComposite in2="hardAlpha" operator="arithmetic" k2="-1" k3="1"/><feColorMatrix values="0 0 0 0 0 0 0 0 0 0 0 0 0 0 0 0 0 0 0.05 0"/><feBlend in2="shape" result="effect1_innerShadow_1836_1305"/></filter><filter id="filter1_d_1836_1305" x="15" y="32.438" width="85.861" height="68.068" filterUnits="userSpaceOnUse" color-interpolation-filters="sRGB"><feFlood flood-opacity="0" result="BackgroundImageFix"/><feColorMatrix in="SourceAlpha" values="0 0 0 0 0 0 0 0 0 0 0 0 0 0 0 0 0 0 127 0" result="hardAlpha"/><feOffset dy="-4"/><feGaussianBlur stdDeviation="1.5"/><feComposite in2="hardAlpha" operator="out"/><feColorMatrix values="0 0 0 0 0 0 0 0 0 0 0 0 0 0 0 0 0 0 0.25 0"/><feBlend in2="BackgroundImageFix" result="effect1_dropShadow_1836_1305"/><feBlend in="SourceGraphic" in2="effect1_dropShadow_1836_1305" result="shape"/></filter><filter id="filter2_i_1836_1305" x="18" y="29.127" width="79.861" height="26.207" filterUnits="userSpaceOnUse" color-interpolation-filters="sRGB"><feFlood flood-opacity="0" result="BackgroundImageFix"/><feBlend in="SourceGraphic" in2="BackgroundImageFix" result="shape"/><feColorMatrix in="SourceAlpha" values="0 0 0 0 0 0 0 0 0 0 0 0 0 0 0 0 0 0 127 0" result="hardAlpha"/><feOffset dy="4"/><feGaussianBlur stdDeviation="2.5"/><feComposite in2="hardAlpha" operator="arithmetic" k2="-1" k3="1"/><feColorMatrix values="0 0 0 0 0 0 0 0 0 0 0 0 0 0 0 0 0 0 0.5 0"/><feBlend in2="shape" result="effect1_innerShadow_1836_1305"/></filter><filter id="filter3_d_1836_1305" x="15" y="63.154" width="85.861" height="42.352" filterUnits="userSpaceOnUse" color-interpolation-filters="sRGB"><feFlood flood-opacity="0" result="BackgroundImageFix"/><feColorMatrix in="SourceAlpha" values="0 0 0 0 0 0 0 0 0 0 0 0 0 0 0 0 0 0 127 0" result="hardAlpha"/><feOffset dy="2"/><feGaussianBlur stdDeviation="1.5"/><feComposite in2="hardAlpha" operator="out"/><feColorMatrix values="0 0 0 0 0 0 0 0 0 0 0 0 0 0 0 0 0 0 0.3 0"/><feBlend in2="BackgroundImageFix" result="effect1_dropShadow_1836_1305"/><feBlend in="SourceGraphic" in2="effect1_dropShadow_1836_1305" result="shape"/></filter><filter id="filter4_d_1836_1305" x="35.764" y="14" width="22.711" height="33.85" filterUnits="userSpaceOnUse" color-interpolation-filters="sRGB"><feFlood flood-opacity="0" result="BackgroundImageFix"/><feColorMatrix in="SourceAlpha" values="0 0 0 0 0 0 0 0 0 0 0 0 0 0 0 0 0 0 127 0" result="hardAlpha"/><feOffset dy="2"/><feGaussianBlur stdDeviation="1.5"/><feComposite in2="hardAlpha" operator="out"/><feColorMatrix values="0 0 0 0 0 0 0 0 0 0 0 0 0 0 0 0 0 0 0.25 0"/><feBlend in2="BackgroundImageFix" result="effect1_dropShadow_1836_1305"/><feBlend in="SourceGraphic" in2="effect1_dropShadow_1836_1305" result="shape"/></filter><filter id="filter5_d_1836_1305" x="62.118" y="28.275" width="16.382" height="23.018" filterUnits="userSpaceOnUse" color-interpolation-filters="sRGB"><feFlood flood-opacity="0" result="BackgroundImageFix"/><feColorMatrix in="SourceAlpha" values="0 0 0 0 0 0 0 0 0 0 0 0 0 0 0 0 0 0 127 0" result="hardAlpha"/><feOffset dy="2"/><feGaussianBlur stdDeviation="1.5"/><feComposite in2="hardAlpha" operator="out"/><feColorMatrix values="0 0 0 0 0 0 0 0 0 0 0 0 0 0 0 0 0 0 0.25 0"/><feBlend in2="BackgroundImageFix" result="effect1_dropShadow_1836_1305"/><feBlend in="SourceGraphic" in2="effect1_dropShadow_1836_1305" result="shape"/></filter></defs></svg>