<svg width="73" height="32" fill="none" xmlns="http://www.w3.org/2000/svg"><path d="M1.51 28.585c23.326-5.465 46.654-5.465 69.98 0 .772.18 1.51-.4 1.51-1.194V1.227c0-.794-.738-1.374-1.51-1.194-23.326 5.464-46.653 5.464-69.98 0C.737-.147 0 .433 0 1.227V27.39c0 .794.738 1.374 1.51 1.194z" fill="#CE0E2D"/><path d="M11.02 23.1c-1.348.18-2.695.375-4.039.585l.053-18.767c1.303.21 2.607.407 3.913.59l-.006 2.264a253.67 253.67 0 01-2.349-.257l-.014 5.042c.55.018 1.102.034 1.653.05l-.006 2.29-1.654.011c-.006 2.063-.01 4.127-.017 6.19.824-.09 1.648-.175 2.473-.256l-.006 2.26-.002-.002zm1.268-17.409c.523.07 1.045.137 1.568.202l-.041 14.69a189.5 189.5 0 011.85-.155l-.006 2.111c-1.141.124-2.282.258-3.42.403l.049-17.25zm7.557 13.391c-.583.03-1.166.061-1.748.094l-.253 3.139c-.524.05-1.048.103-1.573.158.447-5.476.893-10.857 1.34-16.153.93.097 1.863.187 2.796.27.405 5.203.81 10.333 1.215 15.397-.513.04-1.026.08-1.539.124l-.237-3.03zm-1.568-1.957c.466-.015.933-.03 1.399-.043-.225-2.842-.45-5.707-.675-8.596-.241 2.855-.483 5.734-.724 8.639zm5.913.189l-.008 2.579c.444-.021.887-.04 1.332-.058l.013-4.764-1.857.006c-.613.004-1.048-.622-1.047-1.271.005-1.911.01-3.822.017-5.731.002-.758.424-1.266 1.053-1.22.794.056 1.588.107 2.382.154.596.035 1.05.58 1.047 1.288l-.008 3.062-1.577-.039.008-2.445c-.444-.02-.887-.043-1.33-.065-.005 1.449-.01 2.899-.013 4.348l1.856.023c.596.008 1.05.596 1.048 1.262l-.017 5.979c-.002.666-.476 1.25-1.054 1.282-.794.041-1.59.089-2.382.14-.56.039-1.05-.51-1.047-1.203l.009-3.288 1.575-.04zm5.209-8.293c-.467-.015-.935-.03-1.402-.048l.005-1.864c1.461.07 2.922.124 4.383.16l-.006 1.827c-.467-.01-.935-.02-1.402-.032l-.036 12.442c-.526.014-1.052.03-1.577.049l.035-12.534zm3.858-.516c.002-.647.494-1.205 1.055-1.196.795.011 1.59.018 2.385.02.597 0 1.05.563 1.05 1.21l-.033 11.72c-.003.646-.477 1.186-1.056 1.184-.795-.003-1.59 0-2.385.006-.561.005-1.05-.533-1.05-1.182l.034-11.762zm2.909.637l-1.333-.01-.03 10.496c.445-.002.89-.002 1.333-.002l.03-10.486v.002zm8.347 12.493l-.006-7.489-1.244 7.407-1.28-.026-1.245-7.382.006 7.357c-.544-.014-1.087-.026-1.63-.034l.04-14.151c.526-.007 1.117-.016 1.643-.026l1.83 10.054 1.852-10.162c.526-.02 1.128-.048 1.654-.074l-.041 14.605c-.525-.028-1.051-.055-1.578-.079zm7.039.453c-1.354-.113-2.707-.21-4.061-.294l.041-14.76c1.314-.073 2.627-.16 3.94-.26l-.005 1.967c-.788.045-1.576.085-2.364.122-.004 1.375-.008 2.749-.01 4.124l1.662-.018-.005 1.954-1.663-.012-.015 5.063c.83.044 1.658.091 2.486.143l-.005 1.97h-.001zm4.144-6.43l-1.328-.024-.02 6.71c-.523-.052-1.047-.1-1.573-.148l.044-15.528a186.89 186.89 0 003.235-.3c.594-.062 1.046.544 1.044 1.294-.005 1.902-.01 3.804-.017 5.707-.002.585-.23 1.028-.545 1.143.47.14.731.8.73 1.387l-.018 6.752a157.82 157.82 0 00-1.572-.172l.02-6.822v.001zm-1.322-2.056c.378-.003.758-.005 1.136-.009l.014-5.109c-.378.028-.758.054-1.136.08l-.014 5.039v-.001zm4.229-7.512c.523-.06 1.047-.123 1.57-.188L60.126 23c-.523-.067-1.046-.134-1.57-.197l.048-16.713zm5.84 4.718l.01-3.134c-.441.048-.883.095-1.324.14l-.037 13.294c.44.048.882.098 1.322.148l.01-3.16c.521.032 1.042.067 1.563.1l-.01 4.076c-.003.86-.474 1.508-1.048 1.416a190.03 190.03 0 00-2.366-.353c-.557-.082-1.043-.822-1.04-1.619l.042-14.492c.002-.796.492-1.559 1.05-1.638.789-.107 1.578-.221 2.367-.34.59-.092 1.04.59 1.039 1.45-.005 1.34-.008 2.68-.012 4.021-.52.032-1.043.062-1.565.092h-.001z" fill="#fff"/><path d="M26.031 28.53a1.071 1.071 0 00-.15-.111 1.824 1.824 0 00-.263-.138 2.291 2.291 0 00-.337-.115 1.48 1.48 0 00-.37-.048c-.223 0-.39.042-.499.123a.408.408 0 00-.164.347c0 .086.02.158.062.215.041.057.1.107.179.15.078.044.177.082.296.117.118.035.257.073.413.112.204.055.388.114.554.176a1.5 1.5 0 01.423.235.983.983 0 01.267.338c.063.132.094.293.094.485 0 .223-.043.415-.126.573a1.064 1.064 0 01-.34.386c-.143.098-.308.17-.493.214a2.42 2.42 0 01-.584.067c-.313 0-.621-.047-.926-.14a2.862 2.862 0 01-.822-.4l.358-.7c.035.035.098.082.19.138a2.706 2.706 0 00.742.315c.153.04.31.058.47.058.446 0 .669-.143.669-.429a.352.352 0 00-.077-.229.647.647 0 00-.217-.165 2.07 2.07 0 00-.34-.13l-.446-.129a3.854 3.854 0 01-.519-.179 1.389 1.389 0 01-.367-.229.846.846 0 01-.22-.306 1.044 1.044 0 01-.073-.414c0-.211.039-.4.117-.565.078-.165.187-.301.325-.411.139-.11.3-.193.484-.25.184-.057.381-.085.592-.085.294 0 .564.046.81.138.246.092.46.201.645.326l-.358.658.001.002zm1.552-1.091l1.026 2.01 1.045-2.01h.874l-1.513 2.715v1.458h-.804v-1.47l-1.507-2.704h.88-.001zm5.737 1.091a1.065 1.065 0 00-.15-.111 1.823 1.823 0 00-.263-.138 2.295 2.295 0 00-.337-.115 1.48 1.48 0 00-.37-.048c-.222 0-.389.042-.498.123a.408.408 0 00-.165.347c0 .086.021.158.063.215.04.057.1.107.178.15.079.044.177.082.296.117s.257.073.414.112c.203.055.387.114.554.176.165.062.307.141.422.235a.98.98 0 01.267.338c.063.132.094.293.094.485 0 .223-.042.415-.126.573a1.066 1.066 0 01-.34.386 1.46 1.46 0 01-.492.214 2.45 2.45 0 01-.584.067 3.15 3.15 0 01-.926-.14 2.86 2.86 0 01-.822-.4l.357-.7c.035.035.099.082.19.138a2.867 2.867 0 00.743.315c.153.04.309.058.47.058.446 0 .668-.143.668-.429a.351.351 0 00-.076-.229.646.646 0 00-.218-.165 2.071 2.071 0 00-.34-.13l-.445-.129a3.856 3.856 0 01-.52-.179 1.389 1.389 0 01-.366-.229.846.846 0 01-.22-.306 1.046 1.046 0 01-.074-.414c0-.211.04-.4.117-.565.079-.165.187-.301.326-.411.138-.11.3-.193.484-.25.183-.057.381-.085.592-.085a2.3 2.3 0 01.81.138c.245.092.46.201.645.326l-.358.658v.002zm4.263-.382h-1.331v3.463h-.804v-3.463h-1.331v-.71h3.466v.71zm3.386 2.752v.71h-2.892v-4.172h2.839v.71h-2.03v1.005h1.755v.66h-1.754v1.086h2.082zm4.131.71v-2.76l-1.073 2.057h-.44l-1.072-2.057v2.762h-.81v-4.174h.869l1.23 2.375 1.244-2.375h.863v4.174h-.81zm4.222-3.08a1.071 1.071 0 00-.15-.111 1.824 1.824 0 00-.263-.138 2.287 2.287 0 00-.337-.115 1.479 1.479 0 00-.37-.048c-.223 0-.39.042-.499.123a.408.408 0 00-.164.347c0 .086.02.158.062.215.041.057.1.107.179.15.078.044.177.082.295.117.12.035.258.073.414.112.204.055.388.114.554.176a1.5 1.5 0 01.423.235.983.983 0 01.267.338c.063.132.094.293.094.485 0 .223-.043.415-.126.573a1.065 1.065 0 01-.34.386 1.46 1.46 0 01-.493.214 2.42 2.42 0 01-.584.067c-.313 0-.621-.047-.926-.14a2.862 2.862 0 01-.822-.4l.358-.7c.035.035.098.082.19.138a2.706 2.706 0 00.742.315c.153.04.31.058.47.058.446 0 .669-.143.669-.429a.352.352 0 00-.077-.229.647.647 0 00-.217-.165 2.07 2.07 0 00-.34-.13l-.446-.129a3.85 3.85 0 01-.519-.179 1.389 1.389 0 01-.367-.229.846.846 0 01-.22-.306 1.046 1.046 0 01-.073-.414c0-.211.039-.4.116-.565.08-.165.188-.301.326-.411.139-.11.3-.193.484-.25.184-.057.382-.085.592-.085.294 0 .564.046.81.138.246.092.46.201.645.326l-.358.658.001.002z" fill="#101820"/><path d="M70.753 3.6a1.453 1.453 0 00-.343-.493 1.62 1.62 0 00-.52-.328 1.74 1.74 0 00-.651-.119c-.234 0-.45.04-.648.12-.199.08-.371.188-.516.327a1.463 1.463 0 00-.34.493c-.08.19-.12.397-.12.62 0 .222.04.433.12.623.081.19.194.356.34.496.146.14.317.25.516.33.198.08.414.12.648.12.233 0 .45-.04.65-.12.2-.08.374-.189.521-.33.147-.14.262-.305.343-.496.082-.19.123-.399.123-.624 0-.224-.04-.428-.123-.62zm-.34 1.122a1.15 1.15 0 01-.27.389 1.239 1.239 0 01-.404.252 1.37 1.37 0 01-.5.091c-.177 0-.352-.03-.505-.094a1.18 1.18 0 01-.658-.655 1.24 1.24 0 01-.094-.484 1.22 1.22 0 01.355-.868c.112-.11.244-.197.397-.26.153-.063.322-.094.506-.094s.352.031.508.094a1.205 1.205 0 01.763 1.136c0 .173-.034.344-.099.495v-.002z" fill="#fff"/><path d="M69.583 4.41a.427.427 0 00.21-.182.527.527 0 00-.063-.64.54.54 0 00-.16-.123.45.45 0 00-.203-.047h-.704v1.591h.343v-.535h.232l.332.535h.386l-.372-.6zm-.102-.292a.182.182 0 01-.143.06h-.332v-.455h.325a.2.2 0 01.143.056c.039.037.06.094.06.172a.243.243 0 01-.053.167z" fill="#fff"/></svg>