<svg xmlns="http://www.w3.org/2000/svg" width="25" height="19" fill="none"><path d="M24.673 1.948v15.097c-.007.014-.018.028-.02.044-.179 1.17-1.145 1.945-2.381 1.91-1.076-.03-2.152-.006-3.228-.006H2.3C.96 18.99.006 18.067.005 16.74c-.007-4.829-.008-9.658.007-14.487 0-.337.082-.702.225-1.006C.648.375 1.383 0 2.324 0h20.02c.056 0 .112 0 .168.002.685.032 1.254.296 1.69.843.262.327.377.708.471 1.103zm-2.538-.467H2.495l9.86 9.879 9.78-9.879zm-6.901 9.056c-.054.066-.104.14-.166.202-.691.701-1.384 1.401-2.078 2.1-.412.415-.796.416-1.21.002-.72-.719-1.436-1.44-2.155-2.16-.06-.06-.124-.118-.143-.137-2.32 2.343-4.62 4.668-6.897 6.97h19.552l-6.903-6.977zM1.458 16.352l6.883-6.956-6.883-6.898v13.854zm14.917-6.878l6.836 6.908V2.566l-6.835 6.908z" fill="#707070"/></svg>