<svg xmlns="http://www.w3.org/2000/svg" width="93" height="40" fill="none"><path d="M1.908 36.125c29.48-6.905 58.961-6.905 88.442 0a1.55 1.55 0 001.908-1.508V1.55A1.55 1.55 0 0090.35.042c-29.48 6.906-58.962 6.906-88.442 0A1.55 1.55 0 000 1.55v33.067a1.55 1.55 0 001.908 1.508z" fill="#CE0E2D"/><path d="M13.926 29.197c-1.702.228-3.405.474-5.103.739L8.89 6.218c1.646.266 3.295.515 4.945.747l-.008 2.86c-.99-.103-1.98-.211-2.969-.324l-.018 6.372 2.09.064-.008 2.892c-.697.004-1.393.01-2.09.015l-.022 7.822c1.041-.113 2.083-.221 3.125-.323l-.007 2.855h-.002zM15.53 7.195c.66.088 1.32.173 1.982.255l-.053 18.564c.779-.068 1.559-.133 2.339-.195l-.008 2.669a227.36 227.36 0 00-4.322.509c.021-7.267.04-14.533.062-21.8v-.002zm9.55 16.923c-.737.038-1.474.077-2.21.12l-.32 3.965c-.662.064-1.324.131-1.987.2.565-6.92 1.128-13.72 1.692-20.413 1.178.122 2.356.236 3.535.34.512 6.576 1.024 13.06 1.536 19.46-.65.05-1.297.102-1.945.157l-.3-3.829zm-1.982-2.473l1.768-.054a7049.48 7049.48 0 01-.853-10.864c-.305 3.608-.61 7.247-.915 10.918zm7.472.238l-.01 3.259c.561-.026 1.122-.05 1.684-.073l.017-6.021-2.347.008c-.775.005-1.325-.786-1.323-1.607l.02-7.242c.003-.959.536-1.6 1.332-1.543 1.003.072 2.007.136 3.01.195.753.045 1.326.734 1.324 1.628-.004 1.29-.008 2.58-.01 3.87-.665-.015-1.33-.032-1.993-.05l.009-3.09a320.68 320.68 0 01-1.682-.082l-.015 5.496 2.346.029c.753.01 1.326.753 1.324 1.594l-.021 7.557c-.003.842-.602 1.58-1.333 1.62a215.94 215.94 0 00-3.01.178c-.708.048-1.326-.646-1.324-1.522l.012-4.154a943.22 943.22 0 011.991-.05zm6.584-10.478c-.59-.018-1.181-.038-1.772-.06l.007-2.356c1.846.089 3.692.156 5.538.202l-.006 2.308c-.59-.012-1.183-.025-1.773-.04l-.045 15.724c-.665.019-1.33.038-1.994.062l.045-15.84zm4.876-.654c.003-.818.625-1.522 1.334-1.512 1.005.014 2.01.024 3.014.025.754.001 1.328.712 1.326 1.53l-.041 14.813c-.003.816-.603 1.498-1.334 1.495-1.005-.004-2.01 0-3.015.008-.71.006-1.327-.674-1.326-1.494l.042-14.865zm3.677.804a313.75 313.75 0 01-1.684-.011c-.014 4.421-.025 8.842-.038 13.264.562-.003 1.123-.003 1.684-.003l.038-13.25zm10.549 15.792l-.008-9.464-1.573 9.36-1.618-.033-1.573-9.329.008 9.297c-.687-.017-1.374-.033-2.06-.043l.05-17.884c.666-.008 1.412-.02 2.077-.033l2.312 12.707 2.342-12.843c.665-.026 1.425-.06 2.09-.093l-.052 18.458c-.664-.036-1.329-.07-1.994-.1h-.001zm8.894.573c-1.71-.144-3.42-.267-5.132-.373l.053-18.652c1.66-.093 3.32-.203 4.979-.33l-.007 2.486c-.995.057-1.99.108-2.986.155l-.015 5.211c.7-.006 1.402-.014 2.102-.022-.002.824-.005 1.646-.006 2.47l-2.102-.016-.019 6.399c1.048.055 2.095.115 3.141.18l-.006 2.491h-.002zm5.238-8.13l-1.678-.03-.024 8.48a219.27 219.27 0 00-1.989-.187l.055-19.625a239.34 239.34 0 004.088-.38c.752-.078 1.323.688 1.32 1.636l-.02 7.213c-.004.74-.29 1.3-.69 1.445.595.177.924 1.01.923 1.752l-.023 8.534c-.662-.076-1.324-.148-1.986-.218.007-2.874.015-5.747.024-8.621v.001zm-1.67-2.599l1.435-.01.018-6.457c-.478.035-.957.068-1.435.1l-.019 6.368zM74.063 7.7c.66-.075 1.323-.155 1.984-.237l-.061 21.608c-.661-.085-1.322-.168-1.984-.248l.06-21.122zm7.38 5.96l.012-3.96c-.556.06-1.114.12-1.672.177l-.047 16.8c.556.061 1.114.124 1.67.188l.013-3.994c.66.041 1.318.084 1.976.127l-.014 5.15c-.003 1.088-.598 1.907-1.323 1.79-.996-.155-1.993-.303-2.99-.446-.704-.104-1.318-1.039-1.314-2.046l.052-18.316c.003-1.005.622-1.969 1.326-2.069.998-.136 1.995-.28 2.992-.429.747-.117 1.316.744 1.313 1.832l-.014 5.082c-.659.04-1.319.078-1.978.116l-.002-.001z" fill="#fff"/><path d="M32.899 36.05a1.333 1.333 0 00-.19-.142 2.285 2.285 0 00-.333-.174 2.894 2.894 0 00-.426-.145 1.869 1.869 0 00-.468-.06c-.28 0-.49.052-.63.155a.516.516 0 00-.207.439c0 .108.026.199.078.27a.676.676 0 00.226.19c.1.056.224.104.374.149.15.044.325.091.523.141.257.07.49.144.7.223a1.9 1.9 0 01.534.297c.145.12.258.26.337.427.08.166.12.37.12.613 0 .281-.054.523-.16.724-.106.2-.25.362-.43.487-.18.124-.388.215-.622.27a3.09 3.09 0 01-.738.086c-.396 0-.785-.06-1.17-.178a3.617 3.617 0 01-1.04-.506l.453-.883c.044.044.124.103.24.174.116.072.253.144.412.216.158.072.333.132.526.182.194.05.39.073.593.073.565 0 .846-.18.846-.542a.444.444 0 00-.097-.29.814.814 0 00-.274-.208 2.602 2.602 0 00-.43-.163l-.563-.164a4.861 4.861 0 01-.656-.226 1.756 1.756 0 01-.464-.29 1.07 1.07 0 01-.278-.386 1.322 1.322 0 01-.093-.524c0-.267.05-.505.148-.713.099-.209.236-.382.411-.52.175-.14.379-.244.611-.316.233-.072.483-.107.75-.107.37 0 .711.057 1.022.174.311.116.583.254.815.412l-.452.832.002.003zm1.961-1.382l1.297 2.54 1.32-2.54h1.105L36.67 38.1v1.842h-1.015v-1.858l-1.905-3.417h1.112l-.001.001zm7.25 1.382a1.347 1.347 0 00-.188-.142 2.296 2.296 0 00-.334-.174 2.905 2.905 0 00-.426-.145 1.87 1.87 0 00-.467-.06c-.281 0-.492.052-.63.155a.516.516 0 00-.208.439.45.45 0 00.078.27.677.677 0 00.227.19c.099.056.223.104.373.149.15.044.326.091.523.141.257.07.49.144.7.223.21.078.388.178.534.297.146.12.258.26.338.427.08.166.118.37.118.613 0 .281-.053.523-.159.724-.106.2-.25.362-.43.487-.18.124-.388.215-.622.27-.235.058-.48.086-.738.086-.396 0-.785-.06-1.17-.178a3.616 3.616 0 01-1.04-.506l.453-.883c.044.044.124.103.24.174.117.072.254.144.412.216.158.072.333.132.526.182.194.05.391.073.593.073.565 0 .846-.18.846-.542a.445.445 0 00-.097-.29.817.817 0 00-.274-.208 2.605 2.605 0 00-.43-.163l-.563-.164a4.885 4.885 0 01-.656-.226 1.756 1.756 0 01-.464-.29 1.07 1.07 0 01-.278-.386 1.322 1.322 0 01-.093-.524c0-.267.05-.505.148-.713.099-.209.236-.382.411-.52.175-.14.38-.244.612-.316.232-.072.482-.107.748-.107.371 0 .712.057 1.023.174.311.116.583.254.816.412l-.452.832v.002zm5.388-.484h-1.683v4.376H44.8v-4.376h-1.683v-.898h4.38v.898zm4.279 3.477v.9h-3.654v-5.275h3.587v.898h-2.564v1.27h2.217v.833h-2.217v1.374h2.631zm5.221.899v-3.49l-1.357 2.6h-.555l-1.356-2.6v3.49h-1.023v-5.274h1.097l1.556 3.001 1.572-3.001h1.09v5.274h-1.024zm5.336-3.892a1.35 1.35 0 00-.19-.142 2.291 2.291 0 00-.333-.174 2.9 2.9 0 00-.426-.145 1.869 1.869 0 00-.468-.06c-.28 0-.49.052-.63.155a.516.516 0 00-.207.439c0 .108.026.199.078.27a.676.676 0 00.226.19c.1.056.224.104.374.149.15.044.325.091.523.141.257.07.49.144.7.223.209.078.388.178.534.297.145.12.258.26.337.427.08.166.12.37.12.613 0 .281-.054.523-.16.724-.106.2-.25.362-.43.487-.18.124-.388.215-.622.27-.235.058-.48.086-.738.086-.396 0-.785-.06-1.17-.178a3.617 3.617 0 01-1.04-.506l.453-.883c.044.044.124.103.24.174.116.072.253.144.412.216.158.072.333.132.526.182.194.05.39.073.593.073.565 0 .846-.18.846-.542a.445.445 0 00-.097-.29.817.817 0 00-.274-.208 2.605 2.605 0 00-.43-.163l-.563-.164a4.875 4.875 0 01-.656-.226 1.756 1.756 0 01-.464-.29 1.068 1.068 0 01-.278-.386 1.322 1.322 0 01-.093-.524c0-.267.05-.505.147-.713.1-.209.237-.382.412-.52.175-.14.379-.244.611-.316.233-.072.483-.107.75-.107.37 0 .711.057 1.022.174.311.116.583.254.815.412l-.452.832.002.002z" fill="#101820"/><path d="M89.419 4.553a1.838 1.838 0 00-.434-.624 2.047 2.047 0 00-.659-.413 2.2 2.2 0 00-.821-.15 2.155 2.155 0 00-.82.15c-.25.1-.469.238-.652.413a1.85 1.85 0 00-.428.624c-.102.24-.153.501-.153.783 0 .281.051.547.153.788.102.24.244.45.428.627.185.177.401.316.652.417.251.1.524.15.82.15a2.2 2.2 0 00.821-.15c.254-.101.473-.239.659-.417a1.88 1.88 0 00.434-.627c.103-.24.155-.504.155-.788 0-.284-.052-.542-.155-.783zm-.431 1.418a1.453 1.453 0 01-.341.49 1.567 1.567 0 01-.51.32 1.732 1.732 0 01-.631.116c-.225 0-.446-.04-.639-.12a1.491 1.491 0 01-.502-.33 1.567 1.567 0 01-.45-1.11 1.542 1.542 0 01.45-1.096 1.54 1.54 0 01.502-.329c.193-.08.406-.119.639-.119.233 0 .445.04.641.12a1.522 1.522 0 01.964 1.435c0 .218-.041.434-.123.625v-.002z" fill="#fff"/><path d="M87.94 5.578a.54.54 0 00.265-.23.67.67 0 00.1-.351.727.727 0 00-.18-.457.681.681 0 00-.202-.156.57.57 0 00-.257-.06h-.89v2.012h.434V5.66h.293l.42.677h.488l-.47-.76-.001.002zm-.13-.368a.23.23 0 01-.18.076h-.42V4.71h.41c.071 0 .131.023.181.07.05.048.076.12.076.218a.308.308 0 01-.067.212z" fill="#fff"/></svg>