<svg xmlns="http://www.w3.org/2000/svg" width="131" height="24" fill="none"><path d="M.666 7.628a.5.5 0 00.668.744l-.668-.744zM70.5 16l.101.49L70.5 16zm10-8l-.493-.082L80.5 8zm-8-1l-.494-.076L72.5 7zm57.499-.033a.5.5 0 00-.532-.466l-4.49.3a.5.5 0 00.066.997l3.991-.266.266 3.991a.5.5 0 00.998-.066l-.299-4.49zM1.334 8.372c.246-.22.492-.435.74-.643l-.645-.764c-.255.215-.51.436-.763.663l.668.744zm2.231-1.829a29.585 29.585 0 011.588-1.106l-.545-.839c-.55.357-1.097.738-1.64 1.144l.597.801zm3.231-2.095a26.81 26.81 0 011.702-.868l-.422-.907a28.22 28.22 0 00-1.765.9l.485.875zm3.466-1.613a25.93 25.93 0 011.819-.614l-.285-.958c-.632.187-1.261.4-1.888.637l.354.935zm3.674-1.091a27.207 27.207 0 011.885-.343l-.144-.99c-.653.096-1.305.214-1.955.356l.214.977zm3.791-.554a29.29 29.29 0 011.92-.086l-.013-1c-.662.009-1.323.038-1.983.089l.076.997zm3.843-.054c.639.03 1.28.077 1.92.142l.1-.995a36.473 36.473 0 00-1.974-.146l-.046 1zm3.834.383c.634.096 1.27.207 1.904.332L27.5.87a44.262 44.262 0 00-1.948-.34l-.15.99zm3.792.744c.625.149 1.25.31 1.873.483l.267-.963c-.634-.176-1.27-.34-1.908-.493l-.232.973zm3.732 1.03c.617.193 1.231.394 1.845.604l.324-.946a70.333 70.333 0 00-1.871-.612l-.298.955zm3.673 1.256a99.6 99.6 0 011.815.694l.367-.93a96.37 96.37 0 00-1.835-.702l-.347.938zm3.618 1.425c.6.25 1.198.503 1.792.76l.397-.917c-.598-.26-1.2-.515-1.805-.767l-.384.924zm3.573 1.545c.596.267 1.188.536 1.777.806l.416-.91c-.59-.27-1.186-.54-1.785-.809l-.408.913zm3.549 1.625l1.769.828.425-.905c-.585-.275-1.176-.552-1.772-.829l-.422.906zm3.536 1.658c.595.28 1.185.555 1.769.826l.42-.907c-.582-.27-1.17-.545-1.764-.824l-.425.905zm3.55 1.643c.606.275 1.204.541 1.795.8l.4-.918c-.586-.255-1.18-.52-1.782-.793l-.412.911zm3.605 1.567c.62.255 1.231.497 1.832.724l.353-.936a65.804 65.804 0 01-1.804-.713l-.38.925zm3.693 1.385a34.69 34.69 0 001.898.572l.259-.966a33.59 33.59 0 01-1.843-.555l-.314.95zm3.838 1.015c.68.125 1.342.211 1.986.254l.066-.997a16.62 16.62 0 01-1.871-.24l-.18.983zm4.028.23c.343-.034.68-.084 1.01-.152l-.202-.98a8.755 8.755 0 01-.907.138l.099.995zm1.01-.152c.389-.08.769-.163 1.14-.248l-.223-.975c-.363.084-.737.164-1.12.243l.203.98zm3.411-.854a15.33 15.33 0 002.22-.876l-.445-.895c-.628.312-1.32.58-2.076.818l.301.953zm4.25-2.218a7.613 7.613 0 001.56-1.902l-.865-.502a6.615 6.615 0 01-1.356 1.654l.662.75zM80.74 9.26c.1-.373.184-.765.253-1.178l-.986-.164a11.48 11.48 0 01-.233 1.084l.966.258zm.253-1.178a8.83 8.83 0 00.109-.965l-.999-.055a7.87 7.87 0 01-.096.856l.986.164zm-.06-2.922a4.56 4.56 0 00-.9-1.818l-.769.64c.306.367.553.84.7 1.422l.97-.244zm-2.592-3.004a4.13 4.13 0 00-2.044-.18l.158.987a3.13 3.13 0 011.55.135l.336-.942zm-3.925.583a5.24 5.24 0 00-1.395 1.438l.835.55c.324-.49.71-.878 1.127-1.165l-.568-.823zm-2.203 3.23c-.086.302-.156.62-.207.955l.988.152a7.07 7.07 0 01.18-.834l-.961-.273zm-.207.955a7.512 7.512 0 00-.087 1.092l1 .006c.002-.316.027-.632.075-.946l-.988-.152zm.194 3.24c.18.678.445 1.348.785 2.005l.888-.46a8.904 8.904 0 01-.707-1.802l-.966.258zm1.921 3.795c.413.546.877 1.08 1.39 1.596l.71-.704a14.747 14.747 0 01-1.302-1.495l-.798.603zm2.947 2.998c.527.426 1.09.838 1.683 1.233l.554-.832a21.481 21.481 0 01-1.608-1.179l-.629.778zm3.465 2.315c.595.33 1.215.643 1.857.94l.42-.909a27.452 27.452 0 01-1.792-.906l-.485.875zm3.773 1.745a32.9 32.9 0 001.962.68l.297-.956a31.798 31.798 0 01-1.902-.658l-.357.934zm3.96 1.235c.662.163 1.338.31 2.026.437l.182-.983a34.79 34.79 0 01-1.969-.425l-.24.971zm4.072.757c.678.087 1.365.156 2.061.206l.072-.997a36.411 36.411 0 01-2.006-.2l-.127.991zm4.13.299a38.49 38.49 0 002.072-.02l-.036-1c-.68.025-1.352.031-2.018.02l-.017 1zm4.14-.15a39.178 39.178 0 002.06-.24l-.142-.99c-.673.096-1.343.174-2.007.234l.089.996zm4.097-.588a39.775 39.775 0 002.016-.453l-.244-.97c-.658.167-1.313.314-1.966.442l.194.981zm4.008-1.01c.654-.2 1.309-.42 1.964-.658l-.342-.94a39.61 39.61 0 01-1.915.643l.293.956zm3.895-1.417a42.317 42.317 0 001.878-.848l-.433-.9a42.29 42.29 0 01-1.834.827l.389.921zm3.717-1.788c.601-.325 1.2-.668 1.798-1.03l-.517-.855c-.585.353-1.171.688-1.757 1.006l.476.88zm3.542-2.14a45.756 45.756 0 001.685-1.182l-.592-.805c-.548.402-1.097.788-1.649 1.156l.556.832zm3.326-2.443c.53-.426 1.058-.869 1.583-1.328l-.658-.753c-.515.45-1.032.884-1.552 1.301l.627.78zm3.103-2.712c.495-.469.987-.954 1.477-1.454l-.716-.7c-.48.492-.963.968-1.449 1.428l.688.726zm2.884-2.95c.233-.256.465-.517.696-.78l-.752-.66c-.227.26-.456.516-.684.768l.74.672z" fill="#707070"/></svg>