<svg xmlns="http://www.w3.org/2000/svg" width="27" height="24" viewBox="0 0 27 24" fill="none">
  <path d="M21.8122 12.8461C21.3146 12.8461 20.9166 13.2568 20.9166 13.757V21.3288H6.08405V13.757C6.08405 13.2568 5.68604 12.8461 5.18846 12.8461C4.69088 12.8461 4.29287 13.2568 4.29287 13.757V22.2397C4.29287 22.7399 4.69088 23.1506 5.18846 23.1506H21.8122C22.3098 23.1506 22.7078 22.7399 22.7078 22.2397V13.757C22.7078 13.2568 22.3097 12.8461 21.8122 12.8461Z" fill="#707070" stroke="#707070" stroke-width="0.3"/>
  <path d="M12.8649 1.11784L12.8649 1.11786L1.11124 13.1134C0.762929 13.4689 0.762903 14.044 1.11126 14.3994L1.11128 14.3994C1.28591 14.5775 1.51572 14.6673 1.74566 14.6673C1.97567 14.6673 2.20542 14.5777 2.38009 14.3994L2.27295 14.2944L2.38009 14.3994L13.4994 3.05123L24.6202 14.3994C24.9701 14.7566 25.5389 14.7564 25.8889 14.3993L25.889 14.3993C26.2371 14.0439 26.2371 13.4687 25.8887 13.1134L14.1336 1.11787C14.1336 1.11787 14.1336 1.11786 14.1336 1.11785C13.7836 0.760623 13.2149 0.760814 12.8649 1.11784Z" fill="#707070" stroke="#707070" stroke-width="0.3"/>
</svg>