<svg xmlns="http://www.w3.org/2000/svg" width="22" height="22" viewBox="0 0 22 22" fill="none">
  <path d="M14.0358 22C13.9814 22 13.9267 21.9998 13.8716 21.9993C12.1763 21.9843 10.4373 21.4794 8.70324 20.4987C7.34161 19.7287 5.97289 18.66 4.6352 17.3222C1.58703 14.274 0.0278006 11.1808 0.000860289 8.12856C-0.0162406 6.19422 0.203579 3.38008 2.30063 1.28294C3.12005 0.463496 4.14233 0.00790611 5.17908 0.000128904L5.20666 0H5.21384C6.46865 0 7.63379 0.686586 8.25535 1.79318L8.95605 3.04067L8.968 3.06555C9.3242 3.80761 9.49856 4.37758 9.53336 4.91365C9.58316 5.6805 9.33558 6.3441 8.79755 6.88614L6.85041 8.90447C7.13984 9.70505 7.88046 11.4312 9.28785 12.8417C10.6811 14.2319 12.3607 14.941 13.1564 15.22L15.1083 13.1942C15.6552 12.6483 16.3041 12.3877 17.036 12.4196C17.5983 12.4441 18.1911 12.6323 18.958 13.0297L18.9835 13.0435L20.2069 13.7307C21.3155 14.3535 22.0026 15.5218 22 16.78L21.9998 16.8102C21.9921 17.8438 21.5366 18.866 20.7171 19.6855C19.8064 20.5962 18.6579 21.2449 17.3037 21.6133C16.3482 21.8732 15.2777 22 14.0358 22ZM5.21324 1.71872C5.21203 1.71872 5.21087 1.71872 5.20967 1.71872L5.19162 1.71881C4.60946 1.72319 4.0142 1.99999 3.51595 2.49825C1.87573 4.13851 1.70511 6.48847 1.71946 8.11335C1.74232 10.6991 3.13217 13.3885 5.85044 16.1069C8.59698 18.8535 11.3008 20.2577 13.8868 20.2806C15.5058 20.2949 17.8492 20.1227 19.5018 18.4701C20 17.9718 20.2768 17.3766 20.2812 16.794L20.2813 16.7733C20.2826 16.1402 19.9316 15.5473 19.3652 15.2291L18.1547 14.5492C16.9612 13.9332 16.6183 14.1172 16.3279 14.4051L13.6802 17.1534L13.1977 17.0325C13.0808 17.0032 10.3092 16.2893 8.07317 14.0575L8.07201 14.0564C5.84558 11.8256 5.0748 9.02074 5.04304 8.90241L4.91719 8.43299L7.57539 5.67775C7.82658 5.42604 8.02186 5.07598 7.43025 3.83369L6.75691 2.63488C6.43926 2.06955 5.84803 1.71872 5.21324 1.71872ZM18.9796 3.02044C17.0319 1.0727 14.4423 4.2968e-05 11.6879 4.2968e-05V1.71876C16.4263 1.71876 20.2813 5.57385 20.2813 10.3124H21.9999C21.9999 7.55781 20.9273 4.96813 18.9796 3.02044ZM11.6879 6.87488V8.5936C12.6355 8.5936 13.4065 9.36462 13.4065 10.3123H15.1252C15.1252 8.41691 13.5832 6.87488 11.6879 6.87488ZM11.6879 3.43744V5.15616C14.5309 5.15616 16.8439 7.46921 16.8439 10.3123H18.5626C18.5626 6.52151 15.4786 3.43744 11.6879 3.43744Z" fill="#707070"/>
</svg>