<svg xmlns="http://www.w3.org/2000/svg" width="26" height="22" viewBox="0 0 26 22" fill="none">
  <path d="M10.0799 4.82622C9.20453 3.92256 8.32695 3.02271 7.45603 2.11522C7.00318 1.64311 6.94916 1.00342 7.30212 0.502237C7.72907 -0.104545 8.56003 -0.17494 9.0965 0.364506C9.61964 0.889414 10.1295 1.42886 10.6452 1.96219C11.6767 3.02883 12.7082 4.09472 13.7382 5.16213C14.3294 5.77427 14.3354 6.46675 13.7515 7.07277C12.2124 8.66739 10.6711 10.2589 9.13128 11.852C8.78054 12.2147 8.36469 12.3433 7.89038 12.1857C7.44937 12.0395 7.18224 11.7105 7.09567 11.2422C7.01428 10.8053 7.15931 10.4357 7.45973 10.125C8.27589 9.28182 9.09132 8.43784 9.90674 7.59385C9.96964 7.52881 10.0274 7.45995 10.1287 7.3467C9.97852 7.3467 9.88159 7.3467 9.78465 7.3467C6.94176 7.3467 4.09961 7.34823 1.25672 7.34594C0.413912 7.34517 -0.147711 6.64504 0.0343173 5.83549C0.157889 5.28609 0.620358 4.91192 1.21306 4.90045C1.72954 4.8905 2.24677 4.89815 2.76326 4.89815C5.09854 4.89815 7.43309 4.89815 9.76837 4.89815C9.86605 4.89815 9.96372 4.89815 10.0614 4.89815C10.0681 4.87366 10.074 4.84994 10.0799 4.82622Z" fill="#707070"/>
  <path d="M15.8665 14.6812C16.9964 14.6812 18.0575 14.6812 19.1185 14.6812C21.0106 14.6812 22.9019 14.6789 24.794 14.6827C25.3415 14.6835 25.7936 15.0278 25.9461 15.5397C26.0941 16.0347 25.9365 16.6155 25.5058 16.8772C25.2572 17.0279 24.9368 17.1182 24.6482 17.1198C21.8431 17.1374 19.0372 17.1305 16.232 17.1305C16.1336 17.1305 16.0352 17.1305 15.8776 17.1305C15.9849 17.2514 16.0478 17.3279 16.1158 17.3983C16.9239 18.2361 17.7356 19.0702 18.5406 19.9111C18.884 20.2692 18.975 20.7038 18.8203 21.1782C18.6635 21.6572 18.3187 21.9235 17.8399 21.9893C17.4707 22.0398 17.1436 21.9151 16.8809 21.6442C15.3063 20.0198 13.731 18.3961 12.1645 16.7624C11.6872 16.2643 11.6902 15.5382 12.1682 15.04C13.7354 13.4079 15.3078 11.7812 16.8861 10.1605C17.3626 9.67081 18.0915 9.68994 18.551 10.172C19.0053 10.6487 19.0083 11.4032 18.5377 11.8975C17.7348 12.7407 16.9216 13.5732 16.1129 14.4111C16.0433 14.4837 15.9775 14.5595 15.8665 14.6812Z" fill="#707070"/>
</svg>