<svg width="115" height="115" fill="none" xmlns="http://www.w3.org/2000/svg"><g filter="url(#filter0_i_1836_1380)"><rect width="115" height="115" rx="15" fill="#F8F4F4"/></g><g filter="url(#filter1_d_1836_1380)"><path fill="#707070" d="M62.698 20.232h7.986v20.621h-7.986z"/></g><g filter="url(#filter2_d_1836_1380)"><path d="M51.856 87.646L4 81.698l31.218-48.776h43.47l27.934 43.64-46.72-3.985-8.046 15.069z" fill="#D22E26"/></g><path d="M106.622 76.543l-47.517-2.776 19.55-40.845 27.967 43.62z" fill="#C8102E"/><g filter="url(#filter3_d_1836_1380)"><path fill-rule="evenodd" clip-rule="evenodd" d="M30.958 18.451a.936.936 0 00-1.579-.035c-2.591 3.72-10.548 15.97-13.24 29.77-.253.92-.416 1.876-.477 2.86l-.028.207a5.756 5.756 0 00.054 1.902c.627 7.23 6.736 12.905 14.18 12.905 7.536 0 13.704-5.818 14.2-13.177a6.097 6.097 0 00.03-.765l.002-.192c0-.477-.024-.949-.07-1.414-.902-11.74-10.318-27.634-13.072-32.061z" fill="#fff"/></g><g filter="url(#filter4_d_1836_1380)"><path fill-rule="evenodd" clip-rule="evenodd" d="M82.495 62.079a.93.93 0 00-1.573-.042c-2.136 3.11-7.842 12.117-9.815 22.223a10.592 10.592 0 00-.361 2.169l-.02.153c-.068.506-.051.985.04 1.436.473 5.468 5.092 9.76 10.72 9.76 5.696 0 10.358-4.396 10.736-9.958a4.595 4.595 0 00.024-.594v-.135c0-.358-.017-.711-.052-1.06-.658-8.63-7.41-20.238-9.699-23.952z" fill="#fff"/></g><defs><filter id="filter0_i_1836_1380" x="0" y="0" width="117" height="117" filterUnits="userSpaceOnUse" color-interpolation-filters="sRGB"><feFlood flood-opacity="0" result="BackgroundImageFix"/><feBlend in="SourceGraphic" in2="BackgroundImageFix" result="shape"/><feColorMatrix in="SourceAlpha" values="0 0 0 0 0 0 0 0 0 0 0 0 0 0 0 0 0 0 127 0" result="hardAlpha"/><feOffset dx="2" dy="2"/><feGaussianBlur stdDeviation="3"/><feComposite in2="hardAlpha" operator="arithmetic" k2="-1" k3="1"/><feColorMatrix values="0 0 0 0 0 0 0 0 0 0 0 0 0 0 0 0 0 0 0.05 0"/><feBlend in2="shape" result="effect1_innerShadow_1836_1380"/></filter><filter id="filter1_d_1836_1380" x="59.698" y="19.232" width="13.986" height="26.621" filterUnits="userSpaceOnUse" color-interpolation-filters="sRGB"><feFlood flood-opacity="0" result="BackgroundImageFix"/><feColorMatrix in="SourceAlpha" values="0 0 0 0 0 0 0 0 0 0 0 0 0 0 0 0 0 0 127 0" result="hardAlpha"/><feOffset dy="2"/><feGaussianBlur stdDeviation="1.5"/><feComposite in2="hardAlpha" operator="out"/><feColorMatrix values="0 0 0 0 0 0 0 0 0 0 0 0 0 0 0 0 0 0 0.25 0"/><feBlend in2="BackgroundImageFix" result="effect1_dropShadow_1836_1380"/><feBlend in="SourceGraphic" in2="effect1_dropShadow_1836_1380" result="shape"/></filter><filter id="filter2_d_1836_1380" x="1" y="31.922" width="108.622" height="60.725" filterUnits="userSpaceOnUse" color-interpolation-filters="sRGB"><feFlood flood-opacity="0" result="BackgroundImageFix"/><feColorMatrix in="SourceAlpha" values="0 0 0 0 0 0 0 0 0 0 0 0 0 0 0 0 0 0 127 0" result="hardAlpha"/><feOffset dy="2"/><feGaussianBlur stdDeviation="1.5"/><feComposite in2="hardAlpha" operator="out"/><feColorMatrix values="0 0 0 0 0 0 0 0 0 0 0 0 0 0 0 0 0 0 0.25 0"/><feBlend in2="BackgroundImageFix" result="effect1_dropShadow_1836_1380"/><feBlend in="SourceGraphic" in2="effect1_dropShadow_1836_1380" result="shape"/></filter><filter id="filter3_d_1836_1380" x="12.58" y="17" width="34.52" height="54.06" filterUnits="userSpaceOnUse" color-interpolation-filters="sRGB"><feFlood flood-opacity="0" result="BackgroundImageFix"/><feColorMatrix in="SourceAlpha" values="0 0 0 0 0 0 0 0 0 0 0 0 0 0 0 0 0 0 127 0" result="hardAlpha"/><feOffset dy="2"/><feGaussianBlur stdDeviation="1.5"/><feComposite in2="hardAlpha" operator="out"/><feColorMatrix values="0 0 0 0 0 0 0 0 0 0 0 0 0 0 0 0 0 0 0.25 0"/><feBlend in2="BackgroundImageFix" result="effect1_dropShadow_1836_1380"/><feBlend in="SourceGraphic" in2="effect1_dropShadow_1836_1380" result="shape"/></filter><filter id="filter4_d_1836_1380" x="67.684" y="60.623" width="27.563" height="42.154" filterUnits="userSpaceOnUse" color-interpolation-filters="sRGB"><feFlood flood-opacity="0" result="BackgroundImageFix"/><feColorMatrix in="SourceAlpha" values="0 0 0 0 0 0 0 0 0 0 0 0 0 0 0 0 0 0 127 0" result="hardAlpha"/><feOffset dy="2"/><feGaussianBlur stdDeviation="1.5"/><feComposite in2="hardAlpha" operator="out"/><feColorMatrix values="0 0 0 0 0 0 0 0 0 0 0 0 0 0 0 0 0 0 0.25 0"/><feBlend in2="BackgroundImageFix" result="effect1_dropShadow_1836_1380"/><feBlend in="SourceGraphic" in2="effect1_dropShadow_1836_1380" result="shape"/></filter></defs></svg>