<svg width="115" height="115" fill="none" xmlns="http://www.w3.org/2000/svg"><g filter="url(#filter0_i_1874_14504)"><rect width="115" height="115" rx="15" fill="#F8F4F4"/></g><g filter="url(#filter1_d_1874_14504)"><path fill-rule="evenodd" clip-rule="evenodd" d="M95.655 26.516H10l9.517 16.415V97.1h14.276V42.93s1.19-6.238 8.328-6.238c7.115 0 8.32 6.2 8.327 6.238V97.1h14.276V42.93s1.19-6.238 8.328-6.238c7.062 0 8.301 6.107 8.327 6.236v54.173h14.276V42.93l9.517-16.415h-9.517z" fill="#fff"/></g><mask id="a" style="mask-type:alpha" maskUnits="userSpaceOnUse" x="10" y="26" width="96" height="72"><path fill-rule="evenodd" clip-rule="evenodd" d="M95.655 26.516H10l9.517 16.415V97.1h14.276V42.93s1.19-6.238 8.328-6.238c7.115 0 8.32 6.2 8.327 6.238V97.1h14.276V42.93s1.19-6.238 8.328-6.238c7.062 0 8.301 6.107 8.327 6.236v54.173h14.276V42.93l9.517-16.415h-9.517z" fill="#fff"/></mask><g mask="url(#a)"><path fill="#C1141E" d="M7.621 25.859h97.552v36.114H7.621z"/></g><g filter="url(#filter2_i_1874_14504)"><path d="M105.172 26.517H10L19.914 17h75.741l9.517 9.517z" fill="#707070"/></g><defs><filter id="filter0_i_1874_14504" x="0" y="0" width="117" height="117" filterUnits="userSpaceOnUse" color-interpolation-filters="sRGB"><feFlood flood-opacity="0" result="BackgroundImageFix"/><feBlend in="SourceGraphic" in2="BackgroundImageFix" result="shape"/><feColorMatrix in="SourceAlpha" values="0 0 0 0 0 0 0 0 0 0 0 0 0 0 0 0 0 0 127 0" result="hardAlpha"/><feOffset dx="2" dy="2"/><feGaussianBlur stdDeviation="3"/><feComposite in2="hardAlpha" operator="arithmetic" k2="-1" k3="1"/><feColorMatrix values="0 0 0 0 0 0 0 0 0 0 0 0 0 0 0 0 0 0 0.05 0"/><feBlend in2="shape" result="effect1_innerShadow_1874_14504"/></filter><filter id="filter1_d_1874_14504" x="7" y="25.516" width="101.172" height="76.586" filterUnits="userSpaceOnUse" color-interpolation-filters="sRGB"><feFlood flood-opacity="0" result="BackgroundImageFix"/><feColorMatrix in="SourceAlpha" values="0 0 0 0 0 0 0 0 0 0 0 0 0 0 0 0 0 0 127 0" result="hardAlpha"/><feOffset dy="2"/><feGaussianBlur stdDeviation="1.5"/><feComposite in2="hardAlpha" operator="out"/><feColorMatrix values="0 0 0 0 0 0 0 0 0 0 0 0 0 0 0 0 0 0 0.25 0"/><feBlend in2="BackgroundImageFix" result="effect1_dropShadow_1874_14504"/><feBlend in="SourceGraphic" in2="effect1_dropShadow_1874_14504" result="shape"/></filter><filter id="filter2_i_1874_14504" x="10" y="17" width="95.172" height="13.516" filterUnits="userSpaceOnUse" color-interpolation-filters="sRGB"><feFlood flood-opacity="0" result="BackgroundImageFix"/><feBlend in="SourceGraphic" in2="BackgroundImageFix" result="shape"/><feColorMatrix in="SourceAlpha" values="0 0 0 0 0 0 0 0 0 0 0 0 0 0 0 0 0 0 127 0" result="hardAlpha"/><feOffset dy="4"/><feGaussianBlur stdDeviation="2"/><feComposite in2="hardAlpha" operator="arithmetic" k2="-1" k3="1"/><feColorMatrix values="0 0 0 0 0 0 0 0 0 0 0 0 0 0 0 0 0 0 0.25 0"/><feBlend in2="shape" result="effect1_innerShadow_1874_14504"/></filter></defs></svg>