<svg width="96" height="114" fill="none" xmlns="http://www.w3.org/2000/svg"><path d="M90.485 0H5.475A5.471 5.471 0 000 5.468v103.064A5.471 5.471 0 005.475 114h85.01a5.471 5.471 0 005.475-5.468V5.468A5.471 5.471 0 0090.485 0z" fill="#DADADA" fill-opacity=".855"/><path d="M83.237 11.627c.667-.06 1.339-.126 2.005-.187.894-.302 1.788-.655 2.753-.297 1.242.313 2.177-.414 3.172-.949 1.78-.326 2.596.651 2.444 2.931-.328 7.895.015 15.799-.172 23.698-.096 4.046.303 8.086-.313 12.162-.252 1.664-.606 1.972-1.97 1.68-.484-.106-.681.393-1.106.348-14.293-.005-28.58 0-42.868 0-3.243 0-4.485 1.276-4.49 4.58 0 2.532.08 5.064-.03 7.591-.076 1.7.247 3.213 1.242 4.58.934 1.014 2.167.994 3.404.994 13.722 0 27.444-.01 41.172.02 1.43 0 2.742-.262 4.005-.882 1.192.963.944 2.376.95 3.606.055 10.578.045 21.156.02 31.734 0 1.614-.505 3.218-.081 4.842-.591 2.21-1.945 3.622-4.228 4.071-.889.58-1.894.419-2.863.419-8.172.005-16.344.02-24.515 0-1.516-.232-3.005-.57-4.344-1.372-.58-1.509-1.853-1.65-3.197-1.549-3.697.282-7.45-.136-11.086.868-.495.136-.964 0-1.434-.116a38.383 38.383 0 00-3.576-.555c-.909-.071-1.434-.621-1.757-1.413-.122-.297-.157-.792-.359-.862-2.702-.979-2.298-3.642-3.126-5.635a3.645 3.645 0 01-.288-.998c-.025-.233-.01-.47.03-.702.369-1.08 1.025-2.037 1.384-3.132.222-.419.389-.858.55-1.297.53-2.073.213-4.171.238-6.26-.227-1.361-.394-2.713.763-3.798.954-1.442.277-3.137.717-4.66.828-5.307.889-10.604-.132-15.89.02-4.721.445-9.458-.368-14.154-.258-.47.484-1.165-.349-1.508-.853.05-1.348-.954-2.242-.717-1 .707-1.96 1.529-3.329 1.15a1.69 1.69 0 01-.944-.57c-.369-.575-.424-1.185-.232-1.826 1.272-1.326 2.409-2.724 3.151-4.464.374-.872.51-1.67.384-2.562.04-.495.278-.883.672-1.175.419-.243.869-.243 1.328-.172.828.242 1.389-.625 2.182-.54 1.858 1.12-.07 2.457.217 3.667-.116.777-.965.762-1.283 1.14.793-.227 1.283-.928 1.702-1.705.167-.161.354-.282.556-.383 1.793-.595 3.353-1.66 5-2.542 1.197-.585 1.843-1.887 3.106-2.381 1.116-.207 2.47.106 2.98-1.397.484-.747.818-1.65 1.883-1.77.465-.046.895.327 1.38.125.58-.368.54-1.014.696-1.563.308-.692.47-1.484 1.218-1.892.712-.192 1.388-.46 1.99-.903a8.497 8.497 0 012.368-1.019c.389-.096.763-.272 1.177-.257.247.01.323-.035.217-.07a.508.508 0 01-.343-.308 11.64 11.64 0 01-.38-3.617c.021-.565-.11-1.135.041-1.695.106-.55.455-1.02.556-1.574a2.96 2.96 0 01.267-.595c.43-.681.253-1.075-.555-1.165-.556-.127-.945.242-1.384.459-.56.247-1.217.307-1.636.842-.9.706-2.061 1.16-2.38 2.441-.464.636-1.1.818-1.848.712a1.988 1.988 0 01-.641-.288c-2.283-2.406-1.864-4.126 1.101-5.286 2.015-.792 4.197-1.18 5.965-2.638 1.151-.949 2.303-.076 3.358.555.723 1.296 1.925 1.72 3.313 1.79a2.429 2.429 0 001.849-.544c2.798-.949 5.93-.908 8.404-2.825.156-.157.308-.318.454-.49l.107-.025c1.1-.05 2.005.61 3.03.827 1.242.384 1.904-.802 2.904-1.074.727-.298.97-1.05 1.46-1.569l-.016-.015z" fill="#707070"/><path d="M61.621 15.95c-1.404-.146-2.535-.298-4.015.752-1.318.933-3.136 1.931-5.212 1.85-1.712-.065-2.247 1.56-1.273 3.113.253.404.46.827.682 1.246-.035 1.014-1.005 1.296-1.52 1.932-.682.323-1.197.863-1.712 1.397-.97.46-1.51 1.241-1.733 2.265-.767.721-.934 1.892-1.843 2.507-1.707.308-2.152 2.36-4.131 2.658-1.783.268-2.44-.01-2.672-1.649-.086-.283-.217-.55-.54-.59-.299-.04-.349.171-.283.428.702 1.534.07 2.69-1.081 3.617-.965.782-1.995.908-2.515-.474-.682-1.81-1.995-2.305-3.753-2.134-1.02-.499-.975-1.604-1.399-2.441-1.838-4.47-6.08-5.836-9.419-3.027-.662.712-.92 1.746-1.788 2.296-.59.433-1.005.206-1.379-.434.41 1.09.955.862 1.56.307 1.092-.438 1.94.006 2.728.717a2.63 2.63 0 01.672 1.79c-.626 1.62-.167 3.567-1.48 4.99-3.358 2.698-4.333 5.422-2.869 9.351.884 2.376 1.273 4.873 2.187 7.234.92 2.38.758 4.807-.353 7.142-.829 1.736-.995 3.526-.88 5.468.142 2.412.188 4.919-1.388 7.047-1.525 1.614-2.268 3.91-4.354 5.05a4.23 4.23 0 01-1.07.055c-1.187-.035-2.132-.863-3.278-1.034-1.121-.676-2.187-.237-3.222.207-.652.277-1.243.872-1.94.11-.727-2.148 1.096-2.305 2.303-2.945-.208-.545-.883-.717-2.025-.515-.202-.171-.661.101-.682-.393.111-21.751.01-43.507.06-65.258 0-.877-.241-1.795.243-2.633.965-1.987 2.253-3.627 4.526-4.207.828-.53 1.752-.267 2.626-.267 23.182-.015 46.369-.015 69.546-.015.737.03 1.742.121 1.732.908-.01 1.16-1.248.963-2.05 1.185-1.127.53-1.986 1.392-2.829 2.275-2.404 1.357-4.409 3.294-6.737 4.732-1.778 1.1-2.894 2.79-4.44 4.07-.737.616-1.267 1.509-2.363 1.574a1.12 1.12 0 01-.632-.262l-.005.005z" fill="#707070"/><path d="M4.793 108.618a.947.947 0 01-.187-.439c2.066-1.972 2.955-1.917 4.601.277.106.152.207.323.43.348-.036-.126-.233-.095-.243-.262.202-2.855 2.404-1.816 3.95-2.053.893-.726 1.388-1.639 1.398-2.799.02-.565-.257-1.085-.262-1.645-.091-.318.09.066-.01-.247-.623-1.87-.578-3.874.136-6.013.672-2.002 1.248-2.118 3.101-.635.404.746 1.151 1.18 1.798.726.722-.504-.374-.853-.465-1.347-1.217-2.78.288-4.893 1.95-7.016-1.243-.212-1.98.64-2.924.726-.819.116-1.702.595-2.303-.429-.218-1.09.434-1.886.919-2.744 1.121-2.169 3.08-3.248 5.257-4.055 1.465-.323 1.9-1.877 3.061-2.563.778-1.301 2.106-2.512.682-4.171-.248-.197-.53-.313-.823-.172-.122.06-.03.111.191.076.344-.056.53.217.723.459.636 3.082-.218 4.131-3.172 3.889-.727-.06-1.455-.096-2.172.05-1.303.268-2.015-.262-2.182-1.563-.116-.954.415-1.922-.141-2.87-1.08-1.852.086-2.477 1.621-2.876.879-.227 1.763-.307 2.667-.161 1.43.292 2.853.61 4.323.54.586-.112 1.318.781 1.773-.268.076-.202.172-.388.283-.575 1.076-3.208 2.303-6.396 1.242-9.871-.172-3.062 0-6.124-.106-9.186 0-.807-.48-1.655.177-2.416.97-.036 1.909.025 2.177-1.337.086-.444.419.166.626.328 1.252.469 1.182 1.584 1.262 2.618.177 2.26-.126 4.494-.282 6.734.358 1.387-.93 3.213 1.096 4.171.606.399 1.01 1.146.697 1.645-1.516 2.396-.884 5.246-1.798 7.753-.808 1.13-.313 2.467-.586 3.677-.94 4.964-2.01 9.892-3.323 14.765.02.252 0 .504-.061.751-.636 1.024-.773 2.3-1.621 3.219-1.142.479-1.4 1.568-1.763 2.582-.03 1.372-2.111 1.6-1.768 3.183.273 1.08.071 2.068-.565 2.971-.42.479-1.056.585-1.834.868.859.242 1.51.141 2.091.408.44.182.808.454 1.086.838.573 1.876 1.76 2.283 3.56 1.22.279-.166.587-.262.91-.277.646.066 1.293.711 1.934-.015.92-1.191.404-2.916 1.51-4.03 1.172.686.904 2.093 1.111 3.036.283 1.291-.13 2.25 1.718 1.261.828-.444.697.57.777 1.065.142.822-.338 1.846.778 2.345.717.283.657.837.51 1.428-.368.681-1.08.852-1.707 1.145-1.576.262-3.07-.596-4.646-.343-1.435.176-3.066-.54-4.228.923a1.383 1.383 0 01-.686.272c-2.637-.03-5.278.237-7.9-.151-.282.035-.398-1.241-.838-.101-1.419.424-2.828.489-4.232-.035-.298-1.105-1.06-.515-1.682-.449-1.177-.142-2.313.822-3.505.121" fill="#707070"/><path d="M9.152 109.082c-1.197-1.887-2.9-1.261-4.546-.908-.5-1.065-1.545-1.478-2.454-2.063-.228-3.536-.394-7.072.09-10.603 1.561-.62 3.122-1.236 4.677-1.862.01 0-.005-.136-.04-.191-.04-.066-.116-.106-.177-.157-.636-.449-.56-1.125-.576-1.77.132-.606.122-1.196-.192-1.756-.166-.52-.671-.822-.848-1.341-.076-.232-.182-.606-.05-.681 1.616-.969 2.717-2.558 4.318-3.536 1.035.524 2.277.161 3.303.751.166.177.282.384.368.61.248.757-.227 1.403-.328 2.104-.379.742-.374 1.584-.611 2.366-.505.877-1.379 1.574-1.328 2.724-.425 2.582-1.111 5.104-1.859 7.606-.894 2.992-.44 3.733 2.743 4.086.484.056.984.025 1.439.263.348.206.606.494.773.862.156.56.075 1.064-.329 1.503-.11.495-.283 1.085-.904.611-1.444-1.09-2.242-.192-3.035.857.04.333-.293.348-.445.515l.01.01zm84.228-1.014c-.652-.873-.384-1.887-.39-2.845-.02-11.33-.01-22.664-.01-33.993 0-1.14.096-2.29-.495-3.344.263-.308.586-.913.773-.873.818.176.404.918.41 1.397.034 9.145.09 18.296.03 27.44-.026 4.072.373 8.157-.319 12.213v.005z" fill="#707070"/><path d="M2.263 84.622c-1.313-1.735-.015-2.814.99-3.97.086-.07.171-.146.252-.222.763-.221 1.525-.398 2.323-.211 1.455.958 3.38.201 4.798 1.291.263.484.107.913-.171 1.332-.303.373-.717.605-1.111.867-1.49 1.342-2.495 3.244-4.561 3.945-.414.141-.747.247-1.136.055a1.009 1.009 0 01-.293-.928c.394-1.105-.44-1.589-1.096-2.159h.005z" fill="#707070"/><path d="M62.06 15.925c2.642-2.366 5.107-4.979 7.985-7.012 1.728-1.226 3.44-2.804 5.753-3.077-.788 1.988-2.93 2.406-4.354 3.652-1.929 1.69-4.187 2.986-5.813 5.075-.6.771-1.151 1.346-.57 2.315-1.839.681-2.243.555-2.995-.948l-.006-.005z" fill="#DADADA"/><path d="M75.722 13.877c-.752 2.471-3.171 2.244-4.954 2.865-1.162.403-2.581.05-3.89.04 1.036-1.407 2.905-1.11 4.228-2.012.4-.273.89-.5 1.248-.893 1.12-.722 2.247-.167 3.368 0zM7.647 76.753c1.11-.065 1.944.676 2.924.994.636.873.752 1.65-.384 2.215-2.48-1.176-4.672.428-7.005.73l.066-.044c-.39-.227-1.122-.081-.985-.888.93-2.548 3.262-2.588 5.384-3.007zm-3.97 9.725c.01.364.025.727.035 1.085.5.585 1.338.444 1.9.898.57.07.994.308 1.08.938-1.278 1.473-2.844.948-4.379.63-1.015-1.477.04-2.456.838-3.495.157-.187.334-.197.526-.056zm87.414-77.58c.323.716-1.106 1.392-.045 2.124-.768 1.019-1.778 1.271-2.97.953-.434-.52-.374-1.125-.308-1.73-.046-.409.01-.802.237-1.155 1.04.086 2.096.469 3.091-.192h-.005zm-8.889 5.262c-1.308-.56-1.965 2.284-3.48.665-.555-.605-1.1-1.215.071-1.75l1.859-.086c.954-.197 1.727-.146 1.545 1.165l.005.005z" fill="#707070"/><path d="M2.248 95.513l-.091 10.603c-.642-3.541-.798-7.077.09-10.603zM79.505 1.74c.566-.055 1.132-.116 1.692-.171 1.268 1.72-.641 2.224-1.343 2.935-.677.681-.642-.812-1.233-.943-.399-.943 2.561-.257.884-1.82z" fill="#DADADA"/><path d="M78.798 13.075c-.889.55.652 1.195-.07 1.75-1.162-.05-2.218-.308-2.884-1.387.863-1.115 1.985-.121 2.954-.364z" fill="#707070"/><path d="M75.722 13.877c-1.121.262-2.247.761-3.368 0 .762-3.153 2.277-.091 3.383-.409a.705.705 0 01-.015.409z" fill="#DADADA"/><path d="M62.06 15.925c.849.792 1.97.71 2.995.948a.798.798 0 01-.02.449c-2.116 1.039-3.06.656-3.414-1.372.147-.03.293-.035.44-.025zm26.39-6.038c.161.746-.02 1.432-.374 2.083-.944-.177-1.889-.353-2.833-.535l.94-.802c.504-1.014 1.282-1.2 2.267-.751v.005zm-6.248 4.273c-.293-.682-.944-.894-1.545-1.166.293-1.518 1.727-.893 2.576-1.367.318 1.115-.071 1.942-1.036 2.532h.005z" fill="#707070"/><path d="M88.45 9.887c-.758.252-1.515.5-2.268.751-.45-.766-.394-1.609.227-2.123.591-.495.965.605 1.596.57.147.267.298.534.445.802zM4.793 108.618c.904.171 2.49-.752 2.545.59l-2.545-.59zm24.439-18.654a68.79 68.79 0 012.425-11.36c.399-1.306.1-2.769.974-3.929.283-.111.586-.121.864-.171.333-.369.07-.717-.03-1.065-.177-.857.02-1.745-.233-2.593.01-.08.005-.161.026-.242.616-2.4-1.04-5.362 1.818-7.248.273-.182.1-.928-.349-1.276-2.075-.49-.722-1.958-.858-3.002a.988.988 0 01.247-.328c.167-.146.177-.212.015-.181-.242.106-.47.186-.717.126-.702-3.43-.212-6.92-.515-10.371.147-.444.182-1.175.46-1.281.762-.298.732.575 1.025.978.343.474.343 1.297 1.232 1.22.88-.241.526.803 1.01.97 1.117 4.887.606 9.83.465 14.759.384 5.584.318 11.168.03 16.752-.227 1.619.596 3.45-.96 4.807-.767-.308-1.378-.434-1.419.752-.025.781.097 1.573-.116 2.35-.257.55-.636.964-1.257 1.1-1.339-.45-2.818-.172-4.131-.767h-.006z" fill="#DADADA"/><path d="M29.187 71.563l.05.151c-.368.646-.802.368-1.242.101-.555-1.634-1.43-3.173-1.51-4.742-.465 1.19 1.333 2.28.576 3.723-.924.853-1.57.202-2.187-.429-.53-.55-.798-1.377-1.702-1.503-.692-.373-1.445-.04-2.162-.171-.777-.303-1.12-.883-1.106-1.7.364-1.352 1.036-2.512 2.122-3.415 1.358-.263 1.954-1.287 2.444-2.437 1.242-2.925 1.616-6.053 2.389-9.1-.879-.282-1.126.505-1.677.55a1.905 1.905 0 01-.702.03c-.616-.156-.99-.635-1.414-1.053a2.277 2.277 0 01-.313-.651 2.146 2.146 0 01.141-1.408c.43-.771 1.273-.938 1.94-1.372.707-.459 1.762-.943 1.373-2.002-.313-.853-.343-1.76-1.838-2.174-4.025-1.12-5.298-3.072-5.142-6.477 1.046-.893 2.339-.202 3.47-.545 1.364.313 2.642.399 3.278-1.24 1.09-.414 1.93-.02 2.626.811.344.49.339 1.125.667 1.62.192.771.833 1.286 1.136 1.992.298.721.748 1.387.778 2.204-.247 1.66-.288 3.405-1.752 4.606-.04.832-.081 1.66-.117 2.492.723 1.664-.373 3.52.53 5.165.087 3.243-.974 6.522-.15 9.695.67 2.583-.269 4.863-.51 7.274l.004.005zM93.41 12.994c.444 2.754.172 5.523.182 8.283.04 9.533.03 19.072-.026 28.605 0 .777.591 1.821-.57 2.361-.54-1.165-1.728-1.367-2.743-1.83.01-.268-1.151-.122-.303-.54.753-.374 1.748.806 2.773-.046-.955-1.06-2.338-.06-3.212-.898.06-.146.121-.403.166-.403 3.005.196 3.404-1.418 3.359-4.046-.162-9.544-.07-19.092-.056-28.641 0-.959-.227-1.972.42-2.845h.01zm-32.344 99.023H40.47c-1.248-.443-2.56 0-3.823-.267-.233-.197-.258-.419-.081-.661.389-.454.924-.474 1.464-.489 1.263-1.054 2.617-.197 3.935-.192 1.394.293 2.666-.302 3.995-.519 1.656.005 3.318-.121 4.97.166 2 .449 4.015.303 6.03.152.278.055.515.186.707.388.975.857 2.555.267 3.404 1.427l-.005-.005z" fill="#707070"/><path d="M57.662 110.59c-.167.02-.339.04-.505.056-1.99.428-4.005.095-6.005.186-1.702-.661-3.425-.701-5.172-.191-1.273.726-2.631.448-3.975.343-.369-.202-1.06-.036-1.066-.626 0-.585.692-.439 1.051-.666 3.914-.797 7.904-.681 11.859-.999 1.378-.111 2.57.268 3.752.818.606.282.606.691.05 1.074l.01.005zM45.818 37.01c-.93.787-1.288 2.169-2.641 2.507-1.238.358-2.485.756-2.98-1.03-.333-.993.52-1.644.722-2.486.733-.873 1.273-1.892 2.02-2.76.42-.393.662-.963 1.218-1.225.873-.252 1.656-.969 2.671-.555.177.151.293.343.354.565.07.988-.94 1.755-.591 2.81-.005.575.056 1.16-.268 1.684a3.09 3.09 0 01-.505.49zm7.566-4.838c-.076.797-.303 1.519-1.05 1.957-.809.565-.809-1.21-1.647-.565-.48.656-.965 1.312-1.444 1.963-.667.075-.793-.399-.905-.888-.05-.5.167-.923.39-1.342.398-.827 1.348-1.443 1-2.567a4.209 4.209 0 01-.137-.656c-.046-.353 0-.701.025-1.06.026-.252.091-.494.197-.726.127-.237.298-.434.51-.595.748-.434 1.505-.671 2.329-.192 1.712 1.322.737 3.072.732 4.666v.005zm5.298-3.526c-.869.192-1.5 1.06-2.495.893-1.267-.07-2.293-.49-2.702-1.831-.035-.636.273-1.145.621-1.634 1.056-1.2 1.9-2.73 3.864-2.573 1.08.863.02 2.078.505 3.037.323.676.788 1.341.207 2.108zM29.435 46.937c.222-1.559.464-3.113 1.227-4.525.6-.388.59-1.19 1.1-1.644.258-.248.562-.394.93-.379.758 3.123-.611 5.877-3.252 6.548h-.005z" fill="#DADADA"/><path d="M60.02 20.369c.02.52.526 1.17-.379 1.447-1.787 1.07-3.02 3.183-5.51 2.966-.464-.181-.833-.469-1.045-.933.126-1.362 1.273-1.891 2.157-2.643.5-.308 1.03-.545 1.616-.64.671-.182 1.181-.767 1.924-.787.505 0 .954.12 1.237.59zM36.111 42.356c-.606-1.054.935-2.148-.055-3.198-.344-.494-.192-.968.07-1.432.662-.812 1.657-1.196 2.42-1.892.56-.51 1.247-.761 1.798.096.151 2.043-1.763 3.254-2.071 5.11-.187.303-.44.55-.702.787v.146c-.485.126-.828.802-1.46.378v.005zm-2.677 59.043c.581 1.493-.393 2.916-.207 4.414.076.631-.626.499-1.085.444-.884-.141-1.45-.656-1.758-1.483-.126-1.064.192-2.013.758-2.895.6-.404.924-1.327 1.904-1.04.13.187.262.374.389.56z" fill="#DADADA"/><path d="M37.57 41.832c0-.267-.01-.54-.014-.807.924-1.08.934-3.022 2.914-3.112.53 1.165 1.374 1.805 2.712 1.609-1.95.575-3.293 2.628-5.611 2.315v-.005zm-.459 39.89l-.03-16.752c1 5.584.793 11.168.03 16.752z" fill="#DADADA"/><path d="M54.227 24.298c1.647.444 2.445-.898 3.485-1.69.586-.443.864-1.543 1.93-.787l-.091 1.998c-.48.293-.955.409-1.43-.01-1.707.323-2.61 1.569-3.379 2.961-.954-.66-1.252-1.458-.515-2.467v-.005z" fill="#707070"/><path d="M32.687 40.39c-.146.18-.298.362-.444.544-.925.323-1.758.066-2.561-.398-.384-.712-.768-1.428-1.157-2.14a1.52 1.52 0 01.53-.448c1.046-.252 2.102-.096 3.157-.046.243.066.46.177.657.328.348.384.616.787.298 1.322-.162.277-.318.56-.48.837z" fill="#DADADA"/><path d="M34.015 89.566c.091-1.493.182-2.992.313-5.09.637 1.115 1.086 1.76 1.829 2.053-1.298.555-.722 1.539-.56 2.431-.955.823.12 2.437-1.218 3.108-1.258-.671-.49-1.635-.359-2.507l-.005.005z" fill="#707070"/><path d="M57.172 21.322l-1.545.53c-.814.161-1.48 1.008-2.43.504.106-1.67 1.207-2.482 2.611-3.032 1.38.03 2.187.46 1.364 1.993v.005z" fill="#DADADA"/><path d="M33.04 100.839c-.515.424-.52 1.337-1.373 1.433-.874-.913-.45-1.912-.187-2.9.212-.6.444-1.196.555-1.826.51-1.418-.389-3.345 1.53-4.253.475-.055.783.187 1.02.56.334.802.279 1.604.021 2.411-.55 1.332-.828 2.765-1.48 4.061-.03.171-.055.343-.086.509v.005z" fill="#707070"/><path d="M58.121 23.804c.48-.237.955-.303 1.43.01-.172 1.281.777 2.537.09 3.828-.63.338-1.015-.196-1.03-.565-.076-1.664-.672.237-.894-.156-1.01-1.19.354-2.068.41-3.122l-.006.005z" fill="#DADADA" fill-opacity=".678"/><path d="M33.167 39.552c-.187-.373-.38-.747-.566-1.125.192-1.725 1.525-1.998 2.874-2.26.54.096.874.399.95.959-.01.242-.081.469-.218.67-.682.757-.858 2.003-2.126 2.195l-.91-.44h-.004zm1.429 52.364c.141-1.05-.42-2.335.995-2.956-.04 2.472.631 4.989-.48 7.39-.995-.933-.126-2.346-.859-3.344-.06-.419.05-.782.344-1.09zm19.177-64.294c.803.636 1.606 1.276 2.414 1.912-.581.49-.712 2.37-2.01.646-.697-.676-1.308-1.393-1.06-2.472a.613.613 0 01.656-.086zm6.247-7.253l-1.252-.197c-.682-.202-1.212-.535-1.182-1.357.026-.984.92-.913 1.495-1.226 1.369.545 1.955 1.383 1.015 2.775h-.075v.005zM29.127 54.846c-.475-1.826-.556-3.637.186-5.422l.773-.091c.142.61.278 1.226.42 1.836-.112.197-.228.393-.35.585-.565.958.32 2.396-1.03 3.092z" fill="#DADADA"/><path d="M57.586 18.815c.58.293 1.05.681 1.182 1.357-.495.434-.778 1.165-1.596 1.145.126-1.06-.576-1.554-1.364-1.992.414-.802 1.091-.666 1.778-.51z" fill="#DADADA"/><path d="M48.814 34.553l.434.979c-.59 1.765-2.157 1.286-3.424 1.483l.09-.54c.324-.338.162-.863.475-1.2.758-.41 1.45-1.045 2.43-.722h-.005z" fill="#D5DADA" fill-opacity=".855"/><path d="M34.727 92.855c.622 1.11.253 2.33.384 3.495-.156.363-.313.727-.464 1.09-.874-.01-.854-.484-.571-1.095l.197-2.482c.045-.383-.136-.872.454-1.008zm1.384-50.498c.52 0 .879-.631 1.465-.379-.798 2.048-3.005 1.725-4.475 2.664.636-1.261 2.298-1.145 3.01-2.285zm21.935-4.944c.545-1.27 1.096-2.547 1.641-3.818.162 1.604-.207 2.976-1.641 3.818z" fill="#DADADA"/><path d="M34.076 39.986c.611-.848.92-1.962 2.046-2.366a.65.65 0 01.429.384c-.167.383-.333.771-.5 1.155-.57.484-.813 1.75-1.975.827zm15.808-15.763c.283-.959 1.036-1.226 1.914-1.312a5.12 5.12 0 01.38-.267c.514.434.59.983.439 1.599-.47.933-1.228 1.22-2.218.978-.394-.216-.777-.438-.515-.993v-.005z" fill="#707070"/><path d="M52.278 24.137c-.036-.5-.066-1-.101-1.498.257-.384.661-.258 1.02-.283.808-.182 1.53-.762 2.43-.504-.45 1.044-2.102.61-2.35 1.901-.035.338-.221.555-.535.676a.446.446 0 01-.464-.292z" fill="#707070"/><path d="M57.717 26.926c.212-.5.425-1.004.682-1.599.424.802.343 1.846 1.248 2.32.106.742-.324.969-.96 1-.323-.576-.641-1.146-.965-1.72h-.005z" fill="#DADADA"/><path d="M50.692 33.564c.323-.423.641-.847.965-1.27 1.05.367-.561 1.598.676 1.835-.378.364-.762.727-1.146 1.095-.495-.545.48-1.367-.495-1.665v.005zm2.611-5.76c.288.792.581 1.584.869 2.376-.662.504-.025 1.528-.788 1.992-.263-1.498.172-3.183-1.182-4.383.374-.353.738-.358 1.101.015z" fill="#707070"/><path d="M36.622 50.21a133.86 133.86 0 01-1.01-.968c-.016-.767-.193-1.559.444-2.557.621 1.27.606 2.396.566 3.526z" fill="#DADADA" fill-opacity=".855"/><path d="M55.081 36.525c.748.656 1.41 1.458 2.626 1.372-1.6 1.221-2.313.162-3.025-.898a.84.84 0 01.404-.469l-.005-.005z" fill="#DADADA" fill-opacity=".678"/><path d="M60.096 20.363c.07-1.074-.166-2.037-1.015-2.774 1.242-.575 1.505.429 1.864 1.196.399.857 0 1.357-.849 1.573v.005zm-26.02 75.982c.192.363.379.731.57 1.095-.338 1.049-.596 2.144-1.515 2.885.071-1.387.374-2.714.95-3.985l-.005.005zm21.005-59.82l-.404.47c-.773-.686-1.778-.505-3.333-.61 1.757-.96 2.767-.672 3.737.14zm-26.944 34.78c.177.656.666.45 1.1.41.092.675-.1 1.3-.726 1.548-.778.302-.975-.52-1.37-.939-1.635-.57-3.368.096-5.01-.398-1.535-.53-2.626.777-4.186.827 3.495.797 1.414 2.588 1.015 4.025-.54.818-.515 1.57.57 1.715.96.127 1.425.515 1.48 1.448-.146 1.403-.974 1.74-2.222 1.428-1.08-.55-2.298-.333-3.434-.58-.662-.248-1.076-.757-1.434-1.332-.566-1.483-1.243-2.905.585-4.156.687-.47.066-1.927 1.187-2.397 1.187-2.148 1.091-4.524.894-6.804-.182-2.119-.025-4.076 1.071-5.867 1.389-2.275.884-4.53.157-6.825a945.322 945.322 0 01-2.551-8.136c-.626-2.048-.131-4.07.384-6.023.454-1.73 2.1-2.244 3.621-2.769.495.272.333.721.308 1.135.57 1.397 1.227 4.01 1.697 3.98 1.874-.136 2.763.69 3.495 2.174.566-.65.298-1.306.323-1.907.015-.368.258-.398.47-.388.212.01.611.176.606.237-.237 1.796.56 3.102 1.434 4.636.495.862-1.272 2.471-2.808 2.97-.495.162-1.171-.277-1.5.455-.55.363-1.085.317-1.61-.05a3.06 3.06 0 00-.819-.394c.167.217.46.211.657.383 1.07.812.055 2.421 1.237 3.188.566.585.242 1.362.454 2.078 1-.66.586-2.103 1.566-2.729.349-.333.657-.721 1.05-.983.384-.252.672-1.266.763-.903.228.883 2.026.237 1.394 1.932-1.065 2.865-1.717 5.886-2.419 8.873-.409 1.75-1.43 2.638-3.136 2.885-.308.197-.637.272-.995.176-.308-.186-.435-.484-.485-.812-.025-.136-.091-.388-.167-.378-.288.04-.207.323-.242.53-.187.918-.142 1.816.066 2.718 0 .333-.142.62-.243.929-.035.665.354.988.93 1.16.671.191 1.353.297 2.045.106 2.151-.742 1.778 2.078 3.242 2.305.54-.08.323-1.034.925-.903.757.161.267 1.009.616 1.443l.015-.02z" fill="#DADADA"/><path d="M19.59 37.61c-.484-.277-.328-.721-.307-1.135.59-1.402-.556-3.238 1.096-4.378.505-1.277 1.848-1.58 2.757-2.391a2.21 2.21 0 01.672-.207c.354-.035.707-.02 1.055.055.218.06.425.157.617.273.55.418 1.055.973 1.863.716.566-.595 1.066-1.498 1.97-.409.455.782.268 1.816 1.01 2.482 1.177 1.044 1.434 2.29.576 3.602-.586.898-1.404 1.568-2.57.746-.703-.69-1.51-1.094-2.531-.913-.657 1.176-2.152.57-2.97 1.398-1.02 1.18-2.156.12-3.232.161h-.005z" fill="#DADADA"/><path d="M28.323 36.964c2.41-.898 2.768-1.68 1.995-4.348.768-.55 1.53-1.1 2.485-1.78.344 1.286.303 2.769 1.99 2.895.066 0 .116.126.187.146 1.05.252-2.02 1.871.338 1.332 1.268-.293 2.298-1.841 1.263-3.551.803-.712 1.616-.661 2.44-.04.186.59-.46 1.835 1.04 1.407 1.368-.389 3.373-.364 1.823-2.931 1.227-.08 1.995.883 2.954.54.824.862.39 1.442-.434 1.937-.313.353-.631.7-.944 1.054-.728.343-1.359.867-2.106 1.175-.54.207-1.086.384-1.672.333-1.354.494-2.525 1.534-4.101 1.357-.99.646-1.985 1.291-2.975 1.932l-.212.03-.212-.03c-.985-.47-1.975-.6-2.985-.066l-.667.03c-.318-.438-.303-.928-.207-1.427v.005zM15.702 72.9c-.49 2.103-2.03 4.03-1.065 6.375.227 1.07.62 2.114.495 3.239-.268 1.23.04 2.709-1.455 3.415a1.29 1.29 0 01-1.116-.263l-.06-.57a25.57 25.57 0 01-2.42-2.43c.162-.334.323-.667.485-1.005-.53-1.518.747-2.587.985-3.914.98-1.317 2.525-2.21 2.974-3.914.172-.656.571-.898 1.182-.928l-.005-.006z" fill="#707070"/><path d="M19.88 30.71l-2.405-1.12.01.02c-.025-1.075-.202-2.2.985-2.86 1.187-.43 2.303-1.065 3.58-1.246 2.531-.364 3.284.413 2.895 3.031-.283.636-.904.883-1.424 1.246-.213.111-.425.227-.632.343-.96.409-1.894.948-3.005.585h-.005z" fill="#DADADA"/><path d="M24.318 28.555c.228-2.739-.565-3.39-3.096-2.451-.904.338-1.772.716-2.757.646 4.308-3.229 9.374-1.645 10.843 3.394-.424-.045-1.045-.378-.833.54.136.595-.121.898-.692.994-.758-.691-2.01-.55-2.601-1.529l-.172.01h-.171c-.667-.373-1.111-.822-.516-1.604h-.005z" fill="#DADADA"/><path d="M44.4 32.576c.429-.58.515-1.241.434-1.937.283-.944.48-1.932 1.404-2.517a.735.735 0 01.677-.081c1.05.913.515 2.008.363 3.062-.09.232-.247.408-.454.545-.758.444-1.455 1.034-2.425.928zM17.475 29.59c-.111.428.07 1.059-.606 1.13-.485.05-.955-.122-1.223-.6-.04-.071-.086-.162-.07-.228.252-1.044-1.202-2.567-.253-2.88 1.596-.52.743 1.493 1.349 2.169.192.212.535.287.813.424l-.01-.02v.005zm2.404 1.12c.798-.833 1.747-1.242 2.914-1.025.177.152.52.157.475.515-.4 1.493-1.89 1.322-2.89 1.897-.166-.465-.332-.924-.5-1.388z" fill="#707070"/><path d="M46.98 28.218c-.247-.03-.495-.066-.742-.096-.127-1.579 1.237-1.811 2.187-2.427.535-.332.878-.11 1.12.399.087.968-.428 1.594-1.186 2.088-.455.217-.91.303-1.379.04v-.004zm-7.964 3.399c-.814.015-1.627.026-2.44.04-.752-1.7 1.03-1.14 1.465-1.336 1.394-.63.762.741.97 1.296h.005z" fill="#707070"/><path d="M49.359 26.21c-.147-.47-.5-.565-.935-.515-.05-1.023.717-1.24 1.465-1.477l.49.595c.358.973.086 1.488-1.02 1.392v.005z" fill="#DADADA" fill-opacity=".678"/><path d="M13.01 105.223c-.49 0-.975 0-1.464.005-4.5.025-5.091-.974-3.556-5.19.894-2.462 1.369-5.08 2.03-7.622 1.248-2.805 2.07.08 3.101.227.9.156 1.53-.121 1.854-1.034.333-.944 1.136-1.246 2.03-1.377 1.096-.59-.59-2.16.91-2.603.843-.62 1.817-.954 2.767-1.372.535-.238.934-.984 1.55-.399.53.51.187 1.236-.02 1.841-.1.298-.273.636-.51.812-2.005 1.488-2.51 3.531-2.258 5.877-.136 1.362-.974 1.357-1.98 1.019-.737.242-1.09-.394-1.853-.938.389 2.335-.869 3.828-2.288 5.447 1.157.273 2.167-1.135 2.586-.237.278.596-.566 1.71-.909 2.593.288.772-.303 1.039-.808 1.15-1.04.227-.965 1.085-1.172 1.796l-.01.005zm19.182-5.801c-.177.954-.348 1.902-.525 2.855-.318.853-.642 1.705-.96 2.558.05.408-.136.676-.495.847-.186.136-.464.232-.54.414-.697 1.599-2.015 2.249-3.606 2.002-2.318-.358-.91-2.189-1.142-3.374.026-1.387 1.04-2.699.319-4.147-.182-1.321.358-2.456.934-3.586.48-1.216.763-2.532 1.717-3.521.278-1.09.369-2.26 1.313-3.067 1.344.035 2.455 1.075 3.854.883.712.605 1.263 1.256.611 2.234-.975 1.292-.055 3.042-1.04 4.333-.42-.015-.834-.02-1.253-.02-.515.131-1.293-.57-1.49.47 1.529-.29 2.296.082 2.303 1.114v.005zm-3.065-44.576c.505-1.13-.707-2.75 1.005-3.541.656 2.396.11 4.842.308 7.254.075.953-.288 1.952.257 2.865.303.08.965-.394.859.322-.495 3.34-.44 6.825-2.374 9.817-.207-1.74-1.267-3.607 1.026-5.272-1.682.54-1.915.036-1.773-1.316.348-3.365.475-6.75.687-10.129h.005z" fill="#DADADA"/><path d="M13.505 85.611c.753-1.034.025-2.527 1.066-3.47 2.818-.424 3.495.403 2.868 3.495-.49.64-.98 1.287-1.47 1.927-.176.752.188 1.64-.555 2.26-.661.696-1.61.782-2.43 1.155-.908.247-1.656.257-1.454-1.044.248-.812-.303-1.776.455-2.497 1.136-.086.848-1.357 1.52-1.831v.005z" fill="#DADADA"/><path d="M17.434 85.636c.424-2.295-1.222-2.895-2.869-3.495-.697-.974.299-1.907.066-2.866.308.333.616.661.93.994 1.04.767 2.232.288 3.348.394.854.216 1.58.242 1.48-.979.49-.504 1-.938 1.767-.55.945.727.915 1.61.41 2.568-2.056.867-4.303 1.473-5.137 3.934h.005z" fill="#DADADA"/><path d="M23.268 92.501c-.374-4.54-1.08-4.378 1.621-6.406 1.248-.933 1.435-.413 1.632.737.429 2.547-.703 4.287-2.728 5.614-.151.247-.328.267-.525.05v.005z" fill="#DADADA" fill-opacity=".855"/><path d="M21.828 79.22c-.474.151-.954.308-1.429.459-.096-1.16-3.368-.752-1.434-2.91-.02.56-.515 1.387.712 1.245.753-.085 1.44-.272 2.268-.191 3.333.338 3.52.045 3.262-3.561-.005-.394.071-.686.566-.444 1.59-.242 2.146.68 1.636 1.927-.45 1.094-.651 2.496-2.005 3.056-1.11.828-2.358.5-3.576.419z" fill="#DADADA"/><path d="M17.454 95.407c.662-.338 1.324-.676 1.98-1.02 1.349.299 2.313.737 1.333 2.407-.282.484-.96.984-.919.787.495-2.285-4.692 1.775-2.399-2.174h.005zm15.233-3.844c-1.965 2.018-2.53-.156-3.485-1.16 0-.146.01-.293.03-.439 1.38-.68 2.788-1.584 3.88.414.08.474-.082.862-.425 1.185zm-6.015 5.327c-.303 1.316-.611 2.628-.915 3.944.485 1.216-.08 1.836-1.212 2.139-.414-.06-.656-.308-.777-.696.05-1.024.505-2.033.1-3.067.4-1.1 1.44-1.599 2.213-2.345a.508.508 0 01.59.025z" fill="#707070"/><path d="M14.995 89.374l.97-1.811c.621.822 1.303-.182 1.944.07-.096 1.16.854 2.175.49 3.36-.313 1.019-.687.494-1.025-.005-.652-.746-2.05-.388-2.379-1.61v-.004zm6.273 9.826c-.748 3.062-3.243 2.401-5.39 3.289 1.203-2.477 3.248-2.643 5.39-3.289z" fill="#DADADA"/><path d="M23.768 102.277c.166.141.333.288.5.429.444.53.485 1.039-.086 1.513-.48 0-.97.051-1.44-.01-.666-.081-1.62.353-1.893-.489-.152-.469.272-1.216.606-1.73.793-1.206.899.847 1.606.393.181-.116.47-.076.707-.106zm-10.758 2.946c-.131-1.15-1.293-.62-1.883-1.12.772-1.75 2.752-.888 3.863-1.826.4.378.47.868.49 1.377-.475.868-.692 1.983-1.97 2.094-.166-.177-.333-.349-.5-.525z" fill="#707070"/><path d="M21.829 79.22c1.02-1.614 2.404-.121 3.575-.419-.636 1.266-1.409 2.401-2.833 2.896l-.742-2.482v.005zm3.474 5.261c.48-1.644-.93-3.955 1.818-5.165-.313 2.012-.176 3.843-1.818 5.165z" fill="#DADADA"/><path d="M36.43 111.518c1.333.288 2.772-.333 4.04.5l-12.722-.061c0-.091 0-.186-.005-.277 1.151-1.054 2.565-.389 3.853-.585 1.626-.005 3.258-.076 4.839.423h-.005z" fill="#707070"/><path d="M18.465 105.001c-.434 1.66.793 2.926-.131 4.187-2.455-1.15-2.49-1.76.13-4.187zM33.404 58.69c.233-.202.465-.404.697-.61.278.297.319.62.101.968 1.076.853-.96 2.245.52 3.027-.439.388-.308 1.276-1.318 1.377V58.69zm.182 17.095c-.318-.368-.636-.737-.955-1.11.167-1.281-.343-2.668.601-3.829 1.101.61.904 1.685.96 2.669-.172.767.222 1.68-.601 2.27h-.005z" fill="#DADADA"/><path d="M24.182 104.219c.03-.504.055-1.009.085-1.513.778-.399 1.394-.928 1.49-1.872.278.016.556.026.829.041-.616 1.256-.106 2.991-1.662 3.838-.399.061-.6-.176-.742-.499v.005z" fill="#707070"/><path d="M20.349 109.344c-.116-1.876 1.02-2.618 1.419-3.677.146-.393.666-.53.899-.01.288.651.56 1.498-.167 1.942-.666.409-1.247.918-2.146 1.745h-.005zm10.353-47.92c-1.03-1.226-.384-2.669-.47-4.005-.136-2.033-.075-4.076-.095-6.119.126-.03.252-.076.373-.136.369 3.41.324 6.83.197 10.255l-.005.005zm-4.03 35.466c-.06.151-.177.222-.338.222-.495-.298-.218-.868-.455-1.256.409-1.014.293-2.472 2.01-2.391.202 1.357-.48 2.4-1.217 3.425zm-13.167 8.853c.672-.686.819-1.862 1.97-2.094.03 1.322-1.08 3.294-1.94 3.45l-.03-1.356zm18.137 5.76c-1.299.061-2.602.116-3.9.177-.297-.984.39-1.115 1.061-1.125.944-.01 1.894.085 2.843.136.309.272.309.545 0 .812h-.005z" fill="#DADADA"/><path d="M31.642 111.503v-.812c1.681-.393 3.282.262 4.924.398a2.675 2.675 0 01-.137.434l-4.787-.015v-.005z" fill="#DADADA"/><path d="M29.924 76.42c.47 1.398-.065 2.558-.5 3.723.101-1.195-1.606-2.547.5-3.723z" fill="#DADADA" fill-opacity=".678"/><path d="M18.95 111.659c-.172-.005-.339-.015-.51-.02-.586-.186-1.288.096-1.844-.509.738-.948 1.732-.439 2.601-.459.44-.01 1.172-.126 1.116.499-.065.787-.899.308-1.363.489zm4.318-19.158c.177-.015.348-.035.525-.05.631 1.503-.146 2.502-1.172 3.581-.793-1.503.667-2.36.647-3.53zm2.611 3.355l.454 1.256c-1.222.227-1.02 2.139-2.47 2.098-.575-.64-.378-1.1.334-1.452.818-.404 1.515-.918 1.677-1.902h.005zm1.313 15.228c-1.677.752-2.778.505-4.55.404 1.646-1.125 2.762-1.024 4.55-.404zm3.02-5.407c.167-.282.329-.565.495-.847.677.272 1.172.736 1.43 1.427-.743.141-1.96 1.846-1.925-.58zm-16.207 5.957c-.475-.141-1.066.071-1.404-.474.995-.671 2.02-.953 3.167-.297-.228 1.18-1.207.484-1.763.766v.005z" fill="#DADADA"/><path d="M25.768 73.823c-.187.146-.374.297-.566.443-.45.62-.9 1.236-1.42 1.953.243-2.694.324-2.79 1.986-2.396z" fill="#DADADA" fill-opacity=".855"/><path d="M9.151 109.082c.147-.172.293-.343.445-.515.237-.015.48-.065.712-.04.48.055 1.136-.535 1.389.328.05.181-.076.494-.222.64-.505.495-.97.278-1.46-.105-.227-.177-.57-.207-.859-.308h-.005zm12.98-37.162c1.672.107 3.41-.559 5.01.4-1.661-.273-3.419.706-5.01-.4z" fill="#DADADA"/><path d="M5.611 88.466c-.793.04-1.686.288-1.899-.898 1.581-1.276 3.798-1.876 4.37-4.232.11-.454.656-.303 1.04-.187.656-.146 1.05.167 1.14.777.067.419-.15.727-.656.671-.995 1.64-2.586 2.659-4 3.87h.005z" fill="#707070"/><path d="M9.611 84.597c.667-.762.04-1.09-.49-1.453.318-.161.636-.323.955-.49 1.944-.317 2.742.5 2.419 2.432-1.05.348-2.192 1.216-2.89-.494l.006.005z" fill="#707070"/><path d="M11.53 89.934c.248.338.349 1.14.975.318 1.672.388 1.848 1.301.601 3.097-.641.04-1.293.05-1.48-.752-.374-1.573-1.035-.418-1.606-.186-.03-1.155.58-1.917 1.51-2.482v.005zm1.975-4.324c-.035.621.071 1.297-.13 1.857-.395 1.08-.935.848-1.385-.025l.576-1.776c.313-.015.631-.035.944-.05l-.005-.005z" fill="#DADADA"/><path d="M34.45 79.089c.702 1.372.813 2.79.298 4.676-1.01-1.76-.667-3.218-.298-4.676z" fill="#707070"/><path d="M32.687 91.563c-.056-.464.08-.862.424-1.185.303-.273.601-.545.904-.817.374.741-.505 1.79.58 2.355.041.313.087.626.127.938l-.454 1.01-.606-.349c-.177-.726-.334-1.463-.98-1.957l.005.005z" fill="#DADADA" fill-opacity=".855"/><path d="M33.586 75.785c.141-.772-.106-1.65.601-2.27.626.772.646 1.76.348 2.527-.409 1.04-.732.262-.95-.257z" fill="#DADADA"/><path d="M34.202 59.053c-.035-.323-.066-.646-.1-.968.08-.56.13-1.14 1.03-1.62-.647.944 1.525 2.361-.935 2.588h.005z" fill="#707070"/><path d="M28.136 71.305c-.338-.68-.727-1.21-1.54-.534.283-1.065-.54-1.831-.753-2.754-.353-1.56-.363-3.012 2.005-3.708-.924 2.537-.161 4.752.288 6.996z" fill="#DADADA"/><path d="M24.793 52.233c.217 2.068-.798 3.672-2.04 5.493-1.515-1.548.369-3.238-.41-4.62-.338-.979-.292-1.76.98-1.917l.066.07c.364.288.329.954.945 1.004.151-.015.308-.025.464-.03h-.005z" fill="#707070"/><path d="M22.823 37.449c-.313-.666-.44-1.287.57-1.362.799-.06 1.602-.026 2.4-.036.283.717.566 1.433 1.03 2.613-1.44-1.009-3.005.262-4-1.215z" fill="#DADADA"/><path d="M23.323 51.19c-.328.64-.651 1.275-.98 1.916-.343-.157-1.176 1.523-1.08-.293.055-1.024.09-2.053.13-3.077a.546.546 0 01.42-.393c.606-.262.995.272 1.495.413 0 .475.01.954.015 1.428v.005zm.036 17.276c.005.544.202 1.468-.283 1.513-.954.096-1.202-1.024-1.762-1.62.681.006 1.5-2.597 2.045.107z" fill="#707070"/><path d="M29.682 40.536c.853.14 1.919-1.095 2.56.398-.313.721.38 2.522-1.585 1.478-.329-.625-.652-1.25-.98-1.876h.005z" fill="#DADADA"/><path d="M24.334 52.263c-.081.525.085 1.12-.536 1.61-.788-.782-.358-1.746-.414-2.608.601.065.869.444.944 1.004l.006-.006z" fill="#707070"/><path d="M20.384 67.2c-.005-.44-.015-.873-.02-1.312-.329-.994-.207-1.77.974-2.048.37.066.743.136 1.111.202-.686 1.054-1.373 2.103-2.065 3.158z" fill="#DADADA"/><path d="M50.768 110.555c2.131.03 4.258.065 6.389.096-2.126.887-4.328.337-6.5.327-.086-.171-.056-.317.111-.423z" fill="#707070"/><path d="M50.768 110.555a4.34 4.34 0 00-.111.424c-1.525-.606-3.126-.122-4.677-.333 1.58-.898 3.182-.651 4.788-.091zm-4.409-74.892c-.146.272-.298.54-.444.812l-.046-1.947c.359-1.438 1.97-2.023 2.354-3.445.555-.63 1.065-1.352 2.086-.918.025.181.045.358.07.54.55 1.12-.803 1.528-.899 2.41-.848 1.08-1.873 1.948-3.121 2.548z" fill="#DADADA"/><path d="M40.47 37.908c-.97 1.039-1.945 2.078-2.915 3.112-.025-2.109 2.036-3.153 2.55-4.989.147-.53.486-.777 1.041-.711.344.161.591.373.414.807.182.928-.414 1.377-1.09 1.78z" fill="#707070"/><path d="M50.308 30.165c-.656.317-1.13.827-1.51 1.432-.56.338-.985 1.085-1.818.61-.05-.186-.1-.378-.151-.564.045-.147.08-.293.1-.444.587-1.509 1.102-3.128 3.309-2.174.025.378.055.756.08 1.135l-.01.005z" fill="#DADADA"/><path d="M41.556 36.127l-.556-.59c-.5-.434-.328-.948-.161-1.458.737-.928 1.717-.454 2.616-.454-.54.903-.717 2.083-1.9 2.502zm5.419-3.915c.626-.146 1.07-.832 1.818-.61-.495 1.458-1.697 2.21-2.93 2.926-.55-1.135-.429-1.387 1.112-2.316zm6.328-4.408l-1.1-.015c-.627.15-1.253.302-1.88.459-1.242-.767-1.01-1.529.137-2.048.985-.444 1.737-1.06 2.253-1.993l.56-.454c.318.182.631.363.95.54l.515 2.466-.97.863c-.156.06-.308.121-.465.177v.005z" fill="#707070"/><path d="M52.718 24.207c.065 1.296.267 2.623-1.758 2.558-1.156-.036-.975.741-.636 1.478a.857.857 0 01-.162.423c-.894.283-1.879.863-2.192-.69.46-.59.925-1.176 1.384-1.766.535-.323 1.212-.54 1.02-1.393.697-.05 1.339-.252 1.904-.675a.778.778 0 00.44.065z" fill="#707070"/><path d="M47.975 27.975c.55.802 1.384.701 2.192.691.04.116.06.242.06.364-1.524.075-2.15 1.528-3.307 2.174-1.056-1.014.51-1.983.055-2.986l.995-.243h.005zm-1.616 7.688c.737-1.145 1.985-1.69 2.965-2.552.146.095.202.201.161.307-.04.111-.086.167-.131.167-.177.323-.354.64-.535.963-.591.873-1.455 1.145-2.46 1.11v.005z" fill="#707070"/><path d="M49.349 33.59a1.528 1.528 0 01-.03-.48c.353-.802.701-1.599 1.055-2.4.308-.051 1.086-.757.657.312-.38.928-1.107 1.715-1.682 2.568zm-8.51.494c.055.484.11.973.161 1.458-.298.166-.6.328-.899.494-1.59-.076-2.166 1.67-3.55 1.972-.142-.126-.288-.252-.43-.383l-.04-.151c.652-1.508 2.08-2.078 3.379-2.81.46-.192.914-.388 1.374-.58h.005z" fill="#707070"/><path d="M29.197 38.367c1.04-1.998 2.015-1.024 2.985.065-1.005.389-1.995.101-2.985-.065zm2.995 61.055c-.141-.63-.364-1.034-1.1-.54-.92.62-1.885.651-2.834.02.864-1.1 2.116-1.351 3.389-1.558.636-.419.757.146.985.514.005.565-.046 1.115-.435 1.57l-.005-.006zm7.273-64.758c-1.126.938-2.253 1.871-3.379 2.81-.171-.328-.338-.651-.51-.979 1.091-1.054 2.359-1.715 3.89-1.83zM21.818 49.348l-.424.393c-.95.394-1.934 1.05-2.813-.06-.238-.298-.172-.923.268-1.03 1.07-.256 2.242-.64 2.97.692v.005zM19.99 63.593c-.09-.595-1.308-.555-.94-1.165.622-1.02 1.688-.288 2.566-.278.435 0 1.132-.287 1.016.495-.086.58-.758.388-1.218.383-.419.328-.772.822-1.424.565z" fill="#DADADA"/><path d="M19.99 63.593c.42-.323.818-.711 1.424-.565-.025.272-.05.545-.076.812-.323.681-.646 1.367-.974 2.048-2.278-.414-.197-1.538-.374-2.295zm-1.076 17.064c-1.197.55-2.414 1.267-3.348-.393 1.141-.08 2.313-.398 3.348.393zm6.268-50.512c.677.837 2.359-.046 2.601 1.528-1.48.53-2.51.303-2.6-1.528zm-.864-1.59l.515 1.605c-.313-.01-.626-.026-.94-.036-.216-.136-.53-.146-.595-.474-.01-.691.556-.842 1.02-1.095z" fill="#707070"/><path d="M23.298 29.65c.197.157.394.318.596.474l-.626.076c-.157-.171-.319-.343-.475-.514.167-.01.338-.026.505-.036z" fill="#DADADA"/><path d="M13.106 93.349c.066-1.085.217-2.184-.601-3.097.06-.505.197-1.095.828-.616.732.56 1.162.136 1.662-.262 1.222-.1 1.93.57 2.379 1.61-.561.292-1.758-.697-1.55 1.2.176 1.619-1.34 1.81-2.718 1.165zm18.536 3.99c-.813 1.21-2.157 1.266-3.39 1.558.36-2.189 1.759-2.123 3.39-1.558zm27.535-30.981h-1.88v-3.616c0-1.046-.378-1.57-1.131-1.57-.36 0-.659.14-.897.422-.238.277-.357.633-.357 1.066v3.698h-1.893v-6.48h1.893v1.03h.023c.473-.793 1.168-1.189 2.086-1.189 1.438 0 2.156.89 2.156 2.672v3.967zm5.737-8.133a2 2 0 00-.733-.153c-.648 0-.972.36-.972 1.079v.726h1.476v1.412h-1.477v5.069h-1.892v-5.069h-1.084v-1.412h1.084v-.832c0-.738.24-1.328.72-1.77.481-.44 1.112-.661 1.893-.661.399 0 .727.04.985.123v1.488zm10.916 8.133h-1.887V62.66c0-.992-.361-1.488-1.084-1.488-.336 0-.615.15-.838.451-.223.301-.334.668-.334 1.102v3.633H69.8v-3.745c0-.96-.357-1.44-1.072-1.44-.355 0-.64.144-.855.433-.211.285-.317.664-.317 1.136v3.616h-1.892v-6.48h1.892v1.013h.024c.226-.371.527-.658.902-.861.375-.208.77-.311 1.183-.311.91 0 1.534.408 1.87 1.225.5-.817 1.226-1.225 2.18-1.225 1.41 0 2.115.871 2.115 2.613v4.026zm-23.086 14.15a.9.9 0 01.334-.72c.222-.188.488-.282.796-.282.313 0 .577.096.791.287a.92.92 0 01.323.715c0 .3-.108.545-.322.733-.215.183-.487.275-.815.275-.305 0-.566-.096-.785-.287a.925.925 0 01-.322-.72zm10.078.85h-2.297l-2.156-3.205h-.024v3.205h-1.892v-9.592h1.892v6.105h.024l2.021-2.994h2.256l-2.402 3.059 2.578 3.422zm5.853 0h-5.76v-.768l3.317-4.3h-2.988v-1.413h5.414v.914l-3.17 4.155h3.187v1.412z" fill="#707070"/></svg>