<svg width="127" height="151" fill="none" xmlns="http://www.w3.org/2000/svg"><path d="M119.704 0H7.243C3.243 0 0 3.243 0 7.243v136.514c0 4 3.243 7.243 7.243 7.243h112.461c4 0 7.243-3.243 7.243-7.243V7.243c0-4-3.243-7.243-7.243-7.243z" fill="#DADADA" fill-opacity=".855"/><path d="M110.116 15.4c.882-.08 1.771-.167 2.653-.247 1.182-.4 2.365-.868 3.641-.394 1.644.414 2.88-.548 4.196-1.256 2.356-.432 3.434.862 3.234 3.882-.434 10.456.02 20.926-.227 31.39-.127 5.358.401 10.71-.414 16.108-.335 2.205-.802 2.613-2.606 2.225-.642-.14-.902.521-1.463.461-18.909-.007-37.81 0-56.712 0-4.29 0-5.933 1.69-5.94 6.067 0 3.354.107 6.708-.04 10.055-.1 2.252.327 4.256 1.643 6.067 1.236 1.343 2.867 1.316 4.504 1.316 18.153 0 36.306-.013 54.467.027 1.89 0 3.628-.347 5.298-1.17 1.577 1.277 1.249 3.148 1.256 4.778.074 14.011.06 28.022.027 42.033 0 2.138-.668 4.262-.107 6.414-.782 2.926-2.572 4.797-5.592 5.392-1.176.768-2.506.554-3.789.554-10.81.007-21.62.027-32.431 0-2.005-.307-3.976-.755-5.746-1.817-.769-1.998-2.453-2.185-4.23-2.051-4.89.374-9.855-.181-14.666 1.149-.654.18-1.276 0-1.897-.154-1.563-.327-3.14-.554-4.73-.735-1.203-.093-1.898-.821-2.325-1.87-.16-.395-.208-1.049-.475-1.143-3.575-1.296-3.04-4.824-4.136-7.463-.18-.428-.327-.862-.38-1.323a3.341 3.341 0 01.04-.929c.487-1.43 1.356-2.699 1.83-4.149.294-.554.515-1.136.728-1.717.702-2.746.281-5.526.315-8.292-.301-1.804-.522-3.594 1.008-5.031 1.263-1.911.368-4.156.95-6.173 1.095-7.029 1.175-14.045-.175-21.047.027-6.254.588-12.528-.487-18.748-.341-.621.641-1.543-.461-1.998-1.13.067-1.784-1.262-2.967-.948-1.323.935-2.592 2.024-4.403 1.523a2.237 2.237 0 01-1.25-.755c-.487-.762-.56-1.57-.307-2.419 1.684-1.757 3.187-3.608 4.17-5.913.494-1.156.674-2.211.507-3.394.054-.655.368-1.17.889-1.557.555-.32 1.15-.32 1.757-.227 1.096.32 1.838-.828 2.886-.715 2.46 1.483-.093 3.254.288 4.858-.154 1.029-1.276 1.008-1.697 1.51 1.049-.301 1.697-1.23 2.251-2.259a2.89 2.89 0 01.735-.508c2.372-.788 4.437-2.198 6.615-3.367 1.584-.775 2.439-2.499 4.109-3.154 1.477-.273 3.267.14 3.942-1.85.641-.99 1.082-2.185 2.492-2.346.615-.06 1.183.435 1.824.167.769-.487.715-1.342.922-2.07.408-.916.622-1.965 1.61-2.506.943-.254 1.838-.608 2.633-1.196a11.232 11.232 0 013.134-1.35c.514-.127 1.008-.36 1.556-.34.328.013.428-.047.288-.094a.672.672 0 01-.455-.408c-.427-1.57-.574-3.167-.5-4.79.026-.749-.148-1.504.053-2.245.14-.729.601-1.35.735-2.085a4 4 0 01.354-.788c.568-.902.334-1.423-.735-1.544-.735-.167-1.25.321-1.83.608-.743.328-1.611.408-2.166 1.116-1.189.936-2.726 1.537-3.147 3.234-.614.842-1.456 1.082-2.445.942a2.63 2.63 0 01-.849-.38c-3.02-3.188-2.465-5.466 1.457-7.003 2.666-1.049 5.552-1.563 7.89-3.494 1.524-1.256 3.047-.1 4.444.735.955 1.717 2.546 2.278 4.383 2.372.915.1 1.73-.147 2.445-.722 3.702-1.256 7.844-1.203 11.118-3.742.207-.207.408-.42.601-.648l.141-.033c1.456-.067 2.652.808 4.009 1.096 1.643.507 2.518-1.063 3.841-1.424.963-.394 1.283-1.39 1.931-2.077l-.02-.02z" fill="#707070"/><path d="M81.52 21.127c-1.857-.194-3.354-.395-5.312.995-1.744 1.236-4.149 2.56-6.895 2.452-2.265-.087-2.973 2.065-1.684 4.123.334.534.608 1.095.902 1.65-.046 1.343-1.33 1.717-2.01 2.559-.903.428-1.584 1.142-2.266 1.85-1.283.609-1.997 1.644-2.291 3-1.016.956-1.237 2.506-2.44 3.321-2.258.408-2.846 3.127-5.465 3.521-2.358.355-3.227-.013-3.534-2.184-.114-.375-.287-.729-.715-.782-.394-.054-.461.227-.374.568.929 2.03.093 3.561-1.43 4.79-1.276 1.036-2.64 1.203-3.327-.628-.902-2.398-2.64-3.053-4.965-2.826-1.35-.661-1.29-2.125-1.85-3.234-2.432-5.92-8.045-7.73-12.461-4.009-.875.943-1.216 2.312-2.365 3.04-.782.575-1.33.274-1.825-.574.542 1.443 1.263 1.142 2.065.407 1.443-.58 2.566.007 3.608.95.588.68.895 1.47.889 2.371-.829 2.145-.22 4.724-1.958 6.608-4.443 3.575-5.733 7.183-3.795 12.387 1.17 3.147 1.684 6.455 2.893 9.582 1.216 3.153 1.002 6.367-.468 9.46-1.095 2.299-1.316 4.67-1.162 7.243.187 3.194.247 6.514-1.838 9.334-2.017 2.138-3 5.178-5.759 6.688-.468.094-.942.1-1.417.074-1.57-.047-2.819-1.143-4.336-1.37-1.483-.895-2.893-.314-4.262.274-.862.367-1.644 1.156-2.566.147-.962-2.846 1.45-3.054 3.047-3.902-.277-.722-1.17-.949-2.68-.682-.267-.227-.875.134-.902-.52.147-28.811.014-57.628.08-86.438 0-1.163-.32-2.379.321-3.488C4.25 5.252 5.953 3.08 8.96 2.312c1.096-.702 2.318-.354 3.474-.354 30.668-.02 61.342-.02 92.003-.02.976.04 2.305.16 2.292 1.202-.013 1.537-1.65 1.276-2.713 1.57-1.49.702-2.625 1.844-3.741 3.014-3.18 1.797-5.833 4.363-8.913 6.267-2.352 1.456-3.829 3.695-5.873 5.392-.976.815-1.677 1.998-3.127 2.084a1.48 1.48 0 01-.835-.347l-.007.007z" fill="#707070"/><path d="M6.34 143.871a1.256 1.256 0 01-.246-.581c2.732-2.613 3.908-2.539 6.086.367.14.201.274.428.568.461-.047-.167-.307-.127-.32-.347.267-3.782 3.18-2.406 5.224-2.72 1.183-.962 1.838-2.171 1.851-3.708.027-.748-.34-1.436-.347-2.178-.12-.421.12.087-.014-.327-.824-2.477-.764-5.132.18-7.965.89-2.652 1.651-2.806 4.103-.841.535.988 1.523 1.563 2.379.962.955-.668-.495-1.129-.615-1.784-1.61-3.682.38-6.481 2.579-9.294-1.644-.281-2.62.848-3.869.962-1.082.154-2.251.788-3.046-.568-.288-1.443.574-2.499 1.216-3.635 1.483-2.873 4.075-4.302 6.955-5.371 1.938-.428 2.512-2.486 4.05-3.395 1.028-1.723 2.785-3.327.901-5.525-.327-.26-.702-.414-1.089-.227-.16.08-.04.147.254.1.454-.074.701.287.955.608.842 4.082-.287 5.472-4.196 5.151-.962-.08-1.924-.127-2.873.067-1.723.354-2.666-.347-2.886-2.071-.154-1.263.548-2.546-.187-3.802-1.43-2.452.114-3.28 2.145-3.808 1.162-.3 2.332-.408 3.527-.214 1.891.388 3.776.808 5.72.715.775-.147 1.744 1.035 2.345-.354.1-.268.227-.515.374-.762 1.423-4.25 3.047-8.472 1.644-13.076-.227-4.055 0-8.11-.14-12.166 0-1.07-.635-2.192.233-3.2 1.283-.047 2.526.033 2.88-1.771.114-.588.555.22.828.434 1.657.621 1.564 2.098 1.67 3.468.235 2.993-.166 5.953-.373 8.92.474 1.837-1.23 4.255 1.45 5.525.801.528 1.336 1.517.922 2.178-2.005 3.174-1.17 6.949-2.379 10.27-1.07 1.496-.414 3.267-.775 4.87-1.243 6.575-2.66 13.102-4.397 19.557.027.334 0 .668-.08.995-.841 1.356-1.022 3.047-2.144 4.263-1.51.635-1.851 2.078-2.332 3.421-.04 1.817-2.793 2.118-2.339 4.216.361 1.43.094 2.739-.748 3.935-.555.635-1.396.775-2.425 1.149 1.136.321 1.997.187 2.766.541a3.274 3.274 0 011.436 1.11c.758 2.485 2.328 3.024 4.71 1.617a2.553 2.553 0 011.203-.368c.855.087 1.71.942 2.56-.02 1.215-1.577.534-3.862 1.997-5.338 1.55.908 1.196 2.772 1.47 4.022.374 1.71-.174 2.98 2.272 1.67 1.095-.588.922.755 1.029 1.41.187 1.089-.448 2.445 1.029 3.107.948.374.868 1.109.674 1.891-.487.902-1.43 1.129-2.258 1.516-2.085.348-4.062-.788-6.147-.454-1.897.234-4.055-.715-5.592 1.223a1.83 1.83 0 01-.909.36c-3.488-.04-6.982.314-10.45-.2-.374.047-.527-1.644-1.109-.134-1.877.562-3.741.648-5.599-.046-.394-1.464-1.403-.682-2.225-.595-1.556-.187-3.06 1.089-4.637.16" fill="#707070"/><path d="M12.107 144.486c-1.584-2.499-3.835-1.671-6.014-1.203-.661-1.41-2.044-1.958-3.247-2.733-.3-4.683-.52-9.367.12-14.044 2.065-.822 4.13-1.637 6.188-2.465.013 0-.007-.181-.054-.254-.053-.087-.154-.141-.234-.207-.842-.595-.741-1.49-.761-2.346.173-.801.16-1.583-.254-2.325-.22-.688-.889-1.089-1.123-1.777-.1-.307-.24-.802-.067-.902 2.138-1.283 3.595-3.387 5.713-4.684 1.37.695 3.013.214 4.37.996.22.234.374.508.487.808.328 1.003-.3 1.858-.434 2.787-.501.982-.494 2.097-.808 3.133-.669 1.163-1.824 2.085-1.758 3.608-.56 3.421-1.47 6.762-2.458 10.076-1.183 3.962-.582 4.944 3.628 5.412.641.073 1.302.033 1.904.347.46.274.802.655 1.022 1.143.207.741.1 1.409-.434 1.991-.147.654-.374 1.436-1.196.808-1.911-1.443-2.967-.254-4.016 1.136.054.441-.387.461-.588.681l.014.014zm111.426-1.343c-.862-1.156-.508-2.499-.515-3.768-.026-15.007-.013-30.02-.013-45.026 0-1.51.127-3.034-.655-4.43.348-.408.775-1.21 1.022-1.156 1.083.234.535 1.216.542 1.85.046 12.114.12 24.234.04 36.347-.034 5.392.494 10.804-.421 16.176v.007z" fill="#707070"/><path d="M2.993 112.088c-1.737-2.299-.02-3.728 1.31-5.259a6.21 6.21 0 00.334-.294c1.009-.293 2.018-.527 3.074-.28 1.924 1.269 4.47.267 6.347 1.71.347.642.14 1.21-.227 1.764-.401.495-.949.802-1.47 1.149-1.971 1.778-3.3 4.297-6.034 5.225-.547.187-.988.328-1.503.074a1.338 1.338 0 01-.387-1.23c.52-1.463-.582-2.104-1.45-2.859h.006z" fill="#707070"/><path d="M82.101 21.093c3.495-3.133 6.755-6.594 10.564-9.287 2.285-1.623 4.55-3.715 7.61-4.076-1.043 2.633-3.876 3.188-5.76 4.838-2.552 2.238-5.539 3.955-7.69 6.721-.795 1.023-1.523 1.784-.755 3.067-2.432.902-2.967.735-3.962-1.256l-.007-.007z" fill="#DADADA"/><path d="M100.174 18.38c-.995 3.274-4.196 2.974-6.554 3.795-1.537.535-3.414.067-5.145.054 1.37-1.864 3.842-1.47 5.593-2.666.527-.36 1.175-.662 1.65-1.183 1.483-.955 2.973-.22 4.456 0zm-90.058 83.285c1.47-.087 2.572.895 3.869 1.316.841 1.156.995 2.185-.508 2.933-3.28-1.557-6.18.568-9.267.969l.086-.06c-.514-.301-1.483-.107-1.302-1.176 1.229-3.374 4.316-3.428 7.122-3.982zm-5.252 12.881c.014.481.034.962.047 1.437.661.775 1.77.588 2.512 1.189.755.094 1.316.408 1.43 1.243-1.69 1.951-3.762 1.256-5.793.835-1.343-1.958.054-3.254 1.11-4.63.206-.248.44-.261.694-.074zm115.642-102.76c.427.949-1.463 1.844-.06 2.813-1.016 1.35-2.352 1.684-3.929 1.263-.575-.688-.494-1.49-.408-2.292-.06-.541.014-1.062.314-1.53 1.377.114 2.773.621 4.089-.254h-.006zm-11.759 6.969c-1.731-.742-2.599 3.026-4.604.882-.735-.802-1.456-1.61.094-2.319l2.459-.113c1.262-.261 2.285-.194 2.044 1.543l.007.007z" fill="#707070"/><path d="M2.973 126.513l-.12 14.044c-.848-4.69-1.055-9.374.12-14.044zM105.179 2.305c.748-.074 1.496-.154 2.238-.227 1.677 2.278-.849 2.946-1.777 3.888-.896.902-.849-1.075-1.631-1.25-.527-1.249 3.388-.34 1.17-2.411z" fill="#DADADA"/><path d="M104.243 17.318c-1.176.728.862 1.583-.093 2.319-1.537-.067-2.933-.408-3.815-1.838 1.142-1.476 2.626-.16 3.908-.481z" fill="#707070"/><path d="M100.174 18.38c-1.483.348-2.973 1.01-4.456 0 1.009-4.175 3.013-.12 4.476-.54a.93.93 0 01-.02.54z" fill="#DADADA"/><path d="M82.101 21.093c1.123 1.05 2.606.942 3.962 1.256.047.2.04.401-.027.595-2.8 1.376-4.049.869-4.516-1.817.194-.04.387-.047.581-.034zm34.911-7.998c.214.99-.027 1.898-.495 2.76a758.02 758.02 0 01-3.748-.708l1.243-1.063c.668-1.343 1.697-1.59 3-.995v.006zm-8.265 5.66c-.388-.902-1.25-1.183-2.045-1.543.388-2.012 2.285-1.183 3.408-1.811.421 1.477-.094 2.572-1.37 3.354h.007z" fill="#707070"/><path d="M117.012 13.096c-1.003.334-2.005.661-3 .995-.595-1.015-.521-2.131.3-2.813.782-.654 1.277.802 2.112.755.193.354.394.709.588 1.063zM6.34 143.871c1.197.227 3.295-.996 3.368.782l-3.367-.782zm32.332-24.708a91.212 91.212 0 013.207-15.047c.528-1.73.134-3.668 1.29-5.204.374-.147.775-.16 1.142-.228.441-.487.094-.948-.04-1.41-.234-1.135.027-2.311-.307-3.433.013-.107.006-.214.033-.321.815-3.18-1.376-7.103 2.405-9.602.361-.24.134-1.229-.46-1.69-2.747-.648-.956-2.592-1.136-3.975a1.31 1.31 0 01.327-.435c.22-.193.234-.28.02-.24-.32.14-.621.247-.949.167-.928-4.543-.28-9.167-.681-13.737.194-.588.24-1.557.608-1.697 1.009-.394.968.761 1.356 1.296.454.628.454 1.717 1.63 1.617 1.163-.32.695 1.062 1.337 1.283 1.476 6.474.801 13.022.614 19.55.508 7.396.421 14.792.04 22.189-.3 2.144.789 4.57-1.27 6.367-1.015-.408-1.823-.575-1.877.996-.033 1.035.127 2.084-.153 3.113-.341.728-.842 1.276-1.664 1.457-1.77-.595-3.728-.228-5.465-1.016h-.007z" fill="#DADADA"/><path d="M38.612 94.79l.067.2c-.488.855-1.063.488-1.644.134-.735-2.165-1.89-4.203-1.998-6.281-.614 1.577 1.764 3.02.762 4.93-1.223 1.13-2.078.268-2.893-.567-.702-.728-1.056-1.824-2.252-1.991-.915-.495-1.91-.054-2.86-.227-1.028-.401-1.483-1.17-1.463-2.252.482-1.79 1.37-3.327 2.807-4.523 1.797-.348 2.585-1.704 3.233-3.227 1.644-3.876 2.139-8.018 3.16-12.054-1.162-.374-1.49.668-2.217.729-.308.073-.615.08-.93.04-.814-.207-1.309-.842-1.87-1.397a3.017 3.017 0 01-.414-.862c-.14-.641-.094-1.262.187-1.864.568-1.022 1.684-1.243 2.566-1.817.935-.608 2.331-1.25 1.817-2.653-.414-1.129-.454-2.331-2.432-2.88-5.325-1.483-7.009-4.068-6.802-8.578 1.383-1.183 3.094-.267 4.59-.722 1.804.414 3.495.528 4.336-1.643 1.444-.548 2.553-.027 3.475 1.075.454.648.447 1.49.882 2.145.254 1.022 1.102 1.704 1.503 2.64.394.955.989 1.837 1.03 2.919-.328 2.198-.382 4.51-2.32 6.1-.053 1.102-.106 2.198-.153 3.3.955 2.206-.495 4.664.701 6.843.114 4.296-1.289 8.638-.2 12.841.889 3.421-.354 6.441-.675 9.635l.007.006zm84.961-77.579c.588 3.649.227 7.317.241 10.971.053 12.628.04 25.263-.034 37.89 0 1.03.782 2.413-.755 3.127-.715-1.543-2.285-1.81-3.628-2.425.014-.354-1.523-.16-.401-.715.996-.494 2.312 1.07 3.668-.06-1.262-1.403-3.093-.08-4.249-1.19.08-.193.16-.534.221-.534 3.975.26 4.503-1.877 4.443-5.358-.214-12.641-.094-25.29-.074-37.937 0-1.27-.3-2.613.555-3.769h.013zM80.785 148.374H53.538c-1.65-.588-3.387 0-5.058-.354-.307-.26-.34-.554-.107-.875.515-.601 1.223-.628 1.938-.648 1.67-1.397 3.46-.261 5.205-.254 1.844.387 3.528-.401 5.285-.688 2.191.006 4.39-.161 6.574.22 2.646.595 5.312.401 7.978.201.367.073.681.247.935.514 1.29 1.136 3.381.354 4.504 1.891l-.007-.007z" fill="#707070"/><path d="M76.282 146.483c-.22.027-.448.054-.668.074-2.633.568-5.299.127-7.945.247-2.251-.875-4.53-.929-6.841-.254-1.684.962-3.481.595-5.259.454-.487-.267-1.403-.046-1.41-.828 0-.775.916-.581 1.39-.882 5.178-1.056 10.457-.902 15.688-1.323 1.824-.147 3.401.354 4.965 1.082.801.375.801.916.066 1.423l.014.007zM60.614 49.022c-1.23 1.042-1.704 2.873-3.494 3.32-1.637.475-3.288 1.003-3.942-1.363-.441-1.316.688-2.178.955-3.294.969-1.155 1.684-2.505 2.672-3.654.555-.521.876-1.276 1.61-1.624 1.157-.334 2.192-1.283 3.535-.735.234.2.388.455.468.748.093 1.31-1.243 2.326-.782 3.722-.007.762.074 1.537-.354 2.232-.2.24-.42.46-.668.648zm10.009-6.408c-.1 1.056-.401 2.011-1.39 2.593-1.07.748-1.07-1.604-2.178-.749-.635.869-1.277 1.737-1.911 2.6-.882.1-1.05-.529-1.196-1.177-.067-.661.22-1.222.514-1.777.528-1.096 1.784-1.91 1.323-3.4a5.568 5.568 0 01-.18-.87c-.06-.467 0-.928.033-1.402a3.06 3.06 0 01.26-.963 2.42 2.42 0 01.676-.788c.988-.575 1.99-.889 3.08-.254 2.265 1.75.975 4.07.969 6.18v.007zm7.008-4.67c-1.149.253-1.984 1.403-3.3 1.182-1.677-.093-3.034-.648-3.575-2.425-.046-.842.361-1.517.822-2.165 1.397-1.59 2.512-3.615 5.111-3.408 1.43 1.143.027 2.753.669 4.023.427.895 1.042 1.777.273 2.792zM38.94 62.17c.293-2.064.614-4.122 1.623-5.993.795-.514.782-1.577 1.457-2.178.34-.327.741-.521 1.229-.501 1.002 4.136-.809 7.784-4.303 8.672h-.006z" fill="#DADADA"/><path d="M79.402 26.98c.027.688.695 1.55-.5 1.917-2.366 1.417-3.996 4.216-7.29 3.929-.615-.24-1.103-.622-1.383-1.236.167-1.804 1.683-2.506 2.853-3.501.661-.408 1.363-.722 2.138-.849.888-.24 1.563-1.015 2.545-1.042.668 0 1.263.16 1.637.782zm-31.63 29.124c-.802-1.396 1.236-2.846-.073-4.236-.455-.655-.254-1.283.093-1.898.875-1.075 2.192-1.583 3.2-2.505.742-.675 1.65-1.009 2.38.127.2 2.706-2.333 4.31-2.74 6.768-.247.401-.581.728-.929 1.042v.194c-.641.167-1.096 1.063-1.93.501v.007zM44.23 134.31c.77 1.978-.52 3.862-.273 5.846.1.835-.828.662-1.437.588-1.169-.187-1.917-.868-2.325-1.964-.167-1.41.254-2.666 1.002-3.835.796-.535 1.223-1.757 2.52-1.377.173.248.347.495.514.742z" fill="#DADADA"/><path d="M49.703 55.41c0-.355-.013-.716-.02-1.07 1.223-1.43 1.236-4.002 3.855-4.122.702 1.543 1.818 2.392 3.588 2.131-2.579.762-4.356 3.481-7.423 3.067v-.007zm-.608 52.836l-.04-22.19c1.323 7.397 1.049 14.793.04 22.19z" fill="#DADADA"/><path d="M71.739 32.184c2.178.588 3.233-1.189 4.61-2.238.775-.588 1.142-2.044 2.552-1.042l-.12 2.646c-.635.387-1.263.54-1.891-.014-2.258.428-3.454 2.078-4.47 3.922-1.263-.875-1.657-1.93-.681-3.267v-.007z" fill="#707070"/><path d="M43.242 53.498c-.193.24-.394.481-.587.721-1.223.428-2.326.087-3.388-.527-.508-.942-1.016-1.891-1.53-2.833.187-.254.42-.448.701-.595 1.383-.334 2.78-.127 4.176-.06.321.087.608.234.869.434.461.508.815 1.043.394 1.75-.214.368-.42.742-.635 1.11z" fill="#DADADA"/><path d="M45 118.635c.12-1.978.24-3.962.414-6.741.841 1.476 1.436 2.331 2.418 2.719-1.717.735-.955 2.038-.741 3.22-1.263 1.089.16 3.227-1.61 4.116-1.664-.889-.649-2.165-.475-3.321l-.007.007z" fill="#707070"/><path d="M75.634 28.242l-2.045.702c-1.076.214-1.957 1.336-3.214.668.14-2.211 1.597-3.287 3.455-4.015 1.824.04 2.893.608 1.804 2.639v.006z" fill="#DADADA"/><path d="M43.71 133.568c-.682.562-.688 1.771-1.817 1.898-1.156-1.209-.595-2.532-.248-3.842.281-.795.588-1.583.735-2.419.675-1.877-.514-4.429 2.025-5.632.628-.074 1.035.247 1.35.742.44 1.062.367 2.124.026 3.193-.728 1.764-1.096 3.662-1.957 5.379-.04.227-.074.454-.114.675v.006z" fill="#707070"/><path d="M76.89 31.53c.635-.315 1.263-.402 1.89.013-.227 1.697 1.03 3.36.12 5.07-.834.449-1.342-.26-1.362-.747-.1-2.205-.889.314-1.183-.208-1.336-1.576.468-2.739.541-4.135l-.006.006z" fill="#DADADA" fill-opacity=".678"/><path d="M43.877 52.389c-.248-.494-.501-.989-.749-1.49.254-2.285 2.018-2.646 3.802-2.993.715.127 1.156.528 1.256 1.27a1.69 1.69 0 01-.287.888c-.902 1.002-1.136 2.652-2.813 2.906l-1.203-.581h-.006zm1.89 69.36c.188-1.39-.554-3.094 1.317-3.916-.054 3.274.835 6.608-.635 9.789-1.316-1.236-.167-3.107-1.136-4.43-.08-.555.067-1.036.454-1.443zm25.37-85.162c1.062.842 2.125 1.69 3.194 2.532-.769.649-.942 3.14-2.66.856-.921-.896-1.73-1.844-1.403-3.274a.81.81 0 01.87-.114zm8.265-9.607l-1.657-.26c-.902-.268-1.604-.709-1.563-1.798.033-1.303 1.216-1.21 1.977-1.624 1.81.722 2.586 1.831 1.343 3.675h-.1v.007zm-40.87 45.667c-.628-2.419-.735-4.817.247-7.183l1.022-.12c.187.809.368 1.624.555 2.432-.147.26-.3.521-.461.775-.748 1.27.42 3.174-1.363 4.096z" fill="#DADADA"/><path d="M76.181 24.922c.769.387 1.39.902 1.564 1.797-.655.575-1.029 1.543-2.111 1.517.167-1.403-.762-2.058-1.804-2.64.547-1.062 1.443-.881 2.352-.674z" fill="#DADADA"/><path d="M64.576 45.767c.194.435.381.862.575 1.297-.782 2.338-2.853 1.703-4.53 1.964l.12-.715c.428-.448.214-1.143.628-1.59 1.002-.541 1.918-1.383 3.214-.956h-.007z" fill="#D5DADA" fill-opacity=".855"/><path d="M45.942 122.992c.821 1.47.334 3.087.507 4.63-.207.481-.414.962-.614 1.443-1.156-.013-1.13-.641-.755-1.45l.26-3.287c.06-.508-.18-1.156.602-1.336zm1.83-66.888c.688 0 1.163-.835 1.938-.501-1.056 2.712-3.976 2.285-5.92 3.528.842-1.67 3.04-1.517 3.982-3.027zm29.018-6.548c.721-1.683 1.45-3.374 2.171-5.057.214 2.124-.274 3.942-2.171 5.057z" fill="#DADADA"/><path d="M45.08 52.964c.808-1.123 1.216-2.6 2.706-3.134.267.08.454.247.568.508-.22.508-.441 1.022-.662 1.53-.755.641-1.076 2.318-2.612 1.096zm20.912-20.88c.375-1.269 1.37-1.623 2.533-1.737.16-.127.327-.24.5-.354.682.575.782 1.303.582 2.118-.621 1.236-1.623 1.617-2.933 1.296-.521-.287-1.029-.58-.682-1.316v-.007z" fill="#707070"/><path d="M69.16 31.97c-.047-.661-.087-1.323-.134-1.984.34-.508.875-.34 1.35-.374 1.068-.24 2.024-1.01 3.213-.668-.594 1.383-2.78.808-3.107 2.519-.046.447-.294.734-.708.895a.59.59 0 01-.615-.388z" fill="#707070"/><path d="M76.355 35.665c.281-.661.562-1.33.902-2.118.562 1.063.455 2.446 1.65 3.074.141.982-.427 1.283-1.269 1.323-.427-.762-.848-1.517-1.276-2.279h-.007z" fill="#DADADA"/><path d="M67.061 44.458c.428-.561.849-1.122 1.276-1.684 1.39.488-.741 2.118.896 2.432-.501.481-1.009.963-1.517 1.45-.655-.721.635-1.81-.655-2.204v.006zm3.455-7.63c.38 1.049.768 2.098 1.15 3.147-.876.668-.034 2.024-1.043 2.639-.348-1.984.227-4.216-1.564-5.806.495-.468.976-.475 1.457.02z" fill="#707070"/><path d="M48.447 66.507c-.448-.428-.895-.856-1.336-1.283-.02-1.016-.254-2.065.588-3.388.822 1.684.802 3.174.748 4.67z" fill="#DADADA" fill-opacity=".855"/><path d="M72.868 48.38c.988.869 1.864 1.931 3.474 1.818-2.118 1.617-3.06.213-4.002-1.19.1-.274.274-.48.534-.621l-.006-.007z" fill="#DADADA" fill-opacity=".678"/><path d="M79.502 26.973c.094-1.423-.22-2.7-1.343-3.675 1.644-.761 1.992.568 2.466 1.584.528 1.136 0 1.797-1.123 2.084v.007zM45.08 127.615c.254.481.5.969.755 1.45-.448 1.39-.789 2.84-2.005 3.822.094-1.838.495-3.595 1.256-5.279l-.006.007zM72.868 48.38c-.18.207-.355.414-.535.622-1.022-.91-2.352-.669-4.41-.809 2.326-1.27 3.662-.889 4.945.187zM37.222 94.448c.234.869.882.595 1.457.542.12.895-.134 1.723-.962 2.05-1.029.402-1.29-.688-1.81-1.242-2.165-.755-4.457.127-6.629-.528-2.03-.701-3.474 1.03-5.539 1.096 4.624 1.055 1.871 3.427 1.343 5.332-.715 1.082-.681 2.078.755 2.271 1.27.167 1.884.682 1.958 1.918-.194 1.857-1.29 2.305-2.94 1.891-1.43-.729-3.04-.441-4.543-.769-.875-.327-1.423-1.002-1.898-1.764-.748-1.964-1.643-3.848.775-5.505.909-.621.087-2.552 1.57-3.174 1.57-2.846 1.444-5.993 1.183-9.013-.24-2.806-.033-5.398 1.416-7.77 1.838-3.014 1.17-6 .208-9.04a1252.472 1252.472 0 01-3.374-10.777c-.829-2.713-.174-5.392.507-7.978.602-2.292 2.78-2.973 4.79-3.668.656.36.442.955.409 1.503.755 1.85 1.623 5.312 2.244 5.272 2.48-.18 3.655.915 4.624 2.88.748-.862.394-1.731.428-2.526.02-.488.34-.528.621-.515.28.014.808.234.802.315-.314 2.378.741 4.108 1.897 6.14.655 1.142-1.684 3.274-3.715 3.935-.654.214-1.55-.367-1.984.601-.728.481-1.437.421-2.131-.066a4.049 4.049 0 00-1.083-.522c.22.288.608.281.869.508 1.416 1.076.073 3.207 1.637 4.223.748.775.32 1.804.601 2.753 1.323-.876.775-2.787 2.071-3.615.461-.441.869-.956 1.39-1.303.508-.334.889-1.677 1.009-1.196.3 1.17 2.68.314 1.844 2.56-1.41 3.794-2.272 7.796-3.2 11.752-.542 2.318-1.891 3.494-4.15 3.821-.407.261-.841.361-1.316.234-.407-.247-.574-.641-.641-1.075-.034-.18-.12-.515-.22-.501-.382.053-.275.427-.321.701-.248 1.216-.188 2.405.087 3.601 0 .441-.188.822-.321 1.23-.047.882.467 1.31 1.23 1.536.888.254 1.79.395 2.705.14 2.846-.981 2.352 2.754 4.29 3.054.715-.107.427-1.37 1.222-1.196 1.002.214.354 1.336.815 1.911l.02-.027z" fill="#DADADA"/><path d="M25.917 49.817c-.641-.368-.434-.956-.408-1.504.782-1.857-.735-4.29 1.45-5.8.669-1.69 2.446-2.09 3.648-3.166.281-.14.575-.227.889-.274a4.46 4.46 0 011.396.073 3.3 3.3 0 01.816.361c.728.555 1.396 1.29 2.465.949.748-.789 1.41-1.985 2.606-.541.601 1.035.354 2.405 1.336 3.287 1.557 1.383 1.898 3.033.762 4.77-.775 1.19-1.858 2.078-3.401.99-.929-.916-1.998-1.45-3.347-1.21-.87 1.557-2.847.755-3.93 1.85-1.349 1.564-2.852.161-4.275.215h-.007z" fill="#DADADA"/><path d="M37.47 48.962c3.186-1.19 3.66-2.226 2.638-5.76 1.016-.728 2.025-1.456 3.288-2.358.454 1.703.4 3.668 2.632 3.835.087 0 .154.167.247.193 1.39.334-2.672 2.48.448 1.764 1.677-.387 3.04-2.438 1.67-4.703 1.063-.943 2.138-.876 3.227-.054.248.782-.607 2.432 1.377 1.864 1.81-.514 4.463-.48 2.412-3.882 1.623-.106 2.639 1.17 3.909.715 1.089 1.143.514 1.911-.575 2.566-.414.468-.835.929-1.25 1.396-.962.455-1.797 1.15-2.786 1.557-.715.274-1.436.508-2.211.441-1.79.655-3.34 2.031-5.425 1.797-1.31.856-2.626 1.71-3.936 2.56l-.28.04-.281-.04c-1.303-.622-2.613-.796-3.949-.087l-.882.04c-.42-.582-.4-1.23-.274-1.891v.007zM20.773 96.56c-.649 2.786-2.686 5.339-1.41 8.445.3 1.417.822 2.8.654 4.29-.354 1.63.054 3.588-1.924 4.523-.548.114-1.042 0-1.476-.347l-.08-.755a33.888 33.888 0 01-3.2-3.221c.213-.441.427-.882.64-1.329-.701-2.011.99-3.428 1.303-5.185 1.296-1.744 3.341-2.927 3.936-5.185.227-.869.755-1.19 1.563-1.23l-.006-.006z" fill="#707070"/><path d="M26.298 40.677c-1.062-.495-2.118-.99-3.18-1.484l.013.027c-.033-1.423-.267-2.913 1.303-3.788 1.57-.568 3.047-1.41 4.737-1.65 3.348-.482 4.343.547 3.829 4.015-.374.842-1.196 1.17-1.884 1.65a30.2 30.2 0 00-.835.454c-1.27.542-2.506 1.257-3.976.776h-.007z" fill="#DADADA"/><path d="M32.171 37.824c.3-3.628-.748-4.49-4.096-3.247-1.196.447-2.345.948-3.648.855 5.7-4.276 12.401-2.178 14.345 4.496-.561-.06-1.383-.5-1.102.715.18.789-.16 1.19-.916 1.316-1.002-.915-2.659-.728-3.44-2.024l-.228.013h-.227c-.882-.494-1.47-1.089-.681-2.124h-.007z" fill="#DADADA"/><path d="M58.736 43.148c.568-.768.682-1.643.575-2.565.374-1.25.635-2.56 1.858-3.334.28-.18.58-.22.895-.107 1.39 1.21.681 2.659.48 4.055-.12.308-.326.542-.6.722-1.003.588-1.925 1.37-3.208 1.23zm-35.618-3.955c-.147.568.093 1.404-.802 1.497-.641.067-1.263-.16-1.617-.795-.053-.094-.114-.214-.094-.3.335-1.384-1.59-3.401-.334-3.816 2.112-.688.983 1.978 1.784 2.873.254.28.709.381 1.076.561l-.013-.026v.006zm3.18 1.483c1.056-1.102 2.312-1.644 3.856-1.356.233.2.688.207.628.681-.528 1.978-2.5 1.75-3.822 2.513-.22-.615-.441-1.223-.662-1.838z" fill="#707070"/><path d="M62.15 37.376c-.327-.04-.654-.087-.981-.127-.167-2.091 1.637-2.399 2.893-3.214.708-.44 1.162-.147 1.483.528.114 1.283-.568 2.111-1.57 2.766-.602.288-1.203.401-1.824.054v-.007zM51.614 41.88c-1.076.02-2.151.033-3.227.053-.996-2.252 1.363-1.51 1.937-1.77 1.845-.836 1.01.981 1.283 1.716h.007z" fill="#707070"/><path d="M65.297 34.717c-.193-.622-.66-.748-1.236-.682-.066-1.356.95-1.643 1.938-1.957l.648.788c.475 1.29.114 1.971-1.35 1.844v.007z" fill="#DADADA" fill-opacity=".678"/><path d="M17.211 139.375c-.648 0-1.29 0-1.937.006-5.953.034-6.735-1.289-4.704-6.875 1.183-3.26 1.81-6.728 2.686-10.096 1.65-3.714 2.74.107 4.102.301 1.19.207 2.025-.16 2.453-1.37.44-1.249 1.503-1.65 2.685-1.824 1.45-.781-.781-2.859 1.203-3.447 1.116-.822 2.405-1.263 3.661-1.818.709-.314 1.236-1.302 2.052-.527.701.674.247 1.637-.027 2.438-.134.395-.36.842-.675 1.076-2.652 1.971-3.32 4.677-2.986 7.784-.18 1.804-1.29 1.797-2.62 1.35-.975.32-1.443-.522-2.452-1.243.515 3.093-1.149 5.071-3.026 7.216 1.53.36 2.866-1.504 3.42-.314.368.788-.748 2.265-1.202 3.434.38 1.022-.401 1.376-1.07 1.523-1.376.301-1.275 1.437-1.55 2.379l-.013.007zm25.376-7.684c-.234 1.262-.46 2.518-.695 3.781-.42 1.129-.848 2.259-1.269 3.388.067.541-.18.895-.655 1.122-.247.181-.614.307-.715.548-.922 2.118-2.666 2.98-4.77 2.653-3.067-.475-1.203-2.9-1.51-4.47.033-1.838 1.376-3.575.42-5.492-.24-1.751.475-3.254 1.237-4.751.634-1.61 1.009-3.354 2.271-4.664.368-1.443.488-2.993 1.738-4.062 1.777.047 3.247 1.423 5.098 1.169.942.802 1.67 1.664.808 2.96-1.29 1.711-.074 4.029-1.376 5.74a45.78 45.78 0 00-1.657-.027c-.682.174-1.71-.755-1.971.621 2.022-.383 3.037.109 3.046 1.477v.007zm-4.055-59.044c.668-1.497-.935-3.642 1.33-4.69.868 3.173.147 6.414.407 9.607.1 1.263-.38 2.586.34 3.796.402.106 1.277-.522 1.137.427-.655 4.423-.582 9.04-3.14 13.002-.275-2.305-1.678-4.777 1.356-6.982-2.225.715-2.533.047-2.345-1.744.46-4.456.628-8.94.908-13.416h.007z" fill="#DADADA"/><path d="M17.866 113.397c.996-1.37.034-3.347 1.41-4.597 3.728-.561 4.623.535 3.795 4.63-.648.849-1.296 1.704-1.944 2.553-.234.995.247 2.171-.735 2.993-.875.922-2.132 1.036-3.214 1.53-1.203.327-2.192.341-1.924-1.383.327-1.076-.401-2.352.601-3.307 1.503-.114 1.122-1.798 2.011-2.426v.007z" fill="#DADADA"/><path d="M23.064 113.431c.561-3.04-1.617-3.836-3.795-4.631-.922-1.289.394-2.525.087-3.795.407.441.815.876 1.23 1.317 1.376 1.015 2.953.38 4.43.521 1.128.287 2.09.32 1.957-1.296.648-.669 1.323-1.243 2.338-.729 1.25.962 1.21 2.132.541 3.401-2.719 1.149-5.692 1.951-6.795 5.212h.007z" fill="#DADADA"/><path d="M30.781 122.524c-.494-6.013-1.43-5.8 2.145-8.485 1.65-1.237 1.898-.548 2.158.975.568 3.374-.929 5.679-3.608 7.436-.2.328-.434.355-.695.067v.007z" fill="#DADADA" fill-opacity=".855"/><path d="M28.877 104.932c-.628.2-1.262.407-1.89.608-.127-1.537-4.457-.996-1.898-3.855-.027.741-.681 1.837.942 1.65.996-.114 1.904-.361 3-.254 4.41.448 4.657.06 4.316-4.717-.006-.521.094-.909.749-.588 2.104-.32 2.84.902 2.164 2.552-.594 1.45-.862 3.308-2.652 4.049-1.47 1.096-3.12.662-4.73.555z" fill="#DADADA"/><path d="M23.091 126.373c.875-.448 1.75-.896 2.62-1.35 1.783.394 3.06.975 1.763 3.187-.374.641-1.27 1.303-1.216 1.042.655-3.026-6.207 2.352-3.174-2.879h.007zm20.151-5.092c-2.599 2.673-3.347-.207-4.61-1.537 0-.194.014-.387.04-.581 1.824-.902 3.688-2.098 5.132.548.106.628-.107 1.142-.562 1.57zm-7.957 7.056c-.401 1.743-.809 3.481-1.21 5.224.642 1.611-.107 2.433-1.603 2.833-.548-.08-.869-.407-1.03-.922.068-1.356.669-2.692.134-4.062.528-1.456 1.905-2.118 2.927-3.107.267-.16.528-.14.782.034z" fill="#707070"/><path d="M19.837 118.381c.428-.802.856-1.597 1.283-2.399.822 1.089 1.724-.24 2.573.094-.127 1.537 1.129 2.88.648 4.45-.415 1.349-.909.655-1.357-.007-.862-.989-2.712-.514-3.147-2.131v-.007zm8.299 13.016c-.99 4.056-4.29 3.18-7.13 4.356 1.59-3.28 4.297-3.501 7.13-4.356z" fill="#DADADA"/><path d="M31.443 135.472c.22.187.441.381.662.568.587.702.64 1.377-.114 2.005-.635 0-1.283.066-1.904-.014-.882-.107-2.145.468-2.506-.648-.2-.621.36-1.61.802-2.292 1.049-1.596 1.19 1.123 2.125.522.24-.154.621-.101.935-.141zm-14.231 3.902c-.174-1.523-1.71-.822-2.493-1.483 1.023-2.319 3.642-1.176 5.112-2.419.527.501.621 1.149.648 1.824-.628 1.149-.916 2.626-2.606 2.773-.22-.234-.441-.461-.662-.695z" fill="#707070"/><path d="M28.877 104.932c1.35-2.138 3.18-.161 4.73-.555-.841 1.677-1.863 3.18-3.748 3.835l-.982-3.287v.007zm4.597 6.968c.635-2.178-1.23-5.238 2.405-6.841-.414 2.665-.233 5.091-2.405 6.841z" fill="#DADADA"/><path d="M48.193 147.713c1.764.381 3.668-.441 5.345.661l-16.83-.08c0-.12 0-.247-.007-.367 1.523-1.397 3.394-.515 5.098-.775 2.151-.007 4.31-.101 6.4.561h-.006z" fill="#707070"/><path d="M24.427 139.081c-.574 2.198 1.05 3.875-.173 5.545-3.248-1.523-3.294-2.332.173-5.545zM44.19 77.738c.308-.267.616-.534.923-.808.367.394.42.821.134 1.282 1.423 1.13-1.27 2.974.688 4.01-.582.514-.408 1.69-1.744 1.823v-6.307zm.242 22.643c-.421-.487-.842-.975-1.263-1.47.22-1.697-.454-3.534.795-5.07 1.456.808 1.196 2.23 1.27 3.534-.228 1.015.293 2.225-.796 3.006h-.006z" fill="#DADADA"/><path d="M31.99 138.045c.04-.668.074-1.337.114-2.005 1.03-.527 1.844-1.229 1.971-2.478.368.02.735.033 1.096.053-.815 1.664-.14 3.962-2.198 5.085-.528.08-.795-.234-.982-.662v.007z" fill="#707070"/><path d="M26.92 144.833c-.154-2.485 1.349-3.467 1.877-4.87.194-.522.882-.702 1.19-.014.38.862.74 1.985-.221 2.573-.882.541-1.65 1.216-2.84 2.311h-.007zM40.616 81.36c-1.363-1.624-.507-3.535-.621-5.305-.18-2.693-.1-5.4-.127-8.105.167-.04.334-.1.494-.18.488 4.516.428 9.046.261 13.583l-.007.007zm-5.331 46.977c-.08.2-.234.294-.448.294-.655-.394-.287-1.149-.601-1.664.54-1.343.387-3.274 2.659-3.167.267 1.797-.635 3.181-1.61 4.537zm-17.419 11.725c.889-.908 1.083-2.465 2.606-2.772.04 1.75-1.43 4.363-2.566 4.57l-.04-1.798zm23.993 7.631c-1.717.08-3.441.153-5.158.233-.394-1.302.514-1.476 1.403-1.489 1.25-.014 2.505.113 3.762.18.407.361.407.722 0 1.076h-.007z" fill="#DADADA"/><path d="M41.86 147.693v-1.076c2.224-.521 4.342.347 6.514.528a3.57 3.57 0 01-.18.574l-6.335-.02v-.006z" fill="#DADADA"/><path d="M39.588 101.224c.621 1.85-.087 3.387-.662 4.931.134-1.584-2.124-3.375.662-4.931z" fill="#DADADA" fill-opacity=".678"/><path d="M25.069 147.9c-.227-.007-.448-.02-.675-.027-.775-.247-1.704.127-2.439-.675.976-1.256 2.292-.581 3.441-.608.581-.013 1.55-.167 1.477.662-.087 1.042-1.19.407-1.804.648zm5.712-25.376c.234-.02.461-.047.695-.067.835 1.991-.194 3.314-1.55 4.744-1.049-1.991.882-3.127.855-4.677zm3.455 4.443l.601 1.663c-1.617.301-1.35 2.833-3.267 2.78-.762-.849-.501-1.457.44-1.924 1.083-.535 2.005-1.216 2.22-2.519h.006zm1.737 20.171c-2.218.996-3.675.668-6.02.535 2.178-1.49 3.655-1.357 6.02-.535zm3.995-7.162c.22-.375.434-.749.655-1.123.895.361 1.55.976 1.89 1.891-.981.187-2.592 2.445-2.545-.768zm-21.44 7.89c-.628-.187-1.41.094-1.858-.628 1.316-.888 2.673-1.263 4.19-.394-.301 1.563-1.597.641-2.332 1.016v.006z" fill="#DADADA"/><path d="M34.088 97.783c-.247.193-.494.394-.748.588-.595.821-1.19 1.637-1.877 2.585.32-3.568.427-3.695 2.625-3.173z" fill="#DADADA" fill-opacity=".855"/><path d="M12.107 144.486c.194-.227.387-.455.588-.682.314-.02.634-.087.942-.053.635.073 1.503-.708 1.837.434.067.241-.1.655-.294.849-.668.654-1.283.367-1.93-.141-.301-.234-.756-.274-1.136-.407h-.007zm17.171-49.223c2.212.14 4.51-.741 6.628.528-2.198-.36-4.523.936-6.628-.528z" fill="#DADADA"/><path d="M7.423 117.179c-1.049.053-2.231.38-2.512-1.19 2.091-1.69 5.024-2.485 5.78-5.605.146-.602.868-.401 1.376-.248.868-.193 1.39.221 1.51 1.029.087.555-.2.962-.869.889-1.316 2.171-3.42 3.521-5.292 5.125h.007z" fill="#707070"/><path d="M12.715 112.054c.882-1.009.053-1.443-.648-1.924.42-.214.841-.428 1.262-.648 2.573-.421 3.628.661 3.2 3.22-1.389.461-2.899 1.61-3.82-.655l.006.007z" fill="#707070"/><path d="M15.254 119.123c.327.448.46 1.51 1.29.421 2.21.514 2.445 1.724.794 4.102-.848.054-1.71.067-1.957-.995-.495-2.085-1.37-.555-2.125-.248-.04-1.53.768-2.538 1.998-3.287v.007zm2.612-5.726c-.046.822.094 1.717-.174 2.459-.52 1.43-1.236 1.122-1.83-.034.254-.781.508-1.57.761-2.352.415-.02.836-.046 1.25-.066l-.007-.007z" fill="#DADADA"/><path d="M45.574 104.758c.929 1.817 1.076 3.695.395 6.193-1.337-2.331-.883-4.262-.395-6.193z" fill="#707070"/><path d="M43.242 121.281c-.073-.615.107-1.143.562-1.57.4-.361.794-.722 1.195-1.083.495.983-.668 2.372.769 3.121.053.414.113.828.167 1.242-.2.448-.401.896-.602 1.337l-.801-.461c-.234-.962-.441-1.938-1.296-2.593l.006.007z" fill="#DADADA" fill-opacity=".855"/><path d="M44.431 100.382c.188-1.023-.14-2.185.796-3.007.828 1.022.855 2.332.46 3.347-.54 1.377-.968.348-1.256-.34z" fill="#DADADA"/><path d="M45.246 78.22c-.046-.428-.086-.856-.133-1.284.107-.741.174-1.51 1.363-2.145-.855 1.25 2.018 3.127-1.236 3.428h.006z" fill="#707070"/><path d="M37.222 94.448c-.447-.902-.962-1.603-2.038-.708.375-1.41-.714-2.425-.995-3.648-.468-2.065-.481-3.989 2.653-4.91-1.223 3.36-.214 6.293.38 9.266z" fill="#DADADA"/><path d="M32.8 69.186c.287 2.74-1.056 4.864-2.7 7.276-2.005-2.05.488-4.29-.541-6.12-.448-1.296-.388-2.332 1.296-2.539l.087.094c.48.38.434 1.262 1.25 1.33.2-.02.407-.034.614-.04h-.007z" fill="#707070"/><path d="M30.193 49.603c-.414-.882-.58-1.704.755-1.804 1.056-.08 2.118-.033 3.174-.047l1.363 3.461c-1.904-1.336-3.975.348-5.292-1.61z" fill="#DADADA"/><path d="M30.855 67.803l-1.296 2.54c-.455-.208-1.557 2.017-1.43-.389.073-1.356.12-2.719.173-4.075a.723.723 0 01.555-.521c.802-.348 1.316.36 1.978.548 0 .628.013 1.262.02 1.89v.007zm.047 22.884c.006.722.267 1.944-.375 2.004-1.262.127-1.59-1.356-2.331-2.144.902.006 1.984-3.441 2.706.14z" fill="#707070"/><path d="M39.267 53.692c1.129.187 2.538-1.45 3.387.528-.414.955.501 3.34-2.098 1.957-.434-.828-.862-1.657-1.296-2.485h.007z" fill="#DADADA"/><path d="M32.191 69.226c-.107.695.114 1.484-.708 2.132-1.043-1.036-.475-2.312-.548-3.455.795.087 1.15.588 1.25 1.33l.006-.007z" fill="#707070"/><path d="M26.966 89.01c-.007-.581-.02-1.156-.027-1.737-.434-1.316-.274-2.346 1.29-2.713.488.087.982.18 1.47.267a1494.15 1494.15 0 01-2.733 4.183z" fill="#DADADA"/><path d="M67.162 146.437c2.82.04 5.632.086 8.452.126-2.813 1.176-5.726.448-8.6.435-.113-.227-.073-.421.148-.561z" fill="#707070"/><path d="M67.162 146.437c-.06.187-.107.374-.147.561-2.018-.802-4.136-.161-6.187-.441 2.09-1.189 4.209-.862 6.334-.12zm-5.833-99.199c-.194.36-.394.715-.588 1.076l-.06-2.58c.474-1.904 2.605-2.679 3.113-4.563.735-.835 1.41-1.79 2.76-1.216.033.24.06.474.093.715.729 1.483-1.062 2.024-1.189 3.194-1.123 1.43-2.479 2.579-4.13 3.374z" fill="#DADADA"/><path d="M53.538 50.21a1943.73 1943.73 0 01-3.855 4.123c-.033-2.793 2.693-4.176 3.374-6.608.194-.701.642-1.029 1.376-.942.455.214.782.495.548 1.07.24 1.229-.548 1.823-1.443 2.358z" fill="#707070"/><path d="M66.554 39.955c-.869.42-1.497 1.095-1.998 1.897-.742.448-1.303 1.437-2.405.809l-.2-.749c.06-.194.106-.387.133-.588.775-1.997 1.456-4.142 4.376-2.88.034.502.074 1.003.107 1.504l-.013.007z" fill="#DADADA"/><path d="M54.975 47.852l-.735-.781c-.661-.575-.434-1.256-.214-1.931.976-1.23 2.272-.602 3.461-.602-.715 1.196-.949 2.76-2.512 3.314zm7.169-5.185c.828-.194 1.416-1.102 2.405-.808-.655 1.93-2.245 2.926-3.875 3.875-.728-1.503-.568-1.837 1.47-3.067zm8.372-5.839l-1.457-.02c-.828.2-1.656.4-2.485.608-1.644-1.015-1.336-2.024.18-2.713 1.303-.588 2.299-1.403 2.98-2.639l.742-.601c.42.24.835.481 1.256.715l.681 3.267-1.282 1.142c-.207.08-.408.16-.615.234v.007z" fill="#707070"/><path d="M69.741 32.064c.087 1.717.354 3.474-2.325 3.387-1.53-.046-1.29.983-.842 1.958-.02.207-.094.394-.214.561-1.182.374-2.485 1.143-2.9-.915.608-.782 1.223-1.557 1.831-2.339.708-.427 1.604-.715 1.35-1.844.922-.066 1.77-.334 2.519-.895.187.087.38.114.581.087z" fill="#707070"/><path d="M63.467 37.055c.728 1.063 1.83.929 2.9.916.053.153.08.32.08.48-2.018.1-2.846 2.025-4.376 2.88-1.397-1.343.674-2.626.073-3.955.441-.107.875-.214 1.316-.32h.007zm-2.138 10.183c.975-1.517 2.626-2.239 3.922-3.381.194.127.267.267.213.407-.053.147-.113.221-.173.221-.234.428-.468.849-.708 1.276-.782 1.156-1.925 1.517-3.254 1.47v.007z" fill="#707070"/><path d="M65.284 44.492a2.022 2.022 0 01-.04-.635c.468-1.062.929-2.118 1.397-3.18.407-.067 1.436-1.003.868.414-.501 1.23-1.463 2.271-2.225 3.4zm-11.258.654c.074.641.147 1.29.214 1.93-.394.221-.795.435-1.19.656-2.104-.1-2.866 2.211-4.696 2.612-.187-.167-.381-.334-.568-.508l-.054-.2c.862-1.998 2.753-2.753 4.47-3.722.608-.254 1.21-.514 1.818-.768h.006z" fill="#707070"/><path d="M38.625 50.819c1.377-2.646 2.666-1.356 3.949.087-1.33.514-2.64.133-3.949-.087zm3.962 80.872c-.187-.836-.48-1.37-1.456-.715-1.216.821-2.492.861-3.748.026 1.142-1.456 2.8-1.79 4.483-2.064.842-.555 1.002.194 1.303.681.007.749-.06 1.477-.575 2.078l-.007-.006zm9.622-85.776c-1.49 1.242-2.98 2.478-4.47 3.721l-.675-1.296c1.443-1.397 3.12-2.272 5.145-2.425zM28.864 65.364l-.561.521c-1.256.522-2.56 1.39-3.722-.08-.314-.394-.227-1.222.354-1.363 1.417-.34 2.967-.848 3.929.916v.006zm-2.419 18.869c-.12-.789-1.73-.735-1.242-1.544.821-1.35 2.231-.38 3.394-.367.574 0 1.496-.381 1.343.654-.114.769-1.003.515-1.61.508-.555.434-1.023 1.09-1.885.749z" fill="#DADADA"/><path d="M26.445 84.233c.555-.428 1.082-.942 1.884-.749l-.1 1.076c-.428.902-.855 1.81-1.29 2.713-3.013-.548-.26-2.038-.494-3.04zm-1.423 22.603c-1.583.728-3.194 1.677-4.43-.521 1.51-.107 3.06-.528 4.43.521zm8.292-66.908c.895 1.11 3.12-.06 3.44 2.025-1.957.701-3.32.4-3.44-2.025zm-1.143-2.105l.682 2.125c-.415-.013-.829-.034-1.243-.047-.287-.18-.702-.194-.788-.628-.014-.915.734-1.116 1.35-1.45z" fill="#707070"/><path d="M30.821 39.273c.26.208.521.421.789.628l-.829.1c-.207-.226-.42-.454-.628-.68.22-.014.448-.034.668-.048z" fill="#DADADA"/><path d="M17.338 123.646c.087-1.436.287-2.893-.795-4.102.08-.668.26-1.45 1.096-.815.969.741 1.536.18 2.198-.348 1.617-.133 2.552.755 3.147 2.132-.742.387-2.325-.922-2.051 1.59.233 2.145-1.77 2.399-3.595 1.543zm24.522 5.285c-1.076 1.604-2.854 1.677-4.484 2.065.474-2.9 2.325-2.813 4.483-2.065zM76.02 84h-1.881v-3.615c0-1.047-.377-1.57-1.131-1.57-.36 0-.658.14-.897.421-.238.278-.357.633-.357 1.067V84H69.86v-6.48h1.893v1.03h.023c.473-.792 1.168-1.189 2.086-1.189 1.438 0 2.156.891 2.156 2.672V84zm5.736-8.133a2 2 0 00-.733-.152c-.648 0-.972.36-.972 1.078v.726h1.476v1.413h-1.476V84h-1.893v-5.068h-1.084v-1.413h1.084v-.832c0-.738.24-1.328.72-1.769.481-.441 1.112-.662 1.894-.662.398 0 .726.04.984.123v1.488zM92.672 84h-1.887v-3.697c0-.992-.361-1.489-1.084-1.489-.336 0-.615.15-.838.452-.222.3-.334.668-.334 1.101V84h-1.886v-3.744c0-.961-.358-1.442-1.073-1.442-.355 0-.64.145-.855.434-.211.285-.317.664-.317 1.137V84h-1.892v-6.48h1.892v1.013h.024a2.36 2.36 0 01.902-.861c.375-.207.77-.31 1.184-.31.91 0 1.533.407 1.869 1.224.5-.817 1.227-1.225 2.18-1.225 1.41 0 2.115.871 2.115 2.614V84zm1.347-.85a.9.9 0 01.334-.72c.223-.188.489-.282.797-.282.313 0 .577.096.791.288.215.191.323.43.323.714a.928.928 0 01-.323.733c-.214.183-.486.275-.814.275-.305 0-.566-.096-.785-.287a.925.925 0 01-.323-.72zm10.079.85h-2.297l-2.157-3.205h-.023V84H97.73v-9.592h1.892v6.106h.023l2.022-2.995h2.256l-2.402 3.06L104.098 84zm5.853 0h-5.76v-.768l3.317-4.3h-2.988v-1.413h5.414v.915l-3.17 4.154h3.187V84z" fill="#707070"/></svg>