<svg width="96" height="114" viewBox="0 0 96 114" fill="none" xmlns="http://www.w3.org/2000/svg">
<path d="M90.4851 0H5.47476C2.45113 0 0 2.44809 0 5.46796V108.532C0 111.552 2.45113 114 5.47476 114H90.4851C93.5087 114 95.9599 111.552 95.9599 108.532V5.46796C95.9599 2.44809 93.5087 0 90.4851 0Z" fill="#DADADA" fill-opacity="0.854902"/>
<path d="M83.2373 11.6271C83.904 11.5666 84.5757 11.501 85.2424 11.4405C86.1363 11.1378 87.0303 10.7847 87.9949 11.1429C89.2374 11.4556 90.1717 10.7292 91.1666 10.1945C92.9478 9.86835 93.7626 10.8452 93.6111 13.1252C93.2828 21.0195 93.6263 28.9238 93.4394 36.8231C93.3434 40.8686 93.7424 44.9091 93.1263 48.9848C92.8737 50.6494 92.5202 50.9571 91.1566 50.6645C90.6717 50.5586 90.4747 51.058 90.0505 51.0126C75.7575 51.0075 61.4696 51.0126 47.1817 51.0126C43.9392 51.0126 42.6968 52.2888 42.6918 55.5928C42.6918 58.125 42.7726 60.6572 42.6615 63.1844C42.5857 64.8843 42.9089 66.3975 43.9039 67.7645C44.8382 68.7784 46.0706 68.7583 47.3079 68.7583C61.0302 68.7583 74.7525 68.7482 88.4798 68.7784C89.9091 68.7784 91.2222 68.5161 92.4848 67.8957C93.6768 68.8591 93.4293 70.2715 93.4343 71.5023C93.4899 82.0801 93.4798 92.6579 93.4545 103.236C93.4545 104.85 92.9495 106.454 93.3737 108.078C92.7828 110.288 91.4293 111.7 89.1464 112.149C88.2575 112.729 87.2525 112.568 86.2828 112.568C78.1111 112.573 69.9393 112.588 61.7676 112.568C60.2524 112.336 58.7625 111.998 57.4241 111.196C56.8433 109.687 55.5706 109.546 54.2272 109.647C50.5302 109.929 46.7776 109.511 43.1413 110.515C42.6463 110.651 42.1766 110.515 41.7069 110.399C40.5251 110.151 39.3332 109.98 38.1312 109.844C37.2221 109.773 36.6968 109.223 36.3736 108.431C36.2524 108.134 36.217 107.639 36.015 107.569C33.313 106.59 33.717 103.927 32.8887 101.934C32.7523 101.611 32.6412 101.284 32.6008 100.936C32.5756 100.703 32.5907 100.466 32.6311 100.234C32.9998 99.1549 33.6564 98.1965 34.015 97.1019C34.2372 96.6832 34.4039 96.2444 34.5655 95.8055C35.0958 93.7323 34.7776 91.6339 34.8029 89.5456C34.5756 88.1837 34.4089 86.8318 35.5655 85.7473C36.52 84.3046 35.8433 82.6098 36.2827 81.0864C37.1109 75.7798 37.1716 70.4834 36.1513 65.197C36.1716 60.4756 36.5958 55.7391 35.7827 51.0429C35.5251 50.5737 36.2675 49.8776 35.4342 49.5346C34.5806 49.5851 34.0857 48.5813 33.1917 48.8183C32.1917 49.5245 31.2321 50.3468 29.8635 49.9684C29.4847 49.8827 29.1715 49.696 28.919 49.3984C28.5503 48.8234 28.4948 48.213 28.6867 47.5724C29.9594 46.2458 31.0958 44.8485 31.8382 43.1083C32.2119 42.2356 32.3483 41.4386 32.222 40.5458C32.2624 40.0514 32.4998 39.663 32.8938 39.3705C33.313 39.1283 33.7625 39.1283 34.2221 39.199C35.0503 39.4411 35.6109 38.5735 36.4039 38.6592C38.2625 39.7791 36.3332 41.1158 36.621 42.3264C36.5049 43.1032 35.6564 43.0881 35.3382 43.4664C36.1311 43.2394 36.621 42.5383 37.0402 41.7614C37.2069 41.6 37.3938 41.479 37.5958 41.3781C39.3887 40.7829 40.9493 39.7185 42.5958 38.8358C43.7928 38.2506 44.4392 36.9492 45.7019 36.4549C46.818 36.2481 48.1716 36.5608 48.6817 35.0576C49.1665 34.3111 49.4999 33.4082 50.5655 33.2871C51.0302 33.2417 51.4595 33.615 51.9443 33.4132C52.5251 33.045 52.4847 32.3993 52.6413 31.8495C52.9494 31.1584 53.111 30.3665 53.8585 29.9579C54.5706 29.7662 55.2474 29.4989 55.8484 29.055C56.5857 28.5909 57.3787 28.258 58.2171 28.036C58.606 27.9402 58.9797 27.7637 59.3938 27.7788C59.6413 27.7889 59.7171 27.7435 59.611 27.7082C59.4544 27.6628 59.3383 27.5669 59.2676 27.4005C58.9443 26.2151 58.8332 25.0095 58.8888 23.7837C58.909 23.2188 58.7777 22.6488 58.9292 22.0889C59.0352 21.5391 59.3837 21.0699 59.4847 20.5151C59.5504 20.3032 59.6464 20.1065 59.7524 19.9199C60.1817 19.2389 60.0049 18.8454 59.1969 18.7546C58.6413 18.6285 58.2524 18.9968 57.813 19.2137C57.2524 19.4608 56.5958 19.5214 56.1767 20.056C55.2777 20.7622 54.116 21.2162 53.7979 22.4975C53.3332 23.133 52.6968 23.3146 51.9494 23.2087C51.717 23.1532 51.5049 23.0523 51.308 22.9212C49.0251 20.5151 49.4443 18.795 52.409 17.6348C54.4241 16.8429 56.6059 16.4545 58.3736 14.9967C59.5252 14.0483 60.6767 14.921 61.7322 15.5515C62.4545 16.8479 63.6565 17.2716 65.0454 17.3422C65.7373 17.4179 66.3535 17.2313 66.8939 16.7975C69.6918 15.8491 72.8232 15.8895 75.2979 13.9727C75.4545 13.8163 75.606 13.6549 75.7525 13.4834L75.8585 13.4582C76.9595 13.4077 77.8636 14.0685 78.8888 14.2854C80.1313 14.6688 80.7929 13.4834 81.7929 13.211C82.5202 12.9134 82.7626 12.1618 83.2525 11.6422L83.2373 11.6271Z" fill="#707070"/>
<path d="M61.6213 15.95C60.2172 15.8037 59.0859 15.6524 57.6061 16.7016C56.2879 17.6348 54.4697 18.6335 52.394 18.5528C50.6818 18.4872 50.1465 20.1115 51.1212 21.6651C51.3738 22.0687 51.5808 22.4924 51.8031 22.911C51.7677 23.9249 50.798 24.2074 50.2829 24.843C49.601 25.1658 49.0859 25.7056 48.5707 26.2402C47.601 26.6993 47.0606 27.4811 46.8384 28.5051C46.0707 29.2264 45.9041 30.3967 44.995 31.0121C43.2879 31.3198 42.8434 33.3728 40.8636 33.6704C39.0808 33.9378 38.4242 33.6603 38.1919 32.021C38.1061 31.7385 37.9747 31.4711 37.6515 31.4308C37.3535 31.3904 37.303 31.6023 37.3687 31.8595C38.0707 33.393 37.4394 34.5481 36.2879 35.4763C35.3232 36.2581 34.2929 36.3842 33.7727 35.0021C33.0909 33.1912 31.7778 32.6969 30.0202 32.8684C29 32.369 29.0454 31.2643 28.6212 30.427C26.7828 25.9578 22.5404 24.5908 19.202 27.4004C18.5403 28.1117 18.2828 29.1457 17.4141 29.6956C16.8232 30.1294 16.409 29.9024 16.0353 29.2617C16.4444 30.3513 16.9898 30.1243 17.5959 29.5694C18.6868 29.1306 19.5353 29.5745 20.3232 30.2857C20.7676 30.8002 20.9999 31.3955 20.9949 32.0764C20.3686 33.6956 20.8282 35.6427 19.5151 37.0652C16.1565 39.7639 15.1817 42.4878 16.6464 46.4172C17.5302 48.7931 17.9191 51.29 18.8333 53.6507C19.7525 56.0316 19.5908 58.4579 18.4797 60.7933C17.6514 62.5286 17.4848 64.3193 17.6009 66.2613C17.7424 68.6725 17.7878 71.1795 16.2121 73.3081C14.6868 74.9223 13.9444 77.2174 11.8585 78.3574C11.505 78.428 11.1464 78.4331 10.7878 78.4129C9.60092 78.3776 8.65648 77.5503 7.51001 77.3788C6.38879 76.7029 5.32313 77.1417 4.28778 77.5856C3.63626 77.8631 3.04535 78.4583 2.34838 77.6966C1.6211 75.5478 3.44434 75.3914 4.65141 74.7508C4.44266 74.206 3.76757 74.0345 2.62616 74.2363C2.42414 74.0648 1.96454 74.3372 1.94434 73.8428C2.05545 52.092 1.95444 30.3362 2.00494 8.58538C2.00494 7.70768 1.76252 6.78963 2.24737 5.95228C3.21202 3.96485 4.4999 2.32547 6.77263 1.74538C7.60092 1.21573 8.52516 1.47804 9.3989 1.47804C32.5808 1.4629 55.7677 1.4629 78.9445 1.4629C79.6819 1.49317 80.687 1.58396 80.6769 2.37087C80.6668 3.53104 79.4294 3.33432 78.6264 3.55627C77.5001 4.08591 76.6415 4.94848 75.7981 5.83122C73.394 7.18812 71.389 9.12511 69.0607 10.5627C67.2829 11.6624 66.1667 13.3522 64.6213 14.6334C63.8839 15.2488 63.3536 16.1417 62.2576 16.2072C62.0203 16.1871 61.8081 16.0963 61.6263 15.9449L61.6213 15.95Z" fill="#707070"/>
<path d="M4.79283 108.618C4.69182 108.487 4.63121 108.34 4.60596 108.179C6.67162 106.207 7.56051 106.262 9.20698 108.456C9.31304 108.608 9.41405 108.779 9.63627 108.804C9.60092 108.678 9.40395 108.709 9.39385 108.542C9.59587 105.687 11.7979 106.726 13.3434 106.489C14.2373 105.763 14.7322 104.85 14.7423 103.69C14.7626 103.125 14.4848 102.605 14.4797 102.045C14.3888 101.727 14.5706 102.111 14.4696 101.798C13.8467 99.9282 13.8922 97.924 14.606 95.7852C15.2777 93.7827 15.8535 93.6666 17.707 95.1497C18.111 95.8962 18.8585 96.33 19.505 95.876C20.2272 95.3716 19.1313 95.0235 19.0403 94.5292C17.8232 91.7498 19.3282 89.6363 20.9898 87.5127C19.7474 87.3008 19.01 88.1533 18.0656 88.239C17.2474 88.355 16.3636 88.8343 15.7626 87.8103C15.5454 86.7207 16.1969 85.9237 16.6817 85.0662C17.803 82.8972 19.7626 81.8177 21.9393 81.0106C23.404 80.6878 23.8383 79.1342 25 78.4481C25.7777 77.1467 27.106 75.9361 25.6818 74.2766C25.4343 74.0798 25.1515 73.9638 24.8585 74.1051C24.7373 74.1656 24.8282 74.216 25.0505 74.1807C25.3939 74.1252 25.5808 74.3976 25.7727 74.6397C26.409 77.7218 25.5555 78.771 22.601 78.5289C21.8737 78.4683 21.1464 78.433 20.4292 78.5793C19.1262 78.8466 18.4141 78.317 18.2474 77.0156C18.1312 76.0622 18.6616 75.0937 18.106 74.1454C17.0252 72.2942 18.1919 71.6687 19.7272 71.2702C20.606 71.0432 21.4898 70.9625 22.3939 71.1088C23.8232 71.4013 25.2474 71.7191 26.7171 71.6485C27.303 71.5375 28.0353 72.4304 28.4899 71.3812C28.5656 71.1794 28.6616 70.9927 28.7727 70.8061C29.8485 67.598 31.0757 64.41 30.0151 60.9345C29.8434 57.8727 30.0151 54.8108 29.9091 51.7489C29.9091 50.9419 29.4293 50.0944 30.0858 49.3327C31.0555 49.2974 31.9949 49.358 32.2626 47.996C32.3485 47.5521 32.6818 48.1625 32.8889 48.3239C34.1414 48.793 34.0707 49.9078 34.1515 50.9419C34.3283 53.2017 34.0252 55.4363 33.8687 57.6759C34.2272 59.0631 32.9394 60.8891 34.9646 61.8475C35.5707 62.246 35.9747 62.9926 35.6616 63.492C34.1464 65.888 34.7778 68.738 33.8636 71.245C33.0555 72.3749 33.5505 73.7116 33.2778 74.9222C32.3384 79.8858 31.2676 84.814 29.9545 89.6867C29.9747 89.9389 29.9545 90.1912 29.8939 90.4383C29.2575 91.4623 29.1212 92.7385 28.2727 93.6566C27.1313 94.1358 26.8737 95.2253 26.5101 96.2392C26.4798 97.6112 24.3989 97.8382 24.7424 99.4221C25.0151 100.502 24.8131 101.49 24.1767 102.393C23.7575 102.872 23.1212 102.978 22.3434 103.261C23.202 103.503 23.8535 103.402 24.4343 103.669C24.8737 103.851 25.2424 104.123 25.5202 104.507C26.0925 106.383 27.2794 106.79 29.0808 105.727C29.3586 105.561 29.6666 105.465 29.9899 105.45C30.6363 105.516 31.2828 106.161 31.9242 105.435C32.8434 104.244 32.3283 102.519 33.4343 101.405C34.606 102.091 34.3384 103.498 34.5454 104.441C34.8283 105.732 34.4141 106.691 36.2626 105.702C37.0909 105.258 36.9596 106.272 37.0404 106.767C37.1818 107.589 36.702 108.613 37.8182 109.112C38.5353 109.395 38.4747 109.949 38.3283 110.54C37.9596 111.221 37.2475 111.392 36.6212 111.685C35.0454 111.947 33.5505 111.089 31.9747 111.342C30.5404 111.518 28.9091 110.802 27.7474 112.265C27.5404 112.421 27.3131 112.507 27.0606 112.537C24.4242 112.507 21.7828 112.774 19.1616 112.386C18.8787 112.421 18.7626 111.145 18.3232 112.285C16.904 112.709 15.4949 112.774 14.0908 112.25C13.7929 111.145 13.0302 111.735 12.409 111.801C11.2322 111.659 10.0959 112.623 8.90395 111.922" fill="#707070"/>
<path d="M9.15156 109.082C7.95458 107.195 6.25256 107.821 4.60609 108.174C4.10609 107.109 3.06063 106.696 2.15154 106.111C1.92426 102.575 1.7576 99.0387 2.24244 95.5077C3.80306 94.8873 5.36367 94.2719 6.91923 93.6464C6.92933 93.6464 6.91418 93.5102 6.87882 93.4547C6.83842 93.3891 6.76266 93.3488 6.70205 93.2983C6.06569 92.8494 6.14145 92.1734 6.12629 91.5278C6.25761 90.9225 6.24751 90.3323 5.93437 89.7724C5.76771 89.2528 5.26266 88.9502 5.08589 88.4306C5.01013 88.1986 4.90407 87.8253 5.03538 87.7496C6.65155 86.7811 7.75256 85.1922 9.35358 84.2136C10.3889 84.7382 11.6314 84.375 12.6566 84.9652C12.8233 85.1418 12.9394 85.3486 13.0253 85.5756C13.2728 86.3322 12.798 86.9779 12.697 87.679C12.3182 88.4205 12.3233 89.2629 12.0859 90.0448C11.5809 90.9225 10.7071 91.6186 10.7576 92.7687C10.3334 95.3513 9.64651 97.8734 8.89903 100.375C8.00509 103.367 8.45963 104.108 11.6415 104.461C12.1263 104.517 12.6263 104.486 13.0809 104.724C13.4293 104.93 13.6869 105.218 13.8536 105.586C14.0102 106.146 13.9293 106.65 13.5253 107.089C13.4142 107.584 13.2425 108.174 12.6213 107.7C11.1768 106.61 10.3788 107.508 9.5859 108.557C9.6263 108.89 9.29297 108.905 9.14145 109.072L9.15156 109.082Z" fill="#707070"/>
<path d="M93.3793 108.068C92.7278 107.195 92.9955 106.181 92.9904 105.223C92.9702 93.8937 92.9803 82.5593 92.9803 71.2299C92.9803 70.0899 93.0763 68.9398 92.4854 67.8856C92.748 67.5779 93.0712 66.9726 93.2581 67.0129C94.0763 67.1895 93.6621 67.931 93.6672 68.4102C93.7025 77.5554 93.7581 86.7057 93.6975 95.8509C93.6722 99.9216 94.0712 104.007 93.3793 108.063V108.068Z" fill="#707070"/>
<path d="M2.26277 84.6223C0.94964 82.8871 2.24762 81.8076 3.25268 80.6525C3.33854 80.5818 3.42439 80.5062 3.5052 80.4305C4.26783 80.2086 5.03046 80.032 5.82844 80.2187C7.28299 81.1771 9.20724 80.4204 10.6264 81.51C10.8891 81.9942 10.7325 82.423 10.4547 82.8417C10.1517 83.2149 9.73754 83.447 9.3436 83.7093C7.8537 85.051 6.84865 86.9527 4.78298 87.6539C4.36884 87.7951 4.03551 87.901 3.64662 87.7094C3.38904 87.4521 3.29308 87.1394 3.35369 86.7812C3.74763 85.6765 2.91429 85.1923 2.25772 84.6223H2.26277Z" fill="#707070"/>
<path d="M62.0605 15.9247C64.702 13.5589 67.1666 10.946 70.0454 8.91317C71.7727 7.68742 73.4848 6.10857 75.798 5.83618C75.0101 7.82362 72.8687 8.24229 71.4444 9.48822C69.5151 11.178 67.2575 12.4744 65.6313 14.5627C65.0303 15.3345 64.4798 15.9095 65.0606 16.878C63.2222 17.559 62.8181 17.4329 62.0656 15.9297L62.0605 15.9247Z" fill="#DADADA"/>
<path d="M75.7224 13.8768C74.9698 16.3484 72.5506 16.1214 70.7678 16.7419C69.6062 17.1454 68.187 16.7923 66.8789 16.7822C67.9143 15.3749 69.783 15.6725 71.1062 14.7696C71.5052 14.4972 71.9951 14.2702 72.3537 13.8768C73.4749 13.1554 74.6012 13.7103 75.7224 13.8768Z" fill="#707070"/>
<path d="M7.64664 76.7534C8.75776 76.6878 9.59109 77.4293 10.5709 77.7471C11.2073 78.6197 11.3234 79.3965 10.1871 79.9615C7.70725 78.7862 5.51532 80.3902 3.18198 80.6929L3.24764 80.6475C2.85875 80.4205 2.12642 80.5668 2.26279 79.7597C3.19208 77.2124 5.52542 77.172 7.64664 76.7534Z" fill="#707070"/>
<path d="M3.67673 86.4785C3.68683 86.8417 3.70198 87.2049 3.71208 87.563C4.21208 88.1482 5.05047 88.0069 5.61108 88.4609C6.18179 88.5315 6.60603 88.7686 6.69189 89.3991C5.41411 90.8721 3.84845 90.3475 2.31309 90.0297C1.29793 88.5517 2.35349 87.5731 3.15148 86.534C3.30804 86.3474 3.48481 86.3373 3.67673 86.4785Z" fill="#707070"/>
<path d="M91.091 8.89819C91.4143 9.61448 89.985 10.2904 91.0456 11.0218C90.2779 12.0408 89.2678 12.293 88.0759 11.9752C87.6415 11.4556 87.7021 10.8503 87.7678 10.245C87.7223 9.83642 87.7779 9.44297 88.0052 9.08988C89.0456 9.17563 90.1011 9.55899 91.0961 8.89819H91.091Z" fill="#707070"/>
<path d="M82.2021 14.1593C80.894 13.5994 80.2374 16.4444 78.7222 14.8252C78.1667 14.2199 77.6212 13.6095 78.793 13.0748L80.6516 12.9891C81.6061 12.7923 82.3788 12.8428 82.197 14.1543L82.2021 14.1593Z" fill="#707070"/>
<path d="M2.24751 95.5129C2.21721 99.049 2.18691 102.58 2.1566 106.116C1.51519 102.575 1.35862 99.0389 2.24751 95.5129Z" fill="#DADADA"/>
<path d="M79.5053 1.74011C80.0709 1.68462 80.6366 1.62409 81.1972 1.5686C82.4649 3.28869 80.5558 3.79312 79.8537 4.50436C79.177 5.18533 79.2123 3.69223 78.6214 3.56108C78.2224 2.61781 81.182 3.30382 79.5053 1.74011Z" fill="#DADADA"/>
<path d="M78.7983 13.0745C77.9094 13.6243 79.4498 14.27 78.7276 14.8249C77.566 14.7744 76.5104 14.5172 75.8438 13.4377C76.7074 12.3229 77.8286 13.3166 78.7983 13.0745Z" fill="#707070"/>
<path d="M75.7222 13.8767C74.601 14.139 73.4747 14.6383 72.3535 13.8767C73.1161 10.724 74.6313 13.7859 75.7374 13.4681C75.7727 13.6043 75.7677 13.7405 75.7222 13.8767Z" fill="#DADADA"/>
<path d="M62.0605 15.9246C62.909 16.7166 64.0302 16.6359 65.0554 16.873C65.0908 17.0243 65.0858 17.1756 65.0352 17.3219C62.9191 18.361 61.9746 17.9777 61.6211 15.9499C61.7676 15.9196 61.914 15.9146 62.0605 15.9246Z" fill="#707070"/>
<path d="M88.4498 9.88665C88.6114 10.6332 88.4296 11.3192 88.076 11.9699C87.1316 11.7934 86.1871 11.6168 85.2427 11.4352C85.5558 11.1679 85.8689 10.9005 86.1821 10.6332C86.6871 9.61931 87.4649 9.43267 88.4498 9.88161V9.88665Z" fill="#707070"/>
<path d="M82.2022 14.1592C81.9093 13.4782 81.2578 13.2663 80.6567 12.9939C80.9497 11.4756 82.384 12.1011 83.2325 11.627C83.5507 12.7417 83.1618 13.569 82.1971 14.1592H82.2022Z" fill="#707070"/>
<path d="M88.4498 9.88673C87.6922 10.1389 86.9346 10.3861 86.1821 10.6383C85.7326 9.8716 85.7882 9.02921 86.4094 8.51469C87.0003 8.02036 87.374 9.12 88.0053 9.0847C88.1518 9.35204 88.3033 9.61939 88.4498 9.88673Z" fill="#DADADA"/>
<path d="M4.79297 108.618C5.69701 108.789 7.28287 107.866 7.33843 109.208L4.79297 108.618Z" fill="#DADADA"/>
<path d="M29.2324 89.9641C29.7173 86.1103 30.5355 82.3019 31.6567 78.6045C32.0557 77.298 31.7577 75.8352 32.6314 74.675C32.9142 74.564 33.2173 74.5539 33.4951 74.5035C33.8284 74.1353 33.5658 73.7872 33.4648 73.4392C33.288 72.5816 33.485 71.6939 33.2324 70.8464C33.2425 70.7657 33.2375 70.685 33.2577 70.6043C33.8738 68.2032 32.2173 65.2423 35.0759 63.3557C35.3486 63.1741 35.1769 62.4276 34.7274 62.0795C32.6516 61.5902 34.0052 60.1224 33.8688 59.0782C33.9294 58.9521 34.0102 58.8411 34.1163 58.7503C34.2829 58.604 34.293 58.5385 34.1314 58.5687C33.889 58.6747 33.6617 58.7554 33.4143 58.6948C32.7122 55.2647 33.2021 51.7741 32.8991 48.3239C33.0456 47.88 33.0809 47.1485 33.3587 47.0426C34.1213 46.745 34.091 47.6177 34.384 48.0212C34.7274 48.4954 34.7274 49.3176 35.6163 49.2419C36.4951 48.9998 36.1415 50.0439 36.6264 50.2104C37.7425 55.0983 37.2324 60.0416 37.091 64.9699C37.4749 70.5539 37.4092 76.1378 37.1213 81.7218C36.8941 83.341 37.7173 85.1721 36.1617 86.529C35.3941 86.2213 34.7829 86.0952 34.7425 87.2806C34.7173 88.0624 34.8385 88.8544 34.6264 89.6312C34.3688 90.181 33.99 90.5947 33.3688 90.7308C32.0304 90.2819 30.5506 90.5593 29.2375 89.9641H29.2324Z" fill="#DADADA"/>
<path d="M29.1871 71.5629L29.2376 71.7142C28.8689 72.3599 28.4346 72.0824 27.9952 71.8151C27.4396 70.1808 26.5659 68.6423 26.4851 67.0735C26.0204 68.2639 27.8184 69.3535 27.0609 70.7962C26.1366 71.6486 25.4901 70.9979 24.874 70.3674C24.3437 69.8176 24.076 68.9903 23.172 68.8642C22.48 68.4909 21.7275 68.8238 21.0103 68.6927C20.2326 68.39 19.8891 67.81 19.9043 66.9928C20.2679 65.6409 20.9396 64.4808 22.0255 63.5778C23.3841 63.3155 23.98 62.2915 24.4699 61.1415C25.7124 58.2158 26.0861 55.0884 26.8588 52.0416C25.98 51.7592 25.7326 52.5461 25.1821 52.5915C24.9497 52.6469 24.7174 52.652 24.48 52.6217C23.8639 52.4654 23.4901 51.9862 23.0659 51.5675C22.9245 51.3657 22.8235 51.1488 22.7528 50.9168C22.6467 50.4325 22.6821 49.9634 22.8942 49.5094C23.3235 48.7377 24.1669 48.5712 24.8336 48.1374C25.5406 47.6784 26.5962 47.1941 26.2073 46.1348C25.8942 45.2823 25.8639 44.3744 24.3689 43.9608C20.3437 42.8409 19.0709 40.8888 19.2275 37.4839C20.273 36.5911 21.5659 37.2822 22.6972 36.9392C24.0608 37.2519 25.3386 37.3377 25.975 35.6983C27.0659 35.2846 27.9043 35.6781 28.6013 36.5104C28.9447 36.9997 28.9396 37.6353 29.2679 38.1296C29.4599 38.9014 30.1013 39.4159 30.4043 40.1221C30.7023 40.8434 31.1518 41.5092 31.1821 42.3264C30.9346 43.986 30.8942 45.7313 29.4295 46.9318C29.3891 47.7641 29.3487 48.5914 29.3134 49.4237C30.0356 51.0883 28.9396 52.9446 29.8437 54.589C29.9295 57.8324 28.8689 61.1112 29.6922 64.284C30.3639 66.8667 29.4245 69.1467 29.1821 71.5578L29.1871 71.5629Z" fill="#707070"/>
<path d="M93.4097 12.9939C93.8542 15.7481 93.5815 18.5173 93.5916 21.2766C93.632 30.8102 93.6219 40.3489 93.5663 49.8825C93.5663 50.6593 94.1572 51.7034 92.9956 52.2432C92.4552 51.078 91.2683 50.8762 90.2532 50.4121C90.2633 50.1448 89.1017 50.2911 89.9501 49.8724C90.7027 49.4991 91.6976 50.6795 92.7229 49.827C91.7683 48.7677 90.3845 49.7665 89.5107 48.9291C89.5713 48.7828 89.632 48.5256 89.6774 48.5256C92.6825 48.7223 93.0815 47.1081 93.036 44.4801C92.8744 34.9364 92.9653 25.3876 92.9804 15.8389C92.9804 14.8804 92.7532 13.8666 93.3996 12.9939H93.4097Z" fill="#707070"/>
<path d="M61.0658 112.017C54.2022 112.017 47.3335 112.017 40.4698 112.017C39.2224 111.574 37.9092 112.017 36.6466 111.75C36.4143 111.553 36.389 111.331 36.5658 111.089C36.9547 110.635 37.49 110.615 38.0304 110.6C39.2931 109.546 40.6466 110.403 41.9648 110.408C43.3587 110.701 44.6315 110.106 45.9597 109.889C47.6163 109.894 49.2779 109.768 50.9295 110.055C52.9295 110.504 54.9446 110.358 56.9598 110.207C57.2376 110.262 57.4749 110.393 57.6668 110.595C58.6416 111.452 60.2224 110.862 61.0709 112.022L61.0658 112.017Z" fill="#707070"/>
<path d="M57.6617 110.59C57.4951 110.61 57.3233 110.63 57.1567 110.646C55.1668 111.074 53.1516 110.741 51.1516 110.832C49.4496 110.171 47.7274 110.131 45.9799 110.641C44.7071 111.367 43.3486 111.089 42.0051 110.984C41.6364 110.782 40.9445 110.948 40.9395 110.358C40.9395 109.773 41.6314 109.919 41.99 109.692C45.9041 108.895 49.894 109.011 53.8486 108.693C55.2274 108.582 56.4193 108.961 57.6011 109.511C58.2072 109.793 58.2072 110.202 57.6516 110.585L57.6617 110.59Z" fill="#DADADA"/>
<path d="M45.8182 37.0096C44.8889 37.7965 44.5303 39.1786 43.1768 39.5166C41.9394 39.8747 40.6919 40.2732 40.197 38.4875C39.8637 37.4938 40.7172 36.8431 40.9192 36.0007C41.6515 35.1281 42.1919 34.1091 42.9394 33.2415C43.3586 32.8481 43.601 32.2781 44.1566 32.0158C45.0303 31.7636 45.8132 31.0473 46.8283 31.4609C47.0051 31.6122 47.1212 31.8039 47.1818 32.0259C47.2526 33.0145 46.2425 33.7813 46.5909 34.8355C46.5859 35.4105 46.6465 35.9957 46.3233 36.5203C46.1717 36.7019 46.0051 36.8683 45.8182 37.0096Z" fill="#DADADA"/>
<path d="M53.3839 32.1722C53.3081 32.9692 53.0809 33.6905 52.3334 34.1294C51.5253 34.6943 51.5253 32.9187 50.6869 33.5644C50.2071 34.2202 49.7223 34.8759 49.2425 35.5266C48.5758 35.6023 48.4496 35.1281 48.3384 34.6388C48.2879 34.1395 48.5051 33.7157 48.7273 33.2971C49.1263 32.4698 50.0758 31.8544 49.7273 30.7295C49.6617 30.5126 49.6213 30.2957 49.591 30.0738C49.5455 29.7207 49.591 29.3726 49.6162 29.0145C49.6415 28.7623 49.7071 28.5202 49.8132 28.2881C49.9395 28.051 50.1112 27.8543 50.3233 27.6929C51.0708 27.2591 51.8283 27.022 52.6516 27.5012C54.3637 28.8228 53.389 30.5732 53.3839 32.1672V32.1722Z" fill="#DADADA"/>
<path d="M58.6822 28.6462C57.8135 28.8379 57.1822 29.7055 56.1872 29.5391C54.9195 29.4684 53.8943 29.0498 53.4852 27.708C53.4498 27.0724 53.7579 26.5629 54.1064 26.0737C55.162 24.8731 56.0054 23.3447 57.9701 23.5011C59.0509 24.3637 57.9903 25.5793 58.4751 26.5377C58.7983 27.2137 59.263 27.8795 58.6822 28.6462Z" fill="#DADADA"/>
<path d="M29.4346 46.9367C29.6568 45.378 29.8992 43.8244 30.6618 42.412C31.2629 42.0236 31.2528 41.2216 31.7629 40.7676C32.0204 40.5204 32.3235 40.3741 32.6922 40.3893C33.4497 43.5116 32.081 46.2658 29.4396 46.9367H29.4346Z" fill="#DADADA"/>
<path d="M60.0203 20.3687C60.0405 20.8883 60.5456 21.539 59.6415 21.8164C57.8536 22.8858 56.6213 24.9994 54.1314 24.7825C53.6667 24.6009 53.2981 24.3133 53.0859 23.8493C53.2122 22.4873 54.3587 21.9577 55.2425 21.2061C55.7425 20.8984 56.2728 20.6613 56.8587 20.5655C57.5304 20.3839 58.0405 19.7987 58.7829 19.7786C59.288 19.7786 59.7375 19.8996 60.0203 20.3687Z" fill="#DADADA"/>
<path d="M36.1113 42.3565C35.5052 41.3022 37.0456 40.2076 36.0557 39.1584C35.7123 38.6641 35.8638 38.1899 36.1264 37.7259C36.7881 36.9137 37.783 36.5304 38.5456 35.8343C39.1062 35.3248 39.7931 35.0726 40.3436 35.9301C40.4951 37.973 38.581 39.1837 38.2729 41.0399C38.086 41.3426 37.8335 41.5898 37.5709 41.8268V41.9731C37.086 42.0992 36.7426 42.7752 36.1113 42.3514V42.3565Z" fill="#DADADA"/>
<path d="M33.4345 101.399C34.0153 102.892 33.0405 104.315 33.2274 105.813C33.3031 106.444 32.6011 106.312 32.1415 106.257C31.2577 106.116 30.692 105.601 30.3839 104.774C30.2577 103.71 30.5759 102.761 31.1415 101.879C31.7425 101.475 32.0658 100.552 33.0456 100.839C33.1769 101.026 33.3082 101.213 33.4345 101.399Z" fill="#DADADA"/>
<path d="M37.5708 41.832C37.5708 41.5646 37.5607 41.2922 37.5557 41.0249C38.4799 39.9454 38.49 38.0034 40.4698 37.9126C41.0001 39.0778 41.8436 39.7184 43.1819 39.5217C41.2324 40.0968 39.889 42.1498 37.5708 41.837V41.832Z" fill="#DADADA"/>
<path d="M37.1114 81.7219C37.1013 76.1379 37.0912 70.554 37.0811 64.97C38.0811 70.554 37.874 76.1379 37.1114 81.7219Z" fill="#DADADA"/>
<path d="M54.2274 24.2983C55.8738 24.7422 56.6718 23.4004 57.7122 22.6085C58.2981 22.1646 58.5759 21.0649 59.6415 21.8215C59.6112 22.4874 59.5809 23.1532 59.5506 23.8191C59.0708 24.1116 58.5961 24.2277 58.1213 23.809C56.4142 24.1318 55.5102 25.3777 54.7425 26.77C53.788 26.1092 53.49 25.3122 54.2274 24.3033V24.2983Z" fill="#707070"/>
<path d="M32.687 40.3892C32.5406 40.5708 32.389 40.7524 32.2426 40.934C31.3183 41.2568 30.485 40.9996 29.682 40.5355C29.2981 39.8243 28.9143 39.108 28.5254 38.3967C28.6668 38.205 28.8436 38.0588 29.0557 37.9478C30.1012 37.6956 31.1567 37.8519 32.2123 37.9024C32.4547 37.968 32.6719 38.0789 32.8688 38.2303C33.2173 38.6136 33.485 39.0172 33.1668 39.5519C33.0052 39.8293 32.8486 40.1118 32.687 40.3892Z" fill="#DADADA"/>
<path d="M34.0154 89.5657C34.1063 88.0726 34.1972 86.5745 34.3285 84.4761C34.9649 85.5909 35.4144 86.2365 36.1568 86.5291C34.8588 87.0839 35.4346 88.0676 35.5962 88.9604C34.6416 89.7826 35.7174 91.3968 34.379 92.0677C33.1214 91.3968 33.8891 90.4333 34.0204 89.5607L34.0154 89.5657Z" fill="#707070"/>
<path d="M57.172 21.322C56.6569 21.4985 56.1417 21.6751 55.6266 21.8516C54.8134 22.013 54.1468 22.8605 53.1973 22.3561C53.3033 20.6864 54.4043 19.8743 55.8084 19.3245C57.1872 19.3547 57.9953 19.7835 57.172 21.3169V21.322Z" fill="#DADADA"/>
<path d="M33.0404 100.839C32.5252 101.263 32.5201 102.176 31.6666 102.272C30.7929 101.359 31.2171 100.36 31.4797 99.3716C31.6919 98.7714 31.9242 98.1761 32.0353 97.5456C32.5454 96.1282 31.6464 94.2013 33.5656 93.2933C34.0404 93.2378 34.3484 93.4799 34.5858 93.8532C34.9191 94.6552 34.8636 95.4573 34.606 96.2644C34.0555 97.596 33.7777 99.0286 33.1262 100.325C33.0959 100.496 33.0707 100.668 33.0404 100.834V100.839Z" fill="#707070"/>
<path d="M58.1213 23.8037C58.6011 23.5666 59.0758 23.5011 59.5506 23.8138C59.3788 25.095 60.3283 26.3511 59.6415 27.6424C59.0102 27.9804 58.6263 27.4457 58.6112 27.0774C58.5354 25.4128 57.9394 27.3145 57.7172 26.9211C56.7071 25.7306 58.0708 24.8529 58.1263 23.7987L58.1213 23.8037Z" fill="#DADADA" fill-opacity="0.678431"/>
<path d="M33.1667 39.5519C32.9799 39.1787 32.7879 38.8054 32.6011 38.4271C32.793 36.7019 34.1263 36.4295 35.4748 36.1672C36.0152 36.2631 36.3486 36.5657 36.4243 37.1256C36.4142 37.3678 36.3435 37.5948 36.2071 37.7965C35.5253 38.5532 35.3486 39.7991 34.0809 39.9908C33.7778 39.8445 33.4748 39.6982 33.1718 39.5519H33.1667Z" fill="#DADADA"/>
<path d="M34.5958 91.9161C34.7372 90.8669 34.1766 89.5806 35.5907 88.9602C35.5503 91.4319 36.222 93.949 35.1109 96.35C34.116 95.4168 34.9846 94.0045 34.2523 93.0057C34.1917 92.587 34.3028 92.2238 34.5958 91.9161Z" fill="#DADADA"/>
<path d="M53.7727 27.6222C54.5757 28.2578 55.3788 28.8984 56.1868 29.534C55.606 30.0233 55.4747 31.9048 54.1767 30.1796C53.4798 29.5037 52.8687 28.7874 53.1161 27.708C53.3182 27.5516 53.5404 27.5213 53.7727 27.6222Z" fill="#DADADA"/>
<path d="M60.0205 20.3687L58.768 20.172C58.0862 19.9702 57.5559 19.6373 57.5862 18.8151C57.6115 17.8315 58.5054 17.9021 59.0811 17.5894C60.4498 18.1341 61.0357 18.9715 60.0963 20.3637H60.0205V20.3687Z" fill="#DADADA"/>
<path d="M29.1266 54.8461C28.6518 53.0201 28.571 51.2092 29.3134 49.4236C29.571 49.3933 29.8286 49.363 30.0862 49.3328C30.2276 49.9431 30.364 50.5585 30.5054 51.1689C30.3943 51.3656 30.2781 51.5623 30.1569 51.754C29.5912 52.7124 30.4751 54.15 29.1266 54.8461Z" fill="#DADADA"/>
<path d="M57.5859 18.8151C58.1667 19.1077 58.6364 19.4961 58.7677 20.172C58.2728 20.6058 57.9899 21.3372 57.1717 21.317C57.298 20.2577 56.596 19.7634 55.8081 19.3246C56.2222 18.5225 56.899 18.6587 57.5859 18.8151Z" fill="#DADADA"/>
<path d="M48.8136 34.553C48.9601 34.8808 49.1015 35.2037 49.248 35.5315C48.6571 37.297 47.0914 36.8178 45.8237 37.0145C45.854 36.8329 45.8843 36.6564 45.9146 36.4748C46.2379 36.1368 46.0763 35.6122 46.3894 35.2743C47.147 34.8657 47.8389 34.2301 48.8187 34.553H48.8136Z" fill="#D5DADA" fill-opacity="0.854902"/>
<path d="M34.7275 92.8545C35.3487 93.9642 34.98 95.1849 35.1113 96.3502C34.9548 96.7133 34.7982 97.0765 34.6467 97.4397C33.7729 97.4296 33.7931 96.9555 34.076 96.3451C34.1416 95.5179 34.2073 94.6906 34.2729 93.8633C34.3184 93.48 34.1366 92.9907 34.7275 92.8545Z" fill="#DADADA"/>
<path d="M36.1112 42.3566C36.6314 42.3566 36.99 41.726 37.5758 41.9783C36.7779 44.0262 34.5708 43.7034 33.1011 44.6416C33.7374 43.3806 35.3991 43.4966 36.1112 42.3566Z" fill="#DADADA"/>
<path d="M58.0459 37.4132C58.5914 36.1421 59.1419 34.8659 59.6873 33.5947C59.8489 35.1988 59.4802 36.5708 58.0459 37.4132Z" fill="#DADADA"/>
<path d="M34.0762 39.9859C34.6873 39.1384 34.9954 38.0237 36.1216 37.6201C36.3237 37.6806 36.4651 37.8068 36.5509 38.0035C36.3843 38.3868 36.2176 38.7752 36.0509 39.1586C35.4802 39.6429 35.2378 40.909 34.0762 39.9859Z" fill="#707070"/>
<path d="M49.8842 24.2226C50.167 23.2642 50.9196 22.9969 51.7984 22.9111C51.9196 22.8153 52.0458 22.7296 52.1771 22.6438C52.6923 23.0776 52.7681 23.6274 52.6165 24.2428C52.1468 25.176 51.3893 25.4635 50.3994 25.2214C50.0054 25.0045 49.6216 24.7826 49.8842 24.2277V24.2226Z" fill="#707070"/>
<path d="M52.2778 24.1367C52.2424 23.6373 52.2121 23.1379 52.1768 22.6385C52.4343 22.2552 52.8384 22.3813 53.197 22.356C54.005 22.1745 54.7273 21.5944 55.6263 21.8516C55.1768 22.8958 53.5252 22.462 53.2778 23.7533C53.2424 24.0913 53.0556 24.3082 52.7424 24.4292C52.5202 24.4393 52.3636 24.3384 52.2778 24.1367Z" fill="#707070"/>
<path d="M57.7173 26.9262C57.9294 26.4268 58.1415 25.9224 58.3991 25.3271C58.8233 26.1292 58.7425 27.1733 59.6466 27.6475C59.7526 28.389 59.3234 28.616 58.687 28.6463C58.3638 28.0712 58.0456 27.5012 57.7223 26.9262H57.7173Z" fill="#DADADA"/>
<path d="M50.6919 33.5644C51.0151 33.1406 51.3333 32.7169 51.6565 32.2932C52.7071 32.6614 51.0959 33.8922 52.3333 34.1293C51.9545 34.4925 51.5707 34.8557 51.1868 35.2239C50.6919 34.6791 51.6666 33.8569 50.6919 33.5593V33.5644Z" fill="#707070"/>
<path d="M53.3032 27.8039C53.591 28.5958 53.884 29.3878 54.1719 30.1797C53.5102 30.6842 54.1466 31.7081 53.384 32.1722C53.1213 30.6741 53.5557 28.9893 52.2021 27.7888C52.5759 27.4357 52.9395 27.4306 53.3032 27.8039Z" fill="#707070"/>
<path d="M36.6216 50.2105C36.2832 49.8877 35.9448 49.5648 35.6115 49.242C35.5963 48.4753 35.4195 47.6833 36.0559 46.6846C36.6771 47.9557 36.662 49.0806 36.6216 50.2105Z" fill="#DADADA" fill-opacity="0.854902"/>
<path d="M55.0811 36.5254C55.8286 37.1811 56.4902 37.9832 57.7074 37.8974C56.1064 39.1181 55.3943 38.0588 54.6821 36.9995C54.7579 36.7927 54.8892 36.6364 55.0862 36.5304L55.0811 36.5254Z" fill="#DADADA" fill-opacity="0.678431"/>
<path d="M60.0962 20.3635C60.1669 19.2891 59.9295 18.3257 59.0811 17.5892C60.3235 17.0142 60.5861 18.018 60.9447 18.7847C61.3437 19.6422 60.9447 20.1416 60.0962 20.3585V20.3635Z" fill="#DADADA"/>
<path d="M34.0758 96.3451C34.2677 96.7083 34.4546 97.0765 34.6465 97.4397C34.3081 98.4889 34.0505 99.5835 33.1313 100.325C33.2021 98.9379 33.5051 97.6112 34.0808 96.3401L34.0758 96.3451Z" fill="#DADADA"/>
<path d="M55.0811 36.5254C54.9448 36.6818 54.8135 36.8381 54.6771 36.9945C53.9044 36.3085 52.8993 36.4901 51.3438 36.3842C53.1013 35.4258 54.1114 35.7133 55.0811 36.5254Z" fill="#DADADA"/>
<path d="M28.1368 71.3055C28.3136 71.9612 28.8035 71.7544 29.2378 71.7141C29.3287 72.39 29.1368 73.0155 28.5105 73.2626C27.7327 73.5653 27.5358 72.7431 27.1418 72.3244C25.5055 71.7544 23.7731 72.4202 22.1317 71.9259C20.5964 71.3963 19.5054 72.7027 17.9448 72.7532C21.4398 73.5502 19.359 75.3409 18.96 76.7785C18.4196 77.5956 18.4448 78.3472 19.5307 78.4935C20.4903 78.6196 20.9549 79.008 21.0105 79.9412C20.864 81.3435 20.0358 81.6815 18.7883 81.3687C17.7075 80.8189 16.4903 81.0358 15.3539 80.7887C14.6923 80.5415 14.2782 80.032 13.9196 79.457C13.3539 77.974 12.6771 76.5515 14.5054 75.3005C15.1923 74.8314 14.5711 73.3736 15.6923 72.9045C16.8792 70.7556 16.7832 68.3798 16.5862 66.0998C16.4044 63.9812 16.561 62.0241 17.657 60.2333C19.0458 57.9584 18.5408 55.7036 17.8135 53.4085C16.9549 50.6997 16.0963 47.9859 15.263 45.2721C14.6367 43.2241 15.1317 41.2014 15.6469 39.2493C16.1014 37.5191 17.7479 37.0046 19.2681 36.48C19.763 36.7524 19.6014 37.2013 19.5762 37.6149C20.1469 39.0122 20.8034 41.6251 21.2731 41.5948C23.1469 41.4587 24.0358 42.2859 24.7681 43.7689C25.3337 43.1182 25.0661 42.4625 25.0913 41.8622C25.1065 41.494 25.3489 41.4637 25.561 41.4738C25.7731 41.4839 26.1721 41.6503 26.1671 41.7109C25.9297 43.5066 26.7277 44.8131 27.6014 46.3465C28.0964 47.2091 26.3287 48.8182 24.7933 49.3176C24.2984 49.479 23.6216 49.0402 23.2933 49.7716C22.7428 50.1348 22.2075 50.0894 21.6822 49.7211C21.4297 49.5496 21.157 49.4185 20.864 49.3277C21.0307 49.5446 21.3236 49.5395 21.5206 49.711C22.5913 50.5232 21.5762 52.1323 22.758 52.899C23.3236 53.4841 23.0004 54.261 23.2125 54.9772C24.2125 54.3164 23.7984 52.8738 24.7782 52.2483C25.1267 51.9154 25.4348 51.527 25.8287 51.2647C26.2125 51.0125 26.5004 49.9986 26.5913 50.3617C26.8186 51.2445 28.6166 50.5988 27.9853 52.2937C26.9196 55.1588 26.2681 58.1803 25.5661 61.1665C25.157 62.9169 24.1368 63.8047 22.4297 64.0518C22.1216 64.2486 21.7933 64.3242 21.4347 64.2284C21.1267 64.0417 21.0004 63.7441 20.9499 63.4163C20.9246 63.2801 20.859 63.0279 20.7832 63.0379C20.4953 63.0783 20.5762 63.3608 20.5408 63.5676C20.3539 64.4856 20.3994 65.3835 20.6065 66.2864C20.6065 66.6194 20.465 66.9069 20.364 67.2146C20.3287 67.8804 20.7176 68.2033 21.2933 68.3748C21.965 68.5664 22.6469 68.6724 23.3388 68.4807C25.4903 67.7392 25.1166 70.5589 26.5812 70.7859C27.1216 70.7052 26.9045 69.7518 27.5055 69.883C28.263 70.0444 27.7731 70.8918 28.1216 71.3256L28.1368 71.3055Z" fill="#DADADA"/>
<path d="M19.5908 37.61C19.1059 37.3326 19.2625 36.8887 19.2827 36.475C19.8736 35.0727 18.7271 33.2366 20.3787 32.0966C20.8837 30.8204 22.2271 30.5178 23.1362 29.7057C23.3484 29.5997 23.5706 29.5341 23.808 29.4988C24.1615 29.4635 24.515 29.4787 24.8635 29.5543C25.0807 29.6149 25.2878 29.7107 25.4797 29.8267C26.0302 30.2454 26.5352 30.8003 27.3433 30.543C27.909 29.9478 28.409 29.0449 29.313 30.1344C29.7676 30.9163 29.5807 31.9503 30.3231 32.6162C31.4999 33.6603 31.7575 34.9063 30.8989 36.2178C30.313 37.1157 29.4948 37.7865 28.3282 36.9643C27.6262 36.2733 26.8181 35.8697 25.7979 36.0513C25.1413 37.2266 23.6463 36.6213 22.8282 37.4486C21.808 38.6289 20.6716 37.5696 19.5958 37.61H19.5908Z" fill="#DADADA"/>
<path d="M28.3232 36.9642C30.7323 36.0663 31.0909 35.2845 30.3182 32.6161C31.0859 32.0662 31.8485 31.5164 32.8031 30.8354C33.1465 32.1217 33.1061 33.6047 34.793 33.7308C34.8586 33.7308 34.9091 33.8569 34.9798 33.8771C36.0303 34.1293 32.9596 35.7485 35.3182 35.2088C36.5859 34.9162 37.6162 33.3677 36.5808 31.6577C37.3839 30.9464 38.197 30.9969 39.0202 31.6173C39.2071 32.2075 38.5606 33.4534 40.0606 33.0246C41.4293 32.6362 43.4344 32.6615 41.8839 30.0939C43.1112 30.0132 43.8788 30.9767 44.8384 30.6337C45.6617 31.4962 45.2273 32.0763 44.4041 32.5707C44.091 32.9238 43.7728 33.2718 43.4596 33.6249C42.7324 33.9679 42.1011 34.4925 41.3536 34.8002C40.8132 35.007 40.2677 35.1836 39.6819 35.1331C38.3283 35.6275 37.1566 36.6666 35.5808 36.49C34.5909 37.1357 33.596 37.7814 32.6061 38.422L32.394 38.4523L32.1818 38.422C31.197 37.9529 30.2071 37.8217 29.197 38.3564C28.9748 38.3665 28.7525 38.3766 28.5303 38.3867C28.2121 37.9478 28.2273 37.4585 28.3232 36.9592V36.9642Z" fill="#707070"/>
<path d="M15.7023 72.8994C15.2124 75.0029 13.672 76.9298 14.6366 79.2753C14.8639 80.3447 15.2578 81.3889 15.1316 82.5137C14.8639 83.7445 15.172 85.2225 13.677 85.9287C13.2629 86.0145 12.8891 85.9287 12.5609 85.6664C12.5407 85.4747 12.5205 85.2881 12.5003 85.0964C11.6417 84.3347 10.8285 83.5327 10.0811 82.6651C10.2427 82.3322 10.4043 81.9992 10.5659 81.6613C10.0356 80.143 11.3134 79.0736 11.5508 77.7469C12.5306 76.4304 14.076 75.5376 14.5255 73.8326C14.6972 73.1768 15.0962 72.9347 15.7073 72.9045L15.7023 72.8994Z" fill="#707070"/>
<path d="M19.8792 30.7092C19.0761 30.336 18.2782 29.9627 17.4751 29.5894L17.4852 29.6096C17.46 28.5352 17.2832 27.4103 18.4701 26.7495C19.657 26.3207 20.7731 25.6852 22.0509 25.5036C24.5812 25.1404 25.3337 25.9172 24.9448 28.5352C24.662 29.1707 24.0408 29.4179 23.5206 29.7811C23.3085 29.8921 23.0964 30.0081 22.8893 30.1241C21.9297 30.5327 20.9953 31.0724 19.8842 30.7092H19.8792Z" fill="#DADADA"/>
<path d="M24.3184 28.5555C24.5457 25.8164 23.7527 25.1657 21.2224 26.1039C20.3184 26.4419 19.4497 26.8202 18.4648 26.7496C22.7729 23.5213 27.8386 25.1052 29.3083 30.1444C28.8841 30.099 28.2629 29.7661 28.475 30.6841C28.6113 31.2793 28.3538 31.582 27.7831 31.6778C27.0255 30.9868 25.7729 31.128 25.182 30.1494L25.0103 30.1595H24.8386C24.1719 29.7862 23.7275 29.3373 24.3234 28.5555H24.3184Z" fill="#DADADA"/>
<path d="M44.3994 32.5758C44.8287 31.9957 44.9146 31.3349 44.8338 30.6388C45.1166 29.6955 45.3136 28.7068 46.2378 28.1217C46.4499 27.9855 46.6772 27.9552 46.9146 28.041C47.9651 28.954 47.4297 30.0486 47.2782 31.1028C47.1873 31.3349 47.0307 31.5114 46.8237 31.6476C46.0661 32.0915 45.3691 32.6817 44.3994 32.5758Z" fill="#707070"/>
<path d="M17.4747 29.5896C17.3636 30.0183 17.5454 30.6489 16.8686 30.7195C16.3838 30.7699 15.9141 30.5984 15.6464 30.1192C15.606 30.0486 15.5605 29.9578 15.5757 29.8922C15.8282 28.8481 14.3737 27.3247 15.3232 27.012C16.9191 26.4924 16.0656 28.5051 16.6717 29.181C16.8636 29.3928 17.207 29.4685 17.4848 29.6047L17.4747 29.5845V29.5896Z" fill="#707070"/>
<path d="M19.8789 30.7094C20.6769 29.8771 21.6264 29.4685 22.7931 29.6854C22.9698 29.8368 23.3133 29.8418 23.2678 30.2C22.8688 31.6931 21.3789 31.5215 20.3789 32.0966C20.2122 31.6325 20.0456 31.1735 19.8789 30.7094Z" fill="#707070"/>
<path d="M46.9801 28.2177C46.7326 28.1874 46.4851 28.1521 46.2377 28.1218C46.1114 26.543 47.475 26.3109 48.4245 25.6955C48.9599 25.3626 49.3033 25.5846 49.5458 26.094C49.6316 27.0625 49.1165 27.688 48.3589 28.1824C47.9043 28.3993 47.4498 28.485 46.9801 28.2227V28.2177Z" fill="#707070"/>
<path d="M39.0155 31.6173C38.2024 31.6325 37.3893 31.6426 36.5761 31.6577C35.8236 29.9578 37.6064 30.5177 38.0408 30.321C39.4347 29.6904 38.8034 31.0625 39.0105 31.6173H39.0155Z" fill="#707070"/>
<path d="M49.3586 26.21C49.2121 25.7409 48.8586 25.6451 48.4242 25.6955C48.3737 24.6715 49.1414 24.4546 49.8889 24.2175C50.0505 24.4143 50.2172 24.616 50.3788 24.8128C50.7374 25.7863 50.4647 26.3008 49.3586 26.205V26.21Z" fill="#DADADA" fill-opacity="0.678431"/>
<path d="M13.0101 105.223C12.5202 105.223 12.0354 105.223 11.5455 105.228C7.04544 105.253 6.45453 104.254 7.98989 100.038C8.88383 97.5759 9.35858 94.9579 10.0202 92.4156C11.2677 89.611 12.0909 92.4963 13.1212 92.6426C14.0202 92.799 14.6515 92.5216 14.9748 91.6086C15.3081 90.6653 16.1111 90.3626 17.0051 90.2315C18.101 89.6413 16.4142 88.0725 17.9142 87.6286C18.7576 87.0082 19.7324 86.6753 20.6818 86.2566C21.2172 86.0195 21.6162 85.273 22.2324 85.8581C22.7627 86.3676 22.4192 87.094 22.2122 87.6993C22.1111 87.9969 21.9394 88.3348 21.7021 88.5114C19.697 89.9994 19.1919 92.0424 19.4445 94.3879C19.3081 95.7499 18.4697 95.7448 17.4647 95.4069C16.7273 95.649 16.3738 95.0134 15.6111 94.4686C16 96.8041 14.7424 98.2972 13.3232 99.9164C14.4798 100.189 15.4899 98.7815 15.9091 99.6794C16.1869 100.275 15.3434 101.389 15 102.272C15.2879 103.044 14.697 103.311 14.1919 103.422C13.1515 103.649 13.2273 104.507 13.0202 105.218L13.0101 105.223Z" fill="#DADADA"/>
<path d="M32.1922 99.4222C32.0154 100.376 31.8437 101.324 31.667 102.277C31.3488 103.13 31.0255 103.982 30.7074 104.835C30.7579 105.243 30.571 105.511 30.2124 105.682C30.0255 105.818 29.7478 105.914 29.672 106.096C28.975 107.695 27.6568 108.345 26.0659 108.098C23.7477 107.74 25.1568 105.909 24.9245 104.724C24.9498 103.337 25.9649 102.025 25.2427 100.577C25.0609 99.2557 25.6013 98.1208 26.177 96.9909C26.6568 95.7752 26.9397 94.4587 27.8942 93.47C28.172 92.3804 28.2629 91.2102 29.2074 90.4031C30.5508 90.4384 31.6619 91.4775 33.0609 91.2858C33.773 91.8911 34.3235 92.5418 33.672 93.5204C32.6973 94.8117 33.6165 96.5621 32.6316 97.8534C32.2124 97.8383 31.7983 97.8333 31.3791 97.8333C30.8639 97.9644 30.0861 97.2633 29.8892 98.3024C31.4178 98.0132 32.1855 98.3848 32.1922 99.4171V99.4222Z" fill="#DADADA"/>
<path d="M29.1266 54.846C29.6317 53.7161 28.4196 52.0969 30.1317 51.3049C30.7883 53.7009 30.2428 56.1474 30.4398 58.5586C30.5155 59.5119 30.1519 60.5107 30.6973 61.4237C31.0004 61.5044 31.662 61.0302 31.5559 61.7465C31.061 65.0858 31.1165 68.5714 29.1822 71.5626C28.9751 69.8224 27.9145 67.956 30.2075 66.2914C28.5256 66.8311 28.2933 66.3267 28.4347 64.9748C28.7832 61.6103 28.9095 58.2256 29.1216 54.846H29.1266Z" fill="#DADADA"/>
<path d="M13.5051 85.611C14.2576 84.5769 13.5303 83.0838 14.5707 82.1405C17.3889 81.7168 18.0657 82.5441 17.4394 85.6362C16.9495 86.2768 16.4596 86.9225 15.9697 87.5631C15.793 88.3147 16.1566 89.2025 15.4142 89.8229C14.7526 90.519 13.8031 90.6048 12.9849 90.978C12.0758 91.2252 11.3283 91.2353 11.5303 89.9339C11.7778 89.1218 11.2273 88.1583 11.9849 87.437C13.1212 87.3512 12.8334 86.0801 13.5051 85.6059V85.611Z" fill="#DADADA"/>
<path d="M17.4342 85.6362C17.8584 83.3411 16.2119 82.7408 14.5655 82.1406C13.8685 81.167 14.8635 80.2339 14.6311 79.2754C14.9392 79.6084 15.2473 79.9362 15.5604 80.2692C16.6008 81.0359 17.7928 80.5567 18.9089 80.6626C19.7625 80.8795 20.4897 80.9047 20.3887 79.684C20.8786 79.1796 21.3887 78.7458 22.1564 79.1342C23.1008 79.8606 23.0705 80.7433 22.5655 81.7017C20.5099 82.5693 18.2625 83.1746 17.4291 85.6362H17.4342Z" fill="#DADADA"/>
<path d="M23.268 92.5014C22.8943 87.9615 22.1872 88.123 24.8892 86.0952C26.1367 85.162 26.3236 85.6815 26.5206 86.8316C26.9498 89.379 25.8185 91.1192 23.7933 92.4459C23.6418 92.693 23.465 92.7132 23.268 92.4963V92.5014Z" fill="#DADADA" fill-opacity="0.854902"/>
<path d="M21.8285 79.22C21.3538 79.3713 20.874 79.5277 20.3993 79.679C20.3033 78.5189 17.0306 78.9274 18.9649 76.7685C18.9447 77.3284 18.4498 78.1557 19.677 78.0144C20.4296 77.9287 21.1164 77.742 21.9447 77.8227C25.2781 78.1607 25.4649 77.8681 25.2073 74.2615C25.2023 73.8681 25.2781 73.5755 25.773 73.8176C27.3639 73.5755 27.9195 74.4986 27.4094 75.7445C26.9599 76.8391 26.7579 78.2414 25.4043 78.8013C24.2932 79.6286 23.0457 79.3007 21.8285 79.22Z" fill="#DADADA"/>
<path d="M17.4544 95.4069C18.116 95.0689 18.7776 94.7309 19.4342 94.3879C20.7827 94.6856 21.7473 95.1244 20.7675 96.794C20.4847 97.2783 19.8079 97.7777 19.8483 97.5809C20.3433 95.2959 15.1564 99.3565 17.4493 95.4069H17.4544Z" fill="#707070"/>
<path d="M32.687 91.5632C30.7224 93.5809 30.1567 91.4068 29.2021 90.403C29.2021 90.2567 29.2123 90.1105 29.2325 89.9642C30.6112 89.2832 32.0203 88.3803 33.1112 90.3778C33.1921 90.852 33.0304 91.2404 32.687 91.5632Z" fill="#707070"/>
<path d="M26.6716 96.8898C26.3686 98.2063 26.0605 99.5178 25.7575 100.834C26.2423 102.05 25.6767 102.67 24.5454 102.973C24.1312 102.913 23.8888 102.665 23.7676 102.277C23.8181 101.253 24.2726 100.244 23.8686 99.2101C24.2676 98.1105 25.308 97.6111 26.0807 96.8646C26.2827 96.7435 26.4797 96.7586 26.6716 96.8898Z" fill="#707070"/>
<path d="M14.9951 89.3739C15.3184 88.7686 15.6416 88.1683 15.9648 87.563C16.586 88.3852 17.2678 87.3814 17.9093 87.6336C17.8133 88.7938 18.7628 89.8077 18.3992 90.9931C18.086 92.012 17.7123 91.4874 17.3739 90.988C16.7224 90.2415 15.3234 90.5996 14.9951 89.3789V89.3739Z" fill="#DADADA"/>
<path d="M21.2678 99.2002C20.5203 102.262 18.0254 101.601 15.8789 102.489C17.0809 100.012 19.1264 99.8459 21.2678 99.2002Z" fill="#DADADA"/>
<path d="M23.7677 102.277C23.9344 102.418 24.1011 102.565 24.2677 102.706C24.7122 103.236 24.7526 103.745 24.1819 104.219C23.7021 104.219 23.2122 104.27 22.7425 104.209C22.0758 104.128 21.1213 104.562 20.8485 103.72C20.697 103.251 21.1213 102.504 21.4546 101.99C22.2475 100.784 22.3536 102.837 23.0607 102.383C23.2425 102.267 23.5303 102.307 23.7677 102.277Z" fill="#707070"/>
<path d="M13.0103 105.223C12.879 104.073 11.7174 104.603 11.1265 104.103C11.8992 102.353 13.879 103.215 14.9901 102.277C15.3891 102.655 15.4598 103.145 15.48 103.654C15.0053 104.522 14.7881 105.637 13.5103 105.748C13.3436 105.571 13.177 105.399 13.0103 105.223Z" fill="#707070"/>
<path d="M21.8286 79.2198C22.8488 77.6057 24.2327 79.0988 25.4044 78.8012C24.768 80.0673 23.9953 81.2022 22.571 81.6966C22.3236 80.8693 22.0761 80.0421 21.8286 79.2148V79.2198Z" fill="#DADADA"/>
<path d="M25.3032 84.481C25.783 82.8366 24.3739 80.5263 27.1214 79.3157C26.8083 81.3283 26.9446 83.1594 25.3032 84.481Z" fill="#DADADA"/>
<path d="M36.4296 111.518C37.7629 111.806 39.2023 111.185 40.47 112.018C36.2275 111.998 31.9902 111.977 27.7477 111.957C27.7477 111.866 27.7477 111.771 27.7427 111.68C28.8942 110.626 30.3083 111.291 31.5962 111.095C33.2225 111.09 34.8538 111.019 36.4346 111.518H36.4296Z" fill="#707070"/>
<path d="M18.4648 105.001C18.0305 106.661 19.2578 107.927 18.3335 109.188C15.879 108.038 15.8436 107.428 18.4648 105.001Z" fill="#DADADA"/>
<path d="M33.4043 58.6899C33.6366 58.4882 33.8689 58.2864 34.1013 58.0796C34.3791 58.3772 34.4195 58.7 34.2023 59.0481C35.278 59.9006 33.2427 61.2928 34.7225 62.0746C34.2831 62.463 34.4144 63.3508 33.4043 63.4517V58.6899Z" fill="#DADADA"/>
<path d="M33.5859 75.7848C33.2677 75.4165 32.9495 75.0483 32.6313 74.675C32.798 73.3938 32.2879 72.0066 33.2324 70.8464C34.3334 71.4568 34.1364 72.5312 34.192 73.5148C34.0202 74.2816 34.4142 75.1946 33.5909 75.7848H33.5859Z" fill="#DADADA"/>
<path d="M24.1816 104.219C24.2119 103.715 24.2372 103.21 24.2675 102.706C25.0453 102.307 25.6614 101.778 25.7574 100.834C26.0352 100.85 26.313 100.86 26.5857 100.875C25.9695 102.131 26.4796 103.866 24.9241 104.713C24.5251 104.774 24.3231 104.537 24.1816 104.214V104.219Z" fill="#707070"/>
<path d="M20.3486 109.344C20.2325 107.468 21.3688 106.726 21.7678 105.667C21.9143 105.274 22.4345 105.137 22.6668 105.657C22.9547 106.308 23.2274 107.155 22.5001 107.599C21.8335 108.008 21.2527 108.517 20.3537 109.344H20.3486Z" fill="#DADADA"/>
<path d="M30.7023 61.4238C29.672 60.1981 30.3184 58.7554 30.2326 57.4187C30.0962 55.3859 30.1568 53.3429 30.1366 51.3C30.2629 51.2697 30.3891 51.2243 30.5103 51.1638C30.879 54.5737 30.8336 57.9937 30.7073 61.4188L30.7023 61.4238Z" fill="#DADADA"/>
<path d="M26.6718 96.8899C26.6112 97.0413 26.4951 97.1119 26.3335 97.1119C25.8385 96.8143 26.1163 96.2443 25.8789 95.8559C26.288 94.842 26.1718 93.3842 27.889 93.4649C28.091 94.8218 27.4092 95.8659 26.6718 96.8899Z" fill="#DADADA"/>
<path d="M13.5054 105.743C14.1771 105.057 14.3236 103.881 15.4751 103.649C15.5054 104.971 14.3943 106.943 13.5357 107.099C13.5256 106.645 13.5155 106.197 13.5054 105.743Z" fill="#DADADA"/>
<path d="M31.6415 111.503C30.3435 111.564 29.0404 111.619 27.7425 111.68C27.4445 110.696 28.1313 110.565 28.8031 110.555C29.7475 110.545 30.697 110.64 31.6465 110.691C31.9546 110.963 31.9546 111.236 31.6465 111.503H31.6415Z" fill="#DADADA"/>
<path d="M31.6416 111.503C31.6416 111.231 31.6416 110.958 31.6416 110.691C33.3234 110.298 34.9244 110.953 36.5659 111.089C36.5305 111.236 36.4901 111.382 36.4295 111.523C34.8335 111.518 33.2376 111.513 31.6416 111.508V111.503Z" fill="#DADADA"/>
<path d="M29.9244 76.4204C30.3941 77.8177 29.8587 78.9779 29.4244 80.1431C29.5254 78.9476 27.8183 77.5957 29.9244 76.4204Z" fill="#DADADA" fill-opacity="0.678431"/>
<path d="M18.9497 111.659C18.778 111.654 18.6113 111.644 18.4396 111.639C17.8538 111.453 17.1517 111.735 16.5962 111.13C17.3336 110.182 18.3285 110.691 19.1972 110.671C19.6366 110.661 20.3689 110.545 20.3134 111.17C20.2477 111.957 19.4144 111.478 18.9497 111.659Z" fill="#DADADA"/>
<path d="M23.2679 92.5014C23.4447 92.4862 23.6164 92.4661 23.7931 92.4509C24.4245 93.9541 23.6467 94.9529 22.6214 96.0323C21.8285 94.5292 23.2881 93.6716 23.2679 92.5014Z" fill="#DADADA"/>
<path d="M25.879 95.856C26.0305 96.2746 26.182 96.6933 26.3335 97.112C25.1113 97.339 25.3133 99.2507 23.8638 99.2104C23.2881 98.5698 23.485 98.1107 24.1972 97.7576C25.0154 97.3541 25.7123 96.8396 25.8739 95.856H25.879Z" fill="#DADADA"/>
<path d="M27.1921 111.084C25.5153 111.836 24.4143 111.589 22.6416 111.488C24.2881 110.363 25.4042 110.464 27.1921 111.084Z" fill="#DADADA"/>
<path d="M30.2122 105.677C30.3788 105.395 30.5405 105.112 30.7071 104.83C31.3839 105.102 31.8788 105.566 32.1364 106.257C31.394 106.398 30.1768 108.103 30.2122 105.677Z" fill="#DADADA"/>
<path d="M14.0051 111.634C13.5304 111.493 12.9395 111.705 12.6011 111.16C13.596 110.489 14.6213 110.207 15.7678 110.863C15.5405 112.043 14.5607 111.347 14.0051 111.629V111.634Z" fill="#DADADA"/>
<path d="M25.7676 73.8225C25.5807 73.9688 25.3938 74.1201 25.2019 74.2664C24.7524 74.8868 24.3029 75.5022 23.7827 76.2185C24.0251 73.5249 24.1059 73.429 25.7676 73.8225Z" fill="#DADADA" fill-opacity="0.854902"/>
<path d="M9.15137 109.082C9.29783 108.91 9.4443 108.739 9.59581 108.567C9.83319 108.552 10.0756 108.502 10.3079 108.527C10.7877 108.582 11.4443 107.992 11.6968 108.855C11.7473 109.036 11.6211 109.349 11.4746 109.495C10.9696 109.99 10.5049 109.773 10.015 109.39C9.78773 109.213 9.4443 109.183 9.15642 109.082H9.15137Z" fill="#DADADA"/>
<path d="M22.1313 71.9209C23.8031 72.0268 25.5404 71.361 27.1415 72.3194C25.4798 72.047 23.7223 73.0256 22.1313 71.9209Z" fill="#DADADA"/>
<path d="M5.6114 88.4661C4.81847 88.5064 3.92452 88.7536 3.7124 87.5682C5.29321 86.292 7.51039 85.6918 8.0811 83.3361C8.19221 82.8821 8.73767 83.0334 9.12151 83.1494C9.77808 83.0032 10.172 83.3159 10.2629 83.9263C10.3286 84.3449 10.1114 84.6526 9.60636 84.5971C8.61141 86.2365 7.02049 87.2555 5.60635 88.4661H5.6114Z" fill="#707070"/>
<path d="M9.61099 84.597C10.2777 83.8353 9.6514 83.5074 9.12109 83.1442C9.43928 82.9828 9.75746 82.8214 10.0756 82.6549C12.0201 82.3371 12.8181 83.1543 12.4948 85.0863C11.4443 85.4343 10.3029 86.3019 9.60594 84.5919L9.61099 84.597Z" fill="#707070"/>
<path d="M11.5302 89.934C11.7777 90.272 11.8787 91.074 12.505 90.2518C14.1767 90.6402 14.3535 91.5532 13.106 93.349C12.4646 93.3893 11.8131 93.3994 11.6262 92.5974C11.2524 91.0236 10.5908 92.1787 10.0201 92.4107C9.98982 91.2556 10.6009 90.4939 11.5302 89.929V89.934Z" fill="#DADADA"/>
<path d="M13.5054 85.6108C13.47 86.2313 13.5761 86.9072 13.3741 87.4671C12.9801 88.5466 12.4397 88.3146 11.9902 87.4419C12.1822 86.8517 12.3741 86.2565 12.566 85.6663C12.8791 85.6512 13.1973 85.631 13.5104 85.6159L13.5054 85.6108Z" fill="#DADADA"/>
<path d="M34.4497 79.0889C35.1518 80.4609 35.2629 81.8783 34.7477 83.7649C33.7376 82.0044 34.0811 80.5467 34.4497 79.0889Z" fill="#707070"/>
<path d="M32.6868 91.5631C32.6313 91.099 32.7676 90.7005 33.1111 90.3777C33.4141 90.1053 33.7121 89.8329 34.0151 89.5605C34.3888 90.3021 33.5101 91.3513 34.5959 91.9162C34.6363 92.229 34.6818 92.5417 34.7222 92.8544C34.5707 93.1924 34.4191 93.5304 34.2676 93.8633C34.0656 93.7473 33.8636 93.6313 33.6616 93.5152C33.4848 92.7889 33.3282 92.0524 32.6818 91.5581L32.6868 91.5631Z" fill="#DADADA" fill-opacity="0.854902"/>
<path d="M33.5859 75.7848C33.7274 75.013 33.4799 74.1353 34.187 73.5149C34.8132 74.2867 34.8334 75.2753 34.5354 76.0421C34.1263 77.0812 33.8031 76.3044 33.5859 75.7848Z" fill="#DADADA"/>
<path d="M34.2021 59.053C34.1667 58.7302 34.1364 58.4074 34.1011 58.0845C34.1819 57.5246 34.2324 56.9445 35.1314 56.4653C34.4849 57.4086 36.6566 58.826 34.197 59.053H34.2021Z" fill="#707070"/>
<path d="M28.1363 71.3055C27.7979 70.6245 27.4091 70.0948 26.5959 70.7708C26.8787 69.7064 26.0555 68.9397 25.8434 68.0166C25.4899 66.4579 25.4798 65.0052 27.8484 64.3091C26.9242 66.8463 27.6868 69.0608 28.1363 71.3055Z" fill="#DADADA"/>
<path d="M24.7932 52.2331C25.0104 54.3013 23.9953 55.9053 22.7528 57.7263C21.2377 56.1777 23.1215 54.4879 22.3437 53.1058C22.0054 52.1272 22.0508 51.3453 23.3235 51.189L23.3892 51.2596C23.7528 51.5471 23.7175 52.2129 24.3336 52.2634C24.4852 52.2483 24.6417 52.2382 24.7983 52.2331H24.7932Z" fill="#707070"/>
<path d="M22.8231 37.4486C22.51 36.7827 22.3837 36.1623 23.3938 36.0866C24.1918 36.0261 24.9949 36.0614 25.7928 36.0513C26.0757 36.7676 26.3585 37.4839 26.8231 38.6642C25.3837 37.6554 23.8181 38.9265 22.8231 37.4486Z" fill="#DADADA"/>
<path d="M23.3231 51.1891C22.9948 51.8297 22.6716 52.4652 22.3433 53.1059C21.9999 52.9495 21.1666 54.6292 21.2625 52.8133C21.3181 51.7893 21.3534 50.7603 21.3938 49.7363C21.4595 49.5244 21.6009 49.3933 21.813 49.3429C22.4191 49.0806 22.808 49.6152 23.308 49.7565C23.308 50.2306 23.3181 50.7098 23.3231 51.184V51.1891Z" fill="#707070"/>
<path d="M23.3589 68.4656C23.364 69.0104 23.561 69.9335 23.0761 69.9789C22.1216 70.0747 21.8741 68.9549 21.3135 68.3597C21.9953 68.3648 22.8135 65.7619 23.3589 68.4656Z" fill="#707070"/>
<path d="M29.6818 40.5356C30.5353 40.6768 31.601 39.441 32.2424 40.9341C31.9293 41.6554 32.6212 43.4562 30.6566 42.412C30.3283 41.7866 30.005 41.1611 29.6768 40.5356H29.6818Z" fill="#DADADA"/>
<path d="M24.3335 52.2634C24.2527 52.788 24.4193 53.3832 23.7981 53.8725C23.0102 53.0907 23.4395 52.1272 23.384 51.2646C23.985 51.3302 24.2527 51.7085 24.3284 52.2685L24.3335 52.2634Z" fill="#707070"/>
<path d="M20.3839 67.1996C20.3788 66.7607 20.3687 66.3269 20.3637 65.8881C20.0354 64.8943 20.1566 64.1175 21.3384 63.8401C21.7071 63.9057 22.0808 63.9763 22.4495 64.0419C21.7627 65.0961 21.0758 66.1453 20.3839 67.1996Z" fill="#DADADA"/>
<path d="M50.7681 110.555C52.8994 110.585 55.0257 110.62 57.157 110.651C55.0307 111.538 52.8287 110.988 50.657 110.978C50.5711 110.807 50.6014 110.661 50.7681 110.555Z" fill="#707070"/>
<path d="M50.7679 110.555C50.7224 110.696 50.6871 110.837 50.6568 110.979C49.1315 110.373 47.5305 110.857 45.98 110.646C47.5608 109.748 49.1618 109.995 50.7679 110.555Z" fill="#DADADA"/>
<path d="M46.359 35.663C46.2126 35.9354 46.0611 36.2027 45.9146 36.4751C45.8994 35.8244 45.8843 35.1787 45.8691 34.528C46.2277 33.0904 47.8388 32.5053 48.2227 31.0828C48.7782 30.4523 49.2883 29.7309 50.3085 30.1647C50.3338 30.3463 50.354 30.5229 50.3793 30.7045C50.9298 31.8243 49.5762 32.2329 49.4803 33.1156C48.6318 34.1951 47.6065 35.0627 46.359 35.663Z" fill="#DADADA"/>
<path d="M40.4696 37.9076C39.4999 38.9467 38.5251 39.9858 37.5554 41.0199C37.5302 38.9114 39.5908 37.8673 40.1059 36.0312C40.2524 35.5015 40.5908 35.2543 41.1463 35.3199C41.4898 35.4813 41.7372 35.6932 41.5605 36.127C41.7423 37.0551 41.1463 37.5041 40.4696 37.9076Z" fill="#707070"/>
<path d="M50.3084 30.1647C49.6519 30.4824 49.1771 30.9919 48.7983 31.5972C48.2377 31.9352 47.8135 32.6817 46.9801 32.2076C46.9296 32.0209 46.8791 31.8293 46.8286 31.6426C46.8741 31.4963 46.9094 31.35 46.9296 31.1987C47.5155 29.6905 48.0306 28.0713 50.2377 29.0247C50.263 29.403 50.2933 29.7813 50.3185 30.1596L50.3084 30.1647Z" fill="#DADADA"/>
<path d="M41.5558 36.127L41.0003 35.5368C40.5003 35.103 40.672 34.5885 40.8386 34.079C41.576 33.1508 42.5558 33.625 43.4548 33.625C42.9144 34.5279 42.7376 35.7083 41.5558 36.127Z" fill="#707070"/>
<path d="M46.9748 32.2125C47.6011 32.0662 48.0455 31.3802 48.793 31.6022C48.298 33.06 47.096 33.8115 45.8637 34.5278C45.3132 33.3929 45.4344 33.1407 46.9748 32.2125Z" fill="#707070"/>
<path d="M53.3035 27.8037C52.9348 27.7987 52.5712 27.7936 52.2025 27.7886C51.5762 27.9399 50.9499 28.0912 50.3237 28.2476C49.0813 27.4809 49.3136 26.7192 50.46 26.1996C51.4449 25.7557 52.1974 25.1403 52.7126 24.2072C52.8994 24.0558 53.0863 23.9045 53.2732 23.7532C53.5914 23.9348 53.9045 24.1164 54.2227 24.2929C54.3944 25.1151 54.5661 25.9373 54.7378 26.7595C54.4146 27.0471 54.0914 27.3346 53.7681 27.6221C53.6116 27.6826 53.4601 27.7432 53.3035 27.7987V27.8037Z" fill="#707070"/>
<path d="M52.7177 24.2072C52.7834 25.5035 52.9854 26.8302 50.9601 26.7646C49.8036 26.7293 49.9854 27.5061 50.3238 28.2426C50.3086 28.3989 50.253 28.5402 50.1621 28.6663C49.2682 28.9488 48.2833 29.5289 47.9702 27.9752C48.4298 27.3851 48.8945 26.7999 49.3541 26.2097C49.8894 25.8869 50.5662 25.67 50.3743 24.8175C51.0712 24.7671 51.7126 24.5653 52.2783 24.1416C52.4197 24.2072 52.5662 24.2274 52.7177 24.2072Z" fill="#707070"/>
<path d="M47.9753 27.9753C48.5258 28.7774 49.3591 28.6765 50.1672 28.6664C50.2076 28.7824 50.2278 28.9085 50.2278 29.0296C48.7026 29.1053 48.0763 30.558 46.9197 31.2037C45.8642 30.1898 47.4298 29.2213 46.9753 28.2175C47.3086 28.1368 47.6369 28.056 47.9702 27.9753H47.9753Z" fill="#707070"/>
<path d="M46.3589 35.663C47.0963 34.5179 48.3437 33.9732 49.3235 33.1106C49.47 33.2064 49.5256 33.3124 49.4852 33.4183C49.4448 33.5293 49.3993 33.5848 49.3538 33.5848C49.1771 33.9076 49.0003 34.2254 48.8185 34.5482C48.2276 35.4209 47.3639 35.6933 46.3589 35.6579V35.663Z" fill="#707070"/>
<path d="M49.3486 33.5896C49.3133 33.4332 49.3032 33.2718 49.3183 33.1104C49.6719 32.3083 50.0204 31.5113 50.3739 30.7093C50.682 30.6589 51.4598 29.9527 51.0305 31.022C50.6517 31.9502 49.9244 32.7371 49.3486 33.5896Z" fill="#707070"/>
<path d="M40.8386 34.084C40.8942 34.5682 40.9498 35.0575 41.0003 35.5418C40.7023 35.7082 40.3992 35.8696 40.1013 36.0361C38.5104 35.9604 37.9346 37.7058 36.5508 38.0084C36.4093 37.8823 36.2629 37.7562 36.1215 37.625L36.0811 37.4737C36.7326 35.9655 38.1619 35.3955 39.4598 34.6641C39.9194 34.4724 40.374 34.2757 40.8336 34.084H40.8386Z" fill="#707070"/>
<path d="M29.1973 38.3666C30.2377 36.3691 31.2124 37.3426 32.1821 38.4322C31.1771 38.8206 30.1872 38.533 29.1973 38.3666Z" fill="#DADADA"/>
<path d="M32.1922 99.4221C32.0508 98.7915 31.8285 98.388 31.0912 98.8823C30.172 99.5028 29.2073 99.533 28.2578 98.9025C29.1215 97.8029 30.374 97.5506 31.6467 97.3438C32.2831 96.9251 32.4043 97.4901 32.6316 97.8583C32.6366 98.4233 32.5861 98.9731 32.1972 99.4271L32.1922 99.4221Z" fill="#DADADA"/>
<path d="M39.4651 34.6641C38.3388 35.6023 37.2125 36.5355 36.0863 37.4737C35.9146 37.1458 35.7479 36.823 35.5762 36.4951C36.6671 35.4409 37.9348 34.7801 39.4651 34.6641Z" fill="#DADADA"/>
<path d="M21.8182 49.348C21.6768 49.4791 21.5353 49.6103 21.3939 49.7414C20.4444 50.1349 19.4596 50.7907 18.5808 49.6809C18.3434 49.3833 18.4091 48.7578 18.8485 48.6519C19.9192 48.3946 21.0909 48.0113 21.8182 49.343V49.348Z" fill="#DADADA"/>
<path d="M19.9902 63.5929C19.8993 62.9977 18.6821 63.038 19.0508 62.4277C19.672 61.4087 20.7377 62.1401 21.6165 62.1502C22.0508 62.1502 22.7478 61.8627 22.6316 62.6446C22.5458 63.2247 21.874 63.033 21.4144 63.0279C20.9952 63.3558 20.6417 63.8501 19.9902 63.5929Z" fill="#DADADA"/>
<path d="M19.9899 63.5928C20.4091 63.27 20.8081 62.8816 21.4141 63.0279C21.3889 63.3002 21.3636 63.5726 21.3384 63.84C21.0151 64.521 20.6919 65.207 20.3636 65.8879C18.0858 65.4743 20.1667 64.3495 19.9899 63.5928Z" fill="#707070"/>
<path d="M18.9144 80.6574C17.7174 81.2072 16.5003 81.9235 15.5659 80.264C16.7073 80.1833 17.8791 79.8655 18.9144 80.6574Z" fill="#707070"/>
<path d="M25.1821 30.1445C25.8589 30.9819 27.5407 30.0991 27.7831 31.6729C26.3033 32.2026 25.273 31.9756 25.1821 30.1445Z" fill="#707070"/>
<path d="M24.3182 28.5554C24.4899 29.0901 24.6616 29.6248 24.8333 30.1595C24.5202 30.1494 24.2071 30.1343 23.8939 30.1242C23.6768 29.988 23.3636 29.9779 23.298 29.65C23.2879 28.959 23.8535 28.8076 24.3182 28.5554Z" fill="#707070"/>
<path d="M23.298 29.6501C23.495 29.8065 23.692 29.9679 23.894 30.1243C23.6869 30.1495 23.4798 30.1747 23.2677 30.2C23.1112 30.0285 22.9495 29.857 22.793 29.6855C22.9596 29.6754 23.1314 29.6602 23.298 29.6501Z" fill="#DADADA"/>
<path d="M13.1059 93.3489C13.1716 92.2644 13.3231 91.1647 12.5049 90.2517C12.5655 89.7473 12.7019 89.1571 13.3332 89.6363C14.0655 90.1962 14.4948 89.7725 14.9948 89.374C16.217 89.2731 16.9241 89.944 17.3736 90.9831C16.813 91.2757 15.616 90.287 15.8231 92.1837C15.9998 93.8029 14.4847 93.9946 13.1059 93.3489Z" fill="#707070"/>
<path d="M31.6418 97.3388C30.8287 98.5494 29.4853 98.6049 28.2529 98.8975C28.6115 96.7083 30.0105 96.7739 31.6418 97.3388Z" fill="#707070"/>
<path d="M59.1772 66.3577H57.2964V62.7424C57.2964 61.6956 56.9194 61.1721 56.1655 61.1721C55.8062 61.1721 55.5073 61.3127 55.269 61.594C55.0308 61.8713 54.9116 62.2268 54.9116 62.6604V66.3577H53.019V59.8772H54.9116V60.9084H54.9351C55.4077 60.1155 56.103 59.719 57.021 59.719C58.4585 59.719 59.1772 60.6096 59.1772 62.3909V66.3577ZM64.9136 58.2249C64.6558 58.1233 64.4116 58.0725 64.1812 58.0725C63.5327 58.0725 63.2085 58.4319 63.2085 59.1506V59.8772H64.6851V61.2893H63.2085V66.3577H61.3159V61.2893H60.2319V59.8772H61.3159V59.0452C61.3159 58.3069 61.5562 57.717 62.0366 57.2756C62.5171 56.8342 63.1479 56.6135 63.9292 56.6135C64.3276 56.6135 64.6558 56.6545 64.9136 56.7366V58.2249ZM75.8296 66.3577H73.9429V62.6604C73.9429 61.6682 73.5815 61.1721 72.8589 61.1721C72.5229 61.1721 72.2437 61.3225 72.021 61.6233C71.7983 61.9241 71.687 62.2913 71.687 62.7249V66.3577H69.8003V62.6135C69.8003 61.6526 69.4429 61.1721 68.728 61.1721C68.3726 61.1721 68.0874 61.3167 67.8726 61.6057C67.6616 61.8909 67.5562 62.2698 67.5562 62.7424V66.3577H65.6636V59.8772H67.5562V60.8909H67.5796C67.8062 60.5198 68.1069 60.2327 68.4819 60.0295C68.8569 59.8225 69.2515 59.719 69.6655 59.719C70.5757 59.719 71.1987 60.1272 71.5347 60.9436C72.0347 60.1272 72.7612 59.719 73.7144 59.719C75.1245 59.719 75.8296 60.5901 75.8296 62.3323V66.3577ZM52.7437 80.5081C52.7437 80.2151 52.855 79.9749 53.0776 79.7874C53.3003 79.5999 53.5659 79.5061 53.8745 79.5061C54.187 79.5061 54.4507 79.6018 54.6655 79.7932C54.8804 79.9846 54.9878 80.2229 54.9878 80.5081C54.9878 80.8088 54.8804 81.053 54.6655 81.2405C54.4507 81.4241 54.1792 81.5159 53.8511 81.5159C53.5464 81.5159 53.2847 81.4202 53.0659 81.2288C52.8511 81.0374 52.7437 80.7971 52.7437 80.5081ZM62.8218 81.3577H60.5249L58.3687 78.1526H58.3452V81.3577H56.4526V71.7659H58.3452V77.8713H58.3687L60.3901 74.8772H62.646L60.2437 77.9358L62.8218 81.3577ZM68.6753 81.3577H62.9155V80.5901L66.2319 76.2893H63.2437V74.8772H68.6577V75.7913L65.4878 79.9456H68.6753V81.3577Z" fill="#707070"/>
</svg>
