<svg width="127" height="151" viewBox="0 0 127 151" fill="none" xmlns="http://www.w3.org/2000/svg">
<path d="M119.704 0H7.24265C3.24265 0 0 3.24265 0 7.24266V143.757C0 147.757 3.24265 151 7.24265 151H119.704C123.704 151 126.947 147.757 126.947 143.757V7.24266C126.947 3.24265 123.704 0 119.704 0Z" fill="#FCEE21"/>
<path d="M110.116 15.4005C110.998 15.3203 111.887 15.2335 112.769 15.1533C113.951 14.7524 115.134 14.2847 116.41 14.7591C118.054 15.1733 119.29 14.2112 120.606 13.503C122.962 13.0709 124.04 14.3649 123.84 17.3849C123.406 27.8413 123.86 38.3111 123.613 48.7742C123.486 54.1327 124.014 59.4845 123.199 64.8831C122.864 67.0879 122.397 67.4955 120.593 67.108C119.951 66.9677 119.691 67.6291 119.13 67.569C100.221 67.5623 81.3194 67.569 62.4177 67.569C58.1282 67.569 56.4846 69.2594 56.4779 73.6357C56.4779 76.9898 56.5848 80.3439 56.4378 83.6913C56.3376 85.9429 56.7652 87.9473 58.0814 89.758C59.3175 91.101 60.9478 91.0742 62.5847 91.0742C80.7381 91.0742 98.8915 91.0609 117.052 91.101C118.942 91.101 120.68 90.7535 122.35 89.9317C123.927 91.2079 123.599 93.0787 123.606 94.7089C123.68 108.72 123.666 122.731 123.633 136.742C123.633 138.88 122.965 141.004 123.526 143.156C122.744 146.082 120.954 147.953 117.934 148.548C116.758 149.316 115.428 149.102 114.145 149.102C103.335 149.109 92.5241 149.129 81.7136 149.102C79.7092 148.795 77.7382 148.347 75.9676 147.285C75.1992 145.287 73.5155 145.1 71.7383 145.234C66.8475 145.608 61.8832 145.053 57.0725 146.383C56.4178 146.563 55.7964 146.383 55.175 146.229C53.6116 145.902 52.0348 145.675 50.4446 145.494C49.2419 145.401 48.5471 144.673 48.1195 143.624C47.9591 143.229 47.9123 142.575 47.6451 142.481C44.0705 141.185 44.605 137.657 43.5093 135.018C43.3289 134.59 43.1819 134.156 43.1284 133.695C43.095 133.388 43.1151 133.074 43.1685 132.766C43.6563 131.336 44.5248 130.067 44.9992 128.617C45.2932 128.063 45.5137 127.481 45.7275 126.9C46.4291 124.154 46.0081 121.374 46.0415 118.608C45.7409 116.804 45.5204 115.014 47.0504 113.577C48.3132 111.666 47.4179 109.421 47.9992 107.404C49.0949 100.375 49.1751 93.3593 47.8255 86.3572C47.8522 80.1033 48.4134 73.8295 47.3377 67.6091C46.997 66.9877 47.9791 66.0657 46.8767 65.6114C45.7476 65.6782 45.0928 64.3486 43.9102 64.6626C42.5872 65.598 41.3178 66.6871 39.5071 66.186C39.006 66.0724 38.5918 65.8252 38.2577 65.431C37.7699 64.6693 37.6964 63.8608 37.9503 63.0123C39.6341 61.2551 41.1374 59.4043 42.1195 57.0992C42.614 55.9433 42.7944 54.8877 42.6273 53.7051C42.6808 53.0503 42.9948 52.5358 43.516 52.1483C44.0705 51.8276 44.6652 51.8276 45.2732 51.9211C46.3689 52.2418 47.1106 51.0926 48.1595 51.2062C50.6183 52.6895 48.066 54.4601 48.4468 56.0636C48.2932 57.0926 47.1707 57.0725 46.7498 57.5736C47.7987 57.2729 48.4468 56.3442 49.0014 55.3153C49.2219 55.1015 49.4691 54.9411 49.7364 54.8075C52.1083 54.0191 54.1728 52.6093 56.351 51.4401C57.9345 50.665 58.7897 48.9412 60.46 48.2864C61.9366 48.0125 63.7272 48.4268 64.4021 46.4357C65.0435 45.4468 65.4845 44.2509 66.8942 44.0905C67.5089 44.0304 68.0768 44.5248 68.7183 44.2575C69.4866 43.7698 69.4332 42.9146 69.6403 42.1863C70.0479 41.271 70.2617 40.222 71.2505 39.6808C72.1926 39.4269 73.0879 39.0728 73.883 38.4848C74.8585 37.8701 75.9075 37.4291 77.0166 37.1352C77.531 37.0082 78.0255 36.7744 78.5733 36.7944C78.9007 36.8078 79.0009 36.7476 78.8606 36.7009C78.6535 36.6407 78.4998 36.5138 78.4063 36.2933C77.9787 34.7232 77.8317 33.1263 77.9052 31.5027C77.9319 30.7544 77.7582 29.9994 77.9587 29.2578C78.099 28.5295 78.56 27.9081 78.6936 27.1732C78.7805 26.8925 78.9074 26.632 79.0477 26.3848C79.6156 25.4828 79.3818 24.9616 78.3128 24.8414C77.5778 24.6743 77.0633 25.1621 76.4821 25.4494C75.7404 25.7768 74.8718 25.8569 74.3173 26.5652C73.128 27.5006 71.5913 28.1019 71.1703 29.799C70.5556 30.6408 69.7138 30.8814 68.7249 30.741C68.4176 30.6675 68.137 30.5339 67.8764 30.3602C64.8564 27.1732 65.411 24.8948 69.3329 23.3581C71.9988 22.3091 74.8852 21.7946 77.2237 19.8637C78.7471 18.6076 80.2704 19.7635 81.6668 20.5987C82.6223 22.3158 84.2125 22.877 86.0498 22.9706C86.9652 23.0708 87.7803 22.8236 88.4952 22.249C92.1967 20.9929 96.3392 21.0463 99.6131 18.5074C99.8202 18.3002 100.021 18.0864 100.214 17.8593L100.355 17.8259C101.811 17.7591 103.007 18.6343 104.364 18.9216C106.007 19.4294 106.882 17.8593 108.205 17.4985C109.168 17.1043 109.488 16.1087 110.136 15.4206L110.116 15.4005Z" fill="#261F1D"/>
<path d="M81.52 21.1266C79.6626 20.9328 78.1659 20.7324 76.2083 22.1221C74.4644 23.3582 72.0591 24.6811 69.313 24.5742C67.048 24.4873 66.3398 26.6388 67.6293 28.6966C67.9634 29.2312 68.2373 29.7924 68.5313 30.3469C68.4846 31.6899 67.2017 32.0641 66.5202 32.9059C65.6182 33.3335 64.9367 34.0485 64.2552 34.7567C62.9724 35.3647 62.2575 36.4003 61.9635 37.7566C60.9479 38.7121 60.7274 40.2622 59.5248 41.0773C57.2665 41.4849 56.6785 44.2042 54.0594 44.5984C51.7008 44.9525 50.8323 44.585 50.5249 42.4136C50.4113 42.0394 50.2376 41.6853 49.81 41.6319C49.4158 41.5784 49.349 41.859 49.4358 42.1998C50.3646 44.2309 49.5294 45.761 48.006 46.9904C46.7299 48.026 45.3669 48.193 44.6787 46.3623C43.7767 43.9637 42.0395 43.3089 39.7144 43.5361C38.3647 42.8746 38.4249 41.4114 37.8636 40.3023C35.4316 34.3825 29.8192 32.5719 25.4028 36.2934C24.5275 37.2355 24.1868 38.6052 23.0376 39.3335C22.2558 39.9081 21.708 39.6074 21.2135 38.7589C21.7547 40.202 22.4763 39.9014 23.2781 39.1664C24.7213 38.5851 25.8438 39.1731 26.8861 40.1152C27.474 40.7967 27.7814 41.5851 27.7747 42.4871C26.9462 44.6318 27.5542 47.2108 25.817 49.095C21.3739 52.6696 20.0844 56.2775 22.022 61.4823C23.1912 64.6293 23.7057 67.9366 24.915 71.0635C26.1311 74.2171 25.9173 77.4309 24.4473 80.5244C23.3516 82.8228 23.1311 85.1947 23.2848 87.767C23.4719 90.9608 23.532 94.2814 21.4474 97.101C19.4296 99.239 18.4474 102.279 15.688 103.789C15.2203 103.883 14.7459 103.889 14.2715 103.863C12.7014 103.816 11.452 102.72 9.93531 102.493C8.45203 101.598 7.04226 102.179 5.67256 102.767C4.81066 103.134 4.02894 103.923 3.1069 102.914C2.14478 100.068 4.55677 99.8604 6.15363 99.0119C5.87746 98.2903 4.98438 98.0631 3.47438 98.3304C3.20712 98.1032 2.59911 98.464 2.57239 97.8092C2.71938 68.9989 2.58575 40.182 2.65256 11.3717C2.65256 10.2092 2.33186 8.99314 2.97327 7.88403C4.24942 5.25155 5.95318 3.08009 8.95982 2.31173C10.0556 1.61018 11.2783 1.95761 12.4342 1.95761C43.1019 1.93757 73.7762 1.93757 104.437 1.93757C105.413 1.97766 106.742 2.09792 106.729 3.14022C106.716 4.67695 105.079 4.41637 104.016 4.71035C102.526 5.4119 101.391 6.55443 100.275 7.72367C97.0944 9.52097 94.4419 12.0866 91.3617 13.9908C89.0099 15.4474 87.5333 17.6857 85.4888 19.3827C84.5133 20.1979 83.8117 21.3805 82.3619 21.4673C82.0478 21.4406 81.7672 21.3204 81.5267 21.1199L81.52 21.1266Z" fill="#261F1D"/>
<path d="M6.34072 143.871C6.20709 143.697 6.12691 143.503 6.09351 143.29C8.82621 140.677 10.0021 140.751 12.1803 143.657C12.3206 143.858 12.4542 144.085 12.7482 144.118C12.7014 143.951 12.4409 143.991 12.4275 143.771C12.6947 139.989 15.6078 141.365 17.6524 141.051C18.835 140.089 19.4897 138.88 19.5031 137.343C19.5298 136.595 19.1624 135.907 19.1557 135.165C19.0354 134.744 19.2759 135.252 19.1423 134.838C18.3183 132.361 18.3784 129.706 19.3227 126.873C20.2113 124.221 20.973 124.067 23.4251 126.032C23.9596 127.02 24.9485 127.595 25.8037 126.994C26.7591 126.326 25.3093 125.865 25.189 125.21C23.5788 121.528 25.5698 118.729 27.768 115.916C26.1244 115.635 25.1489 116.764 23.8995 116.878C22.8171 117.032 21.6478 117.666 20.8528 116.31C20.5655 114.867 21.4274 113.811 22.0688 112.675C23.552 109.802 26.1444 108.373 29.0241 107.304C30.9617 106.876 31.5363 104.818 33.0731 103.909C34.102 102.186 35.8592 100.582 33.9751 98.3839C33.6477 98.1233 33.2735 97.9696 32.886 98.1567C32.7256 98.2369 32.8459 98.3037 33.1399 98.2569C33.5942 98.1834 33.8414 98.5442 34.0953 98.8649C34.9372 102.947 33.808 104.337 29.8994 104.016C28.9373 103.936 27.9751 103.889 27.0264 104.083C25.3026 104.437 24.3605 103.736 24.14 102.012C23.9863 100.749 24.6879 99.4663 23.9529 98.2102C22.5231 95.7581 24.0665 94.9296 26.0977 94.4018C27.2602 94.1011 28.4295 93.9942 29.6255 94.188C31.5163 94.5755 33.4005 94.9964 35.3447 94.9029C36.1198 94.7559 37.0886 95.9385 37.6899 94.5487C37.7901 94.2815 37.9171 94.0343 38.0641 93.7871C39.4872 89.5377 41.1108 85.315 39.7077 80.7115C39.4805 76.6559 39.7077 72.6003 39.5674 68.5447C39.5674 67.4756 38.9327 66.3532 39.8012 65.3443C41.0841 65.2975 42.3268 65.3777 42.6809 63.5737C42.7945 62.9857 43.2355 63.7942 43.5094 64.008C45.1664 64.6294 45.0729 66.106 45.1798 67.4757C45.4136 70.4689 45.0128 73.4288 44.8056 76.3953C45.28 78.2327 43.5762 80.6514 46.2555 81.9209C47.0573 82.4487 47.5918 83.4376 47.1775 84.099C45.1731 87.2727 46.0083 91.0477 44.799 94.3684C43.7299 95.865 44.3847 97.6356 44.0239 99.2391C42.7812 105.814 41.3647 112.341 39.6275 118.796C39.6543 119.13 39.6275 119.464 39.5474 119.791C38.7055 121.147 38.5251 122.838 37.4026 124.054C35.8926 124.689 35.5519 126.132 35.0708 127.475C35.0307 129.292 32.278 129.593 32.7323 131.691C33.0931 133.121 32.8259 134.43 31.984 135.626C31.4294 136.261 30.5876 136.401 29.5586 136.775C30.6945 137.096 31.5564 136.962 32.3247 137.316C32.906 137.557 33.3938 137.918 33.7612 138.426C34.5185 140.911 36.0886 141.45 38.4716 140.043C38.8391 139.822 39.2467 139.695 39.6743 139.675C40.5295 139.762 41.3847 140.617 42.2333 139.655C43.4493 138.078 42.7678 135.793 44.231 134.317C45.7811 135.225 45.427 137.089 45.7009 138.339C46.0751 140.049 45.5272 141.319 47.9726 140.009C49.0684 139.421 48.8947 140.764 49.0016 141.419C49.1886 142.508 48.5539 143.864 50.0305 144.526C50.9793 144.9 50.8991 145.635 50.7053 146.417C50.2176 147.319 49.2755 147.546 48.447 147.933C46.3624 148.281 44.3847 147.145 42.3001 147.479C40.4026 147.713 38.2445 146.764 36.7078 148.702C36.4338 148.909 36.1332 149.022 35.7991 149.062C32.3114 149.022 28.817 149.376 25.3493 148.862C24.9752 148.909 24.8215 147.218 24.2402 148.728C22.3628 149.29 20.4986 149.376 18.6412 148.682C18.247 147.218 17.2381 148 16.4163 148.087C14.8595 147.9 13.3562 149.176 11.7794 148.247" fill="#281F0F"/>
<path d="M12.1067 144.486C10.5232 141.987 8.27157 142.815 6.09342 143.283C5.43196 141.873 4.04891 141.325 2.84626 140.55C2.54559 135.867 2.32511 131.183 2.96652 126.506C5.03108 125.684 7.09564 124.869 9.15351 124.041C9.16688 124.041 9.14683 123.86 9.10006 123.787C9.04661 123.7 8.94639 123.646 8.86621 123.58C8.02435 122.985 8.12458 122.09 8.10453 121.234C8.27825 120.433 8.26488 119.651 7.85064 118.909C7.63015 118.221 6.96201 117.82 6.72816 117.132C6.62794 116.825 6.48763 116.33 6.66134 116.23C8.7994 114.947 10.2559 112.843 12.374 111.546C13.7436 112.241 15.3873 111.76 16.7436 112.542C16.9641 112.776 17.1178 113.05 17.2313 113.35C17.5587 114.353 16.9307 115.208 16.7971 116.137C16.2959 117.119 16.3026 118.234 15.9886 119.27C15.3205 120.433 14.1646 121.355 14.2314 122.878C13.6702 126.299 12.7615 129.64 11.7726 132.954C10.59 136.916 11.1913 137.898 15.4006 138.366C16.0421 138.439 16.7035 138.399 17.3048 138.713C17.7659 138.987 18.1066 139.368 18.3271 139.856C18.5342 140.597 18.4273 141.265 17.8928 141.847C17.7458 142.501 17.5186 143.283 16.6968 142.655C14.7859 141.212 13.7303 142.401 12.6813 143.791C12.7348 144.232 12.2938 144.252 12.0933 144.472L12.1067 144.486Z" fill="#262018"/>
<path d="M123.533 143.143C122.671 141.987 123.025 140.644 123.018 139.375C122.992 124.368 123.005 109.355 123.005 94.3485C123.005 92.8385 123.132 91.3151 122.35 89.9187C122.698 89.5111 123.125 88.7093 123.372 88.7628C124.455 88.9966 123.907 89.9788 123.914 90.6135C123.96 102.727 124.034 114.847 123.954 126.96C123.92 132.352 124.448 137.764 123.533 143.136V143.143Z" fill="#231801"/>
<path d="M2.99347 112.088C1.2563 109.789 2.97342 108.36 4.30303 106.829C4.41661 106.736 4.53019 106.636 4.6371 106.535C5.64599 106.242 6.65488 106.008 7.71055 106.255C9.6348 107.524 12.1804 106.522 14.0579 107.965C14.4053 108.607 14.1982 109.175 13.8307 109.729C13.4298 110.224 12.882 110.531 12.3608 110.878C10.3898 112.656 9.06019 115.175 6.32749 116.103C5.77962 116.29 5.33864 116.431 4.82418 116.177C4.48342 115.836 4.35648 115.422 4.43665 114.947C4.9578 113.484 3.85537 112.843 2.98679 112.088H2.99347Z" fill="#2C2913"/>
<path d="M82.1012 21.0933C85.5956 17.9597 88.8561 14.4987 92.6645 11.8061C94.9496 10.1825 97.2146 8.09127 100.275 7.73047C99.2323 10.3629 96.3994 10.9175 94.5153 12.5678C91.963 14.8061 88.9764 16.5232 86.825 19.2893C86.0299 20.3116 85.3016 21.0733 86.07 22.3561C83.6379 23.2581 83.1034 23.091 82.1079 21.1L82.1012 21.0933Z" fill="#B6AF3A"/>
<path d="M100.174 18.3804C99.1789 21.6543 95.9784 21.3536 93.6199 22.1754C92.0832 22.7099 90.2057 22.2422 88.4752 22.2289C89.8449 20.3647 92.317 20.7589 94.0676 19.563C94.5954 19.2022 95.2435 18.9015 95.7179 18.3804C97.2011 17.4249 98.6911 18.1599 100.174 18.3804Z" fill="#6A650D"/>
<path d="M10.1159 101.665C11.5858 101.578 12.6883 102.56 13.9845 102.981C14.8263 104.137 14.98 105.166 13.4767 105.914C10.1961 104.357 7.29635 106.482 4.20954 106.883L4.2964 106.823C3.78193 106.522 2.81312 106.716 2.99352 105.647C4.2229 102.273 7.30972 102.219 10.1159 101.665Z" fill="#32260B"/>
<path d="M4.86422 114.546C4.87758 115.027 4.89763 115.508 4.91099 115.983C5.57245 116.758 6.68157 116.571 7.4232 117.172C8.1782 117.266 8.73944 117.58 8.85303 118.415C7.16263 120.366 5.09139 119.671 3.06024 119.25C1.71727 117.292 3.11369 115.996 4.16935 114.62C4.37648 114.372 4.61033 114.359 4.86422 114.546Z" fill="#3A3206"/>
<path d="M120.506 11.7861C120.933 12.7349 119.043 13.6302 120.446 14.599C119.43 15.9487 118.094 16.2827 116.517 15.8618C115.942 15.1736 116.023 14.3718 116.109 13.5701C116.049 13.0289 116.123 12.5077 116.423 12.04C117.8 12.1536 119.196 12.6614 120.512 11.7861H120.506Z" fill="#777010"/>
<path d="M108.747 18.7546C107.016 18.013 106.148 21.7813 104.143 19.6366C103.408 18.8348 102.687 18.0264 104.237 17.3181L106.696 17.2046C107.958 16.944 108.981 17.0108 108.74 18.748L108.747 18.7546Z" fill="#47420B"/>
<path d="M2.97347 126.513C2.93338 131.196 2.89329 135.873 2.8532 140.557C2.00466 135.867 1.79754 131.183 2.97347 126.513Z" fill="#DED067"/>
<path d="M105.179 2.3048C105.927 2.23131 106.675 2.15113 107.417 2.07764C109.094 4.356 106.568 5.02414 105.64 5.96622C104.744 6.86821 104.791 4.89051 104.009 4.7168C103.482 3.46737 107.397 4.37604 105.179 2.3048Z" fill="#C7C11A"/>
<path d="M104.243 17.318C103.067 18.0463 105.105 18.9015 104.15 19.6365C102.613 19.5697 101.217 19.2289 100.335 17.7991C101.477 16.3225 102.961 17.6387 104.243 17.318Z" fill="#807928"/>
<path d="M100.174 18.3807C98.691 18.7281 97.201 19.3896 95.7178 18.3807C96.7267 14.2048 98.7311 18.2604 100.194 17.8395C100.241 18.0199 100.234 18.2003 100.174 18.3807Z" fill="#D0CA1C"/>
<path d="M82.1011 21.0932C83.2235 22.1422 84.7068 22.0352 86.0631 22.3493C86.1099 22.5497 86.1032 22.7502 86.0364 22.9439C83.2369 24.3203 81.9875 23.8125 81.5198 21.1266C81.7135 21.0865 81.9073 21.0798 82.1011 21.0932Z" fill="#6F6E06"/>
<path d="M117.012 13.0955C117.226 14.0844 116.985 14.993 116.517 15.8549C115.268 15.6211 114.019 15.3872 112.769 15.1467C113.183 14.7926 113.598 14.4385 114.012 14.0844C114.68 12.7414 115.709 12.4942 117.012 13.0888V13.0955Z" fill="#7E7A09"/>
<path d="M108.747 18.755C108.359 17.853 107.497 17.5723 106.702 17.2115C107.09 15.2004 108.987 16.0289 110.11 15.4009C110.531 16.8775 110.016 17.9732 108.74 18.755H108.747Z" fill="#79711E"/>
<path d="M117.012 13.0957C116.009 13.4298 115.007 13.7572 114.012 14.0913C113.417 13.0757 113.491 11.9599 114.312 11.2784C115.094 10.6236 115.589 12.0802 116.424 12.0334C116.617 12.3875 116.818 12.7416 117.012 13.0957Z" fill="#F2EA26"/>
<path d="M6.34082 143.871C7.53679 144.098 9.63476 142.875 9.70825 144.653L6.34082 143.871Z" fill="#DED75D"/>
<path d="M38.672 119.163C39.3134 114.058 40.3958 109.014 41.8791 104.116C42.4069 102.386 42.0127 100.448 43.1686 98.9116C43.5427 98.7647 43.9436 98.7513 44.3111 98.6845C44.7521 98.1967 44.4047 97.7357 44.271 97.2747C44.0372 96.1389 44.2978 94.9629 43.9637 93.8405C43.977 93.7335 43.9704 93.6266 43.9971 93.5197C44.8122 90.3394 42.6207 86.4174 46.4024 83.9185C46.7632 83.678 46.536 82.6892 45.9414 82.2282C43.1953 81.5801 44.9859 79.6358 44.8055 78.2527C44.8857 78.0857 44.9926 77.9387 45.1329 77.8184C45.3534 77.6247 45.3668 77.5378 45.153 77.5779C44.8323 77.7182 44.5316 77.8251 44.2042 77.7449C43.2755 73.2016 43.9236 68.578 43.5227 64.0079C43.7165 63.42 43.7632 62.4512 44.1307 62.3109C45.1396 61.9166 45.0995 63.0725 45.487 63.607C45.9414 64.2351 45.9414 65.3242 47.1173 65.2239C48.2799 64.9032 47.8122 66.2863 48.4536 66.5068C49.9302 72.9811 49.2554 79.5289 49.0683 86.0566C49.5761 93.4529 49.4892 100.849 49.1084 108.246C48.8077 110.39 49.8968 112.816 47.8389 114.613C46.8233 114.205 46.0149 114.038 45.9614 115.609C45.928 116.644 46.0884 117.693 45.8077 118.722C45.467 119.45 44.9659 119.998 44.1441 120.179C42.3735 119.584 40.4158 119.951 38.6787 119.163H38.672Z" fill="#F9F305"/>
<path d="M38.6119 94.7894L38.6787 94.9899C38.191 95.8451 37.6164 95.4776 37.0351 95.1235C36.3002 92.9587 35.1443 90.9209 35.0374 88.843C34.4227 90.4198 36.8013 91.863 35.7991 93.7739C34.5764 94.903 33.7211 94.0411 32.906 93.2059C32.2044 92.4777 31.8503 91.3819 30.6544 91.2149C29.739 90.7204 28.7435 91.1614 27.7947 90.9877C26.7658 90.5868 26.3114 89.8185 26.3315 88.7361C26.8125 86.9454 27.7012 85.4087 29.1377 84.2127C30.935 83.8653 31.7234 82.509 32.3715 80.9856C34.0151 77.1104 34.5095 72.9679 35.5318 68.9323C34.3692 68.5582 34.0418 69.6005 33.3136 69.6606C33.0062 69.7341 32.6989 69.7408 32.3848 69.7007C31.5697 69.4936 31.0753 68.8589 30.5141 68.3043C30.327 68.037 30.1933 67.7497 30.0998 67.4424C29.9595 66.801 30.0063 66.1796 30.2869 65.5783C30.8548 64.556 31.9706 64.3355 32.8525 63.7609C33.7879 63.1529 35.1844 62.5115 34.6699 61.1084C34.2556 59.9792 34.2156 58.7766 32.2379 58.2287C26.9128 56.7454 25.229 54.1597 25.4362 49.6498C26.8192 48.4672 28.5297 49.3825 30.0263 48.9282C31.8303 49.3424 33.5207 49.456 34.3625 47.2846C35.8057 46.7367 36.9148 47.2578 37.8369 48.3603C38.2912 49.0084 38.2845 49.8502 38.7188 50.505C38.9727 51.5273 39.8213 52.2088 40.2221 53.1442C40.6164 54.0996 41.211 54.9816 41.2511 56.0639C40.9237 58.2621 40.8702 60.5739 38.9326 62.1641C38.8792 63.2665 38.8257 64.3623 38.779 65.4647C39.7344 67.6696 38.2845 70.1283 39.4805 72.3065C39.5941 76.6026 38.191 80.9455 39.2801 85.1481C40.1687 88.569 38.926 91.589 38.6052 94.7827L38.6119 94.7894Z" fill="#2B2012"/>
<path d="M123.573 17.2114C124.161 20.8595 123.8 24.5276 123.814 28.1823C123.867 40.8102 123.854 53.4447 123.78 66.0726C123.78 67.1016 124.562 68.4846 123.025 69.1995C122.31 67.6561 120.74 67.3889 119.397 66.7742C119.411 66.4201 117.874 66.6138 118.996 66.0593C119.992 65.5648 121.308 67.1283 122.664 65.9991C121.402 64.596 119.571 65.9189 118.415 64.8098C118.495 64.6161 118.575 64.2753 118.636 64.2753C122.611 64.5359 123.139 62.3978 123.079 58.9168C122.865 46.2756 122.985 33.6277 123.005 20.9797C123.005 19.7103 122.705 18.3673 123.56 17.2114H123.573Z" fill="#241B01"/>
<path d="M80.7848 148.374C71.7048 148.374 62.618 148.374 53.538 148.374C51.8877 147.786 50.1505 148.374 48.4801 148.02C48.1728 147.76 48.1394 147.466 48.3732 147.145C48.8877 146.544 49.5959 146.517 50.3109 146.497C51.9812 145.1 53.7718 146.236 55.5157 146.243C57.3598 146.63 59.0435 145.842 60.8007 145.555C62.9922 145.561 65.1904 145.394 67.3752 145.775C70.021 146.37 72.6869 146.176 75.3528 145.976C75.7203 146.049 76.0343 146.223 76.2882 146.49C77.5777 147.626 79.669 146.844 80.7915 148.381L80.7848 148.374Z" fill="#231C1F"/>
<path d="M76.2817 146.483C76.0612 146.51 75.8341 146.537 75.6136 146.557C72.9811 147.125 70.3152 146.684 67.6694 146.804C65.4177 145.929 63.1394 145.875 60.8276 146.55C59.1439 147.512 57.3466 147.145 55.5693 147.004C55.0816 146.737 54.1662 146.958 54.1595 146.176C54.1595 145.401 55.0749 145.595 55.5493 145.294C60.7274 144.238 66.0057 144.392 71.2372 143.971C73.0613 143.824 74.6381 144.325 76.2015 145.053C77.0033 145.428 77.0033 145.969 76.2684 146.476L76.2817 146.483Z" fill="#EBE71D"/>
<path d="M60.6139 49.0218C59.3845 50.0641 58.9101 51.8948 57.1195 52.3424C55.4825 52.8168 53.8322 53.3446 53.1775 50.9794C52.7365 49.6632 53.8656 48.8013 54.1329 47.6855C55.1017 46.5296 55.8166 45.1799 56.8055 44.0307C57.36 43.5096 57.6807 42.7546 58.4157 42.4071C59.5716 42.0731 60.6072 41.1243 61.9502 41.6722C62.184 41.8726 62.3377 42.1265 62.4179 42.4205C62.5114 43.7301 61.1751 44.7456 61.6361 46.1421C61.6294 46.9037 61.7096 47.6788 61.282 48.3737C61.0816 48.6142 60.8611 48.8347 60.6139 49.0218Z" fill="#F0F111"/>
<path d="M70.6225 42.6142C70.5223 43.6699 70.2216 44.6253 69.2328 45.2066C68.1637 45.9549 68.1637 43.603 67.0546 44.4583C66.4199 45.3268 65.7785 46.1954 65.1437 47.0573C64.2618 47.1576 64.0947 46.5295 63.9478 45.8814C63.8809 45.2199 64.1682 44.6587 64.4622 44.1042C64.9901 43.0084 66.2462 42.1933 65.7851 40.7033C65.6983 40.416 65.6448 40.1287 65.6048 39.8347C65.5446 39.367 65.6047 38.906 65.6382 38.4316C65.6716 38.0976 65.7584 37.7768 65.8987 37.4695C66.0658 37.1555 66.2929 36.8949 66.5736 36.6811C67.5624 36.1065 68.5646 35.7925 69.6537 36.4272C71.9187 38.1777 70.6292 40.4962 70.6225 42.6075V42.6142Z" fill="#E9E727"/>
<path d="M77.6314 37.9435C76.4822 38.1974 75.647 39.3466 74.3308 39.1261C72.6538 39.0326 71.2974 38.478 70.7562 36.7008C70.7095 35.8589 71.117 35.1841 71.578 34.536C72.9745 32.9458 74.0903 30.9213 76.6893 31.1285C78.1191 32.271 76.7161 33.8812 77.3575 35.1507C77.7851 36.046 78.3998 36.9279 77.6314 37.9435Z" fill="#F2F11E"/>
<path d="M38.9395 62.1705C39.2334 60.1059 39.5541 58.048 40.563 56.1772C41.3581 55.6628 41.3448 54.6004 42.0196 53.9991C42.3603 53.6717 42.7612 53.478 43.249 53.498C44.2512 57.6338 42.4405 61.2819 38.9461 62.1705H38.9395Z" fill="#C9CF20"/>
<path d="M79.4022 26.9795C79.4289 27.6677 80.0971 28.5296 78.9011 28.897C76.5359 30.3135 74.9056 33.113 71.6117 32.8257C70.997 32.5852 70.5093 32.2043 70.2286 31.5897C70.3957 29.7857 71.9124 29.0841 73.0816 28.0886C73.7431 27.681 74.4446 27.367 75.2197 27.2401C76.1083 26.9995 76.7831 26.2245 77.7653 26.1978C78.4334 26.1978 79.0281 26.3581 79.4022 26.9795Z" fill="#ECEA1E"/>
<path d="M47.7722 56.104C46.9704 54.7075 49.0083 53.2577 47.6987 51.8679C47.2444 51.2132 47.4448 50.5851 47.7922 49.9704C48.6675 48.8947 49.9837 48.3869 50.9926 47.4649C51.7343 46.7901 52.6429 46.456 53.3712 47.5918C53.5717 50.2978 51.0394 51.9013 50.6318 54.3601C50.3846 54.761 50.0506 55.0884 49.7031 55.4024V55.5962C49.0617 55.7632 48.6074 56.6585 47.7722 56.0973V56.104Z" fill="#E0E02D"/>
<path d="M44.2309 134.31C44.9992 136.288 43.7097 138.172 43.9569 140.156C44.0572 140.991 43.1285 140.818 42.5204 140.744C41.3512 140.557 40.6029 139.876 40.1953 138.78C40.0283 137.37 40.4492 136.114 41.1975 134.945C41.9926 134.41 42.4202 133.188 43.7164 133.568C43.8901 133.816 44.0638 134.063 44.2309 134.31Z" fill="#E7ED17"/>
<path d="M49.7033 55.4092C49.7033 55.0551 49.6899 54.6943 49.6832 54.3402C50.9059 52.9104 50.9193 50.338 53.5384 50.2178C54.24 51.7612 55.3557 52.6097 57.1263 52.3491C54.5473 53.1108 52.77 55.8302 49.7033 55.4159V55.4092Z" fill="#DFE52F"/>
<path d="M49.095 108.246C49.0817 100.849 49.0683 93.453 49.0549 86.0566C50.3779 93.453 50.1039 100.849 49.095 108.246Z" fill="#F0EA4E"/>
<path d="M71.7385 32.1844C73.9166 32.7724 74.9723 30.9951 76.3487 29.9461C77.1237 29.3582 77.4912 27.9016 78.901 28.9038C78.8609 29.7858 78.8208 30.6677 78.7807 31.5497C78.146 31.9372 77.5179 32.0909 76.8899 31.5363C74.6315 31.9639 73.4356 33.6142 72.42 35.4583C71.1572 34.583 70.763 33.5274 71.7385 32.1911V32.1844Z" fill="#6E6609"/>
<path d="M43.2424 53.4979C43.0487 53.7385 42.8482 53.979 42.6545 54.2195C41.4318 54.6471 40.3293 54.3064 39.267 53.6917C38.7592 52.7496 38.2514 51.8008 37.7369 50.8588C37.924 50.6049 38.1579 50.4111 38.4385 50.2641C39.8215 49.9301 41.218 50.1372 42.6144 50.204C42.9351 50.2908 43.2224 50.4378 43.483 50.6383C43.944 51.1461 44.2981 51.6806 43.8772 52.3888C43.6634 52.7563 43.4562 53.1304 43.2424 53.4979Z" fill="#E0E427"/>
<path d="M44.9993 118.635C45.1196 116.657 45.2399 114.673 45.4136 111.894C46.2554 113.37 46.8501 114.225 47.8323 114.613C46.1151 115.348 46.8768 116.651 47.0906 117.833C45.8278 118.922 47.251 121.06 45.4804 121.949C43.8167 121.06 44.8323 119.784 45.006 118.628L44.9993 118.635Z" fill="#625A00"/>
<path d="M75.6336 28.2425C74.9521 28.4764 74.2706 28.7102 73.5891 28.9441C72.5134 29.1579 71.6315 30.2804 70.3754 29.6122C70.5157 27.4007 71.9722 26.325 73.8297 25.5967C75.6537 25.6368 76.7227 26.2047 75.6336 28.2358V28.2425Z" fill="#F2F111"/>
<path d="M43.7099 133.568C43.0284 134.13 43.0217 135.339 41.8926 135.466C40.7367 134.257 41.2979 132.934 41.6454 131.624C41.926 130.829 42.2333 130.041 42.3803 129.205C43.0552 127.328 41.8659 124.776 44.4048 123.573C45.0329 123.499 45.4404 123.82 45.7545 124.315C46.1954 125.377 46.1219 126.439 45.7812 127.508C45.0529 129.272 44.6854 131.17 43.8235 132.887C43.7834 133.114 43.75 133.341 43.7099 133.562V133.568Z" fill="#68590C"/>
<path d="M76.8898 31.5293C77.5245 31.2153 78.1526 31.1284 78.7806 31.5427C78.5535 33.2398 79.8096 34.9034 78.9009 36.6139C78.0657 37.0615 77.5579 36.3533 77.5379 35.8656C77.4377 33.6607 76.6492 36.1796 76.3553 35.6584C75.019 34.0816 76.823 32.9191 76.8965 31.5226L76.8898 31.5293Z" fill="#A7A207"/>
<path d="M43.8767 52.389C43.6295 51.8946 43.3756 51.4001 43.1284 50.899C43.3823 48.614 45.1462 48.2532 46.9301 47.9058C47.6451 48.0327 48.086 48.4336 48.1862 49.1752C48.1729 49.4959 48.0793 49.7966 47.8989 50.0639C46.997 51.0661 46.7631 52.7164 45.0861 52.9703C44.6852 52.7765 44.2843 52.5828 43.8834 52.389H43.8767Z" fill="#EAF21F"/>
<path d="M45.7675 121.749C45.9546 120.359 45.2129 118.655 47.0837 117.833C47.0303 121.107 47.9189 124.441 46.449 127.622C45.1327 126.386 46.2819 124.515 45.3131 123.192C45.233 122.637 45.38 122.156 45.7675 121.749Z" fill="#EFED56"/>
<path d="M71.1371 36.5872C72.1994 37.4291 73.2618 38.2776 74.3308 39.1195C73.5625 39.7676 73.3887 42.2598 71.6716 39.9747C70.7496 39.0794 69.9411 38.1307 70.2685 36.7008C70.5358 36.4937 70.8298 36.4536 71.1371 36.5872Z" fill="#D7D52B"/>
<path d="M79.402 26.9798L77.745 26.7192C76.843 26.452 76.1415 26.011 76.1816 24.9219C76.215 23.619 77.3976 23.7126 78.1593 23.2983C79.9699 24.0199 80.745 25.129 79.5022 26.9731H79.402V26.9798Z" fill="#8F9206"/>
<path d="M38.5318 72.647C37.9037 70.2284 37.7968 67.8297 38.779 65.4645C39.1198 65.4244 39.4605 65.3843 39.8013 65.3442C39.9883 66.1527 40.1687 66.9678 40.3558 67.7763C40.2088 68.0368 40.0552 68.2974 39.8948 68.5513C39.1465 69.8208 40.3157 71.725 38.5318 72.647Z" fill="#D8E72D"/>
<path d="M76.1815 24.9217C76.9498 25.3092 77.5712 25.8237 77.7449 26.719C77.0901 27.2936 76.716 28.2624 75.6336 28.2357C75.8006 26.8326 74.8719 26.1778 73.8296 25.5965C74.3775 24.5342 75.2728 24.7146 76.1815 24.9217Z" fill="#CEC52D"/>
<path d="M64.5762 45.7674C64.77 46.2017 64.9571 46.6293 65.1508 47.0636C64.3691 49.4021 62.2979 48.7674 60.6208 49.0279C60.6609 48.7874 60.701 48.5536 60.7411 48.313C61.1687 47.8654 60.9549 47.1705 61.3692 46.7229C62.3714 46.1817 63.2867 45.3398 64.5829 45.7674H64.5762Z" fill="#D5D92A"/>
<path d="M45.9416 122.992C46.7634 124.462 46.2757 126.079 46.4494 127.622C46.2423 128.103 46.0351 128.584 45.8347 129.065C44.6788 129.052 44.7055 128.424 45.0797 127.615C45.1666 126.519 45.2534 125.424 45.3403 124.328C45.4004 123.82 45.1599 123.172 45.9416 122.992Z" fill="#EBF017"/>
<path d="M47.7722 56.1039C48.4603 56.1039 48.9347 55.2687 49.7098 55.6028C48.6541 58.3155 45.7343 57.8878 43.79 59.1306C44.6319 57.4602 46.8301 57.6139 47.7722 56.1039Z" fill="#787835"/>
<path d="M76.7897 49.5564C77.5113 47.8727 78.2395 46.1823 78.9611 44.4985C79.1749 46.6232 78.6872 48.4406 76.7897 49.5564Z" fill="#B9B84F"/>
<path d="M45.0797 52.9637C45.8882 51.8412 46.2957 50.3646 47.7857 49.8301C48.0529 49.9103 48.24 50.0773 48.3536 50.3379C48.1331 50.8456 47.9126 51.3601 47.6921 51.8679C46.9371 52.5093 46.6164 54.1864 45.0797 52.9637Z" fill="#5A5304"/>
<path d="M65.9924 32.0844C66.3666 30.815 67.3621 30.4609 68.5247 30.3473C68.685 30.2203 68.8521 30.1067 69.0258 29.9932C69.7073 30.5678 69.8075 31.296 69.6071 32.1112C68.9857 33.3472 67.9835 33.7281 66.6739 33.4074C66.1528 33.1201 65.645 32.8261 65.9924 32.0911V32.0844Z" fill="#645E15"/>
<path d="M69.1594 31.9704C69.1126 31.3089 69.0725 30.6474 69.0258 29.986C69.3665 29.4782 69.901 29.6452 70.3754 29.6118C71.4444 29.3713 72.3999 28.6029 73.5892 28.9437C72.9945 30.3267 70.8097 29.7521 70.4823 31.4626C70.4355 31.9102 70.1883 32.1975 69.7741 32.3579C69.4801 32.3713 69.273 32.2376 69.1594 31.9704Z" fill="#706709"/>
<path d="M76.3553 35.6654C76.636 35.0039 76.9166 34.3358 77.2573 33.5474C77.8186 34.6097 77.7117 35.9928 78.9076 36.6208C79.048 37.603 78.48 37.9036 77.6382 37.9437C77.2106 37.1821 76.7896 36.4271 76.362 35.6654H76.3553Z" fill="#EADD42"/>
<path d="M67.0614 44.4581C67.489 43.8969 67.9099 43.3357 68.3375 42.7744C69.7273 43.2622 67.5959 44.8924 69.2329 45.2065C68.7318 45.6875 68.224 46.1686 67.7162 46.6563C67.0614 45.9347 68.3509 44.8457 67.0614 44.4515V44.4581Z" fill="#716D06"/>
<path d="M70.5159 36.8279C70.8967 37.8768 71.2842 38.9258 71.6651 39.9748C70.7898 40.643 71.6317 41.9993 70.6228 42.614C70.2753 40.6296 70.8499 38.398 69.0593 36.8078C69.5538 36.3401 70.0348 36.3334 70.5159 36.8279Z" fill="#817201"/>
<path d="M48.4472 66.5067C47.9995 66.0791 47.5519 65.6515 47.1109 65.2239C47.0909 64.2083 46.857 63.1593 47.6989 61.8364C48.5207 63.5201 48.5006 65.0101 48.4472 66.5067Z" fill="#B9AF62"/>
<path d="M72.8675 48.3804C73.8564 49.249 74.7317 50.3113 76.3419 50.1977C74.2239 51.8146 73.2818 50.4115 72.3397 49.0084C72.4399 48.7345 72.6137 48.5274 72.8742 48.387L72.8675 48.3804Z" fill="#A9B12E"/>
<path d="M79.5025 26.973C79.596 25.5499 79.282 24.2738 78.1595 23.2983C79.8032 22.5366 80.1506 23.8662 80.625 24.8818C81.1528 26.0176 80.625 26.6791 79.5025 26.9664V26.973Z" fill="#C8C854"/>
<path d="M45.0796 127.615C45.3335 128.096 45.5807 128.584 45.8346 129.065C45.387 130.455 45.0462 131.905 43.8302 132.887C43.9237 131.049 44.3246 129.292 45.0863 127.608L45.0796 127.615Z" fill="#D8D646"/>
<path d="M72.8676 48.3802C72.6872 48.5873 72.5135 48.7944 72.3331 49.0016C71.3108 48.0929 69.9812 48.3334 67.9233 48.1931C70.2485 46.9237 71.5848 47.3045 72.8676 48.3802Z" fill="#D4CF6B"/>
<path d="M37.2225 94.4483C37.4563 95.3169 38.1044 95.043 38.679 94.9895C38.7993 95.8848 38.5454 96.7133 37.7169 97.0407C36.688 97.4416 36.4274 96.3525 35.9062 95.798C33.7415 95.043 31.4497 95.9249 29.2783 95.2701C27.2471 94.5686 25.8039 96.2991 23.7394 96.3659C28.3629 97.4215 25.6102 99.7935 25.0823 101.698C24.3674 102.78 24.4008 103.776 25.8373 103.969C27.1068 104.136 27.7215 104.651 27.795 105.887C27.6012 107.744 26.5055 108.192 24.8552 107.778C23.4254 107.049 21.8151 107.337 20.3118 107.009C19.4366 106.682 18.8887 106.007 18.4143 105.245C17.666 103.281 16.7707 101.397 19.1893 99.74C20.098 99.1186 19.2762 97.1877 20.7595 96.5663C22.3296 93.72 22.2027 90.5731 21.9421 87.5531C21.7016 84.7469 21.9087 82.1545 23.3585 79.7826C25.1959 76.7693 24.5278 73.7827 23.5657 70.7427C22.4298 67.1547 21.294 63.5601 20.1916 59.9655C19.3631 57.2529 20.0178 54.5736 20.6993 51.9879C21.3007 49.6962 23.4788 49.0147 25.4899 48.3198C26.1447 48.6806 25.9309 49.2753 25.8975 49.8231C26.6525 51.6739 27.5211 55.1349 28.1424 55.0948C30.6212 54.9144 31.7972 56.0101 32.766 57.9745C33.5143 57.1126 33.1602 56.244 33.1936 55.4489C33.2136 54.9612 33.5343 54.9211 33.815 54.9344C34.0956 54.9478 34.6234 55.1683 34.6167 55.2485C34.3027 57.627 35.3584 59.3575 36.5143 61.3887C37.169 62.5312 34.8305 64.6626 32.7994 65.324C32.1446 65.5378 31.2493 64.9565 30.815 65.9254C30.0867 66.4064 29.3785 66.3463 28.6836 65.8585C28.3496 65.6314 27.9888 65.4577 27.6012 65.3374C27.8217 65.6247 28.2093 65.618 28.4698 65.8452C29.8863 66.9209 28.5433 69.0523 30.1068 70.0678C30.8551 70.8429 30.4275 71.8718 30.7081 72.8206C32.031 71.9453 31.4831 70.0344 32.7793 69.2059C33.2404 68.765 33.6479 68.2505 34.1691 67.9031C34.6769 67.569 35.0577 66.226 35.178 66.7071C35.4786 67.8763 37.8572 67.0211 37.022 69.2661C35.6123 73.0611 34.7504 77.0633 33.8216 81.0187C33.2804 83.3371 31.9308 84.5131 29.6725 84.8404C29.2649 85.101 28.8306 85.2012 28.3562 85.0743C27.9487 84.8271 27.7816 84.4329 27.7148 83.9986C27.6814 83.8182 27.5946 83.4841 27.4943 83.4975C27.1135 83.5509 27.2204 83.9251 27.1736 84.199C26.9264 85.415 26.9865 86.6043 27.2605 87.8003C27.2605 88.2413 27.0734 88.6221 26.9398 89.0297C26.893 89.9116 27.4075 90.3393 28.1692 90.5664C29.0578 90.8203 29.9598 90.9606 30.8751 90.7067C33.7214 89.7246 33.227 93.4595 35.1646 93.7601C35.8795 93.6532 35.5922 92.3904 36.3873 92.5642C37.3895 92.778 36.7414 93.9004 37.2024 94.475L37.2225 94.4483Z" fill="#F8F305"/>
<path d="M25.9171 49.8166C25.2756 49.4491 25.4828 48.8611 25.5095 48.3132C26.2912 46.4558 24.7745 44.0238 26.9594 42.5138C27.6275 40.8234 29.4047 40.4225 30.6074 39.3468C30.888 39.2065 31.182 39.1196 31.496 39.0728C31.9637 39.0261 32.4314 39.0461 32.8924 39.1463C33.1797 39.2265 33.4537 39.3535 33.7076 39.5071C34.4359 40.0617 35.104 40.7966 36.173 40.4559C36.9213 39.6675 37.5828 38.4715 38.7788 39.9147C39.3801 40.9503 39.1329 42.32 40.1151 43.202C41.6718 44.585 42.0126 46.2353 40.8767 47.9725C40.1017 49.1618 39.0193 50.0504 37.4759 48.9613C36.5472 48.046 35.4782 47.5115 34.1285 47.752C33.2599 49.3088 31.2822 48.507 30.1998 49.6027C28.8502 51.1662 27.3469 49.7631 25.9237 49.8166H25.9171Z" fill="#F6F008"/>
<path d="M37.4693 48.9615C40.6563 47.7722 41.1307 46.7365 40.1084 43.2021C41.124 42.4738 42.1329 41.7455 43.3957 40.8435C43.85 42.5473 43.7966 44.5116 46.0282 44.6787C46.115 44.6787 46.1818 44.8457 46.2754 44.8724C47.6651 45.2065 43.6028 47.3512 46.723 46.6363C48.4001 46.2488 49.7631 44.1976 48.3934 41.9326C49.4557 40.9905 50.5314 41.0573 51.6205 41.8792C51.8677 42.6609 51.0125 44.3112 52.9969 43.7433C54.8075 43.2288 57.4601 43.2622 55.4089 39.8614C57.0324 39.7545 58.048 41.0306 59.3175 40.5763C60.4066 41.7188 59.832 42.4872 58.7429 43.1419C58.3286 43.6096 57.9077 44.0707 57.4935 44.5384C56.5313 44.9927 55.6962 45.6876 54.7073 46.0951C53.9924 46.3691 53.2708 46.6029 52.4958 46.5361C50.7051 47.1909 49.1551 48.5673 47.0705 48.3334C45.7609 49.1886 44.4447 50.0438 43.1351 50.8924L42.8545 50.9325L42.5739 50.8924C41.271 50.271 39.9614 50.0973 38.6251 50.8055C38.3312 50.8189 38.0372 50.8323 37.7432 50.8456C37.3223 50.2643 37.3423 49.6162 37.4693 48.9548V48.9615Z" fill="#292210"/>
<path d="M20.7725 96.5601C20.1244 99.3462 18.0865 101.899 19.3627 105.005C19.6634 106.422 20.1845 107.805 20.0175 109.295C19.6634 110.925 20.0709 112.883 18.0932 113.818C17.5454 113.932 17.0509 113.818 16.6166 113.471C16.5899 113.217 16.5632 112.97 16.5365 112.716C15.4006 111.707 14.3249 110.644 13.3361 109.495C13.5499 109.054 13.7637 108.613 13.9775 108.166C13.2759 106.155 14.9663 104.738 15.2804 102.981C16.5765 101.237 18.6211 100.054 19.2157 97.7961C19.4429 96.9275 19.9707 96.6068 20.7792 96.5667L20.7725 96.5601Z" fill="#2B2613"/>
<path d="M26.2983 40.6766C25.236 40.1822 24.1803 39.6877 23.118 39.1933L23.1313 39.22C23.0979 37.7969 22.8641 36.3069 24.4342 35.4317C26.0044 34.8638 27.4809 34.0219 29.1713 33.7814C32.5187 33.3003 33.5143 34.3292 32.9998 37.7969C32.6256 38.6388 31.8038 38.9661 31.1156 39.4472C30.835 39.5942 30.5544 39.7479 30.2805 39.9015C29.011 40.4427 27.7749 41.1576 26.305 40.6766H26.2983Z" fill="#EFEA0F"/>
<path d="M32.171 37.8236C32.4717 34.1956 31.4227 33.3337 28.0753 34.5765C26.8793 35.0241 25.7301 35.5252 24.4272 35.4317C30.1265 31.1556 36.828 33.2535 38.7722 39.9283C38.211 39.8681 37.3892 39.4272 37.6698 40.6432C37.8502 41.4316 37.5095 41.8325 36.7545 41.9594C35.7522 41.0441 34.0953 41.2312 33.3135 39.935L33.0864 39.9483H32.8592C31.9772 39.4539 31.3893 38.8593 32.1777 37.8236H32.171Z" fill="#ECE81B"/>
<path d="M58.7365 43.1484C59.3044 42.38 59.418 41.5047 59.3111 40.5827C59.6852 39.3333 59.9458 38.0237 61.1685 37.2487C61.4491 37.0683 61.7498 37.0282 62.0638 37.1418C63.4535 38.3511 62.7453 39.801 62.5449 41.1974C62.4246 41.5047 62.2175 41.7386 61.9435 41.919C60.9413 42.507 60.0193 43.2887 58.7365 43.1484Z" fill="#737010"/>
<path d="M23.1177 39.1934C22.9707 39.7613 23.2113 40.5965 22.316 40.69C21.6746 40.7569 21.0532 40.5297 20.6991 39.895C20.6456 39.8014 20.5855 39.6811 20.6055 39.5943C20.9396 38.2112 19.0153 36.1935 20.2715 35.7792C22.3828 35.091 21.2536 37.7569 22.0554 38.6522C22.3093 38.9328 22.7636 39.0331 23.1311 39.2134L23.1177 39.1867V39.1934Z" fill="#261940"/>
<path d="M26.2983 40.6762C27.354 39.5737 28.6101 39.0325 30.1535 39.3198C30.3874 39.5203 30.8417 39.527 30.7816 40.0013C30.2537 41.979 28.2827 41.7519 26.9598 42.5135C26.7393 41.8989 26.5188 41.2908 26.2983 40.6762Z" fill="#71660F"/>
<path d="M62.1508 37.3761C61.8234 37.336 61.496 37.2892 61.1687 37.2492C61.0016 35.1579 62.8056 34.8505 64.0617 34.0354C64.7699 33.5944 65.2243 33.8884 65.545 34.5632C65.6586 35.8461 64.9771 36.6745 63.9748 37.3293C63.3735 37.6166 62.7722 37.7302 62.1508 37.3828V37.3761Z" fill="#676811"/>
<path d="M51.6139 41.8793C50.5382 41.8994 49.4625 41.9127 48.3868 41.9328C47.3913 39.6812 49.7498 40.4228 50.3244 40.1622C52.1685 39.327 51.3333 41.1444 51.6073 41.8793H51.6139Z" fill="#24193D"/>
<path d="M65.2975 34.7168C65.1038 34.0954 64.6361 33.9685 64.0615 34.0353C63.9947 32.679 65.0102 32.3917 65.9991 32.0776C66.2129 32.3382 66.4334 32.6055 66.6472 32.866C67.1216 34.1556 66.7608 34.8371 65.2975 34.7101V34.7168Z" fill="#B4AD25"/>
<path d="M17.2114 139.375C16.5633 139.375 15.9219 139.375 15.2738 139.381C9.32063 139.415 8.5389 138.092 10.5701 132.506C11.7527 129.246 12.3807 125.778 13.256 122.41C14.9063 118.696 15.9954 122.517 17.3584 122.711C18.5477 122.918 19.3828 122.551 19.8105 121.341C20.2514 120.092 21.3138 119.691 22.4964 119.517C23.9462 118.736 21.7147 116.658 23.699 116.07C24.8148 115.248 26.1043 114.807 27.3605 114.252C28.0687 113.938 28.5965 112.95 29.4116 113.725C30.1132 114.399 29.6589 115.362 29.3849 116.163C29.2513 116.558 29.0241 117.005 28.7101 117.239C26.0576 119.21 25.3894 121.916 25.7235 125.023C25.5431 126.827 24.434 126.82 23.1044 126.373C22.1289 126.693 21.6612 125.851 20.6523 125.13C21.1668 128.223 19.5031 130.201 17.6256 132.346C19.1557 132.706 20.492 130.842 21.0465 132.032C21.414 132.82 20.2982 134.297 19.8439 135.466C20.2247 136.488 19.443 136.842 18.7748 136.989C17.3985 137.29 17.4987 138.426 17.2247 139.368L17.2114 139.375Z" fill="#F8F207"/>
<path d="M42.5874 131.691C42.3535 132.953 42.1263 134.209 41.8925 135.472C41.4716 136.601 41.0439 137.731 40.623 138.86C40.6898 139.401 40.4426 139.755 39.9682 139.982C39.721 140.163 39.3536 140.289 39.2533 140.53C38.3313 142.648 36.5874 143.51 34.4828 143.183C31.416 142.708 33.2801 140.283 32.9728 138.713C33.0062 136.875 34.3492 135.138 33.3937 133.221C33.1532 131.47 33.8681 129.967 34.6298 128.47C35.2645 126.86 35.6387 125.116 36.9015 123.806C37.2689 122.363 37.3892 120.813 38.6386 119.744C40.4159 119.791 41.8858 121.167 43.7366 120.913C44.6786 121.715 45.4069 122.577 44.545 123.873C43.2555 125.584 44.4715 127.902 43.1686 129.613C42.6141 129.593 42.0662 129.586 41.5116 129.586C40.8301 129.76 39.8012 128.831 39.5406 130.207C41.5629 129.824 42.5784 130.316 42.5874 131.684V131.691Z" fill="#F6F306"/>
<path d="M38.532 72.6469C39.2001 71.1503 37.5966 69.0055 39.8616 67.9565C40.7302 71.1302 40.0086 74.3707 40.2691 77.5644C40.3694 78.8272 39.8883 80.1501 40.6099 81.3595C41.0108 81.4664 41.886 80.8383 41.7457 81.7871C41.091 86.2102 41.1644 90.827 38.6055 94.7891C38.3315 92.484 36.9284 90.0119 39.9618 87.807C37.7369 88.5219 37.4295 87.8538 37.6166 86.0632C38.0776 81.6067 38.2447 77.1234 38.5253 72.6469H38.532Z" fill="#F0E915"/>
<path d="M17.8661 113.397C18.8617 112.027 17.8996 110.05 19.2759 108.8C23.0042 108.239 23.8995 109.335 23.071 113.43C22.4229 114.279 21.7748 115.134 21.1267 115.983C20.8928 116.978 21.3739 118.154 20.3917 118.976C19.5165 119.898 18.2603 120.012 17.178 120.506C15.9753 120.833 14.9865 120.847 15.2537 119.123C15.5811 118.047 14.8528 116.771 15.855 115.816C17.3584 115.702 16.9775 114.018 17.8661 113.39V113.397Z" fill="#F3F00B"/>
<path d="M23.0641 113.431C23.6253 110.391 21.4472 109.595 19.269 108.8C18.347 107.511 19.6632 106.275 19.3559 105.005C19.7635 105.446 20.171 105.881 20.5853 106.322C21.9616 107.337 23.5385 106.702 25.0151 106.843C26.1442 107.13 27.1063 107.163 26.9727 105.547C27.6208 104.878 28.2956 104.304 29.3112 104.818C30.5606 105.78 30.5205 106.95 29.8524 108.219C27.1331 109.368 24.1598 110.17 23.0574 113.431H23.0641Z" fill="#ECEB22"/>
<path d="M30.7813 122.524C30.2869 116.511 29.3515 116.724 32.926 114.039C34.5764 112.802 34.8236 113.491 35.0841 115.014C35.6521 118.388 34.1554 120.693 31.4762 122.45C31.2757 122.778 31.0419 122.805 30.7813 122.517V122.524Z" fill="#F3F10F"/>
<path d="M28.8774 104.932C28.2493 105.132 27.6146 105.339 26.9865 105.54C26.8596 104.003 22.53 104.544 25.089 101.685C25.0623 102.426 24.4075 103.522 26.0311 103.335C27.0266 103.221 27.9353 102.974 29.0311 103.081C33.4408 103.529 33.688 103.141 33.3472 98.3639C33.3406 97.8427 33.4408 97.4552 34.0956 97.7759C36.2002 97.4552 36.9352 98.6779 36.2603 100.328C35.6657 101.778 35.3984 103.636 33.6078 104.377C32.1379 105.473 30.4876 105.039 28.8774 104.932Z" fill="#DFE61A"/>
<path d="M23.091 126.373C23.9662 125.925 24.8415 125.477 25.7101 125.023C27.494 125.417 28.7702 125.998 27.474 128.21C27.0998 128.851 26.2045 129.513 26.258 129.252C26.9127 126.226 20.0509 131.604 23.0843 126.373H23.091Z" fill="#261D26"/>
<path d="M43.2424 121.281C40.6433 123.954 39.895 121.074 38.6322 119.744C38.6322 119.55 38.6456 119.357 38.6723 119.163C40.4963 118.261 42.3604 117.065 43.8036 119.711C43.9105 120.339 43.6967 120.853 43.2424 121.281Z" fill="#342B13"/>
<path d="M35.2846 128.337C34.8837 130.08 34.4761 131.818 34.0752 133.561C34.7166 135.172 33.9683 135.994 32.4717 136.394C31.9238 136.314 31.6031 135.987 31.4427 135.472C31.5096 134.116 32.1109 132.78 31.5764 131.41C32.1042 129.954 33.4806 129.292 34.5028 128.303C34.7701 128.143 35.0307 128.163 35.2846 128.337Z" fill="#3D2F14"/>
<path d="M19.8374 118.381C20.265 117.579 20.6926 116.784 21.1202 115.982C21.942 117.071 22.844 115.742 23.6926 116.076C23.5656 117.613 24.8217 118.956 24.3407 120.526C23.9264 121.875 23.432 121.181 22.9843 120.519C22.1224 119.53 20.2717 120.005 19.8374 118.388V118.381Z" fill="#E6DD26"/>
<path d="M28.1358 131.397C27.1469 135.453 23.8463 134.577 21.0067 135.753C22.5969 132.473 25.3029 132.252 28.1358 131.397Z" fill="#E2E028"/>
<path d="M31.443 135.472C31.6635 135.659 31.884 135.853 32.1045 136.04C32.6924 136.742 32.7459 137.417 31.9909 138.045C31.3562 138.045 30.7081 138.111 30.0867 138.031C29.2047 137.924 27.9419 138.499 27.5811 137.383C27.3807 136.762 27.9419 135.773 28.3829 135.091C29.4319 133.495 29.5722 136.214 30.5076 135.613C30.7481 135.459 31.129 135.512 31.443 135.472Z" fill="#271C2F"/>
<path d="M17.2115 139.374C17.0378 137.851 15.5011 138.552 14.7194 137.891C15.7416 135.572 18.3607 136.715 19.8306 135.472C20.3585 135.973 20.452 136.621 20.4787 137.296C19.8507 138.445 19.5634 139.922 17.873 140.069C17.6525 139.835 17.432 139.608 17.2115 139.374Z" fill="#3E320A"/>
<path d="M28.8772 104.932C30.2268 102.794 32.0575 104.771 33.6076 104.377C32.7658 106.054 31.7435 107.557 29.8594 108.212C29.532 107.116 29.2046 106.021 28.8772 104.925V104.932Z" fill="#F8F305"/>
<path d="M33.474 111.9C34.1087 109.722 32.2446 106.662 35.8793 105.059C35.4651 107.724 35.6455 110.15 33.474 111.9Z" fill="#C1C334"/>
<path d="M48.1932 147.713C49.9571 148.094 51.8613 147.272 53.5383 148.374C47.9259 148.348 42.3202 148.321 36.7079 148.294C36.7079 148.174 36.7079 148.047 36.7012 147.927C38.2245 146.53 40.0953 147.412 41.7991 147.152C43.9505 147.145 46.1086 147.051 48.1999 147.713H48.1932Z" fill="#211508"/>
<path d="M24.4274 139.081C23.8528 141.279 25.4764 142.956 24.2537 144.626C21.0065 143.103 20.9598 142.294 24.4274 139.081Z" fill="#DEE11D"/>
<path d="M44.1909 77.7381C44.4983 77.4709 44.8056 77.2036 45.113 76.9297C45.4804 77.3239 45.5339 77.7515 45.2466 78.2125C46.6697 79.3417 43.9771 81.1857 45.9348 82.2214C45.3535 82.7358 45.5272 83.9118 44.1909 84.0454V77.7381Z" fill="#E9EA3F"/>
<path d="M44.4316 100.381C44.0107 99.8937 43.5898 99.4059 43.1688 98.9115C43.3893 97.2144 42.7145 95.3771 43.9639 93.8403C45.4205 94.6488 45.1599 96.0719 45.2334 97.3748C45.0062 98.3904 45.5274 99.5997 44.4383 100.381H44.4316Z" fill="#E6E452"/>
<path d="M31.9906 138.045C32.0307 137.377 32.0641 136.708 32.1042 136.04C33.1331 135.513 33.9483 134.811 34.0752 133.562C34.4427 133.582 34.8102 133.595 35.171 133.615C34.3558 135.279 35.0306 137.577 32.9728 138.7C32.4449 138.78 32.1777 138.466 31.9906 138.038V138.045Z" fill="#564F02"/>
<path d="M26.9193 144.833C26.7656 142.348 28.2689 141.366 28.7968 139.963C28.9905 139.441 29.6787 139.261 29.9861 139.949C30.3669 140.811 30.7277 141.934 29.7656 142.522C28.8836 143.063 28.1153 143.738 26.926 144.833H26.9193Z" fill="#D3D938"/>
<path d="M40.6164 81.3595C39.2534 79.7359 40.1086 77.8251 39.995 76.0545C39.8146 73.3619 39.8948 70.6559 39.8681 67.9499C40.0351 67.9098 40.2022 67.8497 40.3625 67.7695C40.8503 72.2862 40.7901 76.8162 40.6231 81.3529L40.6164 81.3595Z" fill="#F5EA59"/>
<path d="M35.2847 128.337C35.2045 128.537 35.0508 128.631 34.837 128.631C34.1823 128.237 34.5497 127.482 34.2357 126.967C34.7769 125.624 34.6232 123.693 36.8949 123.8C37.1622 125.597 36.2602 126.981 35.2847 128.337Z" fill="#9D9C19"/>
<path d="M17.8662 140.062C18.7548 139.154 18.9486 137.597 20.472 137.29C20.5121 139.04 19.0421 141.653 17.9063 141.86C17.8929 141.258 17.8796 140.664 17.8662 140.062Z" fill="#D1D537"/>
<path d="M41.8589 147.693C40.1418 147.773 38.418 147.846 36.7009 147.926C36.3067 146.624 37.2153 146.45 38.104 146.437C39.3534 146.423 40.6095 146.55 41.8656 146.617C42.2732 146.978 42.2732 147.339 41.8656 147.693H41.8589Z" fill="#C4BF68"/>
<path d="M41.8594 147.693C41.8594 147.332 41.8594 146.971 41.8594 146.617C44.0843 146.096 46.2023 146.964 48.3738 147.145C48.327 147.339 48.2735 147.532 48.1934 147.719C46.082 147.713 43.9707 147.706 41.8594 147.699V147.693Z" fill="#A39C57"/>
<path d="M39.5877 101.224C40.2091 103.074 39.5009 104.611 38.9262 106.155C39.0599 104.571 36.8016 102.78 39.5877 101.224Z" fill="#C3C934"/>
<path d="M25.0689 147.9C24.8417 147.893 24.6212 147.88 24.394 147.873C23.619 147.626 22.6903 148 21.9553 147.198C22.9308 145.942 24.247 146.617 25.3963 146.59C25.9775 146.577 26.9463 146.423 26.8728 147.252C26.786 148.294 25.6836 147.659 25.0689 147.9Z" fill="#CFD16A"/>
<path d="M30.7812 122.524C31.015 122.504 31.2422 122.477 31.476 122.457C32.3112 124.448 31.2823 125.771 29.926 127.201C28.877 125.21 30.8079 124.074 30.7812 122.524Z" fill="#C0C316"/>
<path d="M34.2358 126.967C34.4362 127.521 34.6367 128.076 34.8371 128.63C33.2202 128.931 33.4875 131.463 31.5699 131.41C30.8082 130.561 31.0688 129.953 32.0109 129.486C33.0933 128.951 34.0153 128.27 34.2291 126.967H34.2358Z" fill="#BABD50"/>
<path d="M35.9728 147.138C33.7546 148.134 32.2981 147.806 29.9529 147.673C32.131 146.183 33.6076 146.316 35.9728 147.138Z" fill="#BDB466"/>
<path d="M39.9682 139.976C40.1886 139.601 40.4025 139.227 40.6229 138.853C41.5182 139.214 42.173 139.829 42.5138 140.744C41.5316 140.931 39.9214 143.189 39.9682 139.976Z" fill="#EEED49"/>
<path d="M18.5277 147.866C17.8997 147.679 17.1179 147.96 16.6703 147.238C17.9865 146.35 19.3429 145.975 20.8595 146.844C20.5589 148.407 19.2627 147.485 18.5277 147.86V147.866Z" fill="#D1D45D"/>
<path d="M34.0884 97.7826C33.8412 97.9764 33.594 98.1768 33.3401 98.3706C32.7455 99.1924 32.1508 100.008 31.4626 100.956C31.7834 97.3884 31.8903 97.2615 34.0884 97.7826Z" fill="#939147"/>
<path d="M12.1068 144.486C12.3006 144.259 12.4943 144.031 12.6948 143.804C13.0088 143.784 13.3295 143.717 13.6369 143.751C14.2716 143.824 15.1402 143.043 15.4742 144.185C15.5411 144.426 15.374 144.84 15.1803 145.034C14.5121 145.688 13.8974 145.401 13.2493 144.893C12.9487 144.659 12.4943 144.619 12.1135 144.486H12.1068Z" fill="#D6D94A"/>
<path d="M29.2782 95.2635C31.4897 95.4038 33.7882 94.5218 35.9062 95.7913C33.708 95.4305 31.3828 96.7267 29.2782 95.2635Z" fill="#E4D761"/>
<path d="M7.4231 117.179C6.37412 117.232 5.19151 117.559 4.91089 115.989C7.00217 114.299 9.93531 113.504 10.6903 110.384C10.8373 109.782 11.5589 109.983 12.0667 110.136C12.9353 109.943 13.4564 110.357 13.5767 111.165C13.6635 111.72 13.3762 112.127 12.7081 112.054C11.3919 114.225 9.28722 115.575 7.41642 117.179H7.4231Z" fill="#261C2E"/>
<path d="M12.7147 112.054C13.5967 111.045 12.7682 110.611 12.0667 110.13C12.4876 109.916 12.9085 109.702 13.3294 109.482C15.9018 109.061 16.9574 110.143 16.5298 112.702C15.1401 113.163 13.6301 114.312 12.7081 112.047L12.7147 112.054Z" fill="#281935"/>
<path d="M15.2537 119.123C15.5811 119.571 15.7147 120.633 16.5432 119.544C18.7547 120.058 18.9886 121.268 17.3383 123.646C16.4897 123.7 15.6278 123.713 15.3806 122.651C14.8862 120.566 14.0109 122.096 13.2559 122.403C13.2159 120.873 14.0243 119.865 15.2537 119.116V119.123Z" fill="#F3E832"/>
<path d="M17.8662 113.397C17.8195 114.219 17.9598 115.114 17.6925 115.856C17.1714 117.286 16.4565 116.978 15.8618 115.822C16.1157 115.041 16.3696 114.252 16.6235 113.47C17.0377 113.45 17.4587 113.424 17.8729 113.404L17.8662 113.397Z" fill="#EBE642"/>
<path d="M45.5742 104.758C46.503 106.575 46.65 108.453 45.9685 110.951C44.6322 108.62 45.0865 106.689 45.5742 104.758Z" fill="#88751E"/>
<path d="M43.2422 121.281C43.1687 120.666 43.3491 120.138 43.8035 119.711C44.2043 119.35 44.5985 118.989 44.9994 118.628C45.4938 119.611 44.3313 121 45.7678 121.749C45.8212 122.163 45.8814 122.577 45.9348 122.991C45.7344 123.439 45.5339 123.887 45.3335 124.328C45.0662 124.174 44.799 124.02 44.5317 123.867C44.2979 122.905 44.0908 121.929 43.2355 121.274L43.2422 121.281Z" fill="#D5D123"/>
<path d="M44.4314 100.382C44.6185 99.3594 44.2911 98.1968 45.2265 97.375C46.055 98.3973 46.0817 99.7068 45.6875 100.722C45.1463 102.099 44.7187 101.07 44.4314 100.382Z" fill="#9E9500"/>
<path d="M45.2465 78.2191C45.1998 77.7915 45.1597 77.3638 45.1129 76.9362C45.2198 76.1946 45.2866 75.4262 46.4759 74.7915C45.6207 76.0409 48.4937 77.9184 45.2399 78.2191H45.2465Z" fill="#261200"/>
<path d="M37.2223 94.4483C36.7746 93.5463 36.2602 92.8447 35.1845 93.74C35.5586 92.3303 34.4696 91.3147 34.1889 90.092C33.7212 88.0274 33.7079 86.1032 36.8415 85.1812C35.6188 88.5419 36.6277 91.475 37.2223 94.4483Z" fill="#CCD81F"/>
<path d="M32.7992 69.1863C33.0865 71.9257 31.7435 74.0503 30.0999 76.4623C28.0955 74.4111 30.5876 72.1729 29.5587 70.3422C29.111 69.046 29.1712 68.0103 30.8549 67.8032L30.9417 67.8968C31.4228 68.2776 31.376 69.1595 32.1912 69.2264C32.3916 69.2063 32.5987 69.193 32.8059 69.1863H32.7992Z" fill="#3F3214"/>
<path d="M30.1934 49.6029C29.7792 48.721 29.6121 47.8991 30.9484 47.7989C32.0041 47.7188 33.0664 47.7655 34.1221 47.7522C34.4963 48.7009 34.8704 49.6497 35.4851 51.2131C33.5809 49.8768 31.5097 51.5606 30.1934 49.6029Z" fill="#F8F305"/>
<path d="M30.8548 67.8031C30.4205 68.6517 29.9929 69.4935 29.5586 70.3421C29.1042 70.1349 28.0018 72.3598 28.1288 69.9545C28.2023 68.5982 28.249 67.2352 28.3025 65.8789C28.3893 65.5982 28.5764 65.4245 28.857 65.3577C29.6588 65.0103 30.1733 65.7185 30.8347 65.9056C30.8347 66.5336 30.8481 67.1684 30.8548 67.7964V67.8031Z" fill="#2F2E08"/>
<path d="M30.9017 90.6869C30.9083 91.4085 31.1689 92.6312 30.5275 92.6913C29.2647 92.8183 28.9373 91.335 28.1957 90.5466C29.0977 90.5533 30.1801 87.1057 30.9017 90.6869Z" fill="#352431"/>
<path d="M39.2666 53.6919C40.3957 53.8789 41.8055 52.242 42.654 54.2197C42.2398 55.1751 43.1552 57.5604 40.5561 56.1773C40.1218 55.3488 39.6942 54.5204 39.2599 53.6919H39.2666Z" fill="#3C311C"/>
<path d="M32.191 69.2262C32.0841 69.9211 32.3046 70.7095 31.4827 71.3576C30.4404 70.322 31.0084 69.0458 30.9349 67.9033C31.73 67.9902 32.0841 68.4913 32.1843 69.2329L32.191 69.2262Z" fill="#372534"/>
<path d="M26.9661 89.0099C26.9594 88.4286 26.946 87.854 26.9393 87.2727C26.505 85.9565 26.6654 84.9275 28.2288 84.5601C28.7166 84.6469 29.211 84.7405 29.6988 84.8273C28.7901 86.2237 27.8814 87.6135 26.9661 89.0099Z" fill="#CFD647"/>
<path d="M67.1618 146.437C69.9814 146.477 72.7942 146.523 75.6138 146.563C72.8009 147.739 69.8878 147.011 67.0148 146.998C66.9012 146.771 66.9413 146.577 67.1618 146.437Z" fill="#261F1D"/>
<path d="M67.1616 146.437C67.1015 146.624 67.0547 146.811 67.0146 146.998C64.9968 146.196 62.8788 146.837 60.8276 146.557C62.9189 145.368 65.0369 145.695 67.1616 146.437Z" fill="#E6DC56"/>
<path d="M61.3289 47.2379C61.1351 47.5987 60.9347 47.9528 60.7409 48.3136C60.7209 47.4517 60.7008 46.5965 60.6808 45.7346C61.1552 43.8304 63.2865 43.0553 63.7943 41.1712C64.5293 40.336 65.2041 39.3805 66.5538 39.9551C66.5872 40.1957 66.6139 40.4295 66.6473 40.6701C67.3756 42.1533 65.5849 42.6945 65.458 43.8638C64.3355 45.2936 62.9792 46.4428 61.3289 47.2379Z" fill="#DADA37"/>
<path d="M53.5381 50.2108C52.2553 51.5872 50.9658 52.9635 49.6829 54.3332C49.6495 51.5404 52.3755 50.1574 53.057 47.7253C53.2508 47.0238 53.6985 46.6964 54.4334 46.7832C54.8877 46.997 55.2151 47.2777 54.9813 47.8523C55.2218 49.0816 54.4334 49.6763 53.5381 50.2108Z" fill="#453D01"/>
<path d="M66.5537 39.9546C65.6851 40.3755 65.0571 41.0503 64.5559 41.8521C63.8143 42.2998 63.2531 43.2886 62.1506 42.6606C62.0838 42.4134 62.017 42.1595 61.9502 41.9122C62.0103 41.7185 62.0571 41.5247 62.0838 41.3243C62.8589 39.3265 63.5404 37.1818 66.4602 38.4446C66.4936 38.9457 66.5336 39.4468 66.5671 39.9479L66.5537 39.9546Z" fill="#D6D73C"/>
<path d="M54.975 47.8523L54.24 47.0706C53.5786 46.496 53.8057 45.8145 54.0262 45.1397C55.0017 43.9103 56.2979 44.5383 57.4872 44.5383C56.7723 45.7343 56.5384 47.2978 54.975 47.8523Z" fill="#898A0F"/>
<path d="M62.144 42.6673C62.9725 42.4735 63.5604 41.5648 64.5493 41.8588C63.8945 43.7898 62.3043 44.7853 60.6741 45.734C59.9458 44.2307 60.1061 43.8967 62.144 42.6673Z" fill="#473312"/>
<path d="M70.516 36.8281C70.0283 36.8214 69.5472 36.8147 69.0595 36.808C68.231 37.0085 67.4025 37.2089 66.574 37.416C64.9303 36.4005 65.2377 35.3916 66.7544 34.7034C68.0573 34.1154 69.0528 33.3003 69.7343 32.0642C69.9815 31.8638 70.2287 31.6633 70.4759 31.4629C70.8969 31.7034 71.3111 31.944 71.732 32.1778C71.9592 33.2669 72.1864 34.3559 72.4135 35.445C71.9859 35.8259 71.5583 36.2067 71.1307 36.5875C70.9236 36.6677 70.7231 36.7479 70.516 36.8214V36.8281Z" fill="#2A2506"/>
<path d="M69.741 32.0639C69.8278 33.781 70.0951 35.5382 67.4158 35.4514C65.8858 35.4046 66.1263 36.4336 66.574 37.409C66.5539 37.6162 66.4804 37.8032 66.3602 37.9703C65.1776 38.3444 63.8747 39.1128 63.4604 37.0549C64.0685 36.2732 64.6831 35.4982 65.2912 34.7164C65.9994 34.2888 66.8947 34.0015 66.6408 32.8724C67.5628 32.8055 68.4114 32.5383 69.1597 31.9771C69.3468 32.0639 69.5405 32.0906 69.741 32.0639Z" fill="#311F25"/>
<path d="M63.467 37.0552C64.1953 38.1175 65.2977 37.9839 66.3667 37.9705C66.4202 38.1242 66.4469 38.2912 66.4469 38.4516C64.4291 38.5518 63.6006 40.4761 62.0706 41.3313C60.6742 39.9883 62.7454 38.7055 62.1441 37.3759C62.585 37.269 63.0193 37.1621 63.4603 37.0552H63.467Z" fill="#372905"/>
<path d="M61.3287 47.2377C62.3042 45.721 63.9545 44.9995 65.2507 43.8569C65.4445 43.9839 65.518 44.1242 65.4645 44.2645C65.4111 44.4115 65.3509 44.485 65.2908 44.485C65.057 44.9126 64.8231 45.3335 64.5826 45.7611C63.8009 46.917 62.6583 47.2778 61.3287 47.2311V47.2377Z" fill="#35250C"/>
<path d="M65.2842 44.4916C65.2374 44.2845 65.2241 44.0707 65.2441 43.8569C65.7118 42.7946 66.1728 41.7389 66.6405 40.6766C67.0481 40.6097 68.077 39.6743 67.5091 41.0908C67.008 42.3202 66.0459 43.3625 65.2842 44.4916Z" fill="#7F790B"/>
<path d="M54.0262 45.146C54.0997 45.7874 54.1732 46.4355 54.24 47.0769C53.8458 47.2974 53.4449 47.5112 53.0507 47.7317C50.9461 47.6315 50.1844 49.9433 48.3537 50.3441C48.1666 50.1771 47.9728 50.0101 47.7858 49.8363L47.7323 49.6359C48.5942 47.6382 50.485 46.8832 52.2022 45.9144C52.8102 45.6605 53.4115 45.3999 54.0195 45.146H54.0262Z" fill="#423408"/>
<path d="M38.6252 50.819C40.0016 48.1731 41.2911 49.4626 42.574 50.9058C41.2444 51.4203 39.9348 51.0394 38.6252 50.819Z" fill="#CCBC40"/>
<path d="M42.5875 131.691C42.4004 130.855 42.1065 130.321 41.131 130.976C39.9149 131.797 38.6388 131.837 37.3827 131.002C38.5252 129.546 40.1822 129.212 41.8659 128.938C42.7078 128.383 42.8681 129.132 43.1688 129.619C43.1755 130.368 43.1087 131.096 42.5942 131.697L42.5875 131.691Z" fill="#F2E93A"/>
<path d="M52.2089 45.9146C50.7189 47.1573 49.229 48.3934 47.739 49.6361C47.5119 49.2018 47.2914 48.7742 47.0642 48.3399C48.5074 46.9435 50.1844 46.0682 52.2089 45.9146Z" fill="#DEDE48"/>
<path d="M28.8639 65.3643C28.6768 65.538 28.4897 65.7118 28.3026 65.8855C27.0465 66.4066 25.7436 67.2752 24.5811 65.8053C24.2671 65.4111 24.3539 64.5826 24.9352 64.4423C26.3517 64.1015 27.9017 63.5938 28.8639 65.3576V65.3643Z" fill="#E6D449"/>
<path d="M26.4452 84.2326C26.3249 83.4442 24.7147 83.4976 25.2025 82.6892C26.0243 81.3395 27.434 82.3083 28.5966 82.3217C29.1712 82.3217 30.0933 81.9408 29.9396 82.9765C29.826 83.7448 28.9374 83.4909 28.3294 83.4843C27.7748 83.9185 27.3071 84.5733 26.4452 84.2326Z" fill="#A3940F"/>
<path d="M26.445 84.2328C26.9996 83.8052 27.5274 83.2907 28.3292 83.4845C28.2958 83.8453 28.2624 84.206 28.229 84.5602C27.8014 85.4622 27.3738 86.3708 26.9395 87.2728C23.9261 86.7249 26.6789 85.235 26.445 84.2328Z" fill="#3E2B0A"/>
<path d="M25.0221 106.836C23.4386 107.564 21.8283 108.513 20.5923 106.315C22.1023 106.208 23.6524 105.787 25.0221 106.836Z" fill="#605400"/>
<path d="M33.3137 39.9282C34.209 41.0373 36.4339 39.8681 36.7547 41.9527C34.797 42.6542 33.434 42.3536 33.3137 39.9282Z" fill="#715E0B"/>
<path d="M32.1711 37.8232C32.3983 38.5315 32.6254 39.2397 32.8526 39.9479C32.4384 39.9346 32.0241 39.9145 31.6099 39.9012C31.3226 39.7208 30.9083 39.7074 30.8215 39.2731C30.8081 38.3578 31.5564 38.1573 32.1711 37.8232Z" fill="#6F632C"/>
<path d="M30.8213 39.2734C31.0819 39.4806 31.3425 39.6944 31.6097 39.9015C31.3358 39.9349 31.0619 39.9683 30.7813 40.0017C30.5741 39.7745 30.3603 39.5474 30.1532 39.3202C30.3737 39.3068 30.6009 39.2868 30.8213 39.2734Z" fill="#E2E04F"/>
<path d="M17.3381 123.646C17.4249 122.21 17.6254 120.753 16.543 119.544C16.6231 118.876 16.8035 118.094 17.6387 118.729C18.6075 119.47 19.1754 118.909 19.8369 118.381C21.4538 118.248 22.3892 119.136 22.9839 120.513C22.2422 120.9 20.6587 119.591 20.9327 122.103C21.1665 124.248 19.1621 124.502 17.3381 123.646Z" fill="#322C0F"/>
<path d="M41.8593 128.931C40.7836 130.535 39.0064 130.608 37.3761 130.996C37.8505 128.096 39.7012 128.183 41.8593 128.931Z" fill="#5F4D00"/>
<path d="M76.0195 84H74.1387V80.3848C74.1387 79.3379 73.7617 78.8145 73.0078 78.8145C72.6484 78.8145 72.3496 78.9551 72.1113 79.2363C71.873 79.5137 71.7539 79.8691 71.7539 80.3027V84H69.8613V77.5195H71.7539V78.5508H71.7773C72.25 77.7578 72.9453 77.3613 73.8633 77.3613C75.3008 77.3613 76.0195 78.252 76.0195 80.0332V84ZM81.7559 75.8672C81.498 75.7656 81.2539 75.7148 81.0234 75.7148C80.375 75.7148 80.0508 76.0742 80.0508 76.793V77.5195H81.5273V78.9316H80.0508V84H78.1582V78.9316H77.0742V77.5195H78.1582V76.6875C78.1582 75.9492 78.3984 75.3594 78.8789 74.918C79.3594 74.4766 79.9902 74.2559 80.7715 74.2559C81.1699 74.2559 81.498 74.2969 81.7559 74.3789V75.8672ZM92.6719 84H90.7852V80.3027C90.7852 79.3105 90.4238 78.8145 89.7012 78.8145C89.3652 78.8145 89.0859 78.9648 88.8633 79.2656C88.6406 79.5664 88.5293 79.9336 88.5293 80.3672V84H86.6426V80.2559C86.6426 79.2949 86.2852 78.8145 85.5703 78.8145C85.2148 78.8145 84.9297 78.959 84.7148 79.248C84.5039 79.5332 84.3984 79.9121 84.3984 80.3848V84H82.5059V77.5195H84.3984V78.5332H84.4219C84.6484 78.1621 84.9492 77.875 85.3242 77.6719C85.6992 77.4648 86.0938 77.3613 86.5078 77.3613C87.418 77.3613 88.041 77.7695 88.377 78.5859C88.877 77.7695 89.6035 77.3613 90.5566 77.3613C91.9668 77.3613 92.6719 78.2324 92.6719 79.9746V84ZM94.0195 83.1504C94.0195 82.8574 94.1309 82.6172 94.3535 82.4297C94.5762 82.2422 94.8418 82.1484 95.1504 82.1484C95.4629 82.1484 95.7266 82.2441 95.9414 82.4355C96.1562 82.627 96.2637 82.8652 96.2637 83.1504C96.2637 83.4512 96.1562 83.6953 95.9414 83.8828C95.7266 84.0664 95.4551 84.1582 95.127 84.1582C94.8223 84.1582 94.5605 84.0625 94.3418 83.8711C94.127 83.6797 94.0195 83.4395 94.0195 83.1504ZM104.098 84H101.801L99.6445 80.7949H99.6211V84H97.7285V74.4082H99.6211V80.5137H99.6445L101.666 77.5195H103.922L101.52 80.5781L104.098 84ZM109.951 84H104.191V83.2324L107.508 78.9316H104.52V77.5195H109.934V78.4336L106.764 82.5879H109.951V84Z" fill="black"/>
</svg>
