<svg width="176" height="57" fill="none" xmlns="http://www.w3.org/2000/svg"><path d="M176 0c-2.6 14.669-5.015 29.107-7.772 43.473-1.334 6.957-5.875 11.216-12.836 12.596-2.609.516-5.294.883-7.948.887-33.538.06-67.076.05-100.61.023-1.811 0-3.618-.267-6.402-.484.657-3.599 1.198-6.744 1.81-9.876 2.254-11.546 4.497-23.092 6.809-34.625 1.892-9.437 3.18-10.518 12.696-10.523 30.655-.027 61.314.072 91.969-.077C160.826 1.358 167.931.53 176 0zm-17.247 48.755c-4.199-6.64-8.308-13.144-12.448-19.689 7.231-6.802 13.98-13.152 20.981-19.742-14.606-5.142-19.652 7.943-28.812 13.564.87-5.064 1.622-9.441 2.726-15.854-4.888 1.53-10.966 1.896-11.525 3.851-3.582 12.574-5.956 25.496-8.731 38.34 7.385 1.111 11.802-1.412 13.25-7.567.442-1.874.987-3.72 1.802-6.776 5.159 9.5 9.115 19.445 22.757 13.873zM124.57 8.301c-9.119 0-17.728-.09-26.33.1-1.288.027-3.441 1.172-3.68 2.167-3.073 12.873-5.875 25.813-8.876 39.328h23.253c8.983 0 9.794-.92 9.042-10.98h-17.896c-.292-5.848 3.285-5.283 6.601-5.287 8.767-.014 8.767-.045 9.948-9.469-4.357-.276-8.682-.556-13.007-.833l-.789-1.742c1.487-.991 2.866-2.54 4.479-2.843 2.586-.484 5.321-.14 7.997-.144 5.866-.01 8.951-3.442 9.254-10.297h.004zM58.818 49.194c10.885 1.878 11.084 1.77 13.278-7.952 1.356-6.015 2.95-12.003 3.843-18.091.545-3.725 2.095-4.617 5.587-4.635 9.204-.05 9.204-.208 9.957-10.233-9.831 0-19.621-.01-29.412 0-8.19.009-9.07 1.014-8.52 10.034 3.668.235 7.39.475 11.597.747a74347.015 74347.015 0 01-6.325 30.13h-.005zM43.504 9.817c-2.802 12.628-5.402 24.876-8.407 37.019-.297 1.204-3.244 2.675-4.717 2.444-2.473-.39-5.911-1.43-6.898-3.29-2.942-5.536-4.888-11.61-8.704-17.503-1.068 4.662-2.118 9.333-3.204 13.99C9.817 50.01 9.083 50.425 0 48.457c2.753-12.361 5.397-24.763 8.452-37.06.289-1.163 3.388-2.612 4.794-2.277 2.018.475 4.492 2.078 5.352 3.884 2.974 6.232 5.33 12.759 9.43 19.023 1.24-5.337 2.528-10.66 3.7-16.01C33.384 8.46 34.033 8.035 43.5 9.814l.004.004z" fill="#707070"/></svg>