<svg width="203" height="66" fill="none" xmlns="http://www.w3.org/2000/svg"><path d="M203 .444c-2.998 16.843-5.784 33.42-8.964 49.914-1.538 7.987-6.777 12.877-14.805 14.462-3.009.592-6.106 1.013-9.167 1.018-38.684.068-77.367.058-116.045.026-2.09 0-4.173-.306-7.385-.556.759-4.131 1.383-7.743 2.09-11.339 2.598-13.256 5.186-26.513 7.851-39.754C58.758 3.38 60.245 2.138 71.22 2.133c35.358-.03 70.721.083 106.079-.088 8.2-.042 16.395-.993 25.702-1.6zm-19.893 55.978c-4.843-7.623-9.582-15.09-14.358-22.605 8.341-7.81 16.125-15.101 24.201-22.668-16.848-5.903-22.668 9.12-33.233 15.575 1.003-5.816 1.871-10.84 3.144-18.204-5.638 1.756-12.648 2.177-13.292 4.422-4.132 14.436-6.87 29.273-10.071 44.02 8.518 1.275 13.613-1.62 15.283-8.688.509-2.151 1.138-4.272 2.078-7.78 5.95 10.908 10.513 22.325 26.248 15.928zM143.681 9.975c-10.518 0-20.449-.104-30.369.114-1.486.031-3.97 1.346-4.246 2.49-3.544 14.779-6.776 29.636-10.237 45.153h26.82c10.362 0 11.297-1.055 10.429-12.607h-20.641c-.338-6.714 3.789-6.065 7.613-6.07 10.113-.016 10.113-.052 11.474-10.871-5.025-.317-10.013-.64-15.002-.956l-.91-2.001c1.715-1.138 3.305-2.915 5.166-3.264 2.983-.556 6.137-.16 9.224-.166 6.766-.01 10.324-3.951 10.674-11.822h.005zm-75.84 46.951c12.556 2.157 12.784 2.032 15.315-9.13 1.564-6.907 3.404-13.782 4.433-20.771.629-4.277 2.416-5.3 6.444-5.321 10.616-.058 10.616-.24 11.484-11.75-11.339 0-22.631-.01-33.923 0-9.448.01-10.461 1.164-9.827 11.521 4.23.27 8.522.546 13.376.857-2.562 12.16-4.927 23.37-7.296 34.594h-.005zm-17.663-45.21c-3.232 14.498-6.23 28.56-9.697 42.503-.343 1.382-3.741 3.07-5.44 2.806-2.853-.447-6.818-1.642-7.956-3.778-3.394-6.355-5.639-13.33-10.04-20.095-1.232 5.352-2.443 10.715-3.695 16.062C11.323 57.862 10.476 58.34 0 56.08c3.175-14.192 6.226-28.43 9.749-42.55.332-1.335 3.908-2.998 5.529-2.614 2.328.546 5.181 2.386 6.174 4.46 3.43 7.155 6.147 14.648 10.876 21.84 1.43-6.126 2.915-12.238 4.266-18.38 1.913-8.678 2.661-9.167 13.58-7.125l.004.006z" fill="#000"/></svg>