<svg width="203" height="66" fill="none" xmlns="http://www.w3.org/2000/svg"><path d="M203 0c-2.998 16.842-5.784 33.42-8.964 49.913-1.538 7.988-6.777 12.878-14.805 14.463-3.009.592-6.106 1.013-9.167 1.018-38.684.068-77.367.057-116.045.026-2.09 0-4.173-.307-7.385-.556.759-4.131 1.383-7.743 2.09-11.339 2.598-13.256 5.186-26.513 7.851-39.754C58.758 2.936 60.245 1.694 71.22 1.689c35.358-.031 70.721.083 106.079-.088C185.498 1.559 193.693.608 203 0zm-19.893 55.978c-4.843-7.624-9.582-15.091-14.358-22.605 8.341-7.81 16.125-15.102 24.201-22.668-16.848-5.903-22.668 9.12-33.233 15.574 1.003-5.815 1.871-10.84 3.144-18.203-5.638 1.756-12.648 2.177-13.292 4.422-4.132 14.436-6.87 29.272-10.071 44.02 8.518 1.275 13.613-1.621 15.283-8.688.509-2.152 1.138-4.272 2.078-7.78 5.95 10.908 10.513 22.325 26.248 15.928zM143.681 9.53c-10.518 0-20.449-.104-30.369.114-1.486.031-3.97 1.346-4.246 2.49-3.544 14.778-6.776 29.635-10.237 45.152h26.82c10.362 0 11.297-1.055 10.429-12.607h-20.641c-.338-6.714 3.789-6.064 7.613-6.07 10.113-.015 10.113-.051 11.474-10.87-5.025-.317-10.013-.64-15.002-.957l-.91-2c1.715-1.139 3.305-2.916 5.166-3.264 2.983-.556 6.137-.161 9.224-.166 6.766-.01 10.324-3.951 10.674-11.822h.005zm-75.84 46.95c12.556 2.157 12.784 2.033 15.315-9.13 1.564-6.906 3.404-13.781 4.433-20.77.629-4.277 2.416-5.3 6.444-5.322 10.616-.057 10.616-.239 11.484-11.75-11.339 0-22.631-.01-33.923 0-9.448.011-10.461 1.165-9.827 11.522 4.23.27 8.522.545 13.376.857-2.562 12.16-4.927 23.37-7.296 34.594h-.005zM50.178 11.271c-3.232 14.499-6.23 28.56-9.697 42.503-.343 1.383-3.741 3.072-5.44 2.806-2.853-.446-6.818-1.642-7.956-3.777-3.394-6.356-5.639-13.33-10.04-20.096-1.232 5.353-2.443 10.716-3.695 16.063-2.027 8.647-2.874 9.125-13.35 6.865 3.175-14.192 6.226-28.43 9.749-42.55.332-1.336 3.908-2.999 5.529-2.614 2.328.546 5.181 2.385 6.174 4.459 3.43 7.155 6.147 14.649 10.876 21.841 1.43-6.127 2.915-12.238 4.266-18.38 1.913-8.679 2.661-9.167 13.58-7.125l.004.005z" fill="#707070"/></svg>