<svg width="22" height="21" fill="none" xmlns="http://www.w3.org/2000/svg"><g fill="#707070"><path d="M9.861 0h1.313c.059.015.118.027.179.035 2.198.174 4.174.942 5.844 2.375 3.04 2.613 4.288 5.936 3.657 9.899-.769 4.836-5.036 8.542-9.934 8.692-2.57.079-4.886-.655-6.903-2.256-2.09-1.66-3.378-3.816-3.846-6.45-.067-.376-.106-.755-.158-1.134V9.847c.03-.25.058-.5.092-.749.3-2.136 1.161-4.018 2.607-5.617C4.338 1.691 6.34.571 8.728.158 9.104.093 9.483.052 9.861 0zm1.41 13.5c.342-.058.646-.103.945-.167.92-.196 1.747-.58 2.424-1.25.174-.174.281-.369.265-.619-.045-.697-.69-1.089-1.326-.804a2.13 2.13 0 00-.3.174c-1.117.747-2.341.978-3.657.755a4.805 4.805 0 01-1.901-.777c-.242-.163-.501-.29-.803-.248-.4.053-.624.318-.746.677-.13.38.029.682.306.928a4.79 4.79 0 002.2 1.127c.357.078.718.14 1.078.209l.058.066c-.1.06-.195.13-.283.207-.813.81-1.629 1.62-2.433 2.438-.392.4-.377.934.01 1.311.388.377.879.378 1.292-.016l.174-.174c.576-.577 1.15-1.154 1.722-1.73.196-.198.262-.197.457-.006l.158.162 1.753 1.757c.214.214.464.335.777.268a.982.982 0 00.769-.691c.116-.362-.023-.652-.277-.906-.806-.808-1.611-1.617-2.416-2.427-.076-.077-.148-.16-.246-.264zm-.766-2.91c2.048-.002 3.707-1.647 3.705-3.673 0-2.07-1.65-3.724-3.703-3.72a3.697 3.697 0 000 7.393h-.002z"/><path d="M10.512 8.701a1.808 1.808 0 111.812-1.8 1.793 1.793 0 01-1.812 1.8z"/></g></svg>