<svg width="34" height="34" fill="none" xmlns="http://www.w3.org/2000/svg"><g fill="#C8102E"><path d="M15.523.745h2.069c.092.024.187.042.282.054 3.464.271 6.579 1.467 9.21 3.698 4.792 4.066 6.759 9.238 5.764 15.407-1.211 7.527-7.937 13.296-15.657 13.529-4.05.123-7.7-1.02-10.878-3.51C3.019 27.338.989 23.982.25 19.88c-.105-.584-.166-1.175-.248-1.765v-2.044c.048-.388.092-.778.145-1.165.473-3.325 1.83-6.256 4.109-8.743C6.818 3.376 9.974 1.635 13.737.992c.592-.101 1.19-.166 1.786-.247zm2.221 21.013c.54-.09 1.019-.161 1.49-.26 1.451-.305 2.753-.904 3.82-1.945.274-.271.444-.575.418-.964-.07-1.084-1.087-1.695-2.09-1.252a3.275 3.275 0 00-.473.271c-1.76 1.163-3.69 1.523-5.764 1.175a7.624 7.624 0 01-2.995-1.209c-.382-.255-.79-.452-1.267-.386-.63.082-.982.495-1.174 1.053-.204.593.045 1.063.482 1.446a7.583 7.583 0 003.466 1.753c.564.122 1.133.217 1.7.325l.091.103a3.213 3.213 0 00-.446.322c-1.28 1.26-2.567 2.52-3.834 3.795-.618.624-.595 1.453.017 2.04.61.588 1.384.589 2.034-.024l.275-.27c.908-.899 1.813-1.797 2.713-2.694.31-.307.414-.307.721-.008.085.082.166.168.25.25l2.761 2.735c.338.333.732.522 1.226.417a1.542 1.542 0 001.212-1.075c.183-.563-.036-1.014-.437-1.41a2710.73 2710.73 0 01-3.808-3.778c-.12-.12-.233-.249-.388-.41zm-1.207-4.53c3.229-.004 5.843-2.563 5.84-5.716 0-3.221-2.6-5.797-5.836-5.79a5.862 5.862 0 00-4.072 1.71 5.717 5.717 0 00-1.68 4.043c0 1.514.603 2.967 1.68 4.043a5.862 5.862 0 004.072 1.71h-.004z"/><path d="M16.55 14.289a2.875 2.875 0 01-1.583-.479 2.821 2.821 0 01-1.046-1.266 2.781 2.781 0 01-.157-1.627 2.803 2.803 0 01.785-1.438 2.882 2.882 0 013.108-.599c.52.215.964.577 1.275 1.042.311.464.476 1.009.473 1.566a2.76 2.76 0 01-.834 1.99 2.829 2.829 0 01-2.021.81z"/></g></svg>