<svg width="20" height="19" fill="none" xmlns="http://www.w3.org/2000/svg"><path d="M9.113.314h1.173c.053.014.106.024.16.031 1.963.154 3.729.831 5.22 2.096 2.716 2.304 3.83 5.236 3.267 8.732-.686 4.267-4.498 7.536-8.874 7.668-2.295.07-4.364-.577-6.166-1.99-1.867-1.463-3.018-3.366-3.436-5.69-.06-.331-.094-.666-.14-1V9c.026-.22.051-.44.081-.66.268-1.884 1.037-3.545 2.33-4.955C4.178 1.806 5.967.819 8.1.454c.336-.057.675-.093 1.012-.14zm1.26 11.91c.306-.051.577-.091.844-.147.822-.173 1.56-.512 2.165-1.102.155-.154.251-.326.237-.547-.04-.614-.616-.96-1.185-.71a1.857 1.857 0 00-.268.154c-.997.66-2.091.863-3.267.666a4.321 4.321 0 01-1.698-.685c-.216-.144-.447-.256-.717-.219-.358.047-.557.28-.666.597-.116.336.025.602.273.82a4.298 4.298 0 001.965.993c.32.07.642.123.963.184l.052.059c-.09.053-.174.114-.253.182-.726.715-1.455 1.429-2.173 2.152-.35.353-.337.823.01 1.156.346.333.784.333 1.153-.014l.155-.154a556.48 556.48 0 001.538-1.526c.176-.174.235-.174.409-.005.048.047.094.095.141.143l1.566 1.55c.191.188.414.295.694.236a.866.866 0 00.687-.61c.104-.319-.02-.574-.247-.799l-2.159-2.141c-.068-.068-.132-.141-.22-.233zm-.685-2.567c1.83-.002 3.312-1.453 3.31-3.24a3.28 3.28 0 00-3.307-3.282 3.323 3.323 0 00-2.309.97 3.24 3.24 0 00-.952 2.291c0 .858.342 1.682.952 2.292.61.61 1.44.959 2.309.97h-.003z" fill="#fff"/><path d="M9.695 7.99a1.63 1.63 0 01-.897-.27 1.6 1.6 0 01-.593-.718 1.576 1.576 0 01.356-1.737 1.634 1.634 0 011.762-.34c.294.122.546.328.722.59.177.264.27.573.269.888a1.563 1.563 0 01-.473 1.129 1.603 1.603 0 01-1.146.459z" fill="#fff"/></svg>