<svg width="21" height="21" fill="none" xmlns="http://www.w3.org/2000/svg"><path d="M9.848 0h1.313c.058.015.118.027.178.035 2.199.174 4.175.942 5.844 2.375 3.041 2.613 4.289 5.936 3.658 9.899-.769 4.836-5.036 8.542-9.935 8.692-2.57.079-4.885-.655-6.902-2.256-2.09-1.66-3.378-3.816-3.847-6.45C.091 11.918.052 11.54 0 11.16V9.847c.03-.25.058-.5.092-.749.3-2.136 1.16-4.018 2.607-5.617C4.324 1.691 6.327.571 8.715.158 9.09.093 9.47.052 9.848 0zm1.41 13.5c.342-.058.646-.103.945-.167.92-.196 1.746-.58 2.423-1.25.174-.174.282-.369.266-.619-.045-.697-.69-1.089-1.326-.804-.105.05-.206.108-.3.174-1.117.747-2.342.978-3.658.755a4.804 4.804 0 01-1.9-.777c-.243-.163-.501-.29-.804-.248-.4.053-.623.318-.745.677-.13.38.028.682.306.928a4.79 4.79 0 002.2 1.127c.357.078.718.14 1.077.209l.058.066c-.1.06-.194.13-.282.207-.813.81-1.63 1.62-2.433 2.438-.393.4-.378.934.01 1.311.388.377.878.378 1.291-.016l.174-.174c.577-.577 1.15-1.154 1.722-1.73.196-.198.262-.197.458-.006l.158.162 1.752 1.757c.214.214.464.335.778.268a.981.981 0 00.769-.691c.116-.362-.023-.652-.277-.906a1382.09 1382.09 0 01-2.416-2.427c-.076-.077-.149-.16-.247-.264zm-.767-2.91c2.049-.002 3.708-1.647 3.706-3.673 0-2.07-1.65-3.724-3.703-3.72a3.697 3.697 0 000 7.393h-.003z" fill="#F8B73A"/><path d="M10.499 8.701a1.808 1.808 0 111.812-1.8 1.793 1.793 0 01-1.812 1.8z" fill="#F8B73A"/></svg>