<svg xmlns="http://www.w3.org/2000/svg" width="21" height="21" fill="balck"><path d="M0 4.46c.01-.999.411-1.847 1.14-2.526.55-.51 1.125-.997 1.723-1.448C3.903-.3 5.018-.122 5.78.937c.242.337.422.72.626 1.083.595 1.063 1.2 2.122 1.774 3.196.19.356.35.744.433 1.137.146.687-.118 1.251-.712 1.62-.27.167-.588.266-.895.36-.457.14-.645.528-.43.954.038.075.089.146.141.212a28.542 28.542 0 004.745 4.72c.147.115.345.195.53.222.332.048.549-.128.64-.453.049-.172.09-.348.156-.513.374-.946 1.163-1.342 2.14-1.065.228.064.455.154.662.268 1.365.754 2.728 1.515 4.088 2.28.466.262.823.635 1.037 1.131.3.697.261 1.383-.194 1.989a19.314 19.314 0 01-1.494 1.783c-1.104 1.149-2.438 1.43-3.911.838C9.586 18.476 5.2 14.883 2.169 9.72 1.505 8.591.973 7.386.398 6.207A4.022 4.022 0 010 4.459z"/></svg>