<svg xmlns="http://www.w3.org/2000/svg" width="27" height="28" fill="none"><path d="M0 6.185c.012-1.28.531-2.367 1.473-3.237A28.383 28.383 0 013.698 1.09C5.04.085 6.48.312 7.463 1.67c.313.431.545.922.809 1.388.768 1.363 1.55 2.72 2.29 4.097.246.456.452.954.56 1.457.188.88-.153 1.604-.92 2.077-.348.214-.759.341-1.155.461-.59.18-.834.678-.556 1.224.05.096.115.187.183.272a36.73 36.73 0 006.128 6.05c.189.147.445.25.683.285.43.062.71-.164.828-.58.063-.221.116-.446.2-.659.484-1.213 1.503-1.72 2.765-1.365a4.1 4.1 0 01.854.344c1.764.967 3.523 1.942 5.28 2.923.601.336 1.063.814 1.339 1.45.387.893.337 1.772-.251 2.549a24.775 24.775 0 01-1.929 2.286c-1.425 1.473-3.148 1.833-5.05 1.074-7.143-2.85-12.806-7.455-16.721-14.074-.856-1.447-1.544-2.992-2.285-4.504A5.125 5.125 0 010 6.185z" fill="#C8102E"/></svg>