<svg width="115" height="115" fill="none" xmlns="http://www.w3.org/2000/svg"><g filter="url(#filter0_i_1836_1327)"><rect width="115" height="115" rx="15" fill="#F8F4F4"/></g><g filter="url(#filter1_d_1836_1327)"><path d="M50.91 31.882L7.182 50.809l54.31 32.484 41.544-33.365L50.91 31.882z" fill="#fff"/><path d="M8.32 57.85l-1.14-7.094 54.31 32.182.092 9.945L8.319 57.85z" fill="#707070"/><path d="M103.035 49.875l-1.713 8.186L61.58 92.884l-.091-9.946 41.546-33.063z" fill="#D9D9D9"/></g><g filter="url(#filter2_d_1836_1327)"><path d="M66.492 61.774c-1.018.338-10.503 5.033-25.149 3.522-10.837-1.118-31.51-13.901-31.51-13.901L7.17 49.342l44.745-18.696L98 46.844l.01 1.148c-3.71 3.654-13.179 9.994-21.339 10.727-4.08.366-9.163 2.716-10.18 3.055z" fill="#C1141E"/><path d="M27.296 59.806L7.169 49.343l.013 1.413c7.501 4.703 24.548 15.149 35.746 16.318 6.073.634 15.592-.31 21.666-3.38 6.41-3.24 9.714-3.907 10.473-3.914 10.595-.097 19.483-7.283 22.948-11.344l-.014-1.59c-1.234 1.071-5.253 3.929-10.108 6.773-6.07 3.554-10.147 2.638-14.203 3.947-6.084 1.965-9.686 5.605-19.166 6.964-15.027 2.156-21.897-2.545-27.228-4.722z" fill="#9B171F"/></g><path d="M14.512 48.185L55.028 33.59M22.071 49.9l40.516-14.595M29.772 52.343l40.515-14.595M38.249 54.654l40.515-14.596M45.949 57.1l40.516-14.596M44 33.54l41.251 12.54M35.44 36.077l41.252 12.54M28.1 39.62l41.253 12.54m-49.369-8.862l41.253 12.539" stroke="#E2AFAF"/><path fill-rule="evenodd" clip-rule="evenodd" d="M64.425 85.538c-.285-.246-.369-.72-.178-1.16.226-.523.752-.801 1.175-.62a.683.683 0 01.146.084l4.603 2.759-1.103 1.722-4.448-2.667a.682.682 0 01-.188-.113l-.008-.004h.001z" fill="#707070"/><path d="M70.332 87.815c-.236.547-.745.757-1.169.576-.423-.18-.6-.683-.364-1.23.236-.546.77-.843 1.194-.662.424.18.575.77.34 1.316z" fill="#D9D9D9"/><path fill-rule="evenodd" clip-rule="evenodd" d="M71.843 78.782c-.285-.246-.369-.72-.178-1.16.225-.523.752-.8 1.175-.62.053.022.102.05.146.084l4.603 2.759-1.103 1.722-4.448-2.666a.684.684 0 01-.188-.113l-.008-.005h.001z" fill="#707070"/><path d="M77.75 81.06c-.236.546-.745.756-1.168.575-.424-.18-.601-.683-.365-1.23.236-.546.771-.843 1.195-.662.423.18.575.77.339 1.316z" fill="#D9D9D9"/><path fill-rule="evenodd" clip-rule="evenodd" d="M78.52 72.778c-.284-.246-.368-.72-.178-1.16.226-.523.753-.8 1.176-.62.053.022.102.05.146.084l4.602 2.759-1.102 1.722-4.448-2.666-.016-.007a.682.682 0 01-.173-.106l-.007-.005z" fill="#707070"/><path d="M84.428 75.055c-.236.547-.745.757-1.169.576-.423-.18-.6-.682-.364-1.23.236-.546.77-.843 1.194-.662.424.18.576.77.34 1.316z" fill="#D9D9D9"/><path fill-rule="evenodd" clip-rule="evenodd" d="M85.205 67.517c-.284-.247-.368-.72-.178-1.161.226-.523.752-.8 1.176-.62a.62.62 0 01.145.085l4.603 2.758-1.103 1.722-4.448-2.666a.687.687 0 01-.188-.113l-.007-.004v-.001z" fill="#707070"/><path d="M91.113 69.793c-.236.547-.746.757-1.17.577-.423-.18-.6-.683-.364-1.23.237-.546.771-.843 1.195-.663.423.18.575.77.339 1.316z" fill="#D9D9D9"/><path fill-rule="evenodd" clip-rule="evenodd" d="M91.142 62.26c-.285-.245-.369-.72-.178-1.16.225-.523.752-.8 1.175-.62a.68.68 0 01.146.085l4.602 2.758-1.102 1.722-4.448-2.666a.682.682 0 01-.188-.113l-.008-.004v-.001z" fill="#707070"/><path d="M97.049 64.538c-.236.546-.746.756-1.169.576-.424-.18-.6-.683-.365-1.23.236-.546.771-.843 1.195-.663.423.18.575.77.339 1.317z" fill="#D9D9D9"/><path fill-rule="evenodd" clip-rule="evenodd" d="M97.826 56.999c-.285-.246-.369-.72-.178-1.16.225-.524.752-.801 1.175-.62.053.022.102.05.146.084l4.602 2.759-1.102 1.721-4.448-2.666a.684.684 0 01-.188-.113L97.825 57l.001-.001z" fill="#707070"/><path d="M103.733 59.276c-.236.547-.745.756-1.169.576-.423-.18-.601-.683-.365-1.23.237-.546.771-.843 1.195-.663.423.18.575.77.339 1.317z" fill="#D9D9D9"/><defs><filter id="filter0_i_1836_1327" x="0" y="0" width="117" height="117" filterUnits="userSpaceOnUse" color-interpolation-filters="sRGB"><feFlood flood-opacity="0" result="BackgroundImageFix"/><feBlend in="SourceGraphic" in2="BackgroundImageFix" result="shape"/><feColorMatrix in="SourceAlpha" values="0 0 0 0 0 0 0 0 0 0 0 0 0 0 0 0 0 0 127 0" result="hardAlpha"/><feOffset dx="2" dy="2"/><feGaussianBlur stdDeviation="3"/><feComposite in2="hardAlpha" operator="arithmetic" k2="-1" k3="1"/><feColorMatrix values="0 0 0 0 0 0 0 0 0 0 0 0 0 0 0 0 0 0 0.05 0"/><feBlend in2="shape" result="effect1_innerShadow_1836_1327"/></filter><filter id="filter1_d_1836_1327" x="4.181" y="30.881" width="101.855" height="67.002" filterUnits="userSpaceOnUse" color-interpolation-filters="sRGB"><feFlood flood-opacity="0" result="BackgroundImageFix"/><feColorMatrix in="SourceAlpha" values="0 0 0 0 0 0 0 0 0 0 0 0 0 0 0 0 0 0 127 0" result="hardAlpha"/><feOffset dy="2"/><feGaussianBlur stdDeviation="1.5"/><feComposite in2="hardAlpha" operator="out"/><feColorMatrix values="0 0 0 0 0 0 0 0 0 0 0 0 0 0 0 0 0 0 0.25 0"/><feBlend in2="BackgroundImageFix" result="effect1_dropShadow_1836_1327"/><feBlend in="SourceGraphic" in2="effect1_dropShadow_1836_1327" result="shape"/></filter><filter id="filter2_d_1836_1327" x="4.168" y="28.646" width="96.847" height="42.613" filterUnits="userSpaceOnUse" color-interpolation-filters="sRGB"><feFlood flood-opacity="0" result="BackgroundImageFix"/><feColorMatrix in="SourceAlpha" values="0 0 0 0 0 0 0 0 0 0 0 0 0 0 0 0 0 0 127 0" result="hardAlpha"/><feOffset dy="1"/><feGaussianBlur stdDeviation="1.5"/><feComposite in2="hardAlpha" operator="out"/><feColorMatrix values="0 0 0 0 0 0 0 0 0 0 0 0 0 0 0 0 0 0 0.25 0"/><feBlend in2="BackgroundImageFix" result="effect1_dropShadow_1836_1327"/><feBlend in="SourceGraphic" in2="effect1_dropShadow_1836_1327" result="shape"/></filter></defs></svg>