<svg width="115" height="115" fill="none" xmlns="http://www.w3.org/2000/svg"><g filter="url(#filter0_i_1874_14488)"><rect width="115" height="115" rx="15" fill="#F8F4F4"/></g><g filter="url(#filter1_d_1874_14488)"><path d="M52.911 27.862L9.183 46.79l54.31 32.483 41.545-33.364-52.127-18.047z" fill="#fff"/><path d="M10.32 53.828l-1.137-7.094L63.49 78.916l.091 9.946L10.32 53.829z" fill="#707070"/><path d="M105.037 45.854l-1.713 8.186-39.742 34.822-.092-9.945 41.547-33.063z" fill="#D9D9D9"/><path d="M60.162 34.004L40 42.674s20.162 11.822 30.814 16.945C73.5 60.91 75.973 61.68 77 61.504c4.565-.788 18.464-10.555 21.203-15.284 2.739-4.728-2.282-7.093-4.564-5.91.76-.132 3.956-.79 4.564 2.363.61 3.153-5.199 4.073-7.608 3.547L60.162 34.004z" fill="#939090"/></g><g filter="url(#filter2_d_1874_14488)"><path d="M63.446 51.788c-.795.264-8.2 3.929-19.633 2.75-8.46-.873-24.6-10.853-24.6-10.853l-2.08-1.603 34.932-14.596L88 40.001l.053 1.028c-2.896 2.852-10.289 7.801-16.66 8.374-3.184.286-7.153 2.12-7.947 2.385z" fill="#C1141E"/><g filter="url(#filter3_d_1874_14488)"><path d="M33.002 50.656l-15.87-8.575.01 1.104C23 46.856 36.308 55.011 45.05 55.925c4.741.494 12.172-.243 16.914-2.64 5.005-2.53 7.584-3.05 8.177-3.055 8.271-.076 15.21-5.686 17.915-8.857V40c-.963.837-3.763 3.935-7.554 6.156-4.739 2.775-7.5 2.5-11.5 3-4.953.619-7.6 3.938-15 5-11.732 1.682-16.838-1.8-21-3.5z" fill="#9B171F"/></g></g><g filter="url(#filter4_d_1874_14488)"><path d="M72 60c2 1 3.5 1.5 5.32.577 2.636-1.336 2.75-4.27.786-6.21-.769-.76-1.671-1.156-2.555-1.254-1.146.208-1.698.17-1.373.09a3.906 3.906 0 011.373-.09c3.288-.596 11.467-3.222 17.875-12.72 1.964-1.164 5.21-.057 5.573 2.451.392 2.718-.831 4.12-3.61 6.865C92.248 52.814 86.786 58.283 80.5 61c-2.357 1.019-6 1-8.5-1z" fill="#ECC"/></g><defs><filter id="filter0_i_1874_14488" x="0" y="0" width="117" height="117" filterUnits="userSpaceOnUse" color-interpolation-filters="sRGB"><feFlood flood-opacity="0" result="BackgroundImageFix"/><feBlend in="SourceGraphic" in2="BackgroundImageFix" result="shape"/><feColorMatrix in="SourceAlpha" values="0 0 0 0 0 0 0 0 0 0 0 0 0 0 0 0 0 0 127 0" result="hardAlpha"/><feOffset dx="2" dy="2"/><feGaussianBlur stdDeviation="3"/><feComposite in2="hardAlpha" operator="arithmetic" k2="-1" k3="1"/><feColorMatrix values="0 0 0 0 0 0 0 0 0 0 0 0 0 0 0 0 0 0 0.05 0"/><feBlend in2="shape" result="effect1_innerShadow_1874_14488"/></filter><filter id="filter1_d_1874_14488" x="6.183" y="26.863" width="101.855" height="67" filterUnits="userSpaceOnUse" color-interpolation-filters="sRGB"><feFlood flood-opacity="0" result="BackgroundImageFix"/><feColorMatrix in="SourceAlpha" values="0 0 0 0 0 0 0 0 0 0 0 0 0 0 0 0 0 0 127 0" result="hardAlpha"/><feOffset dy="2"/><feGaussianBlur stdDeviation="1.5"/><feComposite in2="hardAlpha" operator="out"/><feColorMatrix values="0 0 0 0 0 0 0 0 0 0 0 0 0 0 0 0 0 0 0.25 0"/><feBlend in2="BackgroundImageFix" result="effect1_dropShadow_1874_14488"/><feBlend in="SourceGraphic" in2="effect1_dropShadow_1874_14488" result="shape"/></filter><filter id="filter2_d_1874_14488" x="14.133" y="25.484" width="76.923" height="34.586" filterUnits="userSpaceOnUse" color-interpolation-filters="sRGB"><feFlood flood-opacity="0" result="BackgroundImageFix"/><feColorMatrix in="SourceAlpha" values="0 0 0 0 0 0 0 0 0 0 0 0 0 0 0 0 0 0 127 0" result="hardAlpha"/><feOffset dy="1"/><feGaussianBlur stdDeviation="1.5"/><feComposite in2="hardAlpha" operator="out"/><feColorMatrix values="0 0 0 0 0 0 0 0 0 0 0 0 0 0 0 0 0 0 0.25 0"/><feBlend in2="BackgroundImageFix" result="effect1_dropShadow_1874_14488"/><feBlend in="SourceGraphic" in2="effect1_dropShadow_1874_14488" result="shape"/></filter><filter id="filter3_d_1874_14488" x="13.133" y="37" width="78.923" height="24.07" filterUnits="userSpaceOnUse" color-interpolation-filters="sRGB"><feFlood flood-opacity="0" result="BackgroundImageFix"/><feColorMatrix in="SourceAlpha" values="0 0 0 0 0 0 0 0 0 0 0 0 0 0 0 0 0 0 127 0" result="hardAlpha"/><feOffset dy="1"/><feGaussianBlur stdDeviation="2"/><feComposite in2="hardAlpha" operator="out"/><feColorMatrix values="0 0 0 0 0 0 0 0 0 0 0 0 0 0 0 0 0 0 0.5 0"/><feBlend in2="BackgroundImageFix" result="effect1_dropShadow_1874_14488"/><feBlend in="SourceGraphic" in2="effect1_dropShadow_1874_14488" result="shape"/></filter><filter id="filter4_d_1874_14488" x="68" y="39.93" width="35.07" height="29.734" filterUnits="userSpaceOnUse" color-interpolation-filters="sRGB"><feFlood flood-opacity="0" result="BackgroundImageFix"/><feColorMatrix in="SourceAlpha" values="0 0 0 0 0 0 0 0 0 0 0 0 0 0 0 0 0 0 127 0" result="hardAlpha"/><feOffset dy="4"/><feGaussianBlur stdDeviation="2"/><feComposite in2="hardAlpha" operator="out"/><feColorMatrix values="0 0 0 0 0 0 0 0 0 0 0 0 0 0 0 0 0 0 0.25 0"/><feBlend in2="BackgroundImageFix" result="effect1_dropShadow_1874_14488"/><feBlend in="SourceGraphic" in2="effect1_dropShadow_1874_14488" result="shape"/></filter></defs></svg>