<svg xmlns="http://www.w3.org/2000/svg" width="77" height="77" viewBox="0 0 77 77" fill="none">
  <path d="M24.9613 11.9517C24.2966 11.9517 23.751 11.4061 23.751 10.7414C23.751 10.0766 24.2966 9.54785 24.9613 9.54785H35.8058C36.4705 9.54785 37.0161 10.0766 37.0161 10.7414C37.0161 11.4061 36.4711 11.9517 35.8058 11.9517H24.9613ZM24.9613 28.9003C24.2966 28.9003 23.751 28.3546 23.751 27.6893C23.751 27.0246 24.2966 26.4958 24.9613 26.4958H46.2923C46.957 26.4958 47.5027 27.0246 47.5027 27.6893C47.5027 28.354 46.9576 28.9003 46.2923 28.9003H24.9613ZM24.9613 23.4783C24.2966 23.4783 23.751 22.9502 23.751 22.2848C23.751 21.6201 24.2966 21.0745 24.9613 21.0745H52.0385C52.7032 21.0745 53.232 21.6195 53.232 22.2848C53.232 22.9502 52.7032 23.4783 52.0385 23.4783H24.9613ZM24.9613 18.0733C24.2966 18.0733 23.751 17.5276 23.751 16.8629C23.751 16.1982 24.2966 15.6694 24.9613 15.6694H52.0385C52.7032 15.6694 53.232 16.1982 53.232 16.8629C53.232 17.5276 52.7032 18.0733 52.0385 18.0733H24.9613Z" fill="#707070"/>
  <path d="M14.203 64.7755C14.8677 64.7755 15.4134 65.3043 15.4134 65.969C15.4134 66.6337 14.8677 67.18 14.203 67.18H5.1831C3.76762 67.18 2.47244 66.5832 1.51715 65.6448C1.50031 65.6279 1.48286 65.5936 1.44918 65.5768C0.562465 64.6389 0 63.3774 0 61.9788V42.0465C0 39.5235 1.04011 37.2388 2.69442 35.5676C4.36497 33.9139 6.64972 32.8738 9.1739 32.8738H67.8279C70.3515 32.8738 72.6362 33.9139 74.3074 35.5676C75.9617 37.2388 77.0018 39.5235 77.0018 42.0465V61.9794C77.0018 63.4117 76.4051 64.7075 75.4672 65.6454C75.451 65.6796 75.4155 65.6965 75.3992 65.7133C74.4614 66.6175 73.1999 67.18 71.8025 67.18H62.8337C62.169 67.18 61.6221 66.6343 61.6221 65.969C61.6221 65.3037 62.1684 64.7755 62.8337 64.7755H71.8025C72.5514 64.7755 73.2167 64.4681 73.7287 64.0085C73.7287 63.9916 73.7449 63.9742 73.7792 63.9405C74.2737 63.446 74.5979 62.747 74.5979 61.9794V42.0465C74.5979 40.1882 73.8309 38.5002 72.6031 37.2724C71.376 36.0446 69.6873 35.2776 67.8285 35.2776H9.1733C7.31446 35.2776 5.62646 36.0446 4.39866 37.2724C3.17086 38.5002 2.40446 40.1882 2.40446 42.0465V61.9794C2.40446 62.7296 2.69442 63.3949 3.17146 63.8894L3.2226 63.9405C3.73453 64.4518 4.43355 64.7761 5.1837 64.7761L14.203 64.7755Z" fill="#707070"/>
  <path d="M64.7584 38.5171C65.9183 38.5171 66.974 38.9941 67.7248 39.7617C67.7591 39.7786 67.7753 39.8129 67.8108 39.8297C68.5261 40.5967 68.9694 41.6206 68.9694 42.7275C68.9694 43.8873 68.4924 44.9448 67.7254 45.7118C66.9584 46.4788 65.9189 46.9396 64.759 46.9396C63.5992 46.9396 62.5417 46.4788 61.7747 45.7118C61.0239 44.9448 60.5469 43.8873 60.5469 42.7275C60.5469 41.5688 61.0239 40.5113 61.7747 39.7611C62.5417 38.9941 63.5992 38.5171 64.7584 38.5171ZM66.0368 41.4497C65.7125 41.1261 65.2529 40.9216 64.7584 40.9216C64.264 40.9216 63.8032 41.1261 63.4789 41.4497C63.1547 41.7902 62.9501 42.2342 62.9501 42.7281C62.9501 43.2225 63.1547 43.6833 63.4789 44.007C63.8032 44.3312 64.2459 44.5358 64.7584 44.5358C65.2529 44.5358 65.7125 44.3312 66.0368 44.007C66.3604 43.6833 66.565 43.24 66.565 42.7281C66.565 42.251 66.3767 41.8245 66.0885 41.5009C66.0711 41.484 66.0548 41.4672 66.0368 41.4497Z" fill="#707070"/>
  <path fill-rule="evenodd" clip-rule="evenodd" d="M11.049 41.5352C11.7137 41.5352 12.2599 42.0633 12.2599 42.7281C12.2599 43.3928 11.7143 43.939 11.049 43.939C10.3836 43.939 9.85547 43.3934 9.85547 42.7281C9.85547 42.0627 10.3836 41.5352 11.049 41.5352ZM21.6372 41.5352C22.3019 41.5352 22.8481 42.0633 22.8481 42.7281C22.8481 43.3928 22.3025 43.939 21.6372 43.939C20.9724 43.939 20.4437 43.3934 20.4437 42.7281C20.4437 42.0627 20.9724 41.5352 21.6372 41.5352ZM16.3512 41.5352C17.0165 41.5352 17.5447 42.0633 17.5447 42.7281C17.5447 43.3928 17.0165 43.939 16.3512 43.939C15.6865 43.939 15.1408 43.3934 15.1408 42.7281C15.1408 42.0627 15.6865 41.5352 16.3512 41.5352Z" fill="#707070"/>
  <path d="M59.6939 52.8055C59.5917 52.1576 60.0519 51.5434 60.7166 51.4411C61.3639 51.3557 61.9787 51.8165 62.0641 52.4644L65.0816 73.0957C65.099 73.2491 65.1159 73.4031 65.1159 73.5391C65.1159 74.442 64.7411 75.2433 64.1443 75.8575C63.5813 76.4374 62.8143 76.8296 61.9955 76.9488C61.8253 76.983 61.6551 76.9999 61.4842 76.9999H15.5155C15.3452 76.9999 15.175 76.983 15.0041 76.9488H14.953C14.1517 76.8122 13.4184 76.42 12.8553 75.8575C12.2592 75.2433 11.8838 74.442 11.8838 73.5391C11.8838 73.4025 11.9006 73.2491 11.9181 73.0957L14.9187 52.4644C15.021 51.8165 15.6177 51.3557 16.2824 51.4411C16.9472 51.5434 17.3911 52.157 17.3057 52.8055L14.2877 73.4374V73.5397C14.2877 73.7779 14.4068 73.9993 14.5776 74.187C14.7653 74.3915 15.0378 74.5275 15.3109 74.5786H15.3452C15.3957 74.5786 15.4475 74.5954 15.5155 74.5954H61.4842C61.5522 74.5954 61.6039 74.5786 61.6545 74.5786C61.9444 74.5275 62.2175 74.3909 62.4215 74.187C62.5917 73.9987 62.7114 73.7779 62.7114 73.5397C62.7114 73.5054 62.7114 73.4543 62.6952 73.4374L59.6939 52.8055Z" fill="#707070"/>
  <path d="M11.3394 58.3814C12.0042 58.3814 12.5323 58.9271 12.5323 59.5924C12.5323 60.2577 12.0042 60.7859 11.3394 60.7859C10.3505 60.7859 9.4469 60.3762 8.78216 59.7284C8.13428 59.0636 7.72461 58.1601 7.72461 57.1873V55.0391C7.72461 54.0502 8.13428 53.1466 8.78216 52.4987H8.79901C9.4469 51.834 10.3505 51.4412 11.3394 51.4412H65.7139C66.7029 51.4412 67.6064 51.8334 68.2549 52.4987C68.9196 53.1634 69.3125 54.0502 69.3125 55.0391V57.1873C69.3125 58.1769 68.9202 59.063 68.2549 59.7284C67.5902 60.3931 66.7029 60.7859 65.7139 60.7859C65.0492 60.7859 64.5035 60.2571 64.5035 59.5924C64.5035 58.9277 65.0486 58.3814 65.7139 58.3814C66.0381 58.3814 66.3443 58.2449 66.5663 58.0404V58.0235C66.7708 57.819 66.9068 57.5122 66.9068 57.1879V55.0397C66.9068 54.7155 66.7702 54.4093 66.5663 54.2042V54.1873C66.3443 53.9828 66.0381 53.8468 65.7139 53.8468H11.3394C10.9983 53.8468 10.6915 53.9834 10.487 54.1873V54.2042C10.265 54.4093 10.1291 54.7155 10.1291 55.0397V57.1879C10.1291 57.5122 10.2656 57.819 10.487 58.0235V58.0404C10.6909 58.2449 10.9983 58.3814 11.3394 58.3814Z" fill="#707070"/>
  <path d="M17.3234 29.4124C17.3234 30.0772 16.7778 30.6228 16.1125 30.6228C15.4471 30.6228 14.9189 30.0772 14.9189 29.4124V3.2226C14.9189 2.33528 15.2769 1.5346 15.8568 0.954687C15.8911 0.920398 15.9079 0.903554 15.9422 0.869265C16.5221 0.340487 17.2891 0 18.1421 0H50.3675H50.8963C51.3228 0 51.7319 0.0854225 52.1078 0.238221C52.4989 0.39162 52.8411 0.612997 53.1479 0.902952L61.0423 8.33712C61.3828 8.66076 61.6559 9.0193 61.8262 9.42776C61.9964 9.83743 62.0824 10.2639 62.0824 10.7235V29.4112C62.0824 30.076 61.5536 30.6216 60.8889 30.6216C60.2242 30.6216 59.6792 30.076 59.6792 29.4112V12.4464L54.0852 12.4633V12.4801H54.0689V12.4633C52.4495 12.4633 51.2217 11.9002 50.4024 11.0141C49.5668 10.1099 49.1746 8.93387 49.1746 7.67239H49.1583V2.40386H18.1421C17.9376 2.40386 17.7331 2.48928 17.5965 2.609L17.5622 2.64329C17.4088 2.79669 17.324 3.00122 17.324 3.2232L17.3234 29.4124ZM59.3699 10.0594L51.561 2.71066V7.67299C51.561 8.33772 51.7655 8.95132 52.1578 9.37723C52.55 9.80374 53.181 10.0763 54.0677 10.0763H54.084L59.3699 10.0594Z" fill="#707070"/>
</svg>