<svg width="21" height="21" viewBox="0 0 21 21" fill="none" xmlns="http://www.w3.org/2000/svg">
<rect width="21" height="21" rx="5" fill="#FFB438"/>
<path d="M18.379 17.6236L17.3263 14.1966C18.3033 12.4568 18.6114 10.4202 18.1927 8.46934C17.774 6.51847 16.6573 4.78765 15.0524 3.60208C13.4475 2.4165 11.465 1.85778 9.47719 2.03088C7.48942 2.20399 5.63327 3.09701 4.2575 4.54215C2.88172 5.98729 2.08102 7.88509 2.00582 9.87896C1.93063 11.8728 2.58612 13.8256 3.84914 15.3702C5.11216 16.9149 6.89578 17.9452 8.86486 18.2675C10.834 18.5898 12.853 18.182 14.5426 17.1207L17.5778 18.3371C17.6763 18.3726 17.7825 18.3811 17.8854 18.3615C17.9883 18.342 18.084 18.2952 18.1626 18.226C18.2533 18.1575 18.3221 18.064 18.3605 17.957C18.399 17.85 18.4054 17.7342 18.379 17.6236ZM16.1333 14.2843L16.8877 16.799L14.6946 15.9218C14.6056 15.8873 14.5095 15.8751 14.4147 15.8863C14.3199 15.8976 14.2293 15.9318 14.1507 15.9861C12.7126 16.9782 10.9584 17.4032 9.22569 17.1793C7.493 16.9554 5.90438 16.0985 4.76568 14.7734C3.62698 13.4484 3.0187 11.749 3.05795 10.0023C3.09721 8.25566 3.78122 6.58527 4.97829 5.31273C6.17537 4.04019 7.80088 3.25548 9.54188 3.10966C11.2829 2.96384 13.0163 3.46722 14.4084 4.5229C15.8004 5.57858 16.7528 7.11191 17.082 8.8277C17.4113 10.5435 17.0942 12.3204 16.1918 13.8164C16.1501 13.8861 16.1234 13.9636 16.1133 14.0442C16.1032 14.1247 16.11 14.2065 16.1333 14.2843Z" fill="white"/>
<path d="M10.1916 11.3603C10.8376 11.3603 11.3613 10.8366 11.3613 10.1906C11.3613 9.54466 10.8376 9.021 10.1916 9.021C9.54564 9.021 9.02197 9.54466 9.02197 10.1906C9.02197 10.8366 9.54564 11.3603 10.1916 11.3603Z" fill="white"/>
<path d="M14.2854 11.3603C14.9313 11.3603 15.455 10.8366 15.455 10.1906C15.455 9.54466 14.9313 9.021 14.2854 9.021C13.6394 9.021 13.1157 9.54466 13.1157 10.1906C13.1157 10.8366 13.6394 11.3603 14.2854 11.3603Z" fill="white"/>
<path d="M6.09787 11.3603C6.74384 11.3603 7.26751 10.8366 7.26751 10.1906C7.26751 9.54466 6.74384 9.021 6.09787 9.021C5.45189 9.021 4.92822 9.54466 4.92822 10.1906C4.92822 10.8366 5.45189 11.3603 6.09787 11.3603Z" fill="white"/>
</svg>
