<svg width="21" height="21" fill="none" xmlns="http://www.w3.org/2000/svg"><circle cx="10.5" cy="10.5" r="10.5" fill="#FFB438"/><path d="M7.807 15.14a.797.797 0 01-.798.786H4.8a.79.79 0 01-.8-.786V8.969a.79.79 0 01.798-.786h2.2a.79.79 0 01.798.786l.011 6.17zm9.362-4.843a1.07 1.07 0 01-.432 1.89c.475.372.55 1.052.173 1.508a1.125 1.125 0 01-.615.383c.475.371.55 1.051.162 1.518a1.09 1.09 0 01-.852.404l-6.202-.064a.79.79 0 01-.798-.786V8.97c0-.977 3.171-2.772 3.333-3.739.108-.637-.033-2.23.399-2.23.744 0 1.682.276 1.682 1.89 0 1.424-.949 3.272-.949 3.272h3.84c.604 0 1.09.478 1.09 1.072.02.52-.335.956-.831 1.063z" fill="#fff"/></svg>