<svg width="115" height="115" viewBox="0 0 115 115" fill="none" xmlns="http://www.w3.org/2000/svg">
<g filter="url(#filter0_i_1874_14522)">
<rect width="115" height="115" rx="15" fill="#F8F4F4"/>
</g>
<g filter="url(#filter1_d_1874_14522)">
<path fill-rule="evenodd" clip-rule="evenodd" d="M97.8616 35.4375H18.0005V85.403C18.0005 91.5353 35.878 96.5065 57.931 96.5065C79.9841 96.5065 97.8616 91.5353 97.8616 85.403V35.4375Z" fill="white"/>
</g>
<g filter="url(#filter2_i_1874_14522)">
<ellipse cx="57.9306" cy="36.2284" rx="39.9306" ry="11.1034" fill="#707070"/>
</g>
<mask id="mask0_1874_14522" style="mask-type:alpha" maskUnits="userSpaceOnUse" x="18" y="35" width="80" height="62">
<path fill-rule="evenodd" clip-rule="evenodd" d="M18.0369 35.4375C17.9873 35.7986 17.9881 36.1522 18.0369 36.4984V35.4375ZM97.898 85.3736V35.4375C96.0828 52.0779 19.9556 50.1129 18.0369 36.4984V85.403L18.037 85.403C18.037 91.5353 35.9145 96.5065 57.9676 96.5065C80.0206 96.5065 97.8981 91.5353 97.8981 85.403C97.8981 85.3932 97.8981 85.3834 97.898 85.3736Z" fill="white"/>
</mask>
<g mask="url(#mask0_1874_14522)">
<rect x="54.5181" y="-11" width="3.01852" height="94.018" transform="rotate(45 54.5181 -11)" fill="#C1141E"/>
<rect x="59.854" y="-5.66406" width="3.01852" height="94.018" transform="rotate(45 59.854 -5.66406)" fill="#C1141E"/>
<rect x="65.1899" y="-0.328125" width="3.01852" height="94.018" transform="rotate(45 65.1899 -0.328125)" fill="#C1141E"/>
<rect x="70.5264" y="5.00781" width="3.01852" height="94.018" transform="rotate(45 70.5264 5.00781)" fill="#C1141E"/>
<rect x="75.8623" y="10.3438" width="3.01852" height="94.018" transform="rotate(45 75.8623 10.3438)" fill="#C1141E"/>
<rect x="81.1982" y="15.6797" width="3.01852" height="94.018" transform="rotate(45 81.1982 15.6797)" fill="#C1141E"/>
<rect x="86.5342" y="21.0156" width="3.01852" height="94.018" transform="rotate(45 86.5342 21.0156)" fill="#C1141E"/>
<rect x="91.8706" y="26.3516" width="3.01852" height="94.018" transform="rotate(45 91.8706 26.3516)" fill="#C1141E"/>
<rect x="97.2065" y="31.6875" width="3.01852" height="94.018" transform="rotate(45 97.2065 31.6875)" fill="#C1141E"/>
<rect x="102.542" y="37.0234" width="3.01852" height="94.018" transform="rotate(45 102.542 37.0234)" fill="#C1141E"/>
<rect x="107.878" y="42.3594" width="3.01852" height="94.018" transform="rotate(45 107.878 42.3594)" fill="#C1141E"/>
<rect x="113.214" y="47.6953" width="3.01852" height="94.018" transform="rotate(45 113.214 47.6953)" fill="#C1141E"/>
<rect x="118.551" y="53.0312" width="3.01852" height="94.018" transform="rotate(45 118.551 53.0312)" fill="#C1141E"/>
<rect x="123.887" y="58.3672" width="3.01852" height="94.018" transform="rotate(45 123.887 58.3672)" fill="#C1141E"/>
<rect x="129.223" y="63.7031" width="3.01852" height="94.018" transform="rotate(45 129.223 63.7031)" fill="#C1141E"/>
</g>
<g filter="url(#filter3_d_1874_14522)">
<path fill-rule="evenodd" clip-rule="evenodd" d="M58.4781 30.4607C58.127 29.8645 57.3099 29.8416 56.9358 30.4236C55.8361 32.1347 53.9114 35.5242 53.1812 39.2653C53.0989 39.5638 53.0462 39.8743 53.0265 40.1938C53.0235 40.2158 53.0205 40.2377 53.0176 40.2597C52.9888 40.4767 52.9959 40.6819 53.035 40.8752C53.2379 43.217 55.2162 45.0548 57.6268 45.0548C60.0668 45.0548 62.0639 43.1719 62.2253 40.7894C62.2322 40.7232 62.2356 40.6557 62.2356 40.5867C62.2356 40.5702 62.2356 40.5537 62.2355 40.5371C62.2357 40.5173 62.2358 40.4975 62.2358 40.4776C62.2358 40.3238 62.2282 40.1718 62.2133 40.0219C61.9637 36.7612 59.6846 32.5096 58.4781 30.4607Z" fill="white"/>
</g>
<g filter="url(#filter4_d_1874_14522)">
<path fill-rule="evenodd" clip-rule="evenodd" d="M74.496 29.4627C74.1499 28.8636 73.3349 28.8405 72.968 29.4271C72.0788 30.849 70.6888 33.4024 70.143 36.2036C70.0787 36.4377 70.0374 36.6813 70.0217 36.9317C70.0191 36.9507 70.0165 36.9697 70.014 36.9887C69.9909 37.162 69.9968 37.3259 70.0284 37.4802C70.1909 39.3377 71.7607 40.7951 73.6732 40.7951C75.6136 40.7951 77.2012 39.295 77.3242 37.3989C77.329 37.3496 77.3314 37.2994 77.3314 37.2482C77.3314 37.2406 77.3314 37.233 77.3314 37.2253C77.3317 37.2041 77.3319 37.1829 77.3319 37.1616C77.3319 37.0346 77.3253 36.9091 77.3125 36.7855C77.1189 34.3266 75.4787 31.1637 74.496 29.4627Z" fill="white"/>
</g>
<g filter="url(#filter5_d_1874_14522)">
<path fill-rule="evenodd" clip-rule="evenodd" d="M42.496 29.4627C42.1499 28.8636 41.3349 28.8405 40.968 29.4271C40.0788 30.849 38.6888 33.4024 38.143 36.2036C38.0787 36.4377 38.0374 36.6813 38.0217 36.9317C38.0191 36.9507 38.0165 36.9697 38.014 36.9887C37.9909 37.162 37.9968 37.3259 38.0284 37.4802C38.1909 39.3377 39.7607 40.7951 41.6732 40.7951C43.6136 40.7951 45.2012 39.295 45.3242 37.3989C45.329 37.3496 45.3314 37.2994 45.3314 37.2482C45.3314 37.2406 45.3314 37.233 45.3314 37.2253C45.3317 37.2041 45.3319 37.1829 45.3319 37.1616C45.3319 37.0346 45.3253 36.9091 45.3125 36.7855C45.1189 34.3266 43.4787 31.1637 42.496 29.4627Z" fill="white"/>
</g>
<defs>
<filter id="filter0_i_1874_14522" x="0" y="0" width="117" height="117" filterUnits="userSpaceOnUse" color-interpolation-filters="sRGB">
<feFlood flood-opacity="0" result="BackgroundImageFix"/>
<feBlend mode="normal" in="SourceGraphic" in2="BackgroundImageFix" result="shape"/>
<feColorMatrix in="SourceAlpha" type="matrix" values="0 0 0 0 0 0 0 0 0 0 0 0 0 0 0 0 0 0 127 0" result="hardAlpha"/>
<feOffset dx="2" dy="2"/>
<feGaussianBlur stdDeviation="3"/>
<feComposite in2="hardAlpha" operator="arithmetic" k2="-1" k3="1"/>
<feColorMatrix type="matrix" values="0 0 0 0 0 0 0 0 0 0 0 0 0 0 0 0 0 0 0.05 0"/>
<feBlend mode="normal" in2="shape" result="effect1_innerShadow_1874_14522"/>
</filter>
<filter id="filter1_d_1874_14522" x="15.0005" y="34.4375" width="85.8613" height="67.0703" filterUnits="userSpaceOnUse" color-interpolation-filters="sRGB">
<feFlood flood-opacity="0" result="BackgroundImageFix"/>
<feColorMatrix in="SourceAlpha" type="matrix" values="0 0 0 0 0 0 0 0 0 0 0 0 0 0 0 0 0 0 127 0" result="hardAlpha"/>
<feOffset dy="2"/>
<feGaussianBlur stdDeviation="1.5"/>
<feComposite in2="hardAlpha" operator="out"/>
<feColorMatrix type="matrix" values="0 0 0 0 0 0 0 0 0 0 0 0 0 0 0 0 0 0 0.25 0"/>
<feBlend mode="normal" in2="BackgroundImageFix" result="effect1_dropShadow_1874_14522"/>
<feBlend mode="normal" in="SourceGraphic" in2="effect1_dropShadow_1874_14522" result="shape"/>
</filter>
<filter id="filter2_i_1874_14522" x="18" y="25.125" width="79.8613" height="26.207" filterUnits="userSpaceOnUse" color-interpolation-filters="sRGB">
<feFlood flood-opacity="0" result="BackgroundImageFix"/>
<feBlend mode="normal" in="SourceGraphic" in2="BackgroundImageFix" result="shape"/>
<feColorMatrix in="SourceAlpha" type="matrix" values="0 0 0 0 0 0 0 0 0 0 0 0 0 0 0 0 0 0 127 0" result="hardAlpha"/>
<feOffset dy="4"/>
<feGaussianBlur stdDeviation="2.5"/>
<feComposite in2="hardAlpha" operator="arithmetic" k2="-1" k3="1"/>
<feColorMatrix type="matrix" values="0 0 0 0 0 0 0 0 0 0 0 0 0 0 0 0 0 0 0.5 0"/>
<feBlend mode="normal" in2="shape" result="effect1_innerShadow_1874_14522"/>
</filter>
<filter id="filter3_d_1874_14522" x="50" y="29" width="15.2358" height="21.0547" filterUnits="userSpaceOnUse" color-interpolation-filters="sRGB">
<feFlood flood-opacity="0" result="BackgroundImageFix"/>
<feColorMatrix in="SourceAlpha" type="matrix" values="0 0 0 0 0 0 0 0 0 0 0 0 0 0 0 0 0 0 127 0" result="hardAlpha"/>
<feOffset dy="2"/>
<feGaussianBlur stdDeviation="1.5"/>
<feComposite in2="hardAlpha" operator="out"/>
<feColorMatrix type="matrix" values="0 0 0 0 0 0 0 0 0 0 0 0 0 0 0 0 0 0 0.25 0"/>
<feBlend mode="normal" in2="BackgroundImageFix" result="effect1_dropShadow_1874_14522"/>
<feBlend mode="normal" in="SourceGraphic" in2="effect1_dropShadow_1874_14522" result="shape"/>
</filter>
<filter id="filter4_d_1874_14522" x="67" y="28" width="13.332" height="17.7969" filterUnits="userSpaceOnUse" color-interpolation-filters="sRGB">
<feFlood flood-opacity="0" result="BackgroundImageFix"/>
<feColorMatrix in="SourceAlpha" type="matrix" values="0 0 0 0 0 0 0 0 0 0 0 0 0 0 0 0 0 0 127 0" result="hardAlpha"/>
<feOffset dy="2"/>
<feGaussianBlur stdDeviation="1.5"/>
<feComposite in2="hardAlpha" operator="out"/>
<feColorMatrix type="matrix" values="0 0 0 0 0 0 0 0 0 0 0 0 0 0 0 0 0 0 0.25 0"/>
<feBlend mode="normal" in2="BackgroundImageFix" result="effect1_dropShadow_1874_14522"/>
<feBlend mode="normal" in="SourceGraphic" in2="effect1_dropShadow_1874_14522" result="shape"/>
</filter>
<filter id="filter5_d_1874_14522" x="35" y="28" width="13.332" height="17.7969" filterUnits="userSpaceOnUse" color-interpolation-filters="sRGB">
<feFlood flood-opacity="0" result="BackgroundImageFix"/>
<feColorMatrix in="SourceAlpha" type="matrix" values="0 0 0 0 0 0 0 0 0 0 0 0 0 0 0 0 0 0 127 0" result="hardAlpha"/>
<feOffset dy="2"/>
<feGaussianBlur stdDeviation="1.5"/>
<feComposite in2="hardAlpha" operator="out"/>
<feColorMatrix type="matrix" values="0 0 0 0 0 0 0 0 0 0 0 0 0 0 0 0 0 0 0.25 0"/>
<feBlend mode="normal" in2="BackgroundImageFix" result="effect1_dropShadow_1874_14522"/>
<feBlend mode="normal" in="SourceGraphic" in2="effect1_dropShadow_1874_14522" result="shape"/>
</filter>
</defs>
</svg>
