<svg width="115" height="115" fill="none" xmlns="http://www.w3.org/2000/svg"><g filter="url(#filter0_i_1874_14522)"><rect width="115" height="115" rx="15" fill="#F8F4F4"/></g><g filter="url(#filter1_d_1874_14522)"><path fill-rule="evenodd" clip-rule="evenodd" d="M97.862 35.438H18v49.965c0 6.132 17.877 11.103 39.93 11.103s39.93-4.97 39.93-11.103V35.437z" fill="#fff"/></g><g filter="url(#filter2_i_1874_14522)"><ellipse cx="57.931" cy="36.228" rx="39.931" ry="11.103" fill="#707070"/></g><mask id="a" style="mask-type:alpha" maskUnits="userSpaceOnUse" x="18" y="35" width="80" height="62"><path fill-rule="evenodd" clip-rule="evenodd" d="M18.037 35.438a3.83 3.83 0 000 1.06v-1.06zm79.861 49.936V35.438c-1.815 16.64-77.942 14.675-79.861 1.06v48.905c0 6.132 17.877 11.103 39.93 11.103 22.054 0 39.931-4.97 39.931-11.103v-.03z" fill="#fff"/></mask><g mask="url(#a)" fill="#C1141E"><path d="M54.518-11l2.135 2.135-66.481 66.48-2.135-2.134zm5.336 5.336l2.135 2.135-66.481 66.48-2.135-2.134zM65.19-.328l2.135 2.135L.844 68.287l-2.135-2.134zm5.336 5.336l2.135 2.134L6.18 73.623l-2.135-2.135zm5.336 5.336l2.135 2.134L11.516 78.96 9.38 76.824zm5.336 5.336l2.135 2.135-66.481 66.48-2.135-2.134zm5.336 5.336l2.135 2.134-66.481 66.481-2.135-2.134zm5.336 5.336l2.135 2.135-66.48 66.48-2.135-2.134zm5.337 5.336l2.134 2.135-66.48 66.48-2.135-2.134zm5.335 5.335l2.135 2.135-66.48 66.48-2.135-2.134zm5.336 5.337l2.135 2.134-66.48 66.48-2.135-2.134zm5.336 5.335l2.135 2.135-66.48 66.48-2.136-2.134zm5.337 5.336l2.135 2.135-66.48 66.48-2.136-2.134zm5.336 5.336l2.135 2.135-66.48 66.48-2.136-2.134zm5.336 5.336l2.135 2.135-66.48 66.48-2.136-2.134z"/></g><g filter="url(#filter3_d_1874_14522)"><path fill-rule="evenodd" clip-rule="evenodd" d="M58.478 30.46a.894.894 0 00-1.542-.036c-1.1 1.71-3.025 5.1-3.755 8.841a4.542 4.542 0 00-.154.929l-.01.066c-.028.217-.021.422.018.615.203 2.342 2.181 4.18 4.592 4.18 2.44 0 4.437-1.883 4.598-4.266a1.91 1.91 0 00.01-.202v-.11c0-.153-.007-.305-.022-.455-.25-3.26-2.528-7.512-3.735-9.561z" fill="#fff"/></g><g filter="url(#filter4_d_1874_14522)"><path fill-rule="evenodd" clip-rule="evenodd" d="M74.496 29.463c-.346-.6-1.161-.623-1.528-.036-.89 1.422-2.28 3.975-2.825 6.777a3.597 3.597 0 00-.121.728l-.008.057c-.023.173-.017.337.014.491a3.65 3.65 0 003.645 3.315c1.94 0 3.528-1.5 3.651-3.396.005-.05.007-.1.007-.15v-.087a3.65 3.65 0 00-.019-.377c-.193-2.458-1.833-5.621-2.816-7.322z" fill="#fff"/></g><g filter="url(#filter5_d_1874_14522)"><path fill-rule="evenodd" clip-rule="evenodd" d="M42.496 29.463c-.346-.6-1.161-.623-1.528-.036-.89 1.422-2.28 3.975-2.825 6.777a3.597 3.597 0 00-.121.728l-.008.057c-.023.173-.017.337.014.491a3.65 3.65 0 003.645 3.315c1.94 0 3.528-1.5 3.651-3.396.005-.05.007-.1.007-.15v-.087a3.65 3.65 0 00-.019-.377c-.193-2.458-1.833-5.621-2.816-7.322z" fill="#fff"/></g><defs><filter id="filter0_i_1874_14522" x="0" y="0" width="117" height="117" filterUnits="userSpaceOnUse" color-interpolation-filters="sRGB"><feFlood flood-opacity="0" result="BackgroundImageFix"/><feBlend in="SourceGraphic" in2="BackgroundImageFix" result="shape"/><feColorMatrix in="SourceAlpha" values="0 0 0 0 0 0 0 0 0 0 0 0 0 0 0 0 0 0 127 0" result="hardAlpha"/><feOffset dx="2" dy="2"/><feGaussianBlur stdDeviation="3"/><feComposite in2="hardAlpha" operator="arithmetic" k2="-1" k3="1"/><feColorMatrix values="0 0 0 0 0 0 0 0 0 0 0 0 0 0 0 0 0 0 0.05 0"/><feBlend in2="shape" result="effect1_innerShadow_1874_14522"/></filter><filter id="filter1_d_1874_14522" x="15.001" y="34.438" width="85.861" height="67.07" filterUnits="userSpaceOnUse" color-interpolation-filters="sRGB"><feFlood flood-opacity="0" result="BackgroundImageFix"/><feColorMatrix in="SourceAlpha" values="0 0 0 0 0 0 0 0 0 0 0 0 0 0 0 0 0 0 127 0" result="hardAlpha"/><feOffset dy="2"/><feGaussianBlur stdDeviation="1.5"/><feComposite in2="hardAlpha" operator="out"/><feColorMatrix values="0 0 0 0 0 0 0 0 0 0 0 0 0 0 0 0 0 0 0.25 0"/><feBlend in2="BackgroundImageFix" result="effect1_dropShadow_1874_14522"/><feBlend in="SourceGraphic" in2="effect1_dropShadow_1874_14522" result="shape"/></filter><filter id="filter2_i_1874_14522" x="18" y="25.125" width="79.861" height="26.207" filterUnits="userSpaceOnUse" color-interpolation-filters="sRGB"><feFlood flood-opacity="0" result="BackgroundImageFix"/><feBlend in="SourceGraphic" in2="BackgroundImageFix" result="shape"/><feColorMatrix in="SourceAlpha" values="0 0 0 0 0 0 0 0 0 0 0 0 0 0 0 0 0 0 127 0" result="hardAlpha"/><feOffset dy="4"/><feGaussianBlur stdDeviation="2.5"/><feComposite in2="hardAlpha" operator="arithmetic" k2="-1" k3="1"/><feColorMatrix values="0 0 0 0 0 0 0 0 0 0 0 0 0 0 0 0 0 0 0.5 0"/><feBlend in2="shape" result="effect1_innerShadow_1874_14522"/></filter><filter id="filter3_d_1874_14522" x="50" y="29" width="15.236" height="21.055" filterUnits="userSpaceOnUse" color-interpolation-filters="sRGB"><feFlood flood-opacity="0" result="BackgroundImageFix"/><feColorMatrix in="SourceAlpha" values="0 0 0 0 0 0 0 0 0 0 0 0 0 0 0 0 0 0 127 0" result="hardAlpha"/><feOffset dy="2"/><feGaussianBlur stdDeviation="1.5"/><feComposite in2="hardAlpha" operator="out"/><feColorMatrix values="0 0 0 0 0 0 0 0 0 0 0 0 0 0 0 0 0 0 0.25 0"/><feBlend in2="BackgroundImageFix" result="effect1_dropShadow_1874_14522"/><feBlend in="SourceGraphic" in2="effect1_dropShadow_1874_14522" result="shape"/></filter><filter id="filter4_d_1874_14522" x="67" y="28" width="13.332" height="17.797" filterUnits="userSpaceOnUse" color-interpolation-filters="sRGB"><feFlood flood-opacity="0" result="BackgroundImageFix"/><feColorMatrix in="SourceAlpha" values="0 0 0 0 0 0 0 0 0 0 0 0 0 0 0 0 0 0 127 0" result="hardAlpha"/><feOffset dy="2"/><feGaussianBlur stdDeviation="1.5"/><feComposite in2="hardAlpha" operator="out"/><feColorMatrix values="0 0 0 0 0 0 0 0 0 0 0 0 0 0 0 0 0 0 0.25 0"/><feBlend in2="BackgroundImageFix" result="effect1_dropShadow_1874_14522"/><feBlend in="SourceGraphic" in2="effect1_dropShadow_1874_14522" result="shape"/></filter><filter id="filter5_d_1874_14522" x="35" y="28" width="13.332" height="17.797" filterUnits="userSpaceOnUse" color-interpolation-filters="sRGB"><feFlood flood-opacity="0" result="BackgroundImageFix"/><feColorMatrix in="SourceAlpha" values="0 0 0 0 0 0 0 0 0 0 0 0 0 0 0 0 0 0 127 0" result="hardAlpha"/><feOffset dy="2"/><feGaussianBlur stdDeviation="1.5"/><feComposite in2="hardAlpha" operator="out"/><feColorMatrix values="0 0 0 0 0 0 0 0 0 0 0 0 0 0 0 0 0 0 0.25 0"/><feBlend in2="BackgroundImageFix" result="effect1_dropShadow_1874_14522"/><feBlend in="SourceGraphic" in2="effect1_dropShadow_1874_14522" result="shape"/></filter></defs></svg>