<svg width="124" height="116" fill="none" xmlns="http://www.w3.org/2000/svg"><g filter="url(#filter0_i_1836_1281)"><rect x="9" y="1" width="115" height="115" rx="15" fill="#F8F4F4"/></g><g filter="url(#filter1_d_1836_1281)"><path d="M62.376 14.957L25.081 55.405l49.497 7.931 34.103-45.417-46.305-2.962z" fill="#F4CFD5"/><path d="M74.635 63.336v35.293l34.046-9.914V18.13L74.635 63.336z" fill="#fff"/><path d="M74.636 63.335l-43.881-7.138v32.517l43.882 9.914V63.335z" fill="#707070"/><g filter="url(#filter2_d_1836_1281)"><path d="M48.91 68.184l45.397-51.248-32.154-2.377L25.325 54.61c1.562.261 23.585 13.573 23.585 13.573z" fill="#C1141E"/></g><path d="M34.773 55.013l34.19-36.489m-39.761 35.83l34.843-37.019M39.486 56.66l35.151-37.739M45.006 57.319L80.513 19.11M49.777 58.965L86.54 19.11" stroke="#E2AFAF"/><g filter="url(#filter3_d_1836_1281)"><ellipse cx="6.948" cy="7.125" rx="6.948" ry="7.125" transform="matrix(.94589 -.30177 .28069 .96682 14.386 56.16)" fill="#707070"/></g><g filter="url(#filter4_dd_1836_1281)"><path fill-rule="evenodd" clip-rule="evenodd" d="M21.797 67.736c-2.07-.672-3.798-2.374-4.477-4.713-1.087-3.747.928-7.71 4.503-8.85a6.438 6.438 0 013.908-.01l19.278 3.824-1.985 13.74-19.655-3.688a6.46 6.46 0 01-1.512-.284l-.062-.011.002-.008z" fill="#C1141E"/></g><g filter="url(#filter5_d_1836_1281)"><ellipse cx="6.948" cy="7.125" rx="6.948" ry="7.125" transform="matrix(.94589 -.30177 .28069 .96682 35.456 60.246)" fill="#707070"/></g><g filter="url(#filter6_i_1836_1281)"><ellipse cx="6.235" cy="6.394" rx="6.235" ry="6.394" transform="matrix(.94589 -.30177 .28069 .96682 36.336 60.738)" fill="#fff"/></g><path d="M43.617 64.847c-.361-.656-.166-1.485.437-1.85.602-.364 1.384-.127 1.746.53.724 1.313.333 2.97-.873 3.7-1.205.729-2.77.255-3.493-1.058-1.085-1.97-.499-4.456 1.31-5.55 1.808-1.095 4.154-.385 5.24 1.586 1.446 2.627.665 5.94-1.747 7.4-2.41 1.46-5.539.512-6.986-2.115" stroke="#E38696" stroke-miterlimit="22.926" stroke-linecap="round"/></g><defs><filter id="filter0_i_1836_1281" x="9" y="1" width="117" height="117" filterUnits="userSpaceOnUse" color-interpolation-filters="sRGB"><feFlood flood-opacity="0" result="BackgroundImageFix"/><feBlend in="SourceGraphic" in2="BackgroundImageFix" result="shape"/><feColorMatrix in="SourceAlpha" values="0 0 0 0 0 0 0 0 0 0 0 0 0 0 0 0 0 0 127 0" result="hardAlpha"/><feOffset dx="2" dy="2"/><feGaussianBlur stdDeviation="3"/><feComposite in2="hardAlpha" operator="arithmetic" k2="-1" k3="1"/><feColorMatrix values="0 0 0 0 0 0 0 0 0 0 0 0 0 0 0 0 0 0 0.05 0"/><feBlend in2="shape" result="effect1_innerShadow_1836_1281"/></filter><filter id="filter1_d_1836_1281" x="13.087" y="13.559" width="98.594" height="90.07" filterUnits="userSpaceOnUse" color-interpolation-filters="sRGB"><feFlood flood-opacity="0" result="BackgroundImageFix"/><feColorMatrix in="SourceAlpha" values="0 0 0 0 0 0 0 0 0 0 0 0 0 0 0 0 0 0 127 0" result="hardAlpha"/><feOffset dy="2"/><feGaussianBlur stdDeviation="1.5"/><feComposite in2="hardAlpha" operator="out"/><feColorMatrix values="0 0 0 0 0 0 0 0 0 0 0 0 0 0 0 0 0 0 0.25 0"/><feBlend in2="BackgroundImageFix" result="effect1_dropShadow_1836_1281"/><feBlend in="SourceGraphic" in2="effect1_dropShadow_1836_1281" result="shape"/></filter><filter id="filter2_d_1836_1281" x="21.325" y="12.559" width="76.982" height="61.625" filterUnits="userSpaceOnUse" color-interpolation-filters="sRGB"><feFlood flood-opacity="0" result="BackgroundImageFix"/><feColorMatrix in="SourceAlpha" values="0 0 0 0 0 0 0 0 0 0 0 0 0 0 0 0 0 0 127 0" result="hardAlpha"/><feOffset dy="2"/><feGaussianBlur stdDeviation="2"/><feComposite in2="hardAlpha" operator="out"/><feColorMatrix values="0 0 0 0 0 0 0 0 0 0 0 0 0 0 0 0 0 0 0.5 0"/><feBlend in2="BackgroundImageFix" result="effect1_dropShadow_1836_1281"/><feBlend in="SourceGraphic" in2="effect1_dropShadow_1836_1281" result="shape"/></filter><filter id="filter3_d_1836_1281" x="13.087" y="50.75" width="19.742" height="20.404" filterUnits="userSpaceOnUse" color-interpolation-filters="sRGB"><feFlood flood-opacity="0" result="BackgroundImageFix"/><feColorMatrix in="SourceAlpha" values="0 0 0 0 0 0 0 0 0 0 0 0 0 0 0 0 0 0 127 0" result="hardAlpha"/><feOffset/><feGaussianBlur stdDeviation="1.5"/><feComposite in2="hardAlpha" operator="out"/><feColorMatrix values="0 0 0 0 0 0 0 0 0 0 0 0 0 0 0 0 0 0 0.25 0"/><feBlend in2="BackgroundImageFix" result="effect1_dropShadow_1836_1281"/><feBlend in="SourceGraphic" in2="effect1_dropShadow_1836_1281" result="shape"/></filter><filter id="filter4_dd_1836_1281" x=".025" y="24.863" width="77.984" height="67.863" filterUnits="userSpaceOnUse" color-interpolation-filters="sRGB"><feFlood flood-opacity="0" result="BackgroundImageFix"/><feColorMatrix in="SourceAlpha" values="0 0 0 0 0 0 0 0 0 0 0 0 0 0 0 0 0 0 127 0" result="hardAlpha"/><feOffset dx="8" dy="-4"/><feGaussianBlur stdDeviation="12.5"/><feComposite in2="hardAlpha" operator="out"/><feColorMatrix values="0 0 0 0 0 0 0 0 0 0 0 0 0 0 0 0 0 0 0.25 0"/><feBlend in2="BackgroundImageFix" result="effect1_dropShadow_1836_1281"/><feColorMatrix in="SourceAlpha" values="0 0 0 0 0 0 0 0 0 0 0 0 0 0 0 0 0 0 127 0" result="hardAlpha"/><feOffset dy="2"/><feGaussianBlur stdDeviation="2"/><feComposite in2="hardAlpha" operator="out"/><feColorMatrix values="0 0 0 0 0 0 0 0 0 0 0 0 0 0 0 0 0 0 0.25 0"/><feBlend in2="effect1_dropShadow_1836_1281" result="effect2_dropShadow_1836_1281"/><feBlend in="SourceGraphic" in2="effect2_dropShadow_1836_1281" result="shape"/></filter><filter id="filter5_d_1836_1281" x="34.157" y="56.836" width="19.742" height="20.404" filterUnits="userSpaceOnUse" color-interpolation-filters="sRGB"><feFlood flood-opacity="0" result="BackgroundImageFix"/><feColorMatrix in="SourceAlpha" values="0 0 0 0 0 0 0 0 0 0 0 0 0 0 0 0 0 0 127 0" result="hardAlpha"/><feOffset dy="2"/><feGaussianBlur stdDeviation="1.5"/><feComposite in2="hardAlpha" operator="out"/><feColorMatrix values="0 0 0 0 0 0 0 0 0 0 0 0 0 0 0 0 0 0 0.25 0"/><feBlend in2="BackgroundImageFix" result="effect1_dropShadow_1836_1281"/><feBlend in="SourceGraphic" in2="effect1_dropShadow_1836_1281" result="shape"/></filter><filter id="filter6_i_1836_1281" x="37.862" y="58.574" width="12.332" height="12.93" filterUnits="userSpaceOnUse" color-interpolation-filters="sRGB"><feFlood flood-opacity="0" result="BackgroundImageFix"/><feBlend in="SourceGraphic" in2="BackgroundImageFix" result="shape"/><feColorMatrix in="SourceAlpha" values="0 0 0 0 0 0 0 0 0 0 0 0 0 0 0 0 0 0 127 0" result="hardAlpha"/><feOffset/><feGaussianBlur stdDeviation="2"/><feComposite in2="hardAlpha" operator="arithmetic" k2="-1" k3="1"/><feColorMatrix values="0 0 0 0 0 0 0 0 0 0 0 0 0 0 0 0 0 0 0.25 0"/><feBlend in2="shape" result="effect1_innerShadow_1836_1281"/></filter></defs></svg>