<svg width="289" height="48" fill="none" xmlns="http://www.w3.org/2000/svg"><path d="M11.033 2h-.268c-.08 0-.149.073-.149.159V3.79c-.51-.548-1.012-1.112-1.549-1.627-.255-.244-.69-.097-.689.3.001.187.119.302.233.422l1.094 1.152.911.959v1.24c-.52-.567-1.03-1.151-1.58-1.683a.402.402 0 00-.69.298c0 .185.116.3.228.42l1.127 1.203.915.977v1.207c-.51-.555-1.01-1.128-1.548-1.648-.253-.245-.69-.1-.69.297 0 .186.118.302.23.422l1.11 1.184.898.96v1.232l-1.53-1.589c-.12-.124-.238-.233-.421-.209a.365.365 0 00-.255.157c-.112.158-.082.321-.041.494l.523 2.209-1-.616-.329-1.31-.406-1.618c-.041-.164-.076-.33-.227-.424-.322-.198-.658.133-.587.49.154.757.368 1.506.564 2.255l-.98-.604c-.11-.445-.223-.89-.334-1.334L5.18 7.362c-.04-.163-.077-.327-.227-.42-.32-.197-.658.132-.586.489.157.773.376 1.537.576 2.301l-1.007-.62-.323-1.322-.387-1.587c-.04-.165-.074-.332-.226-.426-.321-.2-.658.13-.587.487.148.753.355 1.5.545 2.245l-1.324-.815a.146.146 0 00-.203.058l-.134.247-.135.248a.168.168 0 00.055.217l1.324.816c-.7.197-1.409.38-2.095.619-.325.113-.424.589-.101.786.152.093.304.041.458-.004l1.482-.436 1.233-.363 1.007.62c-.72.198-1.45.378-2.156.62-.325.11-.424.588-.104.786.15.092.302.043.455 0l1.54-.44 1.25-.358.98.604c-.706.193-1.421.37-2.112.606-.326.112-.426.589-.104.787.151.093.304.043.458-.001l1.515-.434 1.228-.35 1 .615-2.055.62c-.16.049-.308.104-.38.286a.427.427 0 000 .313c.072.182.22.237.38.285l2.054.62-1 .616-1.227-.35-1.515-.434c-.154-.044-.307-.095-.458-.002-.322.199-.222.675.104.787.69.237 1.406.414 2.111.607l-.98.604-1.25-.358-1.539-.44c-.153-.044-.304-.093-.455 0-.32.197-.221.675.104.786.706.241 1.436.422 2.156.62l-1.007.62-1.233-.363-1.482-.436c-.153-.045-.306-.097-.458-.004-.323.197-.224.673.1.787.687.239 1.395.42 2.096.618l-1.324.816a.168.168 0 00-.055.217l.135.248.134.247c.04.075.133.102.203.058.442-.272.883-.543 1.324-.816-.19.746-.397 1.492-.545 2.246-.071.358.266.687.587.487.152-.094.186-.261.226-.426l.387-1.587.323-1.322 1.007-.62c-.2.764-.42 1.529-.576 2.302-.072.356.266.686.586.489.15-.093.187-.258.227-.42l.413-1.644.335-1.334.98-.604c-.197.749-.411 1.498-.565 2.255-.072.357.265.688.587.49.151-.093.186-.26.227-.424l.406-1.618.33-1.31 1-.616-.524 2.209c-.041.172-.071.336.04.493a.366.366 0 00.255.157c.184.025.302-.084.422-.208l1.53-1.59v1.233l-.899.96-1.109 1.183c-.112.12-.23.236-.23.423 0 .396.437.542.69.297.538-.52 1.039-1.092 1.548-1.648v1.207l-.915.977-1.127 1.203c-.112.12-.228.235-.228.42 0 .395.437.543.69.298.55-.531 1.06-1.116 1.58-1.683v1.24l-.911.96-1.094 1.15c-.114.12-.232.236-.233.423-.001.397.434.544.689.3.537-.515 1.04-1.08 1.55-1.627v1.631c0 .086.067.159.148.159h.536c.08 0 .149-.073.149-.159V24.21c.51.548 1.012 1.112 1.55 1.627.254.244.69.097.688-.3 0-.187-.12-.303-.233-.422l-1.094-1.152-.912-.959v-1.24c.52.567 1.032 1.152 1.58 1.683.253.245.69.097.69-.298 0-.185-.115-.3-.227-.42l-1.127-1.203-.915-.977v-1.207c.509.556 1.01 1.128 1.547 1.648.253.245.69.1.69-.297 0-.186-.117-.302-.23-.423l-1.109-1.184-.899-.96v-1.231l1.531 1.589c.12.124.238.233.421.208a.366.366 0 00.255-.157c.112-.157.082-.32.041-.493l-.524-2.21 1 .617.33 1.31.405 1.618c.042.164.077.33.228.424.322.198.658-.133.586-.49-.153-.757-.367-1.506-.563-2.255l.98.604.334 1.334.413 1.643c.041.163.077.328.227.42.32.198.659-.132.586-.488-.156-.773-.375-1.538-.575-2.302l1.007.62.322 1.322.387 1.587c.04.165.075.332.226.426.322.2.659-.129.588-.487-.149-.753-.356-1.5-.546-2.245.441.272.883.543 1.324.816.07.043.163.016.203-.059L20.77 20l.135-.248a.168.168 0 00-.055-.217l-1.324-.816c.7-.197 1.409-.379 2.095-.619.325-.113.424-.588.1-.786-.151-.093-.304-.041-.458.004l-1.48.436c-.412.12-.823.242-1.234.363l-1.007-.62c.72-.198 1.45-.378 2.156-.62.325-.111.423-.589.103-.786-.15-.093-.302-.044-.454 0l-1.54.44-1.25.358-.98-.604c.706-.193 1.42-.37 2.112-.607.325-.112.425-.588.104-.787-.151-.093-.304-.042-.458.002l-1.516.433-1.227.351-1-.616 2.054-.62c.16-.048.308-.103.38-.285a.425.425 0 000-.313c-.072-.183-.22-.237-.38-.286l-2.054-.62 1-.615 1.227.35 1.516.434c.154.044.306.094.458.001.321-.198.221-.675-.104-.787-.69-.237-1.406-.413-2.112-.606l.98-.604 1.25.358 1.54.44c.153.043.304.092.454 0 .32-.197.222-.675-.103-.786-.706-.242-1.436-.422-2.156-.62l1.007-.62 1.233.363 1.481.436c.154.045.306.097.459.004.323-.197.224-.673-.101-.786-.686-.24-1.395-.421-2.095-.62.442-.27.883-.543 1.324-.815a.168.168 0 00.055-.217l-.134-.248-.135-.247a.146.146 0 00-.203-.058l-1.324.815c.19-.745.397-1.491.546-2.245.07-.357-.266-.687-.588-.487-.151.094-.185.261-.226.426l-.387 1.587-.322 1.322-1.007.62c.2-.764.419-1.529.575-2.301.073-.357-.265-.686-.586-.49-.15.094-.186.258-.227.421l-.413 1.644-.334 1.334-.98.604c.196-.749.41-1.498.563-2.255.072-.357-.264-.688-.586-.49-.151.094-.187.26-.228.424l-.406 1.618-.329 1.31-1 .616.524-2.21c.041-.172.07-.335-.041-.493a.4.4 0 00-.112-.107.371.371 0 00-.143-.05c-.184-.024-.302.085-.421.209l-1.53 1.589V9.873l.898-.96 1.11-1.184c.112-.12.23-.236.23-.422 0-.396-.437-.542-.69-.297-.539.52-1.04 1.092-1.548 1.648V7.451l.915-.977 1.127-1.203c.111-.12.227-.235.227-.42a.402.402 0 00-.69-.298c-.548.531-1.06 1.116-1.58 1.683v-1.24l.912-.96 1.094-1.15c.114-.12.232-.236.232-.423.002-.397-.434-.544-.688-.3-.537.515-1.039 1.08-1.549 1.627V2.16c0-.086-.068-.159-.149-.159h-.268zm-1.564 9.109l1.147 1.19v.87a1.44 1.44 0 00-.033-.02l-.014-.008a.2.2 0 00-.001.018v.04l-.706-.435-.393-1.655zm3.127 0l-.392 1.655-.706.435v-.04l-.001-.018-.014.008-.034.02v-.87l1.147-1.19zm1.564 2.89c-.513.156-1.026.31-1.54.465l-.705-.435.032-.02a.143.143 0 00.014-.01l-.014-.01-.032-.02.705-.434 1.54.464zm-1.564 2.891L11.45 15.7v-.87l.033.02.014.008V14.8l.707.434.392 1.656zm-3.127 0l.393-1.655.706-.435v.058l.015-.008.033-.02v.87L9.47 16.89zM7.906 14l1.54-.465.705.435-.033.02-.014.01a.143.143 0 00.014.01l.033.02-.706.434L7.905 14zm220.853 15h-.152c-.045 0-.084.043-.084.093v.951c-.288-.32-.572-.649-.876-.949-.143-.142-.39-.057-.389.175.001.11.067.176.132.246l.618.672.515.56v.723c-.294-.33-.583-.672-.893-.982-.143-.143-.39-.057-.39.174 0 .108.065.175.129.245l.637.702.517.57v.704c-.288-.324-.571-.658-.875-.962-.143-.143-.39-.058-.39.174 0 .109.067.176.13.246l.627.69.508.56v.72l-.865-.928c-.068-.072-.134-.136-.238-.121a.206.206 0 00-.081.029.236.236 0 00-.063.062c-.063.092-.046.187-.023.288l.296 1.289-.565-.36-.186-.764-.23-.943c-.023-.096-.043-.193-.128-.248-.182-.116-.373.078-.332.286.087.441.208.879.319 1.315l-.554-.352-.189-.778-.233-.959c-.023-.095-.044-.191-.129-.245-.181-.115-.372.077-.331.285.089.45.212.897.325 1.343l-.569-.362-.182-.772-.219-.925c-.022-.097-.042-.194-.127-.249-.182-.116-.372.076-.333.284.084.44.201.875.309 1.31l-.749-.476a.081.081 0 00-.115.034l-.075.145-.076.144a.1.1 0 00.03.127l.749.476c-.396.115-.796.22-1.184.36-.184.067-.24.344-.057.46.085.054.172.023.259-.003l.837-.254.697-.212.569.362c-.407.115-.819.22-1.218.36-.184.066-.24.344-.059.46.085.054.171.025.257 0l.87-.257.707-.209.554.352c-.399.113-.803.216-1.194.354-.184.065-.24.344-.059.46.086.053.172.024.259-.002l.856-.252.694-.205.566.36-1.162.36c-.09.03-.174.061-.214.167a.275.275 0 00-.018.091c0 .03.006.06.018.092.04.106.124.138.214.166l1.162.362-.566.36-.694-.205-.856-.253c-.087-.026-.173-.055-.259-.001-.181.116-.125.394.059.459.391.138.795.241 1.194.354l-.554.352-.707-.209-.87-.256c-.086-.026-.172-.055-.257 0-.181.115-.125.393.059.458.399.141.811.246 1.218.361l-.569.362-.697-.211-.837-.254c-.087-.027-.173-.057-.259-.003-.183.115-.127.393.057.459.388.14.788.246 1.184.36l-.749.477c-.039.025-.053.083-.03.126l.076.145.075.144c.023.044.076.06.115.034l.749-.476c-.108.435-.225.87-.309 1.31-.04.209.151.401.333.284.085-.055.104-.152.127-.248l.219-.926.182-.771.569-.362c-.113.446-.236.892-.325 1.343-.041.207.15.4.331.285.085-.054.106-.15.129-.245l.233-.959.189-.778.554-.352c-.111.436-.232.873-.319 1.315-.041.208.15.402.332.286.085-.055.105-.152.128-.248l.23-.943.186-.764.565-.36-.296 1.289c-.023.1-.04.196.023.288.019.026.04.047.063.062a.208.208 0 00.081.03c.104.014.171-.05.238-.122l.865-.927v.718l-.508.56-.627.69c-.063.07-.13.138-.13.247 0 .231.247.317.39.174.304-.304.587-.638.875-.962v.704l-.517.57-.637.702c-.063.07-.129.137-.129.245 0 .23.247.316.39.174.31-.31.599-.652.893-.982v.724l-.515.559-.618.672c-.065.07-.131.137-.132.246-.001.232.246.317.389.175.304-.3.588-.63.876-.95v.952c0 .05.039.093.084.093h.303c.046 0 .084-.043.084-.093v-.951c.289.32.572.649.876.949.144.142.39.057.389-.175 0-.11-.067-.177-.131-.246l-.619-.672-.515-.56v-.723c.294.33.583.672.893.982.143.142.39.057.39-.174 0-.108-.065-.175-.129-.245l-.637-.702-.517-.57v-.704c.288.324.571.658.875.962.143.143.39.058.39-.174 0-.109-.066-.176-.13-.246l-.627-.691-.508-.56v-.718c.289.308.577.617.865.927.068.072.135.136.238.121a.208.208 0 00.081-.029.224.224 0 00.063-.062c.063-.092.047-.188.024-.288l-.297-1.289.566.36.186.764.229.943c.024.096.043.193.129.248.182.115.372-.078.331-.286-.086-.441-.208-.879-.318-1.315l.553.352.19.778.233.959c.023.095.043.19.128.245.182.115.373-.078.332-.285-.089-.451-.213-.897-.326-1.343l.569.362a9066.809 9066.809 0 00.401 1.697c.023.096.043.193.128.248.182.117.372-.075.332-.284-.084-.44-.201-.875-.308-1.31l.748.476a.08.08 0 00.115-.034l.076-.144.076-.145c.022-.043.008-.101-.031-.126l-.748-.476c.395-.115.796-.221 1.184-.361.183-.066.239-.344.057-.459-.086-.054-.173-.024-.259.003l-.838.254c-.232.07-.465.14-.697.212l-.569-.363c.407-.115.82-.22 1.219-.36.183-.066.239-.344.058-.46-.085-.053-.17-.025-.257 0l-.87.257-.707.209-.553-.352c.398-.113.802-.216 1.193-.354.184-.065.241-.343.059-.46-.086-.053-.172-.024-.259.002l-.856.253-.694.204-.566-.359 1.162-.362c.09-.028.174-.06.214-.166a.276.276 0 00.018-.092.24.24 0 00-.018-.09c-.04-.107-.124-.139-.214-.167l-1.162-.362.566-.36c.231.07.462.137.694.206l.856.252c.087.026.173.055.259.001.182-.115.125-.393-.059-.459-.39-.138-.795-.241-1.193-.354l.553-.352.707.209.87.256c.087.026.172.055.257 0 .181-.115.125-.393-.058-.458-.399-.14-.812-.246-1.219-.361l.569-.362.697.212.838.254c.086.026.173.056.259.002.182-.115.126-.392-.057-.459-.388-.14-.789-.245-1.184-.36l.748-.476a.102.102 0 00.031-.127l-.076-.144a10.04 10.04 0 00-.076-.145.08.08 0 00-.115-.034l-.748.476c.107-.435.224-.87.308-1.31.04-.208-.15-.4-.332-.284-.085.055-.105.152-.128.249l-.218.925-.183.772-.569.362c.113-.446.237-.892.326-1.343.041-.208-.15-.4-.332-.285-.085.054-.105.15-.128.245l-.233.959-.19.778-.553.352c.11-.436.232-.873.318-1.315.041-.208-.149-.402-.331-.286-.086.055-.106.152-.129.248l-.229.943-.186.764-.566.36.297-1.29c.023-.1.039-.195-.024-.287a.205.205 0 00-.144-.092c-.104-.014-.17.05-.238.122l-.865.927v-.719l.508-.56.627-.69c.064-.07.13-.137.13-.246 0-.231-.247-.317-.39-.174-.304.304-.587.638-.875.962v-.704l.517-.57.637-.702c.064-.07.129-.137.129-.245 0-.23-.247-.316-.39-.174-.31.31-.599.651-.893.982v-.724l.515-.559.619-.672c.064-.07.131-.137.131-.246.001-.232-.245-.317-.389-.175-.304.3-.587.63-.876.95v-.952c0-.05-.038-.093-.084-.093h-.151zm-.884 5.313l.648.695v.507l-.019-.011-.008-.005v.034l-.399-.254-.222-.966zm1.767 0l-.222.966-.399.254v-.034l-.008.005-.019.011v-.507l.648-.695zm.884 1.687l-.87.27-.399-.253.018-.012a.039.039 0 00.008-.005.043.043 0 00-.008-.006l-.018-.012.399-.253.87.27zm-.884 1.686l-.648-.695v-.507l.019.012.008.004v-.033l.399.253.222.966zm-1.767 0l.222-.966.399-.253v.033a.316.316 0 00.027-.016v.508l-.648.694zM226.991 36l.87-.271.399.253-.018.012a.043.043 0 00-.008.006.039.039 0 00.008.005l.018.012-.399.254-.87-.271z" fill="#fff" fill-opacity=".9"/><path d="M155.396 20c-.24.018-.422.23-.435.48-.017.324 0 .655 0 .98v.599l-.631-.45c-.169-.224-.507-.279-.673.017-.127.224.006.509.23.581l1.074 1.311v.866l-1.862-1.33c-.093-.283-.497-.416-.735-.176-.251.252-.096.658.203.74l2.151 2.628.243.296v.948c-.63-.63-1.254-1.272-1.912-1.871a.47.47 0 00-.803.25.472.472 0 00-.369.023.472.472 0 00-.205.309.47.47 0 00-.618.572c.189.87.431 1.733.661 2.595l-.819-.474-.135-.359-1.195-3.181c.079-.3-.195-.637-.538-.546-.327.087-.413.504-.214.727l.217 2.28-.748-.433-.596-1.587c.049-.23-.129-.488-.387-.49-.338-.004-.46.316-.351.576l.073.772-.517-.3c-.282-.162-.559-.342-.848-.49-.222-.113-.496-.06-.631.138-.105.217-.013.48.196.616.272.178.567.328.848.491l.518.3-.704.322c-.279.035-.495.3-.323.593.131.223.444.248.618.09l1.669-.276.749.433-2.08.95c-.292-.06-.609.224-.52.55.092.344.521.413.74.194l3.347-.553a87.3 87.3 0 01.377-.063l.819.474c-.86.232-1.726.452-2.572.724a.472.472 0 00-.186.822.475.475 0 00-.164.333.475.475 0 00.164.332.472.472 0 00.186.822c.846.272 1.712.492 2.572.724l-.819.474-.377-.063-3.347-.553c-.219-.219-.648-.15-.74.194-.089.327.228.61.52.549l2.08.951-.749.433-1.669-.276c-.174-.159-.487-.133-.618.09-.172.292.044.558.323.593l.704.322-.518.3c-.281.163-.576.313-.848.49-.209.137-.301.4-.196.617.135.199.409.251.631.138.289-.148.566-.328.848-.49l.517-.3-.073.772c-.109.26.013.58.351.577.258-.003.436-.261.387-.491l.596-1.588.748-.433-.217 2.28c-.199.224-.113.64.214.727.343.091.617-.246.538-.545l1.195-3.182.135-.359.819-.474c-.23.863-.472 1.725-.661 2.595a.47.47 0 00.618.573.472.472 0 00.205.308.47.47 0 00.369.024.47.47 0 00.803.25c.658-.6 1.282-1.24 1.912-1.871v.947l-.243.297-2.151 2.628c-.299.081-.453.488-.203.74.238.24.642.106.735-.178l1.862-1.329v.866l-1.074 1.311c-.224.072-.357.356-.23.581.166.296.504.24.673.017l.631-.45v.599c0 .325-.017.656 0 .98.013.25.195.462.435.48.239-.018.421-.23.434-.48.018-.324 0-.655 0-.98v-.599l.631.45c.17.224.508.279.674-.017.127-.225-.007-.509-.231-.581l-1.073-1.311v-.866l1.862 1.33c.093.283.496.416.734.177.251-.253.097-.659-.202-.74l-2.151-2.628-.243-.297v-.947c.63.63 1.254 1.272 1.912 1.87a.47.47 0 00.803-.25.47.47 0 00.369-.023.473.473 0 00.205-.308.47.47 0 00.618-.573c-.189-.87-.431-1.732-.661-2.594l.819.473.135.36 1.195 3.18c-.079.3.194.637.538.546.326-.087.413-.503.214-.727l-.218-2.28.749.433.595 1.588c-.049.23.129.488.387.49.339.004.46-.317.352-.576l-.074-.772.518.3c.281.162.558.342.847.49.222.113.496.06.631-.138.104-.217.013-.48-.196-.617-.273-.177-.567-.328-.848-.49l-.518-.3.704-.322c.279-.035.495-.3.323-.593-.131-.223-.444-.249-.618-.09l-1.669.276-.749-.433 2.08-.951c.292.06.608-.223.52-.549-.093-.344-.521-.413-.74-.194l-3.347.553-.378.063-.818-.474c.86-.232 1.726-.452 2.572-.724a.472.472 0 00.186-.822.472.472 0 00.164-.332.472.472 0 00-.164-.333.472.472 0 00-.186-.822c-.846-.272-1.712-.492-2.572-.724l.818-.474.378.063 3.347.553c.219.219.647.15.74-.194.088-.327-.228-.61-.52-.55l-2.08-.95.749-.433 1.669.276c.174.158.487.133.618-.09.172-.292-.044-.558-.323-.593l-.704-.323.518-.299c.281-.163.575-.313.848-.49.209-.137.3-.4.196-.617-.135-.199-.409-.251-.631-.138-.289.148-.566.328-.847.49l-.518.3.074-.772c.108-.26-.013-.58-.352-.577-.258.003-.436.26-.387.491l-.595 1.587-.749.433.218-2.28c.198-.223.112-.64-.214-.727-.344-.09-.617.246-.538.546l-1.195 3.181-.135.36-.819.473c.23-.863.473-1.725.661-2.595a.47.47 0 00-.618-.572.472.472 0 00-.205-.309.47.47 0 00-.369-.023.47.47 0 00-.803-.25c-.658.599-1.282 1.24-1.912 1.871v-.948l.243-.297 2.151-2.628c.299-.08.453-.487.202-.74-.238-.24-.641-.106-.734.178l-1.862 1.329v-.866l1.073-1.311c.224-.072.358-.356.231-.581-.166-.296-.504-.24-.674-.017l-.631.45v-.599c0-.325.018-.656 0-.98-.013-.25-.195-.462-.434-.48zm-.253 11.562c.083.018.168.029.253.03.085-.002.169-.012.253-.03.026.082.059.16.1.235.044.073.095.141.153.204a1.342 1.342 0 00-.153.205 1.332 1.332 0 00-.1.235 1.331 1.331 0 00-.253-.03c-.086.002-.17.012-.253.03a1.5 1.5 0 00-.1-.235 1.395 1.395 0 00-.154-.205c.058-.063.109-.13.154-.204a1.5 1.5 0 00.1-.235zm-.449-3.012l.267.262v.076a1.425 1.425 0 00-.637.474l-.164-.053-1.325-2.584 1.859 1.825zm-2.631 2.335l.36-.1.065.037c-.045.268-.012.539.091.79l-.128.116-2.895-.142 2.506-.7h.001zm.702 3.451l.093-.363.065-.038c.209.174.46.28.729.316l.036.17-1.571 2.441.648-2.526zm3.333 1.116l-.268-.262v-.076c.255-.094.472-.258.637-.474l.164.053 1.326 2.584-1.859-1.825zm2.631-2.335l-.361.101a3.754 3.754 0 00-.065-.037 1.435 1.435 0 00-.091-.79l.128-.116 2.896.141-2.507.701zm-.702-3.45l-.094.362a3.746 3.746 0 01-.065.038 1.419 1.419 0 00-.728-.315 96.188 96.188 0 01-.036-.17l1.571-2.442-.648 2.526zm-.07-2.942l-1.326 2.584-.164.053a1.42 1.42 0 00-.637-.474v-.076l.268-.262 1.859-1.825zm-5.84.415l1.57 2.442-.036.17a1.42 1.42 0 00-.728.315l-.066-.038-.093-.363-.647-2.526zm-2.561 5.276l2.895-.142.128.116a1.425 1.425 0 00-.091.79l-.065.038-.36-.101-2.507-.701zm3.278 4.861l1.325-2.584.165-.054c.165.216.382.38.637.475v.075l-.268.263-1.859 1.825zm5.84-.415l-1.571-2.442.036-.17a1.41 1.41 0 00.728-.315l.066.038.093.363.647 2.526h.001zm2.561-5.276l-2.896.142-.128-.117c.104-.25.137-.521.091-.79l.065-.037.361.1 2.506.702h.001z" fill="#fff" fill-opacity=".3"/><path d="M68.5 15c-.362-.002-.635.306-.641.671-.008.466 0 .933 0 1.4v.596l-.427-.437-.543-.556c-.238-.244-.53-.392-.883-.32-.565.115-.853.794-.55 1.278.081.13.201.237.307.346l1.218 1.248.878.9v.999l-1.068-1.07-1.967-1.97c-.158-.158-.344-.272-.575-.285a.803.803 0 00-.82.98c.068.285.332.492.532.692l2.215 2.22 1.127 1.128c.185.186.365.382.556.562v3.343l-.772-3.483-.122-.552a.324.324 0 00-.23-.228l-3.48-.89-.495-.128a.348.348 0 00-.112-.009.319.319 0 00-.047.1l-.137.49-.963 3.438a.321.321 0 00.084.31l.42.382 2.652 2.405-2.917-1.672c-.061-.254-.142-.507-.211-.76l-.422-1.532-.829-3.014c-.075-.272-.124-.602-.338-.803-.383-.358-1.028-.254-1.265.216-.104.205-.099.422-.04.636l.736 2.676.4 1.453-.872-.5-.346-1.205-.48-1.67c-.041-.146-.075-.303-.148-.437-.27-.503-1.007-.594-1.39-.167-.239.268-.256.593-.162.92.07.248.142.496.214.745l.168.586-.52-.298c-.407-.233-.811-.473-1.221-.7-.321-.176-.727-.095-.907.217-.183.31-.05.7.265.887.402.24.814.466 1.22.7l.521.298-.595.149-.756.188c-.332.082-.608.26-.721.6-.181.542.267 1.13.84 1.111.154-.005.308-.054.456-.091l1.696-.423 1.225-.305.871.5-1.467.383-2.702.705c-.217.057-.409.16-.536.352a.8.8 0 00.444 1.195c.284.084.595-.039.87-.11l3.044-.795 1.548-.404c.255-.067.515-.123.768-.198l2.917 1.671-3.425-1.078-.543-.17a.328.328 0 00-.313.083l-2.517 2.546-.359.363a.323.323 0 00-.063.091.332.332 0 00.063.091l.36.363 2.516 2.546a.328.328 0 00.313.084l.543-.171 3.425-1.077-2.917 1.671c-.253-.075-.514-.131-.768-.198l-1.548-.404-3.044-.795c-.275-.072-.586-.194-.87-.11-.504.15-.735.756-.444 1.195.127.191.32.295.536.352l2.702.705 1.467.384-.871.5c-.408-.103-.817-.204-1.225-.306l-1.696-.423c-.148-.037-.302-.087-.456-.091-.574-.02-1.022.569-.84 1.111.114.34.389.517.72.6l.757.188.595.149-.52.298c-.407.233-.819.46-1.221.7-.315.187-.448.577-.265.887.18.312.585.393.907.216.41-.226.813-.466 1.22-.699.174-.1.347-.2.521-.298l-.168.586-.214.744c-.094.327-.078.653.163.92.383.428 1.12.337 1.39-.166.072-.135.106-.291.148-.437l.48-1.67.345-1.206.872-.5-.4 1.454-.735 2.676c-.06.215-.065.431.039.637.237.47.882.575 1.265.215.214-.201.264-.53.338-.802l.829-3.014c.14-.511.28-1.022.422-1.533.069-.253.15-.505.211-.76l2.917-1.671-2.652 2.405-.42.382a.321.321 0 00-.084.31l.963 3.438.137.49c.01.036.027.07.047.1a.32.32 0 00.111-.01l.496-.126 3.48-.891a.324.324 0 00.23-.228l.122-.551.772-3.483v3.343c-.191.18-.371.376-.556.561l-1.127 1.13-2.215 2.218c-.2.2-.463.407-.532.692a.803.803 0 00.82.98c.231-.013.418-.127.575-.285l1.967-1.97 1.068-1.07v1l-.878.9c-.407.415-.812.83-1.218 1.247-.106.109-.226.216-.307.346-.303.484-.015 1.163.55 1.278.353.072.645-.076.883-.32l.543-.556.427-.437v.597c0 .466-.008.933 0 1.399.006.364.28.673.642.671.362.002.635-.306.642-.671.007-.466 0-.933 0-1.4v-.596l.426.437c.18.186.362.37.543.556.238.244.53.392.884.32.564-.115.853-.794.55-1.278-.082-.13-.202-.237-.308-.346l-1.217-1.248-.878-.9v-.999c.356.357.711.714 1.068 1.07l1.966 1.97c.158.158.344.272.575.285a.803.803 0 00.82-.98c-.068-.285-.331-.492-.531-.692l-2.215-2.219-1.127-1.129c-.186-.185-.365-.381-.557-.561v-3.343l.773 3.483.122.551c.023.108.123.2.229.228l3.48.89.495.128a.348.348 0 00.112.009.322.322 0 00.047-.1l.137-.49.963-3.438a.321.321 0 00-.084-.31l-.42-.382-2.652-2.405 2.916 1.671c.061.255.142.507.212.76l.42 1.533.83 3.014c.074.272.123.602.338.803.383.359 1.027.254 1.265-.216.104-.205.098-.422.039-.637l-.736-2.676-.4-1.453.873.5.346 1.204.48 1.67c.041.147.075.303.147.438.27.503 1.008.594 1.39.167.24-.268.257-.594.163-.92l-.214-.745-.168-.586.52.298c.407.233.81.474 1.221.7.321.176.726.095.906-.217.183-.311.051-.7-.264-.887-.403-.24-.814-.467-1.22-.7l-.521-.298.595-.149.756-.188c.332-.083.608-.26.721-.6.181-.542-.266-1.13-.84-1.111-.154.005-.307.054-.456.09l-1.696.424-1.224.305-.872-.5 1.467-.383 2.702-.705c.217-.057.41-.16.536-.352a.8.8 0 00-.444-1.195c-.283-.084-.595.038-.87.11l-3.043.795-1.549.404c-.254.067-.515.123-.768.198l-2.916-1.671 3.424 1.077.543.17a.327.327 0 00.313-.083l2.517-2.546.359-.363a.32.32 0 00.063-.09.332.332 0 00-.063-.092l-.359-.363-2.517-2.546a.328.328 0 00-.313-.083l-.543.17-3.424 1.078 2.916-1.671c.253.075.514.131.768.198l1.549.404 3.043.795c.275.071.587.194.87.11.504-.15.735-.756.444-1.195-.127-.192-.319-.295-.536-.352l-2.702-.706-1.467-.383.872-.5 1.224.306 1.696.423c.149.037.302.086.456.091.574.02 1.021-.569.84-1.111-.114-.34-.389-.518-.72-.6l-.757-.188-.595-.149.52-.299c.407-.232.819-.46 1.22-.699.316-.188.448-.577.265-.887-.179-.313-.584-.393-.906-.217-.41.227-.814.467-1.22.7l-.52.298.167-.586.214-.745c.094-.326.077-.652-.163-.92-.383-.427-1.12-.336-1.39.167-.072.134-.106.291-.148.437l-.48 1.67-.345 1.205-.872.5.4-1.453c.244-.892.49-1.784.735-2.675.059-.215.065-.432-.04-.637-.237-.47-.881-.575-1.264-.216-.215.201-.264.532-.339.803l-.828 3.014-.421 1.533c-.07.252-.15.504-.212.76l-2.916 1.67 2.652-2.404.42-.382a.321.321 0 00.084-.31l-.963-3.438c-.045-.163-.09-.326-.137-.49a.332.332 0 00-.047-.1.35.35 0 00-.112.01l-.495.126-3.48.891a.323.323 0 00-.23.228l-.121.552-.773 3.483v-3.343c.192-.18.371-.376.557-.562l1.127-1.129 2.215-2.22c.2-.2.462-.406.531-.691a.803.803 0 00-.82-.98c-.23.013-.417.127-.575.285l-1.966 1.97c-.357.356-.712.713-1.068 1.07v-1l.878-.9 1.217-1.247c.106-.109.226-.216.308-.346.303-.483.014-1.163-.55-1.278-.353-.072-.646.076-.884.32l-.543.556-.426.437v-.597c0-.465.007-.933 0-1.399-.007-.364-.28-.673-.642-.671zm-5.208 7.541l.692.178 1.9.486.25.064c.08.365.16.73.242 1.094l.313 1.412a.847.847 0 00-.156-.08.798.798 0 00-.872.232.8.8 0 00-.177.384.79.79 0 00-1.062.593.854.854 0 00-.007.174l-1.075-.975-.834-.756.069-.246.525-1.877.192-.683zm10.418 0l.192.684.525 1.877.069.245-.834.756-1.075.975a.847.847 0 00-.008-.174.79.79 0 00-1.061-.592.81.81 0 00-.177-.384.798.798 0 00-.871-.233.887.887 0 00-.157.08 2767.252 2767.252 0 01.556-2.506l.249-.063 1.9-.486.691-.178h.001zm5.209 8.956l-.501.507-1.375 1.39-.18.182-1.076-.339-1.388-.436a.879.879 0 00.149-.095.786.786 0 00-.014-1.21.785.785 0 00.014-1.21.842.842 0 00-.149-.093l1.388-.436 1.077-.338.18.182 1.374 1.39.5.506zm-5.209 8.957l-.692-.178-1.9-.486-.248-.064-.243-1.095c-.105-.47-.21-.94-.313-1.411.048.03.099.058.156.08.3.116.67.011.872-.233a.802.802 0 00.176-.383.79.79 0 001.062-.593.84.84 0 00.008-.174l1.075.975.834.756-.07.245c-.174.626-.35 1.251-.525 1.877l-.191.684h-.001zm-10.418 0l-.192-.684a2191.52 2191.52 0 00-.594-2.122l.834-.756 1.075-.975a.854.854 0 00.008.174.79.79 0 001.061.593.808.808 0 00.177.383.798.798 0 00.871.233.88.88 0 00.157-.08l-.313 1.411-.243 1.095-.248.064-1.9.486-.693.178zm-5.209-8.957l.501-.506 1.374-1.39.18-.182 1.077.338 1.388.436a.874.874 0 00-.149.094.785.785 0 00.015 1.21.785.785 0 00-.014 1.21.875.875 0 00.148.094l-1.388.436-1.077.339-.18-.182c-.457-.464-.916-.927-1.374-1.39l-.5-.507zm8.07-4.036l1.034 1.054.142.145.295 1.329-1.012-.918-.055-.195-.403-1.416v.001zm4.696 0l-.403 1.416-.055.195-1.013.917.295-1.328.142-.145 1.034-1.054zm2.347 4.036l-1.436.362-.198.05-1.306-.412 1.306-.41.198.049 1.436.361zm-2.347 4.036a1453.18 1453.18 0 01-1.176-1.199l-.294-1.328 1.011.918c.02.064.038.13.056.194l.403 1.415zm-4.695 0l.403-1.415.055-.194 1.012-.918-.295 1.328-.142.145-1.033 1.054zm-2.348-4.036l1.437-.361.197-.05 1.307.411-1.307.411-.197-.05-1.437-.36z" fill="#fff"/><path d="M280.352 8c-.213-.001-.373.195-.377.427-.005.296 0 .594 0 .89v.38l-.251-.278-.319-.354c-.14-.155-.311-.25-.519-.203-.331.073-.501.505-.323.813.048.083.118.15.181.22l.715.794.516.573v.636l-.627-.681-1.156-1.254a.502.502 0 00-.338-.181c-.31-.02-.553.3-.482.623.04.182.195.314.313.44l1.301 1.413.662.719c.109.118.215.242.327.357v2.127a1741.608 1741.608 0 00-.525-2.567.2.2 0 00-.135-.145l-2.045-.567-.291-.081a.185.185 0 00-.066-.006.203.203 0 00-.027.064l-.081.311-.566 2.188a.217.217 0 00.049.198l.247.242 1.559 1.531-1.714-1.064c-.036-.162-.084-.323-.124-.483l-.248-.976-.487-1.917c-.044-.174-.073-.383-.199-.511a.456.456 0 00-.743.137.589.589 0 00-.023.405l.432 1.703.235.924-.512-.318-.204-.767-.281-1.062c-.025-.093-.045-.193-.088-.279a.49.49 0 00-.816-.106c-.141.17-.151.378-.096.586l.126.474.099.373-.306-.19c-.239-.148-.476-.301-.717-.445-.189-.113-.427-.061-.533.138a.434.434 0 00.155.564c.237.153.479.297.718.445l.306.19-.35.095-.444.12c-.195.052-.357.165-.424.381-.106.345.157.72.494.708.09-.004.18-.035.268-.059l.996-.269.72-.194.512.318-.862.244-1.588.449a.515.515 0 00-.315.224c-.171.28-.035.665.261.76.167.054.35-.024.511-.07l1.789-.506.909-.257c.15-.042.303-.078.452-.126l1.713 1.064-2.012-.686-.319-.109a.183.183 0 00-.184.053l-1.479 1.62-.21.231a.22.22 0 00-.038.058c.01.021.022.041.038.058l.21.231 1.479 1.62c.045.05.122.075.184.054l.319-.11c.671-.227 1.342-.456 2.012-.684l-1.713 1.063c-.149-.047-.302-.084-.452-.126l-.909-.257-1.789-.506c-.161-.045-.344-.123-.511-.07-.296.095-.432.481-.261.76a.516.516 0 00.315.224l1.588.45.862.243-.512.318-.72-.194-.996-.27c-.088-.023-.178-.054-.268-.057-.337-.013-.601.362-.494.707.067.216.229.33.424.382l.444.12.35.094-.306.19c-.239.148-.481.292-.718.445a.435.435 0 00-.155.565c.105.199.344.25.533.137.241-.144.478-.296.717-.445l.306-.19-.099.373-.126.474c-.055.208-.045.416.096.586a.49.49 0 00.816-.106c.043-.086.063-.186.088-.278l.281-1.063.204-.767.512-.318-.235.925-.432 1.703a.59.59 0 00.023.405.456.456 0 00.743.137c.126-.128.155-.338.199-.51l.487-1.919.248-.975c.04-.16.088-.321.124-.484l1.714-1.063-1.559 1.53-.247.243a.217.217 0 00-.049.198l.566 2.188.081.311a.222.222 0 00.027.064c.022.002.044 0 .066-.006l.291-.08 2.045-.568a.2.2 0 00.135-.145l.071-.35.454-2.217v2.127c-.112.115-.218.24-.327.358l-.662.718-1.301 1.412c-.118.128-.272.26-.313.44-.071.324.172.643.482.624a.5.5 0 00.338-.181l1.156-1.254.627-.68v.635l-.516.573-.715.794c-.063.07-.133.137-.181.22-.178.308-.008.74.323.813.208.046.379-.048.519-.203l.319-.354.251-.278v.38c0 .296-.005.593 0 .89.004.232.164.428.377.427.213.001.374-.195.377-.427.005-.297 0-.594 0-.89v-.38l.251.278.319.354c.14.155.312.25.519.203.332-.073.501-.505.323-.813-.048-.082-.118-.15-.181-.22l-.715-.794-.516-.573v-.636l.628.681 1.155 1.254c.093.1.202.173.338.181.311.02.554-.3.482-.623-.04-.182-.195-.314-.312-.44l-1.302-1.413-.662-.718c-.109-.118-.214-.243-.327-.358V21.54l.454 2.216.072.351a.198.198 0 00.134.145l2.045.567.291.081a.185.185 0 00.066.006.204.204 0 00.027-.064l.081-.311.566-2.188a.217.217 0 00-.049-.198l-.248-.242-1.558-1.531 1.714 1.063c.036.163.083.323.124.484l.248.975.486 1.918c.044.173.073.383.199.511a.457.457 0 00.744-.137.59.59 0 00.022-.405c-.143-.568-.288-1.136-.432-1.703l-.234-.925.512.318.203.767.282 1.063c.024.092.044.192.087.278a.49.49 0 00.816.106c.141-.17.151-.378.096-.586l-.126-.473-.098-.373.306.19c.239.148.475.3.717.444.188.113.427.062.532-.137a.433.433 0 00-.155-.565c-.237-.153-.478-.297-.717-.445l-.306-.19.35-.095.444-.12c.195-.052.357-.165.424-.381.106-.345-.157-.72-.494-.707-.09.003-.18.034-.268.058l-.997.269-.719.194-.512-.318.862-.244 1.588-.448a.514.514 0 00.315-.225c.17-.28.035-.665-.262-.76-.166-.053-.349.025-.511.07l-1.788.506-.91.257c-.149.043-.302.079-.451.126l-1.714-1.064 2.013.686.318.109a.182.182 0 00.184-.053l1.479-1.62.211-.232a.2.2 0 00.037-.058.2.2 0 00-.037-.058l-.211-.23-1.479-1.62a.182.182 0 00-.184-.054l-.318.109-2.013.686 1.714-1.064c.149.048.302.084.451.126l.91.257 1.788.506c.162.046.345.124.511.07.297-.095.432-.48.262-.76a.516.516 0 00-.315-.224l-1.588-.45c-.288-.08-.575-.162-.862-.243l.512-.318.719.194.997.27c.087.023.178.054.268.058.337.012.6-.363.494-.708-.067-.216-.229-.329-.424-.381l-.444-.12-.35-.095.306-.19c.239-.148.48-.292.717-.445a.433.433 0 00.155-.564c-.105-.2-.343-.25-.532-.138-.242.144-.478.297-.717.445l-.306.19.098-.373.126-.474c.055-.208.046-.415-.096-.586a.49.49 0 00-.816.106c-.043.086-.063.186-.087.279l-.282 1.063-.203.766-.512.318.234-.924c.144-.568.289-1.135.432-1.703a.588.588 0 00-.022-.405.457.457 0 00-.744-.137c-.126.128-.155.338-.199.51l-.486 1.918-.248.976c-.041.16-.088.32-.124.483l-1.714 1.064 1.558-1.53.248-.243a.217.217 0 00.049-.198l-.566-2.188-.081-.311a.229.229 0 00-.027-.064.192.192 0 00-.066.006l-.291.08-2.045.568a.198.198 0 00-.134.145l-.072.35-.454 2.217v-2.127c.113-.115.218-.24.327-.357l.662-.719 1.302-1.412c.117-.128.272-.26.312-.44.072-.324-.171-.643-.482-.624a.502.502 0 00-.338.181l-1.155 1.254-.628.68v-.635l.516-.573.715-.794c.063-.07.133-.137.181-.22.178-.308.009-.74-.323-.813-.207-.046-.379.048-.519.203l-.319.354-.251.278v-.38c0-.296.005-.593 0-.89-.003-.232-.164-.428-.377-.427zm-3.06 4.8l.407.112 1.116.31.146.04.143.696.184.899a.534.534 0 00-.092-.052.446.446 0 00-.512.149.522.522 0 00-.104.244.446.446 0 00-.249-.026.486.486 0 00-.375.403.69.69 0 00-.005.11l-.631-.62-.49-.48.04-.157.309-1.194.113-.435zm6.121 0l.113.434.308 1.194.041.157-.49.48-.632.621a.485.485 0 00-.38-.513.446.446 0 00-.248.025.536.536 0 00-.104-.244.446.446 0 00-.512-.148.485.485 0 00-.092.05l.184-.897.143-.697.146-.04 1.116-.31.407-.113zm3.061 5.698l-.295.322-.807.885a10.21 10.21 0 00-.106.116l-.633-.215-.815-.278a.499.499 0 00.087-.06.529.529 0 00.137-.551.517.517 0 00-.145-.22.525.525 0 00.008-.77.478.478 0 00-.087-.058l.815-.278.633-.216c.035.04.07.078.106.116l.807.885.295.322zm-3.061 5.7l-.407-.113-1.116-.31-.146-.04-.142-.697-.184-.898c.028.02.058.037.091.051a.447.447 0 00.513-.148.532.532 0 00.103-.244.448.448 0 00.249.025.484.484 0 00.38-.513l.631.62.49.481-.04.157-.309 1.194-.113.435zm-6.121 0l-.113-.435-.309-1.194-.04-.157.49-.48.631-.621a.485.485 0 00.38.513.45.45 0 00.249-.025c.013.086.047.17.104.244a.446.446 0 00.512.148.555.555 0 00.092-.051l-.184.898-.143.697-.146.04-1.116.31-.407.113zm-3.061-5.7l.295-.322.807-.885.106-.116.632.216.816.278a.499.499 0 00-.087.06.525.525 0 00.008.769.525.525 0 00-.008.77.499.499 0 00.087.06l-.816.278-.632.215a12.265 12.265 0 01-.106-.116l-.807-.885-.295-.322zm4.742-2.568l.607.67.084.093.173.845-.594-.584-.033-.124-.237-.9zm2.759 0l-.237.9a5.24 5.24 0 00-.032.125l-.595.584.173-.846.084-.092.607-.67v-.001zm1.379 2.568l-.844.23-.116.032-.768-.262.768-.261.116.031.844.23zm-1.379 2.569l-.607-.671-.084-.092-.173-.846.595.584.032.124.237.9zm-2.759 0l.237-.901.033-.124.594-.584-.173.846-.084.092-.607.67zm-1.379-2.569l.844-.23.116-.031.768.261-.768.262-.116-.032-.844-.23z" fill="#fff" fill-opacity=".5"/><path d="M103.803 0c-.086-.008-.158.068-.159.16v.759l-.173-.175c-.041-.04-.079-.088-.137-.098a.146.146 0 00-.154.08.156.156 0 00.028.173l.002.002.434.437v.542l-.648-.652a.16.16 0 00-.105-.054.149.149 0 00-.152.174c.01.062.062.102.103.144l.451.454.351.353v.592l-.442-.452-.728-.744-.065-.067c-.086-.085-.236-.044-.251.085-.012.098.09.172.151.235l.748.765.383.391c.068.07.133.143.204.21v.71l-.484-.161-.106.508-.023-.014-.578-.34c-.02-.096-.05-.191-.075-.286l-.14-.534-.274-1.046c-.022-.085-.034-.212-.124-.25-.116-.052-.225.06-.197.18l.024.09.267 1.017.161.617-.501-.296a56736.845 56736.845 0 01-.283-1.114c-.014-.057-.023-.123-.07-.163a.146.146 0 00-.224.048.171.171 0 00-.006.12l.228.9-.459-.272-.153-.602-.001-.004c-.019-.06-.068-.107-.133-.11a.147.147 0 00-.144.096c-.021.056.001.114.015.17l.061.24a62.56 62.56 0 00-.266-.156c-.125-.074-.25-.15-.377-.223-.078-.045-.178-.019-.214.061-.05.072-.022.174.056.22.125.076.251.149.376.223l.267.157-.235.066c-.054.016-.114.025-.152.072a.153.153 0 00-.01.176c.036.056.1.076.161.062h.003l.587-.167.46.271-.876.248a.161.161 0 00-.099.065.152.152 0 00.071.223c.058.022.118-.004.174-.02l.61-.172.474-.134.501.296-.603.165-.994.273c-.03.008-.06.015-.089.024-.115.034-.155.187-.054.265.077.06.191.006.274-.017l1.023-.28.522-.143c.093-.025.188-.046.279-.076l.578.341.024.014-.378.348.378.348-.024.014-.578.341c-.091-.03-.186-.05-.279-.076l-.522-.143-1.023-.28c-.083-.023-.197-.076-.274-.017-.101.078-.061.231.054.265.029.009.059.016.089.024l.994.273.603.165c-.167.1-.334.198-.501.296l-.474-.134-.61-.172c-.056-.016-.116-.042-.174-.02a.152.152 0 00-.071.223.164.164 0 00.099.065l.876.248-.46.27c-.196-.054-.391-.11-.587-.165l-.003-.001a.147.147 0 00-.16.062.153.153 0 00.01.176c.037.047.097.056.151.072l.235.066-.267.157c-.125.074-.251.147-.376.223-.078.046-.106.148-.056.22.036.08.136.106.214.06.127-.072.252-.148.377-.222l.266-.157-.061.241c-.014.056-.036.114-.015.17.023.06.081.1.144.096.065-.003.114-.05.133-.11l.001-.004.153-.602.459-.272-.228.9a.177.177 0 00.006.12.145.145 0 00.224.048c.048-.04.056-.106.07-.163l.159-.627.124-.487.501-.296-.161.617-.267 1.017-.024.09c-.028.12.081.232.197.181.09-.039.102-.166.124-.251l.274-1.046.14-.534c.025-.095.055-.19.075-.285l.578-.341a.466.466 0 00.023-.014l.106.508.484-.16v.71c-.071.065-.136.14-.204.208l-.383.392-.748.765c-.061.062-.163.137-.151.235.015.128.165.17.251.084l.065-.066.728-.744.442-.452v.592l-.351.353-.451.454c-.041.042-.093.082-.103.144-.016.094.06.18.152.174a.16.16 0 00.105-.054l.648-.652v.542l-.434.437-.002.002a.156.156 0 00-.028.174c.029.057.091.09.154.08.058-.01.096-.059.137-.1l.173-.174v.759c.001.092.073.168.159.16.086.008.158-.068.158-.16.002-.148 0-.297 0-.445v-.314l.174.175c.04.04.078.088.137.098a.146.146 0 00.153-.08.154.154 0 00-.03-.175l-.434-.437V8.12l.648.652a.16.16 0 00.105.054.149.149 0 00.153-.174c-.011-.062-.062-.102-.103-.144l-.452-.454-.35-.353v-.592l.441.452.728.744.065.066c.086.085.237.044.252-.084.011-.098-.091-.173-.151-.235l-.749-.765-.382-.392c-.068-.069-.133-.143-.204-.208v-.71l.483.16.106-.508.023.014.579.34c.02.096.05.191.074.286a39918.005 39918.005 0 01.415 1.58c.022.085.034.212.123.251.116.051.226-.061.197-.18l-.023-.091-.267-1.017-.161-.617.501.296.123.487.159.627c.015.057.023.123.07.163.072.06.183.037.224-.048a.172.172 0 00.007-.12l-.229-.9.46.272.153.602v.003c.02.061.069.108.133.111a.147.147 0 00.145-.096c.021-.056-.001-.114-.015-.17l-.062-.24.267.156c.125.074.25.15.376.223.079.045.179.019.215-.061.05-.072.022-.174-.056-.22-.125-.076-.251-.149-.377-.223l-.266-.157.235-.066c.054-.016.114-.025.151-.072a.153.153 0 00.01-.176.148.148 0 00-.161-.062h-.003l-.587.167-.459-.271.876-.248a.162.162 0 00.098-.065.152.152 0 00-.071-.223c-.057-.022-.117.004-.173.02l-.611.172-.474.134-.501-.296.603-.165c.332-.09.663-.182.995-.273l.089-.024c.114-.034.155-.187.054-.265-.078-.06-.192-.006-.275.017l-1.023.28-.522.143c-.093.025-.188.046-.279.076l-.578-.341a.466.466 0 01-.023-.014l.377-.348-.377-.348.023-.014.578-.341c.091.03.186.05.279.076l.522.143 1.023.28c.083.023.197.076.275.017.101-.078.061-.231-.054-.265l-.089-.024-.995-.273-.603-.165c.167-.1.334-.198.501-.296l.474.134.611.172c.056.016.116.042.173.02a.152.152 0 00.071-.223.162.162 0 00-.098-.065l-.876-.248.459-.27c.196.054.391.11.587.165l.003.001a.15.15 0 00.161-.062.153.153 0 00-.01-.176c-.037-.047-.097-.056-.151-.072l-.235-.066.266-.157c.126-.074.252-.147.377-.223.078-.046.106-.148.056-.22-.036-.08-.136-.106-.215-.06-.126.072-.251.148-.376.222l-.267.157.062-.241c.014-.056.036-.114.015-.17a.148.148 0 00-.145-.097c-.064.004-.113.05-.133.111v.004l-.153.602-.46.271.229-.899a.172.172 0 00-.007-.12.145.145 0 00-.224-.048c-.047.04-.055.106-.07.163l-.159.627-.123.487-.501.296.161-.617.267-1.017.023-.09c.029-.12-.081-.232-.197-.18-.089.038-.101.165-.123.25l-.274 1.046-.141.534c-.024.095-.054.19-.074.285l-.579.341a.466.466 0 01-.023.014l-.106-.508-.483.16v-.71c.071-.066.136-.14.204-.209l.382-.39.749-.766c.061-.063.162-.137.151-.235-.015-.129-.166-.17-.252-.085l-.065.067-.728.744-.441.452v-.592l.35-.353.452-.454c.041-.042.092-.082.103-.144a.149.149 0 00-.153-.174.164.164 0 00-.105.054l-.648.652v-.542l.434-.437.003-.002a.154.154 0 00.027-.174.145.145 0 00-.153-.08c-.059.01-.097.059-.137.1l-.174.174V.605c0-.149.002-.297 0-.445 0-.092-.072-.168-.158-.16zm-.425 4.25l.152.05.024.007-.079.112-.135.015.005-.025.033-.16zm-.424.75l.119-.109.018-.017.055.126a6.905 6.905 0 01-.055.127l-.018-.017-.119-.11zm.424.752l-.033-.16-.005-.025.135.014.079.112-.024.008-.152.05zm.849 0l-.152-.05-.024-.009.08-.112.134-.014-.005.025-.033.16zm.424-.752l-.118.11a.325.325 0 00-.019.017L104.459 5l.055-.126a.325.325 0 00.019.017l.118.11zm-.424-.75l.033.159.005.025-.134-.015-.08-.112.024-.008.152-.05zm-.593.452l.142-.2a.211.211 0 01.014-.02.204.204 0 00.013.019.204.204 0 01.013-.019l.014.02.141.2.24.026.024.002-.009.02.022.003-.01.022-.098.225.098.226.01.022-.022.002.009.02-.024.003-.24.026-.141.2-.014.019a.204.204 0 01-.013-.018.182.182 0 00-.013.018l-.014-.02-.142-.2-.24-.025-.024-.003.009-.02-.021-.002.009-.022.098-.226-.098-.225-.009-.022.021-.003-.009-.02.024-.002.24-.026z" fill="#fff"/><path d="M206.041 3c-.106 0-.186.102-.188.224-.003.155 0 .31 0 .466v.199l-.126-.146-.159-.185c-.07-.081-.156-.13-.26-.107-.165.039-.25.265-.161.426.024.044.059.08.09.116l.358.416.258.3v.333l-.314-.357-.578-.657a.247.247 0 00-.169-.095c-.155-.01-.276.157-.241.327.02.095.098.164.157.23l.65.74.331.377c.055.062.108.127.164.187v1.114l-.227-1.16-.036-.185a.102.102 0 00-.067-.076L204.5 5.19l-.145-.042a.092.092 0 00-.033-.003.124.124 0 00-.014.034l-.04.163-.283 1.146a.116.116 0 00.024.103l.124.127.779.802-.857-.557c-.018-.085-.042-.17-.062-.253l-.124-.512-.243-1.004c-.022-.09-.037-.2-.1-.268-.112-.12-.302-.084-.371.072a.322.322 0 00-.012.212l.216.892.118.485-.257-.167-.101-.402-.141-.556c-.012-.049-.022-.101-.044-.146-.079-.168-.295-.198-.408-.056-.07.09-.075.198-.048.307l.063.248.05.196-.153-.1c-.12-.077-.238-.157-.359-.233a.182.182 0 00-.266.072.234.234 0 00.077.296c.119.08.24.155.359.233l.153.1-.175.05-.222.062a.288.288 0 00-.212.2c-.053.18.079.377.247.37.045-.001.09-.018.134-.03l.498-.141.36-.102.256.167-.431.127-.794.236a.257.257 0 00-.157.117c-.086.147-.018.348.13.398.084.028.175-.013.256-.036l.894-.265.455-.135c.075-.022.151-.041.226-.066l.856.557-1.006-.36-.159-.056c-.031-.011-.07.002-.092.028l-.74.848-.105.121a.116.116 0 00-.019.03.12.12 0 00.019.031l.105.121.74.849c.022.025.061.039.092.028l.159-.057 1.006-.36-.856.558c-.075-.025-.151-.044-.226-.066l-.455-.135-.894-.265c-.081-.024-.172-.065-.256-.037-.148.05-.216.252-.13.399a.258.258 0 00.157.117l.794.235.431.128-.256.166-.36-.101-.498-.141c-.044-.013-.089-.03-.134-.03-.168-.007-.3.189-.247.37a.288.288 0 00.212.2l.222.062.175.05-.153.1c-.119.077-.24.152-.359.233a.234.234 0 00-.077.295.182.182 0 00.266.072c.121-.075.239-.155.359-.233l.153-.099-.05.195-.063.248c-.027.11-.022.218.048.307.113.143.329.112.408-.055.022-.045.032-.097.044-.146l.141-.557.101-.402.257-.166-.118.484-.216.892a.323.323 0 00.012.213c.069.156.259.191.371.071.063-.067.078-.177.1-.267l.243-1.005.124-.51c.02-.085.044-.169.062-.254l.857-.557-.779.802-.124.127c-.024.025-.033.069-.024.103l.283 1.146.04.164a.122.122 0 00.014.033c.011 0 .022 0 .033-.003l.145-.042 1.023-.298a.102.102 0 00.067-.075l.036-.184.227-1.161v1.114c-.056.06-.109.126-.164.188l-.331.376-.65.74c-.059.066-.136.135-.157.23-.035.17.086.337.241.327a.247.247 0 00.169-.095l.578-.657.314-.356v.332l-.258.3-.358.416c-.031.037-.066.072-.09.116-.089.16-.004.387.161.426.104.024.19-.026.26-.107l.159-.185.126-.146v.199c0 .155-.003.31 0 .466.002.122.082.225.188.224.107 0 .187-.102.189-.224.002-.155 0-.31 0-.466v-.199l.125.146.16.185c.07.081.156.13.259.107.166-.039.251-.265.162-.426-.024-.044-.059-.08-.091-.116l-.357-.416-.258-.3v-.332l.314.356.577.657a.25.25 0 00.169.095c.155.01.277-.157.241-.327-.02-.095-.097-.164-.156-.23l-.651-.74-.331-.377c-.054-.062-.107-.127-.163-.187v-1.114l.227 1.16.036.185a.102.102 0 00.067.075l1.022.298.146.042a.093.093 0 00.033.003.098.098 0 00.013-.033l.041-.164.283-1.146a.12.12 0 00-.025-.103 586.57 586.57 0 00-.903-.93l.857.558c.018.085.042.17.062.253l.124.511.243 1.005c.022.09.037.2.1.268.112.12.302.084.372-.072a.329.329 0 00.011-.213l-.216-.892-.117-.484.256.166.101.402.141.557c.012.049.022.1.044.146.079.167.296.198.408.055.07-.09.075-.198.048-.307a888.42 888.42 0 01-.063-.248l-.049-.195.153.1c.119.077.237.157.358.232a.182.182 0 00.266-.072.233.233 0 00-.077-.295c-.119-.08-.239-.156-.359-.234a66.163 66.163 0 00-.153-.1l.175-.049.222-.062a.285.285 0 00.212-.2c.053-.181-.078-.377-.247-.37-.045.001-.09.017-.134.03l-.498.14-.36.102-.256-.166.431-.128.794-.235a.259.259 0 00.158-.117c.085-.147.017-.35-.131-.399-.083-.028-.175.013-.256.037l-.894.265-.455.135c-.074.022-.151.04-.225.066l-.857-.557 1.006.359.159.057a.088.088 0 00.092-.028l.74-.85.105-.12a.12.12 0 00.019-.03.12.12 0 00-.019-.03l-.105-.122-.74-.848a.088.088 0 00-.092-.028l-.159.057-1.006.359.857-.557c.074.025.151.044.225.066a264.303 264.303 0 011.349.4c.081.023.173.064.256.036.148-.05.216-.252.131-.398a.26.26 0 00-.158-.117l-.794-.236-.431-.127.256-.167.36.102.498.141c.044.012.089.029.134.03.169.007.3-.19.247-.37a.285.285 0 00-.212-.2l-.222-.063-.175-.05.153-.099c.12-.077.24-.153.359-.233a.234.234 0 00.077-.296c-.052-.104-.171-.13-.266-.072-.121.076-.239.156-.358.233l-.153.1.049-.196.063-.248c.027-.109.022-.217-.048-.307-.113-.142-.329-.112-.408.056-.022.045-.032.097-.044.146l-.141.556-.101.402-.256.167.117-.485.216-.892a.328.328 0 00-.011-.212c-.07-.156-.26-.191-.372-.072-.063.067-.078.178-.1.268l-.243 1.004-.124.512c-.02.084-.044.168-.062.253l-.857.557a720.868 720.868 0 00.903-.929.12.12 0 00.025-.103 478.33 478.33 0 01-.283-1.146l-.041-.163a.122.122 0 00-.013-.034.092.092 0 00-.033.003l-.146.042c-.341.1-.681.199-1.022.297a.102.102 0 00-.067.076l-.036.184-.227 1.161V5.794c.056-.06.109-.125.163-.187l.331-.377.651-.74c.059-.066.136-.135.156-.23.036-.17-.086-.337-.241-.327-.068.005-.122.043-.169.095l-.577.657-.314.357v-.334l.258-.3.357-.415c.032-.037.067-.072.091-.116.089-.16.004-.387-.162-.426-.103-.024-.189.026-.259.107l-.16.185-.125.146V3.69c0-.155.002-.31 0-.466-.002-.122-.082-.225-.189-.224zm-1.53 2.514l.203.059.559.162.073.021.071.365.092.47a.23.23 0 00-.046-.026c-.088-.039-.197-.004-.256.077a.292.292 0 00-.052.128.212.212 0 00-.124-.013c-.092.017-.173.106-.188.21a.397.397 0 00-.002.059l-.316-.325-.245-.252.02-.082.155-.625.056-.228zm3.061 0l.056.228.154.625.021.082-.245.252a94.62 94.62 0 00-.316.325.382.382 0 00-.002-.058c-.015-.105-.096-.194-.188-.21a.213.213 0 00-.124.013.294.294 0 00-.052-.128c-.059-.082-.168-.117-.256-.078a.24.24 0 00-.046.027l.092-.47.071-.366.073-.02.558-.163.204-.059zm1.53 2.985l-.147.169-.404.463-.053.061-.316-.113-.408-.145a.253.253 0 00.044-.032.286.286 0 00-.004-.403.284.284 0 00.004-.403.243.243 0 00-.044-.032l.408-.145.316-.113.053.06.404.464.147.17zm-1.53 2.986l-.204-.06-.558-.162-.073-.021a45.17 45.17 0 00-.071-.365l-.092-.47a.24.24 0 00.046.026c.088.04.197.004.256-.077a.293.293 0 00.052-.128.212.212 0 00.124.013c.092-.017.173-.106.188-.21a.383.383 0 00.002-.059l.316.325.245.252a2.5 2.5 0 00-.02.082l-.155.626-.056.228zm-3.061 0l-.056-.228-.155-.626a2.273 2.273 0 00-.02-.082l.245-.252.316-.325a.383.383 0 00.002.058c.015.105.096.194.188.211a.213.213 0 00.124-.013c.007.045.024.09.052.128.059.081.168.116.256.077a.24.24 0 00.046-.026l-.092.47-.071.365a405.442 405.442 0 01-.835.243zm-1.53-2.986l.147-.169.404-.463.053-.06.316.112.408.145a.253.253 0 00-.044.032.284.284 0 00.004.403.284.284 0 00-.004.403.253.253 0 00.044.032l-.408.145-.316.113-.053-.06-.404-.464-.147-.169zm2.371-1.345l.303.351.042.048.087.443-.298-.306a1.537 1.537 0 00-.016-.065l-.118-.472zm1.379 0l-.118.472-.016.065-.298.305.087-.442.042-.049.303-.351zm.69 1.345l-.422.12-.058.017-.384-.137.384-.137.058.017.422.12zm-.69 1.345l-.303-.35-.042-.05-.087-.442.298.306.016.065.118.472zm-1.379 0l.118-.471.016-.065.298-.306-.087.443-.042.048-.303.351zm-.69-1.345l.422-.12.058-.017.384.137-.384.137-.058-.016-.422-.12z" fill="#fff" fill-opacity=".4"/></svg>