<svg width="290" height="48" fill="none" xmlns="http://www.w3.org/2000/svg"><path d="M278.807 2h.268c.08 0 .149.073.149.159V3.79c.51-.548 1.012-1.112 1.549-1.627.255-.244.69-.097.689.3-.001.187-.119.302-.233.422l-1.094 1.152-.911.959v1.24c.52-.567 1.031-1.151 1.58-1.683a.402.402 0 01.689.298c0 .185-.115.3-.227.42l-1.127 1.203-.915.977v1.207c.509-.555 1.01-1.128 1.548-1.648.253-.245.69-.1.69.297 0 .186-.118.302-.23.422l-1.11 1.184-.898.96v1.232l1.53-1.589c.12-.124.238-.233.421-.209a.365.365 0 01.255.157c.112.158.082.321.041.494l-.524 2.209 1-.616.329-1.31.407-1.618c.041-.164.076-.33.227-.424.322-.198.658.133.586.49-.153.757-.367 1.506-.563 2.255l.979-.604.335-1.334.412-1.644c.041-.163.077-.327.228-.42.32-.197.658.132.586.489-.157.773-.376 1.537-.576 2.301l1.007-.62.322-1.322.388-1.587c.04-.165.074-.332.225-.426.322-.2.658.13.588.487-.149.753-.355 1.5-.545 2.245l1.324-.815a.145.145 0 01.203.058l.134.247.134.248a.167.167 0 01-.054.217l-1.324.816c.7.197 1.409.38 2.095.619.325.113.424.589.101.786-.152.093-.304.041-.458-.004l-1.482-.436-1.233-.363-1.007.62c.72.198 1.45.378 2.156.62.325.11.423.588.103.786-.15.092-.301.043-.454 0l-1.54-.44-1.25-.358-.979.604c.705.193 1.42.37 2.111.606.326.112.426.589.104.787-.151.093-.304.043-.458-.001a8608.888 8608.888 0 00-2.743-.784l-1 .615 2.055.62c.16.049.308.104.379.286a.423.423 0 010 .313c-.071.182-.219.237-.379.285l-2.055.62 1 .616 1.228-.35 1.515-.434c.154-.044.307-.095.458-.002.322.199.222.675-.104.787-.691.237-1.406.414-2.111.607l.979.604 1.25-.358 1.54-.44c.153-.044.304-.093.454 0 .321.197.222.675-.103.786-.706.241-1.436.422-2.156.62l1.007.62 1.233-.363 1.482-.436c.153-.045.306-.097.458-.004.323.197.224.673-.101.787-.686.239-1.395.42-2.095.618l1.324.816c.07.043.094.143.054.217l-.134.248-.134.247a.145.145 0 01-.203.058c-.442-.272-.883-.543-1.324-.816.19.746.396 1.492.545 2.246.071.358-.266.687-.588.487-.151-.094-.185-.261-.225-.426l-.388-1.587-.322-1.322-1.007-.62c.2.764.419 1.529.576 2.302.072.356-.266.686-.586.489-.151-.093-.187-.258-.228-.42l-.412-1.644-.335-1.334-.979-.604c.195.749.41 1.498.563 2.255.073.357-.264.688-.586.49-.151-.093-.186-.26-.227-.424l-.407-1.618-.329-1.31-1-.616.524 2.209c.041.172.071.336-.041.493a.365.365 0 01-.255.157c-.184.025-.302-.084-.421-.208l-1.53-1.59v1.233l.898.96 1.11 1.183c.112.12.23.236.23.423 0 .396-.437.542-.69.297-.538-.52-1.039-1.092-1.548-1.648v1.207l.915.977 1.127 1.203c.112.12.227.235.227.42a.402.402 0 01-.689.298c-.549-.531-1.06-1.116-1.58-1.683v1.24l.911.96 1.094 1.15c.114.12.232.236.233.423.001.397-.434.544-.689.3-.537-.515-1.039-1.08-1.549-1.627v1.631c0 .086-.069.159-.149.159h-.536c-.081 0-.149-.073-.149-.159V24.21c-.51.548-1.012 1.112-1.549 1.627-.255.244-.69.097-.689-.3.001-.187.119-.303.233-.422l1.094-1.152.911-.959v-1.24c-.52.567-1.031 1.152-1.58 1.683a.402.402 0 01-.689-.298c0-.185.115-.3.227-.42l1.127-1.203.915-.977v-1.207c-.509.556-1.01 1.128-1.548 1.648-.253.245-.69.1-.69-.297 0-.186.118-.302.23-.423l1.11-1.184.898-.96v-1.231l-1.53 1.589c-.12.124-.238.233-.421.208a.365.365 0 01-.255-.157c-.112-.157-.082-.32-.041-.493l.524-2.21-1 .617-.329 1.31-.407 1.618c-.041.164-.076.33-.227.424-.322.198-.658-.133-.586-.49.153-.757.367-1.506.563-2.255l-.98.604-.334 1.334-.413 1.643c-.041.163-.077.328-.228.42-.32.198-.658-.132-.586-.488.157-.773.376-1.538.576-2.302l-1.007.62-.322 1.322-.387 1.587c-.04.165-.075.332-.226.426-.322.2-.659-.129-.588-.487.149-.753.356-1.5.545-2.245l-1.323.816a.147.147 0 01-.204-.059 30.042 30.042 0 00-.134-.247l-.134-.248a.168.168 0 01.055-.217l1.324-.816c-.7-.197-1.409-.379-2.095-.619-.325-.113-.424-.588-.101-.786.152-.093.305-.041.458.004l1.482.436 1.233.363 1.007-.62c-.72-.198-1.45-.378-2.156-.62-.325-.111-.423-.589-.103-.786.15-.093.301-.044.454 0l1.54.44 1.25.358.979-.604c-.705-.193-1.42-.37-2.111-.607-.326-.112-.426-.588-.104-.787.151-.093.304-.042.458.002l1.515.433 1.228.351 1-.616-2.054-.62c-.161-.048-.308-.103-.38-.285a.423.423 0 010-.313c.072-.183.219-.237.38-.286l2.054-.62-1-.615-1.228.35-1.515.434c-.154.044-.306.094-.458.001-.322-.198-.222-.675.104-.787.691-.237 1.406-.413 2.111-.606l-.979-.604-1.25.358-1.54.44c-.153.043-.304.092-.454 0-.321-.197-.222-.675.103-.786.706-.242 1.436-.422 2.156-.62l-1.007-.62-1.233.363-1.482.436c-.153.045-.306.097-.458.004-.323-.197-.224-.673.101-.786.686-.24 1.395-.421 2.095-.62-.442-.27-.883-.543-1.324-.815a.168.168 0 01-.055-.217l.134-.248.134-.247a.147.147 0 01.204-.058l1.323.815c-.189-.745-.396-1.491-.545-2.245-.071-.357.266-.687.588-.487.151.094.185.261.226.426l.387 1.587.322 1.322 1.007.62c-.2-.764-.419-1.529-.576-2.301-.072-.357.266-.686.586-.49.151.094.187.258.228.421l.413 1.644.334 1.334.98.604c-.196-.749-.411-1.498-.563-2.255-.073-.357.264-.688.586-.49.151.094.186.26.227.424l.407 1.618.329 1.31 1 .616-.524-2.21c-.041-.172-.071-.335.041-.493a.367.367 0 01.255-.157c.184-.024.302.085.421.209l1.53 1.589V9.873l-.898-.96-1.11-1.184c-.113-.12-.23-.236-.23-.422 0-.396.437-.542.69-.297.539.52 1.039 1.092 1.548 1.648V7.451l-.915-.977-1.127-1.203c-.112-.12-.227-.235-.227-.42 0-.395.437-.542.689-.298.549.531 1.06 1.116 1.58 1.683v-1.24l-.911-.96-1.094-1.15c-.114-.12-.232-.236-.233-.423-.001-.397.434-.544.689-.3.537.515 1.039 1.08 1.549 1.627V2.16c0-.086.068-.159.149-.159h.268zm1.564 9.109l-1.147 1.19v.87l.033-.02.014-.008.001.018v.04l.706-.435.393-1.655zm-3.128 0c.132.552.263 1.103.393 1.655l.706.435v-.04l.001-.018.014.008.033.02v-.87l-1.147-1.19zm-1.563 2.89c.513.156 1.026.31 1.54.465l.705-.435-.032-.02-.014-.01.014-.01.032-.02-.705-.434-1.54.464zm1.563 2.891l1.147-1.19v-.87l-.033.02-.014.008-.001-.018v-.04l-.706.434-.393 1.656zm3.128 0l-.393-1.655-.706-.435v.04l-.001.018-.014-.008-.033-.02v.87l1.147 1.19zm1.563-2.89l-1.539-.465-.706.435.033.02.013.01a.088.088 0 01-.013.01l-.033.02.706.434 1.539-.465zM61.081 29h.152c.045 0 .084.043.084.093v.951c.288-.32.572-.649.875-.949.144-.142.39-.057.39.175 0 .11-.068.176-.132.246l-.618.672-.515.56v.723c.294-.33.583-.672.893-.982.143-.143.39-.057.39.174 0 .108-.066.175-.129.245l-.637.702-.517.57v.704c.288-.324.57-.658.875-.962.143-.143.39-.058.39.174 0 .109-.067.176-.13.246l-.627.69-.508.56v.72l.865-.928c.067-.072.134-.136.238-.121a.202.202 0 01.144.091c.063.092.046.187.023.288l-.296 1.289.565-.36.186-.764.23-.943c.023-.096.043-.193.128-.248.182-.116.372.078.332.286-.087.441-.208.879-.319 1.315l.554-.352.189-.778.233-.959c.023-.095.044-.191.129-.245.18-.115.372.077.33.285-.088.45-.212.897-.325 1.343l.57-.362.182-.772.219-.925c.022-.097.042-.194.127-.249.182-.116.372.076.333.284-.085.44-.201.875-.309 1.31l.749-.476a.081.081 0 01.114.034l.076.145.076.144a.1.1 0 01-.03.127l-.749.476c.396.115.796.22 1.184.36.184.067.24.344.057.46-.086.054-.172.023-.259-.003l-.837-.254-.697-.212-.57.362c.408.115.82.22 1.22.36.183.066.239.344.058.46-.085.054-.17.025-.257 0l-.87-.257-.707-.209-.554.352c.399.113.803.216 1.194.354.184.065.24.344.058.46-.085.053-.171.024-.258-.002l-.857-.252-.694-.205-.565.36 1.161.36c.091.03.175.061.215.167a.257.257 0 010 .183c-.04.106-.124.138-.215.166l-1.16.362.564.36.694-.205.857-.253c.087-.026.173-.055.258-.001.182.116.126.394-.058.459-.39.138-.795.241-1.194.354l.554.352.707-.209.87-.256c.086-.026.172-.055.257 0 .18.115.125.393-.059.458-.399.141-.811.246-1.218.361l.569.362.697-.211.837-.254c.087-.027.173-.057.26-.003.182.115.126.393-.058.459-.388.14-.788.246-1.184.36l.748.477c.04.025.054.083.031.126l-.076.145-.076.144a.081.081 0 01-.114.034l-.749-.476c.108.435.224.87.309 1.31.04.209-.15.401-.333.284-.085-.055-.105-.152-.127-.248l-.22-.926c-.06-.257-.12-.514-.182-.771l-.569-.362c.114.446.237.892.326 1.343.04.207-.15.4-.332.285-.084-.054-.105-.15-.128-.245l-.233-.959-.19-.778-.553-.352c.11.436.232.873.319 1.315.04.208-.15.402-.332.286-.085-.055-.105-.152-.128-.248l-.23-.943-.186-.764-.565-.36.296 1.289c.023.1.04.196-.023.288a.203.203 0 01-.144.092c-.104.014-.17-.05-.238-.122l-.865-.927v.718l.508.56.627.69c.063.07.13.138.13.247 0 .231-.247.317-.39.174-.304-.304-.587-.638-.875-.962v.704l.517.57.637.702c.063.07.129.137.129.245 0 .23-.247.316-.39.174-.31-.31-.6-.652-.893-.982v.724l.515.559.618.672c.064.07.131.137.132.246 0 .232-.246.317-.39.175-.303-.3-.587-.63-.875-.95v.952c0 .05-.039.093-.084.093h-.303c-.046 0-.084-.043-.084-.093v-.951c-.289.32-.572.649-.876.949-.144.142-.39.057-.39-.175.001-.11.068-.177.132-.246l.619-.672.515-.56v-.723c-.294.33-.583.672-.893.982-.143.142-.39.057-.39-.174 0-.108.065-.175.128-.245a1347.53 1347.53 0 001.155-1.272v-.704c-.288.324-.571.658-.875.962-.143.143-.39.058-.39-.174 0-.109.066-.176.13-.246l.627-.691.508-.56v-.718c-.289.308-.577.617-.865.927-.068.072-.135.136-.238.121a.203.203 0 01-.144-.091c-.063-.092-.047-.188-.024-.288l.296-1.289-.565.36-.186.764-.23.943c-.023.096-.042.193-.128.248-.182.115-.372-.078-.331-.286.086-.441.207-.879.318-1.315l-.554.352-.189.778-.233.959c-.023.095-.043.19-.129.245-.18.115-.372-.078-.33-.285.088-.451.212-.897.325-1.343l-.57.362-.182.77-.219.927c-.022.096-.042.193-.127.248-.182.117-.372-.075-.333-.284.085-.44.202-.875.309-1.31l-.748.476a.081.081 0 01-.115-.034l-.076-.144-.076-.145c-.023-.043-.009-.101.03-.126l.75-.476c-.396-.115-.797-.221-1.185-.361-.184-.066-.24-.344-.057-.459.086-.054.172-.024.26.003l.837.254c.232.07.464.14.697.212l.569-.363c-.407-.115-.82-.22-1.219-.36-.183-.066-.24-.344-.058-.46.085-.053.17-.025.257 0l.87.257.706.209.554-.352c-.398-.113-.803-.216-1.193-.354-.184-.065-.24-.343-.059-.46.085-.053.172-.024.259.002l.856.253.694.204.565-.359-1.16-.362c-.091-.028-.175-.06-.215-.166a.253.253 0 010-.183c.04-.106.124-.138.214-.166l1.161-.362-.565-.36c-.231.07-.462.137-.694.206l-.856.252c-.087.026-.173.055-.259.001-.182-.115-.125-.393.059-.459.39-.138.794-.241 1.193-.354l-.554-.352-.706.209-.87.256c-.087.026-.172.055-.257 0-.181-.115-.126-.393.058-.458.4-.14.812-.246 1.219-.361l-.57-.362-.697.212-.837.254c-.087.026-.173.056-.259.002-.182-.115-.127-.392.057-.459.388-.14.789-.245 1.184-.36l-.748-.476a.098.098 0 01-.03-.127l.075-.144.076-.145a.081.081 0 01.115-.034l.748.476c-.108-.435-.224-.87-.309-1.31-.04-.208.15-.4.333-.284.085.055.105.152.127.249l.22.925.181.772c.19.12.38.24.57.362-.114-.446-.237-.892-.326-1.343-.04-.208.15-.4.331-.285.086.054.106.15.129.245l.233.959.19.778.553.352c-.11-.436-.232-.873-.318-1.315-.041-.208.15-.402.331-.286.086.055.105.152.129.248l.23.943.185.764.565.36-.296-1.29c-.023-.1-.04-.195.024-.287a.204.204 0 01.144-.092c.103-.014.17.05.238.122l.865.927v-.719l-.508-.56-.627-.69c-.064-.07-.13-.137-.13-.246 0-.231.247-.317.39-.174.304.304.587.638.875.962v-.704l-.518-.57-.637-.702c-.063-.07-.128-.137-.128-.245 0-.23.247-.316.39-.174.31.31.599.651.893.982v-.724l-.515-.559-.619-.672c-.064-.07-.131-.137-.131-.246-.001-.232.245-.317.389-.175.303.3.587.63.876.95v-.952c0-.05.038-.093.084-.093h.151zm.884 5.313l-.648.695v.507l.018-.011.009-.005v.034l.399-.254.222-.966zm-1.768 0l.222.966.4.254v-.034l.008.005.019.011v-.507l-.648-.695zM59.314 36l.87.27.399-.253-.019-.012a.07.07 0 01-.007-.005l.007-.006.019-.012-.4-.253-.87.27zm.883 1.686l.649-.695v-.507l-.019.012-.008.004v-.033l-.4.253-.221.966zm1.768 0l-.222-.966-.399-.253v.033c-.003 0-.006-.002-.009-.004a1.02 1.02 0 00-.018-.012v.508l.648.694zM62.849 36l-.87-.271-.4.253.02.012.007.006a.07.07 0 01-.008.005l-.018.012.398.254.87-.271z" fill="#fff" fill-opacity=".9"/><path d="M134.444 20c.239.018.422.23.435.48.017.324 0 .655 0 .98v.599l.63-.45c.17-.224.508-.279.674.017.127.224-.007.509-.23.581l-1.074 1.311v.866l1.862-1.33c.093-.283.496-.416.735-.176.25.252.096.658-.203.74l-2.151 2.628-.243.296v.948c.63-.63 1.254-1.272 1.912-1.871a.47.47 0 01.803.25.472.472 0 01.369.023c.108.07.181.184.205.309a.47.47 0 01.618.572c-.189.87-.431 1.733-.661 2.595l.819-.474.135-.359 1.195-3.181c-.079-.3.195-.637.538-.546.326.087.413.504.214.727l-.218 2.28.749-.433.596-1.587c-.05-.23.129-.488.387-.49.338-.004.46.316.351.576l-.074.772.518-.3c.281-.162.558-.342.848-.49.222-.113.496-.06.631.138.104.217.013.48-.196.616-.273.178-.567.328-.848.491l-.518.3.704.322c.279.035.495.3.323.593-.131.223-.444.248-.618.09l-1.67-.276-.748.433 2.08.95c.292-.06.608.224.52.55-.093.344-.521.413-.74.194l-3.347-.553-.378-.063-.819.474c.861.232 1.727.452 2.573.724a.471.471 0 01.185.822.472.472 0 01.165.333.473.473 0 01-.165.332.472.472 0 01-.185.822c-.846.272-1.712.492-2.573.724l.819.474.378-.063 3.347-.553c.219-.219.647-.15.74.194.088.327-.228.61-.52.549l-2.08.951.748.433 1.67-.276c.174-.159.487-.133.618.09.172.292-.044.558-.323.593l-.704.322.518.3c.281.163.575.313.848.49.209.137.3.4.196.617-.135.199-.409.251-.631.138-.29-.148-.567-.328-.848-.49l-.518-.3.074.772c.109.26-.013.58-.351.577-.258-.003-.437-.261-.387-.491l-.596-1.588-.749-.433.218 2.28c.199.224.112.64-.214.727-.343.091-.617-.246-.538-.545l-1.195-3.182-.135-.359-.819-.474c.23.863.472 1.725.661 2.595a.47.47 0 01-.618.573.472.472 0 01-.205.308.47.47 0 01-.369.024.47.47 0 01-.803.25c-.658-.6-1.282-1.24-1.912-1.871v.947l.243.297 2.151 2.628c.299.081.453.488.203.74-.239.24-.642.106-.735-.178l-1.862-1.329v.866l1.074 1.311c.223.072.357.356.23.581-.166.296-.504.24-.674.017l-.63-.45v.599c0 .325.017.656 0 .98-.013.25-.196.462-.435.48-.239-.018-.421-.23-.435-.48-.017-.324 0-.655 0-.98v-.599l-.63.45c-.17.224-.508.279-.674-.017-.127-.225.007-.509.23-.581l1.074-1.311v-.866l-1.862 1.33c-.093.283-.497.416-.735.177-.25-.253-.096-.659.203-.74l2.151-2.628.243-.297v-.947c-.63.63-1.254 1.272-1.912 1.87a.47.47 0 01-.803-.25.474.474 0 01-.37-.023.475.475 0 01-.204-.308.47.47 0 01-.618-.573c.189-.87.431-1.732.661-2.594l-.819.473-.135.36-1.195 3.18c.079.3-.195.637-.538.546-.327-.087-.413-.503-.214-.727l.217-2.28-.748.433-.596 1.588c.05.23-.129.488-.387.49-.338.004-.459-.317-.351-.576l.074-.772-.518.3c-.281.162-.558.342-.847.49-.223.113-.496.06-.632-.138-.104-.217-.012-.48.197-.617.272-.177.567-.328.848-.49l.518-.3-.705-.322c-.278-.035-.494-.3-.322-.593.131-.223.444-.249.617-.09l1.67.276.748-.433-2.079-.951c-.292.06-.609-.223-.52-.549.092-.344.521-.413.74-.194l3.347.553.377.063.819-.474c-.86-.232-1.726-.452-2.572-.724a.472.472 0 01-.186-.822.472.472 0 01-.164-.332.472.472 0 01.164-.333.471.471 0 01.186-.822c.846-.272 1.712-.492 2.572-.724l-.819-.474-.377.063-3.347.553c-.219.219-.648.15-.74-.194-.089-.327.228-.61.52-.55l2.079-.95-.748-.433-1.67.276c-.173.158-.486.133-.617-.09-.172-.292.044-.558.322-.593l.705-.323-.518-.299c-.281-.163-.576-.313-.848-.49-.209-.137-.301-.4-.197-.617.136-.199.409-.251.632-.138.289.148.566.328.847.49l.518.3-.074-.772c-.108-.26.013-.58.351-.577.258.003.437.26.387.491l.596 1.587.748.433-.217-2.28c-.199-.223-.112-.64.214-.727.343-.09.617.246.538.546l1.195 3.181.135.36.819.473c-.23-.863-.473-1.725-.661-2.595a.47.47 0 01.618-.572.474.474 0 01.204-.309.472.472 0 01.37-.023.47.47 0 01.803-.25c.658.599 1.282 1.24 1.912 1.871v-.948l-.243-.297-2.151-2.628c-.299-.08-.453-.487-.203-.74.238-.24.642-.106.735.178l1.862 1.329v-.866l-1.074-1.311c-.223-.072-.357-.356-.23-.581.166-.296.504-.24.674-.017l.63.45v-.599c0-.325-.017-.656 0-.98.014-.25.196-.462.435-.48zm.253 11.562a1.322 1.322 0 01-.253.03 1.408 1.408 0 01-.253-.03c-.026.082-.059.16-.1.235a1.303 1.303 0 01-.153.204c.057.064.108.132.153.205.041.075.074.153.1.235.084-.018.168-.029.253-.03.085.002.17.012.253.03.026-.082.06-.16.1-.235.045-.073.096-.14.154-.205a1.354 1.354 0 01-.154-.204 1.41 1.41 0 01-.1-.235zm.449-3.012l-.267.262v.076c.254.094.471.258.637.474l.164-.053 1.325-2.584-1.859 1.825zm2.631 2.335l-.36-.1a2.223 2.223 0 00-.065.037c.045.268.012.539-.092.79l.129.116 2.895-.142-2.506-.7h-.001zm-.702 3.451l-.093-.363-.065-.038c-.209.174-.46.28-.729.316l-.036.17 1.571 2.441-.648-2.526zm-3.333 1.116l.268-.262v-.076a1.417 1.417 0 01-.637-.474l-.165.053-1.325 2.584 1.859-1.825zm-2.631-2.335l.361.101.065-.037a1.426 1.426 0 01.091-.79l-.128-.116-2.896.141 2.507.701zm.702-3.45l.093.362.066.038c.209-.174.459-.28.728-.315l.036-.17-1.571-2.442.648 2.526zm.07-2.942l1.325 2.584.165.053a1.42 1.42 0 01.637-.474v-.076a2294.308 2294.308 0 00-2.127-2.087zm5.84.415l-1.57 2.442.035.17c.27.035.52.14.729.315l.065-.038.094-.363.647-2.526zm2.561 5.276l-2.895-.142-.129.116c.104.251.138.522.092.79l.065.038.36-.101 2.507-.701zm-3.278 4.861l-1.326-2.584-.164-.054c-.165.216-.382.38-.637.475v.075l.268.263 1.859 1.825zm-5.84-.415l1.57-2.442-.035-.17a1.415 1.415 0 01-.728-.315l-.066.038-.093.363-.647 2.526h-.001zm-2.561-5.276l2.896.142.128-.117a1.424 1.424 0 01-.091-.79 5.577 5.577 0 01-.066-.037l-.36.1-2.507.702z" fill="#fff" fill-opacity=".3"/><path d="M221.499 15c.363-.002.636.306.642.671.008.466 0 .933 0 1.4v.596l.427-.437.543-.556c.238-.244.53-.392.884-.32.564.115.852.794.549 1.278-.081.13-.201.237-.308.346l-1.216 1.248-.879.9v.999l1.068-1.07 1.967-1.97c.158-.158.344-.272.575-.285a.803.803 0 01.82.98c-.068.285-.332.492-.532.692l-2.215 2.22-1.127 1.128c-.185.186-.365.382-.556.562v3.343a4345.154 4345.154 0 01.894-4.035.325.325 0 01.23-.228l3.479-.89.497-.128c.036-.009.074-.012.111-.009.021.03.037.064.047.1l.138.49.962 3.438a.317.317 0 01-.084.31l-.42.382-2.652 2.405 2.917-1.672c.061-.254.142-.507.211-.76l.422-1.532.829-3.014c.075-.272.124-.602.338-.803.383-.358 1.028-.254 1.265.216.104.205.099.422.039.636l-.735 2.676-.4 1.453.872-.5.346-1.205.479-1.67c.042-.146.076-.303.149-.437.27-.503 1.007-.594 1.389-.167.24.268.257.593.163.92l-.214.745-.168.586c.174-.1.347-.2.521-.298.407-.233.81-.473 1.22-.7.321-.176.727-.095.907.217.183.31.051.7-.265.887-.402.24-.814.466-1.22.7l-.521.298.595.149.756.188c.332.082.608.26.721.6.181.542-.267 1.13-.84 1.111-.154-.005-.308-.054-.456-.091l-1.696-.423-1.225-.305-.871.5 1.467.383 2.702.705c.217.057.409.16.536.352.291.44.06 1.045-.444 1.195-.284.084-.595-.039-.87-.11l-3.044-.795-1.548-.404c-.255-.067-.515-.123-.768-.198l-2.917 1.671a6435.818 6435.818 0 003.968-1.248.328.328 0 01.313.083l2.517 2.546.359.363a.342.342 0 01.063.091.352.352 0 01-.063.091l-.359.363-2.517 2.546a.328.328 0 01-.313.084l-.543-.171-3.425-1.077 2.917 1.671c.253-.075.514-.131.768-.198l1.548-.404 3.044-.795c.275-.072.586-.194.87-.11.504.15.735.756.444 1.195-.127.191-.319.295-.536.352l-2.702.705-1.467.384.871.5c.408-.103.817-.204 1.225-.306l1.696-.423c.148-.037.302-.087.456-.091.574-.02 1.022.569.84 1.111-.114.34-.389.517-.721.6l-.756.188-.595.149.521.298c.406.233.818.46 1.22.7.315.187.448.577.265.887-.18.312-.585.393-.907.216-.41-.226-.813-.466-1.22-.699-.174-.1-.347-.2-.521-.298l.168.586.214.744c.094.327.077.653-.163.92-.383.428-1.119.337-1.389-.166-.073-.135-.107-.291-.149-.437l-.479-1.67-.346-1.206-.872-.5.4 1.454.735 2.676c.059.215.065.431-.039.637-.237.47-.882.575-1.265.215-.214-.201-.263-.53-.338-.802l-.829-3.014-.422-1.533c-.069-.253-.15-.505-.211-.76l-2.917-1.671 2.652 2.405c.141.127.281.254.42.382a.317.317 0 01.084.31l-.962 3.438-.138.49a.343.343 0 01-.047.1.346.346 0 01-.111-.01l-.497-.126-3.479-.891a.325.325 0 01-.23-.228l-.122-.551-.772-3.483v3.343c.191.18.371.376.556.561l1.127 1.13 2.215 2.218c.2.2.463.407.532.692a.803.803 0 01-.82.98c-.231-.013-.418-.127-.575-.285l-1.967-1.97-1.068-1.07v1l.879.9c.406.415.811.83 1.216 1.247.107.109.227.216.308.346.303.484.015 1.163-.549 1.278-.354.072-.646-.076-.884-.32l-.543-.556-.427-.437v.597c0 .466.008.933 0 1.399-.006.364-.279.673-.642.671-.362.002-.636-.306-.642-.671-.008-.466 0-.933 0-1.4v-.596l-.426.437-.543.556c-.238.244-.531.392-.884.32-.564-.115-.853-.794-.549-1.278.081-.13.201-.237.307-.346l1.217-1.248.878-.9v-.999c-.356.357-.711.714-1.068 1.07l-1.966 1.97c-.158.158-.344.272-.575.285a.803.803 0 01-.82-.98c.068-.285.331-.492.531-.692l2.215-2.219 1.127-1.129c.186-.185.366-.381.557-.561v-3.343l-.773 3.483-.122.551a.322.322 0 01-.229.228l-3.48.89-.495.128a.352.352 0 01-.112.009.332.332 0 01-.047-.1 76.698 76.698 0 01-.137-.49l-.963-3.438a.322.322 0 01.084-.31l.42-.382 2.652-2.405-2.916 1.671c-.061.255-.142.507-.212.76l-.421 1.533-.828 3.014c-.075.272-.124.602-.339.803-.383.359-1.027.254-1.265-.216-.104-.205-.098-.422-.039-.637l.736-2.676.399-1.453-.872.5-.345 1.204-.48 1.67c-.042.147-.076.303-.148.438-.27.503-1.008.594-1.39.167-.239-.268-.256-.594-.163-.92a251.552 251.552 0 01.382-1.331l-.52.298c-.407.233-.81.474-1.221.7-.321.176-.726.095-.906-.217-.183-.311-.051-.7.264-.887.402-.24.814-.467 1.221-.7l.52-.298-.595-.149-.756-.188c-.332-.083-.608-.26-.721-.6-.181-.542.266-1.13.84-1.111.154.005.307.054.456.09l1.696.424 1.225.305.871-.5-1.467-.383-2.702-.705c-.217-.057-.409-.16-.536-.352-.291-.44-.06-1.046.444-1.195.283-.084.595.038.87.11l3.043.795 1.549.404c.254.067.515.123.768.198l2.917-1.671-3.425 1.077-.543.17a.328.328 0 01-.313-.083l-2.517-2.546-.359-.363a.309.309 0 01-.063-.09.329.329 0 01.063-.092l.359-.363 2.517-2.546a.328.328 0 01.313-.083l.543.17 3.425 1.078-2.917-1.671c-.253.075-.514.131-.768.198l-1.549.404-3.043.795c-.275.071-.587.194-.87.11-.504-.15-.735-.756-.444-1.195.127-.192.319-.295.536-.352l2.702-.706 1.467-.383-.871-.5-1.225.306-1.696.423c-.149.037-.302.086-.456.091-.574.02-1.021-.569-.84-1.111.113-.34.389-.518.721-.6l.756-.188.595-.149-.52-.299c-.407-.232-.819-.46-1.221-.699-.315-.188-.447-.577-.264-.887.179-.313.584-.393.906-.217.411.227.814.467 1.221.7l.52.298-.168-.586-.214-.745c-.093-.326-.077-.652.163-.92.383-.427 1.12-.336 1.39.167.072.134.106.291.148.437l.48 1.67c.115.402.231.803.345 1.205l.872.5-.399-1.453-.736-2.675c-.059-.215-.065-.432.039-.637.238-.47.882-.575 1.265-.216.215.201.264.532.339.803l.828 3.014.421 1.533c.07.252.151.504.212.76l2.916 1.67-2.652-2.404-.42-.382a.322.322 0 01-.084-.31l.963-3.438.137-.49a.329.329 0 01.047-.1.352.352 0 01.112.01l.495.126 3.48.891c.106.028.206.12.229.228l.122.552.773 3.483v-3.343c-.191-.18-.371-.376-.557-.562l-1.127-1.129-2.215-2.22c-.2-.2-.462-.406-.531-.691a.803.803 0 01.82-.98c.231.013.417.127.575.285l1.966 1.97c.357.356.712.713 1.068 1.07v-1l-.878-.9-1.217-1.247c-.106-.109-.226-.216-.307-.346-.304-.483-.015-1.163.549-1.278.353-.072.646.076.884.32l.543.556.426.437v-.597c0-.465-.008-.933 0-1.399.006-.364.28-.673.642-.671zm5.209 7.541l-.692.178-1.9.486-.249.064-.243 1.094-.313 1.412a.827.827 0 01.157-.08.797.797 0 01.871.232.786.786 0 01.176.384.79.79 0 011.062.593.79.79 0 01.008.174l1.075-.975.834-.756-.069-.246-.526-1.877a149.37 149.37 0 00-.191-.683zm-10.418 0l-.192.684-.525 1.877c-.023.082-.047.163-.069.245l.834.756 1.075.975a.795.795 0 01.008-.174.79.79 0 011.062-.592.8.8 0 01.176-.384.797.797 0 01.871-.233c.058.022.109.05.157.08a713.505 713.505 0 01-.556-2.506l-.249-.063-1.899-.486-.692-.178h-.001zm-5.209 8.956l.501.507 1.374 1.39c.061.06.121.121.18.182l1.077-.339 1.388-.436a.884.884 0 01-.149-.095.785.785 0 01.014-1.21.784.784 0 01-.014-1.21.847.847 0 01.149-.093l-1.388-.436-1.077-.338-.18.182-1.374 1.39-.501.506zm5.209 8.957l.692-.178 1.9-.486.248-.064a3222.751 3222.751 0 01.556-2.506.88.88 0 01-.156.08.8.8 0 01-.872-.233.807.807 0 01-.176-.383.792.792 0 01-1.062-.593.862.862 0 01-.008-.174l-1.075.975-.834.756.069.245.526 1.877.191.684h.001zm10.418 0l.191-.684.526-1.877.069-.245-.834-.756-1.075-.975a.795.795 0 01-.008.174.79.79 0 01-1.062.593.798.798 0 01-.176.383.797.797 0 01-.871.233.857.857 0 01-.157-.08 729.783 729.783 0 01.556 2.506l.249.064 1.9.486.692.178zm5.209-8.957l-.501-.506-1.374-1.39a15.373 15.373 0 01-.18-.182l-1.077.338-1.388.436a.883.883 0 01.149.094.785.785 0 01-.015 1.21.785.785 0 01.015 1.21.884.884 0 01-.149.094 1233.171 1233.171 0 012.465.775l.18-.182c.457-.464.916-.927 1.374-1.39l.501-.507zm-8.071-4.036l-1.033 1.054-.142.145-.295 1.329 1.012-.918.055-.195.403-1.416v.001zm-4.695 0l.403 1.416.055.195 1.013.917-.295-1.328a1018.043 1018.043 0 01-1.176-1.199zm-2.347 4.036l1.436.362.198.05 1.306-.412-1.306-.41-.198.049-1.436.361zm2.347 4.036c.345-.35.689-.703 1.034-1.054l.142-.145.295-1.328-1.013.918-.055.194-.403 1.415zm4.695 0l-.403-1.415-.055-.194-1.012-.918.295 1.328.142.145 1.033 1.054zm2.348-4.036l-1.437-.361-.197-.05-1.307.411 1.307.411.197-.05 1.437-.36z" fill="#fff"/><path d="M9.488 8c.213-.001.373.195.377.427.004.296 0 .594 0 .89v.38l.25-.278.32-.354c.14-.155.311-.25.519-.203.331.073.5.505.323.813-.048.083-.119.15-.181.22l-.715.794-.516.573v.636l.627-.681 1.156-1.254a.502.502 0 01.338-.181c.31-.02.553.3.481.623-.04.182-.194.314-.312.44l-1.301 1.413-.662.719c-.11.118-.215.242-.328.357v2.127l.454-2.216.072-.351a.198.198 0 01.135-.145 2670.793 2670.793 0 002.336-.648.188.188 0 01.065-.006.21.21 0 01.028.064l.08.311.567 2.188a.216.216 0 01-.05.198l-.246.242-1.559 1.531 1.714-1.064c.036-.162.083-.323.124-.483l.248-.976.487-1.917c.044-.174.073-.383.199-.511a.457.457 0 01.743.137c.061.13.058.268.023.405l-.432 1.703-.235.924.512-.318.204-.767.281-1.062c.025-.093.045-.193.087-.279a.491.491 0 01.817-.106c.14.17.15.378.096.586l-.126.474-.099.373.306-.19c.239-.148.476-.301.717-.445.189-.113.427-.061.533.138a.434.434 0 01-.156.564c-.236.153-.478.297-.717.445l-.306.19.35.095.444.12c.195.052.357.165.424.381.106.345-.157.72-.494.708-.09-.004-.18-.035-.268-.059l-.997-.269-.719-.194-.512.318.862.244 1.588.449c.127.036.24.102.315.224.17.28.035.665-.261.76-.167.054-.35-.024-.512-.07l-1.788-.506-.91-.257c-.15-.042-.302-.078-.45-.126l-1.714 1.064 2.012-.686.319-.109a.183.183 0 01.184.053l1.479 1.62.21.231a.206.206 0 01.037.058.211.211 0 01-.037.058l-.21.231-1.48 1.62a.183.183 0 01-.183.054l-.32-.11-2.011-.684 1.713 1.063c.149-.047.302-.084.452-.126l.91-.257 1.787-.506c.162-.045.345-.123.512-.07.296.095.431.481.26.76a.513.513 0 01-.314.224l-1.588.45-.862.243.512.318.72-.194.996-.27c.087-.023.178-.054.268-.057.337-.013.6.362.494.707-.067.216-.229.33-.424.382l-.444.12-.35.094.306.19c.24.148.481.292.717.445.185.12.263.367.156.565-.106.199-.344.25-.533.137-.241-.144-.478-.296-.717-.445l-.306-.19.099.373.126.474c.055.208.045.416-.096.586a.491.491 0 01-.817-.106c-.042-.086-.062-.186-.087-.278l-.282-1.063-.203-.767-.512-.318.235.925.432 1.703a.592.592 0 01-.023.405.457.457 0 01-.743.137c-.126-.128-.155-.338-.2-.51-.161-.64-.324-1.28-.486-1.919l-.248-.975c-.04-.16-.088-.321-.124-.484l-1.714-1.063 1.559 1.53.246.243a.216.216 0 01.05.198l-.566 2.188-.08.311a.223.223 0 01-.029.064.188.188 0 01-.065-.006l-.291-.08-2.045-.568a.198.198 0 01-.135-.145l-.072-.35-.454-2.217v2.127c.113.115.219.24.328.358l.662.718 1.301 1.412c.118.128.272.26.312.44.072.324-.171.643-.481.624a.502.502 0 01-.338-.181l-1.156-1.254-.627-.68v.635l.516.573.715.794c.062.07.133.137.18.22.179.308.01.74-.322.813-.208.046-.38-.048-.52-.203a207.696 207.696 0 00-.57-.632v.38c0 .296.005.593 0 .89-.003.232-.163.428-.376.427-.213.001-.374-.195-.378-.427-.004-.297 0-.594 0-.89v-.38l-.25.278-.32.354c-.14.155-.311.25-.518.203-.332-.073-.502-.505-.323-.813.048-.082.118-.15.18-.22l.715-.794c.173-.19.344-.382.516-.573v-.636l-.627.681-1.155 1.254a.502.502 0 01-.338.181c-.31.02-.554-.3-.482-.623.04-.182.195-.314.312-.44l1.302-1.413.662-.718c.109-.118.214-.243.327-.358V21.54l-.454 2.216-.072.351a.198.198 0 01-.135.145c-.681.19-1.363.378-2.044.567l-.291.081a.185.185 0 01-.066.006.21.21 0 01-.028-.064l-.08-.311-.566-2.188a.216.216 0 01.05-.198l.246-.242L7.23 20.37l-1.714 1.063c-.036.163-.084.323-.124.484l-.248.975-.487 1.918c-.043.173-.072.383-.198.511a.457.457 0 01-.744-.137.591.591 0 01-.023-.405l.433-1.703.234-.925-.512.318-.203.767-.282 1.063c-.025.092-.045.192-.087.278a.491.491 0 01-.817.106c-.14-.17-.15-.378-.095-.586l.125-.473.099-.373-.306.19c-.239.148-.475.3-.717.444-.188.113-.427.062-.532-.137a.434.434 0 01.155-.565c.236-.153.478-.297.717-.445l.306-.19-.35-.095-.444-.12c-.195-.052-.357-.165-.424-.381-.106-.345.157-.72.494-.707.09.003.18.034.268.058l.997.269.719.194.512-.318-.862-.244-1.588-.448a.512.512 0 01-.315-.225c-.17-.28-.035-.665.261-.76.166-.053.35.025.511.07l1.789.506.91.257c.15.043.302.079.45.126l1.715-1.064-2.013.686-.319.109a.182.182 0 01-.184-.053l-1.479-1.62-.21-.232a.205.205 0 01-.037-.058.213.213 0 01.037-.058l.21-.23 1.48-1.62a.183.183 0 01.183-.054l.32.109 2.012.686-1.714-1.064c-.149.048-.302.084-.452.126l-.91.257-1.788.506c-.161.046-.344.124-.51.07-.297-.095-.432-.48-.262-.76a.514.514 0 01.315-.224l1.588-.45.862-.243-.512-.318-.72.194-.996.27c-.087.023-.178.054-.268.058-.337.012-.6-.363-.494-.708.067-.216.229-.329.424-.381a731.057 731.057 0 00.794-.215l-.306-.19c-.239-.148-.48-.292-.717-.445a.434.434 0 01-.155-.564c.105-.2.343-.25.532-.138.242.144.478.297.717.445l.306.19-.099-.373-.125-.474c-.055-.208-.046-.415.095-.586a.491.491 0 01.817.106c.042.086.062.186.087.279l.282 1.063.203.766.512.318-.234-.924-.433-1.703a.59.59 0 01.023-.405.457.457 0 01.744-.137c.126.128.155.338.198.51l.487 1.918.248.976c.04.16.088.32.124.483L7.23 16.63 5.671 15.1l-.247-.243a.216.216 0 01-.049-.198l.566-2.188.08-.311a.219.219 0 01.028-.064.188.188 0 01.066.006l.29.08 2.045.568a.197.197 0 01.135.145l.072.35.454 2.217v-2.127c-.113-.115-.218-.24-.327-.357l-.662-.719-1.302-1.412c-.117-.128-.272-.26-.312-.44-.072-.324.171-.643.482-.624a.5.5 0 01.338.181l1.155 1.254.627.68v-.635l-.516-.573-.715-.794c-.062-.07-.132-.137-.18-.22-.179-.308-.009-.74.323-.813.207-.046.379.048.519.203l.319.354.25.278v-.38c0-.296-.004-.593 0-.89.004-.232.165-.428.378-.427zm3.06 4.8l-.407.112-1.116.31-.146.04a2802.843 2802.843 0 01-.327 1.595.485.485 0 01.092-.052.446.446 0 01.512.149.53.53 0 01.104.244.445.445 0 01.248-.026.485.485 0 01.38.514l.632-.62.49-.482-.04-.156-.31-1.194-.112-.435zm-6.121 0l-.113.434-.309 1.194-.04.157.49.48.631.621a.485.485 0 01.38-.513.448.448 0 01.25.025.536.536 0 01.103-.244.446.446 0 01.512-.148.503.503 0 01.092.05l-.184-.897-.143-.697-.146-.04-1.116-.31-.407-.113zm-3.06 5.698l.294.322.807.885.106.116.632-.215.816-.278a.507.507 0 01-.087-.06.527.527 0 01.008-.77.526.526 0 01-.008-.77.486.486 0 01.087-.06l-.816-.277-.632-.216c-.035.04-.07.078-.106.116l-.807.885-.295.322zm3.06 5.7l.407-.113 1.116-.31.146-.04.142-.697.184-.898a.503.503 0 01-.092.051.446.446 0 01-.512-.148.531.531 0 01-.103-.244.446.446 0 01-.249.025.485.485 0 01-.38-.513l-.631.62-.49.481.04.157.309 1.194.112.435zm6.121 0l.113-.435a1746.34 1746.34 0 01.349-1.35l-.49-.482-.631-.62a.485.485 0 01-.38.513.449.449 0 01-.25-.025.535.535 0 01-.103.244.446.446 0 01-.512.148.502.502 0 01-.092-.051l.184.898.143.697.146.04 1.116.31.407.113zm3.06-5.7l-.294-.322-.807-.885-.106-.116-.633.216-.815.278a.41.41 0 01.087.06.527.527 0 01-.008.769.527.527 0 01.009.77.504.504 0 01-.088.06l.816.278.632.215.106-.116.807-.885.295-.322zm-4.741-2.568l-.608.67-.083.093-.173.845.594-.584.033-.124.237-.9zm-2.76 0l.238.9.032.125.595.584-.173-.846-.084-.092-.607-.67v-.001zM6.73 18.498l.844.23.116.032.768-.262-.768-.261-.116.031-.844.23zm1.379 2.569l.607-.671.084-.092.173-.846-.595.584-.032.124-.237.9zm2.759 0c-.08-.3-.158-.6-.237-.901l-.033-.124-.594-.584.173.846.083.092.608.67zm1.379-2.569l-.844-.23-.116-.031-.768.261.768.262.116-.032.844-.23z" fill="#fff" fill-opacity=".5"/><path d="M186.037 0c.086-.008.158.068.159.16v.759l.173-.175c.04-.04.078-.088.137-.098a.146.146 0 01.154.08.156.156 0 01-.028.173L186.63.9l-.434.437v.542l.648-.652a.16.16 0 01.104-.054.149.149 0 01.153.174c-.01.062-.062.102-.103.144l-.452.454-.35.353v.592l.442-.452a505.422 505.422 0 01.793-.81c.086-.086.236-.045.251.084.012.098-.09.172-.151.235l-.749.765-.382.391c-.068.07-.133.143-.204.21v.71l.484-.161.105.508.024-.014.578-.34c.02-.096.05-.191.075-.286l.14-.534.274-1.046c.022-.085.034-.212.123-.25.116-.052.226.06.197.18l-.023.09-.267 1.017-.161.617.501-.296.123-.487.159-.627c.015-.057.024-.123.071-.163a.146.146 0 01.224.048c.018.039.016.08.006.12l-.229.9.46-.272.153-.602.001-.004c.019-.06.068-.107.133-.11a.147.147 0 01.144.096c.021.056-.001.114-.015.17l-.061.24.266-.156c.125-.074.25-.15.376-.223.079-.045.179-.019.215.061.05.072.022.174-.056.22-.125.076-.251.149-.377.223l-.266.157.235.066c.054.016.114.025.152.072.04.05.043.122.009.176a.147.147 0 01-.16.062h-.004l-.586-.167-.46.271.876.248c.04.011.075.03.099.065.051.08.016.19-.071.223-.058.022-.118-.004-.174-.02l-.61-.172-.474-.134-.502.296.604.165.994.273c.03.008.06.015.089.024.115.034.155.187.054.265-.078.06-.191.006-.274-.017l-1.023-.28-.523-.143c-.092-.025-.187-.046-.278-.076l-.578.341-.024.014.378.348-.378.348.024.014.578.341c.091-.03.186-.05.278-.076l.523-.143 1.023-.28c.083-.023.197-.076.274-.017.101.078.061.231-.054.265-.029.009-.059.016-.089.024l-.994.273-.604.165c.167.1.334.198.502.296l.474-.134.61-.172c.056-.016.116-.042.174-.02a.152.152 0 01.071.223.167.167 0 01-.099.065l-.876.248.46.27.586-.165.004-.001a.147.147 0 01.16.062.153.153 0 01-.009.176c-.038.047-.098.056-.152.072l-.235.066.266.157c.126.074.252.147.377.223.078.046.106.148.056.22-.036.08-.136.106-.215.06-.126-.072-.251-.148-.376-.222a62.561 62.561 0 01-.266-.157l.061.241c.014.056.036.114.015.17a.147.147 0 01-.144.096c-.065-.003-.114-.05-.133-.11l-.001-.004-.153-.602-.46-.272.229.9c.01.04.012.081-.006.12a.146.146 0 01-.224.048c-.048-.04-.056-.106-.071-.163l-.159-.627-.123-.487-.501-.296.161.617a8535.063 8535.063 0 01.29 1.108c.029.119-.081.231-.197.18-.089-.039-.101-.166-.123-.251a402.65 402.65 0 01-.274-1.046l-.14-.534c-.025-.095-.055-.19-.075-.285l-.578-.341-.024-.014-.105.508-.484-.16v.71c.071.065.136.14.204.208l.382.392.749.765c.061.062.163.137.151.235-.015.128-.165.17-.251.084a500.527 500.527 0 01-1.235-1.262V7.7l.35.353.452.454c.041.042.093.082.103.144a.149.149 0 01-.153.174.16.16 0 01-.104-.054l-.648-.652v.542l.434.437.002.002a.156.156 0 01.028.174.146.146 0 01-.154.08c-.059-.01-.096-.059-.137-.1l-.173-.174v.759c-.001.092-.073.168-.159.16-.086.008-.158-.068-.159-.16V9.08l-.173.175c-.04.04-.078.088-.137.098a.145.145 0 01-.153-.08.154.154 0 01.03-.175l.433-.437V8.12l-.647.652a.163.163 0 01-.105.054.149.149 0 01-.153-.174c.01-.062.062-.102.103-.144l.452-.454.35-.353v-.592l-.442.452a500.527 500.527 0 01-.793.81c-.086.085-.236.044-.251-.084-.011-.098.09-.173.151-.235l.749-.765.382-.392c.068-.069.133-.143.204-.208v-.71l-.483.16-.106-.508-.024.014-.578.34c-.02.096-.05.191-.075.286l-.14.534-.274 1.046c-.022.085-.034.212-.123.251-.116.051-.226-.061-.197-.18l.023-.091.267-1.017.161-.617-.501.296-.123.487-.16.627c-.014.057-.023.123-.07.163a.146.146 0 01-.224-.048.171.171 0 01-.006-.12l.229-.9-.46.272-.153.602-.001.003c-.019.061-.068.108-.133.111a.147.147 0 01-.144-.096c-.021-.056.001-.114.015-.17l.061-.24-.266.156c-.125.074-.25.15-.376.223-.079.045-.179.019-.215-.061-.05-.072-.022-.174.056-.22.125-.076.251-.149.377-.223l.266-.157-.235-.066c-.054-.016-.114-.025-.152-.072a.153.153 0 01-.009-.176.148.148 0 01.161-.062h.003l.586.167.46-.271-.876-.248a.162.162 0 01-.098-.065.152.152 0 01.071-.223c.057-.022.117.004.173.02l.611.172.474.134.501-.296-.604-.165-.994-.273-.089-.024c-.115-.034-.155-.187-.054-.265.078-.06.191-.006.275.017l1.022.28.523.143c.092.025.188.046.279.076l.578-.341.023-.014-.377-.348.377-.348-.023-.014-.578-.341c-.091.03-.187.05-.279.076l-.523.143-1.022.28c-.084.023-.197.076-.275.017-.101-.078-.061-.231.054-.265l.089-.024a826.537 826.537 0 001.598-.438c-.167-.1-.334-.198-.501-.296l-.474.134-.611.172c-.056.016-.116.042-.173.02a.152.152 0 01-.071-.223.162.162 0 01.098-.065l.876-.248-.46-.27-.586.165-.003.001a.148.148 0 01-.161-.062.153.153 0 01.009-.176c.038-.047.098-.056.152-.072l.235-.066a62.561 62.561 0 01-.266-.157c-.126-.074-.252-.147-.377-.223-.078-.046-.106-.148-.056-.22.036-.08.136-.106.215-.06.126.072.251.148.376.222l.266.157-.061-.241c-.014-.056-.036-.114-.015-.17.023-.06.081-.1.144-.097a.15.15 0 01.133.111l.001.004.153.602.46.271-.229-.899a.177.177 0 01.006-.12.146.146 0 01.224-.048c.047.04.056.106.07.163l.16.627.123.487.501.296-.161-.617-.267-1.017-.023-.09c-.029-.12.081-.232.197-.18.089.038.101.165.123.25l.274 1.046.14.534c.025.095.055.19.075.285l.578.341.024.014.106-.508.483.16v-.71c-.071-.066-.136-.14-.204-.209l-.382-.39-.749-.766c-.061-.063-.162-.137-.151-.235.015-.129.165-.17.251-.085l.065.067a505.422 505.422 0 011.17 1.196v-.592l-.35-.353-.452-.454c-.041-.042-.093-.082-.103-.144a.149.149 0 01.153-.174.164.164 0 01.105.054l.647.652v-.542L185.445.9l-.003-.002a.154.154 0 01-.027-.174.145.145 0 01.153-.08c.059.01.097.059.137.1l.173.174V.16c.001-.092.073-.168.159-.16zm.424 4.25l-.152.05-.023.007.079.112.135.015-.005-.025-.034-.16zm.425.75l-.119-.109a.325.325 0 00-.019-.017 6.876 6.876 0 01-.055.126l.055.127a.325.325 0 00.019-.017l.119-.11zm-.425.752l.034-.16.005-.025-.135.014-.079.112a.61.61 0 01.023.008l.152.05zm-.848 0l.152-.05.024-.009-.08-.112-.134-.014.005.025.033.16zM185.189 5l.118.11.019.017.055-.127-.055-.126-.019.017-.118.11zm.424-.75l-.033.159-.006.025.135-.015.079-.112-.023-.008a27.171 27.171 0 01-.152-.05zm.593.452l-.142-.2-.014-.02-.013.019a.204.204 0 00-.013-.019l-.014.02-.142.2a181.776 181.776 0 01-.263.028l.009.02-.022.003.01.022.098.225-.098.226-.01.022a.6.6 0 00.022.002l-.009.02.023.003.24.026.142.2.014.019a.204.204 0 00.013-.018l.013.018.014-.02.142-.2.24-.025c.008 0 .016-.002.023-.003l-.008-.02.021-.002-.009-.022-.099-.226.099-.225.009-.022-.021-.003a.171.171 0 01.008-.02.625.625 0 00-.023-.002l-.24-.026z" fill="#fff"/><path d="M83.799 3c.106 0 .186.102.188.224.002.155 0 .31 0 .466v.199l.126-.146.159-.185c.07-.081.156-.13.26-.107.165.039.25.265.161.426-.024.044-.06.08-.09.116l-.358.416-.258.3v.333l.314-.357.578-.657a.248.248 0 01.168-.095c.156-.01.277.157.241.327-.02.095-.097.164-.156.23l-.65.74-.332.377c-.054.062-.107.127-.163.187v1.114l.227-1.16.036-.185a.102.102 0 01.067-.076 1717.829 1717.829 0 001.168-.339.09.09 0 01.033-.003c.006.01.01.021.014.034l.04.163.283 1.146a.117.117 0 01-.025.103l-.123.127-.78.802.858-.557c.018-.085.041-.17.062-.253l.124-.512.243-1.004c.022-.09.037-.2.1-.268.112-.12.301-.084.371.072.03.069.03.14.012.212l-.216.892-.118.485.256-.167a295.165 295.165 0 00.243-.958c.012-.049.022-.101.043-.146.08-.168.296-.198.409-.056.07.09.075.198.048.307l-.063.248-.05.196.153-.1c.12-.077.238-.157.359-.233a.182.182 0 01.266.072.233.233 0 01-.078.296c-.118.08-.239.155-.358.233l-.153.1.175.05.222.062a.285.285 0 01.212.2c.053.18-.079.377-.247.37-.045-.001-.09-.018-.134-.03l-.499-.141-.36-.102-.255.167.43.127.794.236a.26.26 0 01.158.117c.085.147.018.348-.13.398-.084.028-.175-.013-.256-.036l-.894-.265-.455-.135c-.075-.022-.151-.041-.226-.066l-.857.557 1.007-.36.159-.056c.031-.011.07.002.092.028l.74.848.105.121a.12.12 0 01.018.03.11.11 0 01-.018.031l-.105.121-.74.849c-.022.025-.06.039-.092.028a8840.344 8840.344 0 00-1.166-.416c.286.185.572.37.857.557.075-.025.151-.044.226-.066l.455-.135.894-.265c.08-.024.172-.065.255-.037.149.05.216.252.131.399a.257.257 0 01-.157.117l-.794.235-.431.128.256.166.36-.101.498-.141c.043-.013.089-.03.134-.03.168-.007.3.189.246.37a.285.285 0 01-.211.2l-.222.062-.175.05.153.1c.12.077.24.152.358.233a.234.234 0 01.078.295.182.182 0 01-.266.072c-.12-.075-.24-.155-.359-.233a49.908 49.908 0 00-.153-.099l.05.195c.02.083.041.166.063.248.027.11.022.218-.048.307-.113.143-.33.112-.409-.055-.02-.045-.03-.097-.043-.146l-.141-.557-.102-.402-.256-.166.118.484.216.892a.323.323 0 01-.012.213c-.07.156-.259.191-.371.071-.063-.067-.078-.177-.1-.267l-.243-1.005-.124-.51c-.02-.085-.044-.169-.062-.254l-.857-.557.779.802.123.127a.117.117 0 01.025.103l-.283 1.146-.04.164a.121.121 0 01-.014.033.09.09 0 01-.033-.003 275.19 275.19 0 01-1.168-.34.102.102 0 01-.067-.075l-.036-.184-.227-1.161v1.114c.056.06.109.126.163.188l.332.376.65.74c.06.066.136.135.156.23.036.17-.085.337-.24.327a.247.247 0 01-.17-.095l-.577-.657-.314-.356v.332l.258.3.358.416c.03.037.066.072.09.116.09.16.004.387-.161.426-.104.024-.19-.026-.26-.107l-.16-.185-.125-.146v.199c0 .155.002.31 0 .466-.002.122-.082.225-.188.224-.107 0-.187-.102-.19-.224v-.665a189.01 189.01 0 00-.284.331c-.07.081-.156.13-.26.107-.165-.039-.25-.265-.161-.426.024-.044.06-.08.09-.116l.358-.416.258-.3v-.332l-.314.356-.578.657a.246.246 0 01-.169.095c-.155.01-.276-.157-.24-.327.02-.095.097-.164.156-.23l.65-.74.332-.377c.054-.062.107-.127.163-.187v-1.114a1584.387 1584.387 0 01-.263 1.345.102.102 0 01-.067.075l-1.022.298-.146.042a.09.09 0 01-.033.003.117.117 0 01-.014-.033l-.04-.164-.283-1.146a.117.117 0 01.025-.103l.123-.127.78-.802-.857.557c-.018.085-.042.17-.062.253l-.124.511-.244 1.005c-.022.09-.036.2-.1.268-.112.12-.3.084-.37-.072a.324.324 0 01-.012-.213l.216-.892c.04-.161.078-.323.117-.484l-.256.166-.101.402-.141.557c-.013.049-.023.1-.044.146-.08.167-.296.198-.408.055-.07-.09-.076-.198-.048-.307l.063-.248.05-.195-.154.1c-.12.077-.237.157-.358.232a.182.182 0 01-.267-.072.233.233 0 01.078-.295c.118-.08.24-.156.359-.234l.153-.1-.175-.049-.222-.062a.285.285 0 01-.212-.2c-.053-.181.078-.377.247-.37.045.001.09.017.134.03l.498.14.36.102.256-.166-.431-.128-.794-.235a.257.257 0 01-.158-.117c-.085-.147-.017-.35.13-.399.084-.028.176.013.256.037l.895.265.454.135c.075.022.152.04.226.066l.857-.557-1.006.359-.16.057c-.03.01-.07-.003-.092-.028l-.74-.85-.105-.12a.107.107 0 01-.018-.03.112.112 0 01.019-.03l.105-.122.74-.848c.022-.026.06-.04.091-.028l.16.057 1.006.359-.857-.557c-.074.025-.15.044-.226.066l-.454.135-.895.265c-.08.023-.172.064-.255.036-.148-.05-.216-.252-.13-.398a.258.258 0 01.157-.117l.794-.236.43-.127-.255-.167a241.93 241.93 0 00-.858.243c-.044.012-.09.029-.134.03-.169.007-.3-.19-.247-.37a.286.286 0 01.212-.2l.222-.063.175-.05-.153-.099c-.12-.077-.24-.153-.359-.233a.234.234 0 01-.078-.296.182.182 0 01.267-.072c.12.076.239.156.358.233l.153.1-.05-.196c-.02-.082-.04-.165-.062-.248-.028-.109-.023-.217.048-.307.112-.142.329-.112.408.056.021.045.031.097.044.146l.14.556.102.402.256.167-.117-.485-.216-.892a.323.323 0 01.011-.212c.07-.156.26-.191.372-.072.063.067.077.178.1.268.08.335.162.67.243 1.004l.124.512c.02.084.044.168.062.253l.856.557-.779-.802-.123-.127a.117.117 0 01-.025-.103l.283-1.146.04-.163a.118.118 0 01.014-.034.09.09 0 01.033.003l.146.042c.34.1.681.199 1.022.297.031.01.06.04.067.076l.036.184.227 1.161V5.794c-.056-.06-.109-.125-.163-.187l-.332-.377-.65-.74c-.059-.066-.136-.135-.156-.23-.036-.17.085-.337.24-.327a.256.256 0 01.17.095l.577.657.314.357v-.334a344.073 344.073 0 00-.616-.715c-.03-.037-.066-.072-.09-.116-.09-.16-.004-.387.161-.426.104-.024.19.026.26.107l.16.185.125.146V3.69c0-.155-.002-.31 0-.466.002-.122.082-.225.189-.224zm1.53 2.514l-.204.059-.558.162-.073.021-.071.365-.092.47a.24.24 0 01.046-.026c.088-.039.196-.004.256.077a.283.283 0 01.052.128.213.213 0 01.124-.013.25.25 0 01.188.21c.002.021.003.04.002.059l.316-.325.245-.252a16.202 16.202 0 01-.02-.082l-.155-.625-.056-.228zm-3.06 0l-.057.228-.155.625-.02.082.245.252.316.325a.38.38 0 01.002-.058c.015-.105.096-.194.188-.21a.215.215 0 01.124.013.289.289 0 01.052-.128c.06-.082.168-.117.256-.078a.249.249 0 01.046.027l-.092-.47-.071-.366-.073-.02-.558-.163-.204-.059zm-1.531 2.985l.147.169.404.463.053.061.316-.113.408-.145a.254.254 0 01-.044-.032.285.285 0 01.004-.403.285.285 0 01-.004-.403.244.244 0 01.044-.032l-.408-.145-.316-.113-.053.06-.404.464-.147.17zm1.53 2.986l.204-.06.558-.162.073-.021.07-.365.093-.47a.25.25 0 01-.046.026c-.088.04-.197.004-.256-.077a.287.287 0 01-.052-.128.212.212 0 01-.124.013.25.25 0 01-.188-.21.329.329 0 01-.002-.059l-.316.325-.245.252.02.082.155.626.056.228zm3.06 0l.057-.228.154-.626.02-.082-.244-.252-.316-.325a.32.32 0 01-.002.058c-.015.105-.096.194-.188.211a.214.214 0 01-.124-.013.287.287 0 01-.052.128c-.06.081-.168.116-.256.077a.252.252 0 01-.046-.026l.092.47.071.365.073.021.558.162.204.06zm1.531-2.986l-.147-.169-.404-.463-.053-.06-.316.112-.408.145c.015.01.03.02.044.032a.285.285 0 01-.004.403.285.285 0 01.004.403.253.253 0 01-.044.032l.408.145.316.113.053-.06.404-.464.147-.169zm-2.371-1.345a949.945 949.945 0 00-.345.4c-.03.147-.058.295-.087.442l.297-.306.017-.065.118-.472zm-1.38 0l.12.472.015.065.298.305c-.03-.147-.058-.295-.087-.442a496.21 496.21 0 01-.345-.4zm-.689 1.345l.422.12.058.017.384-.137-.384-.137-.058.017-.422.12zm.69 1.345a474.772 474.772 0 00.345-.4l.087-.442-.298.306-.016.065-.118.472zm1.379 0l-.118-.471-.017-.065-.297-.306.087.443.041.048.304.351zm.69-1.345l-.422-.12-.058-.017-.384.137.384.137.058-.016.422-.12z" fill="#fff" fill-opacity=".4"/></svg>