<svg width="98" height="91" viewBox="0 0 98 91" fill="none" xmlns="http://www.w3.org/2000/svg">
<path d="M18.8424 53.5956C17.4426 53.2845 16.011 53.2908 14.5942 53.1491C12.5963 52.948 10.5963 52.7766 8.5942 52.6031C8.30999 52.5777 8.02367 52.5989 7.63767 52.5989C10.3927 61.7427 16.4013 68.1228 24.2995 72.9963C22.8912 72.6577 21.6123 72.0377 20.344 71.4177C16.3397 69.4624 12.5942 67.105 9.32803 64.0535C5.83278 60.7904 2.96319 57.0766 1.36403 52.5142C-1.01987 45.7087 -0.233015 39.1974 3.36404 33.0034C6.20818 28.1046 10.31 24.4352 14.9972 21.3605C17.1817 19.9278 19.4744 18.6793 21.8838 17.6784C22.8933 17.2594 23.8456 16.6499 25.0249 16.6076C24.2444 17.0922 23.4533 17.5641 22.6834 18.0656C16.3525 22.1921 11.3938 27.4973 8.58783 34.6032C6.6769 39.4407 6.11274 44.4433 7.00776 49.5855C7.30681 51.3059 7.30893 51.2509 9.05867 51.071C11.7925 50.7938 14.5327 50.5864 17.2729 50.3769C17.8201 50.3346 18.045 50.269 17.941 49.5982C17.4808 46.5869 17.3811 43.5587 17.8053 40.5305C17.9707 39.3455 17.9707 39.3624 16.7448 39.2757C15.7798 39.208 14.8169 39.0916 13.8604 38.8334C15.0799 38.7212 16.2952 38.5795 17.5168 38.5096C17.975 38.4842 18.1192 38.3551 18.2146 37.8981C19.6059 31.1285 22.7343 25.2774 27.7078 20.4548C32.9167 15.4035 39.1246 12.3584 46.3421 11.3744C48.8193 11.0358 51.2965 10.9935 53.778 11.2369C54.3167 11.2898 54.6115 11.2094 54.6518 10.5872C54.7387 9.27309 54.9042 7.9632 54.9954 6.64908C55.0696 5.56774 55.0272 5.52965 53.9689 5.42807C51.0675 5.15086 48.1533 5.09796 45.2498 5.27148C40.3908 5.56351 35.6145 6.3761 30.9719 7.89337C22.9336 10.5237 15.835 14.6862 9.96854 20.8082C5.58039 25.3854 2.63445 30.8048 0.859252 36.8717C0.840163 36.9352 0.782899 36.986 0.59838 37.0199C0.662007 36.7278 0.725634 36.4358 0.791382 36.1459C0.861372 35.8391 0.939846 35.5322 1.01196 35.2254C2.13392 30.4641 3.67157 25.8721 6.42875 21.7646C8.52209 18.6476 11.0799 15.9305 13.7777 13.3509C17.9156 9.39583 22.6982 6.39092 27.9453 4.11395C33.2243 1.82429 38.7514 0.567309 44.4863 0.137733C48.1427 -0.135248 51.7758 0.0128813 55.409 0.446689C55.7759 0.491128 55.9243 0.607516 55.9561 0.954562C56.2191 3.73728 56.4885 6.51788 56.7536 9.3006C56.7812 9.5884 56.8003 9.87831 56.8427 10.1661C57.0675 11.6897 57.076 11.658 58.5479 12.041C59.9095 12.3965 61.2181 12.898 62.5394 13.3953C71.6466 16.8235 77.6891 23.2756 81.4537 32.0639C82.1048 33.5854 82.3954 35.2127 82.9086 36.7765C83.0825 37.3034 83.2967 37.496 83.8142 37.5383C86.0539 37.7182 88.2915 37.9002 90.5248 38.1393C91.0805 38.1986 91.0656 37.8663 90.9808 37.6082C89.5089 33.141 87.4346 29.0018 84.3084 25.4298C82.3339 23.174 80.1324 21.1806 77.7315 19.384C76.7516 18.6497 75.6678 18.0868 74.6434 17.3567C75.1185 17.088 75.4961 17.3525 75.8354 17.5408C77.4367 18.4338 79.1652 19.0539 80.7559 19.9786C86.056 23.0576 90.7114 26.8476 94.0413 32.047C97.9098 38.0885 99.0614 44.5766 96.9702 51.545C96.2831 53.8347 96.0285 56.228 95.3689 58.5325C94.3488 62.1003 92.9638 65.4861 90.8535 68.5651C88.5884 71.8705 86.0518 74.9664 83.1059 77.6624C76.0454 84.1272 67.7696 88.2875 58.34 90.0926C53.8777 90.9454 49.3707 91.1485 44.8405 90.903C44.5775 90.8882 44.3166 90.812 44.0557 90.8057C43.6846 90.7994 43.6379 90.6047 43.6591 90.2915C43.7525 88.9752 43.8352 87.6611 43.9052 86.3428C43.9349 85.7947 44.0854 85.6508 44.7175 85.7164C47.8352 86.0486 50.9593 85.8391 54.0601 85.4984C57.9986 85.0646 61.8714 84.2542 65.6444 83.0204C71.9796 80.9487 77.7442 77.8274 82.8832 73.5825C87.967 69.3819 91.9649 64.3519 94.476 58.2172C94.703 57.6628 95.0232 57.1062 94.9639 56.4248C90.2682 64.153 83.2777 69.001 75.1291 72.4059C77.4621 70.8823 79.6615 69.1851 81.6849 67.2552C87.0698 62.1194 90.6096 55.9974 91.6298 48.5613C92.037 45.5902 91.9119 42.6149 91.3625 39.6608C91.2947 39.2926 91.1695 39.0979 90.7475 39.1445C88.5693 39.3836 86.389 39.6206 84.2066 39.8237C83.6615 39.8745 83.5067 40.0713 83.5788 40.611C84.0454 44.0687 83.8376 47.5053 83.2437 50.9313C83.2119 51.1155 82.9489 51.3927 83.3583 51.5069C83.4834 51.5429 83.5682 51.6254 83.3922 51.6783C82.8132 51.8561 82.9107 52.3999 82.8089 52.7935C80.9277 60.0858 77.0613 66.1104 71.1821 70.8188C66.9297 74.2258 62.1004 76.435 56.7282 77.4423C52.866 78.166 48.9996 78.166 45.1332 77.5037C44.4884 77.3936 44.4333 77.6941 44.3887 78.1681C44.0176 82.1846 43.6379 86.1989 43.2562 90.2153C43.235 90.4375 43.3283 90.7062 42.9868 90.8734C42.675 89.2461 42.6369 87.6061 42.4714 85.983C42.1724 83.0458 41.9115 80.1044 41.6718 77.1609C41.6315 76.6741 41.3113 76.6318 41.0016 76.5366C37.9497 75.6076 35.097 74.2575 32.4565 72.4715C26.0917 68.1694 21.7014 62.3691 19.2411 55.1065C19.1669 54.8843 19.133 54.6473 19.08 54.4187C19.326 54.3637 19.6293 54.6282 19.729 55.062C20.2974 57.4914 21.5381 59.6287 22.7746 61.7363C23.9835 63.7953 25.5042 65.6554 27.133 67.4139C27.8054 68.1398 28.5816 68.7492 29.3154 69.4073C30.5116 70.4781 31.7396 71.4981 33.1204 72.317C34.272 72.9984 35.4491 73.6184 36.6729 74.1877C37.9984 74.8035 39.3134 75.4426 40.6856 75.9568C41.1925 76.1472 41.4661 76.0139 41.3431 75.4193C41.4449 75.36 41.4788 75.2711 41.4682 75.1569C41.3007 73.3751 41.1374 71.5912 40.9677 69.8094C40.6687 66.6373 40.4142 63.461 40.0472 60.2974C39.8585 58.6616 40.2296 56.8248 38.6029 55.5911C38.3229 55.3774 38.1002 55.1721 37.7312 55.1403C33.8118 54.8166 29.8902 54.5076 25.975 54.1373C24.5095 53.9997 23.027 53.9934 21.5805 53.6696C20.6664 53.549 19.748 53.5934 18.8318 53.5934L18.8424 53.5956ZM55.5277 75.7621C55.2456 72.8016 54.9657 69.8433 54.6794 66.8828C54.5012 65.0502 54.3167 63.2176 54.13 61.3851C54.0982 61.0803 54.13 60.7439 53.5998 60.8666C51.2711 61.402 48.9381 61.33 46.6305 60.7481C46.1427 60.6254 46.0133 60.7777 45.9773 61.1988C45.8119 63.0589 45.6507 64.9211 45.4725 66.7812C45.2053 69.5576 44.9211 72.3318 44.6454 75.1082C44.4905 75.4129 44.6199 75.7303 44.6072 76.0414C44.5711 76.89 44.8044 77.2011 45.6231 77.2667C46.779 77.3577 47.937 77.4296 49.0971 77.474C50.813 77.5396 52.5224 77.4931 54.2382 77.3386C55.6359 77.2116 55.6444 77.2963 55.5617 75.9949C55.5574 75.9166 55.5404 75.8383 55.532 75.7621H55.5277ZM19.046 39.4175C18.484 39.2058 18.2719 39.5381 18.2061 40.0015C18.1552 40.3655 18.1871 40.7379 18.1722 41.1082C18.1001 42.8773 17.941 44.6485 17.9771 46.4155C18.0004 47.5942 18.2867 48.7708 18.4797 49.9452C18.5518 50.3896 18.8361 50.2055 19.0736 50.0849C19.1966 50.1145 19.3239 50.178 19.4426 50.1674C24.5922 49.7146 29.7396 49.2448 34.8892 48.8131C35.4003 48.7708 35.3621 48.5443 35.3091 48.2121C34.9507 45.9076 35.1564 43.6455 35.8563 41.4299C35.9772 41.049 35.9115 40.9178 35.5064 40.8839C32.325 40.6215 29.1458 40.3549 25.9665 40.0713C23.6569 39.8661 21.3493 39.6354 19.0397 39.4153L19.046 39.4175ZM81.7612 51.3271C82.4802 51.5069 82.7135 51.1557 82.8174 50.4891C83.3286 47.2725 83.441 44.0539 83.1207 40.8056C83.0401 39.9867 82.8344 39.8576 82.1578 40.12C81.8418 40.12 81.5258 40.0988 81.2119 40.1306C78.7156 40.3761 76.2214 40.6321 73.7251 40.8839C71.0718 41.1527 68.4207 41.4257 65.7675 41.6881C65.2966 41.7346 65.0718 41.8235 65.2224 42.416C65.7971 44.6718 65.8226 46.9572 65.3051 49.2257C65.163 49.8437 65.3263 50.0235 65.8905 50.0278C66.1026 50.0278 66.3125 50.0426 66.5246 50.0595C69.3391 50.3029 72.1535 50.5547 74.9701 50.7896C77.2331 50.9779 79.4961 51.1493 81.7591 51.3271H81.7612ZM54.3612 12.5721C54.5797 11.914 54.4312 11.5797 53.655 11.7066C53.375 11.7532 53.076 11.6897 52.7875 11.6686C49.8034 11.44 46.8553 11.6389 43.9242 12.2738C43.2859 12.4113 43.1459 12.6547 43.2328 13.2006C43.254 13.5688 43.2646 13.9392 43.3007 14.3053C43.71 18.6349 44.1215 22.9645 44.5329 27.292C44.6581 28.604 44.7938 29.9139 44.9211 31.2259C44.9529 31.5602 45.0271 31.7824 45.4534 31.6301C47.6528 30.8365 49.9137 30.5847 52.234 30.8894C52.603 30.9381 52.7621 30.8154 52.779 30.4323C52.8087 29.7785 52.8745 29.1246 52.936 28.4728C53.2393 25.2711 53.5723 22.0736 53.8458 18.8698C54.0261 16.7706 54.3315 14.6819 54.3633 12.57L54.3612 12.5721ZM46.6008 55.2758C46.3781 56.4693 46.3718 57.6818 46.2297 58.8817C46.1767 59.3366 46.3294 59.4763 46.7323 59.5779C48.9126 60.1281 51.0929 60.1894 53.305 59.7705C53.8946 59.6583 53.954 59.4192 53.8989 58.9325C53.7716 57.7834 53.621 56.6301 53.5892 55.4768C53.568 54.7467 53.3305 54.6177 52.639 54.7002C50.6263 54.9414 48.603 55.1001 46.5817 55.2906C46.5181 55.0303 46.7429 54.9224 46.8681 54.7721C47.8797 53.5702 48.0791 52.2053 47.7758 50.7049C47.5955 49.8204 47.0695 49.1178 46.5775 48.3349C48.5648 48.4957 50.4609 48.6375 52.3527 48.811C52.8214 48.8533 52.9466 48.7306 52.8957 48.2565C52.7154 46.606 52.5775 44.9511 52.4185 43.2984C52.4015 43.1292 52.27 42.962 52.4842 42.816C52.7239 42.653 52.8172 42.8795 52.9423 42.9789C53.7228 43.582 54.603 43.8275 55.5871 43.8761C57.0166 43.946 58.2001 43.4466 59.2838 42.3716C59.2838 42.78 59.3051 43.036 59.2796 43.2879C59.1015 45.0972 58.9339 46.9086 58.7197 48.7136C58.6603 49.2152 58.7176 49.4098 59.2881 49.4374C60.6603 49.5008 62.0304 49.6172 63.3942 49.7823C63.8947 49.8415 64.0283 49.6744 64.128 49.2448C64.5755 47.2916 64.6519 45.3384 64.2447 43.3662C63.9223 41.7981 63.9477 41.8277 62.3634 42.0457C61.4196 42.1748 60.4673 42.3377 59.3348 42.2869C60.4143 41.2098 60.6964 39.9994 60.7176 38.6662C60.7388 37.3098 59.6974 36.3893 59.409 35.1725C57.0399 33.9028 54.673 33.1727 52.2806 35.3947C52.3676 34.3493 52.3951 33.4817 52.5245 32.6289C52.5924 32.1866 52.4673 32.0427 52.0706 32.0216C49.8967 31.8988 47.7504 31.9729 45.6761 32.7707C45.2074 32.9505 45.0801 33.1537 45.1459 33.6214C45.2371 34.2731 45.2859 34.9334 45.3134 35.5915C45.3283 35.9703 45.4301 36.074 45.8331 36.0274C47.0653 35.8835 48.3039 35.7587 49.5425 35.6973C50.3866 35.655 51.2286 35.4433 52.1279 35.5428C50.5181 37.8303 50.3442 40.0502 52.1894 42.3716C50.2912 42.2108 48.5096 42.0944 46.7408 41.8891C46.113 41.8172 45.867 41.8976 45.9667 42.5747C46.0876 43.381 46.1851 44.1957 46.2254 45.0104C46.2763 46.0452 46.516 47.0715 46.429 48.1952C44.1279 46.4578 41.8945 46.3838 39.5955 48.2989C39.8012 46.17 39.9772 44.1618 40.1999 42.1621C40.2636 41.595 40.2063 41.2648 39.5276 41.2585C38.8956 41.2521 38.2635 41.1738 37.6336 41.0955C37.2519 41.049 37.1416 41.2352 37.0377 41.5569C36.3569 43.673 36.132 45.823 36.4417 48.0301C36.5096 48.5147 36.7132 48.7031 37.2158 48.6353C37.9263 48.5422 38.6411 48.3878 39.4152 48.5359C39.3304 48.6544 39.2922 48.7179 39.2434 48.7729C37.8903 50.3769 37.8139 53.3734 39.3495 54.9541C41.2052 56.8629 43.551 57.2776 45.6952 55.9424C46.0176 55.7413 46.1364 55.2758 46.5987 55.2821L46.6008 55.2758ZM42.9189 13.3276C42.9741 12.6547 42.5478 12.5404 42.0642 12.7097C41.1077 13.0462 40.1003 13.2112 39.1628 13.6196C37.1352 14.5042 35.1288 15.4226 33.2837 16.6584C31.8839 17.5959 30.5307 18.5799 29.2497 19.6908C26.9103 21.7223 24.957 24.0543 23.2878 26.6402C22.045 28.5659 20.9485 30.5805 20.1616 32.7368C19.5635 34.3768 19.0121 36.0401 18.7555 37.7817C18.694 38.1964 18.7364 38.4144 19.2157 38.3001C21.0121 38.2472 22.7915 38.0208 24.5795 37.8663C28.448 37.532 32.3144 37.1638 36.1893 36.9119C37.6676 36.8146 38.8935 36.4739 39.7249 35.1619C39.8988 34.8847 40.219 34.6964 40.4884 34.4847C40.8192 34.2245 40.9974 33.9091 41.0313 33.4796C41.1183 32.3771 41.2349 31.2746 41.3389 30.1742C41.867 24.5601 42.393 18.9438 42.9211 13.3297L42.9189 13.3276ZM57.3029 13.1012C57.0208 13.2726 57.1714 13.5286 57.1905 13.7445C57.498 17.0668 57.8183 20.387 58.1301 23.7073C58.4164 26.7503 58.6942 29.7954 58.9742 32.8405C58.9996 33.1304 58.9996 33.4055 59.2648 33.6192C60.5776 34.6815 61.7653 35.7438 63.7102 35.7862C66.9785 35.8581 70.2383 36.2983 73.5003 36.5924C76.0242 36.821 78.5459 37.0643 81.0677 37.3013C81.3837 37.3288 81.6976 37.3479 82.0136 37.3817C82.4611 37.4304 82.6244 37.1574 82.5078 36.8146C81.7845 34.7175 81.3222 32.54 80.2893 30.536C79.0401 28.1131 77.7124 25.7536 75.9563 23.6607C74.9022 22.4058 73.8778 21.0854 72.6307 20.0442C70.0071 17.854 67.2797 15.812 64.0665 14.4513C62.0856 13.6112 60.0537 12.9954 58.0092 12.3838C57.2669 12.1616 57.1036 12.3669 57.305 13.0991L57.3029 13.1012ZM81.6 51.9746C79.4855 51.9534 77.4027 52.3174 75.3052 52.4952C71.7314 52.802 68.1683 53.2083 64.5967 53.5278C63.9329 53.5871 63.5129 53.7903 63.1312 54.3658C61.9647 56.1201 60.5458 57.6226 58.6667 58.6828C58.181 58.9557 57.6253 59.3261 57.5744 60.1471C57.4238 62.5362 57.1481 64.9169 56.9084 67.2997C56.6264 70.1162 56.3358 72.9286 56.0473 75.7452C56.0389 75.851 56.0304 75.9547 56.0177 76.0605C55.9074 77.0064 55.9986 77.1609 56.8809 76.9556C57.6889 76.7673 58.5012 76.5683 59.3072 76.3631C62.9021 75.4489 66.1556 73.7835 69.2118 71.7732C71.25 70.4337 73.0825 68.7725 74.7071 66.9293C76.741 64.6206 78.5099 62.1299 79.8588 59.3515C80.9065 57.1951 81.8418 55.0007 82.3232 52.637C82.5035 51.7524 82.4993 51.7397 81.5958 51.9767L81.6 51.9746ZM62.1068 53.8537C60.7685 53.8537 59.6062 54.0336 58.4397 54.1754C58.3294 54.1881 58.2128 54.2071 58.2001 54.3278C58.0792 55.4789 57.9668 56.6322 57.8331 57.9612C59.6147 56.8396 60.9382 55.5636 62.1068 53.8537Z" fill="#707070"/>
<path d="M18.8423 53.5956C19.7585 53.5956 20.6769 53.5512 21.591 53.6718C21.2495 53.6676 20.8911 53.7268 20.5666 53.6464C19.8412 53.4708 19.9324 53.8051 20.0851 54.2813C21.0989 57.4576 22.5369 60.4244 24.469 63.1458C28.7151 69.1281 34.3525 73.2059 41.3515 75.4215C41.4745 76.0161 41.2009 76.1494 40.694 75.959C39.3218 75.4448 38.0068 74.8057 36.6812 74.1899C35.4575 73.6228 34.2804 73.0006 33.1287 72.3192C31.7459 71.5024 30.52 70.4824 29.3238 69.4095C28.59 68.7514 27.8137 68.142 27.1414 67.4161C25.5125 65.6576 23.9918 63.7975 22.7829 61.7385C21.5443 59.6287 20.3036 57.4914 19.7373 55.0642C19.6355 54.6304 19.3322 54.368 19.0883 54.4209C19.0077 54.1458 18.9271 53.8686 18.8465 53.5935L18.8423 53.5956Z" fill="#707070"/>
<path d="M74.3129 17.0944L74.2705 17.0923L74.2917 17.1642L74.3129 17.0944Z" fill="#707070"/>
<path d="M81.0678 37.3033C81.7592 37.4155 81.5535 36.9563 81.4707 36.6325C80.8981 34.4084 80.1473 32.2436 79.0911 30.2016C74.4357 21.2038 67.2034 15.4584 57.303 13.1032C57.0994 12.371 57.2648 12.1657 58.005 12.3879C60.0496 12.9995 62.0814 13.6153 64.0623 14.4554C67.2755 15.8161 70.003 17.8581 72.6266 20.0483C73.8737 21.0895 74.9002 22.41 75.9521 23.6648C77.7061 25.7556 79.0359 28.1151 80.2852 30.5401C81.318 32.5462 81.7804 34.7216 82.5036 36.8187C82.6224 37.1615 82.457 37.4366 82.0095 37.3858C81.6956 37.352 81.3795 37.3308 81.0635 37.3054L81.0678 37.3033Z" fill="#707070"/>
<path d="M56.0478 75.7452C55.9948 76.4139 56.4466 76.2086 56.7753 76.1409C59.2674 75.6436 61.6852 74.8924 63.9631 73.7708C73.206 69.2253 79.0724 61.9374 81.5984 51.9725C82.5019 51.7376 82.5061 51.7482 82.3259 52.6348C81.8444 54.9986 80.907 57.193 79.8614 59.3493C78.5125 62.1257 76.7436 64.6185 74.7097 66.9272C73.0851 68.7725 71.2526 70.4315 69.2144 71.7711C66.1582 73.7814 62.9047 75.4468 59.3098 76.361C58.5039 76.5662 57.6915 76.763 56.8835 76.9535C56.0012 77.1609 55.91 77.0043 56.0203 76.0583C56.033 75.9547 56.0394 75.8488 56.05 75.743L56.0478 75.7452Z" fill="#707070"/>
<path d="M42.9169 13.3255C37.4237 14.6375 32.6644 17.3017 28.6008 21.1848C23.6697 25.8953 20.5647 31.6237 19.2136 38.3001C18.7343 38.4144 18.6919 38.1964 18.7534 37.7817C19.01 36.0401 19.5615 34.3768 20.1596 32.7368C20.9464 30.5805 22.0429 28.568 23.2858 26.6402C24.9528 24.0543 26.9062 21.7202 29.2476 19.6908C30.5287 18.5799 31.8818 17.5959 33.2816 16.6584C35.1268 15.4226 37.1332 14.5042 39.1608 13.6196C40.0982 13.2112 41.1035 13.0462 42.0622 12.7097C42.5436 12.5404 42.972 12.6526 42.9169 13.3276V13.3255Z" fill="#707070"/>
<path d="M81.7632 51.3269C82.4949 47.6131 82.6476 43.8781 82.1619 40.1198C82.8385 39.8596 83.0442 39.9887 83.1248 40.8055C83.4429 44.0537 83.3305 47.2703 82.8215 50.4889C82.7155 51.1555 82.4843 51.5068 81.7653 51.3269H81.7632Z" fill="#707070"/>
<path d="M44.6454 75.1101C44.6411 75.3196 44.6814 75.5439 44.6241 75.7386C44.5054 76.1407 44.709 76.2401 45.042 76.2951C48.376 76.8411 51.7122 76.9067 55.0632 76.4369C55.5511 76.3692 55.5956 76.1407 55.5298 75.764C55.5405 75.8423 55.5553 75.9206 55.5595 75.9989C55.6423 77.3003 55.6338 77.2157 54.2361 77.3426C52.5203 77.4971 50.8108 77.5437 49.095 77.4781C47.937 77.4336 46.7769 77.3617 45.621 77.2707C44.8044 77.2072 44.569 76.894 44.6051 76.0454C44.6178 75.7344 44.4905 75.4169 44.6432 75.1122L44.6454 75.1101Z" fill="#707070"/>
<path d="M53.994 12.5428C50.3693 12.1682 46.785 12.4158 43.2304 13.2009C43.1434 12.6549 43.2834 12.4116 43.9218 12.274C46.8529 11.6413 49.8009 11.4402 52.7851 11.6688C53.0735 11.69 53.3726 11.7534 53.6525 11.7069C54.4288 11.5799 54.5772 11.9143 54.3588 12.5724C54.2315 12.5618 54.1021 12.5533 53.9749 12.5428H53.9919H53.994Z" fill="#707070"/>
<path d="M19.0165 49.8246C19.0356 49.9114 19.0568 49.9982 19.0759 50.0849C18.8362 50.2055 18.5541 50.3897 18.482 49.9453C18.289 48.7708 18.0027 47.5964 17.9794 46.4155C17.9433 44.6486 18.1024 42.8774 18.1745 41.1083C18.1893 40.7401 18.1575 40.3655 18.2084 40.0015C18.2742 39.5381 18.4841 39.2059 19.0462 39.4175C18.4269 42.8795 18.5223 46.3415 19.0122 49.8056L19.0165 49.8225V49.8246Z" fill="#707070"/>
<path d="M40.3462 48.2925C42.1787 47.1117 43.9114 47.3381 45.4576 48.2269C46.9952 49.1114 47.676 50.6372 47.5255 52.5353C45.9793 48.94 44.518 48.0555 40.3462 48.2925Z" fill="#707070"/>
<path d="M60.1367 39.6526C59.072 36.2774 56.7623 34.9252 53.2798 35.4034C54.0391 34.4617 55.9203 34.3305 57.6658 35.031C59.2841 35.6827 60.3382 37.5894 60.1367 39.6505V39.6526Z" fill="#707070"/>
<path d="M53.9948 12.5427H53.9775V12.5879L53.9948 12.5427Z" fill="#707070"/>
<path d="M19.0165 49.825L19.0122 49.8057L19.0467 49.8121L19.0165 49.825Z" fill="#707070"/>
</svg>
