<svg width="113" height="106" fill="none" xmlns="http://www.w3.org/2000/svg"><path d="M21.727 62.103c-1.615-.36-3.265-.352-4.899-.516-2.304-.232-4.61-.43-6.918-.63-.328-.03-.658-.005-1.103-.005 3.176 10.567 10.105 17.94 19.212 23.572-1.624-.391-3.099-1.108-4.561-1.824-4.617-2.26-8.936-4.984-12.702-8.51-4.03-3.772-7.34-8.064-9.183-13.336-2.749-7.865-1.842-15.39 2.306-22.548 3.28-5.662 8.01-9.902 13.414-13.455 2.519-1.656 5.162-3.099 7.94-4.256 1.165-.484 2.262-1.188 3.622-1.237-.9.56-1.812 1.105-2.7 1.685-7.3 4.769-13.017 10.9-16.253 19.112C7.7 45.745 7.048 51.526 8.08 57.469c.345 1.988.348 1.925 2.365 1.717 3.152-.32 6.312-.56 9.472-.802.63-.05.89-.125.77-.9-.53-3.48-.646-6.98-.156-10.48.19-1.369.19-1.35-1.223-1.45-1.113-.078-2.223-.212-3.326-.51 1.406-.13 2.807-.294 4.216-.375.528-.03.695-.178.805-.707 1.604-7.823 5.211-14.585 10.946-20.158 6.006-5.838 13.164-9.357 21.486-10.494a36.573 36.573 0 018.574-.159c.622.061.962-.032 1.008-.75.1-1.52.291-3.033.396-4.552.086-1.25.037-1.294-1.183-1.41a64.802 64.802 0 00-10.054-.182c-5.603.338-11.11 1.277-16.464 3.03-9.268 3.04-17.453 7.85-24.218 14.925-5.06 5.29-8.456 11.553-10.503 18.564-.022.074-.088.132-.301.171.073-.337.147-.675.223-1.01.08-.354.17-.709.254-1.063 1.294-5.503 3.067-10.81 6.246-15.556 2.413-3.603 5.363-6.743 8.473-9.724 4.772-4.57 10.287-8.043 16.337-10.675C38.31 2.273 44.683.821 51.295.324 55.512.01 59.701.18 63.89.681c.423.052.594.186.631.587.303 3.216.614 6.43.92 9.645.031.333.053.668.102 1 .26 1.761.27 1.725 1.966 2.167 1.57.411 3.08.99 4.603 1.566 10.501 3.961 17.468 11.418 21.81 21.574.75 1.758 1.085 3.639 1.677 5.446.2.61.447.832 1.044.88 2.583.209 5.163.419 7.738.695.64.069.623-.315.526-.614-1.698-5.162-4.089-9.946-7.694-14.074-2.277-2.607-4.815-4.91-7.584-6.987-1.13-.848-2.38-1.499-3.56-2.342.547-.311.983-.005 1.374.212 1.846 1.032 3.84 1.749 5.674 2.818 6.111 3.558 11.479 7.938 15.318 13.946 4.461 6.982 5.789 14.48 3.378 22.534-.793 2.646-1.086 5.412-1.847 8.075-1.176 4.123-2.773 8.036-5.206 11.594-2.612 3.82-5.537 7.398-8.934 10.513-8.14 7.472-17.683 12.28-28.556 14.366-5.146.985-10.342 1.22-15.566.936-.303-.017-.604-.105-.905-.112-.428-.008-.482-.233-.457-.595.107-1.521.203-3.039.283-4.563.035-.633.208-.8.937-.724 3.595.384 7.197.142 10.773-.252 4.541-.501 9.007-1.438 13.357-2.863 7.305-2.395 13.952-6.002 19.878-10.907 5.861-4.855 10.471-10.668 13.367-17.758.261-.64.631-1.284.562-2.07-5.414 8.93-13.475 14.533-22.87 18.468 2.69-1.761 5.226-3.722 7.559-5.953 6.209-5.935 10.291-13.01 11.467-21.604.469-3.433.325-6.871-.308-10.285-.078-.426-.223-.651-.709-.597-2.512.276-5.026.55-7.543.785-.628.058-.806.286-.723.91.538 3.996.298 7.967-.387 11.926-.036.213-.34.534.132.666.145.041.242.137.04.198-.668.205-.556.834-.673 1.288-2.17 8.428-6.627 15.39-13.406 20.832-4.904 3.937-10.472 6.49-16.667 7.654-4.453.837-8.911.837-13.37.071-.743-.127-.807.22-.858.768-.428 4.642-.866 9.28-1.306 13.922-.024.257.083.568-.31.761-.36-1.881-.404-3.776-.595-5.652a507.163 507.163 0 01-.922-10.195c-.046-.563-.415-.612-.772-.722a36.372 36.372 0 01-9.854-4.697c-7.339-4.972-12.4-11.675-15.238-20.069-.085-.256-.125-.53-.186-.794.284-.064.634.242.749.743.655 2.808 2.086 5.278 3.512 7.713 1.393 2.38 3.147 4.53 5.025 6.562.775.839 1.67 1.543 2.517 2.303 1.379 1.238 2.795 2.417 4.387 3.363a46.644 46.644 0 004.096 2.162c1.529.712 3.045 1.45 4.627 2.044.585.22.9.066.758-.62.118-.07.157-.172.145-.304-.194-2.06-.382-4.12-.578-6.18-.344-3.666-.638-7.337-1.061-10.993-.218-1.89.21-4.013-1.665-5.439-.323-.247-.58-.484-1.006-.52-4.519-.375-9.04-.732-13.555-1.16-1.69-.158-3.4-.166-5.067-.54-1.054-.14-2.113-.088-3.17-.088l.013.002zm42.3 25.617c-.325-3.42-.648-6.84-.978-10.261-.206-2.118-.418-4.236-.634-6.354-.036-.352 0-.74-.611-.599-2.685.619-5.375.536-8.036-.137-.563-.141-.712.034-.753.521-.191 2.15-.377 4.302-.582 6.451-.309 3.21-.636 6.415-.954 9.624-.179.352-.03.719-.044 1.078-.042.98.227 1.34 1.171 1.416 1.333.105 2.668.188 4.006.24 1.978.076 3.95.022 5.928-.157 1.612-.146 1.622-.049 1.526-1.553-.005-.09-.024-.18-.034-.269h-.005zM21.961 45.718c-.648-.244-.892.14-.968.675-.059.42-.022.851-.04 1.28-.082 2.044-.266 4.09-.224 6.133.027 1.362.357 2.722.58 4.079.082.513.41.3.684.161.142.035.289.108.426.096 5.937-.524 11.873-1.067 17.81-1.566.59-.048.546-.31.485-.694-.414-2.663-.176-5.277.63-7.838.14-.44.064-.592-.403-.631-3.668-.303-7.334-.611-11-.939-2.663-.237-5.324-.504-7.987-.758l.007.002zm72.315 13.764c.829.208 1.098-.198 1.218-.969.59-3.717.719-7.436.35-11.19-.093-.947-.33-1.096-1.11-.793-.365 0-.73-.024-1.092.012-2.878.284-5.754.58-8.632.871-3.06.31-6.117.626-9.176.93-.543.053-.802.156-.629.84a16.63 16.63 0 01.096 7.87c-.164.714.024.922.675.927.244 0 .487.017.731.037 3.245.281 6.49.572 9.738.844 2.61.217 5.219.415 7.828.62h.003zM62.682 14.694c.252-.76.08-1.147-.815-1-.322.054-.667-.02-1-.044a35.178 35.178 0 00-10.22.7c-.736.158-.897.44-.797 1.07.025.426.037.854.078 1.277.472 5.004.947 10.007 1.421 15.008.145 1.517.301 3.03.448 4.547.037.386.122.643.614.467a16.388 16.388 0 017.818-.856c.426.056.609-.086.629-.529.034-.755.11-1.51.18-2.264.35-3.7.734-7.395 1.05-11.098.207-2.426.56-4.84.596-7.28l-.002.002zm-8.948 49.351c-.257 1.38-.264 2.78-.428 4.167-.061.526.115.688.58.805 2.513.636 5.027.707 7.578.223.68-.13.748-.406.685-.969-.147-1.328-.32-2.66-.357-3.993-.025-.844-.299-.993-1.096-.898-2.32.279-4.654.462-6.984.682-.074-.3.185-.425.33-.599 1.166-1.389 1.396-2.966 1.047-4.7-.208-1.023-.815-1.834-1.382-2.74 2.291.187 4.478.35 6.659.551.54.049.685-.093.626-.64-.208-1.908-.367-3.82-.55-5.73-.02-.196-.171-.39.076-.558.276-.188.384.073.528.188.9.697 1.915.98 3.05 1.037 1.648.08 3.012-.496 4.262-1.739 0 .472.024.768-.005 1.06-.205 2.09-.398 4.184-.645 6.27-.069.58-.003.804.655.836 1.582.073 3.162.208 4.734.398.578.069.732-.124.847-.62.516-2.258.604-4.515.134-6.794-.372-1.813-.342-1.778-2.17-1.526-1.087.149-2.185.337-3.491.278 1.245-1.244 1.57-2.643 1.594-4.184.025-1.568-1.176-2.631-1.509-4.038-2.731-1.467-5.46-2.31-8.22.257.101-1.208.133-2.21.282-3.196.078-.511-.066-.677-.523-.702-2.507-.142-4.982-.056-7.374.866-.54.208-.687.443-.611.983.105.753.161 1.516.193 2.277.017.438.135.557.6.504a63.762 63.762 0 014.277-.382c.973-.049 1.944-.293 2.98-.178-1.855 2.643-2.056 5.209.072 7.891-2.19-.186-4.243-.32-6.283-.557-.724-.084-1.008.01-.893.792.14.932.252 1.873.299 2.815.058 1.196.335 2.382.235 3.68-2.654-2.007-5.229-2.093-7.88.12.237-2.46.44-4.78.697-7.092.073-.655.007-1.037-.775-1.044-.729-.007-1.458-.098-2.184-.188-.44-.054-.567.161-.687.533-.785 2.445-1.044 4.93-.687 7.48.078.56.313.778.892.7.82-.108 1.644-.286 2.536-.115-.098.137-.142.21-.198.274-1.56 1.854-1.648 5.317.122 7.143 2.14 2.206 4.845 2.686 7.317 1.142.372-.232.51-.77 1.042-.763l.003-.007zm-4.246-48.478c.064-.777-.428-.91-.985-.714-1.103.389-2.265.58-3.346 1.052-2.338 1.022-4.651 2.083-6.779 3.511-1.614 1.084-3.174 2.221-4.651 3.505-2.698 2.348-4.95 5.043-6.875 8.031-1.433 2.226-2.697 4.554-3.604 7.046-.69 1.895-1.326 3.817-1.622 5.83-.07.48-.022.731.53.599 2.072-.061 4.124-.323 6.186-.501 4.46-.387 8.919-.812 13.386-1.103 1.705-.113 3.119-.507 4.077-2.023.2-.32.57-.538.88-.782.382-.301.588-.666.627-1.162.1-1.274.235-2.548.354-3.82.61-6.488 1.216-12.978 1.825-19.466l-.003-.003zm16.586-.261c-.325.198-.152.494-.13.743.355 3.84.724 7.677 1.084 11.514.33 3.516.65 7.035.973 10.555.03.335.03.652.335.9 1.514 1.227 2.883 2.455 5.126 2.504 3.768.083 7.527.592 11.288.931 2.91.265 5.818.546 8.726.82.365.031.726.053 1.09.093.517.056.705-.26.57-.656-.833-2.423-1.366-4.94-2.557-7.256-1.44-2.8-2.972-5.527-4.997-7.945-1.215-1.45-2.396-2.976-3.834-4.18-3.025-2.53-6.17-4.89-9.875-6.463-2.284-.971-4.627-1.683-6.985-2.39-.856-.256-1.044-.019-.812.827l-.002.003zM94.09 60.23c-2.438-.024-4.84.396-7.258.602-4.121.354-8.23.824-12.348 1.193-.765.069-1.25.303-1.69.969-1.345 2.027-2.98 3.763-5.148 4.989-.56.315-1.2.743-1.26 1.692-.173 2.76-.49 5.512-.767 8.266-.325 3.255-.66 6.505-.993 9.76-.01.122-.02.242-.034.364-.127 1.093-.022 1.272.995 1.035.932-.218 1.869-.448 2.798-.685 4.145-1.056 7.896-2.981 11.42-5.304 2.35-1.549 4.464-3.468 6.337-5.598 2.345-2.668 4.385-5.547 5.94-8.758 1.208-2.492 2.287-5.028 2.842-7.76.208-1.022.203-1.036-.839-.762l.005-.003zm-22.477 2.172c-1.543 0-2.883.208-4.228.371-.128.015-.262.037-.277.176-.14 1.33-.269 2.664-.423 4.2 2.055-1.297 3.58-2.771 4.928-4.747z" fill="#0761AC"/><path d="M21.726 62.103c1.057 0 2.116-.05 3.17.088-.394-.004-.807.064-1.181-.029-.837-.203-.732.184-.556.734 1.17 3.67 2.827 7.1 5.055 10.244 4.896 6.914 11.397 11.626 19.467 14.187.142.687-.174.841-.758.62-1.583-.593-3.099-1.332-4.627-2.044a46.008 46.008 0 01-4.096-2.161c-1.595-.944-3.009-2.123-4.388-3.363-.846-.76-1.741-1.465-2.516-2.304-1.878-2.032-3.632-4.182-5.026-6.561-1.428-2.438-2.859-4.908-3.512-7.713-.117-.502-.467-.805-.748-.744l-.279-.956-.005.002z" fill="#292927"/><path d="M85.687 19.92l-.049-.002.025.083.024-.08z" fill="#0761AC"/><path d="M93.476 43.275c.797.13.56-.4.465-.775-.66-2.57-1.526-5.072-2.744-7.432C85.829 24.67 77.49 18.03 66.074 15.308c-.235-.846-.044-1.083.81-.826 2.357.706 4.7 1.418 6.984 2.389 3.705 1.572 6.85 3.932 9.875 6.463 1.438 1.204 2.622 2.73 3.835 4.18 2.022 2.416 3.555 5.143 4.996 7.945 1.19 2.319 1.724 4.833 2.558 7.256.137.396-.054.714-.57.656-.362-.04-.726-.064-1.09-.093l.004-.003zM64.626 87.7c-.06.773.46.536.84.458 2.873-.575 5.66-1.443 8.287-2.739 10.658-5.253 17.422-13.675 20.335-25.191 1.042-.272 1.047-.26.839.765-.556 2.732-1.637 5.268-2.842 7.76-1.555 3.208-3.595 6.09-5.94 8.757-1.874 2.133-3.987 4.05-6.337 5.598-3.524 2.323-7.275 4.248-11.42 5.304-.93.238-1.866.465-2.798.685-1.017.24-1.123.059-.995-1.034.014-.12.022-.243.034-.365l-.003.003zm-15.14-72.135c-6.334 1.516-11.822 4.595-16.507 9.083-5.686 5.444-9.267 12.064-10.824 19.78-.553.131-.602-.12-.531-.6.296-2.013.932-3.935 1.621-5.83.908-2.492 2.172-4.818 3.605-7.046 1.922-2.988 4.175-5.686 6.874-8.03 1.478-1.285 3.038-2.422 4.652-3.505 2.128-1.428 4.441-2.49 6.779-3.512 1.08-.472 2.24-.663 3.345-1.052.556-.195 1.05-.066.986.715v-.003zm44.792 43.917c.844-4.292 1.02-8.609.46-12.952.78-.3 1.017-.152 1.11.792a43.96 43.96 0 01-.35 11.191c-.122.77-.388 1.177-1.217.969h-.003zM51.479 86.967c-.005.242.041.501-.025.726-.137.465.098.58.482.643 3.844.631 7.691.707 11.555.164.563-.078.614-.342.538-.778.012.091.03.181.034.272.096 1.504.086 1.406-1.526 1.553a46.14 46.14 0 01-5.928.156 99.884 99.884 0 01-4.006-.24c-.941-.073-1.212-.435-1.17-1.415.014-.36-.133-.727.043-1.079l.003-.002zm10.78-72.307c-4.18-.433-8.313-.146-12.412.76-.1-.63.062-.911.798-1.07a35.242 35.242 0 0110.22-.7c.332.025.677.098 1 .044.895-.146 1.066.24.814 1l-.442-.034h.022zM21.927 57.746l.069.3c-.277.14-.602.352-.685-.161-.223-1.357-.553-2.715-.58-4.08-.041-2.041.142-4.088.225-6.133.018-.425-.02-.858.04-1.279.075-.535.317-.92.966-.675-.715 4.001-.605 8.002-.04 12.005l.005.02v.003z" fill="#292927"/><path d="M46.522 55.975c2.112-1.365 4.11-1.103 5.893-.076 1.773 1.022 2.558 2.785 2.385 4.979-1.783-4.155-3.468-5.177-8.278-4.903zm22.819-9.985c-1.228-3.9-3.89-5.463-7.906-4.91.875-1.089 3.044-1.24 5.057-.431 1.866.753 3.081 2.957 2.849 5.338v.003zM62.26 14.66h-.02v.052l.02-.052zM21.927 57.746l-.005-.022.04.007-.035.015z" fill="#0761AC"/></svg>