<svg width="98" height="91" fill="none" xmlns="http://www.w3.org/2000/svg"><path d="M18.842 53.596c-1.4-.311-2.831-.305-4.248-.447-1.998-.201-3.998-.372-6-.546-.284-.025-.57-.004-.956-.004 2.755 9.144 8.763 15.524 16.661 20.397-1.408-.338-2.687-.958-3.955-1.578-4.004-1.956-7.75-4.313-11.016-7.365-3.495-3.263-6.365-6.976-7.964-11.539-2.384-6.805-1.597-13.317 2-19.51 2.844-4.9 6.946-8.569 11.633-11.643 2.185-1.433 4.477-2.682 6.887-3.683 1.01-.419 1.962-1.028 3.14-1.07-.78.484-1.57.956-2.34 1.458-6.332 4.126-11.29 9.431-14.096 16.537-1.911 4.838-2.475 9.84-1.58 14.983.299 1.72.3 1.665 2.05 1.485 2.735-.277 5.475-.485 8.215-.694.547-.042.772-.108.668-.779-.46-3.011-.56-6.04-.136-9.067.166-1.185.166-1.169-1.06-1.255-.965-.068-1.928-.184-2.885-.443 1.22-.112 2.435-.253 3.657-.323.458-.026.602-.155.698-.612 1.39-6.77 4.52-12.62 9.493-17.443 5.209-5.051 11.417-8.097 18.634-9.08a31.79 31.79 0 017.436-.138c.539.053.834-.028.874-.65.087-1.314.252-2.624.343-3.938.075-1.081.032-1.12-1.026-1.22a56.329 56.329 0 00-8.72-.158c-4.858.293-9.635 1.105-14.277 2.622-8.038 2.63-15.137 6.793-21.003 12.915-4.389 4.577-7.335 9.997-9.11 16.064-.019.063-.076.114-.26.148.063-.292.127-.584.192-.874.07-.307.149-.614.221-.92 1.122-4.762 2.66-9.354 5.417-13.461 2.093-3.117 4.65-5.835 7.349-8.414 4.138-3.955 8.92-6.96 14.167-9.237C33.225 1.824 38.751.567 44.486.138c3.657-.273 7.29-.125 10.923.309.367.044.515.16.547.508.263 2.782.532 5.563.798 8.346.027.287.046.577.089.865.224 1.524.233 1.492 1.705 1.875 1.361.355 2.67.857 3.991 1.354 9.108 3.428 15.15 9.88 18.915 18.669.65 1.521.941 3.149 1.455 4.712.173.527.388.72.905.762 2.24.18 4.478.362 6.71.601.556.06.542-.273.457-.53-1.472-4.468-3.546-8.607-6.673-12.18-1.974-2.255-4.176-4.248-6.577-6.045-.98-.734-2.063-1.297-3.088-2.027.475-.269.853-.005 1.192.184 1.602.893 3.33 1.513 4.92 2.438 5.301 3.079 9.956 6.869 13.286 12.068 3.869 6.042 5.02 12.53 2.93 19.498-.688 2.29-.943 4.683-1.602 6.987-1.02 3.568-2.405 6.954-4.516 10.033-2.265 3.306-4.801 6.401-7.747 9.097-7.06 6.465-15.336 10.625-24.766 12.43-4.462.853-8.97 1.056-13.5.811-.263-.015-.523-.091-.784-.097-.371-.007-.418-.201-.397-.514.093-1.317.176-2.63.246-3.95.03-.547.18-.691.813-.626 3.117.333 6.241.123 9.342-.218a57.416 57.416 0 0011.584-2.478c6.336-2.071 12.1-5.193 17.24-9.438 5.083-4.2 9.08-9.23 11.592-15.365.227-.554.547-1.11.488-1.792C90.268 64.153 83.278 69 75.129 72.405c2.333-1.523 4.532-3.22 6.556-5.15 5.385-5.136 8.925-11.258 9.945-18.694.407-2.97.282-5.946-.267-8.9-.068-.368-.194-.563-.615-.517-2.179.24-4.359.477-6.541.68-.545.05-.7.247-.628.787.466 3.458.259 6.894-.335 10.32-.032.184-.295.462.114.576.125.036.21.118.034.171-.579.178-.481.722-.583 1.116-1.881 7.292-5.748 13.316-11.627 18.025-4.252 3.407-9.082 5.616-14.454 6.623-3.862.724-7.728.724-11.595.062-.645-.11-.7.19-.744.664-.371 4.017-.751 8.03-1.133 12.047-.021.222.072.491-.27.658-.311-1.627-.35-3.267-.515-4.89-.299-2.937-.56-5.879-.8-8.822-.04-.487-.36-.53-.67-.624a31.576 31.576 0 01-8.544-4.066C26.091 68.17 21.7 62.37 19.24 55.107c-.074-.222-.108-.459-.161-.687.246-.055.55.21.649.643.568 2.43 1.81 4.567 3.046 6.674 1.209 2.06 2.73 3.92 4.358 5.678.672.726 1.449 1.335 2.182 1.993 1.197 1.071 2.425 2.091 3.805 2.91a40.477 40.477 0 003.553 1.87c1.325.617 2.64 1.256 4.013 1.77.507.19.78.057.657-.538.102-.059.136-.148.125-.262-.167-1.782-.33-3.566-.5-5.348-.3-3.172-.554-6.348-.92-9.512-.19-1.635.182-3.472-1.445-4.706-.28-.214-.503-.419-.872-.45-3.92-.324-7.84-.633-11.756-1.004-1.466-.137-2.948-.144-4.395-.467-.914-.121-1.832-.077-2.748-.077l.01.003zm36.686 22.166c-.282-2.96-.562-5.919-.849-8.88a1201.67 1201.67 0 00-.549-5.497c-.032-.305 0-.641-.53-.518-2.329.535-4.662.463-6.97-.119-.487-.123-.617.03-.653.45-.165 1.86-.326 3.723-.505 5.583-.267 2.777-.55 5.55-.827 8.327-.155.305-.025.622-.038.933-.036.849.197 1.16 1.016 1.226 1.156.09 2.314.163 3.474.207 1.716.066 3.425.02 5.141-.135 1.398-.127 1.406-.043 1.324-1.344-.005-.078-.022-.157-.03-.233h-.004zM19.046 39.417c-.562-.211-.774.121-.84.584-.05.364-.019.737-.034 1.107-.072 1.77-.231 3.54-.195 5.308.023 1.178.31 2.355.503 3.53.072.444.356.26.594.139.123.03.25.093.369.082 5.15-.452 10.297-.922 15.446-1.354.511-.042.473-.269.42-.6-.358-2.305-.153-4.568.547-6.783.121-.381.055-.512-.35-.546-3.181-.263-6.36-.53-9.54-.813-2.31-.205-4.617-.436-6.926-.656l.006.002zm62.715 11.91c.72.18.953-.171 1.056-.838a37.73 37.73 0 00.304-9.683c-.08-.82-.287-.948-.963-.686-.316 0-.632-.021-.946.01-2.496.246-4.99.502-7.487.754-2.653.269-5.304.542-7.957.804-.471.047-.696.136-.546.728.575 2.256.6 4.541.083 6.81-.142.618.021.797.585.802.213 0 .422.015.635.032 2.814.243 5.628.495 8.445.73 2.263.188 4.526.36 6.79.537h.001zm-27.4-38.755c.219-.658.07-.992-.706-.865-.28.046-.579-.017-.867-.038a30.573 30.573 0 00-8.864.605c-.638.137-.778.38-.691.927.021.368.032.738.068 1.104.409 4.33.82 8.66 1.232 12.987.125 1.312.26 2.622.388 3.934.032.334.106.556.532.404 2.2-.793 4.46-1.045 6.781-.74.369.048.528-.075.545-.458.03-.653.095-1.307.157-1.96.303-3.2.636-6.398.91-9.602.18-2.1.486-4.188.517-6.3l-.002.002zm-7.76 42.704c-.223 1.193-.23 2.406-.371 3.606-.053.455.1.594.502.696 2.18.55 4.36.611 6.573.192.59-.112.649-.35.594-.838-.127-1.149-.278-2.302-.31-3.455-.021-.73-.258-.86-.95-.777-2.013.241-4.036.4-6.057.59-.064-.26.16-.368.286-.518 1.012-1.202 1.211-2.567.908-4.067-.18-.885-.707-1.587-1.199-2.37 1.988.16 3.884.303 5.776.476.468.042.594-.08.543-.554-.18-1.651-.319-3.306-.477-4.959-.017-.169-.149-.336.065-.482.24-.163.333.063.458.163.78.603 1.661.849 2.645.897 1.43.07 2.613-.43 3.697-1.504 0 .408.021.664-.004.916-.178 1.81-.346 3.62-.56 5.426-.06.501-.002.696.568.723 1.372.064 2.742.18 4.106.345.5.06.634-.108.734-.537.448-1.953.524-3.907.117-5.879-.323-1.568-.297-1.538-1.882-1.32-.943.129-1.896.292-3.028.24 1.08-1.076 1.361-2.287 1.383-3.62.02-1.356-1.02-2.277-1.309-3.493-2.37-1.27-4.736-2-7.128.222.087-1.046.114-1.913.244-2.766.067-.442-.058-.586-.454-.607-2.174-.123-4.32-.05-6.395.749-.469.18-.596.383-.53.85.091.652.14 1.312.167 1.97.015.38.117.483.52.436a55.886 55.886 0 013.71-.33c.844-.042 1.686-.254 2.585-.154-1.61 2.287-1.784 4.507.061 6.829-1.898-.161-3.68-.278-5.448-.483-.628-.072-.874.009-.774.686.12.806.218 1.62.258 2.435.051 1.035.291 2.062.204 3.185-2.301-1.737-4.535-1.811-6.834.104.206-2.129.382-4.137.605-6.137.064-.567.006-.897-.672-.904-.632-.006-1.264-.084-1.894-.163-.382-.046-.492.14-.596.462-.681 2.116-.906 4.266-.596 6.473.068.485.271.673.774.605.71-.093 1.425-.247 2.2-.1-.086.12-.124.183-.173.238-1.353 1.604-1.43 4.6.106 6.181 1.856 1.909 4.202 2.324 6.346.988.323-.2.441-.666.904-.66l.002-.006zm-3.682-41.948c.055-.673-.371-.788-.855-.618-.956.336-1.964.501-2.901.91-2.028.884-4.034 1.803-5.88 3.038-1.4.938-2.752 1.922-4.033 3.033-2.34 2.031-4.293 4.363-5.962 6.95-1.243 1.925-2.34 3.94-3.126 6.096-.598 1.64-1.15 3.303-1.406 5.045-.062.414-.02.632.46.518 1.796-.053 3.575-.28 5.363-.434 3.869-.334 7.735-.702 11.61-.954 1.479-.097 2.705-.438 3.536-1.75.174-.277.494-.466.763-.677.331-.26.51-.576.543-1.005.087-1.103.204-2.205.308-3.306L42.92 13.33l-.002-.002zm14.384-.227c-.282.172-.132.428-.112.643.307 3.323.627 6.643.94 9.963.285 3.043.563 6.088.843 9.133.026.29.026.566.29.78 1.314 1.062 2.501 2.124 4.446 2.166 3.268.072 6.528.512 9.79.806 2.524.229 5.046.472 7.568.71.316.027.63.046.946.08.447.048.61-.225.494-.567-.724-2.097-1.186-4.275-2.219-6.279-1.249-2.423-2.577-4.782-4.333-6.875-1.054-1.255-2.078-2.576-3.325-3.617-2.624-2.19-5.351-4.232-8.564-5.593-1.981-.84-4.013-1.456-6.058-2.067-.742-.222-.905-.017-.704.715l-.002.002zM81.6 51.975c-2.114-.022-4.197.342-6.295.52-3.574.307-7.137.713-10.708 1.033-.664.06-1.084.262-1.466.838-1.166 1.754-2.585 3.257-4.464 4.317-.486.273-1.042.643-1.093 1.464-.15 2.39-.426 4.77-.666 7.153-.282 2.816-.572 5.629-.86 8.445a7.81 7.81 0 01-.03.316c-.11.945-.02 1.1.863.895.808-.189 1.62-.388 2.426-.593 3.595-.914 6.849-2.58 9.905-4.59 2.038-1.34 3.87-3 5.495-4.844 2.034-2.308 3.803-4.8 5.152-7.578 1.047-2.156 1.983-4.35 2.464-6.714.18-.885.176-.897-.727-.66l.004-.002zm-19.493 1.879c-1.338 0-2.5.18-3.667.321-.11.013-.227.032-.24.153-.12 1.15-.233 2.304-.367 3.633 1.782-1.121 3.105-2.397 4.274-4.107z" fill="#707070"/><path d="M18.842 53.596c.917 0 1.835-.045 2.749.076-.341-.004-.7.055-1.024-.026-.726-.175-.635.16-.482.635 1.014 3.177 2.452 6.143 4.384 8.865 4.246 5.982 9.883 10.06 16.883 12.275.123.595-.151.728-.658.538-1.372-.514-2.687-1.153-4.013-1.77a39.921 39.921 0 01-3.552-1.87c-1.383-.817-2.609-1.837-3.805-2.91-.734-.658-1.51-1.267-2.183-1.993-1.628-1.758-3.15-3.618-4.358-5.677-1.239-2.11-2.48-4.248-3.046-6.675-.101-.434-.405-.696-.649-.643-.08-.275-.16-.552-.242-.828l-.004.003zm55.471-36.502l-.043-.002.022.072.02-.07zm6.755 20.209c.691.113.486-.347.403-.67-.573-2.225-1.324-4.39-2.38-6.431-4.655-8.998-11.888-14.744-21.788-17.099-.204-.732-.038-.937.702-.715 2.045.611 4.076 1.227 6.057 2.067 3.213 1.361 5.941 3.403 8.565 5.593 1.247 1.042 2.273 2.362 3.325 3.617 1.754 2.09 3.084 4.45 4.333 6.875 1.033 2.006 1.495 4.182 2.219 6.279.118.342-.047.618-.495.567-.313-.034-.63-.055-.945-.08l.004-.003zm-25.02 38.442c-.053.669.399.464.727.396 2.492-.497 4.91-1.249 7.188-2.37 9.243-4.546 15.11-11.834 17.635-21.799.904-.234.908-.224.728.663-.482 2.364-1.419 4.558-2.465 6.714-1.349 2.777-3.117 5.27-5.151 7.578-1.625 1.845-3.457 3.504-5.496 4.844-3.056 2.01-6.31 3.676-9.904 4.59-.806.205-1.619.402-2.427.593-.882.207-.973.05-.863-.896.013-.103.02-.21.03-.315l-.002.002zm-13.131-62.42c-5.493 1.313-10.253 3.977-14.316 7.86-4.931 4.71-8.036 10.439-9.387 17.115-.48.114-.522-.104-.46-.518.256-1.742.807-3.405 1.406-5.045.786-2.157 1.883-4.169 3.126-6.097 1.667-2.586 3.62-4.92 5.962-6.95 1.28-1.11 2.634-2.094 4.034-3.032 1.845-1.235 3.851-2.154 5.879-3.038.937-.409 1.942-.574 2.901-.91.482-.17.91-.057.855.618v-.002zm38.846 38.002c.732-3.714.885-7.449.399-11.207.676-.26.882-.131.963.686a37.958 37.958 0 01-.303 9.683c-.106.667-.338 1.018-1.057.838h-.002zM44.645 75.11c-.004.21.036.434-.02.629-.12.402.084.501.417.556 3.334.546 6.67.612 10.021.142.488-.068.533-.296.467-.673.01.078.025.157.03.235.082 1.301.074 1.217-1.324 1.344a40.112 40.112 0 01-5.141.135 86.752 86.752 0 01-3.474-.207c-.817-.064-1.052-.377-1.016-1.226.013-.31-.114-.628.038-.933l.002-.002zm9.349-62.567c-3.625-.375-7.209-.127-10.764.658-.087-.546.053-.79.692-.927a30.65 30.65 0 018.863-.605c.289.021.588.084.868.038.776-.127.924.207.706.865-.128-.01-.257-.019-.384-.03h.019zM19.017 49.825l.059.26c-.24.12-.522.305-.594-.14-.193-1.174-.48-2.349-.503-3.53-.036-1.766.123-3.538.195-5.307.015-.368-.017-.742.034-1.106.066-.464.276-.796.838-.585-.62 3.462-.524 6.925-.034 10.389l.005.017v.002zm21.329-1.533c1.833-1.18 3.565-.954 5.112-.065 1.537.884 2.218 2.41 2.068 4.308-1.547-3.595-3.008-4.48-7.18-4.242zm19.791-8.639c-1.065-3.376-3.375-4.728-6.857-4.25.76-.941 2.64-1.072 4.386-.372 1.618.652 2.672 2.558 2.47 4.62v.002z" fill="#707070"/><path d="M53.995 12.543h-.017v.045l.017-.045zM19.017 49.825l-.005-.02.035.007-.03.013z" fill="#707070"/></svg>