<svg width="113" height="106" viewBox="0 0 113 106" fill="none" xmlns="http://www.w3.org/2000/svg">
<path d="M21.7265 61.9383C20.1124 61.5788 18.4617 61.5862 16.8281 61.4223C14.5244 61.19 12.2182 60.9919 9.90965 60.7914C9.58195 60.762 9.2518 60.7865 8.80671 60.7865C11.9835 71.3537 18.9117 78.727 28.0189 84.359C26.395 83.9678 24.9204 83.2512 23.4579 82.5347C18.8408 80.275 14.5219 77.5507 10.7558 74.0242C6.72556 70.2532 3.41674 65.9613 1.57281 60.6887C-1.17598 52.8238 -0.268681 45.2989 3.87895 38.1408C7.15842 32.4794 11.8881 28.2388 17.2927 24.6855C19.8116 23.0298 22.4553 21.587 25.2334 20.4302C26.3975 19.946 27.4955 19.2417 28.8552 19.1928C27.9553 19.7528 27.0431 20.2982 26.1554 20.8778C18.8554 25.6466 13.1378 31.7775 9.90231 39.9896C7.69888 45.5801 7.04837 51.3614 8.08039 57.3041C8.42521 59.2923 8.42765 59.2287 10.4452 59.0208C13.5975 58.7005 16.7572 58.4608 19.9168 58.2187C20.5477 58.1698 20.807 58.094 20.6871 57.3187C20.1565 53.8387 20.0415 50.3392 20.5306 46.8396C20.7214 45.4701 20.7214 45.4897 19.3078 45.3894C18.1951 45.3111 17.0849 45.1766 15.9819 44.8783C17.3881 44.7487 18.7894 44.5848 20.198 44.5041C20.7263 44.4748 20.8926 44.3256 21.0026 43.7973C22.6069 35.9741 26.214 29.2122 31.9488 23.6388C37.9551 17.8013 45.1132 14.2822 53.4353 13.145C56.2917 12.7537 59.1481 12.7048 62.0094 12.986C62.6306 13.0472 62.9705 12.9542 63.0169 12.2352C63.1172 10.7166 63.308 9.20277 63.4131 7.68409C63.4987 6.43442 63.4498 6.3904 62.2295 6.27302C58.884 5.95265 55.5238 5.89151 52.1759 6.09205C46.5732 6.42953 41.0658 7.36862 35.7125 9.12207C26.4439 12.1619 18.2587 16.9722 11.4944 24.0472C6.43454 29.3369 3.03769 35.5999 0.990771 42.6113C0.968761 42.6846 0.902732 42.7433 0.68997 42.7824C0.763336 42.445 0.836702 42.1075 0.912514 41.7724C0.993216 41.4178 1.0837 41.0632 1.16685 40.7086C2.46054 35.2062 4.23355 29.8994 7.41275 25.1526C9.8265 21.5503 12.7758 18.4102 15.8865 15.4291C20.6578 10.8584 26.1725 7.38574 32.2227 4.75434C38.3097 2.10827 44.6827 0.655617 51.2955 0.159173C55.5116 -0.156301 59.7008 0.0148864 63.89 0.516222C64.3131 0.567578 64.4843 0.702083 64.521 1.10315C64.8242 4.31903 65.1348 7.53247 65.4405 10.7484C65.4723 11.0809 65.4943 11.416 65.5432 11.7486C65.8024 13.5094 65.8122 13.4727 67.5094 13.9153C69.0794 14.3262 70.5883 14.9058 72.1119 15.4805C82.613 19.4422 89.5804 26.8987 93.9212 37.055C94.672 38.8133 95.007 40.694 95.5988 42.5012C95.7994 43.1101 96.0464 43.3327 96.6431 43.3816C99.2256 43.5895 101.806 43.7998 104.381 44.0761C105.021 44.1446 105.004 43.7607 104.907 43.4623C103.209 38.2998 100.818 33.5163 97.2129 29.3882C94.9361 26.7813 92.3976 24.4776 89.6293 22.4013C88.4995 21.5527 87.2498 20.9022 86.0686 20.0585C86.6164 19.7479 87.0517 20.0536 87.443 20.2713C89.2894 21.3033 91.2825 22.0198 93.1166 23.0885C99.228 26.6468 104.596 31.0267 108.435 37.0354C112.896 44.0174 114.224 51.5155 111.813 59.5686C111.02 62.2147 110.727 64.9806 109.966 67.6438C108.79 71.767 107.193 75.6798 104.76 79.2381C102.148 83.058 99.2231 86.6358 95.8263 89.7514C87.6851 97.2226 78.1426 102.03 67.2697 104.117C62.1243 105.102 56.9276 105.337 51.7039 105.053C51.4006 105.036 51.0998 104.948 50.799 104.941C50.3711 104.933 50.3173 104.708 50.3417 104.346C50.4493 102.825 50.5447 101.307 50.6254 99.783C50.6596 99.1496 50.8333 98.9834 51.562 99.0592C55.157 99.4431 58.7593 99.201 62.3346 98.8073C66.876 98.3059 71.3416 97.3693 75.6922 95.9436C82.997 93.5494 89.644 89.9422 95.5695 85.0365C101.431 80.1821 106.041 74.369 108.937 67.2794C109.198 66.6387 109.568 65.9955 109.499 65.208C104.085 74.1391 96.0244 79.7419 86.6286 83.6767C89.3187 81.9159 91.8547 79.9546 94.1878 77.7243C100.397 71.789 104.479 64.714 105.655 56.1204C106.124 52.6869 105.98 49.2484 105.347 45.8345C105.269 45.409 105.124 45.184 104.638 45.2378C102.126 45.5141 99.612 45.788 97.0955 46.0228C96.467 46.0815 96.2885 46.3089 96.3716 46.9325C96.9097 50.9285 96.67 54.9001 95.9852 58.8594C95.9486 59.0722 95.6453 59.3925 96.1173 59.5246C96.2616 59.5662 96.3594 59.6615 96.1564 59.7227C95.4888 59.9281 95.6013 60.5566 95.4839 61.0115C93.3147 69.4388 88.8565 76.4013 82.0775 81.8426C77.1742 85.7799 71.6057 88.333 65.4111 89.4971C60.9578 90.3335 56.4996 90.3335 52.0414 89.568C51.2979 89.4409 51.2343 89.7881 51.183 90.3359C50.755 94.9776 50.3173 99.6167 49.8771 104.258C49.8526 104.515 49.9602 104.826 49.5665 105.019C49.207 103.138 49.163 101.243 48.9722 99.3673C48.6274 95.9729 48.3266 92.5736 48.0503 89.1719C48.0038 88.6094 47.6345 88.5605 47.2775 88.4504C43.7583 87.3768 40.4691 85.8166 37.4244 83.7525C30.0853 78.7808 25.0231 72.0775 22.1862 63.6845C22.1007 63.4277 22.0615 63.1538 22.0004 62.8897C22.2841 62.8261 22.6338 63.1318 22.7487 63.6331C23.4041 66.4406 24.8348 68.9106 26.2605 71.3463C27.6545 73.7258 29.4079 75.8755 31.2861 77.9077C32.0613 78.7465 32.9564 79.4508 33.8026 80.2114C35.1818 81.4488 36.5978 82.6276 38.1898 83.574C39.5178 84.3615 40.875 85.078 42.2861 85.7359C43.8146 86.4475 45.3308 87.1861 46.9131 87.7803C47.4976 88.0004 47.813 87.8464 47.6712 87.1592C47.7886 87.0907 47.8277 86.988 47.8155 86.8559C47.6223 84.7968 47.434 82.7352 47.2383 80.6761C46.8935 77.0102 46.6001 73.3394 46.177 69.6834C45.9593 67.793 46.3873 65.6702 44.5116 64.2445C44.1887 63.9975 43.932 63.7603 43.5064 63.7236C38.9871 63.3494 34.4653 62.9924 29.9508 62.5644C28.261 62.4054 26.5515 62.3981 24.8837 62.0239C23.8296 61.8845 22.7707 61.9359 21.7143 61.9359L21.7265 61.9383ZM64.027 87.5554C63.7017 84.134 63.3789 80.7152 63.0487 77.2939C62.8433 75.176 62.6306 73.0582 62.4153 70.9404C62.3787 70.5882 62.4153 70.1994 61.804 70.3412C59.1188 70.9599 56.4287 70.8768 53.7679 70.2043C53.2054 70.0624 53.0563 70.2385 53.0147 70.7252C52.8239 72.8748 52.6381 75.0269 52.4327 77.1765C52.1245 80.385 51.7968 83.5911 51.4789 86.7997C51.3004 87.1518 51.4496 87.5187 51.4349 87.8782C51.3933 88.8588 51.6623 89.2183 52.6063 89.2941C53.9391 89.3993 55.2744 89.4824 56.6121 89.5338C58.5905 89.6096 60.5616 89.5558 62.5401 89.3773C64.1517 89.2305 64.1615 89.3284 64.0661 87.8244C64.0612 87.7339 64.0416 87.6434 64.0318 87.5554H64.027ZM21.9613 45.5532C21.3132 45.3087 21.0686 45.6926 20.9928 46.2282C20.9341 46.6488 20.9708 47.0793 20.9537 47.5072C20.8705 49.5517 20.6871 51.5986 20.7287 53.6406C20.7556 55.0028 21.0858 56.3625 21.3083 57.7198C21.3914 58.2334 21.7191 58.0206 21.993 57.8812C22.1349 57.9154 22.2816 57.9888 22.4186 57.9766C28.3563 57.4532 34.2917 56.9103 40.2294 56.4114C40.8188 56.3625 40.7748 56.1008 40.7136 55.7169C40.3003 53.0537 40.5376 50.4394 41.3446 47.8789C41.484 47.4388 41.4082 47.2871 40.9411 47.248C37.2728 46.9448 33.6069 46.6366 29.941 46.3089C27.2779 46.0717 24.6171 45.8051 21.9539 45.5508L21.9613 45.5532ZM94.2758 59.3167C95.1048 59.5246 95.3739 59.1186 95.4937 58.3483C96.0831 54.6311 96.2127 50.9114 95.8434 47.1575C95.7505 46.2111 95.5133 46.0619 94.7331 46.3652C94.3687 46.3652 94.0044 46.3407 93.6424 46.3774C90.764 46.6611 87.8881 46.957 85.0097 47.248C81.9503 47.5586 78.8934 47.8741 75.834 48.1773C75.2911 48.2311 75.0319 48.3338 75.2055 49.0186C75.8682 51.6255 75.8976 54.2667 75.3009 56.8883C75.137 57.6024 75.3253 57.8103 75.9759 57.8152C76.2204 57.8152 76.4625 57.8323 76.7071 57.8518C79.9523 58.1331 83.1975 58.4241 86.4452 58.6956C89.0546 58.9132 91.664 59.1113 94.2734 59.3167H94.2758ZM62.6819 14.5292C62.9338 13.7686 62.7626 13.3822 61.8675 13.5289C61.5447 13.5827 61.1999 13.5094 60.8673 13.4849C57.4264 13.2208 54.0271 13.4507 50.6474 14.1843C49.9113 14.3433 49.7499 14.6245 49.8502 15.2555C49.8746 15.681 49.8869 16.109 49.9284 16.532C50.4004 21.5356 50.8749 26.5392 51.3493 31.5403C51.4936 33.0565 51.6501 34.5703 51.7968 36.0866C51.8335 36.473 51.9191 36.7297 52.4106 36.5537C54.9467 35.6366 57.5536 35.3456 60.229 35.6977C60.6546 35.754 60.838 35.6121 60.8575 35.1695C60.8918 34.4138 60.9676 33.6581 61.0385 32.9049C61.3882 29.2048 61.7722 25.5096 62.0876 21.8071C62.2955 19.3811 62.6477 16.9674 62.6844 14.5267L62.6819 14.5292ZM53.7337 63.8801C53.4769 65.2594 53.4696 66.6607 53.3057 68.0473C53.2446 68.5731 53.4207 68.7345 53.8853 68.8519C56.3993 69.4877 58.9133 69.5586 61.464 69.0744C62.1439 68.9448 62.2124 68.6685 62.1488 68.106C62.002 66.7781 61.8284 65.4453 61.7917 64.1124C61.7673 63.2687 61.4934 63.1195 60.6961 63.2149C58.3753 63.4937 56.0423 63.6771 53.7117 63.8972C53.6383 63.5964 53.8975 63.4717 54.0418 63.2981C55.2083 61.909 55.4382 60.3316 55.0885 58.5977C54.8806 57.5755 54.2741 56.7636 53.7068 55.8587C55.9983 56.0446 58.1846 56.2085 60.366 56.409C60.9064 56.4579 61.0507 56.3161 60.992 55.7682C60.7842 53.8607 60.6252 51.9483 60.4418 50.0384C60.4222 49.8427 60.2706 49.6495 60.5176 49.4808C60.794 49.2925 60.9016 49.5541 61.0458 49.6691C61.9458 50.3661 62.9607 50.6497 64.0954 50.706C65.7437 50.7867 67.1083 50.2095 68.358 48.9672C68.358 49.4392 68.3825 49.7351 68.3531 50.0261C68.1477 52.1171 67.9545 54.2104 67.7075 56.2965C67.639 56.8761 67.705 57.1011 68.3629 57.1329C69.9452 57.2062 71.525 57.3407 73.0975 57.5315C73.6746 57.6 73.8287 57.4068 73.9436 56.9103C74.4596 54.6531 74.5477 52.3959 74.0781 50.1166C73.7064 48.3045 73.7357 48.3387 71.9089 48.5906C70.8207 48.7398 69.7226 48.9281 68.4167 48.8694C69.6615 47.6246 69.9867 46.2258 70.0112 44.6851C70.0356 43.1175 68.8349 42.0537 68.5023 40.6475C65.7706 39.1802 63.0414 38.3365 60.2828 40.9043C60.3831 39.6962 60.4149 38.6935 60.5641 37.708C60.6423 37.1968 60.498 37.0305 60.0407 37.0061C57.534 36.8642 55.0592 36.9498 52.6674 37.8718C52.127 38.0797 51.9802 38.3145 52.056 38.8549C52.1612 39.6081 52.2174 40.3711 52.2492 41.1317C52.2664 41.5695 52.3837 41.6893 52.8484 41.6355C54.2693 41.4692 55.6974 41.3249 57.1256 41.254C58.099 41.2051 59.0698 40.9605 60.1068 41.0755C58.2506 43.7191 58.0501 46.2845 60.1777 48.9672C57.9889 48.7813 55.9347 48.6468 53.8951 48.4096C53.1712 48.3265 52.8875 48.4194 53.0025 49.202C53.1419 50.1337 53.2544 51.0753 53.3008 52.0168C53.3595 53.2127 53.6359 54.3988 53.5356 55.6973C50.8822 53.6895 48.307 53.604 45.6561 55.8172C45.8933 53.357 46.0963 51.0361 46.3531 48.7251C46.4264 48.0697 46.3604 47.6882 45.5778 47.6809C44.849 47.6735 44.1203 47.583 43.394 47.4926C42.9538 47.4388 42.8266 47.654 42.7068 48.0257C41.9217 50.4712 41.6625 52.9559 42.0196 55.5066C42.0978 56.0666 42.3326 56.2843 42.9122 56.206C43.7314 56.0984 44.5556 55.9199 45.4482 56.0911C45.3504 56.228 45.3064 56.3014 45.2501 56.365C43.6899 58.2187 43.6018 61.6816 45.3724 63.5084C47.5122 65.7143 50.217 66.1936 52.6894 64.6504C53.0612 64.4181 53.1981 63.8801 53.7312 63.8874L53.7337 63.8801ZM49.4882 15.4022C49.5518 14.6245 49.0603 14.4925 48.5027 14.6881C47.3997 15.077 46.2381 15.2677 45.1572 15.7397C42.8192 16.7619 40.5058 17.8233 38.3782 19.2515C36.7641 20.3349 35.2038 21.472 33.7267 22.7559C31.0293 25.1037 28.777 27.7986 26.8523 30.7871C25.4192 33.0125 24.1549 35.3407 23.2476 37.8327C22.558 39.728 21.9221 41.6502 21.6262 43.6628C21.5553 44.1422 21.6042 44.3941 22.1569 44.262C24.2283 44.2009 26.2801 43.9392 28.3417 43.7607C32.8023 43.3743 37.2605 42.9487 41.7285 42.6577C43.4331 42.5452 44.8466 42.1515 45.8053 40.6353C46.0058 40.3149 46.3751 40.0972 46.6856 39.8527C47.0671 39.5519 47.2726 39.1875 47.3117 38.6911C47.412 37.4169 47.5465 36.1428 47.6663 34.8711C48.2752 28.3831 48.8817 21.8927 49.4907 15.4047L49.4882 15.4022ZM66.0739 15.1405C65.7486 15.3386 65.9222 15.6345 65.9443 15.884C66.2989 19.7235 66.6681 23.5605 67.0276 27.3976C67.3578 30.9143 67.6781 34.4334 68.001 37.9525C68.0303 38.2875 68.0303 38.6055 68.336 38.8525C69.8498 40.0801 71.2193 41.3078 73.4618 41.3567C77.2304 41.4398 80.9892 41.9485 84.7504 42.2884C87.6606 42.5526 90.5684 42.8338 93.4761 43.1077C93.8405 43.1395 94.2024 43.1615 94.5668 43.2006C95.0828 43.2569 95.2711 42.9414 95.1366 42.5452C94.3027 40.1217 93.7696 37.6052 92.5786 35.2893C91.1382 32.4892 89.6073 29.7624 87.5824 27.3438C86.3669 25.8936 85.1857 24.3675 83.7478 23.1643C80.7226 20.6332 77.5777 18.2733 73.8727 16.7008C71.5886 15.7299 69.2457 15.0183 66.8882 14.3115C66.0323 14.0547 65.844 14.2919 66.0763 15.1381L66.0739 15.1405ZM94.0899 60.0651C91.6517 60.0406 89.2502 60.4612 86.8316 60.6667C82.7109 61.0213 78.6024 61.4908 74.4841 61.8601C73.7186 61.9286 73.2344 62.1633 72.7942 62.8285C71.4492 64.8559 69.8131 66.5922 67.6463 67.8174C67.0863 68.1329 66.4456 68.5609 66.3869 69.5097C66.2133 72.2707 65.8953 75.022 65.619 77.7757C65.2937 81.0307 64.9587 84.2808 64.6261 87.5358C64.6163 87.6581 64.6065 87.7779 64.5919 87.9002C64.4647 88.9933 64.5699 89.1719 65.5872 88.9346C66.519 88.717 67.4556 88.4871 68.3849 88.2499C72.5301 87.1934 76.2815 85.2688 79.8056 82.9455C82.1557 81.3975 84.2687 79.4777 86.1419 77.3477C88.4872 74.6796 90.5268 71.8012 92.0822 68.5902C93.2903 66.0982 94.3687 63.5622 94.9239 60.8305C95.1317 59.8083 95.1269 59.7936 94.0851 60.0675L94.0899 60.0651ZM71.613 62.2367C70.0699 62.2367 68.7297 62.4446 67.3847 62.6084C67.2575 62.6231 67.123 62.6451 67.1083 62.7845C66.9689 64.1149 66.8393 65.4477 66.6852 66.9835C68.7395 65.6874 70.2655 64.2127 71.613 62.2367Z" fill="#707070"/>
<path d="M21.7263 61.9384C22.7828 61.9384 23.8417 61.8871 24.8957 62.0265C24.502 62.0216 24.0887 62.0901 23.7145 61.9971C22.8782 61.7942 22.9833 62.1806 23.1594 62.7308C24.3284 66.4015 25.9864 69.8302 28.2143 72.9752C33.1103 79.8887 39.6105 84.6012 47.6808 87.1617C47.8227 87.8489 47.5072 88.003 46.9227 87.7829C45.3404 87.1886 43.8242 86.4501 42.2957 85.7384C40.8847 85.083 39.5274 84.364 38.1995 83.5766C36.605 82.6326 35.1914 81.4538 33.8122 80.2139C32.966 79.4534 32.0709 78.7491 31.2957 77.9102C29.4175 75.878 27.6641 73.7284 26.2701 71.3489C24.8419 68.9107 23.4113 66.4407 22.7583 63.6356C22.6409 63.1343 22.2912 62.8311 22.01 62.8922C21.9171 62.5743 21.8241 62.2539 21.7312 61.936L21.7263 61.9384Z" fill="#707070"/>
<path d="M85.6873 19.7554L85.6384 19.7529L85.6629 19.8361L85.6873 19.7554Z" fill="#707070"/>
<path d="M93.4761 43.1102C94.2734 43.2398 94.0361 42.7091 93.9408 42.335C93.2805 39.7647 92.4148 37.2629 91.1969 34.903C85.8289 24.5045 77.4896 17.8649 66.0739 15.143C65.8391 14.2969 66.0298 14.0597 66.8833 14.3164C69.2408 15.0232 71.5837 15.7348 73.8678 16.7057C77.5728 18.2782 80.7177 20.6382 83.7429 23.1693C85.1809 24.3725 86.3645 25.8985 87.5775 27.3487C89.5999 29.7649 91.1333 32.4917 92.5737 35.2943C93.7647 37.6126 94.2978 40.1266 95.1317 42.5502C95.2687 42.9463 95.078 43.2643 94.5619 43.2056C94.2 43.1664 93.8356 43.142 93.4712 43.1126L93.4761 43.1102Z" fill="#707070"/>
<path d="M64.6264 87.5357C64.5653 88.3085 65.0861 88.0712 65.4652 87.993C68.3387 87.4183 71.1266 86.5501 73.7531 85.254C84.4108 80.001 91.1751 71.5785 94.0878 60.0625C95.1296 59.791 95.1345 59.8033 94.9266 60.828C94.3715 63.5596 93.2905 66.0956 92.0849 68.5876C90.5295 71.7962 88.4899 74.677 86.1447 77.3451C84.2714 79.4776 82.1584 81.3949 79.8083 82.943C76.2843 85.2662 72.5328 87.1909 68.3876 88.2473C67.4583 88.4845 66.5217 88.712 65.5899 88.9321C64.5726 89.1717 64.4674 88.9908 64.5946 87.8976C64.6093 87.7778 64.6166 87.6555 64.6288 87.5332L64.6264 87.5357Z" fill="#707070"/>
<path d="M49.486 15.4C43.152 16.9163 37.6642 19.9952 32.9786 24.4828C27.2927 29.9265 23.7124 36.5466 22.1546 44.2623C21.6019 44.3943 21.553 44.1424 21.624 43.6631C21.9199 41.6504 22.5557 39.7282 23.2453 37.833C24.1526 35.3409 25.417 33.0152 26.8501 30.7874C28.7723 27.7989 31.0246 25.1015 33.7245 22.7562C35.2016 21.4723 36.7618 20.3351 38.3759 19.2518C40.5035 17.8236 42.817 16.7622 45.1549 15.74C46.2358 15.268 47.395 15.0772 48.5004 14.6884C49.0556 14.4927 49.5496 14.6224 49.486 15.4025V15.4Z" fill="#707070"/>
<path d="M94.2783 59.3166C95.122 55.0247 95.2981 50.7083 94.7381 46.365C95.5182 46.0642 95.7554 46.2134 95.8484 47.1574C96.2152 50.9113 96.0856 54.6285 95.4986 58.3481C95.3764 59.1185 95.1098 59.5245 94.2808 59.3166H94.2783Z" fill="#707070"/>
<path d="M51.4786 86.8018C51.4737 87.0439 51.5201 87.3031 51.4541 87.5281C51.3172 87.9927 51.5519 88.1077 51.9359 88.1713C55.7803 88.8022 59.6271 88.878 63.4911 88.3351C64.0535 88.2569 64.1049 87.9927 64.0291 87.5574C64.0413 87.6479 64.0584 87.7384 64.0633 87.8289C64.1587 89.3329 64.1489 89.2351 62.5373 89.3818C60.5589 89.5603 58.5878 89.6141 56.6093 89.5383C55.2741 89.487 53.9363 89.4038 52.6035 89.2986C51.662 89.2253 51.3905 88.8633 51.4321 87.8827C51.4468 87.5232 51.3001 87.1564 51.4761 86.8042L51.4786 86.8018Z" fill="#707070"/>
<path d="M62.2586 14.4952C58.0792 14.0624 53.9462 14.3485 49.8475 15.2558C49.7472 14.6248 49.9086 14.3436 50.6447 14.1846C54.0245 13.4534 57.4238 13.2211 60.8646 13.4852C61.1972 13.5097 61.542 13.583 61.8649 13.5292C62.7599 13.3825 62.9311 13.7689 62.6792 14.5295C62.5325 14.5172 62.3833 14.5075 62.2366 14.4952H62.2561H62.2586Z" fill="#707070"/>
<path d="M21.9273 57.5805C21.9493 57.6808 21.9737 57.781 21.9957 57.8813C21.7194 58.0207 21.3941 58.2335 21.311 57.7199C21.0884 56.3626 20.7583 55.0054 20.7314 53.6408C20.6898 51.5987 20.8732 49.5518 20.9564 47.5073C20.9735 47.0818 20.9368 46.649 20.9955 46.2283C21.0713 45.6928 21.3134 45.3088 21.9615 45.5534C21.2474 49.5543 21.3574 53.5552 21.9224 57.5585L21.9273 57.5781V57.5805Z" fill="#707070"/>
<path d="M46.5215 55.8097C48.6344 54.4451 50.6324 54.7068 52.4152 55.7339C54.1882 56.7561 54.9733 58.5193 54.7996 60.713C53.0168 56.558 51.3319 55.5358 46.5215 55.8097Z" fill="#707070"/>
<path d="M69.341 45.8249C68.1133 41.9243 65.4501 40.3616 61.4346 40.9143C62.3101 39.826 64.4793 39.6744 66.4919 40.4839C68.3579 41.2371 69.5733 43.4405 69.341 45.8225V45.8249Z" fill="#707070"/>
<path d="M62.2591 14.4951H62.2393V14.5473L62.2591 14.4951Z" fill="#707070"/>
<path d="M21.9273 57.5809L21.9224 57.5586L21.9621 57.566L21.9273 57.5809Z" fill="#707070"/>
</svg>
