<svg width="113" height="106" viewBox="0 0 113 106" fill="none" xmlns="http://www.w3.org/2000/svg">
<path d="M21.7265 62.1034C20.1124 61.7439 18.4617 61.7512 16.8281 61.5874C14.5244 61.355 12.2182 61.157 9.90965 60.9564C9.58195 60.9271 9.2518 60.9515 8.80671 60.9515C11.9835 71.5187 18.9117 78.892 28.0189 84.5241C26.395 84.1328 24.9204 83.4162 23.4579 82.6997C18.8408 80.44 14.5219 77.7157 10.7558 74.1892C6.72556 70.4182 3.41674 66.1263 1.57281 60.8537C-1.17598 52.9889 -0.268681 45.4639 3.87895 38.3059C7.15842 32.6444 11.8881 28.4039 17.2927 24.8505C19.8116 23.1949 22.4553 21.752 25.2334 20.5953C26.3975 20.1111 27.4955 19.4067 28.8552 19.3578C27.9553 19.9179 27.0431 20.4632 26.1554 21.0428C18.8554 25.8116 13.1378 31.9426 9.90231 40.1547C7.69888 45.7452 7.04837 51.5264 8.08039 57.4691C8.42521 59.4573 8.42765 59.3937 10.4452 59.1859C13.5975 58.8655 16.7572 58.6258 19.9168 58.3837C20.5477 58.3348 20.807 58.259 20.6871 57.4838C20.1565 54.0038 20.0415 50.5042 20.5306 47.0046C20.7214 45.6351 20.7214 45.6547 19.3078 45.5544C18.1951 45.4762 17.0849 45.3417 15.9819 45.0433C17.3881 44.9137 18.7894 44.7498 20.198 44.6691C20.7263 44.6398 20.8926 44.4906 21.0026 43.9624C22.6069 36.1391 26.214 29.3772 31.9488 23.8038C37.9551 17.9663 45.1132 14.4472 53.4353 13.31C56.2917 12.9187 59.1481 12.8698 62.0094 13.1511C62.6306 13.2122 62.9705 13.1193 63.0169 12.4003C63.1172 10.8816 63.308 9.36781 63.4131 7.84913C63.4987 6.59946 63.4498 6.55544 62.2295 6.43806C58.884 6.11769 55.5238 6.05655 52.1759 6.25709C46.5732 6.59457 41.0658 7.53366 35.7125 9.28711C26.4439 12.3269 18.2587 17.1373 11.4944 24.2122C6.43454 29.5019 3.03769 35.7649 0.990771 42.7763C0.968761 42.8497 0.902732 42.9084 0.68997 42.9475C0.763336 42.61 0.836702 42.2725 0.912514 41.9375C0.993216 41.5829 1.0837 41.2283 1.16685 40.8737C2.46054 35.3712 4.23355 30.0644 7.41275 25.3176C9.8265 21.7153 12.7758 18.5753 15.8865 15.5941C20.6578 11.0234 26.1725 7.55078 32.2227 4.91938C38.3097 2.27331 44.6827 0.820656 51.2955 0.324212C55.5116 0.00873786 59.7008 0.179925 63.89 0.681261C64.3131 0.732617 64.4843 0.867122 64.521 1.26819C64.8242 4.48407 65.1348 7.69751 65.4405 10.9134C65.4723 11.246 65.4943 11.581 65.5432 11.9136C65.8024 13.6744 65.8122 13.6377 67.5094 14.0804C69.0794 14.4912 70.5883 15.0708 72.1119 15.6455C82.613 19.6073 89.5804 27.0637 93.9212 37.22C94.672 38.9784 95.007 40.859 95.5988 42.6662C95.7994 43.2752 96.0464 43.4977 96.6431 43.5466C99.2256 43.7545 101.806 43.9648 104.381 44.2412C105.021 44.3097 105.004 43.9257 104.907 43.6273C103.209 38.4648 100.818 33.6813 97.2129 29.5533C94.9361 26.9463 92.3976 24.6426 89.6293 22.5664C88.4995 21.7178 87.2498 21.0673 86.0686 20.2236C86.6164 19.913 87.0517 20.2187 87.443 20.4363C89.2894 21.4683 91.2825 22.1849 93.1166 23.2536C99.228 26.8118 104.596 31.1918 108.435 37.2005C112.896 44.1825 114.224 51.6805 111.813 59.7337C111.02 62.3797 110.727 65.1456 109.966 67.8088C108.79 71.932 107.193 75.8449 104.76 79.4031C102.148 83.2231 99.2231 86.8009 95.8263 89.9165C87.6851 97.3876 78.1426 102.196 67.2697 104.282C62.1243 105.267 56.9276 105.502 51.7039 105.218C51.4006 105.201 51.0998 105.113 50.799 105.106C50.3711 105.098 50.3173 104.873 50.3417 104.511C50.4493 102.99 50.5447 101.472 50.6254 99.9481C50.6596 99.3147 50.8333 99.1484 51.562 99.2242C55.157 99.6081 58.7593 99.366 62.3346 98.9723C66.876 98.471 71.3416 97.5343 75.6922 96.1086C82.997 93.7144 89.644 90.1072 95.5695 85.2015C101.431 80.3471 106.041 74.534 108.937 67.4444C109.198 66.8037 109.568 66.1605 109.499 65.3731C104.085 74.3042 96.0244 79.9069 86.6286 83.8418C89.3187 82.081 91.8547 80.1197 94.1878 77.8893C100.397 71.954 104.479 64.8791 105.655 56.2854C106.124 52.8519 105.98 49.4135 105.347 45.9995C105.269 45.574 105.124 45.349 104.638 45.4028C102.126 45.6791 99.612 45.9531 97.0955 46.1878C96.467 46.2465 96.2885 46.474 96.3716 47.0976C96.9097 51.0936 96.67 55.0651 95.9852 59.0244C95.9486 59.2372 95.6453 59.5576 96.1173 59.6896C96.2616 59.7312 96.3594 59.8266 96.1564 59.8877C95.4888 60.0932 95.6013 60.7217 95.4839 61.1765C93.3147 69.6038 88.8565 76.5663 82.0775 82.0076C77.1742 85.9449 71.6057 88.4981 65.4111 89.6621C60.9578 90.4985 56.4996 90.4985 52.0414 89.7331C51.2979 89.6059 51.2343 89.9532 51.183 90.501C50.755 95.1426 50.3173 99.7818 49.8771 104.423C49.8526 104.68 49.9602 104.991 49.5665 105.184C49.207 103.303 49.163 101.408 48.9722 99.5323C48.6274 96.1379 48.3266 92.7386 48.0503 89.3369C48.0038 88.7744 47.6345 88.7255 47.2775 88.6155C43.7583 87.5419 40.4691 85.9816 37.4244 83.9176C30.0853 78.9458 25.0231 72.2426 22.1862 63.8495C22.1007 63.5927 22.0615 63.3188 22.0004 63.0547C22.2841 62.9911 22.6338 63.2968 22.7487 63.7981C23.4041 66.6056 24.8348 69.0756 26.2605 71.5114C27.6545 73.8909 29.4079 76.0405 31.2861 78.0727C32.0613 78.9116 32.9564 79.6159 33.8026 80.3764C35.1818 81.6139 36.5978 82.7926 38.1898 83.7391C39.5178 84.5265 40.875 85.2431 42.2861 85.9009C43.8146 86.6126 45.3308 87.3511 46.9131 87.9454C47.4976 88.1655 47.813 88.0114 47.6712 87.3242C47.7886 87.2557 47.8277 87.153 47.8155 87.021C47.6223 84.9618 47.434 82.9002 47.2383 80.8411C46.8935 77.1752 46.6001 73.5045 46.177 69.8484C45.9593 67.958 46.3873 65.8353 44.5116 64.4095C44.1887 64.1625 43.932 63.9253 43.5064 63.8886C38.9871 63.5145 34.4653 63.1574 29.9508 62.7294C28.261 62.5705 26.5515 62.5631 24.8837 62.189C23.8296 62.0496 22.7707 62.1009 21.7143 62.1009L21.7265 62.1034ZM64.027 87.7204C63.7017 84.2991 63.3789 80.8802 63.0487 77.4589C62.8433 75.3411 62.6306 73.2232 62.4153 71.1054C62.3787 70.7533 62.4153 70.3644 61.804 70.5063C59.1188 71.125 56.4287 71.0418 53.7679 70.3693C53.2054 70.2275 53.0563 70.4035 53.0147 70.8902C52.8239 73.0398 52.6381 75.1919 52.4327 77.3415C52.1245 80.5501 51.7968 83.7562 51.4789 86.9647C51.3004 87.3169 51.4496 87.6837 51.4349 88.0432C51.3933 89.0239 51.6623 89.3834 52.6063 89.4592C53.9391 89.5643 55.2744 89.6475 56.6121 89.6988C58.5905 89.7746 60.5616 89.7208 62.5401 89.5423C64.1517 89.3956 64.1615 89.4934 64.0661 87.9894C64.0612 87.8989 64.0416 87.8084 64.0318 87.7204H64.027ZM21.9613 45.7183C21.3132 45.4737 21.0686 45.8577 20.9928 46.3932C20.9341 46.8139 20.9708 47.2443 20.9537 47.6723C20.8705 49.7167 20.6871 51.7636 20.7287 53.8057C20.7556 55.1678 21.0858 56.5276 21.3083 57.8848C21.3914 58.3984 21.7191 58.1856 21.993 58.0462C22.1349 58.0805 22.2816 58.1538 22.4186 58.1416C28.3563 57.6183 34.2917 57.0754 40.2294 56.5765C40.8188 56.5276 40.7748 56.2659 40.7136 55.8819C40.3003 53.2187 40.5376 50.6045 41.3446 48.044C41.484 47.6038 41.4082 47.4522 40.9411 47.413C37.2728 47.1098 33.6069 46.8017 29.941 46.474C27.2779 46.2367 24.6171 45.9702 21.9539 45.7158L21.9613 45.7183ZM94.2758 59.4818C95.1048 59.6896 95.3739 59.2837 95.4937 58.5133C96.0831 54.7961 96.2127 51.0765 95.8434 47.3226C95.7505 46.3761 95.5133 46.227 94.7331 46.5302C94.3687 46.5302 94.0044 46.5057 93.6424 46.5424C90.764 46.8261 87.8881 47.122 85.0097 47.413C81.9503 47.7236 78.8934 48.0391 75.834 48.3423C75.2911 48.3961 75.0319 48.4989 75.2055 49.1836C75.8682 51.7906 75.8976 54.4317 75.3009 57.0533C75.137 57.7674 75.3253 57.9753 75.9759 57.9802C76.2204 57.9802 76.4625 57.9973 76.7071 58.0169C79.9523 58.2981 83.1975 58.5891 86.4452 58.8606C89.0546 59.0783 91.664 59.2763 94.2734 59.4818H94.2758ZM62.6819 14.6942C62.9338 13.9336 62.7626 13.5472 61.8675 13.694C61.5447 13.7478 61.1999 13.6744 60.8673 13.6499C57.4264 13.3858 54.0271 13.6157 50.6474 14.3494C49.9113 14.5083 49.7499 14.7896 49.8502 15.4205C49.8746 15.846 49.8869 16.274 49.9284 16.6971C50.4004 21.7007 50.8749 26.7042 51.3493 31.7054C51.4936 33.2216 51.6501 34.7354 51.7968 36.2516C51.8335 36.638 51.9191 36.8948 52.4106 36.7187C54.9467 35.8016 57.5536 35.5106 60.229 35.8628C60.6546 35.919 60.838 35.7772 60.8575 35.3345C60.8918 34.5789 60.9676 33.8232 61.0385 33.07C61.3882 29.3699 61.7722 25.6747 62.0876 21.9721C62.2955 19.5461 62.6477 17.1324 62.6844 14.6917L62.6819 14.6942ZM53.7337 64.0451C53.4769 65.4244 53.4696 66.8257 53.3057 68.2123C53.2446 68.7381 53.4207 68.8995 53.8853 69.0169C56.3993 69.6528 58.9133 69.7237 61.464 69.2395C62.1439 69.1099 62.2124 68.8335 62.1488 68.271C62.002 66.9431 61.8284 65.6103 61.7917 64.2775C61.7673 63.4338 61.4934 63.2846 60.6961 63.38C58.3753 63.6587 56.0423 63.8422 53.7117 64.0623C53.6383 63.7615 53.8975 63.6367 54.0418 63.4631C55.2083 62.074 55.4382 60.4967 55.0885 58.7628C54.8806 57.7405 54.2741 56.9286 53.7068 56.0238C55.9983 56.2096 58.1846 56.3735 60.366 56.574C60.9064 56.6229 61.0507 56.4811 60.992 55.9333C60.7842 54.0258 60.6252 52.1134 60.4418 50.2034C60.4222 50.0078 60.2706 49.8146 60.5176 49.6458C60.794 49.4575 60.9016 49.7192 61.0458 49.8341C61.9458 50.5311 62.9607 50.8148 64.0954 50.871C65.7437 50.9517 67.1083 50.3746 68.358 49.1323C68.358 49.6042 68.3825 49.9002 68.3531 50.1912C68.1477 52.2821 67.9545 54.3755 67.7075 56.4615C67.639 57.0411 67.705 57.2661 68.3629 57.2979C69.9452 57.3713 71.525 57.5058 73.0975 57.6965C73.6746 57.765 73.8287 57.5718 73.9436 57.0754C74.4596 54.8181 74.5477 52.5609 74.0781 50.2817C73.7064 48.4695 73.7357 48.5037 71.9089 48.7556C70.8207 48.9048 69.7226 49.0931 68.4167 49.0344C69.6615 47.7896 69.9867 46.3908 70.0112 44.8501C70.0356 43.2825 68.8349 42.2187 68.5023 40.8125C65.7706 39.3452 63.0414 38.5015 60.2828 41.0693C60.3831 39.8612 60.4149 38.8585 60.5641 37.873C60.6423 37.3619 60.498 37.1956 60.0407 37.1711C57.534 37.0293 55.0592 37.1149 52.6674 38.0368C52.127 38.2447 51.9802 38.4795 52.056 39.02C52.1612 39.7732 52.2174 40.5362 52.2492 41.2967C52.2664 41.7345 52.3837 41.8543 52.8484 41.8005C54.2693 41.6342 55.6974 41.4899 57.1256 41.419C58.099 41.3701 59.0698 41.1256 60.1068 41.2405C58.2506 43.8841 58.0501 46.4495 60.1777 49.1323C57.9889 48.9464 55.9347 48.8119 53.8951 48.5747C53.1712 48.4915 52.8875 48.5844 53.0025 49.367C53.1419 50.2988 53.2544 51.2403 53.3008 52.1818C53.3595 53.3777 53.6359 54.5638 53.5356 55.8624C50.8822 53.8546 48.307 53.769 45.6561 55.9822C45.8933 53.522 46.0963 51.2012 46.3531 48.8901C46.4264 48.2347 46.3604 47.8532 45.5778 47.8459C44.849 47.8386 44.1203 47.7481 43.394 47.6576C42.9538 47.6038 42.8266 47.819 42.7068 48.1907C41.9217 50.6363 41.6625 53.1209 42.0196 55.6716C42.0978 56.2316 42.3326 56.4493 42.9122 56.371C43.7314 56.2634 44.5556 56.0849 45.4482 56.2561C45.3504 56.3931 45.3064 56.4664 45.2501 56.53C43.6899 58.3837 43.6018 61.8466 45.3724 63.6734C47.5122 65.8793 50.217 66.3586 52.6894 64.8155C53.0612 64.5832 53.1981 64.0451 53.7312 64.0525L53.7337 64.0451ZM49.4882 15.5672C49.5518 14.7896 49.0603 14.6575 48.5027 14.8532C47.3997 15.242 46.2381 15.4327 45.1572 15.9047C42.8192 16.927 40.5058 17.9883 38.3782 19.4165C36.7641 20.4999 35.2038 21.6371 33.7267 22.921C31.0293 25.2687 28.777 27.9637 26.8523 30.9521C25.4192 33.1776 24.1549 35.5057 23.2476 37.9977C22.558 39.893 21.9221 41.8152 21.6262 43.8279C21.5553 44.3072 21.6042 44.5591 22.1569 44.427C24.2283 44.3659 26.2801 44.1042 28.3417 43.9257C32.8023 43.5393 37.2605 43.1138 41.7285 42.8228C43.4331 42.7103 44.8466 42.3165 45.8053 40.8003C46.0058 40.4799 46.3751 40.2623 46.6856 40.0177C47.0671 39.7169 47.2726 39.3525 47.3117 38.8561C47.412 37.582 47.5465 36.3078 47.6663 35.0362C48.2752 28.5482 48.8817 22.0577 49.4907 15.5697L49.4882 15.5672ZM66.0739 15.3056C65.7486 15.5037 65.9222 15.7996 65.9443 16.049C66.2989 19.8885 66.6681 23.7256 67.0276 27.5626C67.3578 31.0793 67.6781 34.5984 68.001 38.1175C68.0303 38.4526 68.0303 38.7705 68.336 39.0175C69.8498 40.2452 71.2193 41.4728 73.4618 41.5217C77.2304 41.6049 80.9892 42.1136 84.7504 42.4535C87.6606 42.7176 90.5684 42.9988 93.4761 43.2727C93.8405 43.3045 94.2024 43.3265 94.5668 43.3657C95.0828 43.4219 95.2711 43.1064 95.1366 42.7103C94.3027 40.2867 93.7696 37.7703 92.5786 35.4544C91.1382 32.6542 89.6073 29.9274 87.5824 27.5088C86.3669 26.0586 85.1857 24.5326 83.7478 23.3294C80.7226 20.7983 77.5777 18.4383 73.8727 16.8658C71.5886 15.8949 69.2457 15.1833 66.8882 14.4765C66.0323 14.2198 65.844 14.457 66.0763 15.3031L66.0739 15.3056ZM94.0899 60.2301C91.6517 60.2056 89.2502 60.6263 86.8316 60.8317C82.7109 61.1863 78.6024 61.6558 74.4841 62.0251C73.7186 62.0936 73.2344 62.3284 72.7942 62.9936C71.4492 65.0209 69.8131 66.7572 67.6463 67.9825C67.0863 68.2979 66.4456 68.7259 66.3869 69.6748C66.2133 72.4358 65.8953 75.187 65.619 77.9407C65.2937 81.1957 64.9587 84.4458 64.6261 87.7008C64.6163 87.8231 64.6065 87.9429 64.5919 88.0652C64.4647 89.1584 64.5699 89.3369 65.5872 89.0997C66.519 88.882 67.4556 88.6521 68.3849 88.4149C72.5301 87.3585 76.2815 85.4338 79.8056 83.1106C82.1557 81.5625 84.2687 79.6428 86.1419 77.5127C88.4872 74.8446 90.5268 71.9662 92.0822 68.7552C93.2903 66.2632 94.3687 63.7272 94.9239 60.9956C95.1317 59.9733 95.1269 59.9586 94.0851 60.2325L94.0899 60.2301ZM71.613 62.4017C70.0699 62.4017 68.7297 62.6096 67.3847 62.7735C67.2575 62.7881 67.123 62.8102 67.1083 62.9495C66.9689 64.2799 66.8393 65.6127 66.6852 67.1485C68.7395 65.8524 70.2655 64.3777 71.613 62.4017Z" fill="#0761AC"/>
<path d="M21.7263 62.1035C22.7828 62.1035 23.8417 62.0521 24.8957 62.1915C24.502 62.1866 24.0887 62.2551 23.7145 62.1622C22.8782 61.9592 22.9833 62.3456 23.1594 62.8958C24.3284 66.5666 25.9864 69.9952 28.2143 73.1402C33.1103 80.0537 39.6105 84.7663 47.6808 87.3268C47.8227 88.014 47.5072 88.168 46.9227 87.9479C45.3404 87.3537 43.8242 86.6151 42.2957 85.9035C40.8847 85.248 39.5274 84.5291 38.1995 83.7416C36.605 82.7976 35.1914 81.6189 33.8122 80.379C32.966 79.6184 32.0709 78.9141 31.2957 78.0753C29.4175 76.043 27.6641 73.8934 26.2701 71.5139C24.8419 69.0757 23.4113 66.6057 22.7583 63.8007C22.6409 63.2993 22.2912 62.9961 22.01 63.0572C21.9171 62.7393 21.8241 62.419 21.7312 62.101L21.7263 62.1035Z" fill="#292927"/>
<path d="M85.6873 19.9204L85.6384 19.918L85.6629 20.0011L85.6873 19.9204Z" fill="#0761AC"/>
<path d="M93.4761 43.2752C94.2734 43.4048 94.0361 42.8742 93.9408 42.5C93.2805 39.9297 92.4148 37.428 91.1969 35.068C85.8289 24.6696 77.4896 18.03 66.0739 15.3081C65.8391 14.4619 66.0298 14.2247 66.8833 14.4815C69.2408 15.1882 71.5837 15.8999 73.8678 16.8708C77.5728 18.4432 80.7177 20.8032 83.7429 23.3343C85.1809 24.5375 86.3645 26.0635 87.5775 27.5137C89.5999 29.9299 91.1333 32.6567 92.5737 35.4593C93.7647 37.7777 94.2978 40.2917 95.1317 42.7152C95.2687 43.1114 95.078 43.4293 94.5619 43.3706C94.2 43.3315 93.8356 43.307 93.4712 43.2777L93.4761 43.2752Z" fill="#292927"/>
<path d="M64.6264 87.7007C64.5653 88.4735 65.0861 88.2363 65.4652 88.158C68.3387 87.5833 71.1266 86.7152 73.7531 85.419C84.4108 80.166 91.1751 71.7436 94.0878 60.2275C95.1296 59.9561 95.1345 59.9683 94.9266 60.993C94.3715 63.7247 93.2905 66.2607 92.0849 68.7527C90.5295 71.9612 88.4899 74.8421 86.1447 77.5102C84.2714 79.6427 82.1584 81.56 79.8083 83.108C76.2843 85.4313 72.5328 87.3559 68.3876 88.4124C67.4583 88.6496 66.5217 88.877 65.5899 89.0971C64.5726 89.3368 64.4674 89.1558 64.5946 88.0627C64.6093 87.9428 64.6166 87.8205 64.6288 87.6983L64.6264 87.7007Z" fill="#292927"/>
<path d="M49.486 15.5651C43.152 17.0813 37.6642 20.1602 32.9786 24.6478C27.2927 30.0916 23.7124 36.7116 22.1546 44.4273C21.6019 44.5594 21.553 44.3075 21.624 43.8281C21.9199 41.8155 22.5557 39.8933 23.2453 37.998C24.1526 35.506 25.417 33.1803 26.8501 30.9524C28.7723 27.9639 31.0246 25.2665 33.7245 22.9213C35.2016 21.6373 36.7618 20.5002 38.3759 19.4168C40.5035 17.9886 42.817 16.9272 45.1549 15.905C46.2358 15.433 47.395 15.2423 48.5004 14.8534C49.0556 14.6578 49.5496 14.7874 49.486 15.5675V15.5651Z" fill="#292927"/>
<path d="M94.2783 59.4816C95.122 55.1897 95.2981 50.8733 94.7381 46.5301C95.5182 46.2293 95.7554 46.3784 95.8484 47.3224C96.2152 51.0763 96.0856 54.7935 95.4986 58.5132C95.3764 59.2835 95.1098 59.6895 94.2808 59.4816H94.2783Z" fill="#292927"/>
<path d="M51.4786 86.9668C51.4737 87.2089 51.5201 87.4681 51.4541 87.6931C51.3172 88.1578 51.5519 88.2727 51.9359 88.3363C55.7803 88.9672 59.6271 89.0431 63.4911 88.5001C64.0535 88.4219 64.1049 88.1578 64.0291 87.7225C64.0413 87.813 64.0584 87.9034 64.0633 87.9939C64.1587 89.4979 64.1489 89.4001 62.5373 89.5468C60.5589 89.7254 58.5878 89.7792 56.6093 89.7034C55.2741 89.652 53.9363 89.5688 52.6035 89.4637C51.662 89.3903 51.3905 89.0284 51.4321 88.0477C51.4468 87.6882 51.3001 87.3214 51.4761 86.9692L51.4786 86.9668Z" fill="#292927"/>
<path d="M62.2586 14.6603C58.0792 14.2274 53.9462 14.5135 49.8475 15.4208C49.7472 14.7899 49.9086 14.5086 50.6447 14.3497C54.0245 13.6185 57.4238 13.3861 60.8646 13.6503C61.1972 13.6747 61.542 13.7481 61.8649 13.6943C62.7599 13.5476 62.9311 13.9339 62.6792 14.6945C62.5325 14.6823 62.3833 14.6725 62.2366 14.6603H62.2561H62.2586Z" fill="#292927"/>
<path d="M21.9273 57.7456C21.9493 57.8458 21.9737 57.9461 21.9957 58.0464C21.7194 58.1858 21.3941 58.3985 21.311 57.885C21.0884 56.5277 20.7583 55.1704 20.7314 53.8058C20.6898 51.7638 20.8732 49.7169 20.9564 47.6724C20.9735 47.2469 20.9368 46.814 20.9955 46.3934C21.0713 45.8578 21.3134 45.4739 21.9615 45.7184C21.2474 49.7193 21.3574 53.7202 21.9224 57.7235L21.9273 57.7431V57.7456Z" fill="#292927"/>
<path d="M46.5215 55.9747C48.6344 54.6101 50.6324 54.8718 52.4152 55.8989C54.1882 56.9212 54.9733 58.6844 54.7996 60.878C53.0168 56.7231 51.3319 55.7008 46.5215 55.9747Z" fill="#0761AC"/>
<path d="M69.341 45.99C68.1133 42.0893 65.4501 40.5266 61.4346 41.0793C62.3101 39.9911 64.4793 39.8394 66.4919 40.6489C68.3579 41.4021 69.5733 43.6056 69.341 45.9875V45.99Z" fill="#0761AC"/>
<path d="M62.2591 14.6602H62.2393V14.7123L62.2591 14.6602Z" fill="#0761AC"/>
<path d="M21.9273 57.746L21.9224 57.7236L21.9621 57.7311L21.9273 57.746Z" fill="#0761AC"/>
</svg>
