<svg xmlns="http://www.w3.org/2000/svg" width="15" height="20" fill="none"><path d="M7.499 14.258a2.355 2.355 0 01-2.36-2.344 2.355 2.355 0 012.36-2.344 2.355 2.355 0 012.36 2.344 2.355 2.355 0 01-2.36 2.344zm0-3.828c-.824 0-1.495.666-1.495 1.484 0 .819.67 1.484 1.495 1.484.824 0 1.495-.665 1.495-1.484 0-.818-.671-1.484-1.495-1.484z" fill="#707070"/><path d="M14.497.5a1.711 1.711 0 00-1.215-.5H4.288a.434.434 0 00-.306.126L.127 3.954A.428.428 0 000 4.258v14.036C0 19.234.77 20 1.718 20h11.564A1.71 1.71 0 0015 18.294V1.706C15 1.25 14.821.82 14.497.5zM4.467.86h.03v2.76a.85.85 0 01-.852.846H.865v-.03L4.467.859zm9.668 17.434a.849.849 0 01-.852.846H1.717a.85.85 0 01-.853-.846V5.326h2.78c.947 0 1.718-.766 1.718-1.706V.86h7.92a.849.849 0 01.852.846v16.588z" fill="#707070"/><path d="M7.501 17.448c-.38 0-.762-.04-1.14-.117a.43.43 0 01-.344-.421v-.505a4.776 4.776 0 01-.664-.274l-.36.358a.435.435 0 01-.543.055 5.523 5.523 0 01-1.612-1.6.428.428 0 01.056-.54l.36-.357a4.706 4.706 0 01-.275-.66h-.51a.432.432 0 01-.423-.341 5.465 5.465 0 010-2.264.432.432 0 01.424-.342h.509c.075-.227.166-.447.275-.66l-.36-.357a.427.427 0 01-.056-.54 5.522 5.522 0 011.612-1.6.435.435 0 01.543.056l.36.357c.214-.108.436-.2.664-.273v-.506a.43.43 0 01.344-.42 5.58 5.58 0 012.28 0 .43.43 0 01.344.42v.506c.228.074.45.165.665.273l.36-.357a.435.435 0 01.542-.056c.647.42 1.19.959 1.612 1.6a.427.427 0 01-.056.54l-.36.357c.109.213.2.433.276.66h.508c.205 0 .382.142.424.342a5.466 5.466 0 010 2.264.432.432 0 01-.424.341h-.508a4.71 4.71 0 01-.276.66l.36.357a.428.428 0 01.056.54 5.523 5.523 0 01-1.612 1.6.435.435 0 01-.543-.055l-.36-.358a4.776 4.776 0 01-.664.274v.505a.43.43 0 01-.344.42 5.6 5.6 0 01-1.14.118zm-.619-.9a4.75 4.75 0 001.238 0v-.466a.43.43 0 01.327-.417 3.912 3.912 0 001.056-.434.435.435 0 01.529.064l.331.33c.33-.25.623-.541.875-.869l-.331-.33a.428.428 0 01-.066-.524 3.83 3.83 0 00.438-1.049.432.432 0 01.42-.325h.469c.055-.409.055-.82 0-1.229h-.47a.432.432 0 01-.42-.325 3.856 3.856 0 00-.437-1.049.427.427 0 01.066-.524l.331-.33a4.647 4.647 0 00-.875-.869l-.331.33a.435.435 0 01-.529.065 3.912 3.912 0 00-1.056-.435.43.43 0 01-.327-.417V7.28a4.7 4.7 0 00-1.238 0v.466a.43.43 0 01-.327.417 3.91 3.91 0 00-1.056.435.435.435 0 01-.528-.065l-.332-.33c-.33.25-.623.541-.875.87l.332.329c.14.139.167.355.065.524a3.86 3.86 0 00-.437 1.049.432.432 0 01-.42.325h-.47c-.054.409-.054.82 0 1.229h.47c.198 0 .371.134.42.325.093.369.24.722.437 1.049a.427.427 0 01-.065.525l-.332.329c.252.328.545.618.875.869l.332-.33a.435.435 0 01.528-.065c.33.196.685.343 1.056.435a.43.43 0 01.327.417v.466z" fill="#C8102E"/></svg>