<svg width="115" height="115" fill="none" xmlns="http://www.w3.org/2000/svg"><path d="M.176 57.207C-2.215 32.405 19.947.142 56.94 0c31.523-.124 57.246 25.86 57.24 57.314 0 31.523-25.7 56.884-57.342 57.088-34.416.22-58.868-30.178-56.663-57.195z" fill="#707070"/><path d="M102.583 57.184c.057 25.498-20.252 45.97-45.642 46.009-25.44.04-45.919-20.364-45.952-45.777-.034-25.486 20.274-45.913 45.704-45.97 25.474-.056 45.834 20.235 45.89 45.738z" fill="#DADADA"/><path d="M29.923 51.503c4.398-21.602 30.822-27.916 43.534-15.764-16.08 16.386-26.108 23.265-42.002 16.804-.695-.073-1.215-.412-1.532-1.04z" fill="#707070"/><path d="M29.923 51.504c.51.345 1.459.43 1.532 1.04.893 7.291-.768 8.54-1.317 12.796l.108-.124c-2.222-.107-4.54.158-6.636-.407-3.883-1.04-9.88-2.097-10.027-5.584-.192-4.38 5.166-7.546 8.744-10.406 2.803-2.244 4.844 2.221 7.602 2.685h-.006zm31.523 2.843c-6.732 5.952-13.724 11.632-20.1 17.946-4.73 4.685-6.985 2.583-9.071-2.086-.73-1.633-1.357-3.323-2.024-4.985l-.107.124c12.328 1.735 21.62-4.126 30.087-12.034.622.09 1.029.436 1.215 1.035z" fill="#707070"/><path d="M61.446 54.347c-.407-.345-.814-.69-1.215-1.034 3.854-3.414 7.681-6.862 11.57-10.231 5.844-5.07 6.048-5.008 9.863 1.978.639 1.165 1.38 2.273 2.091 3.392.012-.017.119-.142.125-.153-7.54 1.74-15.6 1.605-22.428 6.048h-.006zm22.23 8.23c-4.476 21.585-30.923 27.797-43.595 15.6C56.223 61.853 66.273 55.014 82.144 61.53c.696.079 1.216.412 1.532 1.046z" fill="#707070"/><path d="M83.676 62.576c-.508-.35-1.458-.435-1.532-1.045-.864-7.292.803-8.54 1.368-12.791l-.107.124c2.221.119 4.539-.141 6.636.43 3.877 1.057 9.868 2.136 10.01 5.624.175 4.38-5.195 7.523-8.784 10.377-2.815 2.238-4.838-2.238-7.59-2.713v-.006zM25.362 33.377l-1.006 1.504 4.346 2.91-.751 1.126-4.347-2.911-1.006 1.498-.916-.617 2.764-4.126.916.616zm7.298-.379l-2.5 2.798-4.724-4.216 2.396-2.69.825.734-1.497 1.684 1.113.995 1.396-1.56.82.735-1.396 1.56 1.141 1.023 1.6-1.792.825.735v-.006zm4.492-3.843l-1.232 1.028-2.221-.887a1.863 1.863 0 01-.362-.237l-.011.01c.045.091.102.233.158.42l.464 2.334-1.238 1.034-.47-3.736-3.453-1.238 1.26-1.051 1.967.881a3.3 3.3 0 01.487.277l.01-.01a5.375 5.375 0 01-.186-.555l-.43-2.142 1.16-.967.542 3.64 3.555 1.193v.006zm5.127-2.968l-1.17.673-1.3-2.267-2.346 1.34 1.3 2.267-1.17.672-3.142-5.5 1.17-.672 1.271 2.216 2.34-1.34-1.271-2.221 1.17-.673 3.142 5.5.006.005zm-.254-3.295c-.322-.938-.305-1.797.045-2.572.35-.774.972-1.317 1.87-1.622.86-.294 1.646-.243 2.364.153.717.39 1.226 1.034 1.531 1.933.317.933.306 1.786-.04 2.549-.344.769-.955 1.3-1.836 1.6-.86.294-1.656.248-2.38-.136-.723-.384-1.243-1.018-1.543-1.905h-.011zm1.317-.526c.198.583.503 1.012.91 1.29.407.276.853.327 1.345.163.503-.17.83-.48.99-.932.157-.453.135-.973-.069-1.572-.214-.622-.514-1.074-.91-1.345-.395-.271-.836-.322-1.328-.153-.503.17-.83.492-.995.961-.164.47-.141 1 .063 1.588h-.006zm8.314-.966l-2.38.435-.17-.915 2.38-.436.17.916zm6.868 1.504l-1.351.05-.187-5.143-2.696.096.187 5.143-1.351.051-.226-6.33 5.398-.192.226 6.33v-.005zm1.277-3.041c.153-.984.56-1.735 1.227-2.261.666-.526 1.47-.718 2.413-.577.893.136 1.571.549 2.024 1.227.452.678.61 1.486.463 2.42-.153.977-.554 1.723-1.215 2.243-.661.52-1.453.712-2.368.57-.9-.135-1.583-.542-2.052-1.22-.47-.678-.633-1.475-.492-2.402zm1.413.141c-.096.61-.023 1.13.21 1.56.23.43.604.69 1.118.763.52.08.956-.045 1.306-.367.35-.328.57-.803.667-1.425.102-.65.04-1.187-.186-1.61-.227-.424-.594-.673-1.108-.752-.526-.08-.967.05-1.323.39-.362.339-.588.82-.684 1.436v.005zm9.79 5.782l-1.272-.446 1.73-4.906-1.244-.441c-1.097 2.114-1.877 3.397-2.334 3.855-.464.457-.99.582-1.583.373a2.305 2.305 0 01-.667-.368l.362-1.023c.141.119.271.198.39.238a.49.49 0 00.271.01c.096-.022.215-.1.35-.23.142-.13.357-.42.65-.871.294-.452.605-.995.945-1.628l.955-1.792 3.55 1.255-2.109 5.974h.006zm5.957 3.324l-1.102-.645 1.82-3.108c.187-.322.373-.605.549-.848l-.023-.017c-.085.062-.26.158-.52.294l-4.386 2.182-1.187-.696 3.199-5.465 1.102.644-1.825 3.114c-.22.38-.38.622-.475.735h.011l4.776-2.396 1.266.74-3.199 5.466h-.006zm5.257 4.578l2.611-2.82c.243-.26.554-.577.95-.944l-.023-.023c-.333.243-.57.396-.695.464l-4.115 2.142-.791-.73 1.775-4.25c.04-.101.186-.356.435-.763l-.028-.022c-.334.412-.684.82-1.046 1.21l-2.43 2.628-.894-.826 4.302-4.652 1.441 1.334-1.6 3.737c-.13.31-.277.582-.435.814l.023.017c.3-.198.565-.357.802-.481l3.6-1.87 1.403 1.294-4.302 4.651-.978-.904-.005-.006zm3.905 4.945l-2.238-3.006 5.081-3.782 2.148 2.894-.887.662-1.345-1.81-1.199.894 1.25 1.678-.882.656-1.25-1.678-1.232.915L87 37.984l-.887.66.011-.01zm3.03.843l-1.944 1.051-.645-1.187 5.568-3.018 1.04 1.916c.752 1.385.537 2.396-.633 3.035-.571.311-1.142.35-1.713.119-.57-.232-1.017-.667-1.345-1.3l-.334-.61.006-.006zm2.708-1.47l-1.798.972.277.515c.379.695.87.881 1.475.554.594-.323.701-.826.328-1.515l-.282-.526zm-.651 40.278l.843-1.6-4.63-2.435.628-1.199 4.63 2.436.836-1.594.978.515-2.312 4.392-.978-.515h.006zm-7.212 1.142l2.188-3.047 5.143 3.697-2.103 2.928-.898-.645 1.311-1.83-1.215-.871-1.221 1.701-.893-.639 1.22-1.701-1.243-.893-1.402 1.95-.898-.644.011-.006zm-3.51 4.058c.159-.486.492-1 1.006-1.531.662-.69 1.39-1.035 2.193-1.04.803-.006 1.544.316 2.227.978.718.695 1.091 1.486 1.12 2.38.028.892-.306 1.695-.995 2.407-.43.447-.848.763-1.25.95l-.938-.905a2.873 2.873 0 001.283-.785c.43-.447.633-.939.605-1.481-.028-.543-.271-1.035-.729-1.476-.447-.43-.933-.65-1.447-.66-.514-.012-.983.203-1.402.632-.39.407-.65.87-.774 1.396l-.893-.859-.006-.006zm-5.16 3.618l1.09-.797 1.544 2.108 2.176-1.594-1.543-2.108 1.09-.797 3.742 5.11-1.09.797-1.51-2.063-2.176 1.594 1.51 2.063-1.091.796-3.742-5.11zM69.19 90.12l1.249-.588 4.165 2.578a5.4 5.4 0 01.492.339l.017-.011a11.688 11.688 0 01-.463-.9l-1.527-3.26 1.16-.543 2.684 5.737-1.334.622-4.03-2.51c-.266-.17-.435-.277-.497-.322l-.017.011c.09.124.226.385.407.775l1.531 3.272-1.158.543-2.685-5.737.005-.006zm-.023 3.29c.237.96.152 1.814-.26 2.56-.413.746-1.08 1.232-2.007 1.458-.876.215-1.656.102-2.34-.35-.678-.452-1.136-1.136-1.362-2.058-.237-.955-.153-1.803.26-2.537.407-.735 1.063-1.216 1.967-1.436.882-.22 1.667-.107 2.363.334.695.44 1.153 1.119 1.379 2.029zm-1.362.412c-.147-.599-.413-1.051-.797-1.362-.385-.31-.826-.401-1.329-.277-.514.124-.87.407-1.062.842-.198.435-.22.961-.068 1.572.158.638.424 1.113.791 1.413.368.305.808.39 1.312.265.514-.124.87-.418 1.073-.87.204-.452.227-.984.08-1.588v.005zm-8.365.254l2.407-.231.09.927-2.407.231-.09-.927zm-2.76.306l.063-2.21 1.351.04-.18 6.33-2.177-.062c-1.577-.046-2.346-.735-2.306-2.069.017-.65.271-1.164.757-1.537s1.085-.549 1.803-.51l.696.024-.006-.006zm-.09 3.08l.057-2.046-.582-.017c-.791-.022-1.198.311-1.221 1-.017.673.362 1.024 1.147 1.046l.6.017zm-3.973-2.345c-.198.972-.639 1.706-1.334 2.204-.69.497-1.503.65-2.436.463-.887-.18-1.543-.621-1.961-1.317-.424-.7-.537-1.514-.35-2.441.197-.967.632-1.696 1.322-2.182.684-.486 1.48-.639 2.39-.458.888.18 1.555.616 1.99 1.317.436.695.566 1.504.38 2.425v-.011zm-1.407-.21c.124-.604.073-1.124-.136-1.57-.215-.442-.576-.713-1.08-.82-.52-.108-.96 0-1.322.305-.362.305-.605.774-.735 1.396-.13.644-.096 1.187.113 1.616.204.43.56.701 1.074.803.52.107.966 0 1.34-.328.378-.322.627-.791.751-1.407l-.005.005zm-8.303-5.697l3.481 1.306-2.227 5.929-1.266-.475 1.843-4.895-2.216-.83.39-1.035h-.005zm-7.139 3.414l3.719-2.651 1.046-2.007 1.198.622-1.034 1.984-.113 4.561-1.368-.712.175-2.64c0-.05.034-.226.096-.514h-.017a2.385 2.385 0 01-.345.362l-2.091 1.65-1.272-.66.006.005zm-2.024-9.422l-2.402 3.001c-.22.277-.514.616-.876 1.012l.023.022c.316-.265.537-.435.66-.514l3.952-2.43.836.672-1.47 4.364c-.033.107-.163.367-.378.791l.028.023c.306-.436.622-.865.961-1.283l2.238-2.798.95.763-3.962 4.946-1.532-1.227 1.328-3.843c.108-.317.232-.6.373-.843l-.022-.017a9.408 9.408 0 01-.769.537l-3.46 2.126-1.491-1.193 3.962-4.946 1.04.831.011.006zm-4.239-4.646l2.447 2.843-4.798 4.132-2.352-2.73.837-.718 1.47 1.707 1.13-.973-1.368-1.588.837-.718 1.368 1.589 1.164-1-1.566-1.82.837-.719-.006-.005zm-3.295-5.088l.83 1.312-.858 1.718c-.181.356-.277.616-.289.774a.733.733 0 00.096.43l.22.345 2.075-1.312.724 1.142-5.353 3.386-1.187-1.877c-.803-1.271-.724-2.215.243-2.831a1.676 1.676 0 011.142-.272c.395.051.763.226 1.108.531l.01-.01c-.073-.3.03-.747.3-1.335l.95-2.012-.011.011zm-2.414 6.11l1.543-.972-.356-.56c-.17-.265-.384-.435-.639-.497a.917.917 0 00-.734.125c-.486.305-.543.746-.175 1.328l.367.582-.006-.006z" fill="#707070"/></svg>