<svg width="100" height="99" fill="none" xmlns="http://www.w3.org/2000/svg"><path d="M.154 49.505C-1.94 28.042 17.47.123 49.869 0 77.477-.107 100.005 22.378 100 49.597 100 76.876 77.491 98.823 49.78 99 19.638 99.189-1.777 72.885.154 49.505z" fill="#707070"/><path d="M89.842 49.485c.05 22.064-17.737 39.78-39.973 39.815-22.281.034-40.216-17.623-40.245-39.614C9.594 27.63 27.38 9.953 49.65 9.905c22.31-.05 40.142 17.51 40.191 39.579z" fill="#DADADA"/><path d="M26.207 44.57c3.851-18.695 26.994-24.159 38.127-13.642C50.25 45.108 41.469 51.06 27.549 45.469c-.61-.063-1.065-.357-1.342-.9z" fill="#707070"/><path d="M26.207 44.57c.446.298 1.277.371 1.342.9.782 6.309-.674 7.39-1.154 11.073l.094-.108c-1.945-.093-3.975.137-5.811-.352-3.401-.9-8.653-1.814-8.782-4.832-.168-3.791 4.524-6.53 7.658-9.005 2.455-1.942 4.242 1.922 6.658 2.323h-.005zm27.607 2.46c-5.895 5.15-12.019 10.066-17.603 15.53-4.143 4.054-6.118 2.235-7.945-1.806-.638-1.413-1.188-2.876-1.772-4.314l-.094.108c10.796 1.502 18.934-3.57 26.35-10.413.544.078.9.376 1.064.895z" fill="#707070"/><path d="M53.814 47.03c-.356-.299-.712-.597-1.064-.895 3.376-2.955 6.727-5.938 10.133-8.854 5.119-4.387 5.297-4.333 8.638 1.712.56 1.008 1.208 1.966 1.832 2.935.01-.015.104-.122.109-.132-6.604 1.506-13.663 1.389-19.643 5.234h-.005zm19.47 7.121c-3.92 18.68-27.083 24.055-38.182 13.5 14.138-14.126 22.94-20.044 36.84-14.405.609.069 1.064.357 1.342.905z" fill="#707070"/><path d="M73.283 54.151c-.445-.303-1.277-.376-1.341-.905-.758-6.31.703-7.39 1.198-11.069l-.094.108c1.945.103 3.975-.122 5.811.372 3.396.915 8.643 1.849 8.767 4.867.154 3.79-4.55 6.51-7.692 8.98-2.466 1.937-4.238-1.937-6.649-2.348v-.005zM22.212 28.883l-.881 1.301 3.806 2.52-.658.973-3.807-2.52-.88 1.297-.803-.533 2.42-3.57.803.532zm6.391-.327l-2.188 2.42-4.139-3.648 2.1-2.328.722.636-1.312 1.457.975.861 1.223-1.35.718.636-1.223 1.35 1 .885 1.401-1.55.723.636v-.005zm3.935-3.326l-1.08.89-1.945-.768a1.642 1.642 0 01-.317-.206l-.01.01c.04.078.09.2.14.362l.405 2.02-1.084.895-.411-3.233-3.025-1.071 1.104-.91 1.723.763c.139.064.282.142.426.24l.01-.01a4.539 4.539 0 01-.164-.48l-.376-1.853 1.015-.837.475 3.15 3.114 1.032v.005zm4.49-2.568l-1.025.582-1.139-1.962-2.054 1.16 1.138 1.96-1.024.583-2.753-4.76 1.025-.581 1.114 1.917 2.05-1.16-1.114-1.921 1.024-.582 2.752 4.759.006.005zm-.223-2.852c-.282-.812-.267-1.555.04-2.226.307-.67.851-1.14 1.638-1.403.753-.255 1.44-.21 2.07.132.628.337 1.074.895 1.34 1.672.278.808.268 1.546-.034 2.207-.302.665-.836 1.125-1.609 1.384-.752.254-1.45.215-2.084-.118-.633-.332-1.089-.88-1.351-1.648h-.01zm1.154-.455c.173.504.44.876.796 1.115.357.24.748.284 1.179.142.44-.147.727-.416.866-.807.139-.391.119-.841-.06-1.36-.188-.538-.45-.929-.797-1.164-.346-.235-.732-.279-1.163-.132-.44.147-.727.426-.871.832-.144.406-.124.865.054 1.374h-.005zm7.281-.836l-2.084.376-.148-.792 2.084-.377.148.793zm6.015 1.301l-1.184.044-.163-4.451-2.361.083.163 4.45-1.183.045-.198-5.478 4.728-.167.198 5.479v-.005zm1.118-2.632c.134-.85.49-1.501 1.075-1.956.584-.455 1.287-.621 2.114-.499.782.117 1.376.474 1.772 1.061.396.587.534 1.287.406 2.094-.134.846-.486 1.492-1.065 1.942-.579.45-1.272.616-2.074.494-.787-.118-1.386-.47-1.797-1.057-.41-.587-.554-1.276-.43-2.079zm1.238.123c-.084.528-.02.978.183 1.35.203.371.53.596.98.66.456.068.837-.04 1.144-.318.307-.284.5-.695.584-1.233.09-.562.035-1.027-.163-1.394-.198-.366-.52-.582-.97-.65-.46-.069-.847.044-1.159.337-.317.294-.515.71-.599 1.243v.005zm8.574 5.003l-1.114-.386 1.515-4.246-1.09-.381c-.96 1.829-1.643 2.94-2.044 3.336-.406.396-.866.503-1.386.322a2.024 2.024 0 01-.584-.318l.317-.885c.123.103.237.171.341.206a.447.447 0 00.238.01c.084-.02.188-.089.307-.201.124-.113.312-.362.57-.754.256-.39.529-.86.826-1.408l.836-1.55 3.11 1.085-1.847 5.17h.005zm5.218 2.876l-.966-.557 1.594-2.69c.164-.28.327-.524.48-.734l-.02-.015a4.43 4.43 0 01-.455.255l-3.841 1.888-1.04-.602 2.802-4.73.965.558-1.599 2.695c-.193.328-.331.538-.415.636h.01L69.1 19.82l1.11.64-2.802 4.73h-.005zm4.603 3.962l2.287-2.44c.213-.225.485-.5.832-.817l-.02-.02c-.292.21-.5.343-.609.401l-3.603 1.854-.694-.63 1.555-3.679c.034-.088.163-.308.381-.66l-.025-.02c-.292.357-.599.71-.916 1.047l-2.128 2.274-.782-.714 3.767-4.025 1.262 1.154-1.4 3.233a3.93 3.93 0 01-.382.704l.02.015c.262-.171.495-.308.703-.416l3.153-1.619 1.228 1.12-3.767 4.026-.857-.783-.005-.005zm3.421 4.28l-1.96-2.602 4.45-3.272 1.88 2.504-.776.572-1.179-1.565-1.05.773 1.095 1.453-.772.567-1.094-1.452-1.08.792 1.253 1.668-.777.572.01-.01zm2.653.728l-1.703.91-.564-1.026 4.876-2.612.91 1.658c.66 1.198.471 2.074-.554 2.626-.5.27-1 .304-1.5.103-.5-.2-.89-.577-1.178-1.125l-.292-.528.005-.005zm2.371-1.27l-1.574.84.243.446c.331.601.762.763 1.292.479.52-.279.614-.714.287-1.31l-.248-.456zm-.569 34.854l.738-1.384-4.055-2.108.55-1.037 4.054 2.108.733-1.38.856.446-2.024 3.8-.857-.445h.005zm-6.316.988l1.915-2.636 4.505 3.199-1.842 2.533-.787-.557 1.149-1.585-1.064-.753-1.07 1.472-.782-.553 1.07-1.472-1.09-.773-1.227 1.688-.787-.558.01-.005zm-3.075 3.512c.139-.42.43-.866.881-1.325.58-.597 1.218-.895 1.921-.9.703-.005 1.351.273 1.95.846.63.601.956 1.286.98 2.059.025.773-.267 1.467-.87 2.084-.377.386-.743.66-1.095.821l-.821-.782a2.522 2.522 0 001.123-.68c.376-.386.555-.812.53-1.282-.025-.47-.238-.895-.639-1.276-.39-.372-.816-.563-1.267-.572-.45-.01-.861.176-1.227.547-.342.352-.57.754-.679 1.209l-.782-.744-.005-.005zm-4.519 3.131l.955-.69 1.351 1.824 1.906-1.379-1.351-1.824.955-.69 3.277 4.422-.955.69-1.322-1.786-1.906 1.38 1.322 1.785-.955.69-3.277-4.422zm-5.376 2.611l1.094-.508 3.648 2.23c.188.117.332.215.43.293l.016-.01a10.07 10.07 0 01-.406-.777l-1.337-2.822 1.015-.47 2.351 4.965-1.168.538-3.53-2.172c-.232-.147-.38-.24-.435-.279l-.015.01c.08.108.198.333.356.67l1.342 2.832-1.015.47-2.351-4.965.005-.005zm-.02 2.847c.208.832.134 1.57-.228 2.216-.361.645-.945 1.066-1.757 1.262-.767.186-1.45.088-2.05-.304-.593-.39-.994-.983-1.192-1.78-.208-.827-.134-1.56.227-2.196.357-.636.93-1.052 1.723-1.242.772-.191 1.46-.093 2.07.288.608.382 1.009.969 1.207 1.756zm-1.193.357c-.129-.518-.361-.91-.698-1.179-.337-.269-.723-.347-1.163-.24-.45.108-.763.353-.931.73-.173.376-.193.831-.06 1.36.14.552.372.963.694 1.222.321.264.708.338 1.148.23.45-.108.763-.362.94-.753.179-.392.199-.851.07-1.375v.005zm-7.326.22l2.108-.2.08.802-2.11.2-.078-.802zm-2.416.264l.055-1.912 1.183.034-.159 5.478-1.906-.053c-1.38-.04-2.054-.636-2.02-1.79.016-.563.238-1.008.664-1.331.426-.323.95-.474 1.58-.44l.608.02-.005-.006zm-.08 2.666l.05-1.77-.51-.015c-.693-.02-1.049.269-1.069.866-.015.582.317.885 1.005.904l.525.015zm-3.479-2.03c-.174.841-.56 1.477-1.169 1.908-.603.43-1.316.562-2.133.4-.777-.156-1.352-.537-1.718-1.139-.371-.606-.47-1.31-.307-2.113.173-.836.555-1.467 1.158-1.888.6-.42 1.298-.552 2.095-.396.777.157 1.36.533 1.742 1.14.381.601.495 1.3.332 2.098v-.01zm-1.233-.18c.109-.524.064-.974-.119-1.36-.188-.382-.505-.617-.945-.71-.456-.093-.842 0-1.159.264-.316.264-.53.67-.643 1.209-.114.557-.084 1.027.099 1.398.178.372.49.607.94.695.456.093.847 0 1.174-.284.331-.279.55-.684.658-1.218l-.005.005zm-7.272-4.931l3.05 1.13-1.95 5.13-1.11-.41 1.614-4.236-1.94-.719.341-.895h-.005zm-6.252 2.954l3.258-2.294.915-1.736 1.05.538-.906 1.717-.1 3.947-1.197-.616.153-2.285c0-.044.03-.195.085-.445h-.015a2.07 2.07 0 01-.302.313l-1.832 1.429-1.114-.573.005.005zM29.553 72l-2.104 2.597c-.193.24-.45.533-.767.875l.02.02c.277-.23.47-.377.579-.445l3.46-2.103.733.582-1.287 3.776c-.03.093-.144.318-.332.684l.025.02c.267-.377.544-.748.841-1.11l1.96-2.421.832.66-3.47 4.28-1.341-1.062 1.163-3.326c.094-.274.203-.518.327-.729l-.02-.014a8.21 8.21 0 01-.674.464l-3.029 1.84-1.307-1.032 3.47-4.28.911.719.01.004zm-3.713-4.021l2.144 2.46-4.203 3.576-2.06-2.363.733-.621 1.287 1.477.99-.841-1.198-1.375.733-.62 1.198 1.374 1.02-.866-1.371-1.575.732-.621-.005-.005zm-2.886-4.402l.728 1.135-.752 1.487c-.159.308-.243.533-.253.67-.01.137.02.264.084.371l.193.299 1.817-1.135.634.988-4.688 2.93-1.04-1.624c-.703-1.1-.633-1.917.213-2.45.317-.201.654-.28 1-.235.346.044.668.195.97.46l.01-.01c-.064-.26.025-.646.262-1.155l.832-1.74-.01.009zm-2.114 5.287l1.352-.84-.312-.485c-.148-.23-.337-.377-.56-.43a.811.811 0 00-.643.107c-.426.264-.475.646-.153 1.15l.321.503-.005-.005z" fill="#707070"/></svg>