<svg width="115" height="115" fill="none" xmlns="http://www.w3.org/2000/svg"><path d="M.176 57.61C-2.215 32.807 19.947.545 56.94.403c31.523-.124 57.246 25.86 57.24 57.314 0 31.523-25.7 56.884-57.342 57.088C22.422 115.025-2.03 84.627.175 57.61z" fill="#262761"/><path d="M102.583 57.587c.057 25.497-20.252 45.97-45.642 46.009-25.44.04-45.919-20.365-45.952-45.777-.034-25.486 20.274-45.913 45.704-45.97 25.474-.056 45.834 20.235 45.89 45.738z" fill="#FD8300"/><path d="M29.923 51.906c4.398-21.603 30.822-27.916 43.534-15.764-16.08 16.386-26.108 23.265-42.002 16.804-.695-.073-1.215-.412-1.532-1.04z" fill="#262761"/><path d="M29.923 51.907c.51.344 1.459.43 1.532 1.04.893 7.29-.768 8.54-1.317 12.796l.108-.124c-2.222-.108-4.54.158-6.636-.407-3.883-1.04-9.88-2.097-10.027-5.585-.192-4.38 5.166-7.545 8.744-10.405 2.803-2.244 4.844 2.221 7.602 2.684h-.006z" fill="#2B295E"/><path d="M61.446 54.75c-6.732 5.952-13.724 11.632-20.1 17.945-4.73 4.686-6.985 2.584-9.071-2.085-.73-1.634-1.357-3.324-2.024-4.985l-.107.124c12.328 1.735 21.62-4.126 30.087-12.034.622.09 1.029.436 1.215 1.035z" fill="#2F2B5D"/><path d="M61.446 54.75c-.407-.345-.814-.69-1.215-1.035 3.854-3.414 7.681-6.861 11.57-10.23 5.844-5.07 6.048-5.008 9.863 1.978.639 1.164 1.38 2.272 2.091 3.392.012-.017.119-.142.125-.153-7.54 1.74-15.6 1.605-22.428 6.048h-.006z" fill="#262760"/><path d="M83.676 62.98C79.2 84.564 52.753 90.776 40.081 78.58c16.142-16.324 26.192-23.163 42.063-16.646.696.079 1.216.412 1.532 1.045z" fill="#262761"/><path d="M83.676 62.98c-.508-.351-1.458-.436-1.532-1.046-.864-7.292.803-8.54 1.368-12.791l-.107.124c2.221.119 4.539-.141 6.636.43 3.877 1.056 9.868 2.136 10.01 5.623.175 4.381-5.195 7.524-8.784 10.378-2.815 2.238-4.838-2.238-7.59-2.713v-.006z" fill="#2B295E"/><path d="M25.362 33.78l-1.006 1.504 4.346 2.91-.751 1.125-4.347-2.91-1.006 1.497-.916-.616 2.764-4.126.916.616zm7.298-.379l-2.5 2.798-4.724-4.216 2.396-2.691.825.735-1.497 1.684 1.113.995 1.396-1.56.82.735-1.396 1.56 1.141 1.023 1.6-1.792.825.735V33.4zm4.492-3.843l-1.232 1.028-2.22-.886a1.873 1.873 0 01-.362-.238l-.011.012c.045.09.102.232.158.418l.464 2.334-1.238 1.035-.47-3.736-3.453-1.238 1.26-1.052 1.967.882a3.3 3.3 0 01.487.277l.01-.011c-.067-.17-.13-.35-.186-.554l-.43-2.142 1.16-.967.542 3.64 3.555 1.193v.006zm5.127-2.968l-1.17.673-1.3-2.267-2.346 1.34 1.3 2.266-1.17.673-3.142-5.5 1.17-.672 1.271 2.215 2.34-1.34-1.271-2.22 1.17-.673 3.142 5.5.006.005zm-.254-3.295c-.322-.938-.305-1.798.045-2.572s.972-1.317 1.87-1.622c.86-.294 1.646-.243 2.364.153.717.39 1.226 1.034 1.531 1.933.317.932.306 1.786-.04 2.549-.344.768-.955 1.3-1.836 1.6-.86.293-1.656.248-2.38-.136-.723-.385-1.243-1.018-1.543-1.905h-.011zm1.317-.526c.198.583.503 1.012.91 1.289.407.277.853.328 1.345.164.503-.17.83-.48.99-.933.157-.452.135-.972-.069-1.571-.214-.622-.514-1.074-.91-1.345-.395-.272-.836-.322-1.328-.153-.503.17-.83.492-.995.961-.164.47-.141 1 .063 1.588h-.006zm8.314-.966l-2.38.435-.17-.916 2.38-.435.17.916zm6.868 1.503l-1.351.051-.187-5.143-2.696.096.187 5.143-1.351.051-.226-6.33 5.398-.193.226 6.33v-.005zm1.277-3.04c.153-.984.56-1.736 1.227-2.261.666-.526 1.47-.718 2.413-.577.893.136 1.571.549 2.024 1.227.452.678.61 1.486.463 2.419-.153.978-.554 1.724-1.215 2.244-.661.52-1.453.712-2.368.57-.9-.135-1.583-.542-2.052-1.22-.47-.678-.633-1.475-.492-2.402zm1.413.14c-.096.611-.023 1.131.21 1.561.23.43.604.69 1.118.763.52.08.956-.045 1.306-.367.35-.328.57-.803.667-1.425.102-.65.04-1.187-.186-1.61-.227-.425-.594-.673-1.108-.752-.526-.08-.967.05-1.323.39-.362.339-.588.82-.684 1.435v.006zm9.79 5.784l-1.272-.447 1.73-4.906-1.244-.441c-1.097 2.114-1.877 3.397-2.334 3.854-.464.458-.99.583-1.583.373a2.302 2.302 0 01-.667-.367l.362-1.023c.141.119.271.198.39.237a.49.49 0 00.271.012c.096-.023.215-.102.35-.232.142-.13.357-.418.65-.87.294-.453.605-.995.945-1.628l.955-1.792 3.55 1.255-2.109 5.974h.006zm5.957 3.323l-1.102-.645 1.82-3.108c.187-.323.373-.605.549-.848l-.023-.017c-.085.062-.26.158-.52.294l-4.386 2.181-1.187-.695 3.199-5.466 1.102.645-1.825 3.114c-.22.379-.38.622-.475.735h.011l4.776-2.396 1.266.74-3.199 5.466h-.006zm5.257 4.578l2.611-2.82c.243-.26.554-.577.95-.944l-.023-.023c-.333.243-.57.396-.695.464l-4.115 2.142-.791-.73 1.775-4.25c.04-.102.186-.356.435-.763l-.028-.023c-.334.413-.684.82-1.046 1.21l-2.43 2.628-.894-.825 4.302-4.652 1.441 1.334-1.6 3.736c-.13.311-.277.583-.435.814l.023.017c.3-.197.565-.356.802-.48l3.6-1.871 1.403 1.294-4.302 4.652-.978-.904-.005-.006zm3.905 4.945l-2.238-3.007 5.081-3.781 2.148 2.894-.887.661-1.345-1.808-1.199.893 1.25 1.678-.882.656-1.25-1.679-1.232.916L87 38.386l-.887.662.011-.012zm3.03.843l-1.944 1.05-.645-1.186 5.568-3.018 1.04 1.916c.752 1.385.537 2.396-.633 3.035-.571.31-1.142.35-1.713.119-.57-.232-1.017-.667-1.345-1.3l-.334-.61.006-.006zm2.708-1.47l-1.798.972.277.514c.379.696.87.882 1.475.554.594-.322.701-.825.328-1.514l-.282-.526zm-.651 40.278l.843-1.6-4.63-2.436.628-1.198 4.63 2.436.836-1.594.978.515-2.312 4.391-.978-.514h.006zm-7.212 1.142l2.188-3.047 5.143 3.697-2.103 2.928-.898-.645 1.311-1.831-1.215-.87-1.221 1.7-.893-.638 1.22-1.701-1.243-.893-1.402 1.95-.898-.645.011-.005zm-3.51 4.058c.159-.486.492-1 1.006-1.531.662-.69 1.39-1.035 2.193-1.04.803-.006 1.544.316 2.227.977.718.696 1.091 1.487 1.12 2.38.028.893-.306 1.696-.995 2.408-.43.446-.848.763-1.25.95l-.938-.905a2.873 2.873 0 001.283-.786c.43-.446.633-.938.605-1.48-.028-.543-.271-1.035-.729-1.476-.447-.43-.933-.65-1.447-.661-.514-.011-.983.203-1.402.633-.39.407-.65.87-.774 1.396l-.893-.86-.006-.005zm-5.16 3.618l1.09-.797 1.544 2.108 2.176-1.594-1.543-2.108 1.09-.797 3.742 5.11-1.09.796-1.51-2.063-2.176 1.594 1.51 2.063-1.091.797-3.742-5.11zm-6.138 3.018l1.249-.588 4.165 2.578a5.4 5.4 0 01.492.339l.017-.012a11.694 11.694 0 01-.463-.898l-1.527-3.262 1.16-.542 2.684 5.737-1.334.621-4.03-2.51c-.266-.169-.435-.276-.497-.321l-.017.011c.09.124.226.384.407.774l1.531 3.273-1.158.543-2.685-5.737.005-.006zm-.023 3.29c.237.96.152 1.814-.26 2.56-.413.746-1.08 1.232-2.007 1.458-.876.215-1.656.102-2.34-.35-.678-.452-1.136-1.136-1.362-2.058-.237-.955-.153-1.803.26-2.538.407-.734 1.063-1.215 1.967-1.435.882-.22 1.667-.108 2.363.333.695.441 1.153 1.12 1.379 2.03zm-1.362.412c-.147-.6-.413-1.051-.797-1.362-.385-.311-.826-.401-1.329-.277-.514.124-.87.407-1.062.842-.198.435-.22.961-.068 1.571.158.64.424 1.114.791 1.413.368.306.808.39 1.312.266.514-.124.87-.418 1.073-.87.204-.453.227-.984.08-1.589v.006zm-8.365.255l2.407-.232.09.926-2.407.232-.09-.927zm-2.76.305l.063-2.21 1.351.04-.18 6.33-2.177-.062c-1.577-.046-2.346-.735-2.306-2.07.017-.65.271-1.163.757-1.537.486-.373 1.085-.548 1.803-.508l.696.022-.006-.005zm-.09 3.08l.057-2.046-.582-.017c-.791-.023-1.198.311-1.221 1-.017.673.362 1.024 1.147 1.046l.6.017zm-3.973-2.345c-.198.972-.639 1.706-1.334 2.204-.69.497-1.503.65-2.436.463-.887-.18-1.543-.621-1.961-1.317-.424-.7-.537-1.514-.35-2.442.197-.966.632-1.695 1.322-2.181.684-.486 1.48-.639 2.39-.458.888.18 1.555.616 1.99 1.317.436.695.566 1.503.38 2.425v-.012zm-1.407-.21c.124-.605.073-1.124-.136-1.571-.215-.44-.576-.712-1.08-.82-.52-.107-.96 0-1.322.306-.362.305-.605.774-.735 1.396-.13.644-.096 1.187.113 1.616.204.43.56.701 1.074.803.52.107.966 0 1.34-.328.378-.322.627-.791.751-1.407l-.005.005zm-8.303-5.697l3.481 1.305-2.227 5.93-1.266-.475 1.843-4.895-2.216-.83.39-1.035h-.005zm-7.139 3.414l3.719-2.651 1.046-2.007 1.198.622-1.034 1.984-.113 4.561-1.368-.712.175-2.64c0-.05.034-.226.096-.514h-.017a2.38 2.38 0 01-.345.362l-2.091 1.65-1.272-.661.006.006zm-2.024-9.422l-2.402 3c-.22.278-.514.617-.876 1.013l.023.022c.316-.265.537-.435.66-.514l3.952-2.43.836.672-1.47 4.364c-.033.107-.163.367-.378.79l.028.023c.306-.435.622-.864.961-1.282l2.238-2.798.95.763-3.962 4.945-1.532-1.226 1.328-3.844c.108-.316.232-.599.373-.842l-.022-.017a9.386 9.386 0 01-.769.537l-3.46 2.125-1.491-1.192 3.962-4.946 1.04.83.011.007zm-4.239-4.646l2.447 2.843-4.798 4.131-2.352-2.73.837-.718 1.47 1.707 1.13-.972-1.368-1.588.837-.718 1.368 1.588 1.164-1-1.566-1.82.837-.718-.006-.005zm-3.295-5.088l.83 1.312-.858 1.718c-.181.356-.277.616-.289.774a.733.733 0 00.096.43l.22.344 2.075-1.31.724 1.14-5.353 3.387-1.187-1.877c-.803-1.272-.724-2.216.243-2.832a1.675 1.675 0 011.142-.271c.395.05.763.226 1.108.531l.01-.011c-.073-.3.03-.746.3-1.334l.95-2.012-.011.011zm-2.414 6.11l1.543-.972-.356-.56c-.17-.265-.384-.435-.639-.497a.917.917 0 00-.734.124c-.486.306-.543.747-.175 1.329l.367.582-.006-.006z" fill="#262761"/></svg>