<svg width="115" height="115" fill="none" xmlns="http://www.w3.org/2000/svg"><g filter="url(#filter0_i_1874_14647)"><rect width="115" height="115" rx="15" fill="#F8F4F4"/></g><g filter="url(#filter1_d_1874_14647)"><path fill="#D9D9D9" d="M12 24h64v38H12z"/><path fill-rule="evenodd" clip-rule="evenodd" d="M36 75h-4v14c0 .552.895 1 2 1s2-.448 2-1V75zM17 65h-4v12.133c0 .479.895.867 2 .867s2-.388 2-.867V65zm50 10h-4v14c0 .552.895 1 2 1s2-.448 2-1V75zm36-1h-4v14c0 .552.895 1 2 1s2-.448 2-1V74z" fill="#707070"/><path d="M30.677 73L12 62h63.293L104 73H30.677z" fill="#fff"/><path fill="#D9D9D9" d="M31 73h73v4H31z"/><path d="M43.5 62h32L104 73H56.5s-.5-1.5 1-1.5 2.1-.7.5-1.5-4.334.333-5.5 1c-1 .167-3.3.2-4.5-1-1.2-1.2 2.5-1.5 4.5-1.5 3.166.333 8.7.5 5.5-1.5-4-2.5-7.5 1-14.5 2.5-5.6 1.2-9-.5-10-1.5-1.5-1.5-1.742-4.42 1.5-5.5 1.5-.5 8.5-.5 8.5-.5z" fill="#C1141E"/><path d="M12 62l19 11v4L12 65.5V62z" fill="#707070"/><g filter="url(#filter2_d_1874_14647)"><path fill-rule="evenodd" clip-rule="evenodd" d="M64 57a1 1 0 00-1 1v15h2V59h6v14h2V59h6v14h2V59h6v14h2V59h6v14h2V59h5v14h2V58a1 1 0 00-1-1H64z" fill="#fff"/></g></g><defs><filter id="filter0_i_1874_14647" x="0" y="0" width="117" height="117" filterUnits="userSpaceOnUse" color-interpolation-filters="sRGB"><feFlood flood-opacity="0" result="BackgroundImageFix"/><feBlend in="SourceGraphic" in2="BackgroundImageFix" result="shape"/><feColorMatrix in="SourceAlpha" values="0 0 0 0 0 0 0 0 0 0 0 0 0 0 0 0 0 0 127 0" result="hardAlpha"/><feOffset dx="2" dy="2"/><feGaussianBlur stdDeviation="3"/><feComposite in2="hardAlpha" operator="arithmetic" k2="-1" k3="1"/><feColorMatrix values="0 0 0 0 0 0 0 0 0 0 0 0 0 0 0 0 0 0 0.05 0"/><feBlend in2="shape" result="effect1_innerShadow_1874_14647"/></filter><filter id="filter1_d_1874_14647" x="9" y="23" width="98" height="72" filterUnits="userSpaceOnUse" color-interpolation-filters="sRGB"><feFlood flood-opacity="0" result="BackgroundImageFix"/><feColorMatrix in="SourceAlpha" values="0 0 0 0 0 0 0 0 0 0 0 0 0 0 0 0 0 0 127 0" result="hardAlpha"/><feOffset dy="2"/><feGaussianBlur stdDeviation="1.5"/><feComposite in2="hardAlpha" operator="out"/><feColorMatrix values="0 0 0 0 0 0 0 0 0 0 0 0 0 0 0 0 0 0 0.25 0"/><feBlend in2="BackgroundImageFix" result="effect1_dropShadow_1874_14647"/><feBlend in="SourceGraphic" in2="effect1_dropShadow_1874_14647" result="shape"/></filter><filter id="filter2_d_1874_14647" x="61" y="55" width="45" height="20" filterUnits="userSpaceOnUse" color-interpolation-filters="sRGB"><feFlood flood-opacity="0" result="BackgroundImageFix"/><feColorMatrix in="SourceAlpha" values="0 0 0 0 0 0 0 0 0 0 0 0 0 0 0 0 0 0 127 0" result="hardAlpha"/><feOffset/><feGaussianBlur stdDeviation="1"/><feComposite in2="hardAlpha" operator="out"/><feColorMatrix values="0 0 0 0 0 0 0 0 0 0 0 0 0 0 0 0 0 0 0.25 0"/><feBlend in2="BackgroundImageFix" result="effect1_dropShadow_1874_14647"/><feBlend in="SourceGraphic" in2="effect1_dropShadow_1874_14647" result="shape"/></filter></defs></svg>