<svg width="22" height="22" fill="none" xmlns="http://www.w3.org/2000/svg"><g fill="#707070"><path d="M9.9 0h1.273c.053.012.105.03.158.033 1.579.12 3.063.56 4.423 1.37 2.795 1.662 4.509 4.093 5.111 7.296.072.381.109.77.161 1.154v1.273l-.035.197c-.084.54-.132 1.088-.257 1.618-1.49 6.298-8.3 9.765-14.261 7.267-4.55-1.906-7.135-6.63-6.306-11.52C.884 4.465 4.235 1.027 8.442.21 8.924.117 9.415.07 9.901 0zm1.008 13.407l.712.482c.786.534 1.57 1.071 2.36 1.6.432.288.94.103 1.05-.382.68-2.998 1.358-5.996 2.035-8.995.073-.32-.103-.626-.424-.684a1.05 1.05 0 00-.517.05c-3.94 1.413-7.878 2.834-11.816 4.253-.249.09-.363.224-.357.417.005.201.134.33.398.402.916.25 1.83.503 2.748.745.165.044.245.125.299.285.336 1.011.683 2.019 1.026 3.027.107.313.31.474.589.423a.825.825 0 00.387-.203c.505-.461.997-.936 1.51-1.42z"/><path d="M8.761 14.013c-.026-.057-.056-.113-.076-.172a947.11 947.11 0 01-.803-2.408c-.086-.258-.057-.337.174-.47l6.4-3.666c.046-.026.096-.066.145-.068.053-.001.13.02.155.059.022.034-.001.112-.028.157-.025.045-.08.073-.121.108-1.768 1.445-3.534 2.891-5.305 4.332a.661.661 0 00-.273.495c-.04.476-.107.95-.164 1.425-.009.066-.027.13-.04.195-.022.005-.043.01-.064.013z"/></g></svg>