<svg width="34" height="34" fill="none" xmlns="http://www.w3.org/2000/svg"><g fill="#C8102E"><path d="M15.585.745h2.005c.083.018.165.046.25.052 2.488.185 4.826.872 6.97 2.131 4.405 2.588 7.106 6.372 8.055 11.357.114.593.171 1.197.255 1.797v1.98c-.019.103-.04.205-.056.307-.133.84-.208 1.693-.405 2.518-2.348 9.804-13.081 15.2-22.477 11.312-7.17-2.967-11.245-10.32-9.937-17.932 1.129-6.57 6.41-11.921 13.041-13.195.76-.145 1.533-.22 2.299-.327zm1.587 20.869l1.122.75c1.24.83 2.476 1.666 3.72 2.488.681.45 1.481.162 1.654-.593 1.073-4.666 2.141-9.333 3.209-14 .114-.499-.163-.975-.67-1.065a1.675 1.675 0 00-.814.078c-6.21 2.199-12.416 4.41-18.623 6.62-.391.138-.571.348-.562.648.008.313.21.514.627.626 1.444.388 2.885.784 4.332 1.16.26.067.386.195.47.444.53 1.573 1.076 3.142 1.618 4.71.169.487.487.738.928.66.217-.039.444-.167.61-.316.795-.719 1.572-1.458 2.379-2.21z"/><path d="M13.789 22.556c-.041-.09-.09-.175-.12-.268-.424-1.248-.846-2.497-1.266-3.747-.136-.403-.09-.525.274-.731l10.086-5.707c.074-.042.152-.103.23-.106.084-.002.206.03.244.09.034.055-.002.176-.043.247-.04.069-.126.113-.192.167-2.786 2.25-5.569 4.5-8.36 6.742-.261.21-.402.431-.43.771-.063.741-.17 1.48-.26 2.218-.013.102-.041.202-.062.304l-.101.02z"/></g></svg>