<svg width="19" height="19" fill="none" xmlns="http://www.w3.org/2000/svg"><path d="M8.913.314h1.137c.047.01.093.027.14.03 1.411.105 2.737.494 3.952 1.208 2.497 1.466 4.028 3.611 4.566 6.437.064.336.097.678.144 1.018v1.123l-.032.174c-.075.476-.118.96-.23 1.427-1.33 5.557-7.414 8.615-12.739 6.411C1.787 16.461-.523 12.293.219 7.978.859 4.255 3.852 1.222 7.61.5c.43-.082.87-.125 1.303-.186zm.9 11.829l.636.425c.702.47 1.403.944 2.108 1.41.386.255.84.092.938-.336.608-2.645 1.213-5.29 1.818-7.935.065-.283-.092-.553-.379-.604a.95.95 0 00-.461.044c-3.52 1.247-7.038 2.5-10.556 3.752-.222.08-.324.198-.319.368.005.178.12.291.356.355.818.22 1.635.444 2.455.657.147.038.219.11.267.252.3.892.61 1.78.917 2.67.095.276.276.418.525.373a.74.74 0 00.346-.179c.451-.407.891-.826 1.349-1.252z" fill="#fff"/><path d="M7.895 12.676c-.023-.05-.05-.099-.068-.151l-.717-2.124c-.077-.229-.05-.298.155-.414l5.717-3.235c.042-.024.086-.059.13-.06.048-.001.117.017.138.051.02.03 0 .1-.024.14-.023.039-.071.064-.109.094A2548.438 2548.438 0 018.38 10.8a.582.582 0 00-.244.437c-.035.42-.096.838-.147 1.257-.007.058-.024.115-.035.172l-.058.011z" fill="#fff"/></svg>