<svg width="22" height="22" fill="none" xmlns="http://www.w3.org/2000/svg"><path d="M9.887 0h1.273c.052.012.104.03.158.033 1.579.12 3.062.56 4.422 1.37 2.795 1.662 4.51 4.093 5.112 7.296.072.381.108.77.16 1.154v1.273c-.01.066-.024.131-.034.197-.085.54-.132 1.088-.258 1.618-1.49 6.298-8.3 9.765-14.26 7.267-4.55-1.906-7.136-6.63-6.306-11.52C.87 4.465 4.22 1.027 8.429.21 8.91.117 9.4.07 9.887 0zm1.007 13.407l.712.482c.787.534 1.57 1.071 2.36 1.6.433.288.94.103 1.05-.382.68-2.998 1.358-5.996 2.036-8.995.072-.32-.103-.626-.425-.684a1.05 1.05 0 00-.516.05C12.17 6.891 8.232 8.312 4.294 9.731c-.248.09-.362.224-.357.417.006.201.134.33.398.402.916.25 1.83.503 2.749.745.165.044.245.125.298.285.336 1.011.683 2.019 1.027 3.027.107.313.309.474.588.423a.825.825 0 00.387-.203c.505-.461.998-.936 1.51-1.42z" fill="#07C4FF"/><path d="M21.014 9.853c-.053-.385-.09-.772-.162-1.154-.602-3.203-2.315-5.634-5.111-7.297-1.36-.809-2.844-1.25-4.423-1.369C11.265.03 11.213.012 11.16 0h9.854v9.853z" fill="#fff"/><path d="M8.748 14.013c-.026-.057-.057-.113-.076-.172-.27-.802-.537-1.604-.803-2.407-.087-.26-.057-.338.173-.47l6.4-3.667c.047-.026.097-.066.146-.068.053-.001.13.02.155.059.021.034-.002.112-.028.158-.025.044-.08.073-.122.107-1.767 1.445-3.533 2.892-5.304 4.332a.661.661 0 00-.273.495c-.04.476-.107.95-.165 1.425-.008.066-.026.13-.039.195-.022.005-.043.01-.064.013z" fill="#07C4FF"/></svg>