<svg width="22" height="21" fill="none" xmlns="http://www.w3.org/2000/svg"><path d="M10.513 0a10.5 10.5 0 100 21 10.5 10.5 0 000-21zm6.608 7.61c-.09.21-.163.428-.27.628-.352.665-.83 1.247-1.278 1.848-.231.309-.461.62-.667.946-.158.248-.117.488.075.711.093.108.194.208.293.31.38.38.775.747 1.136 1.146.311.344.635.694.709 1.186v.027c-.09.27-.22.378-.511.387-.635.02-1.272.013-1.906.05-.551.033-.989-.175-1.36-.553-.3-.303-.577-.632-.872-.942a2.176 2.176 0 00-.359-.301c-.22-.149-.379-.121-.56.075-.204.223-.259.503-.292.788-.017.142-.016.285-.025.427-.018.273-.154.436-.425.455a9.922 9.922 0 01-.953.015 5.465 5.465 0 01-.782-.065c-.76-.13-1.405-.522-2.028-.96-.578-.41-1.006-.955-1.426-1.511-1.068-1.416-1.882-2.976-2.596-4.594-.141-.319-.037-.498.315-.527.257-.02.515-.014.774-.016l1.23-.006c.301 0 .503.133.637.41.36.746.729 1.487 1.11 2.222.153.317.374.597.647.82a.828.828 0 00.226.129c.16.058.284 0 .367-.147.136-.24.147-.51.176-.774a5.583 5.583 0 00-.067-1.815c-.074-.346-.29-.527-.622-.601a.853.853 0 01-.155-.067.8.8 0 01.087-.151.867.867 0 01.535-.293 7.834 7.834 0 012.396-.004c.393.063.536.196.574.653.029.361 0 .727-.006 1.092-.006.479-.017.958-.011 1.436a1.2 1.2 0 00.082.417c.108.28.324.318.552.127.371-.31.62-.713.878-1.112.385-.607.71-1.25.974-1.918.03-.077.066-.151.108-.222a.325.325 0 01.285-.167c.84-.01 1.678-.025 2.518-.024.2 0 .41.035.49.273l-.003.192z" fill="#707070"/></svg>