<svg width="33" height="33" fill="none" xmlns="http://www.w3.org/2000/svg"><path d="M16.502.468c-3.263 0-6.453.939-9.167 2.697a16.117 16.117 0 00-6.077 7.18A15.55 15.55 0 00.32 19.59a15.856 15.856 0 004.516 8.192 16.665 16.665 0 008.448 4.379c3.201.617 6.519.3 9.534-.91a16.401 16.401 0 007.405-5.894 15.658 15.658 0 002.78-8.889 15.58 15.58 0 00-1.256-6.123 15.978 15.978 0 00-3.576-5.19 16.544 16.544 0 00-5.353-3.469A16.949 16.949 0 0016.502.468zm10.384 11.596c-.14.32-.257.652-.425.958-.553 1.013-1.303 1.9-2.008 2.815-.364.47-.724.944-1.048 1.441-.248.38-.184.745.118 1.084.146.165.305.318.46.472.596.581 1.218 1.14 1.785 1.747.49.524.999 1.057 1.114 1.807v.042c-.14.41-.345.576-.802.59-.999.031-2 .02-2.996.076-.866.05-1.553-.268-2.136-.843-.474-.463-.908-.963-1.372-1.436a3.393 3.393 0 00-.563-.459c-.347-.226-.595-.184-.88.115-.32.34-.407.766-.46 1.2-.026.216-.024.435-.039.652-.029.416-.241.663-.667.693-.497.034-.998.035-1.497.022a8.841 8.841 0 01-1.23-.098c-1.195-.199-2.207-.797-3.187-1.465-.908-.624-1.581-1.454-2.24-2.3-1.68-2.158-2.958-4.536-4.08-7.001-.221-.486-.058-.76.495-.803.403-.03.81-.022 1.216-.024.644-.006 1.288-.007 1.932-.01.475 0 .791.203 1.003.625a127.691 127.691 0 001.743 3.386c.241.483.588.91 1.017 1.25.107.083.227.149.355.196.252.089.447 0 .577-.224.215-.367.231-.777.276-1.18a8.254 8.254 0 00-.105-2.766c-.116-.527-.454-.803-.978-.915a1.359 1.359 0 01-.242-.103 1.21 1.21 0 01.137-.23c.215-.242.513-.4.84-.446a12.69 12.69 0 013.766-.005c.617.095.841.298.9.995.046.55 0 1.108-.009 1.663-.008.73-.026 1.46-.017 2.19.003.217.047.432.13.634.17.427.508.485.867.194.583-.473.975-1.088 1.38-1.695a17.116 17.116 0 001.53-2.922c.047-.118.104-.231.17-.34a.501.501 0 01.188-.186.522.522 0 01.26-.068c1.318-.015 2.636-.037 3.956-.036.314 0 .644.053.771.417l-.005.291z" fill="#C8102E"/></svg>