<svg width="19" height="19" fill="none" xmlns="http://www.w3.org/2000/svg"><path d="M9.38.04a9.464 9.464 0 00-5.211 1.561A9.29 9.29 0 00.714 5.76a9.157 9.157 0 00-.534 5.35 9.228 9.228 0 002.567 4.743 9.418 9.418 0 004.803 2.535 9.49 9.49 0 005.42-.527 9.356 9.356 0 004.21-3.412 9.164 9.164 0 00.867-8.692 9.257 9.257 0 00-2.034-3.005A9.39 9.39 0 0012.97.745 9.483 9.483 0 009.38.04zm5.903 6.714c-.08.185-.146.377-.242.554-.314.587-.74 1.1-1.141 1.63-.207.273-.412.547-.596.835-.14.22-.105.43.067.627.083.095.174.184.261.274.34.336.693.66 1.015 1.01.278.304.568.613.634 1.047v.024c-.08.237-.197.333-.457.342-.567.018-1.136.011-1.703.044-.492.029-.883-.155-1.214-.488-.269-.268-.516-.558-.78-.832a1.936 1.936 0 00-.32-.265c-.197-.131-.338-.107-.5.067-.182.196-.231.443-.261.694-.015.125-.014.252-.023.377-.016.241-.137.385-.379.402a9.01 9.01 0 01-.85.013 4.954 4.954 0 01-.7-.057c-.68-.115-1.255-.461-1.812-.848-.516-.362-.899-.842-1.274-1.333-.954-1.249-1.68-2.625-2.318-4.053-.126-.281-.033-.44.281-.464.23-.018.46-.013.69-.014.367-.004.733-.004 1.1-.006.27 0 .45.118.57.362.32.658.65 1.312.99 1.96.137.28.335.527.579.724.06.048.129.086.202.113.143.052.253 0 .328-.13.121-.212.13-.45.156-.682a4.866 4.866 0 00-.06-1.602c-.065-.305-.258-.465-.555-.53a.767.767 0 01-.138-.06.703.703 0 01.078-.132.777.777 0 01.477-.259c.71-.11 1.432-.11 2.141-.003.351.056.479.173.512.576.026.319 0 .642-.005.963-.005.423-.015.845-.01 1.268.002.126.027.25.074.368.097.246.289.28.493.112.332-.274.554-.63.785-.982a9.986 9.986 0 00.869-1.692 1.29 1.29 0 01.097-.196.287.287 0 01.254-.147c.75-.009 1.499-.022 2.25-.021.178 0 .366.03.438.24l-.003.17z" fill="#fff"/></svg>