<svg width="21" height="21" fill="none" xmlns="http://www.w3.org/2000/svg"><path d="M10.5 0a10.5 10.5 0 100 21 10.5 10.5 0 000-21zm6.608 7.61c-.09.21-.164.428-.271.628-.351.665-.83 1.247-1.278 1.848-.23.309-.46.62-.666.946-.158.248-.118.488.074.711.094.108.195.208.293.31.38.38.775.747 1.136 1.146.312.344.636.694.71 1.186v.027c-.09.27-.22.378-.511.387-.636.02-1.273.013-1.907.05-.55.033-.988-.175-1.359-.553-.301-.303-.578-.632-.873-.942a2.18 2.18 0 00-.358-.301c-.22-.149-.379-.121-.56.075-.204.223-.26.503-.293.788-.017.142-.015.285-.025.427-.018.273-.153.436-.424.455a9.922 9.922 0 01-.953.015 5.465 5.465 0 01-.782-.065c-.761-.13-1.405-.522-2.028-.96-.578-.41-1.007-.955-1.427-1.511-1.068-1.416-1.882-2.976-2.595-4.594-.141-.319-.037-.498.315-.527.256-.02.515-.014.773-.016l1.23-.006c.302 0 .503.133.638.41.359.746.728 1.487 1.109 2.222.154.317.375.597.647.82a.828.828 0 00.227.129c.16.058.283 0 .367-.147.136-.24.147-.51.175-.774a5.583 5.583 0 00-.066-1.815c-.074-.346-.29-.527-.623-.601a.853.853 0 01-.154-.067.8.8 0 01.087-.151.867.867 0 01.534-.293 7.834 7.834 0 012.397-.004c.393.063.536.196.573.653.03.361 0 .727-.006 1.092-.005.479-.016.958-.01 1.436.002.143.03.284.082.417.108.28.324.318.552.127.371-.31.62-.713.878-1.112.384-.607.71-1.25.973-1.918.03-.077.067-.151.11-.222a.324.324 0 01.284-.167c.839-.01 1.677-.025 2.517-.024.2 0 .41.035.491.273l-.003.192z" fill="#267FB1"/></svg>