<svg width="22" height="22" fill="none" xmlns="http://www.w3.org/2000/svg"><path d="M0 11.003V9.895c.013-.073.027-.145.038-.218.067-.459.107-.924.205-1.376.554-2.54 1.867-4.613 3.942-6.167C6.732.227 9.597-.403 12.714.248c2.513.525 4.557 1.84 6.12 3.872 1.687 2.194 2.39 4.692 2.125 7.441-.213 2.22-1.072 4.183-2.548 5.86-1.63 1.849-3.661 3-6.092 3.432-.396.07-.797.11-1.195.163h-1.15c-.298-.033-.597-.06-.894-.1a10.267 10.267 0 01-4.158-1.522.421.421 0 00-.398-.054c-1.2.39-2.403.772-3.605 1.157l-.226.069c.42-1.25.824-2.46 1.235-3.666.056-.162.049-.284-.055-.432A10.128 10.128 0 01.165 12.32c-.075-.435-.11-.878-.165-1.317zm13.938 5.435l.012-.047c.123-.008.248-.004.368-.024.168-.029.339-.058.499-.115 1.479-.521 1.982-1.23 2.023-2.609.006-.209-.073-.35-.263-.441-.782-.373-1.56-.757-2.346-1.123-.409-.19-.646-.112-.918.256-.199.27-.395.542-.601.805-.324.412-.55.468-1.031.27-1.759-.716-3.055-1.954-4.028-3.56-.131-.218-.114-.415.048-.603.188-.216.374-.436.571-.644.325-.344.405-.695.188-1.15-.358-.752-.654-1.532-.99-2.293-.05-.114-.167-.25-.276-.276-.551-.133-1.127-.162-1.586.215-1.022.839-1.339 1.96-1.144 3.236.104.684.376 1.314.74 1.896a16.518 16.518 0 002.875 3.485c1.29 1.178 2.804 1.933 4.465 2.414.457.132.93.207 1.394.308z" fill="#707070"/></svg>