<svg width="34" height="34" fill="none" xmlns="http://www.w3.org/2000/svg"><path d="M0 17.871v-1.725c.02-.113.043-.225.06-.339.105-.714.168-1.438.323-2.142.872-3.951 2.942-7.18 6.213-9.598 4.014-2.968 8.53-3.949 13.442-2.936 3.96.818 7.182 2.865 9.645 6.027 2.659 3.415 3.766 7.303 3.35 11.582-.336 3.456-1.69 6.51-4.017 9.12-2.567 2.878-5.77 4.67-9.601 5.343-.624.11-1.256.17-1.884.254H15.72c-.47-.052-.942-.093-1.41-.158-2.357-.323-4.546-1.102-6.553-2.367-.208-.13-.386-.162-.627-.085-1.891.609-3.787 1.203-5.682 1.801-.104.033-.209.063-.355.107.66-1.944 1.298-3.827 1.946-5.706.088-.252.077-.44-.087-.671A15.657 15.657 0 01.261 19.92C.14 19.244.085 18.555 0 17.871zm21.968 8.46l.018-.074c.194-.012.39-.007.58-.037a4.64 4.64 0 00.786-.179c2.331-.811 3.125-1.914 3.188-4.06.01-.326-.114-.546-.414-.687-1.233-.581-2.46-1.178-3.698-1.748-.644-.297-1.018-.175-1.446.399-.313.42-.622.843-.948 1.252-.51.643-.865.729-1.625.422-2.771-1.116-4.815-3.043-6.347-5.544-.207-.337-.18-.645.076-.936.296-.338.589-.68.9-1.004.512-.535.637-1.082.296-1.79-.565-1.17-1.03-2.384-1.562-3.569-.08-.177-.261-.388-.433-.429-.87-.207-1.777-.253-2.501.335-1.61 1.305-2.11 3.049-1.803 5.037.164 1.064.594 2.044 1.167 2.951 1.266 2.004 2.759 3.825 4.53 5.423 2.033 1.834 4.42 3.01 7.039 3.758.719.206 1.463.323 2.197.48z" fill="#C8102E"/></svg>