<svg width="19" height="19" fill="none" xmlns="http://www.w3.org/2000/svg"><path d="M0 10.021v-.977c.012-.064.024-.128.034-.192.06-.405.095-.816.183-1.215.495-2.24 1.668-4.07 3.521-5.44C6.014.515 8.573-.04 11.358.533c2.244.464 4.07 1.624 5.466 3.416 1.507 1.936 2.134 4.14 1.899 6.565-.19 1.959-.958 3.69-2.277 5.169-1.455 1.631-3.27 2.647-5.442 3.028-.353.063-.711.097-1.067.144H8.91c-.266-.03-.534-.053-.799-.089a9.246 9.246 0 01-3.715-1.342.38.38 0 00-.355-.048c-1.072.345-2.146.682-3.22 1.02-.059.02-.119.037-.202.062.375-1.102.736-2.17 1.104-3.235.05-.143.043-.25-.05-.38a8.874 8.874 0 01-1.525-3.66c-.068-.384-.1-.774-.148-1.162zm12.451 4.796l.01-.043c.11-.006.221-.003.33-.02.15-.026.302-.052.445-.102 1.32-.46 1.77-1.085 1.807-2.301.005-.185-.065-.31-.235-.39-.699-.329-1.394-.667-2.096-.99-.365-.169-.577-.1-.82.226-.177.237-.352.477-.537.71-.289.364-.49.412-.92.239-1.572-.633-2.73-1.725-3.598-3.143-.118-.19-.103-.365.043-.53.168-.192.333-.385.51-.57.29-.302.361-.612.167-1.014-.32-.663-.584-1.35-.885-2.023-.045-.1-.148-.22-.245-.243-.493-.117-1.007-.143-1.418.19-.912.74-1.196 1.728-1.022 2.855.093.603.337 1.159.662 1.673a14.612 14.612 0 002.568 3.074c1.152 1.039 2.505 1.705 3.989 2.13.407.116.83.182 1.245.272z" fill="#fff"/></svg>