<svg width="21" height="21" fill="none" xmlns="http://www.w3.org/2000/svg"><circle cx="10.5" cy="10.5" r="10.5" fill="#005BFF"/><path d="M17.956 11.53a.601.601 0 01-.33.783l-1.67.679 1.545.928a.6.6 0 11-.62 1.03l-1.544-.928.184 1.793a.6.6 0 01-1.195.123l-.277-2.69-2.952-1.774v3.445l2.163 1.622a.601.601 0 01-.721.962l-1.442-1.082v1.803a.601.601 0 01-1.202 0V16.42l-1.442 1.082a.6.6 0 01-.722-.962l2.164-1.622v-3.445l-2.953 1.774-.276 2.69a.601.601 0 11-1.196-.122l.185-1.794-1.545.928a.6.6 0 11-.62-1.03l1.546-.928-1.67-.679A.6.6 0 013.82 11.2l2.504 1.019 3.006-1.807-3.006-1.806-2.505 1.02a.6.6 0 01-.452-1.114l1.67-.68-1.546-.928a.6.6 0 11.62-1.03l1.544.929-.184-1.794a.6.6 0 011.196-.122l.276 2.69L9.895 9.35V5.906L7.732 4.283a.6.6 0 11.72-.961l1.443 1.082V2.6a.6.6 0 111.202 0v1.803l1.442-1.082a.6.6 0 01.72.961l-2.162 1.623V9.35l2.952-1.775.277-2.69a.601.601 0 011.195.123l-.184 1.794 1.545-.929a.6.6 0 11.619 1.03l-1.546.929 1.67.679a.6.6 0 01-.452 1.113l-2.505-1.019-3.006 1.806 3.006 1.806 2.505-1.018a.6.6 0 01.782.329v.001z" fill="#fff"/></svg>