<svg width="180" height="47" viewBox="0 0 180 47" fill="none" xmlns="http://www.w3.org/2000/svg">
<rect y="0.378906" width="180" height="46" rx="10" fill="white"/>
<path d="M9.64 39.3789V33.6989H12.024C12.28 33.6989 12.5147 33.7522 12.728 33.8589C12.9413 33.9656 13.128 34.1069 13.288 34.2829C13.448 34.4589 13.5707 34.6562 13.656 34.8749C13.7413 35.0936 13.784 35.3176 13.784 35.5469C13.784 35.8616 13.712 36.1629 13.568 36.4509C13.4293 36.7336 13.2293 36.9629 12.968 37.1389C12.712 37.3149 12.4133 37.4029 12.072 37.4029H10.536V39.3789H9.64ZM10.536 36.6109H12.016C12.1867 36.6109 12.336 36.5656 12.464 36.4749C12.592 36.3789 12.6907 36.2509 12.76 36.0909C12.8347 35.9309 12.872 35.7496 12.872 35.5469C12.872 35.3389 12.8293 35.1549 12.744 34.9949C12.6587 34.8349 12.5467 34.7122 12.408 34.6269C12.2747 34.5362 12.128 34.4909 11.968 34.4909H10.536V36.6109ZM16.4084 39.4589C16.083 39.4589 15.787 39.4029 15.5204 39.2909C15.259 39.1736 15.0324 39.0162 14.8404 38.8189C14.6484 38.6162 14.499 38.3869 14.3924 38.1309C14.291 37.8696 14.2404 37.5922 14.2404 37.2989C14.2404 36.9042 14.331 36.5442 14.5124 36.2189C14.6937 35.8882 14.947 35.6242 15.2724 35.4269C15.5977 35.2242 15.979 35.1229 16.4164 35.1229C16.8537 35.1229 17.2297 35.2242 17.5444 35.4269C17.8644 35.6242 18.1124 35.8856 18.2884 36.2109C18.4644 36.5362 18.5524 36.8856 18.5524 37.2589C18.5524 37.3229 18.5497 37.3842 18.5444 37.4429C18.539 37.4962 18.5337 37.5416 18.5284 37.5789H15.1764C15.1924 37.8242 15.259 38.0402 15.3764 38.2269C15.499 38.4082 15.6537 38.5522 15.8404 38.6589C16.027 38.7602 16.227 38.8109 16.4404 38.8109C16.675 38.8109 16.8964 38.7522 17.1044 38.6349C17.3177 38.5176 17.4617 38.3629 17.5364 38.1709L18.2884 38.3869C18.1977 38.5896 18.059 38.7736 17.8724 38.9389C17.691 39.0989 17.475 39.2269 17.2244 39.3229C16.9737 39.4136 16.7017 39.4589 16.4084 39.4589ZM15.1524 36.9949H17.6804C17.6644 36.7549 17.595 36.5442 17.4724 36.3629C17.355 36.1762 17.203 36.0322 17.0164 35.9309C16.835 35.8242 16.6324 35.7709 16.4084 35.7709C16.1897 35.7709 15.987 35.8242 15.8004 35.9309C15.619 36.0322 15.4697 36.1762 15.3524 36.3629C15.235 36.5442 15.1684 36.7549 15.1524 36.9949ZM19.2702 39.3789V35.2029H20.1502V38.2029L22.2702 35.1949H23.0702V39.3789H22.1902V36.4429L20.0942 39.3789H19.2702ZM21.1742 34.7629C20.7795 34.7629 20.4729 34.6642 20.2542 34.4669C20.0409 34.2696 19.9342 34.0216 19.9342 33.7229H20.5102C20.5102 33.8776 20.5609 34.0056 20.6622 34.1069C20.7689 34.2082 20.9395 34.2589 21.1742 34.2589C21.4035 34.2589 21.5662 34.2109 21.6622 34.1149C21.7635 34.0189 21.8249 33.8882 21.8462 33.7229H22.4222C22.4222 34.0216 22.3129 34.2696 22.0942 34.4669C21.8809 34.6642 21.5742 34.7629 21.1742 34.7629ZM25.1138 39.3789V35.9709H23.7298V35.1949H27.3858V35.9709H25.9938V39.3789H25.1138ZM28.0436 39.3789V35.2029H28.9236V38.2029L31.0436 35.1949H31.8436V39.3789H30.9636V36.4429L28.8676 39.3789H28.0436ZM32.8952 39.3789V35.1949H33.7752V36.8589H35.7192V35.1949H36.5992V39.3789H35.7192V37.6189H33.7752V39.3789H32.8952ZM37.6608 39.3789V35.1949H40.3328V35.9709H38.5408V39.3789H37.6608ZM44.8533 39.4589C44.5226 39.4589 44.2266 39.4029 43.9653 39.2909C43.704 39.1736 43.4773 39.0136 43.2853 38.8109C43.0986 38.6082 42.9546 38.3789 42.8533 38.1229C42.752 37.8616 42.7013 37.5842 42.7013 37.2909C42.7013 36.9976 42.752 36.7202 42.8533 36.4589C42.9546 36.1976 43.0986 35.9682 43.2853 35.7709C43.4773 35.5682 43.704 35.4109 43.9653 35.2989C44.232 35.1816 44.528 35.1229 44.8533 35.1229C45.1786 35.1229 45.472 35.1816 45.7333 35.2989C46 35.4109 46.2266 35.5682 46.4133 35.7709C46.6053 35.9682 46.752 36.1976 46.8533 36.4589C46.9546 36.7202 47.0053 36.9976 47.0053 37.2909C47.0053 37.5842 46.9546 37.8616 46.8533 38.1229C46.752 38.3789 46.6053 38.6082 46.4133 38.8109C46.2266 39.0136 46 39.1736 45.7333 39.2909C45.472 39.4029 45.1786 39.4589 44.8533 39.4589ZM43.6053 37.2989C43.6053 37.5656 43.6613 37.8056 43.7733 38.0189C43.8853 38.2322 44.0346 38.4002 44.2213 38.5229C44.408 38.6456 44.6186 38.7069 44.8533 38.7069C45.0826 38.7069 45.2906 38.6456 45.4773 38.5229C45.6693 38.3949 45.8213 38.2242 45.9333 38.0109C46.0453 37.7922 46.1013 37.5522 46.1013 37.2909C46.1013 37.0242 46.0453 36.7842 45.9333 36.5709C45.8213 36.3576 45.6693 36.1896 45.4773 36.0669C45.2906 35.9389 45.0826 35.8749 44.8533 35.8749C44.6186 35.8749 44.408 35.9389 44.2213 36.0669C44.0346 36.1949 43.8853 36.3656 43.7733 36.5789C43.6613 36.7869 43.6053 37.0269 43.6053 37.2989ZM50.1618 39.4589C49.8258 39.4589 49.5298 39.3789 49.2738 39.2189C49.0178 39.0589 48.8151 38.8509 48.6658 38.5949V41.0829H47.7858V35.1949H48.5618V35.9469C48.7218 35.6962 48.9298 35.4962 49.1858 35.3469C49.4418 35.1976 49.7271 35.1229 50.0418 35.1229C50.3298 35.1229 50.5938 35.1816 50.8338 35.2989C51.0738 35.4109 51.2818 35.5682 51.4578 35.7709C51.6338 35.9736 51.7698 36.2056 51.8658 36.4669C51.9671 36.7229 52.0178 36.9949 52.0178 37.2829C52.0178 37.6829 51.9378 38.0482 51.7778 38.3789C51.6231 38.7096 51.4045 38.9736 51.1218 39.1709C50.8445 39.3629 50.5245 39.4589 50.1618 39.4589ZM49.8738 38.7069C50.0605 38.7069 50.2285 38.6669 50.3778 38.5869C50.5325 38.5069 50.6631 38.4002 50.7698 38.2669C50.8818 38.1336 50.9671 37.9816 51.0258 37.8109C51.0845 37.6402 51.1138 37.4642 51.1138 37.2829C51.1138 37.0909 51.0818 36.9096 51.0178 36.7389C50.9538 36.5682 50.8605 36.4189 50.7378 36.2909C50.6205 36.1629 50.4818 36.0616 50.3218 35.9869C50.1671 35.9122 49.9965 35.8749 49.8098 35.8749C49.6978 35.8749 49.5805 35.8962 49.4578 35.9389C49.3351 35.9816 49.2205 36.0402 49.1138 36.1149C49.0071 36.1896 48.9138 36.2776 48.8338 36.3789C48.7538 36.4802 48.6978 36.5869 48.6658 36.6989V37.7949C48.7405 37.9656 48.8391 38.1202 48.9618 38.2589C49.0845 38.3922 49.2258 38.5016 49.3858 38.5869C49.5458 38.6669 49.7085 38.7069 49.8738 38.7069ZM52.8092 39.3789V35.1949H55.4813V35.9709H53.6893V39.3789H52.8092ZM55.8412 38.1549C55.8412 37.8882 55.9159 37.6562 56.0652 37.4589C56.2199 37.2562 56.4305 37.1016 56.6972 36.9949C56.9639 36.8829 57.2732 36.8269 57.6252 36.8269C57.8119 36.8269 58.0012 36.8402 58.1932 36.8669C58.3905 36.8936 58.5639 36.9362 58.7132 36.9949V36.7309C58.7132 36.4376 58.6252 36.2082 58.4492 36.0429C58.2732 35.8776 58.0199 35.7949 57.6892 35.7949C57.4545 35.7949 57.2332 35.8376 57.0252 35.9229C56.8172 36.0029 56.5959 36.1176 56.3612 36.2669L56.0652 35.6749C56.3425 35.4882 56.6199 35.3496 56.8972 35.2589C57.1799 35.1682 57.4759 35.1229 57.7852 35.1229C58.3452 35.1229 58.7852 35.2722 59.1052 35.5709C59.4305 35.8642 59.5932 36.2829 59.5932 36.8269V38.3869C59.5932 38.4882 59.6092 38.5602 59.6412 38.6029C59.6785 38.6456 59.7399 38.6696 59.8252 38.6749V39.3789C59.7452 39.3949 59.6732 39.4056 59.6092 39.4109C59.5452 39.4162 59.4919 39.4189 59.4492 39.4189C59.2625 39.4189 59.1212 39.3736 59.0252 39.2829C58.9292 39.1922 58.8732 39.0856 58.8572 38.9629L58.8332 38.7229C58.6519 38.9576 58.4199 39.1389 58.1372 39.2669C57.8545 39.3949 57.5692 39.4589 57.2812 39.4589C57.0039 39.4589 56.7559 39.4029 56.5372 39.2909C56.3185 39.1736 56.1479 39.0162 56.0252 38.8189C55.9025 38.6216 55.8412 38.4002 55.8412 38.1549ZM58.5052 38.4109C58.5692 38.3416 58.6199 38.2722 58.6572 38.2029C58.6945 38.1336 58.7132 38.0722 58.7132 38.0189V37.5389C58.5639 37.4802 58.4065 37.4376 58.2412 37.4109C58.0759 37.3789 57.9132 37.3629 57.7532 37.3629C57.4332 37.3629 57.1719 37.4269 56.9692 37.5549C56.7719 37.6829 56.6732 37.8589 56.6732 38.0829C56.6732 38.2056 56.7052 38.3229 56.7692 38.4349C56.8385 38.5469 56.9345 38.6376 57.0572 38.7069C57.1852 38.7762 57.3425 38.8109 57.5292 38.8109C57.7212 38.8109 57.9052 38.7736 58.0812 38.6989C58.2572 38.6242 58.3985 38.5282 58.5052 38.4109ZM60.6608 39.3789V35.1949H61.5408V36.8589H63.4848V35.1949H64.3648V39.3789H63.4848V37.6189H61.5408V39.3789H60.6608ZM65.4264 39.3789V35.2029H66.3064V38.2029L68.4264 35.1949H69.2264V39.3789H68.3464V36.4429L66.2504 39.3789H65.4264ZM71.678 39.4429C71.2513 39.4429 70.8913 39.3656 70.598 39.2109C70.31 39.0509 70.0887 38.8322 69.934 38.5549L70.646 38.2349C70.7367 38.3896 70.8647 38.5122 71.03 38.6029C71.1953 38.6882 71.3953 38.7309 71.63 38.7309C71.9127 38.7309 72.1313 38.6722 72.286 38.5549C72.4407 38.4376 72.518 38.2829 72.518 38.0909C72.518 37.9149 72.454 37.7736 72.326 37.6669C72.198 37.5549 72.0167 37.4962 71.782 37.4909H71.35V36.9309H71.798C71.9047 36.9309 71.998 36.9069 72.078 36.8589C72.158 36.8109 72.2193 36.7469 72.262 36.6669C72.31 36.5816 72.334 36.4856 72.334 36.3789C72.334 36.2189 72.2727 36.0909 72.15 35.9949C72.0327 35.8936 71.854 35.8429 71.614 35.8429C71.406 35.8429 71.2353 35.8829 71.102 35.9629C70.9687 36.0376 70.8593 36.1496 70.774 36.2989L70.11 35.9469C70.2487 35.6909 70.4513 35.4909 70.718 35.3469C70.9847 35.2029 71.2967 35.1309 71.654 35.1309C71.9367 35.1309 72.1873 35.1762 72.406 35.2669C72.63 35.3522 72.8033 35.4802 72.926 35.6509C73.054 35.8162 73.118 36.0216 73.118 36.2669C73.118 36.4589 73.0727 36.6402 72.982 36.8109C72.8913 36.9762 72.75 37.0989 72.558 37.1789C72.814 37.2536 73.006 37.3842 73.134 37.5709C73.2673 37.7522 73.334 37.9682 73.334 38.2189C73.334 38.4749 73.262 38.6962 73.118 38.8829C72.9793 39.0642 72.7847 39.2029 72.534 39.2989C72.2833 39.3949 71.998 39.4429 71.678 39.4429ZM73.8412 38.1549C73.8412 37.8882 73.9159 37.6562 74.0652 37.4589C74.2199 37.2562 74.4305 37.1016 74.6972 36.9949C74.9639 36.8829 75.2732 36.8269 75.6252 36.8269C75.8119 36.8269 76.0012 36.8402 76.1932 36.8669C76.3905 36.8936 76.5639 36.9362 76.7132 36.9949V36.7309C76.7132 36.4376 76.6252 36.2082 76.4492 36.0429C76.2732 35.8776 76.0199 35.7949 75.6892 35.7949C75.4545 35.7949 75.2332 35.8376 75.0252 35.9229C74.8172 36.0029 74.5959 36.1176 74.3612 36.2669L74.0652 35.6749C74.3425 35.4882 74.6199 35.3496 74.8972 35.2589C75.1799 35.1682 75.4759 35.1229 75.7852 35.1229C76.3452 35.1229 76.7852 35.2722 77.1052 35.5709C77.4305 35.8642 77.5932 36.2829 77.5932 36.8269V38.3869C77.5932 38.4882 77.6092 38.5602 77.6412 38.6029C77.6785 38.6456 77.7399 38.6696 77.8252 38.6749V39.3789C77.7452 39.3949 77.6732 39.4056 77.6092 39.4109C77.5452 39.4162 77.4919 39.4189 77.4492 39.4189C77.2625 39.4189 77.1212 39.3736 77.0252 39.2829C76.9292 39.1922 76.8732 39.0856 76.8572 38.9629L76.8332 38.7229C76.6519 38.9576 76.4199 39.1389 76.1372 39.2669C75.8545 39.3949 75.5692 39.4589 75.2812 39.4589C75.0039 39.4589 74.7559 39.4029 74.5372 39.2909C74.3185 39.1736 74.1479 39.0162 74.0252 38.8189C73.9025 38.6216 73.8412 38.4002 73.8412 38.1549ZM76.5052 38.4109C76.5692 38.3416 76.6199 38.2722 76.6572 38.2029C76.6945 38.1336 76.7132 38.0722 76.7132 38.0189V37.5389C76.5639 37.4802 76.4065 37.4376 76.2412 37.4109C76.0759 37.3789 75.9132 37.3629 75.7532 37.3629C75.4332 37.3629 75.1719 37.4269 74.9692 37.5549C74.7719 37.6829 74.6732 37.8589 74.6732 38.0829C74.6732 38.2056 74.7052 38.3229 74.7692 38.4349C74.8385 38.5469 74.9345 38.6376 75.0572 38.7069C75.1852 38.7762 75.3425 38.8109 75.5292 38.8109C75.7212 38.8109 75.9052 38.7736 76.0812 38.6989C76.2572 38.6242 76.3985 38.5282 76.5052 38.4109ZM81.9408 40.3789V39.3789H78.6608V35.1949H79.5408V38.6109H81.2528V35.1949H82.1328V38.6109H82.7168V40.3789H81.9408ZM83.4577 39.3789V35.2029H84.3377V38.2029L86.4577 35.1949H87.2577V39.3789H86.3777V36.4429L84.2817 39.3789H83.4577ZM88.3092 39.3789V35.2029H89.1893V38.2029L91.3093 35.1949H92.1093V39.3789H91.2293V36.4429L89.1333 39.3789H88.3092ZM95.1374 39.3789V35.1949H97.3774C97.644 35.1949 97.8627 35.2456 98.0334 35.3469C98.2094 35.4429 98.34 35.5682 98.4254 35.7229C98.5107 35.8722 98.5534 36.0376 98.5534 36.2189C98.5534 36.4482 98.5 36.6509 98.3934 36.8269C98.2867 37.0029 98.1294 37.1362 97.9214 37.2269C98.1614 37.2962 98.356 37.4189 98.5054 37.5949C98.66 37.7656 98.7374 37.9869 98.7374 38.2589C98.7374 38.5042 98.6787 38.7122 98.5614 38.8829C98.444 39.0482 98.276 39.1736 98.0574 39.2589C97.844 39.3389 97.5934 39.3789 97.3054 39.3789H95.1374ZM95.9694 38.7709H97.2814C97.3934 38.7709 97.4947 38.7442 97.5854 38.6909C97.6814 38.6322 97.756 38.5576 97.8094 38.4669C97.8627 38.3709 97.8894 38.2696 97.8894 38.1629C97.8894 38.0456 97.8627 37.9416 97.8094 37.8509C97.7614 37.7602 97.692 37.6882 97.6014 37.6349C97.516 37.5816 97.4147 37.5549 97.2974 37.5549H95.9694V38.7709ZM95.9694 36.9869H97.1534C97.2654 36.9869 97.364 36.9602 97.4494 36.9069C97.5347 36.8482 97.6014 36.7709 97.6494 36.6749C97.6974 36.5789 97.7214 36.4776 97.7214 36.3709C97.7214 36.2162 97.6707 36.0829 97.5694 35.9709C97.468 35.8589 97.3347 35.8029 97.1694 35.8029H95.9694V36.9869ZM101.503 39.3789L102.943 37.0509C102.57 36.9442 102.279 36.7442 102.071 36.4509C101.863 36.1576 101.759 35.8109 101.759 35.4109C101.759 35.0856 101.837 34.7949 101.991 34.5389C102.151 34.2829 102.373 34.0802 102.655 33.9309C102.938 33.7762 103.266 33.6989 103.639 33.6989H105.695V39.3789H104.799V37.1629H104.063C104.031 37.1629 103.997 37.1629 103.959 37.1629C103.927 37.1629 103.895 37.1629 103.863 37.1629L102.535 39.3789H101.503ZM103.735 36.3869H104.799V34.4749H103.759C103.557 34.4749 103.373 34.5122 103.207 34.5869C103.042 34.6562 102.911 34.7602 102.815 34.8989C102.725 35.0376 102.679 35.2082 102.679 35.4109C102.679 35.6136 102.722 35.7869 102.807 35.9309C102.893 36.0749 103.013 36.1869 103.167 36.2669C103.327 36.3469 103.517 36.3869 103.735 36.3869ZM106.864 39.3789V35.1949H107.744V36.8589H109.688V35.1949H110.568V39.3789H109.688V37.6189H107.744V39.3789H106.864ZM111.23 40.3789V38.6029H111.326C111.438 38.6029 111.542 38.5709 111.638 38.5069C111.734 38.4429 111.819 38.3336 111.894 38.1789C111.968 38.0189 112.03 37.8002 112.078 37.5229C112.126 37.2402 112.155 36.8856 112.166 36.4589L112.214 35.1949H115.198V38.6029H115.774V40.3789H114.998V39.3789H111.998V40.3789H111.23ZM112.486 38.6029H114.318V35.9549H112.99L112.966 36.5389C112.95 36.9442 112.92 37.2856 112.878 37.5629C112.84 37.8402 112.787 38.0616 112.718 38.2269C112.654 38.3922 112.576 38.5176 112.486 38.6029ZM118.416 39.4589C118.091 39.4589 117.795 39.4029 117.528 39.2909C117.267 39.1736 117.04 39.0162 116.848 38.8189C116.656 38.6162 116.507 38.3869 116.4 38.1309C116.299 37.8696 116.248 37.5922 116.248 37.2989C116.248 36.9042 116.339 36.5442 116.52 36.2189C116.702 35.8882 116.955 35.6242 117.28 35.4269C117.606 35.2242 117.987 35.1229 118.424 35.1229C118.862 35.1229 119.238 35.2242 119.552 35.4269C119.872 35.6242 120.12 35.8856 120.296 36.2109C120.472 36.5362 120.56 36.8856 120.56 37.2589C120.56 37.3229 120.558 37.3842 120.552 37.4429C120.547 37.4962 120.542 37.5416 120.536 37.5789H117.184C117.2 37.8242 117.267 38.0402 117.384 38.2269C117.507 38.4082 117.662 38.5522 117.848 38.6589C118.035 38.7602 118.235 38.8109 118.448 38.8109C118.683 38.8109 118.904 38.7522 119.112 38.6349C119.326 38.5176 119.47 38.3629 119.544 38.1709L120.296 38.3869C120.206 38.5896 120.067 38.7736 119.88 38.9389C119.699 39.0989 119.483 39.2269 119.232 39.3229C118.982 39.4136 118.71 39.4589 118.416 39.4589ZM117.16 36.9949H119.688C119.672 36.7549 119.603 36.5442 119.48 36.3629C119.363 36.1762 119.211 36.0322 119.024 35.9309C118.843 35.8242 118.64 35.7709 118.416 35.7709C118.198 35.7709 117.995 35.8242 117.808 35.9309C117.627 36.0322 117.478 36.1762 117.36 36.3629C117.243 36.5442 117.176 36.7549 117.16 36.9949ZM121.278 39.3789V35.1949H122.15V36.8509H122.566L123.798 35.1949H124.774L123.246 37.2189L124.95 39.3789H123.934L122.558 37.6429H122.15V39.3789H121.278ZM127.299 39.4589C126.974 39.4589 126.678 39.4029 126.411 39.2909C126.15 39.1736 125.923 39.0136 125.731 38.8109C125.539 38.6082 125.39 38.3762 125.283 38.1149C125.182 37.8536 125.131 37.5762 125.131 37.2829C125.131 36.8882 125.219 36.5282 125.395 36.2029C125.576 35.8776 125.827 35.6162 126.147 35.4189C126.472 35.2216 126.856 35.1229 127.299 35.1229C127.726 35.1229 128.096 35.2189 128.411 35.4109C128.731 35.5976 128.966 35.8482 129.115 36.1629L128.259 36.4349C128.163 36.2589 128.027 36.1229 127.851 36.0269C127.68 35.9256 127.491 35.8749 127.283 35.8749C127.048 35.8749 126.835 35.9362 126.643 36.0589C126.456 36.1762 126.307 36.3416 126.195 36.5549C126.088 36.7629 126.035 37.0056 126.035 37.2829C126.035 37.5496 126.091 37.7922 126.203 38.0109C126.315 38.2242 126.464 38.3949 126.651 38.5229C126.843 38.6456 127.056 38.7069 127.291 38.7069C127.435 38.7069 127.574 38.6829 127.707 38.6349C127.846 38.5816 127.966 38.5122 128.067 38.4269C128.168 38.3362 128.24 38.2376 128.283 38.1309L129.147 38.3869C129.056 38.5949 128.92 38.7789 128.739 38.9389C128.563 39.0989 128.352 39.2269 128.107 39.3229C127.867 39.4136 127.598 39.4589 127.299 39.4589ZM131.729 39.4589C131.403 39.4589 131.107 39.4029 130.841 39.2909C130.579 39.1736 130.353 39.0162 130.161 38.8189C129.969 38.6162 129.819 38.3869 129.713 38.1309C129.611 37.8696 129.561 37.5922 129.561 37.2989C129.561 36.9042 129.651 36.5442 129.833 36.2189C130.014 35.8882 130.267 35.6242 130.593 35.4269C130.918 35.2242 131.299 35.1229 131.737 35.1229C132.174 35.1229 132.55 35.2242 132.865 35.4269C133.185 35.6242 133.433 35.8856 133.609 36.2109C133.785 36.5362 133.873 36.8856 133.873 37.2589C133.873 37.3229 133.87 37.3842 133.865 37.4429C133.859 37.4962 133.854 37.5416 133.849 37.5789H130.497C130.513 37.8242 130.579 38.0402 130.697 38.2269C130.819 38.4082 130.974 38.5522 131.161 38.6589C131.347 38.7602 131.547 38.8109 131.761 38.8109C131.995 38.8109 132.217 38.7522 132.425 38.6349C132.638 38.5176 132.782 38.3629 132.857 38.1709L133.609 38.3869C133.518 38.5896 133.379 38.7736 133.193 38.9389C133.011 39.0989 132.795 39.2269 132.545 39.3229C132.294 39.4136 132.022 39.4589 131.729 39.4589ZM130.473 36.9949H133.001C132.985 36.7549 132.915 36.5442 132.793 36.3629C132.675 36.1762 132.523 36.0322 132.337 35.9309C132.155 35.8242 131.953 35.7709 131.729 35.7709C131.51 35.7709 131.307 35.8242 131.121 35.9309C130.939 36.0322 130.79 36.1762 130.673 36.3629C130.555 36.5442 130.489 36.7549 130.473 36.9949Z" fill="black"/>
<path d="M86.5 9.37891L88.1839 14.5613H93.6329L89.2245 17.7642L90.9084 22.9465L86.5 19.7437L82.0916 22.9465L83.7755 17.7642L79.3671 14.5613H84.8161L86.5 9.37891Z" fill="#FFB438"/>
<path d="M105.5 9.37891L107.184 14.5613H112.633L108.225 17.7642L109.908 22.9465L105.5 19.7437L101.092 22.9465L102.775 17.7642L98.3671 14.5613H103.816L105.5 9.37891Z" fill="#FFB438"/>
<path d="M124.5 9.37891L126.184 14.5613H131.633L127.225 17.7642L128.908 22.9465L124.5 19.7437L120.092 22.9465L121.775 17.7642L117.367 14.5613H122.816L124.5 9.37891Z" fill="#FFB438"/>
<path d="M143.5 9.37891L145.184 14.5613H150.633L146.225 17.7642L147.908 22.9465L143.5 19.7437L139.092 22.9465L140.775 17.7642L136.367 14.5613H141.816L143.5 9.37891Z" fill="#FFB438"/>
<path d="M162.5 9.37891L164.184 14.5613H169.633L165.225 17.7642L166.908 22.9465L162.5 19.7437L158.092 22.9465L159.775 17.7642L155.367 14.5613H160.816L162.5 9.37891Z" fill="#FFECCC"/>
<mask id="mask0_1945_35" style="mask-type:alpha" maskUnits="userSpaceOnUse" x="155" y="7" width="10" height="18">
<rect x="155" y="7.37891" width="10" height="17" fill="white"/>
</mask>
<g mask="url(#mask0_1945_35)">
<path d="M162.5 9.37891L164.184 14.5613H169.633L165.225 17.7642L166.908 22.9465L162.5 19.7437L158.092 22.9465L159.775 17.7642L155.367 14.5613H160.816L162.5 9.37891Z" fill="#FFB438"/>
</g>
<path d="M9.00002 17.709C8.99753 16.3504 9.26693 15.0047 9.79271 13.7493C10.3185 12.4938 11.0903 11.3534 12.0638 10.3934C13.0373 9.43349 14.1933 8.67302 15.4653 8.1557C16.7374 7.63838 18.1004 7.37441 19.476 7.37896C25.2186 7.37896 29.9624 11.9916 29.9657 17.5784C29.9689 23.4956 25.3295 28.1024 19.3821 28.0883C13.6609 28.0749 8.99807 23.4123 9.00002 17.709ZM23.0091 11.443C21.3939 11.5205 19.8332 11.4923 18.3042 11.699C16.8426 11.8956 15.6546 12.6707 15.2067 14.159C14.7219 15.7701 14.9209 17.2955 16.1439 18.5687C16.5503 18.9924 17.0053 19.3694 17.4616 19.7893L14.7504 23.8034C16.3105 24.2342 17.052 23.9852 17.8323 22.8247C18.0041 22.5687 18.1875 22.3203 18.3593 22.0649C18.9828 21.1368 19.6044 20.2086 20.2344 19.2657C19.489 18.7095 18.7624 18.2371 18.1195 17.6719C17.0422 16.7245 16.8413 15.0986 17.6327 14.1052C18.2491 13.332 19.1429 13.2903 20.0432 13.2276C20.6673 13.1841 20.8339 13.4043 20.8281 14.0041C20.8015 17.033 20.8171 20.0627 20.8177 23.0936V23.9257C21.3842 23.9257 21.8515 23.8879 22.3084 23.9353C22.8983 23.9961 23.0616 23.7881 23.0577 23.2069C23.0318 19.5192 23.0454 15.8316 23.0441 12.1439C23.0454 11.9698 23.0285 11.7951 23.0091 11.443Z" fill="black"/>
<path d="M41.58 23.9189V20.7389H35.44V18.7789L42.28 9.95891H43.78V18.7389H45.54V20.7389H43.78V23.9189H41.58ZM37.68 18.7389H41.82V13.3189L37.68 18.7389ZM47.7491 23.3189L48.2291 21.2589H47.5091V18.8189H49.4891V21.2589L48.7891 23.3189H47.7491ZM51.3831 14.8789C51.3831 13.9722 51.6098 13.1456 52.0631 12.3989C52.5165 11.6522 53.1298 11.0589 53.9031 10.6189C54.6898 10.1789 55.5631 9.95891 56.5231 9.95891C57.5631 9.95891 58.4698 10.2122 59.2431 10.7189C60.0165 11.2122 60.6165 11.9322 61.0431 12.8789C61.4831 13.8122 61.7031 14.9389 61.7031 16.2589C61.7031 18.0722 61.4765 19.5856 61.0231 20.7989C60.5831 22.0122 59.9565 22.9256 59.1431 23.5389C58.3298 24.1522 57.3765 24.4589 56.2831 24.4589C55.3898 24.4589 54.5631 24.2456 53.8031 23.8189C53.0431 23.4056 52.4298 22.8256 51.9631 22.0789L53.2631 20.7189C53.5698 21.2656 53.9965 21.7056 54.5431 22.0389C55.0898 22.3722 55.6831 22.5389 56.3231 22.5389C56.9898 22.5389 57.5698 22.3456 58.0631 21.9589C58.5565 21.5856 58.9365 21.0389 59.2031 20.3189C59.4831 19.5989 59.6298 18.7256 59.6431 17.6989C59.4565 18.0856 59.1965 18.4256 58.8631 18.7189C58.5298 19.0122 58.1431 19.2389 57.7031 19.3989C57.2765 19.5589 56.8098 19.6389 56.3031 19.6389C55.3831 19.6389 54.5498 19.4256 53.8031 18.9989C53.0565 18.5722 52.4631 18.0056 52.0231 17.2989C51.5965 16.5789 51.3831 15.7722 51.3831 14.8789ZM56.5031 11.8389C55.9565 11.8389 55.4498 11.9789 54.9831 12.2589C54.5298 12.5256 54.1631 12.8922 53.8831 13.3589C53.6165 13.8122 53.4831 14.3189 53.4831 14.8789C53.4831 15.4256 53.6165 15.9256 53.8831 16.3789C54.1631 16.8322 54.5298 17.1989 54.9831 17.4789C55.4498 17.7456 55.9565 17.8789 56.5031 17.8789C57.0631 17.8789 57.5698 17.7456 58.0231 17.4789C58.4765 17.1989 58.8365 16.8322 59.1031 16.3789C59.3831 15.9256 59.5231 15.4256 59.5231 14.8789C59.5231 14.3322 59.3831 13.8256 59.1031 13.3589C58.8231 12.8922 58.4565 12.5256 58.0031 12.2589C57.5498 11.9789 57.0498 11.8389 56.5031 11.8389Z" fill="black"/>
</svg>
