<svg width="180" height="47" fill="none" xmlns="http://www.w3.org/2000/svg"><rect y=".379" width="180" height="46" rx="10" fill="#fff"/><path d="M9.64 39.379v-5.68h2.384c.256 0 .49.053.704.16.213.107.4.248.56.424a1.9 1.9 0 01.496 1.264c0 .315-.072.616-.216.904a1.74 1.74 0 01-.6.688 1.543 1.543 0 01-.896.264h-1.536v1.976H9.64zm.896-2.768h1.48c.17 0 .32-.045.448-.136a.931.931 0 00.296-.384c.075-.16.112-.341.112-.544 0-.208-.043-.392-.128-.552a.938.938 0 00-.336-.368.766.766 0 00-.44-.136h-1.432v2.12zm5.872 2.848c-.325 0-.621-.056-.888-.168a2.189 2.189 0 01-.68-.472 2.251 2.251 0 01-.448-.688 2.28 2.28 0 01-.152-.832c0-.395.091-.755.272-1.08.182-.33.435-.595.76-.792.326-.203.707-.304 1.144-.304.438 0 .814.101 1.128.304.32.197.568.459.744.784a2.169 2.169 0 01.24 1.368h-3.352c.016.245.083.461.2.648.123.181.278.325.464.432.187.101.387.152.6.152.235 0 .456-.059.664-.176a.906.906 0 00.432-.464l.752.216c-.09.203-.229.387-.416.552a2.1 2.1 0 01-.648.384c-.25.09-.522.136-.816.136zm-1.256-2.464h2.528a1.255 1.255 0 00-.208-.632 1.22 1.22 0 00-.456-.432 1.177 1.177 0 00-.608-.16 1.238 1.238 0 00-1.056.592 1.301 1.301 0 00-.2.632zm4.118 2.384v-4.176h.88v3l2.12-3.008h.8v4.184h-.88v-2.936l-2.096 2.936h-.824zm1.904-4.616c-.395 0-.701-.099-.92-.296a.97.97 0 01-.32-.744h.576c0 .155.05.283.152.384.107.101.277.152.512.152.23 0 .392-.048.488-.144a.631.631 0 00.184-.392h.576a.96.96 0 01-.328.744c-.213.197-.52.296-.92.296zm3.94 4.616V35.97H23.73v-.776h3.656v.776h-1.392v3.408h-.88zm2.93 0v-4.176h.88v3l2.12-3.008h.8v4.184h-.88v-2.936l-2.096 2.936h-.824zm4.851 0v-4.184h.88v1.664h1.944v-1.664h.88v4.184h-.88v-1.76h-1.944v1.76h-.88zm4.766 0v-4.184h2.672v.776H38.54v3.408h-.88zm7.192.08c-.33 0-.626-.056-.888-.168a2.125 2.125 0 01-.68-.48 2.204 2.204 0 01-.584-1.52c0-.293.051-.57.152-.832.102-.261.246-.49.432-.688.192-.203.419-.36.68-.472a2.19 2.19 0 01.888-.176c.326 0 .619.059.88.176.267.112.494.27.68.472.192.197.339.427.44.688.102.261.152.539.152.832 0 .293-.05.57-.152.832a2.134 2.134 0 01-.44.688 2.014 2.014 0 01-.68.48 2.213 2.213 0 01-.88.168zm-1.248-2.16c0 .267.056.507.168.72.112.213.262.381.448.504.187.123.398.184.632.184.23 0 .438-.061.624-.184a1.37 1.37 0 00.456-.512c.112-.219.168-.459.168-.72 0-.267-.056-.507-.168-.72a1.304 1.304 0 00-.456-.504 1.079 1.079 0 00-.624-.192c-.234 0-.445.064-.632.192a1.393 1.393 0 00-.448.512 1.495 1.495 0 00-.168.72zm6.557 2.16a1.64 1.64 0 01-.888-.24 1.791 1.791 0 01-.608-.624v2.488h-.88v-5.888h.776v.752c.16-.25.368-.45.624-.6a1.66 1.66 0 01.856-.224 1.87 1.87 0 011.416.648c.176.203.312.435.408.696.101.256.152.528.152.816 0 .4-.08.765-.24 1.096-.155.33-.373.595-.656.792a1.645 1.645 0 01-.96.288zm-.288-.752c.186 0 .354-.04.504-.12a1.22 1.22 0 00.392-.32 1.42 1.42 0 00.256-.456 1.613 1.613 0 00-.008-1.072 1.298 1.298 0 00-.28-.448 1.31 1.31 0 00-.416-.304 1.162 1.162 0 00-.512-.112c-.112 0-.23.021-.352.064a1.398 1.398 0 00-.624.44.925.925 0 00-.168.32v1.096a1.576 1.576 0 00.72.792c.16.08.322.12.488.12zm2.935.672v-4.184h2.672v.776H53.69v3.408h-.88zm3.032-1.224c0-.267.075-.499.224-.696.155-.203.366-.357.632-.464.267-.112.576-.168.928-.168.187 0 .376.013.568.04.198.027.37.07.52.128v-.264c0-.293-.088-.523-.264-.688-.176-.165-.43-.248-.76-.248-.234 0-.456.043-.664.128-.208.08-.43.195-.664.344l-.296-.592c.278-.187.555-.325.832-.416.283-.09.579-.136.888-.136.56 0 1 .15 1.32.448.326.293.488.712.488 1.256v1.56c0 .101.016.173.048.216.038.043.099.067.184.072v.704a1.924 1.924 0 01-.376.04c-.186 0-.328-.045-.424-.136a.524.524 0 01-.168-.32l-.024-.24a1.803 1.803 0 01-.696.544 2.058 2.058 0 01-.856.192 1.61 1.61 0 01-.744-.168 1.328 1.328 0 01-.512-.472 1.232 1.232 0 01-.184-.664zm2.664.256c.064-.07.115-.139.152-.208a.4.4 0 00.056-.184v-.48a2.28 2.28 0 00-.472-.128 2.564 2.564 0 00-.488-.048c-.32 0-.581.064-.784.192a.599.599 0 00-.296.528.7.7 0 00.096.352c.07.112.166.203.288.272a.98.98 0 00.472.104c.192 0 .376-.037.552-.112a1.19 1.19 0 00.424-.288zm2.156.968v-4.184h.88v1.664h1.944v-1.664h.88v4.184h-.88v-1.76H61.54v1.76h-.88zm4.765 0v-4.176h.88v3l2.12-3.008h.8v4.184h-.88v-2.936l-2.096 2.936h-.824zm6.252.064c-.427 0-.787-.077-1.08-.232a1.673 1.673 0 01-.664-.656l.712-.32a.98.98 0 00.384.368c.165.085.365.128.6.128.283 0 .501-.059.656-.176a.554.554 0 00.232-.464.524.524 0 00-.192-.424c-.128-.112-.31-.17-.544-.176h-.432v-.56h.448c.107 0 .2-.024.28-.072a.49.49 0 00.184-.192.577.577 0 00.072-.288.463.463 0 00-.184-.384c-.117-.101-.296-.152-.536-.152a.983.983 0 00-.512.12.865.865 0 00-.328.336l-.664-.352c.139-.256.341-.456.608-.6a1.94 1.94 0 01.936-.216c.283 0 .533.045.752.136.224.085.397.213.52.384.128.165.192.37.192.616 0 .192-.045.373-.136.544a.827.827 0 01-.424.368c.256.075.448.205.576.392.133.181.2.397.2.648 0 .256-.072.477-.216.664a1.3 1.3 0 01-.584.416 2.38 2.38 0 01-.856.144zm2.163-1.288c0-.267.075-.499.224-.696.155-.203.365-.357.632-.464.267-.112.576-.168.928-.168.187 0 .376.013.568.04.198.027.37.07.52.128v-.264c0-.293-.088-.523-.264-.688-.176-.165-.43-.248-.76-.248-.234 0-.456.043-.664.128-.208.08-.43.195-.664.344l-.296-.592c.278-.187.555-.325.832-.416.283-.09.579-.136.888-.136.56 0 1 .15 1.32.448.325.293.488.712.488 1.256v1.56c0 .101.016.173.048.216.037.043.099.067.184.072v.704a1.924 1.924 0 01-.376.04c-.186 0-.328-.045-.424-.136a.524.524 0 01-.168-.32l-.024-.24a1.803 1.803 0 01-.696.544 2.058 2.058 0 01-.856.192 1.61 1.61 0 01-.744-.168 1.328 1.328 0 01-.512-.472 1.232 1.232 0 01-.184-.664zm2.664.256c.064-.07.115-.139.152-.208a.4.4 0 00.056-.184v-.48a2.28 2.28 0 00-.472-.128 2.564 2.564 0 00-.488-.048c-.32 0-.581.064-.784.192a.599.599 0 00-.296.528.7.7 0 00.096.352c.07.112.165.203.288.272a.98.98 0 00.472.104c.192 0 .376-.037.552-.112a1.19 1.19 0 00.424-.288zm5.436 1.968v-1h-3.28v-4.184h.88v3.416h1.712v-3.416h.88v3.416h.584v1.768h-.776zm1.517-1v-4.176h.88v3l2.12-3.008h.8v4.184h-.88v-2.936l-2.096 2.936h-.824zm4.851 0v-4.176h.88v3l2.12-3.008h.8v4.184h-.88v-2.936l-2.096 2.936h-.824zm6.828 0v-4.184h2.24c.267 0 .486.05.656.152a.955.955 0 01.392.376c.086.15.128.315.128.496 0 .23-.053.432-.16.608a.994.994 0 01-.472.4c.24.07.435.192.584.368.155.17.232.392.232.664 0 .245-.058.453-.176.624a1.08 1.08 0 01-.504.376 2.14 2.14 0 01-.752.12h-2.168zm.832-.608h1.312a.589.589 0 00.304-.08.644.644 0 00.224-.224.617.617 0 00.08-.304.604.604 0 00-.08-.312.562.562 0 00-.512-.296H95.97v1.216zm0-1.784h1.184a.549.549 0 00.296-.08.604.604 0 00.2-.232.67.67 0 00.072-.304.576.576 0 00-.152-.4.514.514 0 00-.4-.168h-1.2v1.184zm5.534 2.392l1.44-2.328a1.556 1.556 0 01-.872-.6 1.751 1.751 0 01-.312-1.04c0-.325.078-.616.232-.872.16-.256.382-.459.664-.608.283-.155.611-.232.984-.232h2.056v5.68h-.896v-2.216h-.936l-1.328 2.216h-1.032zm2.232-2.992h1.064v-1.912h-1.04a1.33 1.33 0 00-.552.112.878.878 0 00-.392.312.921.921 0 00-.136.512c0 .203.043.376.128.52a.885.885 0 00.36.336c.16.08.35.12.568.12zm3.129 2.992v-4.184h.88v1.664h1.944v-1.664h.88v4.184h-.88v-1.76h-1.944v1.76h-.88zm4.366 1v-1.776h.096a.552.552 0 00.312-.096.802.802 0 00.256-.328c.074-.16.136-.379.184-.656.048-.283.077-.637.088-1.064l.048-1.264h2.984v3.408h.576v1.776h-.776v-1h-3v1h-.768zm1.256-1.776h1.832v-2.648h-1.328l-.024.584a9.479 9.479 0 01-.088 1.024 2.735 2.735 0 01-.16.664c-.064.165-.142.29-.232.376zm5.93.856c-.325 0-.621-.056-.888-.168a2.193 2.193 0 01-.68-.472 2.259 2.259 0 01-.448-.688 2.288 2.288 0 01-.152-.832c0-.395.091-.755.272-1.08a2.12 2.12 0 011.904-1.096c.438 0 .814.101 1.128.304.32.197.568.459.744.784a2.169 2.169 0 01.24 1.368h-3.352c.016.245.083.461.2.648.123.181.278.325.464.432.187.101.387.152.6.152.235 0 .456-.059.664-.176a.9.9 0 00.432-.464l.752.216a1.61 1.61 0 01-.416.552 2.1 2.1 0 01-.648.384c-.25.09-.522.136-.816.136zm-1.256-2.464h2.528a1.252 1.252 0 00-.208-.632 1.215 1.215 0 00-.456-.432 1.175 1.175 0 00-.608-.16 1.247 1.247 0 00-1.056.592 1.305 1.305 0 00-.2.632zm4.118 2.384v-4.184h.872v1.656h.416l1.232-1.656h.976l-1.528 2.024 1.704 2.16h-1.016l-1.376-1.736h-.408v1.736h-.872zm6.021.08c-.325 0-.621-.056-.888-.168a2.128 2.128 0 01-.68-.48 2.232 2.232 0 01-.448-.696 2.288 2.288 0 01-.152-.832c0-.395.088-.755.264-1.08.181-.325.432-.587.752-.784.325-.197.709-.296 1.152-.296.427 0 .797.096 1.112.288.32.187.555.437.704.752l-.856.272a1.002 1.002 0 00-.408-.408 1.093 1.093 0 00-.568-.152 1.16 1.16 0 00-.64.184 1.263 1.263 0 00-.448.496 1.57 1.57 0 00-.16.728c0 .267.056.51.168.728.112.213.261.384.448.512a1.217 1.217 0 001.056.112c.139-.053.259-.123.36-.208a.804.804 0 00.216-.296l.864.256a1.575 1.575 0 01-.408.552 2.03 2.03 0 01-.632.384 2.27 2.27 0 01-.808.136zm4.43 0c-.326 0-.622-.056-.888-.168a2.182 2.182 0 01-.68-.472 2.24 2.24 0 01-.448-.688 2.267 2.267 0 01-.152-.832c0-.395.09-.755.272-1.08.181-.33.434-.595.76-.792.325-.203.706-.304 1.144-.304.437 0 .813.101 1.128.304.32.197.568.459.744.784a2.169 2.169 0 01.256 1.232l-.016.136h-3.352c.016.245.082.461.2.648.122.181.277.325.464.432.186.101.386.152.6.152.234 0 .456-.059.664-.176a.909.909 0 00.432-.464l.752.216a1.63 1.63 0 01-.416.552c-.182.16-.398.288-.648.384a2.4 2.4 0 01-.816.136zm-1.256-2.464h2.528a1.261 1.261 0 00-.208-.632 1.23 1.23 0 00-.456-.432 1.178 1.178 0 00-.608-.16 1.231 1.231 0 00-1.056.592 1.295 1.295 0 00-.2.632z" fill="#000"/><path d="M86.5 9.379l1.684 5.182h5.449l-4.408 3.203 1.683 5.183-4.408-3.203-4.408 3.203 1.683-5.183-4.408-3.203h5.45L86.5 9.38zm19 0l1.684 5.182h5.449l-4.408 3.203 1.683 5.183-4.408-3.203-4.408 3.203 1.683-5.183-4.408-3.203h5.449L105.5 9.38zm19 0l1.684 5.182h5.449l-4.408 3.203 1.683 5.183-4.408-3.203-4.408 3.203 1.683-5.183-4.408-3.203h5.449L124.5 9.38zm19 0l1.684 5.182h5.449l-4.408 3.203 1.683 5.183-4.408-3.203-4.408 3.203 1.683-5.183-4.408-3.203h5.449L143.5 9.38z" fill="#FFB438"/><path d="M162.5 9.379l1.684 5.182h5.449l-4.408 3.203 1.683 5.183-4.408-3.203-4.408 3.203 1.683-5.183-4.408-3.203h5.449L162.5 9.38z" fill="#FFECCC"/><mask id="a" style="mask-type:alpha" maskUnits="userSpaceOnUse" x="155" y="7" width="10" height="18"><path fill="#fff" d="M155 7.379h10v17h-10z"/></mask><g mask="url(#a)"><path d="M162.5 9.379l1.684 5.182h5.449l-4.408 3.203 1.683 5.183-4.408-3.203-4.408 3.203 1.683-5.183-4.408-3.203h5.449L162.5 9.38z" fill="#FFB438"/></g><path d="M9 17.709a10.2 10.2 0 01.793-3.96 10.304 10.304 0 012.27-3.356 10.45 10.45 0 013.402-2.237 10.556 10.556 0 014.011-.777c5.743 0 10.486 4.613 10.49 10.2.003 5.917-4.637 10.523-10.584 10.51C13.661 28.074 8.998 23.411 9 17.708zm14.01-6.266c-1.616.078-3.177.05-4.706.256-1.461.197-2.65.972-3.097 2.46-.485 1.611-.286 3.136.937 4.41.406.423.861.8 1.318 1.22l-2.712 4.014c1.56.431 2.302.182 3.082-.978.172-.256.355-.505.527-.76.624-.928 1.245-1.856 1.875-2.8-.745-.556-1.472-1.028-2.115-1.593-1.077-.948-1.278-2.573-.486-3.567.616-.773 1.51-.815 2.41-.877.624-.044.79.176.785.776-.026 3.029-.01 6.059-.01 9.09v.832c.566 0 1.034-.038 1.49.01.59.06.754-.148.75-.73-.026-3.687-.013-7.374-.014-11.062.001-.174-.015-.349-.035-.701zm18.57 12.476v-3.18h-6.14v-1.96l6.84-8.82h1.5v8.78h1.76v2h-1.76v3.18h-2.2zm-3.9-5.18h4.14v-5.42l-4.14 5.42zm10.07 4.58l.48-2.06h-.72v-2.44h1.98v2.44l-.7 2.06h-1.04zm3.633-8.44c0-.907.227-1.733.68-2.48a5.016 5.016 0 011.84-1.78c.787-.44 1.66-.66 2.62-.66 1.04 0 1.947.253 2.72.76.773.493 1.373 1.213 1.8 2.16.44.933.66 2.06.66 3.38 0 1.813-.227 3.327-.68 4.54-.44 1.213-1.067 2.127-1.88 2.74-.813.613-1.767.92-2.86.92-.893 0-1.72-.213-2.48-.64a4.9 4.9 0 01-1.84-1.74l1.3-1.36c.307.547.733.987 1.28 1.32.547.333 1.14.5 1.78.5.667 0 1.247-.193 1.74-.58.493-.373.873-.92 1.14-1.64.28-.72.427-1.593.44-2.62a3.203 3.203 0 01-.78 1.02 3.6 3.6 0 01-1.16.68c-.427.16-.893.24-1.4.24-.92 0-1.753-.213-2.5-.64a4.952 4.952 0 01-1.78-1.7c-.427-.72-.64-1.527-.64-2.42zm5.12-3.04c-.547 0-1.053.14-1.52.42-.453.267-.82.633-1.1 1.1-.267.453-.4.96-.4 1.52 0 .547.134 1.047.4 1.5.28.453.647.82 1.1 1.1.467.267.974.4 1.52.4.56 0 1.067-.133 1.52-.4.453-.28.813-.647 1.08-1.1.28-.453.42-.953.42-1.5s-.14-1.053-.42-1.52a3.104 3.104 0 00-1.1-1.1 2.799 2.799 0 00-1.5-.42z" fill="#000"/></svg>