<svg width="22" height="21" fill="none" xmlns="http://www.w3.org/2000/svg"><g fill="#707070"><path d="M11.087 21H9.94c-.073-.014-.146-.03-.219-.04-.453-.064-.911-.098-1.357-.193-2.551-.548-4.639-1.856-6.21-3.94-1.856-2.46-2.5-5.237-1.95-8.263.483-2.644 1.828-4.796 3.968-6.419C6.555.337 9.257-.318 12.207.142c2.168.337 4.044 1.298 5.615 2.83 1.694 1.653 2.717 3.652 3.07 5.997.047.317.081.635.121.952v1.15c-.045.364-.078.73-.139 1.092-.399 2.385-1.48 4.407-3.255 6.049a10.23 10.23 0 01-5.581 2.664c-.316.048-.635.083-.95.123zm-.554-14.454c-1.175 0-2.351-.02-3.526.006a2.047 2.047 0 00-2.023 2.016 97.115 97.115 0 000 3.856 2.049 2.049 0 002.001 2.017c1.011.027 2.023.012 3.035.012 1.333 0 2.667.017 3.997-.011a2.047 2.047 0 002.025-2.037c.023-1.272.023-2.543 0-3.815a2.049 2.049 0 00-2.023-2.038c-1.16-.026-2.323-.006-3.486-.006z"/><path d="M11.957 10.497l-2.873 1.672V8.825l2.873 1.672z"/></g></svg>