<svg width="34" height="34" fill="none" xmlns="http://www.w3.org/2000/svg"><g fill="#C8102E"><path d="M17.455 33.43h-1.81c-.115-.02-.23-.046-.344-.062-.714-.098-1.437-.15-2.139-.3-4.021-.853-7.312-2.888-9.788-6.131C.45 23.107-.566 18.784.303 14.075c.759-4.116 2.879-7.465 6.251-9.99C10.312 1.27 14.571.25 19.22.964c3.417.525 6.374 2.022 8.85 4.406 2.668 2.572 4.281 5.684 4.837 9.334.074.493.13.989.192 1.482v1.789c-.072.567-.124 1.138-.22 1.701-.628 3.712-2.332 6.86-5.13 9.414a16.205 16.205 0 01-8.796 4.148c-.498.074-1 .129-1.498.191zm-.873-22.496c-1.853 0-3.706-.031-5.558.01a3.246 3.246 0 00-2.24.928 3.167 3.167 0 00-.949 2.21c-.04 2-.04 4 0 6 .013.825.348 1.613.937 2.199a3.248 3.248 0 002.218.942c1.594.042 3.188.018 4.782.018 2.102 0 4.205.026 6.301-.018a3.246 3.246 0 002.254-.94 3.166 3.166 0 00.938-2.23c.035-1.98.035-3.958 0-5.937a3.169 3.169 0 00-.938-2.23 3.25 3.25 0 00-2.251-.943c-1.83-.04-3.661-.009-5.494-.009z"/><path d="M18.826 17.083l-4.528 2.603v-5.205l4.528 2.602z"/></g></svg>