<svg width="20" height="19" fill="none" xmlns="http://www.w3.org/2000/svg"><path d="M10.815 18.84H9.789c-.065-.012-.13-.026-.195-.035-.405-.056-.814-.086-1.212-.17-2.28-.483-4.145-1.637-5.548-3.475C1.176 12.99.6 10.539 1.093 7.87c.43-2.333 1.632-4.232 3.543-5.663C6.766.612 9.18.034 11.816.439c1.936.298 3.612 1.146 5.015 2.498 1.513 1.457 2.427 3.22 2.742 5.29.042.28.073.56.109.84v1.014c-.041.321-.07.645-.124.964-.357 2.104-1.323 3.888-2.909 5.336a9.184 9.184 0 01-4.985 2.35c-.282.043-.567.074-.85.11zM10.32 6.09c-1.05 0-2.1-.018-3.15.005a1.84 1.84 0 00-1.27.526c-.337.333-.53.782-.537 1.253a84.603 84.603 0 000 3.4c.007.468.197.915.53 1.247a1.84 1.84 0 001.258.534c.903.024 1.807.01 2.71.01 1.192 0 2.383.015 3.571-.01a1.84 1.84 0 001.278-.533c.338-.336.53-.79.531-1.264.02-1.122.02-2.243 0-3.365a1.796 1.796 0 00-.53-1.264 1.842 1.842 0 00-1.277-.534c-1.037-.023-2.075-.005-3.114-.005z" fill="#fff"/><path d="M11.592 9.575L9.025 11.05V8.1l2.567 1.475z" fill="#fff"/></svg>