<svg width="21" height="21" fill="none" xmlns="http://www.w3.org/2000/svg"><path d="M11.074 21H9.925c-.073-.014-.145-.03-.218-.04-.453-.064-.912-.098-1.357-.193-2.552-.548-4.64-1.856-6.21-3.94C.284 14.367-.361 11.59.19 8.564.672 5.92 2.017 3.768 4.157 2.145 6.542.337 9.244-.318 12.194.142c2.168.337 4.044 1.298 5.615 2.83 1.693 1.653 2.716 3.652 3.07 5.997.046.317.081.635.121.952v1.15c-.046.364-.079.73-.14 1.092-.398 2.385-1.48 4.407-3.255 6.049a10.229 10.229 0 01-5.58 2.664c-.317.048-.635.083-.951.123zM10.52 6.545c-1.176 0-2.352-.02-3.527.006A2.047 2.047 0 004.97 8.568a97.077 97.077 0 000 3.856 2.049 2.049 0 002.002 2.017c1.01.027 2.023.012 3.034.012 1.334 0 2.668.017 3.998-.011a2.048 2.048 0 002.025-2.037c.022-1.272.022-2.543 0-3.815a2.049 2.049 0 00-2.023-2.038c-1.161-.026-2.323-.006-3.486-.006z" fill="#DD3737"/><path d="M11.944 10.497L9.07 12.169V8.825l2.874 1.672z" fill="#DD3737"/></svg>