<svg width="115" height="115" fill="none" xmlns="http://www.w3.org/2000/svg"><g filter="url(#filter0_i_1836_1206)"><rect width="115" height="115" rx="15" fill="#F8F4F4"/></g><g filter="url(#filter1_i_1836_1206)"><path d="M8 42.828h99.028l-4.393 48.776H12.792L8 42.828z" fill="#707070"/></g><g filter="url(#filter2_d_1836_1206)"><path fill-rule="evenodd" clip-rule="evenodd" d="M45.534 26.172H31.958v52.345c0 1.752 3.04 3.172 6.788 3.172 3.75 0 6.788-1.42 6.788-3.172V26.172z" fill="#fff"/></g><mask id="a" style="mask-type:alpha" maskUnits="userSpaceOnUse" x="31" y="26" width="15" height="56"><path fill-rule="evenodd" clip-rule="evenodd" d="M45.534 26.172H31.958v52.345c0 1.752 3.04 3.172 6.788 3.172 3.75 0 6.788-1.42 6.788-3.172V26.172z" fill="#fff"/></mask><g mask="url(#a)"><path d="M31.958 81.69V47.546c0-.613.227-1.102.765-1.383.517-.27 1.008-.2 1.457.161.153.123.277.283.36.468.083.185.123.388.117.593v4.016c0 .811.422 1.4 1.165 1.56.763.165 1.51-.488 1.541-1.25.02-.469-.016-.935.06-1.405.117-.735.625-1.239 1.326-1.238.325-.01.642.112.886.342.245.23.399.552.431.9.142 1.147.039 2.299.062 3.448.019.895.5 1.44 1.251 1.49.862.066 1.453-.695 1.453-1.508v-6.21c0-.92.51-1.483 1.304-1.527.647-.035 1.4.563 1.399 1.538-.007 3.976-.007 30.167 0 34.147H31.958z" fill="#C8102E"/></g><g filter="url(#filter3_i_1836_1206)"><ellipse cx="38.746" cy="26.172" rx="6.788" ry="3.172" fill="#707070"/></g><g filter="url(#filter4_d_1836_1206)"><path fill-rule="evenodd" clip-rule="evenodd" d="M83.868 26.172H70.292v52.345c0 1.752 3.04 3.172 6.788 3.172 3.75 0 6.788-1.42 6.788-3.172V26.172z" fill="#fff"/></g><mask id="b" style="mask-type:alpha" maskUnits="userSpaceOnUse" x="70" y="26" width="14" height="56"><path fill-rule="evenodd" clip-rule="evenodd" d="M83.868 26.172H70.292v52.345c0 1.752 3.04 3.172 6.788 3.172 3.75 0 6.788-1.42 6.788-3.172V26.172z" fill="#fff"/></mask><g mask="url(#b)"><path d="M70.292 81.69V47.546c0-.613.227-1.102.764-1.383.517-.27 1.009-.2 1.457.161.154.123.277.283.36.468.083.185.123.388.117.593v4.016c0 .811.422 1.4 1.166 1.56.762.165 1.51-.488 1.54-1.25.02-.469-.015-.935.06-1.405.117-.735.625-1.239 1.327-1.238.325-.01.641.112.886.342.244.23.398.552.43.9.143 1.147.04 2.299.063 3.448.018.895.5 1.44 1.25 1.49.863.066 1.453-.695 1.453-1.508v-6.21c0-.92.511-1.483 1.304-1.527.648-.035 1.401.563 1.4 1.538-.008 3.976-.008 30.167 0 34.147H70.291z" fill="#C8102E"/></g><g filter="url(#filter5_i_1836_1206)"><ellipse cx="77.08" cy="26.172" rx="6.788" ry="3.172" fill="#707070"/></g><defs><filter id="filter0_i_1836_1206" x="0" y="0" width="117" height="117" filterUnits="userSpaceOnUse" color-interpolation-filters="sRGB"><feFlood flood-opacity="0" result="BackgroundImageFix"/><feBlend in="SourceGraphic" in2="BackgroundImageFix" result="shape"/><feColorMatrix in="SourceAlpha" values="0 0 0 0 0 0 0 0 0 0 0 0 0 0 0 0 0 0 127 0" result="hardAlpha"/><feOffset dx="2" dy="2"/><feGaussianBlur stdDeviation="3"/><feComposite in2="hardAlpha" operator="arithmetic" k2="-1" k3="1"/><feColorMatrix values="0 0 0 0 0 0 0 0 0 0 0 0 0 0 0 0 0 0 0.05 0"/><feBlend in2="shape" result="effect1_innerShadow_1836_1206"/></filter><filter id="filter1_i_1836_1206" x="8" y="42.828" width="99.028" height="48.775" filterUnits="userSpaceOnUse" color-interpolation-filters="sRGB"><feFlood flood-opacity="0" result="BackgroundImageFix"/><feBlend in="SourceGraphic" in2="BackgroundImageFix" result="shape"/><feColorMatrix in="SourceAlpha" values="0 0 0 0 0 0 0 0 0 0 0 0 0 0 0 0 0 0 127 0" result="hardAlpha"/><feOffset/><feGaussianBlur stdDeviation="5"/><feComposite in2="hardAlpha" operator="arithmetic" k2="-1" k3="1"/><feColorMatrix values="0 0 0 0 0 0 0 0 0 0 0 0 0 0 0 0 0 0 0.5 0"/><feBlend in2="shape" result="effect1_innerShadow_1836_1206"/></filter><filter id="filter2_d_1836_1206" x="28.958" y="25.172" width="19.576" height="61.518" filterUnits="userSpaceOnUse" color-interpolation-filters="sRGB"><feFlood flood-opacity="0" result="BackgroundImageFix"/><feColorMatrix in="SourceAlpha" values="0 0 0 0 0 0 0 0 0 0 0 0 0 0 0 0 0 0 127 0" result="hardAlpha"/><feOffset dy="2"/><feGaussianBlur stdDeviation="1.5"/><feComposite in2="hardAlpha" operator="out"/><feColorMatrix values="0 0 0 0 0 0 0 0 0 0 0 0 0 0 0 0 0 0 0.25 0"/><feBlend in2="BackgroundImageFix" result="effect1_dropShadow_1836_1206"/><feBlend in="SourceGraphic" in2="effect1_dropShadow_1836_1206" result="shape"/></filter><filter id="filter3_i_1836_1206" x="31.958" y="23" width="13.576" height="9.346" filterUnits="userSpaceOnUse" color-interpolation-filters="sRGB"><feFlood flood-opacity="0" result="BackgroundImageFix"/><feBlend in="SourceGraphic" in2="BackgroundImageFix" result="shape"/><feColorMatrix in="SourceAlpha" values="0 0 0 0 0 0 0 0 0 0 0 0 0 0 0 0 0 0 127 0" result="hardAlpha"/><feOffset dy="4"/><feGaussianBlur stdDeviation="1.5"/><feComposite in2="hardAlpha" operator="arithmetic" k2="-1" k3="1"/><feColorMatrix values="0 0 0 0 0 0 0 0 0 0 0 0 0 0 0 0 0 0 0.5 0"/><feBlend in2="shape" result="effect1_innerShadow_1836_1206"/></filter><filter id="filter4_d_1836_1206" x="67.292" y="25.172" width="19.576" height="61.518" filterUnits="userSpaceOnUse" color-interpolation-filters="sRGB"><feFlood flood-opacity="0" result="BackgroundImageFix"/><feColorMatrix in="SourceAlpha" values="0 0 0 0 0 0 0 0 0 0 0 0 0 0 0 0 0 0 127 0" result="hardAlpha"/><feOffset dy="2"/><feGaussianBlur stdDeviation="1.5"/><feComposite in2="hardAlpha" operator="out"/><feColorMatrix values="0 0 0 0 0 0 0 0 0 0 0 0 0 0 0 0 0 0 0.25 0"/><feBlend in2="BackgroundImageFix" result="effect1_dropShadow_1836_1206"/><feBlend in="SourceGraphic" in2="effect1_dropShadow_1836_1206" result="shape"/></filter><filter id="filter5_i_1836_1206" x="70.292" y="23" width="13.576" height="9.346" filterUnits="userSpaceOnUse" color-interpolation-filters="sRGB"><feFlood flood-opacity="0" result="BackgroundImageFix"/><feBlend in="SourceGraphic" in2="BackgroundImageFix" result="shape"/><feColorMatrix in="SourceAlpha" values="0 0 0 0 0 0 0 0 0 0 0 0 0 0 0 0 0 0 127 0" result="hardAlpha"/><feOffset dy="4"/><feGaussianBlur stdDeviation="1.5"/><feComposite in2="hardAlpha" operator="arithmetic" k2="-1" k3="1"/><feColorMatrix values="0 0 0 0 0 0 0 0 0 0 0 0 0 0 0 0 0 0 0.5 0"/><feBlend in2="shape" result="effect1_innerShadow_1836_1206"/></filter></defs></svg>